<?xml version="1.0" encoding="utf-8"?>
<!-- Generator: Adobe Illustrator 16.0.0, SVG Export Plug-In . SVG Version: 6.00 Build 0)  -->
<!DOCTYPE svg PUBLIC "-//W3C//DTD SVG 1.1//EN" "http://www.w3.org/Graphics/SVG/1.1/DTD/svg11.dtd">
<svg version="1.1" id="Layer_1" xmlns="http://www.w3.org/2000/svg" xmlns:xlink="http://www.w3.org/1999/xlink" x="0px" y="0px"
	 width="200px" height="200px" viewBox="0 0 200 200" enable-background="new 0 0 200 200" xml:space="preserve">
<g>
	<path fill="#133F56" d="M181.394,170.187c0,1.179-42.007,2.135-93.825,2.135s-73.493-0.956-73.493-2.135
		c0-1.18,21.675-2.136,73.493-2.136S181.394,169.007,181.394,170.187z"/>
	<path fill="#0D1F29" d="M41.997,147.163c6.631,0,12.006,5.375,12.006,12.006s-5.375,12.007-12.006,12.007h-3.329v-24.013H41.997z"
		/>
	<path fill="#0D1F29" d="M104.673,147.163c6.631,0,12.007,5.375,12.007,12.006s-5.376,12.007-12.007,12.007h-3.328v-24.013H104.673z
		"/>
	<path fill="#0D1F29" d="M41.997,147.163c6.631,0,12.006,5.375,12.006,12.006s-5.375,12.007-12.006,12.007h-3.329v-24.013H41.997z"
		/>
	<circle fill="#0D1F29" cx="64.708" cy="156.929" r="12.006"/>
	<path fill="#0D1F29" d="M132.133,144.923c6.631,0,12.006,5.375,12.006,12.006s-5.375,12.006-12.006,12.006h-3.329v-24.012H132.133z
		"/>
	<circle fill="#0D1F29" cx="128.805" cy="156.929" r="12.006"/>
	<g>
		<rect x="101.345" y="80.719" fill="#E2BC7D" width="61.576" height="21.267"/>
		<rect x="76.714" y="101.93" fill="#E2BC7D" width="49.26" height="49.261"/>
		<rect x="76.714" y="122.777" fill="#CBA36A" width="49.26" height="7.566"/>
		<rect x="96.206" y="122.777" fill="#A77846" width="10.277" height="7.566"/>
		<rect x="97.562" y="101.93" fill="#CBA36A" width="7.566" height="49.261"/>
		<rect x="125.975" y="101.93" fill="#CBA36B" width="36.946" height="49.261"/>
		<rect x="125.975" y="122.777" fill="#A77846" width="36.946" height="7.566"/>
		<rect x="139.16" y="122.777" fill="#956C3D" width="10.277" height="7.566"/>
		<polygon fill="#A47744" points="125.975,101.986 162.921,101.986 181.394,83.624 144.448,83.624 		"/>
		<rect x="140.516" y="101.93" fill="#A77846" width="7.566" height="49.261"/>
		<polygon fill="#956C3D" points="140.516,101.93 148.082,101.93 166.388,83.624 158.82,83.624 		"/>
		<polygon fill="#CBA36B" points="125.975,101.93 76.714,101.93 58.241,83.457 107.502,83.457 		"/>
		<polygon fill="#A77846" points="105.128,101.93 97.562,101.93 79.088,83.457 86.655,83.457 		"/>
	</g>
	<path fill="#133F56" d="M16.446,159.169h109.529v-7.979H16.446c-1.309,0-2.37,1.061-2.37,2.369v3.24
		C14.076,158.108,15.137,159.169,16.446,159.169z"/>
	<path fill="#D65C5B" d="M16.446,151.19h60.269V101.93H46.514c-5.896,0-11.406,2.927-14.707,7.813l-12.32,18.232
		c-1.982,2.935-3.042,6.395-3.042,9.937V151.19z"/>
	<path fill="#F2F2F2" d="M62.249,131.078v-23.604H46.514c-4.06,0-7.841,2.009-10.113,5.372l-12.319,18.232H62.249z"/>
	<rect x="69.457" y="101.93" fill="#C33B37" width="7.258" height="49.261"/>
	<path fill="#0D1F29" d="M100.79,144.923c7.868,0,14.247,6.378,14.247,14.246H86.543C86.543,151.301,92.922,144.923,100.79,144.923z
		"/>
	<path fill="#0D1F29" d="M38.114,144.923c7.868,0,14.247,6.378,14.247,14.246H23.867C23.867,151.301,30.246,144.923,38.114,144.923z
		"/>
	<circle fill="#242A44" cx="101.344" cy="159.169" r="12.006"/>
	<circle fill="#F2F2F2" cx="101.344" cy="159.169" r="5.907"/>
	<circle fill="#242A44" cx="38.669" cy="159.169" r="12.006"/>
	<circle fill="#F2F2F2" cx="38.669" cy="159.169" r="5.907"/>
	<rect x="125.975" y="142.474" fill="#C33B37" width="5.146" height="4.897"/>
	<rect x="120.83" y="142.474" fill="#D65C5B" width="5.145" height="4.897"/>
	<rect x="157.775" y="142.474" fill="#C33B37" width="5.146" height="4.897"/>
	<g>
		<path fill="#C33B37" d="M56.009,135.636h4.736c0.83,0,1.504-0.674,1.504-1.505v-1.076h-7.745v1.076
			C54.504,134.962,55.178,135.636,56.009,135.636z"/>
		<path fill="#242A44" d="M56.009,134.997h4.736c0.83,0,1.504-0.674,1.504-1.505v-0.438h-7.745v0.438
			C54.504,134.323,55.178,134.997,56.009,134.997z"/>
	</g>
	<path fill="#F2F2F2" d="M21.124,144.923c0-2.584-2.094-4.678-4.678-4.678v9.355C19.029,149.601,21.124,147.506,21.124,144.923z"/>
	<path fill="#112F3E" d="M162.921,151.19h-36.946c-1.309,0-2.369,1.061-2.369,2.369v3.24c0,1.309,1.061,2.369,2.369,2.369h36.946
		c1.309,0,2.369-1.061,2.369-2.369v-3.24C165.29,152.251,164.229,151.19,162.921,151.19z"/>
	<circle fill="#F2F2F2" cx="128.547" cy="155.18" r="1.695"/>
	<circle fill="#F2F2F2" cx="132.314" cy="155.18" r="0.848"/>
	<circle fill="#F2F2F2" cx="160.348" cy="155.18" r="1.695"/>
	<circle fill="#F2F2F2" cx="156.581" cy="155.18" r="0.848"/>
</g>
<text transform="matrix(1 0 0 1 107.668 73.666)" fill="#4A4848" font-family="'ArialRoundedMTBold'" font-size="76">!</text>
</svg>
