<?xml version="1.0" encoding="utf-8"?>
<!-- Generator: Adobe Illustrator 16.0.0, SVG Export Plug-In . SVG Version: 6.00 Build 0)  -->
<!DOCTYPE svg PUBLIC "-//W3C//DTD SVG 1.1//EN" "http://www.w3.org/Graphics/SVG/1.1/DTD/svg11.dtd">
<svg version="1.1" id="Layer_1" xmlns="http://www.w3.org/2000/svg" xmlns:xlink="http://www.w3.org/1999/xlink" x="0px" y="0px"
	 width="200px" height="200px" viewBox="0 0 200 200" enable-background="new 0 0 200 200" xml:space="preserve">
<g>
	<g>
		<g opacity="0.3">
			<linearGradient id="SVGID_1_" gradientUnits="userSpaceOnUse" x1="66.9468" y1="95.7363" x2="66.9468" y2="21.4443">
				<stop  offset="0" style="stop-color:#FFFFFF"/>
				<stop  offset="0.1468" style="stop-color:#FCFDFD;stop-opacity:0.8532"/>
				<stop  offset="0.2753" style="stop-color:#F1F5F6;stop-opacity:0.7247"/>
				<stop  offset="0.3969" style="stop-color:#DFE9EB;stop-opacity:0.6031"/>
				<stop  offset="0.5142" style="stop-color:#C6D7DB;stop-opacity:0.4858"/>
				<stop  offset="0.6286" style="stop-color:#A5C0C6;stop-opacity:0.3714"/>
				<stop  offset="0.7408" style="stop-color:#7DA4AD;stop-opacity:0.2592"/>
				<stop  offset="0.8511" style="stop-color:#4D838F;stop-opacity:0.1489"/>
				<stop  offset="0.9573" style="stop-color:#185E6D;stop-opacity:0.0427"/>
				<stop  offset="1" style="stop-color:#004D5E;stop-opacity:0"/>
			</linearGradient>
			<path fill="url(#SVGID_1_)" d="M65.002,28.589l0.35,0.01c0.018-0.01,0.442-0.253,0.552-0.832l0.469-2.506l2.488,0.004
				l0.031-0.205l-2.794-0.005l-0.519,2.712C65.485,28.251,65.005,28.587,65.002,28.589z"/>
			<linearGradient id="SVGID_2_" gradientUnits="userSpaceOnUse" x1="104.0859" y1="95.7373" x2="104.0859" y2="21.445">
				<stop  offset="0" style="stop-color:#FFFFFF"/>
				<stop  offset="0.1468" style="stop-color:#FCFDFD;stop-opacity:0.8532"/>
				<stop  offset="0.2753" style="stop-color:#F1F5F6;stop-opacity:0.7247"/>
				<stop  offset="0.3969" style="stop-color:#DFE9EB;stop-opacity:0.6031"/>
				<stop  offset="0.5142" style="stop-color:#C6D7DB;stop-opacity:0.4858"/>
				<stop  offset="0.6286" style="stop-color:#A5C0C6;stop-opacity:0.3714"/>
				<stop  offset="0.7408" style="stop-color:#7DA4AD;stop-opacity:0.2592"/>
				<stop  offset="0.8511" style="stop-color:#4D838F;stop-opacity:0.1489"/>
				<stop  offset="0.9573" style="stop-color:#185E6D;stop-opacity:0.0427"/>
				<stop  offset="1" style="stop-color:#004D5E;stop-opacity:0"/>
			</linearGradient>
			<polygon fill="url(#SVGID_2_)" points="105.218,27.95 103.256,22.459 102.955,22.462 104.895,27.954 			"/>
			<linearGradient id="SVGID_3_" gradientUnits="userSpaceOnUse" x1="24.3184" y1="95.7451" x2="24.3184" y2="21.4409">
				<stop  offset="0" style="stop-color:#FFFFFF"/>
				<stop  offset="0.1468" style="stop-color:#FCFDFD;stop-opacity:0.8532"/>
				<stop  offset="0.2753" style="stop-color:#F1F5F6;stop-opacity:0.7247"/>
				<stop  offset="0.3969" style="stop-color:#DFE9EB;stop-opacity:0.6031"/>
				<stop  offset="0.5142" style="stop-color:#C6D7DB;stop-opacity:0.4858"/>
				<stop  offset="0.6286" style="stop-color:#A5C0C6;stop-opacity:0.3714"/>
				<stop  offset="0.7408" style="stop-color:#7DA4AD;stop-opacity:0.2592"/>
				<stop  offset="0.8511" style="stop-color:#4D838F;stop-opacity:0.1489"/>
				<stop  offset="0.9573" style="stop-color:#185E6D;stop-opacity:0.0427"/>
				<stop  offset="1" style="stop-color:#004D5E;stop-opacity:0"/>
			</linearGradient>
			<polygon fill="url(#SVGID_3_)" points="25.313,61.468 26.719,58.831 26.245,58.835 24.904,61.325 23.28,61.552 21.918,64.618 
				22.427,64.604 23.706,61.692 			"/>
			<linearGradient id="SVGID_4_" gradientUnits="userSpaceOnUse" x1="52.374" y1="95.7754" x2="52.374" y2="21.4444">
				<stop  offset="0" style="stop-color:#FFFFFF"/>
				<stop  offset="0.1468" style="stop-color:#FCFDFD;stop-opacity:0.8532"/>
				<stop  offset="0.2753" style="stop-color:#F1F5F6;stop-opacity:0.7247"/>
				<stop  offset="0.3969" style="stop-color:#DFE9EB;stop-opacity:0.6031"/>
				<stop  offset="0.5142" style="stop-color:#C6D7DB;stop-opacity:0.4858"/>
				<stop  offset="0.6286" style="stop-color:#A5C0C6;stop-opacity:0.3714"/>
				<stop  offset="0.7408" style="stop-color:#7DA4AD;stop-opacity:0.2592"/>
				<stop  offset="0.8511" style="stop-color:#4D838F;stop-opacity:0.1489"/>
				<stop  offset="0.9573" style="stop-color:#185E6D;stop-opacity:0.0427"/>
				<stop  offset="1" style="stop-color:#004D5E;stop-opacity:0"/>
			</linearGradient>
			<polygon fill="url(#SVGID_4_)" points="48.317,22.497 49.159,22.726 58.946,23.063 59.093,22.652 49.483,22.329 48.759,22.136 
				46.128,20.759 45.655,21.108 			"/>
			<linearGradient id="SVGID_5_" gradientUnits="userSpaceOnUse" x1="39.415" y1="95.4893" x2="39.415" y2="21.93">
				<stop  offset="0" style="stop-color:#FFFFFF"/>
				<stop  offset="0.1468" style="stop-color:#FCFDFD;stop-opacity:0.8532"/>
				<stop  offset="0.2753" style="stop-color:#F1F5F6;stop-opacity:0.7247"/>
				<stop  offset="0.3969" style="stop-color:#DFE9EB;stop-opacity:0.6031"/>
				<stop  offset="0.5142" style="stop-color:#C6D7DB;stop-opacity:0.4858"/>
				<stop  offset="0.6286" style="stop-color:#A5C0C6;stop-opacity:0.3714"/>
				<stop  offset="0.7408" style="stop-color:#7DA4AD;stop-opacity:0.2592"/>
				<stop  offset="0.8511" style="stop-color:#4D838F;stop-opacity:0.1489"/>
				<stop  offset="0.9573" style="stop-color:#185E6D;stop-opacity:0.0427"/>
				<stop  offset="1" style="stop-color:#004D5E;stop-opacity:0"/>
			</linearGradient>
			<polygon fill="url(#SVGID_5_)" points="39.399,70.269 39.321,70.263 39.509,70.299 			"/>
			<linearGradient id="SVGID_6_" gradientUnits="userSpaceOnUse" x1="79.6519" y1="95.7422" x2="79.6519" y2="21.4441">
				<stop  offset="0" style="stop-color:#FFFFFF"/>
				<stop  offset="0.1468" style="stop-color:#FCFDFD;stop-opacity:0.8532"/>
				<stop  offset="0.2753" style="stop-color:#F1F5F6;stop-opacity:0.7247"/>
				<stop  offset="0.3969" style="stop-color:#DFE9EB;stop-opacity:0.6031"/>
				<stop  offset="0.5142" style="stop-color:#C6D7DB;stop-opacity:0.4858"/>
				<stop  offset="0.6286" style="stop-color:#A5C0C6;stop-opacity:0.3714"/>
				<stop  offset="0.7408" style="stop-color:#7DA4AD;stop-opacity:0.2592"/>
				<stop  offset="0.8511" style="stop-color:#4D838F;stop-opacity:0.1489"/>
				<stop  offset="0.9573" style="stop-color:#185E6D;stop-opacity:0.0427"/>
				<stop  offset="1" style="stop-color:#004D5E;stop-opacity:0"/>
			</linearGradient>
			<path fill="url(#SVGID_6_)" d="M146.649,80.571l-1.693-2.793l10.756,0.017l-0.301-0.416l-10.706-0.016l-4.265-7.04
				c1.592-0.03,6.086,0.039,10.018,0.111l-0.391-0.555c-3.85-0.072-8.245-0.139-9.963-0.11l-1.646-2.718l7.186-0.256l2.273-0.006
				l-0.145-0.207l-2.299,0.006l-7.141,0.254l-2.443-4.031l-1.281-2.339l-4.773-8.805l5.916-0.327
				c0.002,0.129,0.01,0.268,0.041,0.433c0.1,0.54,1.05,1.887,1.091,1.944l2.137,2.936l0.454-0.008l-2.15-2.935
				c-0.004-0.005-0.155-0.218-0.344-0.505l5.971,0.381l-0.092-0.206l-6.021-0.397c-0.262-0.414-0.542-0.902-0.592-1.166
				c-0.047-0.24-0.044-0.427-0.041-0.607c0.002-0.216,0.004-0.42-0.08-0.686c-0.111-0.355-0.473-1.165-0.66-1.579l0.602-0.003
				l-0.353-0.555l-7.962,0.043l-1.388-2.092l8.026-0.046l-0.348-0.554l-8.045,0.047l-0.042-0.063l-2.398-4.004l7.954-0.061
				l-0.34-0.553l-7.945,0.061l-1.504-2.511l7.924-0.056l-0.334-0.554l-3.612,0.026l-1.753-2.805l2.396-0.109l3.166,0.01
				l-0.128-0.207l-3.173-0.01l-2.846,0.129l-3.692,0.149l-0.651-1.087l6.601-0.188l4.087-0.062l-0.346-0.554l-4.097,0.063
				l-6.575,0.189l-0.059-0.098l-2.96-5.445l3.604-0.047c0.168,0.373,0.407,0.783,0.724,1.002c0.106,0.072,0.227,0.177,0.366,0.298
				c0.42,0.36,1.059,0.905,2.349,1.487c1.681,0.744,4.506,1.666,4.627,1.705l0.228-0.461c-0.029-0.01-2.854-0.932-4.452-1.642
				c-1.104-0.497-1.624-0.938-2.038-1.292c-0.165-0.142-0.308-0.264-0.466-0.373c-0.223-0.152-0.543-0.818-0.704-1.344l-0.006-0.021
				l-2.913-5.436l-0.797,0.005l2.828,5.394c0.034,0.111,0.098,0.301,0.186,0.518l-3.621,0.047l-2.813-5.172h-0.655l2.736,5.182
				l-4.735,0.068l-2.549-5.506l-0.298,0.01l2.522,5.502l-28.408,0.413c-0.068-2.817-0.121-4.761-0.142-5.466h-0.389
				c0.015,0.683,0.049,2.637,0.091,5.473L77.07,28.45l-0.134-3.845l-5.449,0.127l0.154-1.937l-0.386,0.002l-0.513,5.744
				l-1.752,0.024l0.515-6.642l-0.3,0.01l-0.543,6.637l-15.885,0.23l0.899-4.258l15.301-0.043l0.024-0.206l-25.519,0.074
				l-0.096,0.204l3.323-0.009l-3.392,8.62l-3.094-0.033l-0.206,0.41l3.139,0.033l-4.094,10.406l0.12-0.012
				c-0.082,0.039-0.156,0.074-0.208,0.1c-0.444,0.211-1.767,0.579-2.241,0.703l-6.269,2.021l1.431-2.474l3.411-2.699l0.639-0.996
				l-0.264-0.008l-0.697,1.098l-3.469,2.729l-1.453,2.479l-0.341,0.109l0.174,0.176l-0.778,1.326l-5.354,9.779l-0.544-0.043
				l-0.172,0.168c5.854,0.467,7.901,0.612,8.67,0.616c0.162,0.001,0.276-0.005,0.357-0.017c0.149-0.021,0.475-0.044,0.968-0.068
				l0.35-0.016l-7.638,13.972l-9.948-0.026l1.27-2.041h-0.537l-1.408,2.243l10.513,0.028l-0.316,0.578l-2.723,4.299
				c-0.509,0.041-1.111,0.104-1.734,0.168c-0.884,0.091-1.797,0.185-2.153,0.182c-0.409-0.002-1.669,0.035-3.129,0.08
				c-1.714,0.051-3.66,0.109-4.369,0.104c-1.111-0.007-1.502-0.297-1.742-0.729c-0.181-0.33,0.735-1.303,1.101-1.65l-0.542-0.027
				c-0.056,0.053-1.388,1.309-1.143,1.76c0.241,0.436,0.676,0.842,2.184,0.852c0.741,0.006,2.706-0.054,4.438-0.105
				c1.386-0.041,2.695-0.08,3.074-0.078c0.45,0.003,1.329-0.088,2.344-0.191c0.498-0.052,1.057-0.109,1.538-0.15l-1.458,2.303
				c-1.87,0.18-3.571,0.351-4.087,0.42c-1.335,0.183-4.46,0.8-5.8,1.106c-0.685,0.155-2.036,0.582-3.477,1.033
				c-1.527,0.475-3.273,1.012-4.061,1.173l0.243,0.166c0.252-0.053,0.579-0.135,0.954-0.237l2.694,0.347l-1.262,3.701l0.04-0.002
				l-0.229,0.317c1.867-0.222,4.027-0.382,5.494-0.371c0.374,0.003,0.903,0.016,1.511,0.03c1.352,0.033,2.968,0.071,4.278,0.043
				l-2.658,6.957l1.226,0.01l2.581-7.012c1.119-0.051,3.014-0.098,4.703-0.137c1.304-0.032,2.429-0.06,2.984-0.085
				c0.397-0.019,1.182-0.012,2.013-0.005c1.234,0.01,2.578,0.021,3.656-0.028l-1.7,7.035l1.361-0.02l1.638-7.132
				c0.021-0.004,0.044-0.006,0.063-0.01c0.358-0.063,0.855-0.145,1.416-0.237c1.678-0.278,3.753-0.624,4.786-0.884
				c0.28-0.07,0.64-0.148,1.056-0.239c1.463-0.32,3.452-0.759,4.337-1.416c0.535-0.4,1.386-0.689,2.365-1.024
				c0.757-0.261,1.609-0.555,2.401-0.941c1.743-0.858,3.657-2.074,3.72-2.115l2.639-1.518l0.054-0.04
				c0.646-0.64,1.49-1.399,1.709-1.5c0.353-0.114,1.516-0.224,4.009-0.376c1.154-0.07,2.54-0.135,3.804-0.185
				c0.377,1.701,1.459,2.731,2.277,3.5l0.227,0.212c0.696,0.65,0.897,1.408,0.953,1.768h0.046l-0.833,6.906l-1.493,2.425
				c0.001,0.001-0.902,1.763-1.732,2.96c-0.452,0.641-0.512,0.996-0.518,1.403l1.242-0.011c-0.001-0.409,0.056-0.791,0.513-1.451
				c0.798-1.174,1.677-2.934,1.686-2.95l1.396-2.321l3.623-0.065c0,0.001-0.001,0.001-0.001,0.003
				c-0.021,0.246,1.029,1.266,1.348,1.563l2.622,2.82l1.285-0.113l-2.662-2.828c-0.632-0.59-1.306-1.305-1.306-1.432
				c0.001-0.012,0.005-0.023,0.007-0.035l6.799-0.123l2.873-0.059l0.214,4.309l1.201,0.006l-0.276-4.337l4.276-0.087l7.849-0.125
				l11.321-0.215l9.657,0.002l15.43,0.139c0,0,3.832,0.005,4.331,0.008c0.52,0.005,2.764-0.063,3.019-0.07
				c0.101-0.004,2.483-0.076,3.122-0.119c0.534-0.035,1.73-0.182,2.217-0.242l3.668,0.387l0.045,0.083l0.871,1.407
				c0.646,0.013,1.295,0.027,1.945,0.043l-0.836-1.305L146.649,80.571z M147.265,84.646l-15.063,0.24l-1.002-2.354h0.39
				c0.021,0,2.083,0.038,3.41,0.092c0.988,0.041,3.859,0.225,6.173,0.373c0.852,0.055,1.653,0.105,2.309,0.146l-0.043-0.407
				c-0.651-0.041-1.447-0.092-2.294-0.146c-2.445-0.156-5.209-0.335-6.234-0.377c-1.363-0.055-3.393-0.092-3.513-0.094h-0.372
				l-0.983-2.351l14.532,0.167l0.283,0.484L147.265,84.646z M120.117,84.223l-16.733,0.524l-0.364,0.914l-6.744,0.08l-0.324-2.881
				c1.782-0.061,3.919-0.095,4.726-0.106c1.063-0.016,6.517-0.132,6.721-0.137l12.056-0.063L120.117,84.223z M44.713,69.608
				l16.024-1.988l5.355-0.104l-0.301,2.328c-0.012,0.091-0.037,0.289-0.07,0.559l-19.567,0.584L44.713,69.608z M46.237,58.711
				l-0.305,0.001c-3.294,0.013-5.373,0.02-6.676,0.022l1.604-3.487l6.868,0.072l-0.048,0.135l-1.234,3.15l0.469,0.004l1.219-3.152
				l1.927-5.414l4.934-0.071l2.229-0.04c-0.041,0.291-0.164,1.131-0.319,1.807c-0.124,0.541-0.24,1.51,0.386,1.929
				c0.488,0.324,1.953,0.729,2.016,0.746l0.26-0.179c-0.015-0.004-1.455-0.402-1.898-0.697c-0.405-0.27-0.523-0.926-0.327-1.801
				c0.151-0.677,0.271-1.516,0.312-1.812l10.797-0.19c-0.583,0.949-2.035,1.471-2.799,1.742l-0.432,0.152
				c-1.375,0.48-2.804,0.977-3.527,1.436c-0.582,0.365-1.735,1.035-2.429,1.436c-0.276,0.16-0.516,0.298-0.548,0.318l-5.01,3.434
				l0.564,0.076l5.115-3.527c0.009-0.006,0.085-0.051,0.215-0.125c0.512-0.296,2.062-1.195,2.73-1.616
				c0.743-0.474,2.211-1.06,3.735-1.493c2.958-0.853,3.224-2.744,3.227-2.764l0.006-0.049l0.033-0.041
				c0.009-0.023,0.023-0.141,0.04-0.285l2.439-0.045l-0.556,0.755l-2.052,1.7c-0.063,0.039-1.537,0.973-2.153,1.443
				c-0.513,0.391-1.975,0.861-2.682,1.088c-0.114,0.035-0.211,0.066-0.284,0.09c-0.545,0.18-1.463,0.676-3.194,1.71
				c-0.806,0.474-1.3,0.724-1.661,0.905c-0.381,0.19-0.635,0.316-0.97,0.553c-0.561,0.392-0.575,0.553-0.604,0.844
				c-0.006,0.066-0.013,0.141-0.027,0.229c-0.043,0.252-0.031,0.574-0.011,0.82c-2.541-0.127-5.632-0.271-5.833-0.287l-0.282,0.536
				c0.081,0.007,8.279,0.396,9.038,0.466c0.246,0.023,0.565,0.028,0.932,0.021l-2.074,8.325l-14.874,1.846l-1.254-1.2l-1.928-0.742
				l-0.219,0.086c0.392-2.012,1.004-5.467,1.315-7.24c0.104-0.592,0.182-1.041,0.222-1.262l0.033-0.188l3.353-0.012l5.306-0.287
				l0.091-0.138L46.237,58.711z M46.899,33.167c0.46-0.054,0.894-0.098,1.08-0.098c0.326,0.002,2.442-0.025,3.359-0.038
				l-1.233,4.052l-0.424,2.955l-5.611,0.028c0.248-0.277,0.67-0.749,0.805-0.899c0.115-0.127,0.302-0.557,0.572-1.199
				c0.146-0.352,0.286-0.684,0.353-0.791c0.02-0.033,0.041-0.077,0.064-0.131c0.172-0.396,0.411-1.284,0.425-1.335
				c0.063-0.626,0.203-1.624,0.316-1.814C46.632,33.853,46.738,33.585,46.899,33.167z M65.19,34.905l-0.203,2.76l-7.501,0.03
				L57.433,37.9l7.54-0.03l-0.15,2.035l-4.028,0.063l-8.41,0.057l-2.321,0.012l0.411-2.965l1.163-3.879h0.099L51.734,33.2
				c0.798-0.057,1.783-0.088,1.968-0.049c0.305,0.101,0.658,0.293,0.762,0.493c0.033,0.063,0.06,0.146,0.09,0.233
				c0.113,0.334,0.257,0.75,0.796,0.924c0.408,0.131,1.271,0.199,2.561,0.203c0.073,0,0.149-0.002,0.297-0.006
				C58.687,34.985,60.045,34.948,65.19,34.905z M67.112,34.89c1.028-0.007,2.027-0.016,2.987-0.025l-0.405,3.97
				c-0.025,0.306-0.051,0.64-0.077,0.998L65.201,39.9l0.346-4.998C66.036,34.898,66.556,34.894,67.112,34.89z M70.891,31.714
				l3.298-0.184l2.449-0.096l-0.108,2.797c-1.669,0.025-3.665,0.055-5.879,0.079L70.891,31.714z M107.503,34.298l1.587,3.956
				l-13.922,0.114l-4.958,0.016l0.026,1.074l-8.612,0.156c-0.033-1.734-0.065-3.386-0.1-4.93c0.192-0.004,0.297-0.006,0.305-0.006
				l13.377-0.244L107.503,34.298z M81.075,39.624L76,39.716l0.001-0.009l0.089-4.921c2.27-0.035,3.994-0.07,4.936-0.09
				C81.043,36.241,81.06,37.892,81.075,39.624z M88.449,42.155l0.218,2.288c-0.818,0.019-3.973,0.097-4.627,0.142
				c-0.518,0.036-1.601,0.376-2.318,0.617c-0.016-1.016-0.033-2.016-0.05-2.994L88.449,42.155z M90.27,49.671l-0.037-0.004
				c-0.123,0.443-0.45,0.943-0.763,0.977c-0.284,0.031-0.807,0.039-1.36,0.047c-0.647,0.01-1.319,0.02-1.797,0.068
				c-0.85,0.085-2.454,0.115-3.123,0.112c-0.359-0.003-0.872,0.05-1.373,0.11c-0.02-0.852-0.035-1.779-0.049-2.775l8.228-0.088
				L90.27,49.671z M82.533,59.794l0.015,0.041c0.035,0.094,0.061,0.165,0.071,0.205l0.013,0.044l-0.001,0.005l0.367,0.832
				l-1.59,0.02l-2.538-0.122l-9.018,0.428l-2.653-0.014l-3.34-0.091l-0.02,0.063l-0.229-1.196l0.286-0.869
				c0.348-0.02,0.685-0.039,0.987-0.053c0.613-0.027,8.737-0.06,17.384-0.085C82.361,59.316,82.465,59.604,82.533,59.794z
				 M122.082,65.755c0.021,0.033,2.111,3.396,2.222,3.646c0.022,0.051,0.094,0.273,0.137,0.422c-0.348-0.029-0.702-0.06-1.077-0.09
				c-2.663-0.212-9.301-0.699-12.051-0.893c-1.387-0.097-2.578-0.139-3.841-0.184c-1.041-0.037-2.116-0.074-3.354-0.146
				l-2.317-7.529l2.486-0.008L120.4,60.84L122.082,65.755z M128.013,68.468c0.04-0.089,0.2-0.25,0.383-0.436
				c0.096-0.098,0.197-0.201,0.293-0.307l8.986,0.42l0.973,1.66c-1.965,0.055-4.147,0.133-6.122,0.205
				c-0.722,0.025-1.414,0.051-2.056,0.072c-0.794,0.028-1.506,0.027-2.188,0.006C128.14,69.515,127.912,68.681,128.013,68.468z
				 M118.4,77.062c1.133,0.043,5.657,0.215,6.354,0.219c0.539,0.004,2.245,0.053,3.137,0.077l1.94,4.763l-9.352,0.014L118.4,77.062z
				 M67.082,66.39c1.283-0.054,4.335-0.15,7.161-0.01c0.895,0.045,2.105,0.096,3.474,0.154c1.895,0.079,4.091,0.171,6.158,0.275
				l-0.028,1.834l-3.238,0.103l-2.024,0.358l-2.001,0.131l-9.859,0.213L67.082,66.39z M95.266,67.864
				c0.515,0.052,1.016,0.103,1.511,0.154l0.48,3.248l-12.545-0.077l0.012-4.336c2.472,0.132,4.659,0.282,5.774,0.45
				C92.161,67.552,93.737,67.711,95.266,67.864z M84.702,74.704l0.009-3.309l8.261,0.051l1.022,4.99h-0.029l-8.343-0.008
				l-0.89,0.009L84.702,74.704z M94.049,71.452l3.771,0.023l-0.52-3.398c0.5,0.055,0.995,0.113,1.484,0.18
				c1.038,0.139,1.451,0.249,1.852,0.355c0.59,0.156,1.076,0.266,2.225,0.361l2.277,7.766c-0.15-0.001-0.261-0.002-0.319-0.002
				c-0.169-0.002-1.155-0.051-2.023-0.094c-1.643-0.08-3.501-0.172-4.216-0.178l-3.454-0.021L94.049,71.452z M114.895,69.645
				l0.774,2.442l-5.238,0.029l-0.946-1.955l-4.847,0.037l-0.348-1.131c1.186,0.066,2.221,0.104,3.225,0.139
				c1.235,0.044,2.405,0.084,3.733,0.178C112.144,69.446,113.449,69.54,114.895,69.645z M106.651,76.743l-1.95-6.339l4.353-0.032
				l0.938,1.953l5.743-0.031l1.382,4.36c-1.489,0.024-4.377,0.072-5.068,0.085C111.428,76.749,108.595,76.747,106.651,76.743z
				 M129.045,77.39l14.255,0.369l1.152,1.969l-14.498-0.167L129.045,77.39z M134.5,77.121l-3.345-6.495
				c0.57-0.021,1.176-0.042,1.807-0.064c1.939-0.07,4.078-0.146,6.01-0.2l4.086,6.982L134.5,77.121z M130.631,70.641l3.295,6.466
				l-5.054-0.131l-2.706-6.465C127.567,70.619,128.945,70.688,130.631,70.641z M125.064,70.421l2.657,6.521
				c-0.909-0.025-2.58-0.072-3.143-0.076c-0.586-0.004-4.64-0.154-6.334-0.221l-2.271-6.922c2.754,0.201,5.761,0.424,7.351,0.551
				c0.509,0.04,0.988,0.082,1.448,0.121C124.872,70.404,124.967,70.412,125.064,70.421z M100.519,60.986l2.177,7.42
				c-0.712-0.071-1.001-0.147-1.358-0.243c-0.438-0.115-0.983-0.262-2.208-0.426c-0.638-0.087-1.273-0.16-1.915-0.23L96.219,61
				L100.519,60.986z M95.737,61.002l0.955,6.45c-0.389-0.041-0.781-0.08-1.181-0.121c-1.095-0.109-2.215-0.224-3.361-0.371
				l-0.658-5.945L95.737,61.002z M91.011,61.021l0.619,5.868c-0.236-0.033-0.472-0.064-0.71-0.1
				c-1.235-0.188-3.585-0.35-6.194-0.488l0.009-3.256l-0.872-1.932L91.011,61.021z M83.932,63.034v0.033l-0.049,3.191
				c-2.036-0.104-4.172-0.193-6.022-0.271c-1.351-0.057-2.545-0.107-3.429-0.15c-2.871-0.145-5.88-0.057-7.285,0.002l0.246-2.107
				h-0.811l-0.463,3.58l-5.402,0.104l-0.792,0.099l2.018-8.272c0.455-0.017,0.96-0.044,1.481-0.075l-0.288,0.85l0.293,1.607
				l1.774,1.869l0.462-0.086l-1.753-1.828l-0.045-0.23l3.288,0.09l2.702,0.013l9.012-0.429l2.524,0.124l1.695-0.022L83.932,63.034z
				 M65.341,57.473l9.073-0.252l4.589-0.215l2.399-0.018c0.106,0.903,0.238,1.296,0.385,1.466
				c-8.225,0.024-16.284,0.058-16.951,0.088c-0.235,0.011-0.49,0.025-0.755,0.04l0.004-0.011
				C64.197,58.474,64.798,57.944,65.341,57.473z M82.821,58.45c-0.042-0.025-0.107-0.049-0.217-0.064l-0.168-0.018l-0.072-0.132
				c-0.117-0.317-0.218-0.963-0.302-1.919l6.678-0.217l2.202-0.08l1.196,0.006l0.384,2.397C89.663,58.431,86.255,58.44,82.821,58.45
				z M81.38,56.782l-2.405,0.019l-4.589,0.215l-8.8,0.245c0.274-0.236,0.509-0.436,0.619-0.521c0.138-0.105,0.367-0.308,0.619-0.53
				c0.103-0.092,0.212-0.188,0.321-0.285c0.073,0.001,1.175,0.022,2.194-0.046c0.48-0.031,1.114-0.103,1.726-0.171
				c0.696-0.079,1.415-0.159,1.855-0.177c0.94-0.035,2.84-0.619,3.323-0.815c0.645-0.263,0.764-1.021,0.781-1.407
				c0.002-0.06,0.002-0.111,0.002-0.15c-0.008-0.578-0.406-1.307-0.524-1.512c0.448-0.012,0.638-0.036,0.819-0.061
				c0.166-0.021,0.322-0.041,0.698-0.056c0.863-0.032,2.054-0.101,2.625-0.175c0.092-0.013,0.209-0.029,0.343-0.047
				c0.051-0.008,0.107-0.016,0.163-0.023C81.187,54.007,81.268,55.714,81.38,56.782z M76.586,53.161
				c0.004,0.682-0.249,1.242-0.638,1.4c-0.526,0.214-2.313,0.736-3.052,0.764c-0.476,0.02-1.179,0.098-1.923,0.182
				c-0.601,0.068-1.222,0.137-1.679,0.168c-0.744,0.051-1.559,0.05-1.917,0.047c0.242-0.211,0.462-0.391,0.581-0.457
				c0.385-0.22,1.465-1.273,1.908-1.793c0.48-0.57,1.445-1.931,1.651-2.405c0.039-0.091,0.073-0.181,0.107-0.268
				c0.128-0.335,0.249-0.649,0.522-0.741c0.097-0.033,0.203-0.08,0.314-0.131c0.229-0.104,0.487-0.221,0.728-0.217
				c0.14,0.004,0.285,0.051,0.434,0.137c0.448,0.264,0.682,0.649,0.836,0.906c0.111,0.182,0.165,0.264,0.26,0.312
				c0.02,0.011,0.062,0.055,0.091,0.087c0.157,0.167,0.45,0.465,1.282,0.493l-0.04,0.005C76.058,51.659,76.579,52.525,76.586,53.161
				z M80.864,51.11c-0.132,0.018-0.247,0.033-0.337,0.045c-0.519,0.068-1.669,0.137-2.538,0.169
				c-0.417,0.015-0.609,0.041-0.778,0.063c-0.194,0.025-0.378,0.049-0.947,0.057c-0.689,0.009-0.902-0.217-1.059-0.381
				c-0.058-0.062-0.103-0.109-0.166-0.141c-0.037-0.025-0.108-0.141-0.166-0.233c-0.165-0.271-0.414-0.682-0.918-0.977
				c-0.225-0.132-0.47-0.202-0.73-0.208c-0.423-0.009-0.768,0.148-1.046,0.275c-0.095,0.043-0.183,0.083-0.264,0.109
				c-0.427,0.143-0.559,0.484-0.713,0.88c-0.033,0.085-0.067,0.175-0.106,0.263c-0.197,0.451-1.164,1.809-1.641,2.372
				c-0.468,0.546-1.522,1.554-1.845,1.737c-0.224,0.126-0.633,0.486-1.192,0.984c-0.248,0.219-0.473,0.416-0.608,0.52
				c-0.131,0.102-0.422,0.348-0.749,0.63l-0.156,0.005l-0.002,0.133c-0.58,0.5-1.209,1.055-1.254,1.093l-0.034,0.103
				c-0.008,0.001-0.014,0.002-0.02,0.002c-0.994,0.058-2.233,0.131-2.688,0.088c-0.269-0.025-1.418-0.086-2.814-0.156
				c-0.023-0.246-0.042-0.591,0-0.851c0.016-0.089,0.021-0.165,0.027-0.233c0.025-0.271,0.035-0.395,0.521-0.735
				c0.312-0.22,0.54-0.333,0.916-0.521c0.368-0.185,0.868-0.437,1.685-0.918c1.673-1.001,2.588-1.498,3.082-1.66
				c0.071-0.024,0.166-0.054,0.276-0.089c0.792-0.254,2.254-0.725,2.82-1.154c0.602-0.463,2.107-1.417,2.137-1.437l2.078-1.728
				l0.618-0.842l8.879-0.159c0.001,1.054,0.007,2.005,0.017,2.854C81.049,51.084,80.953,51.097,80.864,51.11z M55.082,49.562
				l-4.869,0.07l0.406-1.021l3.594-0.063l6.315-0.047l-0.183,0.966L55.082,49.562z M53.096,40.565l7.591-0.05l1.441-0.022
				l-0.61,2.934l-5.651,0.129l-0.041,0.205l5.649-0.129l-0.315,1.516l-0.527,2.806l-6.286,0.048l-3.51,0.063L53.096,40.565z
				 M69.576,40.38c-0.014,0.189-0.028,0.383-0.043,0.58c-0.056,0.746-0.115,1.543-0.181,2.353l-5.25,0.056l-2.188,0.05l0.596-2.931
				L69.576,40.38z M69.171,45.344l-7.635-0.056l0.026-0.143l0.31-1.521l2.205-0.051l5.258-0.055
				C69.284,44.128,69.23,44.741,69.171,45.344z M70.119,40.371l5.447-0.099L75.261,43.3c-0.323-0.007-0.537-0.015-0.594-0.021
				c-0.273-0.06-1.266-0.09-1.486-0.095l-3.294,0.122C69.974,42.268,70.053,41.238,70.119,40.371z M60.948,48.497l7.674-0.058
				l0.175-0.003c-0.039,0.255-0.08,0.501-0.123,0.732c-0.035,0.188-0.106,0.359-0.2,0.521l0.02-0.369l-7.722,0.138L60.948,48.497z
				 M68.662,47.892l-7.614,0.059l0.451-2.457l7.652,0.057c-0.081,0.818-0.172,1.611-0.273,2.338L68.662,47.892z M69.448,47.772
				c0.134-1.025,0.284-2.641,0.421-4.262l3.3-0.122c0.461,0.013,1.182,0.046,1.337,0.079c0.058,0.013,0.327,0.024,0.735,0.035
				l-0.175,1.728l-1.807,0.103l-0.15,2.478l-3.675,0.067C69.439,47.841,69.443,47.81,69.448,47.772z M81.119,45.487
				c0.004,0.719,0.008,1.445,0.012,2.178l-7.605,0.139l0.128-2.286l1.798-0.103l0.183-1.902c1.455,0.031,3.964,0.055,5.473,0.066
				c0.005,0.604,0.009,1.215,0.012,1.831c-0.03,0.011-0.056,0.021-0.071,0.026L81.119,45.487z M81.105,43.374
				c-1.815-0.016-4.146-0.04-5.451-0.064l0.292-3.043l5.134-0.094C81.09,41.214,81.099,42.282,81.105,43.374z M75.735,34.792
				l-0.111,4.914l-0.003,0.018l-5.461,0.1c0.029-0.396,0.055-0.746,0.075-1.023l0.364-3.941
				C72.492,34.839,74.225,34.815,75.735,34.792z M52.211,40.571l0.503-0.003l-1.359,4.438l-4.116,0.037l-0.071,0.205l4.125-0.037
				l-0.875,2.859l-9.751,0.172l3.107-7.63L52.211,40.571z M40.444,48.79l9.752-0.172l-0.411,1.02l-0.352,0.005l-9.37,0.104
				L40.444,48.79z M45.625,50.093l3.688-0.041l0.319-0.004l-1.829,5.067l-3.985-0.042l1.434-2.707L45.625,50.093z M66.359,76.833
				c-0.094-0.73-0.1-1.836-0.018-3.284l0.015-0.192c0.008-0.121,0.016-0.24,0.023-0.358l17.234-0.289l-0.037-0.206l-17.183,0.29
				c0.105-1.442,0.252-2.697,0.284-2.968l0.021-0.172l9.939-0.215l2.068-0.134l1.995-0.355l3.142-0.099l-0.069,4.594l0.002,0.203
				l-0.02,1.057l0.007,1.744l-3.534,0.037c-0.399,0.012-3.934,0.117-4.848,0.205c-0.597,0.059-1.72,0.092-2.297,0.105
				c-0.013-0.022-0.026-0.047-0.039-0.068c-0.319-0.51-0.672-1.963-0.675-1.977l-1.11,0.042c0.014,0.06,0.34,1.467,0.667,2.016
				l-2.792,0.019c-0.022,0-1.207,0.035-2.762,0.094C66.369,76.891,66.363,76.862,66.359,76.833z M73.307,77.202
				c0.655-0.018,1.727-0.053,2.362-0.113c0.692-0.066,3.604-0.162,4.637-0.192l3.46-0.036l0.01,2.511L73.58,79.46
				c0.135-0.313,0.229-0.607,0.216-0.804C73.772,78.302,73.552,77.7,73.307,77.202z M72.893,80.74
				c0.148-0.239,0.395-0.657,0.593-1.074l10.291-0.089l0.012,3.027l-11.556-0.288C72.343,81.763,72.625,81.169,72.893,80.74z
				 M72.875,84.677c-0.007-0.014-0.688-1.281-0.693-1.897c0-0.017,0.003-0.034,0.004-0.052l11.604,0.289l0.01,2.563l-5.6-0.103
				l-5.067-0.006C72.984,85.015,72.88,84.691,72.875,84.677z M84.739,76.851l0.933-0.01l8.351,0.008l0.057,0.001l0.022,0.113
				l0.607,5.528c-0.403,0.019-0.768,0.039-1.067,0.061c-1.06,0.076-2.505,0.078-3.665,0.08c-0.676,0.002-1.26,0.002-1.688,0.017
				c-0.826,0.027-2.644-0.003-3.45-0.02L84.739,76.851z M95.238,76.966l-0.023-0.109l3.434,0.023
				c0.65,0.004,2.642,0.102,4.098,0.174c1.269,0.063,1.94,0.096,2.167,0.097c0.563,0.004,6.36,0.02,7.334,0.001
				c0.684-0.012,3.507-0.058,5.02-0.082l2.021,5.07l-12.062,0.064c-0.057,0.002-5.65,0.122-6.697,0.137
				c-0.994,0.015-2.934,0.049-4.625,0.104L95.238,76.966z M130.002,82.534l1.438,3.473l-9.386-0.035l-1.404-3.424L130.002,82.534z
				 M131.525,86.214l1.073,2.594l-9.416-0.084l-1.044-2.545L131.525,86.214z M135.042,48.947c0.188,0.419,0.533,1.204,0.638,1.544
				c0.075,0.242,0.075,0.434,0.072,0.634l-6.031,0.334l-0.175-0.323l-1.428-2.152L135.042,48.947z M128.355,51.011l0.02,0.037
				l-27.228,0.544l0.187,0.551l27.331-0.54l4.57,8.727l1.236,2.342l3.082,5.266l-8.694-0.408c0.224-0.275,0.374-0.547,0.274-0.747
				c-0.217-0.437-1.683-3.765-1.697-3.798l-0.494-0.008c0.015,0.034,1.463,3.363,1.679,3.803c0.133,0.27-0.359,0.776-0.724,1.146
				c-0.201,0.203-0.359,0.362-0.408,0.467c-0.129,0.271,0.165,1.262,0.261,1.676c-0.91-0.041-1.792-0.113-2.767-0.197
				c-0.044-0.152-0.128-0.408-0.153-0.465c-0.115-0.26-2.163-3.523-2.242-3.649l-3.128-9.009l2.756,0.051l-0.082-0.208l-3.005-0.051
				l-4.258-0.624l-6.558-0.692l-6.699-0.82l-0.069,0.199l6.72,0.821l6.558,0.689l4.17,0.611l1.337,3.909l-16.106,0.135L91.391,60.81
				L83.77,60.91l-0.372-0.825c-0.008-0.037-0.046-0.141-0.095-0.271c-0.071-0.188-0.182-0.489-0.281-0.814
				c6.124-0.018,12.408-0.033,16.39-0.041c0.131,0.227,0.406,0.531,0.972,0.707c0.771,0.238,2.01,0.359,2.681,0.41l0.079-0.542
				c-0.713-0.055-1.637-0.163-2.094-0.306c-0.275-0.085-0.459-0.375-0.497-0.543l-0.059-0.279l-0.635,0.002
				c-0.377,0-3.097,0.006-6.867,0.016l-0.431-2.602l-1.661-0.007l-8.855,0.296c-0.097-1.191-0.17-2.836-0.222-4.916
				c0.504-0.063,1.035-0.119,1.373-0.118c0.617,0.003,2.285-0.022,3.221-0.116c0.442-0.044,1.096-0.054,1.728-0.063
				c0.575-0.008,1.119-0.017,1.444-0.052c0.433-0.048,0.707-0.368,0.87-0.661l8.661,0.066l-0.106-0.55l-7.618-0.06l-0.658-3.47
				l7.822,0.005l-0.123-0.551l-7.763-0.004l-0.184-2.434l6.117-0.117l-0.112-0.413l-6.819,0.132l0.188,2.832h-0.31l0.344,1.946
				l-8.138,0.089c-0.01-0.743-0.021-1.479-0.033-2.207c0.747-0.255,1.919-0.629,2.378-0.662c0.723-0.049,4.752-0.143,4.792-0.143
				l0.188-0.006l-0.247-2.488l7.374-0.057l-0.095-0.414l-14.453,0.115c-0.01-0.552-0.02-1.096-0.029-1.633l9.625-0.172l-0.038-1.061
				l4.063-0.012l14.966-0.121l2.893-0.037l1.165,2.476l-18.071,0.14l0.127,0.551l14.809-0.112l0.78,1.609l-13.965,0.235l0.117,0.413
				l16.597-0.278l9.033-0.131l1.121,1.924L128.355,51.011z M123.494,43.249l-8.99,0.131l-2.16,0.037l-0.785-1.605l11.049-0.084
				L123.494,43.249z M122.286,41.175l-7.596,0.059l-1.177-2.477l7.283-0.094h0.026L122.286,41.175z M123.501,35.288l0.097-0.004
				l1.733,2.791l-3.94,0.029l-1.598-2.667L123.501,35.288z M120.502,38.11H120.5l-10.476,0.136l-0.565,0.005l-1.604-3.957
				l9.621-0.107l0.729-0.021L120.502,38.11z M109.756,33.719l-2.347-5.55l3.354-0.049l2.72,5.557L109.756,33.719z M117.738,33.365
				l0.146,0.249l-0.703,0.021l-3.348,0.038l-2.745-5.557l3.848-0.056L117.738,33.365z M107.086,28.173l2.32,5.55l-14.331,0.161
				L81.78,34.13c-0.007,0-0.101,0.002-0.267,0.006c-0.045-2.098-0.088-3.982-0.127-5.592L107.086,28.173z M81.019,34.146
				c-0.814,0.017-2.249,0.046-4.137,0.078l0.193-5.618l3.87-0.055C80.969,30.163,80.994,32.049,81.019,34.146z M71.47,24.938
				l5.161-0.12l0.112,3.636l-5.562,0.081L71.47,24.938z M71.369,28.689l5.378-0.078l-0.102,2.616l-2.469,0.098l-3.267,0.182
				l0.26-2.814L71.369,28.689z M70.439,31.534h-0.011l0.003,0.078l-0.276,2.703c-0.953,0.01-1.945,0.02-2.967,0.026
				c-0.146,0.001-0.287,0.003-0.429,0.003l0.858-5.57l-0.328,0.002l-0.883,5.571c-0.947,0.008-1.786,0.015-2.525,0.022
				c0.068-0.268,0.184-0.732,0.271-1.148c0.065-0.316,0.114-0.602,0.112-0.744l-0.002-0.094c-0.006-0.439-0.014-1.258-0.207-1.749
				c-0.19-0.492,0.131-1.823,0.135-1.837l-0.188-0.003l6.727-0.097L70.439,31.534z M63.862,28.797
				c-0.02,0.081-0.338,1.385-0.138,1.908c0.184,0.47,0.188,1.273,0.191,1.705l0.001,0.095c0.004,0.311-0.271,1.409-0.389,1.868
				c-3.704,0.036-4.798,0.067-5.218,0.079c-0.121,0.004-0.185,0.006-0.244,0.006c-1.587-0.005-2.041-0.112-2.143-0.145
				c-0.243-0.079-0.356-0.399-0.438-0.633c-0.037-0.105-0.072-0.203-0.112-0.279c-0.22-0.421-0.893-0.672-1.094-0.739
				c-0.365-0.122-1.546-0.067-2.313-0.015l0.778-3.69L63.862,28.797z M51.276,32.827c-0.967,0.014-2.909,0.039-3.212,0.037
				c-0.21,0-0.648,0.044-1.086,0.095c0.829-2.175,2.753-7.429,3.11-8.405l2.967-0.008L51.276,32.827z M49.779,24.556
				c-0.546,1.477-2.387,6.423-3.165,8.447c-0.363,0.045-0.68,0.088-0.8,0.104c-0.259,0.035-1.302,0.031-1.99,0.021l3.281-8.563
				L49.779,24.556z M43.745,33.333c0.403,0.006,1.704,0.021,2.065-0.027c0.202-0.027,0.457-0.061,0.723-0.094
				c-0.148,0.385-0.246,0.629-0.268,0.664c-0.165,0.272-0.328,1.709-0.344,1.862c-0.109,0.399-0.346,1.208-0.477,1.417
				c-0.073,0.119-0.209,0.439-0.367,0.813c-0.187,0.438-0.442,1.037-0.544,1.148c-0.145,0.16-0.617,0.686-0.856,0.952l-1.409,0.007
				l-0.247,0.547l0.987-0.005l-0.805,1.932c-0.228,0.108-1.525,0.728-2.437,1.163L43.745,33.333z M39.463,44.351
				c0.389-0.186,1.651-0.788,2.484-1.187l-2.306,5.532l-2.195,5.371l-0.91-0.096c-0.805-0.111-1.952-0.275-2.69-0.392l0.174-0.005
				l1.609-4.52l1.739-4.02C37.952,44.876,38.989,44.575,39.463,44.351z M29.525,48.442l0.641-1.107l6.743-2.17l-1.707,3.9
				l-1.615,4.474c-0.233-0.038-0.396-0.067-0.448-0.083c-0.317-0.098-2.659-0.281-3.142-0.318l-2.949-0.105L29.525,48.442z
				 M32.004,58.919l-0.082,0.002c-0.756-0.004-4.392-0.287-7.467-0.533l-0.285-0.021l2.768-5.129l2.894,0.103
				c1.336,0.103,2.823,0.241,2.995,0.294c0.317,0.096,3.169,0.49,3.506,0.537l1.029,0.107l-0.011,0.025l0.228-0.002l0.57,0.059
				l0.063-0.067l0.039-0.001l0.028-0.07l0.058-0.061l-0.032-0.004l1.596-4.002l5.295-0.058l-0.382,2.272l-1.442,2.693l0.228,0.008
				l-3.093-0.034l-0.047,0.103l0,0l-1.674,3.596c-0.813,0.001-1.24,0.001-1.449,0C36.234,58.729,32.951,58.802,32.004,58.919z
				 M34.149,58.946l0.187-0.006c1.068-0.035,2.115-0.053,2.802-0.049c0.545,0.002,2.223-0.001,4.85-0.01h0.261l-0.104,0.572
				c-1.141,6.223-1.768,9.404-1.906,9.727c-0.228,0.525-0.629,1.074-0.669,1.129l0.002,0.002c-0.019,0.047-0.042,0.108-0.067,0.176
				l-11.525,0.018L34.149,58.946z M23.479,78.183c0.015,0.001,0.03,0.001,0.043,0.002c0.551,0.028,1.577-0.059,2.569-0.145
				c0.592-0.051,1.204-0.104,1.438-0.102c0.672,0.004,3.728-0.164,3.919-0.177c0.22-0.028,5.361-0.708,6.294-0.858
				c0.595-0.096,1.568-0.102,2.005-0.012c0.059,0.014,0.158,0.037,0.16,0.068c0.01,0.226-0.188,0.954-0.189,0.961l0.969,1.175
				l0.564-0.081l-0.95-1.119c0.031-0.121,0.192-0.748,0.181-0.967c-0.003-0.063-0.075-0.15-0.4-0.217
				c-0.587-0.121-1.736-0.118-2.513,0.007c-0.91,0.146-6.181,0.845-6.182,0.847c-0.866,0.049-3.232,0.172-3.747,0.169
				c-0.312-0.002-0.903,0.049-1.591,0.108c-0.845,0.072-1.898,0.162-2.339,0.139c-0.031-0.001-0.07,0-0.105-0.002l2.695-4.346
				l0.248-0.454l1.21-2.267l11.586-0.016c-0.249,0.642-0.608,1.533-0.806,1.896c-0.068,0.203-0.358,2.947-0.437,3.776l0.604-0.024
				c0.069-0.783,0.331-3.671,0.419-3.837c0.216-0.4,0.66-1.537,1.002-2.468l0.025-0.045c0.069-0.096,0.427-0.6,0.634-1.091
				c0.047-0.111,0.162-0.645,0.312-1.408l1.692,0.644l3.823,3.669l6.863,6.363l-0.609-0.028l-6.682,0.435l-6.166,0.434l-6.519,0.395
				l-6.377,0.361c-0.188,0.018-2.597,0.239-5.044,0.473L23.479,78.183z M13.368,87.819c-0.632-0.016-1.182-0.029-1.569-0.032
				c-1.479-0.011-3.078,0.081-4.876,0.278l1.229-3.664l-2.79-0.359c0.801-0.231,1.743-0.521,2.664-0.808
				c1.353-0.424,2.742-0.862,3.372-1.005c1.45-0.332,4.449-0.915,5.656-1.079c0.475-0.064,2.059-0.224,3.835-0.395l-3.415,7.106
				C16.25,87.888,14.617,87.85,13.368,87.819z M52.243,80.804c-0.019,0.012-1.972,1.246-3.678,2.084
				c-0.729,0.355-1.506,0.623-2.26,0.883c-1.031,0.352-2.012,0.685-2.653,1.162c-0.725,0.534-2.441,0.913-3.83,1.217
				c-0.42,0.092-0.816,0.178-1.138,0.26c-0.926,0.232-3.017,0.582-4.553,0.837c-0.572,0.095-1.079,0.179-1.444,0.242
				c-0.741,0.13-2.89,0.112-4.312,0.101c-0.921-0.008-1.716-0.015-2.219,0.008c-0.512,0.023-1.666,0.052-2.889,0.082
				c-1.642,0.04-3.477,0.084-4.654,0.137l3.343-7.161c2.572-0.245,5.168-0.483,5.198-0.487l6.36-0.358l6.541-0.396l6.18-0.434
				l6.599-0.428l0.879,0.041l0.02,0.018l0.082-0.014l1.712,0.08c-0.2,0.184-0.415,0.387-0.649,0.617L52.243,80.804z M61.539,77.147
				c-3.271,0.201-4.095,0.316-4.615,0.484c-0.239,0.077-0.635,0.364-1.177,0.846l-1.6-0.074l-7.023-6.489l-0.763-0.729l19.335-0.575
				c-0.085,0.72-0.205,1.821-0.285,2.944l-0.016,0.184c-0.089,1.363-0.093,2.404-0.013,3.098c0.005,0.043,0.014,0.082,0.02,0.123
				C64.12,77.011,62.714,77.074,61.539,77.147z M68.794,80.901c-0.792-0.736-1.942-1.818-2.343-3.572
				c1.537-0.057,2.704-0.092,2.709-0.092l2.992-0.02c0.254,0.514,0.469,1.133,0.486,1.452c0.019,0.316-0.314,1.06-0.898,1.988
				c-0.365,0.573-0.76,1.431-0.764,2.127c-0.001,0.653,0.662,1.915,0.684,1.952c0.044,0.148,1.123,3.62,1.301,4.011
				c0.089,0.194,0.06,0.397,0.012,0.58l-3.629,0.065l0.667-6.36c-0.007-0.112-0.089-1.089-0.985-1.917L68.794,80.901z
				 M80.854,89.187l-6.592,0.119c0.042-0.189,0.058-0.406-0.041-0.619c-0.118-0.254-0.663-1.906-1.022-3.01l4.988,0.006l5.613,0.104
				l0.013,3.34L80.854,89.187z M89.115,89.017l-4.167,0.086l-0.104-6.061c0.861,0.016,2.705,0.047,3.61,0.017
				c0.374-0.013,0.934-0.013,1.581-0.015c1.222-0.001,2.739-0.003,3.922-0.088c0.226-0.018,0.496-0.032,0.794-0.047l0.606,6.008
				L89.115,89.017z M117.921,88.677l-9.674-0.002l-11.31,0.217l-0.307,0.004l-0.332-2.947l7.273-0.088l0.361-0.916l16.268-0.514
				l1.706,4.282L117.921,88.677z M143.464,88.641c-0.477,0.032-2.314,0.093-2.983,0.112c-0.929,0.029-2.529,0.072-2.864,0.07
				c-0.377-0.003-2.655-0.007-3.743-0.008l-1.584-3.721l9.857-0.158l2.366,3.597C144.095,88.581,143.685,88.626,143.464,88.641z
				 M145.892,88.364l-0.193,0.025c-0.139,0.018-0.355,0.044-0.6,0.074l-2.348-3.537l4.631-0.074l2.227,3.906L145.892,88.364z"/>
		</g>
		
			<polyline fill="none" stroke="#FFFFFF" stroke-width="4" stroke-linecap="round" stroke-linejoin="round" stroke-miterlimit="10" points="
			128.684,70.146 104.638,70.198 101.362,61.725 83.354,61.725 81.132,48.215 50.619,48.611 52.714,40.568 		"/>
		<g>
			<g opacity="0.8">
				<path fill="#004D5E" d="M83.771,49.654c2.45-2.756-0.258-6.378-6.077-8.105c-5.835-1.735-25.249-1.179-25.249-1.179
					s10.767,9.537,16.535,11.238C74.732,53.302,81.341,52.419,83.771,49.654z M66.72,44.613c1.436-1.673,5.443-2.184,8.938-1.147
					c3.49,1.034,5.126,3.215,3.667,4.875c-1.454,1.666-5.433,2.19-8.899,1.167C66.955,48.483,65.291,46.289,66.72,44.613z"/>
			</g>
			<g>
				<path fill="#D33E75" d="M52.658,3.136c-6.956,0-12.595,5.639-12.595,12.596c0,6.955,12.595,24.924,12.595,24.924
					s12.595-17.969,12.595-24.924C65.253,8.774,59.614,3.136,52.658,3.136z M52.658,23.626c-4.179,0-7.565-3.387-7.565-7.564
					c0-4.18,3.387-7.566,7.565-7.566s7.565,3.387,7.565,7.566C60.224,20.239,56.837,23.626,52.658,23.626z"/>
				<g>
					<path fill="#D33E75" d="M47.532,23.678V8.445h5.147c1.792,0,3.191,0.349,4.195,1.046s1.507,1.74,1.507,3.128
						c0,0.705-0.188,1.334-0.561,1.889s-0.915,0.972-1.626,1.25c0.913,0.196,1.598,0.614,2.056,1.255
						c0.456,0.643,0.685,1.385,0.685,2.229c0,1.459-0.48,2.563-1.443,3.313c-0.963,0.749-2.326,1.124-4.091,1.124H47.532z
						 M50.587,14.827h2.197c0.816,0,1.444-0.168,1.884-0.502c0.438-0.335,0.659-0.823,0.659-1.465c0-0.705-0.222-1.225-0.665-1.559
						c-0.443-0.335-1.104-0.502-1.982-0.502h-2.093V14.827z M50.587,16.94v4.383h2.814c0.81,0,1.427-0.175,1.852-0.525
						c0.426-0.353,0.639-0.873,0.639-1.561c0-0.746-0.182-1.314-0.544-1.707c-0.363-0.394-0.936-0.59-1.716-0.59H50.587z"/>
				</g>
			</g>
		</g>
		<path fill="none" d="M53.632,16.94h-3.045v4.383h2.814c0.81,0,1.427-0.175,1.852-0.525c0.426-0.353,0.639-0.873,0.639-1.561
			c0-0.746-0.182-1.314-0.544-1.707C54.984,17.137,54.412,16.94,53.632,16.94z"/>
		<path fill="none" d="M54.668,14.325c0.438-0.335,0.659-0.823,0.659-1.465c0-0.705-0.222-1.225-0.665-1.559
			c-0.443-0.335-1.104-0.502-1.982-0.502h-2.093v4.027h2.197C53.601,14.827,54.229,14.659,54.668,14.325z"/>
		<path fill="none" d="M47.532,10.497c-1.5,1.383-2.439,3.363-2.439,5.564c0,2.199,0.939,4.18,2.439,5.563V10.497z"/>
		<path fill="none" d="M57.896,10.605c0.319,0.563,0.485,1.231,0.485,2.014c0,0.705-0.188,1.334-0.561,1.889
			s-0.915,0.972-1.626,1.25c0.913,0.196,1.598,0.614,2.056,1.255c0.456,0.643,0.685,1.385,0.685,2.229
			c0,0.45-0.051,0.861-0.143,1.244c0.899-1.244,1.431-2.771,1.431-4.424C60.224,13.917,59.33,11.982,57.896,10.605z"/>
		<path opacity="0.1" fill="#FFFFFF" d="M46.67,20.681c-0.987-1.278-1.577-2.879-1.577-4.619c0-2.201,0.939-4.182,2.439-5.564v9.136
			c1.622-1.868,3.513-3.493,5.614-4.819c-0.117,0.008-0.236,0.014-0.362,0.014h-2.197V10.8h2.093c0.879,0,1.539,0.167,1.982,0.502
			c0.443,0.334,0.665,0.854,0.665,1.559c0,0.301-0.051,0.566-0.147,0.801c1.023-0.521,2.087-0.973,3.185-1.351
			c-0.038-0.649-0.191-1.22-0.468-1.705c0.453,0.435,0.853,0.927,1.187,1.462c1.685-0.523,3.447-0.869,5.263-1.029
			c-1.861-4.631-6.392-7.902-11.688-7.902c-6.956,0-12.595,5.639-12.595,12.596c0,2.424,1.529,6.185,3.522,10.057
			C44.413,23.959,45.451,22.247,46.67,20.681z"/>
		<g>
			<g opacity="0.8">
				<path fill="#004D5E" d="M169.405,82.762c3.199-3.601-0.337-8.332-7.938-10.586c-7.624-2.267-32.983-1.54-32.983-1.54
					s14.063,12.457,21.599,14.679C157.598,87.527,166.231,86.375,169.405,82.762z M147.132,76.177
					c1.876-2.186,7.109-2.853,11.676-1.499c4.559,1.351,6.696,4.2,4.79,6.37c-1.898,2.175-7.097,2.861-11.624,1.524
					C147.438,81.234,145.264,78.367,147.132,76.177z"/>
			</g>
			<g>
				<path fill="#92BB55" d="M128.684,15.911c-10.205,0-18.478,8.272-18.478,18.477c0,10.205,18.478,36.564,18.478,36.564
					s18.476-26.359,18.476-36.564C147.159,24.184,138.888,15.911,128.684,15.911z M128.684,45.97
					c-6.129,0-11.099-4.969-11.099-11.098c0-6.13,4.97-11.1,11.099-11.1c6.13,0,11.099,4.97,11.099,11.1
					C139.782,41.001,134.813,45.97,128.684,45.97z"/>
				<g>
					<path fill="#92BB55" d="M132.697,40.143h-8.027l-1.555,4.933h-4.634l7.87-22.87h4.696l7.838,22.87h-4.634L132.697,40.143z
						 M125.801,36.547h5.766l-2.827-8.985h-0.095L125.801,36.547z"/>
				</g>
			</g>
		</g>
		<path fill="none" d="M132.697,40.143h-8.027l-1.394,4.421c1.601,0.896,3.444,1.406,5.407,1.406c1.964,0,3.808-0.511,5.407-1.406
			L132.697,40.143z"/>
		<polygon fill="none" points="128.739,27.562 128.645,27.562 125.801,36.547 131.566,36.547 		"/>
		<path fill="none" d="M125.668,24.191c-4.663,1.313-8.083,5.597-8.083,10.681c0,2.455,0.799,4.724,2.15,6.563L125.668,24.191z"/>
		<path fill="none" d="M131.731,24.2l5.904,17.229c1.348-1.837,2.146-4.104,2.146-6.558C139.782,29.8,136.378,25.525,131.731,24.2z"
			/>
		<path opacity="0.15" fill="#FFFFFF" d="M119.444,41.006c-1.17-1.758-1.859-3.863-1.859-6.134c0-5.084,3.42-9.367,8.083-10.681
			l-5.392,15.669c1.906-2.508,4.127-4.762,6.6-6.711l1.769-5.588h0.095l1.096,3.482c1.144-0.732,2.328-1.406,3.553-2.012
			l-1.656-4.832c2.049,0.584,3.854,1.742,5.234,3.288c2.527-0.932,5.188-1.586,7.941-1.947c-3.136-5.737-9.225-9.63-16.224-9.63
			c-10.205,0-18.478,8.272-18.478,18.477c0,3.501,2.176,8.904,5.033,14.492C116.326,46.073,117.742,43.434,119.444,41.006z"/>
	</g>
	<g>
		<path fill-rule="evenodd" clip-rule="evenodd" fill="#F4D4B8" d="M139.251,134.647L139.251,134.647
			c-1.627,1.645-1.59,4.301,0.033,5.945l29.689,30.09c1.621,1.645,4.32,1.611,5.947-0.035l0,0c1.625-1.645,1.588-4.299-0.035-5.945
			l-29.689-30.09C143.572,132.966,140.876,133.003,139.251,134.647z"/>
		<polygon fill-rule="evenodd" clip-rule="evenodd" fill="#F4D4B8" points="191.722,188.853 168.911,193.308 165.411,175.386 
			149.368,152.224 183.272,145.603 		"/>
		<path fill-rule="evenodd" clip-rule="evenodd" fill="#F4D4B8" d="M139.653,148.165L139.653,148.165
			c-1.626,1.645-1.59,4.303,0.033,5.947l29.689,30.088c1.621,1.645,4.318,1.611,5.945-0.033l0,0
			c1.627-1.645,1.592-4.301-0.033-5.947l-29.689-30.088C143.976,146.485,141.279,146.521,139.653,148.165z"/>
		<path fill-rule="evenodd" clip-rule="evenodd" fill="#F4D4B8" d="M136.46,118.077L136.46,118.077
			c-1.625,1.645-1.591,4.303,0.034,5.945l28.604,28.957c1.623,1.645,4.318,1.611,5.945-0.035l0,0
			c1.627-1.645,1.592-4.299-0.035-5.945l-28.604-28.957C140.78,116.397,138.087,116.433,136.46,118.077z"/>
		<g>
			<path fill-rule="evenodd" clip-rule="evenodd" fill="#FFFFFF" d="M173.286,98.954h-20.797c-4.025,0-7.322,3.295-7.322,7.322
				v55.211c0,4.027,3.297,7.322,7.322,7.322h20.797c4.025,0,7.322-3.295,7.322-7.322v-55.211
				C180.608,102.249,177.312,98.954,173.286,98.954z"/>
			<path fill-rule="evenodd" clip-rule="evenodd" fill="#004D5E" d="M177.388,104.812h-29c-0.057,0-0.104,0.047-0.104,0.103v57.349
				c0,0.057,0.047,0.104,0.104,0.104h29c0.057,0,0.102-0.047,0.102-0.104v-57.349C177.489,104.858,177.444,104.812,177.388,104.812z
				"/>
			<path opacity="0.1" fill-rule="evenodd" clip-rule="evenodd" fill="#FFFFFF" d="M177.333,104.812h-28.947
				c-0.055,0-0.102,0.047-0.102,0.103v57.349c0,0.057,0.047,0.104,0.102,0.104l29.047-57.452
				C177.433,104.858,177.388,104.812,177.333,104.812z"/>
			<path fill-rule="evenodd" clip-rule="evenodd" fill="#DADADA" d="M168.261,100.683h-10.746c-0.291,0-0.529,0.238-0.529,0.529l0,0
				c0,0.291,0.238,0.529,0.529,0.529h10.746c0.291,0,0.529-0.238,0.529-0.529l0,0C168.79,100.921,168.552,100.683,168.261,100.683z"
				/>
			<circle fill-rule="evenodd" clip-rule="evenodd" fill="#DADADA" cx="162.888" cy="165.488" r="1.79"/>
			<path fill-rule="evenodd" clip-rule="evenodd" fill="#FBF0E7" d="M184.784,130.729c1.105-0.293,1.293-0.605,1.398,0.389
				l0.662,6.236C184.417,137.06,184.608,133.224,184.784,130.729z"/>
			<g>
				<defs>
					<path id="SVGID_7_" d="M177.388,104.812h-29c-0.057,0-0.104,0.047-0.104,0.103v57.349c0,0.057,0.047,0.104,0.104,0.104h29
						c0.057,0,0.102-0.047,0.102-0.104v-57.349C177.489,104.858,177.444,104.812,177.388,104.812z"/>
				</defs>
				<clipPath id="SVGID_8_">
					<use xlink:href="#SVGID_7_"  overflow="visible"/>
				</clipPath>
				<g clip-path="url(#SVGID_8_)">
					<path fill="#B9C2C8" d="M147.095,151.976l1.887,0.139c0.316,0.053,1.844,0.318,2.074,0.463c0.152,0.094,1.48,0.516,2.281,0.76
						l1.172,0.275l-0.057,0.303l-1.18-0.275c-0.223-0.068-2.121-0.648-2.352-0.791c-0.123-0.078-1.098-0.277-1.969-0.424
						l-1.857-0.139"/>
					<line fill="#B9C2C8" x1="147.075" y1="154.771" x2="147.085" y2="155.081"/>
					<polygon fill="#B9C2C8" points="160.604,154.991 160.604,155.304 156.099,155.237 156.099,154.927 					"/>
					<polygon fill="#B9C2C8" points="160.892,144.298 160.841,146.851 160.866,155.507 160.841,160.294 160.565,160.292 
						160.591,155.505 160.565,146.849 160.614,144.298 160.394,132.907 160.669,132.899 					"/>
					<polygon fill="#B9C2C8" points="158.331,150.841 158.136,154.962 157.86,154.946 158.056,150.851 157.665,147.058 
						157.938,147.022 					"/>
					<path fill="#B9C2C8" d="M167.655,153.571l-0.133,0.273c-0.041-0.025-1.012-0.629-1.369-1.117
						c-0.459-0.629-0.557-2.098-0.572-2.918c-0.023-1.254-0.121-2.881-0.121-2.896l0.275-0.021c0,0.018,0.098,1.65,0.123,2.912
						c0.025,1.326,0.211,2.318,0.51,2.727C166.69,152.972,167.646,153.565,167.655,153.571z"/>
					<path fill="#B9C2C8" d="M175.372,144.155l-0.594,1.742l-1.215,2.627c-0.016,0.029-0.893,1.482-1.229,2.188
						c-0.314,0.654-1.182,1.377-1.646,1.766c-0.064,0.055-0.121,0.102-0.162,0.137c-0.287,0.25-0.793,1.008-1.689,2.535
						c-0.432,0.734-0.701,1.121-0.896,1.402c-0.199,0.289-0.318,0.463-0.475,0.797c-0.24,0.52-0.227,0.707-0.199,1.117
						c0.006,0.104,0.014,0.219,0.018,0.355c0.023,0.672,0.193,1.738,0.195,1.748l-0.273,0.055c-0.006-0.043-0.174-1.098-0.197-1.791
						c-0.006-0.131-0.012-0.244-0.02-0.346c-0.029-0.439-0.045-0.684,0.23-1.281c0.168-0.361,0.301-0.553,0.504-0.846
						c0.193-0.277,0.455-0.658,0.881-1.383c0.928-1.578,1.436-2.334,1.754-2.609c0.041-0.037,0.098-0.084,0.164-0.141
						c0.418-0.348,1.283-1.07,1.568-1.664c0.344-0.719,1.201-2.139,1.236-2.199l1.197-2.586l0.451-1.646L175.372,144.155z"/>
					<polygon fill="#B9C2C8" points="177.269,131.489 177.118,140.124 175.894,140.29 175.94,143.995 175.665,143.999 
						175.614,140.015 176.847,139.847 176.993,131.489 176.845,123.472 177.122,123.466 					"/>
					<path fill="#B9C2C8" d="M178.767,136.976c-1.174-0.021-2.176-0.049-2.291-0.078c-0.195-0.088-0.896-0.129-1.051-0.135
						l-2.334,0.205l-4.025,0.123l-5.742,0.33l0.014,0.311l5.738-0.33l4.031-0.123l2.322-0.205c0.326,0.016,0.832,0.063,0.943,0.111
						c0.105,0.049,1.203,0.08,2.391,0.104C178.765,137.183,178.767,137.079,178.767,136.976z"/>
					<rect x="167.463" y="140.033" fill="#B9C2C8" width="5.412" height="0.311"/>
					<polygon fill="#B9C2C8" points="167.712,146.79 167.435,146.796 167.288,139.8 167.214,132.31 167.491,132.308 
						167.565,139.796 					"/>
					<polygon fill="#B9C2C8" points="169.392,132.216 169.116,132.237 168.604,123.638 168.88,123.616 					"/>
					
						<rect x="163.257" y="128.491" transform="matrix(0.9999 -0.0142 0.0142 0.9999 -1.8097 2.3718)" fill="#B9C2C8" width="5.778" height="0.311"/>
					<polygon fill="#B9C2C8" points="160.626,139.952 157.7,140.036 157.694,139.724 160.62,139.642 					"/>
					<polygon fill="#B9C2C8" points="151.646,152.753 151.37,152.774 150.866,145.899 150.61,139.435 150.886,139.421 
						151.142,145.88 					"/>
					<polygon fill="#B9C2C8" points="158.347,132.329 158.071,132.37 157.522,127.638 157.292,121.38 157.569,121.38 157.8,127.618 
											"/>
					<path fill="#B9C2C8" d="M154.294,127.603c0,0.078-0.002,0.146-0.008,0.195c-0.014,0.164-0.01,0.668-0.006,1.201
						c0.008,0.977,0.01,1.629-0.033,1.824c-0.072,0.33-0.365,1.688-0.365,1.688l-0.27-0.074c0,0,0.293-1.359,0.365-1.688
						c0.039-0.172,0.031-1.082,0.025-1.748c-0.004-0.564-0.008-1.053,0.01-1.234c0.029-0.316-0.061-1.545-0.111-2.15
						c-0.039-0.232-0.402-2.412-0.365-2.828c0.027-0.318-0.314-12.023-0.377-14.381l0.275-0.01
						c0.008,0.279,0.416,14.006,0.377,14.422c-0.023,0.289,0.203,1.803,0.363,2.754
						C154.183,125.649,154.294,126.997,154.294,127.603z"/>
					<path fill="#B9C2C8" d="M157.628,121.478c-0.109,0.004-2.676,0.082-3.004,0.082c-0.273,0-1.164,0.23-1.648,0.367
						c-0.303,0.084-1.574,0.049-1.719,0.045l0.006-0.311c0.553,0.016,1.445,0.02,1.646-0.037c0.223-0.063,1.354-0.375,1.715-0.375
						c0.324,0,2.971-0.082,2.996-0.082L157.628,121.478z"/>
					<polygon fill="#B9C2C8" points="170.319,108.512 147.456,108.681 147.45,108.37 170.312,108.2 					"/>
					<path fill="#B9C2C8" d="M167.562,121.728c0,0.914-0.031,2-0.035,2.068l-0.275-0.01c0-0.025,0.072-2.547,0.002-3.143
						l-0.018-0.143c-0.076-0.654-0.219-1.871-0.451-2.582c-0.262-0.799-0.229-2.809-0.229-2.895l0.277,0.006
						c0,0.02-0.033,2.037,0.211,2.781c0.242,0.744,0.389,1.982,0.467,2.648l0.016,0.143
						C167.552,120.815,167.562,121.249,167.562,121.728z"/>
					<path fill="#B9C2C8" d="M170.315,109.358v0.311h-2.203v3.795c0,0.877-0.318,1.246-0.332,1.262l-0.297-0.014
						c0.002-0.004,0.354-0.513,0.354-1.248v-4.105H170.315z"/>
					<polygon fill="#B9C2C8" points="170.856,114.69 170.579,114.704 170.177,104.628 170.454,104.613 					"/>
					<rect x="169.482" y="114.985" fill="#B9C2C8" width="0.277" height="8.889"/>
					<polygon fill="#B9C2C8" points="177.567,118.968 175.444,119.132 172.413,119.46 172.386,119.151 175.423,118.823 
						177.548,118.657 					"/>
					<polygon fill="#B9C2C8" points="177.733,123.462 177.454,123.462 177.419,114.698 177.171,108.976 172.442,109.175 
						172.431,108.864 177.433,108.652 177.694,114.69 					"/>
					<polyline fill="#B9C2C8" points="156.091,160.646 156.099,155.081 156.376,155.081 156.368,160.636 					"/>
					<polyline fill="#B9C2C8" points="148.284,121.829 151.142,121.806 151.118,122.196 148.284,122.171 					"/>
					<polygon fill="#B9C2C8" points="157.753,121.731 157.493,121.731 157.2,121.372 156.075,108.422 156.626,108.366 					"/>
					<path fill="#B9C2C8" d="M172.604,146.56l-0.014-0.33l-8.578,0.441l-3.668,0.158l-6.219,0.223l-0.059-1.756l-0.313-12.859
						l-0.262,0.008l0.088,3.557l-0.031,0.041c-0.07,0.096-0.68,0.914-1.176,1.582l-0.244,0.332l-1.311-29.416l-0.445,0.016
						l1.328,29.967l-0.043,0.045c-0.316,0.328-0.924,0.768-1.201,0.955l-3.793,3.373l0.174,0.248l3.74-3.328
						c0.125-0.086,1.092-0.748,1.41-1.186c0.207-0.285,0.896-1.215,1.35-1.822l0.254-0.342l0.215,8.842l0.277,8.375l0.26-0.012
						l-0.209-6.289l6.219-0.223l3.668-0.16L172.604,146.56z"/>
					<path fill="#B9C2C8" d="M146.835,159.935l-0.057,0.385c3.617,0.668,4.867,0.873,5.309,0.873c0.1,0,0.135-0.01,0.146-0.016
						c0.326-0.137,2.102-0.303,2.969-0.303c0.459,0,2.271-0.035,5.104-0.102l0.109-0.002l3.16-0.492l0.039,0.006
						c0.02,0.004,0.254,0.029,0.611,0.068c2.178,0.242,4.447,0.498,4.77,0.57c0.078,0.018,0.18,0.027,0.301,0.027
						c0.377,0,0.887-0.084,1.426-0.174c0.262-0.043,0.506-0.084,0.723-0.113c0.098-0.012,0.396-0.051,7.477-0.205l-0.021-0.391
						c-5.844,0.127-7.299,0.184-7.482,0.209c-0.209,0.027-0.443,0.064-0.684,0.105l-0.035,0.006
						c-0.643,0.105-1.354,0.219-1.654,0.15c-0.283-0.064-2.457-0.303-3.756-0.445l-0.305-0.033l2.564-5.506
						c0.004-0.012,0.051-0.088,0.127-0.213c0.301-0.496,1.1-1.814,1.455-2.447c0.408-0.729,1.271-1.635,2.199-2.305
						c1.809-1.311,1.816-4.25,1.816-4.279v-0.031l0.008-0.031c0.016-0.061,0.014-0.371,0.012-0.537l-0.002-0.211l5.348-0.27v-0.391
						l-5.352,0.27v-0.357c0-2.578-0.107-7.529-0.197-11.23l-0.004-0.215l5.66-0.25l0.006-0.391l-5.678,0.25l-0.043-1.75
						l-0.092-6.203l0.217-0.006c1.859-0.049,3.787-0.111,5.59-0.184c-0.004-0.129-0.01-0.26-0.014-0.391
						c-1.836,0.072-3.711,0.135-5.578,0.184l-0.223,0.006l-0.129-8.643l5.344-0.157l-0.035-0.39l-5.316,0.156l-0.174-8.688
						l-0.299,0.004l0.176,8.692l-15.156,0.445l0.008,0.392l15.156-0.447l0.129,8.643l-0.217,0.006
						c-0.697,0.018-1.418,0.033-2.16,0.047c-5.219,0.102-6.504,0.176-6.926,0.201l-0.043,0.002c-0.078,0.006-0.127,0.01-0.17,0.01
						c-1.217,0-1.664-0.15-1.822-0.238c-0.264-0.148-0.424-0.557-0.604-1.076c-0.055-0.154-0.104-0.295-0.152-0.406
						c-0.264-0.592-0.857-0.949-0.975-1.014c-0.043-0.025-0.188-0.08-0.586-0.08c-0.336,0-0.725,0.037-1.043,0.078l0.045,0.389
						c0.396-0.049,0.813-0.08,1.086-0.08c0.221,0,0.305,0.02,0.352,0.037l0.033,0.016c0.279,0.156,0.664,0.473,0.83,0.848
						c0.043,0.096,0.086,0.219,0.133,0.354c0.17,0.488,0.373,1.072,0.766,1.295c0.219,0.121,0.732,0.268,1.938,0.268
						c0.053,0,0.109-0.002,0.217-0.01c0.414-0.023,1.674-0.1,6.928-0.201c0.74-0.014,1.459-0.029,2.154-0.047l0.223-0.006
						l0.092,6.205c0.012,0.469,0.027,0.986,0.043,1.535l0.006,0.217l-6.488,0.252l-6.145,0.127l-7.162,0.123l0.002,0.393
						l7.164-0.125l6.146-0.127l6.494-0.252l0.021,0.76c0.1,3.369,0.225,7.561,0.227,10.834v0.215l-9.699,0.26l-9.313,0.41
						l0.049,0.502l9.271-0.521l9.689-0.26v0.227c-0.002,0.371-0.008,0.729-0.014,1.066c-0.037,1.918-1.168,2.945-1.713,3.438
						l-0.221,0.201c-0.824,0.744-1.68,1.514-2.074,2.219c-0.303,0.537-0.881,1.494-1.264,2.129
						c-0.178,0.295-0.307,0.506-0.326,0.545l-2.65,5.684l-0.156-0.018c-0.422-0.047-0.734-0.082-0.846-0.098l-0.014-0.002
						l-3.193,0.473l-0.246,0.004c-2.867,0.066-4.545,0.1-4.992,0.1c-0.727,0-2.551,0.141-3.029,0.311l-0.096,0.014
						C151.601,160.808,149.345,160.399,146.835,159.935z"/>
				</g>
			</g>
			<g>
				<path fill="#D33E75" d="M155.259,107.476c-2.428,0-4.396,1.971-4.396,4.396c0,2.43,4.396,8.703,4.396,8.703
					s4.398-6.273,4.398-8.703C159.657,109.446,157.688,107.476,155.259,107.476z"/>
				<path fill="#92BB55" d="M169.556,142.45c-2.43,0-4.396,1.971-4.396,4.398s4.396,8.701,4.396,8.701s4.396-6.273,4.396-8.701
					S171.983,142.45,169.556,142.45z"/>
				<circle fill="#FFFFFF" cx="169.554" cy="147.067" r="2.271"/>
				<circle fill="#FFFFFF" cx="155.259" cy="112.093" r="2.271"/>
			</g>
		</g>
		<path fill-rule="evenodd" clip-rule="evenodd" fill="#F4D4B8" d="M136.073,131.491L136.073,131.491
			c-1.625,1.645-1.604,4.32,0.035,5.947l4.742,4.711c1.639,1.627,4.32,1.611,5.947-0.035l0,0c1.625-1.645,1.607-4.314-0.035-5.945
			l-4.743-4.711C140.378,129.829,137.7,129.847,136.073,131.491z"/>
		<polygon fill-rule="evenodd" clip-rule="evenodd" fill="#FFFFFF" points="193.388,181.401 164.563,187.032 166.483,196.864 
			196.409,196.864 		"/>
		<path fill-rule="evenodd" clip-rule="evenodd" fill="#F4D4B8" d="M185.44,171.464l-2.916,0.568l-0.387-3.668l-3.127-29.447
			c-0.529-4.988,1.986-6.988,4.996-7.961c1.658-0.537,2.053-0.996,2.215,0.523l3.58,33.709
			C190.11,168.108,188.149,170.933,185.44,171.464z"/>
		<path fill-rule="evenodd" clip-rule="evenodd" fill="#FBF0E7" d="M146.28,136.483l-1.408-1.371
			c-2.896,0.426-4.461,2.162-4.913,4.992l1.319,1.338C144.88,145.069,149.327,139.378,146.28,136.483z"/>
		<path fill-rule="evenodd" clip-rule="evenodd" fill="#F4D4B8" d="M136.868,145.399L136.868,145.399
			c-1.626,1.646-1.604,4.32,0.034,5.947l5.569,5.531c1.639,1.627,4.32,1.611,5.947-0.033l0,0c1.625-1.646,1.607-4.316-0.035-5.947
			l-5.569-5.531C141.173,143.735,138.495,143.755,136.868,145.399z"/>
		<path fill-rule="evenodd" clip-rule="evenodd" fill="#FBF0E7" d="M147.913,151.538l-1.406-1.373
			c-2.898,0.428-4.463,2.162-4.914,4.994l1.32,1.336C146.513,160.122,150.96,154.431,147.913,151.538z"/>
	</g>
</g>
</svg>
