<?xml version="1.0" encoding="utf-8"?>
<!-- Generator: Adobe Illustrator 16.0.0, SVG Export Plug-In . SVG Version: 6.00 Build 0)  -->
<!DOCTYPE svg PUBLIC "-//W3C//DTD SVG 1.1//EN" "http://www.w3.org/Graphics/SVG/1.1/DTD/svg11.dtd">
<svg version="1.1" id="Layer_1" xmlns="http://www.w3.org/2000/svg" xmlns:xlink="http://www.w3.org/1999/xlink" x="0px" y="0px"
	 width="200px" height="200px" viewBox="0 0 200 200" enable-background="new 0 0 200 200" xml:space="preserve">
<g>
	<g>
		<path fill="#5C5A50" d="M30,146.363c-12,0-23.187-10.332-23.187-23.154C6.813,110.355,17.217,100,30.05,100H176v8H30.05
			c-8.646,0-15.645,6.748-15.645,15.412c0,8.637,7.595,15.359,15.595,15.359V146.363z"/>
	</g>
	<g>
		<path fill="#5C5A50" d="M175,107.412V99.82c9,0,15.308-7.248,15.308-15.883c0-8.666-7.36-15.938-16.007-15.938H29v-7h145.301
			c12.832,0,23.601,10.381,23.601,23.232C197.901,97.055,188,107.412,175,107.412z"/>
	</g>
	<g>
		<rect x="91" y="178" fill="#5C5A50" width="78" height="7"/>
	</g>
	<g>
		<path fill="#5C5A50" d="M168,185.314v-7.592c8,0,15.212-6.699,15.212-15.334c0-8.666-7.528-15.389-16.175-15.389H30v-8h137.037
			c12.834,0,23.769,10.332,23.769,23.184C190.806,175.006,180,185.314,168,185.314z"/>
	</g>
	<g>
		<g>
			<rect x="173.564" y="103.434" fill="#FBFDFC" width="1.652" height="0.66"/>
		</g>
		<g>
			<path fill="#FBFDFC" d="M25.455,142.531c-0.972-0.221-1.933-0.52-2.856-0.889l0.244-0.613c0.892,0.355,1.821,0.645,2.759,0.859
				L25.455,142.531z M19.915,140.326c-0.854-0.506-1.679-1.084-2.449-1.717l0.419-0.51c0.744,0.611,1.541,1.168,2.366,1.656
				L19.915,140.326z M15.306,136.539c-0.663-0.74-1.275-1.539-1.82-2.373l0.553-0.361c0.527,0.807,1.119,1.578,1.76,2.295
				L15.306,136.539z M12.043,131.545c-0.413-0.904-0.759-1.85-1.032-2.809l0.635-0.18c0.263,0.926,0.599,1.84,0.998,2.715
				L12.043,131.545z M10.411,125.809c-0.111-0.861-0.167-1.742-0.167-2.615c0-0.123,0.001-0.246,0.003-0.369l0.66,0.012
				c-0.002,0.119-0.003,0.238-0.003,0.357c0,0.846,0.054,1.697,0.162,2.531L10.411,125.809z M11.176,119.957l-0.651-0.109
				c0.167-0.982,0.412-1.959,0.725-2.902l0.626,0.209C11.574,118.066,11.338,119.008,11.176,119.957z M12.997,114.49l-0.587-0.303
				c0.454-0.883,0.979-1.74,1.562-2.547l0.536,0.387C13.943,112.807,13.436,113.635,12.997,114.49z M16.372,109.818l-0.471-0.463
				c0.697-0.709,1.454-1.371,2.251-1.969l0.396,0.529C17.778,108.492,17.046,109.133,16.372,109.818z M20.986,106.359l-0.312-0.582
				c0.878-0.471,1.799-0.877,2.736-1.209l0.221,0.621C22.725,105.512,21.834,105.904,20.986,106.359z M26.421,104.436l-0.124-0.648
				c0.974-0.186,1.973-0.301,2.971-0.34l0.025,0.66C28.329,104.145,27.362,104.256,26.421,104.436z M171,104h-3v-1h3V104z
				 M164.275,103.953h-2v-1h2V103.953z M160,104h-3v-1h3V104z M154,104h-4v-1h4V104z M148,104h-3v-1h3V104z M142,104h-3v-1h3V104z
				 M136,104h-3v-1h3V104z M130,104h-3v-1h3V104z M125,104h-4v-1h4V104z M118,104h-3v-1h3V104z M111.275,103.953h-2v-1h2V103.953z
				 M107,104h-3v-1h3V104z M101,104h-3v-1h3V104z M95,104h-4v-1h4V104z M87.275,103.953h-2v-1h2V103.953z M83,104h-3v-1h3V104z
				 M77,104h-3v-1h3V104z M72,104h-3v-1h3V104z M66,104h-4v-1h4V104z M59,104h-3v-1h3V104z M53,104h-3v-1h3V104z M48,104h-3v-1h3
				V104z M42,104h-3v-1h3V104z M36,104h-3v-1h3V104z"/>
		</g>
		<g>
			<path fill="#FBFDFC" d="M29.974,143.076c-0.66,0-1.055-0.02-1.555-0.057l0.072-0.658c0.484,0.035,0.822,0.055,1.482,0.055
				V143.076z"/>
		</g>
	</g>
	<g>
		<g>
			<rect x="28.984" y="64.482" fill="#FBFDFC" width="1.32" height="0.66"/>
		</g>
		<g>
			<path fill="#FBFDFC" d="M178.861,103.533l-0.152-0.641c0.936-0.225,1.865-0.521,2.758-0.883l0.248,0.611
				C180.791,102.996,179.83,103.305,178.861,103.533z M184.396,101.287l-0.338-0.568c0.826-0.492,1.625-1.053,2.371-1.666
				l0.418,0.51C186.076,100.197,185.252,100.777,184.396,101.287z M189.014,97.492l-0.49-0.441c0.646-0.717,1.242-1.488,1.773-2.293
				l0.551,0.363C190.299,95.953,189.682,96.752,189.014,97.492z M192.303,92.5l-0.6-0.275c0.404-0.877,0.742-1.791,1.008-2.717
				l0.635,0.182C193.072,90.648,192.721,91.594,192.303,92.5z M193.949,86.754l-0.656-0.084c0.102-0.799,0.152-1.615,0.152-2.428
				c0-0.156-0.002-0.311-0.006-0.465l0.662-0.016c0.004,0.158,0.004,0.318,0.004,0.48C194.105,85.082,194.053,85.926,193.949,86.754
				z M193.154,80.895c-0.168-0.951-0.41-1.895-0.721-2.807l0.625-0.213c0.32,0.943,0.572,1.92,0.746,2.904L193.154,80.895z
				 M191.295,75.426c-0.445-0.854-0.959-1.68-1.529-2.459l0.531-0.389c0.59,0.803,1.123,1.66,1.584,2.543L191.295,75.426z
				 M187.879,70.768c-0.68-0.684-1.418-1.318-2.195-1.891l0.393-0.531c0.803,0.592,1.566,1.25,2.271,1.957L187.879,70.768z
				 M183.229,67.338c-0.854-0.449-1.748-0.838-2.658-1.15l0.215-0.625c0.941,0.326,1.867,0.727,2.752,1.191L183.229,67.338z
				 M177.768,65.453c-0.945-0.172-1.916-0.273-2.883-0.303l0.021-0.66c0.998,0.031,2.002,0.137,2.979,0.314L177.768,65.453z
				 M171.275,64.953h-2v-1h2V64.953z M167,65h-3v-1h3V65z M161,65h-3v-1h3V65z M155,65h-3v-1h3V65z M149,65h-3v-1h3V65z M143,65h-3
				v-1h3V65z M137,65h-3v-1h3V65z M132,65h-3v-1h3V65z M126,65h-4v-1h4V65z M119,65h-3v-1h3V65z M112.275,64.953h-2v-1h2V64.953z
				 M108,65h-3v-1h3V65z M102,65h-3v-1h3V65z M95.275,64.953h-2v-1h2V64.953z M90,65h-3v-1h3V65z M84,65h-3v-1h3V65z M78,65h-3v-1h3
				V65z M71.275,64.953h-2v-1h2V64.953z M67,65h-4v-1h4V65z M60,65h-3v-1h3V65z M55,65h-3v-1h3V65z M49,65h-3v-1h3V65z M43,65h-3v-1
				h3V65z M37,65h-4v-1h4V65z"/>
		</g>
		<g>
			<path fill="#FBFDFC" d="M174.225,104.125v-0.66c0.66,0,1.018-0.02,1.498-0.055l0.031,0.658
				C175.256,104.105,174.885,104.125,174.225,104.125z"/>
		</g>
	</g>
	<g>
		<g>
			<rect x="166.303" y="181.336" fill="#FBFDFC" width="1.65" height="0.66"/>
		</g>
		<g>
			<path fill="#FBFDFC" d="M164,182h-3v-1h3V182z M157.275,181.953h-2v-1h2V181.953z M152,182h-3v-1h3V182z M146,182h-3v-1h3V182z
				 M140,182h-3v-1h3V182z M133.275,181.953h-2v-1h2V181.953z M129,182h-3v-1h3V182z M122,182h-3v-1h3V182z M116,182h-3v-1h3V182z
				 M111,182h-3v-1h3V182z M105,182h-3v-1h3V182z M99,182h-3v-1h3V182z"/>
		</g>
		<g>
			<rect x="90.712" y="181.336" fill="#FBFDFC" width="1.32" height="0.66"/>
		</g>
	</g>
	<g>
		<g>
			<rect x="29.645" y="142.385" fill="#FBFDFC" width="1.32" height="0.66"/>
		</g>
		<g>
			<path fill="#FBFDFC" d="M171.633,181.402l-0.156-0.641c0.955-0.232,1.9-0.543,2.809-0.922l0.254,0.609
				C173.598,180.84,172.621,181.162,171.633,181.402z M177.264,179.063l-0.344-0.563c0.84-0.512,1.648-1.092,2.4-1.727l0.426,0.506
				C178.967,177.934,178.131,178.533,177.264,179.063z M181.93,175.141l-0.496-0.436c0.65-0.742,1.248-1.537,1.775-2.365
				l0.557,0.354C183.221,173.551,182.604,174.373,181.93,175.141z M185.205,169.994l-0.605-0.264
				c0.396-0.902,0.723-1.844,0.969-2.793l0.641,0.168C185.951,168.088,185.613,169.061,185.205,169.994z M186.748,164.094
				l-0.658-0.064c0.063-0.625,0.094-1.258,0.094-1.887c0-0.355-0.01-0.715-0.029-1.068l0.66-0.037
				c0.02,0.365,0.029,0.738,0.029,1.107C186.844,162.793,186.813,163.449,186.748,164.094z M185.766,158.143
				c-0.205-0.963-0.488-1.916-0.84-2.834l0.615-0.236c0.365,0.951,0.658,1.938,0.869,2.934L185.766,158.143z M183.656,152.643
				c-0.49-0.852-1.051-1.672-1.666-2.441l0.514-0.412c0.639,0.793,1.219,1.643,1.727,2.523L183.656,152.643z M179.967,148.047
				c-0.729-0.664-1.512-1.275-2.332-1.818l0.365-0.551c0.848,0.563,1.658,1.195,2.412,1.881L179.967,148.047z M175.053,144.789
				c-0.895-0.412-1.828-0.756-2.775-1.023l0.178-0.635c0.98,0.277,1.947,0.633,2.873,1.057L175.053,144.789z M169.379,143.162
				c-0.771-0.094-1.559-0.162-2.342-0.162h-0.811l0,0h0.811c0.809,0,1.623-0.27,2.42-0.174L169.379,143.162z M163.123,143h-3.104
				l0,0H163.123L163.123,143z M156.916,143h-2.068l0,0H156.916L156.916,143z M151.744,143h-3.104l0,0H151.744L151.744,143z
				 M145.537,143h-3.104l0,0H145.537L145.537,143z M139.33,143h-3.104l0,0H139.33L139.33,143z M133.123,143h-3.104l0,0H133.123
				L133.123,143z M126.916,143h-2.07l0,0H126.916L126.916,143z M121.742,143h-4.137l0,0H121.742L121.742,143z M115.535,143h-3.104
				l0,0H115.535L115.535,143z M109.328,143h-3.104l0,0H109.328L109.328,143z M103.121,143h-3.103l0,0H103.121L103.121,143z
				 M96.915,143h-3.104l0,0H96.915L96.915,143z M90.708,143h-3.104l0,0H90.708L90.708,143z M85.535,143h-3.104l0,0H85.535
				L85.535,143z M79.328,143h-3.104l0,0H79.328L79.328,143z M73.121,143h-3.104l0,0H73.121L73.121,143z M66.914,143h-3.104l0,0
				H66.914L66.914,143z M60.707,143h-3.104l0,0H60.707L60.707,143z M55.535,143h-3.104l0,0H55.535L55.535,143z M49.328,143h-3.104
				l0,0H49.328L49.328,143z M43.121,143h-3.104l0,0H43.121L43.121,143z M36.914,143H33.81l0,0H36.914L36.914,143z"/>
		</g>
		<g>
			<path fill="#FBFDFC" d="M166.963,182.027v-0.66c0.33,0,0.977-0.02,1.461-0.057l0.049,0.66
				C167.973,182.008,167.623,182.027,166.963,182.027z"/>
		</g>
	</g>
	<g opacity="0.1">
		<ellipse fill="#5C5A50" cx="14.644" cy="69.049" rx="12.307" ry="1.668"/>
	</g>
	<g>
		<polygon fill="#D96E49" points="48.5,12 15,12 15,3 48.5,3 54.437,7.683 		"/>
	</g>
	<g>
		<rect x="14" y="2" fill="#5E3C26" width="2" height="62"/>
	</g>
	<g>
		<path fill="#FFFFFF" d="M22.93,69.436c-0.435-4.477-4.207-7.975-8.797-7.975c-4.591,0-8.363,3.498-8.798,7.975H22.93z"/>
	</g>
	<g>
		<path fill="#FBFDFC" d="M18.224,6.345c0.15-0.031,0.388-0.056,0.629-0.056c0.344,0,0.566,0.06,0.732,0.194
			c0.139,0.104,0.222,0.262,0.222,0.471c0,0.258-0.17,0.483-0.451,0.586v0.008c0.253,0.064,0.55,0.273,0.55,0.67
			c0,0.229-0.091,0.403-0.226,0.534c-0.186,0.17-0.487,0.249-0.922,0.249c-0.238,0-0.419-0.016-0.535-0.031V6.345z M18.568,7.438
			h0.313c0.364,0,0.578-0.19,0.578-0.447c0-0.313-0.238-0.437-0.586-0.437c-0.159,0-0.25,0.013-0.305,0.024V7.438z M18.568,8.716
			c0.067,0.012,0.167,0.016,0.289,0.016c0.356,0,0.685-0.131,0.685-0.518c0-0.365-0.313-0.516-0.689-0.516h-0.285V8.716z"/>
		<path fill="#FBFDFC" d="M21.277,8.138L21,8.978h-0.356l0.907-2.668h0.416l0.911,2.668h-0.369l-0.285-0.84H21.277z M22.152,7.869
			l-0.261-0.768c-0.06-0.174-0.099-0.332-0.139-0.486h-0.008c-0.039,0.158-0.083,0.32-0.134,0.482l-0.261,0.771H22.152z"/>
		<path fill="#FBFDFC" d="M23.746,8.978V6.31h0.376l0.855,1.35c0.198,0.313,0.353,0.594,0.479,0.867l0.007-0.004
			c-0.032-0.357-0.039-0.682-0.039-1.097V6.31h0.324v2.668H25.4l-0.847-1.354c-0.187-0.298-0.364-0.603-0.499-0.891l-0.012,0.004
			c0.02,0.336,0.028,0.656,0.028,1.1v1.141H23.746z"/>
		<path fill="#FBFDFC" d="M28.858,8.859c-0.154,0.056-0.459,0.146-0.819,0.146c-0.404,0-0.736-0.103-0.998-0.352
			c-0.229-0.223-0.372-0.578-0.372-0.994c0.004-0.795,0.55-1.377,1.445-1.377c0.309,0,0.55,0.066,0.666,0.121l-0.083,0.281
			c-0.143-0.063-0.321-0.114-0.59-0.114c-0.649,0-1.073,0.403-1.073,1.073c0,0.677,0.408,1.076,1.029,1.076
			c0.226,0,0.38-0.031,0.459-0.071V7.853h-0.542V7.576h0.879V8.859z"/>
		<path fill="#FBFDFC" d="M30.293,8.138l-0.277,0.84H29.66l0.907-2.668h0.415l0.911,2.668h-0.369l-0.285-0.84H30.293z M31.168,7.869
			l-0.262-0.768c-0.059-0.174-0.099-0.332-0.138-0.486H30.76c-0.04,0.158-0.083,0.32-0.134,0.482l-0.261,0.771H31.168z"/>
		<path fill="#FBFDFC" d="M32.761,6.31h0.344v2.379h1.141v0.289h-1.484V6.31z"/>
		<path fill="#FBFDFC" d="M35.538,8.138l-0.277,0.84h-0.357l0.907-2.668h0.416l0.91,2.668h-0.368l-0.285-0.84H35.538z M36.412,7.869
			l-0.261-0.768c-0.06-0.174-0.099-0.332-0.138-0.486h-0.008c-0.039,0.158-0.083,0.32-0.135,0.482l-0.261,0.771H36.412z"/>
		<path fill="#FBFDFC" d="M40.227,7.617c0,0.918-0.559,1.404-1.239,1.404c-0.705,0-1.2-0.545-1.2-1.354
			c0-0.848,0.526-1.401,1.239-1.401C39.755,6.266,40.227,6.824,40.227,7.617z M38.156,7.66c0,0.57,0.309,1.081,0.852,1.081
			c0.546,0,0.855-0.503,0.855-1.108c0-0.531-0.277-1.085-0.851-1.085C38.441,6.547,38.156,7.074,38.156,7.66z"/>
		<path fill="#FBFDFC" d="M41.15,6.345c0.174-0.035,0.424-0.056,0.661-0.056c0.368,0,0.606,0.067,0.772,0.218
			c0.135,0.119,0.21,0.301,0.21,0.507c0,0.353-0.222,0.586-0.502,0.681v0.012c0.206,0.072,0.328,0.262,0.392,0.539
			c0.087,0.372,0.15,0.629,0.206,0.732h-0.356c-0.044-0.075-0.103-0.305-0.178-0.638c-0.079-0.368-0.222-0.507-0.534-0.519h-0.325
			v1.156H41.15V6.345z M41.495,7.56h0.353c0.368,0,0.602-0.201,0.602-0.506c0-0.345-0.25-0.495-0.614-0.5
			c-0.167,0-0.285,0.017-0.341,0.033V7.56z"/>
		<path fill="#FBFDFC" d="M45.138,7.726h-1.037v0.963h1.156v0.289h-1.501V6.31h1.441v0.289h-1.096v0.843h1.037V7.726z"/>
	</g>
	<g>
		<circle fill="#FFFFFF" cx="144.098" cy="136.846" r="18.32"/>
	</g>
	<g>
		<circle fill="#FFFFFF" cx="91.942" cy="179.758" r="18.32"/>
	</g>
	<g>
		<circle fill="#FFFFFF" cx="148.389" cy="61.584" r="18.32"/>
	</g>
	<g>
		<g>
			<g>
				<g>
					<rect x="82.925" y="175.131" fill="#694B29" width="1.032" height="1.816"/>
				</g>
				<g>
					<polygon fill="#D6BD93" points="91.696,179.248 86.651,174.313 81.606,179.248 81.606,185.961 91.696,185.961 					"/>
				</g>
				<g>
					<polygon fill="#B5986F" points="91.696,179.82 91.696,179.248 86.651,174.313 81.606,179.248 81.606,179.82 86.651,174.871 
											"/>
				</g>
				<g>
					<g>
						<path fill="#82AC55" d="M91.956,186.434v-0.256c0-0.121-0.107-0.217-0.24-0.217h-10.13c-0.132,0-0.24,0.096-0.24,0.217v0.256
							H91.956z"/>
					</g>
					<g>
						<rect x="81.346" y="186.34" fill="#322E2E" width="10.61" height="0.094"/>
					</g>
				</g>
				<g>
					<g>
						<g>
							<rect x="82.847" y="180.764" fill="#ACCFE3" width="1.808" height="2.479"/>
						</g>
						<g>
							<path fill="#7E613D" d="M82.607,180.523v2.957h2.287v-2.957H82.607z M84.654,183.242h-1.808v-2.479h1.808V183.242z"/>
						</g>
					</g>
					<g opacity="0.3">
						<polygon fill="#F0F0F0" points="84.654,180.826 82.847,182.215 82.847,182.617 84.654,181.225 						"/>
					</g>
					<g opacity="0.3">
						<polygon fill="#F0F0F0" points="84.654,181.451 82.847,182.84 82.847,183.242 84.654,181.852 						"/>
					</g>
				</g>
				<g>
					<g>
						<g>
							<rect x="87.71" y="180.605" fill="#967A55" width="2.117" height="5.355"/>
						</g>
						<g>
							<polygon fill="#694B29" points="87.59,180.486 87.59,186.08 87.83,186.08 87.83,185.84 87.83,185.84 87.83,180.727 
								89.708,180.727 89.708,185.84 89.707,185.84 89.707,186.08 89.947,186.08 89.947,180.486 							"/>
						</g>
					</g>
					<g>
						<rect x="87.421" y="185.961" fill="#694B29" width="2.697" height="0.473"/>
					</g>
					<g>
						<path fill="#B5986F" d="M89.478,182.826c-0.236,0.033-0.473,0.049-0.709,0.072c-0.236,0.021-0.473,0.037-0.71,0.049
							l-0.113,0.004l-0.008-0.125c-0.034-0.596-0.042-1.193-0.046-1.789l-0.001-0.168h0.168c0.474,0.002,0.946,0.01,1.419,0.027
							l0.146,0.006l-0.006,0.135c-0.014,0.299-0.029,0.596-0.051,0.895C89.54,182.23,89.519,182.527,89.478,182.826z
							 M89.478,182.826c-0.04-0.299-0.062-0.596-0.089-0.895c-0.022-0.299-0.037-0.596-0.05-0.895l0.139,0.141
							c-0.473,0.018-0.945,0.025-1.419,0.027l0.167-0.168c-0.004,0.596-0.012,1.193-0.046,1.789l-0.122-0.121
							c0.237,0.012,0.474,0.027,0.71,0.047C89.005,182.775,89.242,182.793,89.478,182.826z"/>
					</g>
					<g>
						<path fill="#B5986F" d="M89.478,185.516c-0.236,0.033-0.473,0.051-0.709,0.072s-0.473,0.037-0.71,0.049l-0.113,0.006
							l-0.008-0.127c-0.034-0.596-0.042-1.191-0.046-1.787l-0.001-0.168h0.168c0.474,0.002,0.946,0.01,1.419,0.027l0.146,0.006
							l-0.006,0.135c-0.014,0.297-0.029,0.596-0.051,0.893C89.54,184.92,89.519,185.219,89.478,185.516z M89.478,185.516
							c-0.04-0.297-0.062-0.596-0.089-0.895c-0.022-0.297-0.037-0.596-0.05-0.893l0.139,0.139c-0.473,0.018-0.945,0.025-1.419,0.029
							l0.167-0.168c-0.004,0.596-0.012,1.191-0.046,1.787l-0.122-0.121c0.237,0.012,0.474,0.027,0.71,0.049
							C89.005,185.467,89.242,185.482,89.478,185.516z"/>
					</g>
					<g>
						<circle fill="#1A1A1A" cx="89.429" cy="183.365" r="0.118"/>
					</g>
				</g>
				<g>
					<polygon fill="#7E613D" points="86.651,173.133 80.438,179.348 81.591,179.348 86.651,174.432 91.712,179.348 92.865,179.348 
											"/>
				</g>
				<g>
					<path fill="#7E613D" d="M84.223,175.092c0,0.133-0.107,0.24-0.239,0.24h-1.085c-0.133,0-0.24-0.107-0.24-0.24v-0.4
						c0-0.131,0.107-0.238,0.24-0.238h1.085c0.132,0,0.239,0.107,0.239,0.238V175.092z"/>
				</g>
			</g>
			<g>
				<g>
					<polygon fill="#707186" points="92.244,179.248 97.289,174.313 102.334,179.248 102.334,185.961 92.244,185.961 					"/>
				</g>
				<g>
					<polygon fill="#5C527B" points="92.244,179.82 92.244,179.248 97.289,174.313 102.334,179.248 102.334,179.82 97.289,174.871 
											"/>
				</g>
				<g>
					<g>
						<path fill="#82AC55" d="M91.984,186.434v-0.256c0-0.121,0.107-0.217,0.24-0.217h10.129c0.133,0,0.24,0.096,0.24,0.217v0.256
							H91.984z"/>
					</g>
					<g>
						<rect x="91.984" y="186.34" fill="#322E2E" width="10.609" height="0.094"/>
					</g>
				</g>
				<g>
					<g>
						<g>
							<rect x="99.285" y="180.764" fill="#ACCFE3" width="1.809" height="2.479"/>
						</g>
						<g>
							<path fill="#1A1A1A" d="M99.046,180.523v2.957h2.287v-2.957H99.046z M99.285,180.764h1.809v2.479h-1.809V180.764z"/>
						</g>
					</g>
					<g opacity="0.3">
						<polygon fill="#F0F0F0" points="99.285,180.826 101.094,182.215 101.094,182.617 99.285,181.225 						"/>
					</g>
					<g opacity="0.3">
						<polygon fill="#F0F0F0" points="99.285,181.451 101.094,182.84 101.094,183.242 99.285,181.852 						"/>
					</g>
				</g>
				<g>
					<g>
						<g>
							<rect x="94.112" y="180.605" fill="#766D86" width="2.119" height="5.355"/>
						</g>
						<g>
							<polygon fill="#1A1A1A" points="96.35,180.486 96.35,186.08 96.11,186.08 96.11,185.84 96.11,185.84 96.11,180.727 
								94.232,180.727 94.232,185.84 94.233,185.84 94.233,186.08 93.992,186.08 93.992,180.486 							"/>
						</g>
					</g>
					<g>
						<rect x="93.822" y="185.961" fill="#1A1A1A" width="2.697" height="0.473"/>
					</g>
					<g>
						<path fill="#583585" d="M94.462,182.826c0.236-0.033,0.473-0.051,0.709-0.074c0.236-0.02,0.473-0.035,0.709-0.047
							l-0.122,0.121c-0.034-0.596-0.041-1.193-0.046-1.789l0.168,0.168c-0.473-0.002-0.946-0.01-1.418-0.027l0.139-0.141
							c-0.014,0.299-0.028,0.596-0.051,0.895C94.523,182.23,94.502,182.527,94.462,182.826z M94.462,182.826
							c-0.041-0.299-0.062-0.596-0.089-0.895c-0.023-0.299-0.037-0.596-0.051-0.895l-0.006-0.135l0.146-0.006
							c0.473-0.018,0.945-0.025,1.418-0.027h0.168l-0.001,0.168c-0.005,0.596-0.012,1.193-0.046,1.789l-0.007,0.125l-0.113-0.004
							c-0.237-0.012-0.473-0.027-0.709-0.049C94.935,182.875,94.698,182.859,94.462,182.826z"/>
					</g>
					<g>
						<path fill="#583585" d="M94.462,185.516c0.236-0.033,0.473-0.049,0.709-0.072c0.236-0.021,0.473-0.037,0.709-0.049
							l-0.122,0.121c-0.034-0.596-0.041-1.191-0.046-1.787l0.168,0.168c-0.473-0.004-0.946-0.012-1.418-0.029l0.139-0.139
							c-0.014,0.297-0.028,0.596-0.051,0.893C94.523,184.92,94.502,185.219,94.462,185.516z M94.462,185.516
							c-0.041-0.297-0.062-0.596-0.089-0.895c-0.023-0.297-0.037-0.596-0.051-0.893l-0.006-0.135l0.146-0.006
							c0.473-0.018,0.945-0.025,1.418-0.027h0.168l-0.001,0.168c-0.005,0.596-0.012,1.191-0.046,1.787l-0.007,0.127l-0.113-0.006
							c-0.237-0.012-0.473-0.027-0.709-0.049S94.698,185.549,94.462,185.516z"/>
					</g>
					<g>
						<circle fill="#1A1A1A" cx="94.511" cy="183.365" r="0.118"/>
					</g>
				</g>
				<g>
					<polygon fill="#1A1A1A" points="97.289,173.133 103.502,179.348 102.35,179.348 97.289,174.432 92.228,179.348 91.075,179.348 
											"/>
				</g>
			</g>
		</g>
		<g>
			<g>
				<rect x="95.125" y="173.195" fill="#9D2B31" width="1.209" height="2.127"/>
			</g>
			<g>
				<polygon fill="#F0F0F0" points="86.061,178.018 91.97,172.236 97.879,178.018 97.879,185.879 86.061,185.879 				"/>
			</g>
			<g>
				<polygon fill="#CAC9CA" points="86.061,178.688 86.061,178.018 91.97,172.236 97.879,178.018 97.879,178.688 91.97,172.891 				
					"/>
			</g>
			<g>
				<g>
					<path fill="#82AC55" d="M85.757,186.434v-0.299c0-0.141,0.125-0.256,0.281-0.256h11.865c0.155,0,0.281,0.115,0.281,0.256v0.299
						H85.757z"/>
				</g>
				<g>
					<rect x="85.757" y="186.322" fill="#322E2E" width="12.426" height="0.111"/>
				</g>
			</g>
			<g>
				<g>
					<g>
						<g>
							<rect x="94.309" y="179.791" fill="#ACCFE3" width="2.117" height="2.904"/>
						</g>
						<g>
							<path fill="#1A1A1A" d="M94.028,179.512v3.463h2.679v-3.463H94.028z M94.309,179.791h2.117v2.904h-2.117V179.791z"/>
						</g>
					</g>
					<g opacity="0.3">
						<polygon fill="#F0F0F0" points="94.309,179.865 96.426,181.492 96.426,181.963 94.309,180.334 						"/>
					</g>
					<g opacity="0.3">
						<polygon fill="#F0F0F0" points="94.309,180.598 96.426,182.225 96.426,182.695 94.309,181.066 						"/>
					</g>
				</g>
				<g>
					<g>
						<g>
							<rect x="91.911" y="179.791" fill="#ACCFE3" width="2.117" height="2.904"/>
						</g>
						<g>
							<path fill="#1A1A1A" d="M91.629,179.512v3.463h2.679v-3.463H91.629z M91.911,179.791h2.117v2.904h-2.117V179.791z"/>
						</g>
					</g>
					<g opacity="0.3">
						<polygon fill="#F0F0F0" points="91.911,179.865 94.028,181.492 94.028,181.963 91.911,180.334 						"/>
					</g>
					<g opacity="0.3">
						<polygon fill="#F0F0F0" points="91.911,180.598 94.028,182.225 94.028,182.695 91.911,181.066 						"/>
					</g>
				</g>
			</g>
			<g>
				<g>
					<g>
						<rect x="88.249" y="179.607" fill="#453D46" width="2.481" height="6.271"/>
					</g>
					<g>
						<polygon fill="#1A1A1A" points="90.87,179.467 90.87,186.02 90.589,186.02 90.589,185.738 90.589,185.738 90.589,179.748 
							88.39,179.748 88.39,185.738 88.391,185.738 88.391,186.02 88.109,186.02 88.109,179.467 						"/>
					</g>
				</g>
				<g>
					<rect x="87.909" y="185.879" fill="#1A1A1A" width="3.16" height="0.555"/>
				</g>
				<g>
					<path fill="#766E85" d="M88.658,182.207c0.554-0.072,1.108-0.111,1.662-0.143l-0.142,0.143
						c-0.04-0.697-0.048-1.396-0.054-2.094l0.196,0.195c-0.554-0.002-1.108-0.01-1.662-0.031l0.164-0.164
						C88.791,180.811,88.75,181.51,88.658,182.207z M88.658,182.207c-0.091-0.697-0.132-1.396-0.163-2.094l-0.007-0.156l0.17-0.008
						c0.554-0.021,1.108-0.029,1.662-0.031l0.197-0.002l-0.001,0.197c-0.005,0.697-0.014,1.396-0.054,2.094l-0.009,0.148
						l-0.133-0.006C89.766,182.318,89.212,182.279,88.658,182.207z"/>
				</g>
				<g>
					<path fill="#766E85" d="M88.658,185.357c0.554-0.07,1.108-0.109,1.662-0.141l-0.142,0.141c-0.04-0.697-0.048-1.395-0.054-2.094
						l0.196,0.197c-0.554-0.004-1.108-0.012-1.662-0.033l0.164-0.164C88.791,183.963,88.75,184.66,88.658,185.357z M88.658,185.357
						c-0.091-0.697-0.132-1.395-0.163-2.094l-0.007-0.156l0.17-0.008c0.554-0.02,1.108-0.029,1.662-0.031l0.197-0.002l-0.001,0.197
						c-0.005,0.699-0.014,1.396-0.054,2.094l-0.009,0.15L90.32,185.5C89.766,185.469,89.212,185.432,88.658,185.357z"/>
				</g>
				<g>
					<path fill="#1A1A1A" d="M88.578,182.838c0,0.078,0.063,0.141,0.139,0.141c0.077,0,0.139-0.063,0.139-0.141
						c0-0.074-0.062-0.137-0.139-0.137C88.641,182.701,88.578,182.764,88.578,182.838z"/>
				</g>
			</g>
			<g>
				<polygon fill="#BF2E30" points="91.97,170.855 99.248,178.133 97.898,178.133 91.97,172.377 86.042,178.133 84.691,178.133 				
					"/>
			</g>
			<g>
				<path fill="#BF2E30" d="M94.813,173.148c0,0.154,0.125,0.281,0.281,0.281h1.271c0.155,0,0.281-0.127,0.281-0.281v-0.469
					c0-0.154-0.125-0.279-0.281-0.279h-1.271c-0.156,0-0.281,0.125-0.281,0.279V173.148z"/>
			</g>
		</g>
	</g>
	<g>
		<g>
			<g id="XMLID_657_">
				<path fill="#C8B684" d="M148.984,49.957c-0.012-0.007-0.026-0.014-0.041-0.02l0,0l0,0c-0.006-0.004-0.01-0.006-0.016-0.009
					c0.05-0.103,0.039-0.177,0.039-0.177c-0.717-0.063-1.439,0.063-1.439,0.063s-0.732,0.035-1.419,0.254
					c0,0,0.007,0.074,0.077,0.163c-0.018,0.013-0.034,0.026-0.049,0.041c-0.242,0.233-0.396,0.409-0.344,0.888
					c0.054,0.479,0.313,2.83,0.313,2.83l0.413-0.045c0,0-0.235-2.134-0.314-2.852c-0.029-0.266,0.15-0.438,0.389-0.549
					c0.037-0.018,0.074-0.033,0.114-0.048c0.214,0.042,0.503,0.056,0.896,0.012c0.394-0.044,0.673-0.119,0.873-0.206
					c0.041,0.005,0.082,0.012,0.121,0.021l0,0c0.258,0.058,0.47,0.187,0.499,0.45c0.079,0.719,0.315,2.853,0.315,2.853l0.413-0.046
					c0,0-0.259-2.352-0.312-2.83C149.46,50.271,149.271,50.132,148.984,49.957z"/>
			</g>
			<g id="XMLID_656_">
				<polygon fill="#E6D59E" points="151.752,52.995 147.956,53.468 144.16,53.941 144.361,64.195 149.219,63.59 149.219,63.59 
					154.076,62.984 				"/>
			</g>
			<g id="XMLID_655_">
				<polygon fill="#EEE1B7" points="144.361,64.195 144.754,54.472 144.426,54.634 144.16,53.941 				"/>
			</g>
			<g id="XMLID_654_">
				<polygon fill="#EEE1B7" points="154.076,62.984 151.307,53.655 151.664,53.732 151.752,52.995 				"/>
			</g>
			<g id="XMLID_653_">
				<polygon fill="#DCDBDA" points="144.754,54.472 151.307,53.655 151.664,53.732 151.752,52.995 144.16,53.941 144.426,54.634 
									"/>
			</g>
			<g>
				<g id="XMLID_652_">
					<path fill="#E6D59E" d="M149.203,49.791c-0.333-0.204-1.236-0.104-1.682-0.056c-0.444,0.049-1.348,0.149-1.629,0.421
						c-0.279,0.271-0.459,0.475-0.397,1.031s0.362,3.289,0.362,3.289l0.481-0.053c0,0-0.274-2.479-0.366-3.314
						c-0.092-0.834,1.604-0.877,1.604-0.877s1.665-0.328,1.757,0.507c0.093,0.835,0.366,3.313,0.366,3.313L150.18,54
						c0,0-0.302-2.732-0.363-3.289C149.756,50.154,149.536,49.995,149.203,49.791z"/>
				</g>
				<g id="XMLID_651_">
					<path fill="#DCDBDA" d="M147.521,49.735c-0.426,0.047-1.268,0.142-1.586,0.387c0.07,0.114,0.212,0.257,0.488,0.351
						c0.476-0.223,1.152-0.24,1.152-0.24s0.666-0.131,1.178-0.017c0.25-0.151,0.356-0.321,0.4-0.449
						C148.791,49.595,147.947,49.688,147.521,49.735z"/>
				</g>
				<g id="XMLID_650_">
					<path fill="#C8B684" d="M147.51,49.625c0,0-0.852,0.039-1.648,0.294c0,0,0.059,0.697,1.737,0.513
						c1.679-0.186,1.585-0.879,1.585-0.879C148.35,49.478,147.51,49.625,147.51,49.625z"/>
				</g>
			</g>
		</g>
		<g>
			<g id="XMLID_649_">
				<path fill="#B36177" d="M151.662,53.154c-0.01-0.006-0.02-0.012-0.031-0.016l0,0l0,0c-0.004-0.003-0.006-0.005-0.012-0.007
					c0.037-0.077,0.03-0.132,0.03-0.132c-0.536-0.048-1.076,0.047-1.076,0.047s-0.547,0.025-1.06,0.189c0,0,0.004,0.055,0.057,0.121
					c-0.013,0.01-0.025,0.021-0.036,0.031c-0.181,0.175-0.296,0.306-0.257,0.664c0.04,0.357,0.233,2.114,0.233,2.114l0.31-0.033
					c0,0-0.176-1.594-0.235-2.131c-0.021-0.197,0.112-0.326,0.29-0.41c0.027-0.013,0.057-0.023,0.086-0.035
					c0.16,0.031,0.376,0.041,0.67,0.009c0.293-0.032,0.502-0.089,0.652-0.155c0.029,0.006,0.062,0.01,0.091,0.017l0,0
					c0.192,0.043,0.351,0.14,0.372,0.337c0.059,0.537,0.234,2.131,0.234,2.131l0.311-0.033c0,0-0.195-1.758-0.234-2.117
					C152.018,53.387,151.877,53.285,151.662,53.154z"/>
			</g>
			<g id="XMLID_648_">
				<polygon fill="#CB697E" points="153.73,55.424 150.895,55.777 148.057,56.131 148.207,63.793 151.838,63.34 151.838,63.34 
					155.467,62.887 				"/>
			</g>
			<g id="XMLID_647_">
				<polygon fill="#D48EA1" points="148.207,63.793 148.5,56.527 148.256,56.648 148.057,56.131 				"/>
			</g>
			<g id="XMLID_646_">
				<polygon fill="#D48EA1" points="155.467,62.887 153.396,55.916 153.666,55.973 153.73,55.424 				"/>
			</g>
			<g id="XMLID_645_">
				<polygon fill="#DCDBDA" points="148.5,56.527 153.396,55.916 153.666,55.973 153.73,55.424 148.057,56.131 148.256,56.648 				
					"/>
			</g>
			<g>
				<g id="XMLID_644_">
					<path fill="#CB697E" d="M151.825,53.029c-0.249-0.152-0.923-0.078-1.256-0.042s-1.007,0.111-1.217,0.314
						s-0.344,0.355-0.298,0.771c0.046,0.416,0.271,2.458,0.271,2.458l0.359-0.039c0,0-0.205-1.852-0.273-2.477
						c-0.069-0.623,1.197-0.655,1.197-0.655s1.244-0.245,1.314,0.38c0.067,0.623,0.272,2.475,0.272,2.475l0.358-0.039
						c0,0-0.225-2.042-0.271-2.458C152.238,53.3,152.074,53.181,151.825,53.029z"/>
				</g>
				<g id="XMLID_643_">
					<path fill="#DCDBDA" d="M150.569,52.987c-0.317,0.035-0.948,0.104-1.186,0.288c0.053,0.086,0.159,0.193,0.365,0.264
						c0.354-0.168,0.86-0.181,0.86-0.181s0.498-0.098,0.881-0.013c0.187-0.113,0.267-0.24,0.3-0.335
						C151.518,52.882,150.887,52.953,150.569,52.987z"/>
				</g>
				<g id="XMLID_642_">
					<path fill="#BB6077" d="M150.561,52.904c0,0-0.637,0.03-1.232,0.221c0,0,0.045,0.521,1.299,0.383
						c1.254-0.139,1.184-0.657,1.184-0.657C151.188,52.794,150.561,52.904,150.561,52.904z"/>
				</g>
			</g>
		</g>
		<g>
			<g id="XMLID_641_">
				<path fill="#C68283" d="M144.948,64.4L144.948,64.4c0.044,0.064,0.118,0.1,0.194,0.094l3.201-0.26
					c0.112-0.01,0.198-0.107,0.195-0.219l-0.002-0.098c-0.004-0.123-0.113-0.219-0.236-0.205l-3.199,0.357
					C144.942,64.088,144.859,64.268,144.948,64.4z"/>
			</g>
			<g>
				<g>
					<g id="XMLID_640_">
						<path fill="#C68283" d="M155.84,69.287h-13.617c-0.07,0-0.129-0.059-0.129-0.131c0-0.07,0.059-0.129,0.129-0.129h13.617
							c0.072,0,0.129,0.059,0.129,0.129C155.969,69.229,155.912,69.287,155.84,69.287z"/>
					</g>
				</g>
				<g>
					<g>
						<g id="XMLID_639_">
							<path fill="#C68283" d="M142.126,69.287c-0.071,0-0.129-0.059-0.129-0.131v-1.355c0-0.291,0.183-0.623,0.543-0.982
								l2.22-2.219c0.234-0.236,0.688-0.377,1.276-0.4c0.532-0.021,1.309-0.064,1.632-0.086c0.172-0.012,0.349-0.006,0.473,0.107
								c0.094,0.09,0.138,0.225,0.138,0.43c0,0.133-0.097,0.383-0.858,1.154c-0.449,0.455-0.928,0.885-0.98,0.932
								c-0.174,0.156-0.258,0.25-0.258,0.668v1.227c0,0.105,0,0.182,0.268,0.182h0.549c0.072,0,0.13,0.059,0.13,0.129
								c0,0.072-0.058,0.129-0.13,0.129h-0.549c-0.354,0-0.526-0.143-0.526-0.439v-1.227c0-0.475,0.102-0.643,0.345-0.861
								c0.98-0.877,1.751-1.709,1.753-1.893c0-0.123-0.02-0.205-0.058-0.24c-0.039-0.037-0.127-0.051-0.277-0.039
								c-0.325,0.021-1.105,0.064-1.639,0.086c-0.51,0.02-0.922,0.141-1.105,0.324L142.723,67c-0.301,0.303-0.468,0.586-0.468,0.801
								v1.355C142.255,69.229,142.197,69.287,142.126,69.287z"/>
						</g>
					</g>
				</g>
				<g>
					<g id="XMLID_638_">
						<circle fill="#C68283" cx="142.862" cy="71.223" r="0.99"/>
					</g>
					<g id="XMLID_637_">
						<circle fill="#C68283" cx="142.861" cy="71.223" r="0.678"/>
					</g>
					<g id="XMLID_636_">
						<path fill="#C68283" d="M142.297,71.336c0-0.375,0.304-0.678,0.678-0.678c0.158,0,0.304,0.055,0.418,0.145
							c-0.123-0.156-0.314-0.258-0.531-0.258c-0.373,0-0.678,0.303-0.678,0.678c0,0.215,0.102,0.408,0.26,0.531
							C142.352,71.639,142.297,71.494,142.297,71.336z"/>
					</g>
					<g id="XMLID_635_">
						<path fill="#C68283" d="M142.861,70.232c-0.118,0-0.231,0.021-0.336,0.059v0.838c0,0.002,0,0.004,0,0.006
							c0.006,0.193,0.164,0.348,0.358,0.348c0.152,0,0.282-0.096,0.335-0.229c0.004-0.006,0.006-0.012,0.008-0.021l0.266-0.771
							C143.322,70.318,143.102,70.232,142.861,70.232z"/>
					</g>
					<g>
						<g id="XMLID_634_">
							<path fill="#C68283" d="M143.41,70.039h-0.793c-0.07,0-0.129,0.059-0.129,0.129v0.926c0,0.002,0.001,0.004,0.001,0.004
								c0.006,0.195,0.165,0.35,0.358,0.35c0.153,0,0.283-0.096,0.336-0.23c0.002-0.004,0.005-0.012,0.008-0.02l0.346-1.002
								C143.554,70.115,143.492,70.039,143.41,70.039z"/>
						</g>
						<g id="XMLID_633_">
							<circle fill="#C68283" cx="142.846" cy="71.107" r="0.225"/>
						</g>
					</g>
					<g id="XMLID_632_">
						<path fill="#C68283" d="M143.602,69.748h-1.186c-0.053,0-0.096,0.043-0.096,0.096v0.1c0,0.053,0.043,0.096,0.096,0.096h1.186
							c0.053,0,0.096-0.043,0.096-0.096v-0.1C143.697,69.791,143.654,69.748,143.602,69.748z"/>
					</g>
					<g>
						<g id="XMLID_631_">
							<rect x="142.732" y="69.588" fill="#C68283" width="0.545" height="0.16"/>
						</g>
						<g id="XMLID_630_">
							<rect x="142.621" y="69.275" fill="#C68283" width="0.768" height="0.313"/>
						</g>
						<g id="XMLID_629_">
							<polygon fill="#C68283" points="142.773,69.588 143.277,69.688 143.277,69.588 							"/>
						</g>
					</g>
				</g>
				<g>
					<g id="XMLID_628_">
						<circle fill="#C68283" cx="154.392" cy="71.223" r="0.989"/>
					</g>
					<g id="XMLID_627_">
						<circle fill="#C68283" cx="154.393" cy="71.223" r="0.678"/>
					</g>
					<g id="XMLID_626_">
						<path fill="#C68283" d="M153.828,71.336c0-0.375,0.303-0.678,0.676-0.678c0.16,0,0.305,0.055,0.42,0.145
							c-0.125-0.156-0.316-0.258-0.533-0.258c-0.373,0-0.676,0.303-0.676,0.678c0,0.215,0.102,0.408,0.258,0.531
							C153.883,71.639,153.828,71.494,153.828,71.336z"/>
					</g>
					<g id="XMLID_625_">
						<path fill="#C68283" d="M154.391,70.232c-0.117,0-0.23,0.021-0.336,0.059v0.838c0,0,0.002,0.004,0.002,0.006
							c0.006,0.193,0.164,0.348,0.357,0.348c0.152,0,0.283-0.096,0.336-0.229c0.002-0.006,0.006-0.012,0.008-0.021l0.266-0.771
							C154.852,70.318,154.633,70.232,154.391,70.232z"/>
					</g>
					<g>
						<g id="XMLID_624_">
							<path fill="#C68283" d="M154.941,70.039h-0.793c-0.07,0-0.129,0.059-0.129,0.129v0.926c0,0.002,0,0.004,0,0.004
								c0.006,0.195,0.164,0.35,0.359,0.35c0.152,0,0.283-0.096,0.334-0.23c0.002-0.004,0.006-0.012,0.008-0.02l0.346-1.002
								C155.084,70.115,155.023,70.039,154.941,70.039z"/>
						</g>
						<g id="XMLID_623_">
							<circle fill="#C68283" cx="154.376" cy="71.107" r="0.226"/>
						</g>
					</g>
					<g id="XMLID_622_">
						<path fill="#C68283" d="M155.133,69.748h-1.188c-0.053,0-0.094,0.043-0.094,0.096v0.1c0,0.053,0.041,0.096,0.094,0.096h1.188
							c0.051,0,0.096-0.043,0.096-0.096v-0.1C155.229,69.791,155.184,69.748,155.133,69.748z"/>
					</g>
					<g>
						<g id="XMLID_621_">
							<rect x="154.264" y="69.588" fill="#C68283" width="0.545" height="0.16"/>
						</g>
						<g id="XMLID_620_">
							<rect x="154.15" y="69.275" fill="#C68283" width="0.77" height="0.313"/>
						</g>
						<g id="XMLID_619_">
							<polygon fill="#C68283" points="154.303,69.588 154.809,69.688 154.809,69.588 							"/>
						</g>
					</g>
				</g>
				<g id="XMLID_618_">
					<path fill="#C68283" d="M142.202,69.453h-0.147c-0.076,0-0.139-0.063-0.139-0.139v-0.361c0-0.078,0.063-0.141,0.139-0.141
						h0.147c0.077,0,0.14,0.063,0.14,0.141v0.361C142.342,69.391,142.279,69.453,142.202,69.453z"/>
				</g>
				<g id="XMLID_617_">
					<path fill="#C68283" d="M155.916,69.453h-0.146c-0.076,0-0.139-0.063-0.139-0.139v-0.361c0-0.078,0.063-0.141,0.139-0.141
						h0.146c0.076,0,0.139,0.063,0.139,0.141v0.361C156.055,69.391,155.992,69.453,155.916,69.453z"/>
				</g>
				<g>
					<g>
						<path fill="#C68283" d="M144.453,64.27c-0.555,0-0.785-0.615-0.957-1.197c-0.17-0.572-2.621-7.777-2.646-7.85
							c-0.01-0.027-0.005-0.057,0.014-0.08s0.046-0.035,0.075-0.033l15.037,1.334c0.043,0.004,0.076,0.039,0.078,0.082
							c0.002,0.039,0.158,3.82,0.188,4.871c0.027,1.039-0.203,1.402-0.988,1.549c-0.592,0.111-7.641,0.953-9.959,1.229
							c-0.398,0.047-0.664,0.08-0.746,0.09l0,0C144.517,64.268,144.484,64.27,144.453,64.27z M141.057,55.293
							c0.338,0.996,2.443,7.189,2.604,7.73c0.208,0.699,0.426,1.123,0.869,1.068l0,0c0.081-0.01,0.348-0.041,0.746-0.088
							c2.314-0.277,9.361-1.117,9.947-1.227c0.621-0.117,0.875-0.334,0.848-1.377c-0.027-0.965-0.162-4.25-0.184-4.791
							L141.057,55.293z"/>
					</g>
				</g>
				<g>
					<g id="XMLID_614_">
						<path fill="#C68283" d="M144.932,64.217c-0.038,0-0.072-0.025-0.083-0.063l-2.442-8.797c-0.014-0.047,0.014-0.094,0.06-0.107
							c0.046-0.012,0.093,0.016,0.106,0.061l2.441,8.797c0.014,0.047-0.014,0.094-0.059,0.105
							C144.947,64.215,144.939,64.217,144.932,64.217z"/>
					</g>
				</g>
				<g>
					<g id="XMLID_613_">
						<path fill="#C68283" d="M146.114,64.076c-0.038,0-0.073-0.025-0.083-0.064l-2.373-8.543c-0.013-0.047,0.014-0.094,0.061-0.107
							c0.045-0.012,0.092,0.014,0.105,0.061l2.373,8.545c0.012,0.045-0.014,0.094-0.061,0.105
							C146.129,64.074,146.122,64.076,146.114,64.076z"/>
					</g>
				</g>
				<g>
					<g id="XMLID_612_">
						<path fill="#C68283" d="M147.297,63.934c-0.039,0-0.073-0.025-0.084-0.063l-2.303-8.293c-0.013-0.045,0.015-0.092,0.061-0.105
							c0.045-0.012,0.093,0.014,0.105,0.061l2.303,8.293c0.014,0.045-0.014,0.092-0.059,0.105
							C147.312,63.934,147.305,63.934,147.297,63.934z"/>
					</g>
				</g>
				<g>
					<g id="XMLID_611_">
						<path fill="#C68283" d="M148.447,63.797c-0.039,0-0.073-0.025-0.084-0.064l-2.2-8.043c-0.013-0.045,0.015-0.094,0.06-0.105
							c0.047-0.012,0.094,0.014,0.105,0.061l2.201,8.043c0.013,0.045-0.015,0.094-0.061,0.105
							C148.461,63.795,148.453,63.797,148.447,63.797z"/>
					</g>
				</g>
				<g>
					<g id="XMLID_610_">
						<path fill="#C68283" d="M149.66,63.65c-0.037,0-0.072-0.025-0.082-0.063l-2.163-7.787c-0.013-0.045,0.015-0.094,0.06-0.105
							c0.046-0.014,0.094,0.014,0.106,0.059l2.162,7.787c0.013,0.045-0.015,0.094-0.06,0.105
							C149.676,63.648,149.668,63.65,149.66,63.65z"/>
					</g>
				</g>
				<g>
					<g id="XMLID_609_">
						<path fill="#C68283" d="M150.842,63.506c-0.037,0-0.072-0.023-0.082-0.063l-2.104-7.576c-0.013-0.047,0.014-0.094,0.06-0.105
							c0.046-0.014,0.094,0.014,0.105,0.059l2.104,7.578c0.014,0.045-0.013,0.092-0.059,0.105
							C150.857,63.506,150.85,63.506,150.842,63.506z"/>
					</g>
				</g>
				<g>
					<g id="XMLID_608_">
						<path fill="#C68283" d="M152.023,63.363c-0.037,0-0.072-0.025-0.083-0.064l-2.021-7.275c-0.014-0.047,0.014-0.094,0.06-0.105
							c0.046-0.014,0.094,0.014,0.106,0.059l2.021,7.277c0.013,0.045-0.015,0.094-0.06,0.105
							C152.039,63.361,152.031,63.363,152.023,63.363z"/>
					</g>
				</g>
				<g>
					<g id="XMLID_607_">
						<path fill="#C68283" d="M153.205,63.217c-0.037,0-0.074-0.025-0.084-0.063l-1.949-7.02c-0.012-0.047,0.014-0.094,0.061-0.107
							c0.045-0.012,0.093,0.016,0.105,0.061l1.949,7.02c0.014,0.047-0.014,0.094-0.059,0.105
							C153.219,63.215,153.211,63.217,153.205,63.217z"/>
					</g>
				</g>
				<g>
					<g id="XMLID_606_">
						<path fill="#C68283" d="M154.385,63.066c-0.037,0-0.072-0.025-0.084-0.063l-1.877-6.758c-0.012-0.047,0.016-0.094,0.061-0.107
							c0.045-0.012,0.094,0.016,0.105,0.061l1.877,6.758c0.014,0.047-0.014,0.094-0.059,0.107
							C154.4,63.066,154.391,63.066,154.385,63.066z"/>
					</g>
				</g>
				<g>
					<g id="XMLID_605_">
						
							<rect x="151.31" y="59.471" transform="matrix(0.2674 0.9636 -0.9636 0.2674 170.6904 -105.3922)" fill="#C68283" width="6.691" height="0.172"/>
					</g>
				</g>
				<g>
					<g>
						<g id="XMLID_604_">
							<polygon fill="#C68283" points="156.074,60.594 154.93,56.467 155.094,56.422 156.182,60.334 							"/>
						</g>
					</g>
				</g>
				<g>
					<g id="XMLID_603_">
						
							<rect x="149.866" y="56.964" transform="matrix(0.1142 0.9935 -0.9935 0.1142 195.4976 -93.0917)" fill="#C68283" width="0.171" height="12.236"/>
					</g>
				</g>
				<g>
					<g id="XMLID_602_">
						
							<rect x="149.531" y="54.604" transform="matrix(0.0737 0.9973 -0.9973 0.0737 199.5656 -92.5784)" fill="#C68283" width="0.172" height="13.064"/>
					</g>
				</g>
				<g>
					<g id="XMLID_601_">
						<path fill="#C68283" d="M156.053,58.703h-13.959c-0.049,0-0.087-0.039-0.087-0.086c0-0.049,0.038-0.088,0.087-0.088h13.959
							c0.049,0,0.088,0.039,0.088,0.088C156.141,58.664,156.102,58.703,156.053,58.703z"/>
					</g>
				</g>
				<g>
					<g id="XMLID_600_">
						<path fill="#C68283" d="M156.002,57.432c-0.002,0-0.004,0-0.006,0l-15.502-1.234c-0.047-0.004-0.082-0.045-0.078-0.094
							c0.004-0.047,0.045-0.082,0.092-0.078l15.502,1.234c0.047,0.004,0.082,0.045,0.078,0.092S156.047,57.432,156.002,57.432z"/>
					</g>
				</g>
				<g>
					<g id="XMLID_599_">
						<path fill="#C68283" d="M141.328,56.629c-0.337,0-0.9-0.156-0.998-0.771c-0.111-0.717-0.3-1.573-0.765-1.846
							c-0.021-0.013-0.035-0.033-0.04-0.057c-0.006-0.022-0.001-0.047,0.013-0.066l0.312-0.452c0.023-0.032,0.066-0.046,0.104-0.03
							c0.016,0.006,0.391,0.158,0.607,0.373c0.211,0.211,0.875,1.366,0.903,1.415c0.024,0.041,0.009,0.094-0.032,0.117
							c-0.04,0.023-0.093,0.01-0.117-0.031c-0.188-0.328-0.714-1.216-0.876-1.378c-0.142-0.142-0.376-0.259-0.487-0.309
							l-0.222,0.321c0.468,0.344,0.653,1.157,0.771,1.917c0.105,0.67,0.852,0.627,0.883,0.625c0.049-0.002,0.09,0.033,0.092,0.08
							c0.004,0.049-0.032,0.09-0.08,0.092C141.375,56.629,141.352,56.629,141.328,56.629z"/>
					</g>
				</g>
				<g>
					<g id="XMLID_598_">
						<path fill="#C68283" d="M140.932,55.281c-0.002,0-0.006,0-0.008,0l-0.656-0.066c-0.047-0.004-0.081-0.047-0.076-0.094
							c0.004-0.047,0.047-0.082,0.094-0.078l0.656,0.066c0.047,0.006,0.08,0.047,0.076,0.096
							C141.014,55.248,140.976,55.281,140.932,55.281z"/>
					</g>
				</g>
				<g>
					<g id="XMLID_597_">
						<path fill="#C68283" d="M155.975,57.475l-0.873-0.092c-0.17-0.02-0.293-0.172-0.275-0.342l0.033-0.326
							c0.018-0.17,0.172-0.295,0.342-0.275l0.873,0.09c0.17,0.02,0.293,0.172,0.275,0.344l-0.033,0.324
							C156.299,57.369,156.145,57.492,155.975,57.475z"/>
					</g>
					<g id="XMLID_596_">
						<path fill="#C68283" d="M154.869,56.619l-0.027,0.26l1.492,0.156l0.027-0.258c0.002-0.033-0.002-0.063-0.012-0.092
							l-1.451-0.152C154.883,56.559,154.873,56.588,154.869,56.619z"/>
					</g>
					<g id="XMLID_595_">
						<path fill="#C68283" d="M156.348,56.873l-1.486-0.156c-0.111-0.012-0.193-0.113-0.182-0.225l0.023-0.215
							c0.012-0.111,0.111-0.193,0.225-0.182l1.484,0.156c0.113,0.012,0.193,0.113,0.182,0.225l-0.021,0.215
							C156.561,56.803,156.459,56.885,156.348,56.873z"/>
					</g>
				</g>
				<g>
					<g id="XMLID_594_">
						<path fill="#C68283" d="M139.413,54.021l-1.227-1.032c-0.087-0.073-0.103-0.2-0.036-0.29l0.142-0.195
							c0.067-0.092,0.192-0.115,0.288-0.057l1.361,0.848c0.105,0.066,0.134,0.208,0.061,0.309l-0.276,0.381
							C139.652,54.084,139.508,54.102,139.413,54.021z"/>
					</g>
					<g id="XMLID_593_">
						<path fill="#C68283" d="M138.384,52.744l0.023-0.033c0.033-0.045,0.097-0.059,0.144-0.027l1.179,0.732
							c0.054,0.033,0.067,0.104,0.03,0.154l-0.141,0.193c-0.037,0.051-0.109,0.06-0.156,0.02l-1.062-0.894
							C138.357,52.853,138.351,52.789,138.384,52.744z"/>
					</g>
					<g id="XMLID_592_">
						<path fill="#C68283" d="M138.394,52.807l0.024-0.032c0.033-0.046,0.096-0.059,0.143-0.028l1.179,0.733
							c0.019,0.011,0.03,0.026,0.038,0.043c0.007-0.041-0.01-0.084-0.048-0.107l-1.179-0.732c-0.047-0.031-0.11-0.018-0.144,0.027
							l-0.023,0.033c-0.024,0.033-0.026,0.076-0.009,0.111C138.377,52.837,138.383,52.822,138.394,52.807z"/>
					</g>
				</g>
			</g>
		</g>
	</g>
	<g>
		<g>
			<circle fill="#FFFFFF" cx="39.127" cy="97.234" r="18.32"/>
		</g>
		<g>
			<g>
				<g>
					<g>
						<g>
							<polygon fill="#765357" points="40.26,98.266 40.883,98.266 41.505,98.266 41.742,105.063 40.883,105.063 40.023,105.063 
															"/>
						</g>
						<g>
							<g>
								<path fill="#84A552" d="M41.034,99.605c0,0-2.626-0.451-3.738-2.803s-1.287-7.207,0-9.559
									c1.287-2.352,3.615-4.154,5.392-2.553s3.493,7.957,2.267,11.109C43.73,98.955,41.953,99.455,41.034,99.605z"/>
							</g>
						</g>
					</g>
					<g opacity="0.2">
						<path fill="#FFFFFF" d="M42.688,84.691c-0.563-0.508-1.183-0.674-1.806-0.588v20.959h0.859l-0.194-5.57
							c0.972-0.271,2.383-1.053,3.408-3.691C46.182,92.648,44.465,86.293,42.688,84.691z"/>
					</g>
				</g>
				<g>
					<g>
						<g>
							<g>
								<polygon fill="#765357" points="35.997,101.482 35.734,101.512 35.472,101.482 35.013,105.25 35.734,105.25 36.456,105.25 
																	"/>
							</g>
						</g>
						<g>
							<g>
								<path fill="#779B4F" d="M37.919,97.311c0.205-0.361,0.322-0.777,0.322-1.223c0-1.379-1.122-2.498-2.506-2.498
									s-2.506,1.119-2.506,2.498c0,0.445,0.117,0.861,0.321,1.223c-0.491,0.529-0.79,1.236-0.79,2.014
									c0,1.637,1.332,2.963,2.975,2.963s2.975-1.326,2.975-2.963C38.709,98.547,38.41,97.84,37.919,97.311z"/>
							</g>
						</g>
					</g>
					<g opacity="0.2">
						<path fill="#FFFFFF" d="M38.241,96.088c0-1.379-1.122-2.498-2.506-2.498v11.66h0.721l-0.364-2.984
							c1.475-0.176,2.618-1.426,2.618-2.941c0-0.777-0.299-1.484-0.791-2.014C38.124,96.949,38.241,96.533,38.241,96.088z"/>
					</g>
				</g>
				<g>
					<g>
						<g>
							<g>
								<polygon fill="#765357" points="30.579,100.879 30.786,100.906 30.992,100.879 31.354,106.152 30.786,106.152 
									30.218,106.152 								"/>
							</g>
						</g>
						<g>
							<g>
								<polygon fill="#8EB756" points="28.176,103.006 27.806,103.006 28.487,101.451 28.104,101.451 28.658,100.221 
									28.316,100.221 29.011,99.033 28.615,99.033 29.381,97.506 29.083,97.506 29.678,96.162 29.253,96.162 29.863,95.002 
									29.466,95.002 30.203,93.857 29.892,93.857 30.786,91.906 31.679,93.857 31.368,93.857 32.105,95.002 31.708,95.002 
									32.318,96.162 31.893,96.162 32.488,97.506 32.19,97.506 32.957,99.033 32.56,99.033 33.255,100.221 32.914,100.221 
									33.467,101.451 33.084,101.451 33.765,103.006 33.396,103.006 34.191,104.42 30.786,104.42 27.38,104.42 								"/>
							</g>
						</g>
					</g>
					<g opacity="0.2">
						<polygon fill="#FFFFFF" points="30.904,106.152 30.904,92.164 31.679,93.857 31.368,93.857 32.105,95.002 31.708,95.002 
							32.318,96.162 31.893,96.162 32.488,97.506 32.19,97.506 32.957,99.033 32.56,99.033 33.255,100.221 32.914,100.221 
							33.467,101.451 33.084,101.451 33.765,103.006 33.396,103.006 34.191,104.42 31.235,104.42 31.354,106.152 						"/>
					</g>
				</g>
				<g>
					<g>
						<g>
							<polygon fill="#765357" points="45.541,100.922 45.998,100.922 46.454,100.922 46.628,105.91 45.998,105.91 45.367,105.91 
															"/>
						</g>
						<g>
							<g>
								<g>
									<g>
										<path fill="#BBCA50" d="M46.088,102.268c0,0-1.637,0-2.711-1.398c-0.867-1.127-0.934-3.592,0-4.766
											c0.934-1.172,2.981-1.789,4.27-0.99s2.176,3.686,1.287,5.258C48.045,101.943,46.947,102.268,46.088,102.268z"/>
									</g>
								</g>
							</g>
						</g>
					</g>
					<g opacity="0.2">
						<path fill="#FFFFFF" d="M47.647,95.113c-0.478-0.295-1.06-0.396-1.649-0.348v11.145h0.631l-0.128-3.67
							c0.78-0.102,1.682-0.539,2.434-1.869C49.823,98.799,48.936,95.912,47.647,95.113z"/>
					</g>
				</g>
			</g>
			<g>
				<g>
					<g>
						<g>
							<g>
								<g>
									<rect x="35.143" y="102.273" fill="#625652" width="0.353" height="3.559"/>
								</g>
								<g>
									<rect x="41.762" y="102.273" fill="#625652" width="0.353" height="3.559"/>
								</g>
							</g>
							<g>
								<g>
									<g>
										<g>
											<rect x="34.606" y="101.869" fill="#BF8753" width="8.04" height="0.773"/>
										</g>
										<g>
											<circle fill="#625652" cx="35.351" cy="102.256" r="0.068"/>
										</g>
									</g>
									<g>
										<circle fill="#625652" cx="41.97" cy="102.256" r="0.068"/>
									</g>
								</g>
								<g>
									<g>
										<rect x="34.611" y="102.758" fill="#BF8753" width="8.04" height="0.773"/>
									</g>
									<g>
										<g>
											<circle fill="#625652" cx="35.355" cy="103.145" r="0.068"/>
										</g>
										<g>
											<circle fill="#625652" cx="41.975" cy="103.145" r="0.068"/>
										</g>
									</g>
								</g>
								<g>
									<g>
										<rect x="34.611" y="103.645" fill="#BF8753" width="8.04" height="0.773"/>
									</g>
									<g>
										<g>
											<circle fill="#625652" cx="35.355" cy="104.031" r="0.068"/>
										</g>
										<g>
											<circle fill="#625652" cx="41.975" cy="104.031" r="0.068"/>
										</g>
									</g>
								</g>
							</g>
						</g>
						<g>
							<g>
								<polygon fill="#B5733F" points="42.647,104.537 38.629,104.537 34.61,104.537 34.023,104.695 34.023,104.924 
									38.629,104.924 43.235,104.924 43.235,104.695 								"/>
							</g>
							<g>
								<g>
									<rect x="34.188" y="104.924" fill="#625652" width="0.353" height="1.262"/>
								</g>
								<g>
									<rect x="42.717" y="104.924" fill="#625652" width="0.353" height="1.262"/>
								</g>
							</g>
						</g>
					</g>
					<g>
						<rect x="34.023" y="104.695" fill="#C98855" width="9.212" height="0.229"/>
					</g>
				</g>
				<g opacity="0.2">
					<polygon fill="#FFFFFF" points="42.115,104.537 42.115,104.418 42.651,104.418 42.651,103.645 42.115,103.645 42.115,103.531 
						42.651,103.531 42.651,102.758 42.115,102.758 42.115,102.643 42.646,102.643 42.646,101.869 38.631,101.869 38.631,102.643 
						41.762,102.643 41.762,102.758 38.631,102.758 38.631,103.531 41.762,103.531 41.762,103.645 38.631,103.645 38.631,104.418 
						41.762,104.418 41.762,104.537 38.631,104.537 38.631,104.924 41.762,104.924 41.762,105.832 42.115,105.832 42.115,104.924 
						42.717,104.924 42.717,106.186 43.07,106.186 43.07,104.924 43.235,104.924 43.235,104.695 42.647,104.537 					"/>
				</g>
			</g>
			<g>
				<g>
					<path fill="#B4C351" d="M41.945,107.551c0,0-0.76-0.461-0.299-1.33c0.46-0.869,1.355-0.178,1.355-0.178s0.348-1.869,2.336-1.51
						c1.987,0.357,1.271,3.018,1.271,3.018H41.945z"/>
				</g>
				<g opacity="0.2">
					<path fill="#FFFFFF" d="M45.337,104.533c-0.422-0.076-0.77-0.051-1.055,0.033v2.984h2.327
						C46.608,107.551,47.324,104.891,45.337,104.533z"/>
				</g>
			</g>
		</g>
	</g>
	<g>
		<g>
			<path fill="#E3A341" d="M134.482,140.236v9.043h5.843c0-1.35,1.663-3.209,3.714-3.209c2.052,0,3.715,1.859,3.715,3.209h5.842
				v-9.043H134.482z"/>
		</g>
		<g>
			<rect x="136.012" y="142.469" fill="#FFFFFF" width="2.537" height="1.191"/>
		</g>
		<g>
			<rect x="149.621" y="142.469" fill="#FFFFFF" width="2.535" height="1.191"/>
		</g>
		<g>
			<rect x="136.012" y="143.66" fill="#634B42" width="2.537" height="0.629"/>
		</g>
		<g>
			<rect x="149.621" y="143.66" fill="#634B42" width="2.535" height="0.629"/>
		</g>
		<g>
			<rect x="136.412" y="123.139" fill="#634B42" width="15.254" height="1.707"/>
		</g>
		<g>
			<rect x="133.304" y="139.639" fill="#634B42" width="21.47" height="1.193"/>
		</g>
		<g>
			<rect x="136.412" y="124.213" fill="#E3A341" width="15.254" height="15.426"/>
		</g>
		<g>
			<g>
				<g>
					<rect x="138.03" y="125.541" fill="#FFFFFF" width="1.937" height="1.996"/>
				</g>
				<g>
					<rect x="137.777" y="127.537" fill="#634B42" width="2.441" height="0.547"/>
				</g>
			</g>
			<g>
				<g>
					<rect x="141.391" y="125.541" fill="#FFFFFF" width="1.937" height="1.996"/>
				</g>
				<g>
					<rect x="141.138" y="127.537" fill="#634B42" width="2.442" height="0.547"/>
				</g>
			</g>
			<g>
				<g>
					<rect x="144.752" y="125.541" fill="#FFFFFF" width="1.936" height="1.996"/>
				</g>
				<g>
					<rect x="144.498" y="127.537" fill="#634B42" width="2.443" height="0.547"/>
				</g>
			</g>
			<g>
				<g>
					<rect x="148.112" y="125.541" fill="#FFFFFF" width="1.937" height="1.996"/>
				</g>
				<g>
					<rect x="147.859" y="127.537" fill="#634B42" width="2.441" height="0.547"/>
				</g>
			</g>
			<g>
				<g>
					<rect x="138.03" y="129.064" fill="#FFFFFF" width="1.937" height="1.998"/>
				</g>
				<g>
					<rect x="137.777" y="131.063" fill="#634B42" width="2.441" height="0.545"/>
				</g>
			</g>
			<g>
				<g>
					<rect x="141.391" y="129.064" fill="#FFFFFF" width="1.937" height="1.998"/>
				</g>
				<g>
					<rect x="141.138" y="131.063" fill="#634B42" width="2.442" height="0.545"/>
				</g>
			</g>
			<g>
				<g>
					<rect x="144.752" y="129.064" fill="#FFFFFF" width="1.936" height="1.998"/>
				</g>
				<g>
					<rect x="144.498" y="131.063" fill="#634B42" width="2.443" height="0.545"/>
				</g>
			</g>
			<g>
				<g>
					<rect x="148.112" y="129.064" fill="#FFFFFF" width="1.937" height="1.998"/>
				</g>
				<g>
					<rect x="147.859" y="131.063" fill="#634B42" width="2.441" height="0.545"/>
				</g>
			</g>
			<g>
				<g>
					<rect x="138.03" y="132.59" fill="#FFFFFF" width="1.937" height="1.998"/>
				</g>
				<g>
					<rect x="137.777" y="134.588" fill="#634B42" width="2.441" height="0.545"/>
				</g>
			</g>
			<g>
				<g>
					<rect x="141.391" y="132.59" fill="#FFFFFF" width="1.937" height="1.998"/>
				</g>
				<g>
					<rect x="141.138" y="134.588" fill="#634B42" width="2.442" height="0.545"/>
				</g>
			</g>
			<g>
				<g>
					<rect x="144.752" y="132.59" fill="#FFFFFF" width="1.936" height="1.998"/>
				</g>
				<g>
					<rect x="144.498" y="134.588" fill="#634B42" width="2.443" height="0.545"/>
				</g>
			</g>
			<g>
				<g>
					<rect x="148.112" y="132.59" fill="#FFFFFF" width="1.937" height="1.998"/>
				</g>
				<g>
					<rect x="147.859" y="134.588" fill="#634B42" width="2.441" height="0.545"/>
				</g>
			</g>
			<g>
				<g>
					<rect x="138.03" y="136.115" fill="#FFFFFF" width="1.937" height="1.996"/>
				</g>
				<g>
					<rect x="137.777" y="138.111" fill="#634B42" width="2.441" height="0.547"/>
				</g>
			</g>
			<g>
				<g>
					<rect x="141.391" y="136.115" fill="#FFFFFF" width="1.937" height="1.996"/>
				</g>
				<g>
					<rect x="141.138" y="138.111" fill="#634B42" width="2.442" height="0.547"/>
				</g>
			</g>
			<g>
				<g>
					<rect x="144.752" y="136.115" fill="#FFFFFF" width="1.936" height="1.996"/>
				</g>
				<g>
					<rect x="144.498" y="138.111" fill="#634B42" width="2.443" height="0.547"/>
				</g>
			</g>
			<g>
				<g>
					<rect x="148.112" y="136.115" fill="#FFFFFF" width="1.937" height="1.996"/>
				</g>
				<g>
					<rect x="147.859" y="138.111" fill="#634B42" width="2.441" height="0.547"/>
				</g>
			</g>
		</g>
		<g>
			<path fill="#FFFFFF" d="M140.932,142.264v0.754h0.871v-0.754h0.234v1.799h-0.234v-0.844h-0.871v0.844h-0.232v-1.799H140.932z"/>
			<path fill="#FFFFFF" d="M143.979,143.145c0,0.619-0.375,0.949-0.836,0.949c-0.475,0-0.809-0.369-0.809-0.914
				c0-0.57,0.355-0.945,0.836-0.945C143.662,142.234,143.979,142.611,143.979,143.145z M142.582,143.174
				c0,0.385,0.209,0.729,0.574,0.729c0.369,0,0.577-0.338,0.577-0.746c0-0.357-0.187-0.732-0.574-0.732
				C142.775,142.424,142.582,142.779,142.582,143.174z"/>
			<path fill="#FFFFFF" d="M144.557,142.461h-0.547v-0.197h1.332v0.197h-0.55v1.602h-0.235V142.461z"/>
			<path fill="#FFFFFF" d="M146.475,143.219h-0.699v0.65h0.779v0.193h-1.012v-1.799h0.973v0.195h-0.74v0.568h0.699V143.219z"/>
			<path fill="#FFFFFF" d="M146.857,142.264h0.232v1.605h0.77v0.193h-1.002V142.264z"/>
		</g>
	</g>
</g>
</svg>
