<?xml version="1.0" encoding="utf-8"?>
<!-- Generator: Adobe Illustrator 16.0.0, SVG Export Plug-In . SVG Version: 6.00 Build 0)  -->
<!DOCTYPE svg PUBLIC "-//W3C//DTD SVG 1.1//EN" "http://www.w3.org/Graphics/SVG/1.1/DTD/svg11.dtd">
<svg version="1.1" id="Layer_1" xmlns="http://www.w3.org/2000/svg" xmlns:xlink="http://www.w3.org/1999/xlink" x="0px" y="0px"
	 width="200px" height="200px" viewBox="0 0 200 200" enable-background="new 0 0 200 200" xml:space="preserve">
<g>
	<circle fill="#F0DC74" cx="98.837" cy="55.479" r="53.416"/>
	<g>
		<g>
			<g>
				<path fill="#7A522B" d="M103.726,152.764c0,0.594-0.482,1.078-1.078,1.078h-2.029c-0.596,0-1.078-0.484-1.078-1.078v-2.324
					c0-0.596,0.482-1.078,1.078-1.078h2.029c0.596,0,1.078,0.482,1.078,1.078V152.764z"/>
				<path fill="#7A522B" d="M139.384,152.764c0,0.594-0.482,1.078-1.077,1.078h-2.029c-0.596,0-1.078-0.484-1.078-1.078v-2.324
					c0-0.596,0.482-1.078,1.078-1.078h2.029c0.595,0,1.077,0.482,1.077,1.078V152.764z"/>
			</g>
			<path fill="#B67339" d="M139.327,146.559v-7.606c0-2.215-1.795-4.01-4.01-4.01h-31.711c-2.215,0-4.01,1.795-4.01,4.01v7.606
				H139.327z"/>
			<path fill="#FAEFE4" d="M138.479,146.002c0,1.547-1.254,2.803-2.803,2.803h-32.43c-1.548,0-2.803-1.256-2.803-2.803l0,0
				c0-1.547,1.255-2.803,2.803-2.803h32.43C137.226,143.199,138.479,144.455,138.479,146.002L138.479,146.002z"/>
			<path fill="#F5DEC8" d="M138.479,146.846c0,1.549-1.254,2.803-2.803,2.803h-32.43c-1.548,0-2.803-1.254-2.803-2.803l0,0
				c0-1.547,1.255-2.801,2.803-2.801h32.43C137.226,144.045,138.479,145.299,138.479,146.846L138.479,146.846z"/>
			<rect x="97.487" y="146.314" fill="#966536" width="43.949" height="6.094"/>
			<path opacity="0.1" fill="#FFFFFF" d="M119.462,134.942h-15.855c-2.215,0-4.01,1.795-4.01,4.01v7.362h-2.109v6.094h2.053v0.355
				c0,0.594,0.482,1.078,1.078,1.078h2.029c0.596,0,1.078-0.484,1.078-1.078v-0.355h15.736V134.942z"/>
		</g>
		<g>
			<g>
				<path fill="#FFFFFF" d="M117.013,142.479c0,0.287-0.218,0.52-0.486,0.52h-10.502c-0.27,0-0.487-0.232-0.487-0.52v-4.134
					c0-0.287,0.218-0.52,0.487-0.52h10.502c0.269,0,0.486,0.232,0.486,0.52V142.479z"/>
				<path fill="#FAEFE6" d="M111.275,137.685c-2.474,0-5.462-0.381-5.462-0.381v5.896h5.462h5.462v-5.896
					C116.737,137.304,113.749,137.685,111.275,137.685z"/>
				<path fill="#F5DEC8" d="M110.858,140.632c-1.85,0-3.576-0.223-5.045-0.609v3.177h5.462h5.462v-3.425
					C115.106,140.312,113.069,140.632,110.858,140.632z"/>
			</g>
			<g>
				<path fill="#FFFFFF" d="M133.388,142.479c0,0.287-0.219,0.52-0.487,0.52h-10.503c-0.268,0-0.486-0.232-0.486-0.52v-4.134
					c0-0.287,0.219-0.52,0.486-0.52H132.9c0.269,0,0.487,0.232,0.487,0.52V142.479z"/>
				<path fill="#FAEFE6" d="M127.649,137.685c-2.473,0-5.463-0.381-5.463-0.381v5.896h5.463h5.462v-5.896
					C133.111,137.304,130.122,137.685,127.649,137.685z"/>
				<path fill="#F5DEC8" d="M127.231,140.632c-1.848,0-3.576-0.223-5.045-0.609v3.177h5.463h5.462v-3.425
					C131.481,140.312,129.443,140.632,127.231,140.632z"/>
			</g>
		</g>
	</g>
	<g>
		<rect x="60.208" y="123.118" fill="#575F69" width="79.038" height="2.379"/>
		<rect x="60.208" y="122.319" fill="#7F8C9C" width="79.038" height="0.799"/>
	</g>
	<rect x="73.924" y="23.839" fill="#F3F3E5" width="51.606" height="98.48"/>
	<rect x="73.907" y="118.032" fill="#DDD6AD" width="51.607" height="4.287"/>
	<rect x="73.924" y="27.271" fill="#DDD6AD" width="51.606" height="1.506"/>
	<rect x="73.924" y="116.233" opacity="0.8" fill="#FFFFFF" width="51.606" height="1.799"/>
	<g>
		<g>
			<rect x="92.996" y="110.176" fill="#597C8F" width="13.462" height="12.144"/>
			<rect x="94.108" y="111.33" fill="#C4DBE5" width="11.238" height="10.989"/>
			<rect x="99.274" y="110.588" fill="#597C8F" width="0.906" height="11.731"/>
		</g>
		<g opacity="0.4">
			<g>
				<polygon fill="#FFFFFF" points="99.274,111.774 94.108,118.481 94.108,118.042 99.274,111.336 				"/>
				<polygon fill="#FFFFFF" points="99.274,115.577 94.108,122.319 94.108,121.528 99.274,114.821 				"/>
				<polygon fill="#FFFFFF" points="99.274,114.226 94.108,120.931 94.108,119.444 99.274,112.738 				"/>
			</g>
			<g>
				<polygon fill="#FFFFFF" points="105.347,111.774 100.181,118.481 100.181,118.042 105.347,111.336 				"/>
				<polygon fill="#FFFFFF" points="105.347,115.577 100.181,122.319 100.181,121.528 105.347,114.821 				"/>
				<polygon fill="#FFFFFF" points="105.347,114.226 100.181,120.931 100.181,119.444 105.347,112.738 				"/>
			</g>
		</g>
		<g>
			<path fill="#597C8F" d="M98.54,119.518c0,0.123-0.1,0.223-0.223,0.223l0,0c-0.124,0-0.225-0.1-0.225-0.223v-1.956
				c0-0.123,0.101-0.223,0.225-0.223l0,0c0.123,0,0.223,0.1,0.223,0.223V119.518z"/>
			<path fill="#597C8F" d="M101.36,119.518c0,0.123-0.1,0.223-0.223,0.223l0,0c-0.123,0-0.223-0.1-0.223-0.223v-1.956
				c0-0.123,0.1-0.223,0.223-0.223l0,0c0.123,0,0.223,0.1,0.223,0.223V119.518z"/>
		</g>
	</g>
	<g>
		<g>
			<path fill="#B84C4B" d="M110.231,111.448c-0.988-4.607-5.314-8.076-10.504-8.076s-9.517,3.469-10.504,8.076H110.231z"/>
			<path fill="#CA5B5B" d="M108.364,111.448c-0.811-4.607-4.369-8.076-8.637-8.076s-7.826,3.469-8.639,8.076H108.364z"/>
			<path fill="#B84C4B" d="M105.728,111.448c-0.564-4.607-3.036-8.076-6-8.076c-2.965,0-5.437,3.469-6,8.076H105.728z"/>
			<path fill="#CA5B5B" d="M102.062,111.448c-0.219-4.607-1.182-8.076-2.334-8.076c-1.154,0-2.115,3.469-2.334,8.076H102.062z"/>
		</g>
		<g>
			<path fill="#953D3C" d="M90.536,112.745c0.725,0,1.313-0.58,1.313-1.297h-2.627C89.222,112.165,89.81,112.745,90.536,112.745z"/>
			<path fill="#953D3C" d="M93.161,112.745c0.726,0,1.313-0.58,1.313-1.297h-2.626C91.849,112.165,92.437,112.745,93.161,112.745z"
				/>
			<path fill="#953D3C" d="M95.788,112.745c0.725,0,1.313-0.58,1.313-1.297h-2.626C94.475,112.165,95.063,112.745,95.788,112.745z"
				/>
			<path fill="#953D3C" d="M98.414,112.745c0.726,0,1.313-0.58,1.313-1.297h-2.627C97.101,112.165,97.688,112.745,98.414,112.745z"
				/>
			<path fill="#953D3C" d="M101.04,112.745c0.726,0,1.313-0.58,1.313-1.297h-2.626C99.728,112.165,100.315,112.745,101.04,112.745z"
				/>
			<path fill="#953D3C" d="M103.667,112.745c0.725,0,1.313-0.58,1.313-1.297h-2.626C102.354,112.165,102.94,112.745,103.667,112.745
				z"/>
			<path fill="#953D3C" d="M106.293,112.745c0.726,0,1.313-0.58,1.313-1.297h-2.627
				C104.979,112.165,105.567,112.745,106.293,112.745z"/>
			<path fill="#953D3C" d="M108.919,112.745c0.725,0,1.313-0.58,1.313-1.297h-2.626
				C107.606,112.165,108.194,112.745,108.919,112.745z"/>
		</g>
	</g>
	<g>
		<g>
			<rect x="73.924" y="101.394" opacity="0.6" fill="#DDD6AD" width="51.606" height="0.467"/>
			<rect x="73.924" y="101.86" opacity="0.8" fill="#FFFFFF" width="51.606" height="0.467"/>
		</g>
		<g>
			<rect x="73.924" y="86.89" opacity="0.6" fill="#DDD6AD" width="51.606" height="0.466"/>
			<rect x="73.924" y="87.355" opacity="0.8" fill="#FFFFFF" width="51.606" height="0.466"/>
		</g>
		<g>
			<rect x="73.924" y="72.384" opacity="0.6" fill="#DDD6AD" width="51.606" height="0.467"/>
			<rect x="73.924" y="72.851" opacity="0.8" fill="#FFFFFF" width="51.606" height="0.466"/>
		</g>
		<g>
			<rect x="73.924" y="57.879" opacity="0.6" fill="#DDD6AD" width="51.606" height="0.466"/>
			<rect x="73.924" y="58.345" opacity="0.8" fill="#FFFFFF" width="51.606" height="0.467"/>
		</g>
		<g>
			<rect x="73.924" y="43.373" opacity="0.6" fill="#DDD6AD" width="51.606" height="0.467"/>
			<rect x="73.924" y="43.84" opacity="0.8" fill="#FFFFFF" width="51.606" height="0.466"/>
		</g>
		<g>
			<g>
				<g>
					<rect x="77.116" y="89.974" fill="#597C8F" width="5.706" height="9.104"/>
					<rect x="77.604" y="90.411" fill="#C4DBE5" width="4.73" height="8.228"/>
					<g opacity="0.4">
						<polygon fill="#FFFFFF" points="82.335,92.729 77.604,97.616 77.604,96.581 82.335,91.694 						"/>
						<polygon fill="#FFFFFF" points="82.335,93.774 77.604,98.661 77.604,98.358 82.335,93.472 						"/>
						<polygon fill="#FFFFFF" points="82.335,91.181 77.604,96.067 77.604,95.291 82.335,90.405 						"/>
					</g>
					<rect x="76.479" y="98.639" fill="#416A7E" width="6.979" height="0.71"/>
				</g>
				<g>
					<rect x="86.995" y="89.974" fill="#597C8F" width="5.705" height="9.104"/>
					<rect x="87.483" y="90.411" fill="#C4DBE5" width="4.73" height="8.228"/>
					<g opacity="0.4">
						<polygon fill="#FFFFFF" points="92.214,92.729 87.483,97.616 87.483,96.581 92.214,91.694 						"/>
						<polygon fill="#FFFFFF" points="92.214,93.774 87.483,98.661 87.483,98.358 92.214,93.472 						"/>
						<polygon fill="#FFFFFF" points="92.214,91.181 87.483,96.067 87.483,95.291 92.214,90.405 						"/>
					</g>
					<rect x="86.358" y="98.639" fill="#416A7E" width="6.98" height="0.71"/>
				</g>
				<g>
					<rect x="96.874" y="89.974" fill="#597C8F" width="5.705" height="9.104"/>
					<rect x="97.362" y="90.411" fill="#C4DBE5" width="4.73" height="8.228"/>
					<g opacity="0.4">
						<polygon fill="#FFFFFF" points="102.093,92.729 97.362,97.616 97.362,96.581 102.093,91.694 						"/>
						<polygon fill="#FFFFFF" points="102.093,93.774 97.362,98.661 97.362,98.358 102.093,93.472 						"/>
						<polygon fill="#FFFFFF" points="102.093,91.181 97.362,96.067 97.362,95.291 102.093,90.405 						"/>
					</g>
					<rect x="96.237" y="98.639" fill="#416A7E" width="6.98" height="0.71"/>
				</g>
				<g>
					<rect x="106.753" y="89.974" fill="#597C8F" width="5.705" height="9.104"/>
					<rect x="107.241" y="90.411" fill="#C4DBE5" width="4.73" height="8.228"/>
					<g opacity="0.4">
						<polygon fill="#FFFFFF" points="111.972,92.729 107.241,97.616 107.241,96.581 111.972,91.694 						"/>
						<polygon fill="#FFFFFF" points="111.972,93.774 107.241,98.661 107.241,98.358 111.972,93.472 						"/>
						<polygon fill="#FFFFFF" points="111.972,91.181 107.241,96.067 107.241,95.291 111.972,90.405 						"/>
					</g>
					<rect x="106.116" y="98.639" fill="#416A7E" width="6.98" height="0.71"/>
				</g>
				<g>
					<rect x="116.632" y="89.974" fill="#597C8F" width="5.705" height="9.104"/>
					<rect x="117.119" y="90.411" fill="#C4DBE5" width="4.731" height="8.228"/>
					<g opacity="0.4">
						<polygon fill="#FFFFFF" points="121.851,92.729 117.119,97.616 117.119,96.581 121.851,91.694 						"/>
						<polygon fill="#FFFFFF" points="121.851,93.774 117.119,98.661 117.119,98.358 121.851,93.472 						"/>
						<polygon fill="#FFFFFF" points="121.851,91.181 117.119,96.067 117.119,95.291 121.851,90.405 						"/>
					</g>
					<rect x="115.995" y="98.639" fill="#416A7E" width="6.979" height="0.71"/>
				</g>
			</g>
			<g>
				<g>
					<rect x="77.116" y="75.468" fill="#597C8F" width="5.706" height="9.104"/>
					<rect x="77.604" y="75.905" fill="#C4DBE5" width="4.73" height="8.229"/>
					<g opacity="0.4">
						<polygon fill="#FFFFFF" points="82.335,78.224 77.604,83.11 77.604,82.076 82.335,77.189 						"/>
						<polygon fill="#FFFFFF" points="82.335,79.27 77.604,84.155 77.604,83.853 82.335,78.967 						"/>
						<polygon fill="#FFFFFF" points="82.335,76.675 77.604,81.562 77.604,80.786 82.335,75.9 						"/>
					</g>
					<rect x="76.479" y="84.134" fill="#416A7E" width="6.979" height="0.711"/>
				</g>
				<g>
					<rect x="86.995" y="75.468" fill="#597C8F" width="5.705" height="9.104"/>
					<rect x="87.483" y="75.905" fill="#C4DBE5" width="4.73" height="8.229"/>
					<g opacity="0.4">
						<polygon fill="#FFFFFF" points="92.214,78.224 87.483,83.11 87.483,82.076 92.214,77.189 						"/>
						<polygon fill="#FFFFFF" points="92.214,79.27 87.483,84.155 87.483,83.853 92.214,78.967 						"/>
						<polygon fill="#FFFFFF" points="92.214,76.675 87.483,81.562 87.483,80.786 92.214,75.9 						"/>
					</g>
					<rect x="86.358" y="84.134" fill="#416A7E" width="6.98" height="0.711"/>
				</g>
				<g>
					<rect x="96.874" y="75.468" fill="#597C8F" width="5.705" height="9.104"/>
					<rect x="97.362" y="75.905" fill="#C4DBE5" width="4.73" height="8.229"/>
					<g opacity="0.4">
						<polygon fill="#FFFFFF" points="102.093,78.224 97.362,83.11 97.362,82.076 102.093,77.189 						"/>
						<polygon fill="#FFFFFF" points="102.093,79.27 97.362,84.155 97.362,83.853 102.093,78.967 						"/>
						<polygon fill="#FFFFFF" points="102.093,76.675 97.362,81.562 97.362,80.786 102.093,75.9 						"/>
					</g>
					<rect x="96.237" y="84.134" fill="#416A7E" width="6.98" height="0.711"/>
				</g>
				<g>
					<rect x="106.753" y="75.468" fill="#597C8F" width="5.705" height="9.104"/>
					<rect x="107.241" y="75.905" fill="#C4DBE5" width="4.73" height="8.229"/>
					<g opacity="0.4">
						<polygon fill="#FFFFFF" points="111.972,78.224 107.241,83.11 107.241,82.076 111.972,77.189 						"/>
						<polygon fill="#FFFFFF" points="111.972,79.27 107.241,84.155 107.241,83.853 111.972,78.967 						"/>
						<polygon fill="#FFFFFF" points="111.972,76.675 107.241,81.562 107.241,80.786 111.972,75.9 						"/>
					</g>
					<rect x="106.116" y="84.134" fill="#416A7E" width="6.98" height="0.711"/>
				</g>
				<g>
					<rect x="116.632" y="75.468" fill="#597C8F" width="5.705" height="9.104"/>
					<rect x="117.119" y="75.905" fill="#C4DBE5" width="4.731" height="8.229"/>
					<g opacity="0.4">
						<polygon fill="#FFFFFF" points="121.851,78.224 117.119,83.11 117.119,82.076 121.851,77.189 						"/>
						<polygon fill="#FFFFFF" points="121.851,79.27 117.119,84.155 117.119,83.853 121.851,78.967 						"/>
						<polygon fill="#FFFFFF" points="121.851,76.675 117.119,81.562 117.119,80.786 121.851,75.9 						"/>
					</g>
					<rect x="115.995" y="84.134" fill="#416A7E" width="6.979" height="0.711"/>
				</g>
			</g>
			<g>
				<g>
					<rect x="77.116" y="60.962" fill="#597C8F" width="5.706" height="9.104"/>
					<rect x="77.604" y="61.399" fill="#C4DBE5" width="4.73" height="8.229"/>
					<g opacity="0.4">
						<polygon fill="#FFFFFF" points="82.335,63.719 77.604,68.604 77.604,67.57 82.335,62.685 						"/>
						<polygon fill="#FFFFFF" points="82.335,64.765 77.604,69.65 77.604,69.348 82.335,64.462 						"/>
						<polygon fill="#FFFFFF" points="82.335,62.171 77.604,67.056 77.604,66.28 82.335,61.395 						"/>
					</g>
					<rect x="76.479" y="69.628" fill="#416A7E" width="6.979" height="0.711"/>
				</g>
				<g>
					<rect x="86.995" y="60.962" fill="#597C8F" width="5.705" height="9.104"/>
					<rect x="87.483" y="61.399" fill="#C4DBE5" width="4.73" height="8.229"/>
					<g opacity="0.4">
						<polygon fill="#FFFFFF" points="92.214,63.719 87.483,68.604 87.483,67.57 92.214,62.685 						"/>
						<polygon fill="#FFFFFF" points="92.214,64.765 87.483,69.65 87.483,69.348 92.214,64.462 						"/>
						<polygon fill="#FFFFFF" points="92.214,62.171 87.483,67.056 87.483,66.28 92.214,61.395 						"/>
					</g>
					<rect x="86.358" y="69.628" fill="#416A7E" width="6.98" height="0.711"/>
				</g>
				<g>
					<rect x="96.874" y="60.962" fill="#597C8F" width="5.705" height="9.104"/>
					<rect x="97.362" y="61.399" fill="#C4DBE5" width="4.73" height="8.229"/>
					<g opacity="0.4">
						<polygon fill="#FFFFFF" points="102.093,63.719 97.362,68.604 97.362,67.57 102.093,62.685 						"/>
						<polygon fill="#FFFFFF" points="102.093,64.765 97.362,69.65 97.362,69.348 102.093,64.462 						"/>
						<polygon fill="#FFFFFF" points="102.093,62.171 97.362,67.056 97.362,66.28 102.093,61.395 						"/>
					</g>
					<rect x="96.237" y="69.628" fill="#416A7E" width="6.98" height="0.711"/>
				</g>
				<g>
					<rect x="106.753" y="60.962" fill="#597C8F" width="5.705" height="9.104"/>
					<rect x="107.241" y="61.399" fill="#C4DBE5" width="4.73" height="8.229"/>
					<g opacity="0.4">
						<polygon fill="#FFFFFF" points="111.972,63.719 107.241,68.604 107.241,67.57 111.972,62.685 						"/>
						<polygon fill="#FFFFFF" points="111.972,64.765 107.241,69.65 107.241,69.348 111.972,64.462 						"/>
						<polygon fill="#FFFFFF" points="111.972,62.171 107.241,67.056 107.241,66.28 111.972,61.395 						"/>
					</g>
					<rect x="106.116" y="69.628" fill="#416A7E" width="6.98" height="0.711"/>
				</g>
				<g>
					<rect x="116.632" y="60.962" fill="#597C8F" width="5.705" height="9.104"/>
					<rect x="117.119" y="61.399" fill="#C4DBE5" width="4.731" height="8.229"/>
					<g opacity="0.4">
						<polygon fill="#FFFFFF" points="121.851,63.719 117.119,68.604 117.119,67.57 121.851,62.685 						"/>
						<polygon fill="#FFFFFF" points="121.851,64.765 117.119,69.65 117.119,69.348 121.851,64.462 						"/>
						<polygon fill="#FFFFFF" points="121.851,62.171 117.119,67.056 117.119,66.28 121.851,61.395 						"/>
					</g>
					<rect x="115.995" y="69.628" fill="#416A7E" width="6.979" height="0.711"/>
				</g>
			</g>
			<g>
				<g>
					<rect x="77.116" y="46.457" fill="#597C8F" width="5.706" height="9.104"/>
					<rect x="77.604" y="46.896" fill="#C4DBE5" width="4.73" height="8.228"/>
					<g opacity="0.4">
						<polygon fill="#FFFFFF" points="82.335,49.214 77.604,54.1 77.604,53.065 82.335,48.179 						"/>
						<polygon fill="#FFFFFF" points="82.335,50.259 77.604,55.146 77.604,54.843 82.335,49.956 						"/>
						<polygon fill="#FFFFFF" points="82.335,47.665 77.604,52.552 77.604,51.776 82.335,46.89 						"/>
					</g>
					<rect x="76.479" y="55.123" fill="#416A7E" width="6.979" height="0.71"/>
				</g>
				<g>
					<rect x="86.995" y="46.457" fill="#597C8F" width="5.705" height="9.104"/>
					<rect x="87.483" y="46.896" fill="#C4DBE5" width="4.73" height="8.228"/>
					<g opacity="0.4">
						<polygon fill="#FFFFFF" points="92.214,49.214 87.483,54.1 87.483,53.065 92.214,48.179 						"/>
						<polygon fill="#FFFFFF" points="92.214,50.259 87.483,55.146 87.483,54.843 92.214,49.956 						"/>
						<polygon fill="#FFFFFF" points="92.214,47.665 87.483,52.552 87.483,51.776 92.214,46.89 						"/>
					</g>
					<rect x="86.358" y="55.123" fill="#416A7E" width="6.98" height="0.71"/>
				</g>
				<g>
					<rect x="96.874" y="46.457" fill="#597C8F" width="5.705" height="9.104"/>
					<rect x="97.362" y="46.896" fill="#C4DBE5" width="4.73" height="8.228"/>
					<g opacity="0.4">
						<polygon fill="#FFFFFF" points="102.093,49.214 97.362,54.1 97.362,53.065 102.093,48.179 						"/>
						<polygon fill="#FFFFFF" points="102.093,50.259 97.362,55.146 97.362,54.843 102.093,49.956 						"/>
						<polygon fill="#FFFFFF" points="102.093,47.665 97.362,52.552 97.362,51.776 102.093,46.89 						"/>
					</g>
					<rect x="96.237" y="55.123" fill="#416A7E" width="6.98" height="0.71"/>
				</g>
				<g>
					<rect x="106.753" y="46.457" fill="#597C8F" width="5.705" height="9.104"/>
					<rect x="107.241" y="46.896" fill="#C4DBE5" width="4.73" height="8.228"/>
					<g opacity="0.4">
						<polygon fill="#FFFFFF" points="111.972,49.214 107.241,54.1 107.241,53.065 111.972,48.179 						"/>
						<polygon fill="#FFFFFF" points="111.972,50.259 107.241,55.146 107.241,54.843 111.972,49.956 						"/>
						<polygon fill="#FFFFFF" points="111.972,47.665 107.241,52.552 107.241,51.776 111.972,46.89 						"/>
					</g>
					<rect x="106.116" y="55.123" fill="#416A7E" width="6.98" height="0.71"/>
				</g>
				<g>
					<rect x="116.632" y="46.457" fill="#597C8F" width="5.705" height="9.104"/>
					<rect x="117.119" y="46.896" fill="#C4DBE5" width="4.731" height="8.228"/>
					<g opacity="0.4">
						<polygon fill="#FFFFFF" points="121.851,49.214 117.119,54.1 117.119,53.065 121.851,48.179 						"/>
						<polygon fill="#FFFFFF" points="121.851,50.259 117.119,55.146 117.119,54.843 121.851,49.956 						"/>
						<polygon fill="#FFFFFF" points="121.851,47.665 117.119,52.552 117.119,51.776 121.851,46.89 						"/>
					</g>
					<rect x="115.995" y="55.123" fill="#416A7E" width="6.979" height="0.71"/>
				</g>
			</g>
			<g>
				<g>
					<rect x="77.116" y="31.952" fill="#597C8F" width="5.706" height="9.104"/>
					<rect x="77.604" y="32.39" fill="#C4DBE5" width="4.73" height="8.229"/>
					<g opacity="0.4">
						<polygon fill="#FFFFFF" points="82.335,34.708 77.604,39.595 77.604,38.56 82.335,33.673 						"/>
						<polygon fill="#FFFFFF" points="82.335,35.754 77.604,40.64 77.604,40.337 82.335,35.451 						"/>
						<polygon fill="#FFFFFF" points="82.335,33.159 77.604,38.046 77.604,37.271 82.335,32.384 						"/>
					</g>
					<rect x="76.479" y="40.618" fill="#416A7E" width="6.979" height="0.711"/>
				</g>
				<g>
					<rect x="86.995" y="31.952" fill="#597C8F" width="5.705" height="9.104"/>
					<rect x="87.483" y="32.39" fill="#C4DBE5" width="4.73" height="8.229"/>
					<g opacity="0.4">
						<polygon fill="#FFFFFF" points="92.214,34.708 87.483,39.595 87.483,38.56 92.214,33.673 						"/>
						<polygon fill="#FFFFFF" points="92.214,35.754 87.483,40.64 87.483,40.337 92.214,35.451 						"/>
						<polygon fill="#FFFFFF" points="92.214,33.159 87.483,38.046 87.483,37.271 92.214,32.384 						"/>
					</g>
					<rect x="86.358" y="40.618" fill="#416A7E" width="6.98" height="0.711"/>
				</g>
				<g>
					<rect x="96.874" y="31.952" fill="#597C8F" width="5.705" height="9.104"/>
					<rect x="97.362" y="32.39" fill="#C4DBE5" width="4.73" height="8.229"/>
					<g opacity="0.4">
						<polygon fill="#FFFFFF" points="102.093,34.708 97.362,39.595 97.362,38.56 102.093,33.673 						"/>
						<polygon fill="#FFFFFF" points="102.093,35.754 97.362,40.64 97.362,40.337 102.093,35.451 						"/>
						<polygon fill="#FFFFFF" points="102.093,33.159 97.362,38.046 97.362,37.271 102.093,32.384 						"/>
					</g>
					<rect x="96.237" y="40.618" fill="#416A7E" width="6.98" height="0.711"/>
				</g>
				<g>
					<rect x="106.753" y="31.952" fill="#597C8F" width="5.705" height="9.104"/>
					<rect x="107.241" y="32.39" fill="#C4DBE5" width="4.73" height="8.229"/>
					<g opacity="0.4">
						<polygon fill="#FFFFFF" points="111.972,34.708 107.241,39.595 107.241,38.56 111.972,33.673 						"/>
						<polygon fill="#FFFFFF" points="111.972,35.754 107.241,40.64 107.241,40.337 111.972,35.451 						"/>
						<polygon fill="#FFFFFF" points="111.972,33.159 107.241,38.046 107.241,37.271 111.972,32.384 						"/>
					</g>
					<rect x="106.116" y="40.618" fill="#416A7E" width="6.98" height="0.711"/>
				</g>
				<g>
					<rect x="116.632" y="31.952" fill="#597C8F" width="5.705" height="9.104"/>
					<rect x="117.119" y="32.39" fill="#C4DBE5" width="4.731" height="8.229"/>
					<g opacity="0.4">
						<polygon fill="#FFFFFF" points="121.851,34.708 117.119,39.595 117.119,38.56 121.851,33.673 						"/>
						<polygon fill="#FFFFFF" points="121.851,35.754 117.119,40.64 117.119,40.337 121.851,35.451 						"/>
						<polygon fill="#FFFFFF" points="121.851,33.159 117.119,38.046 117.119,37.271 121.851,32.384 						"/>
					</g>
					<rect x="115.995" y="40.618" fill="#416A7E" width="6.979" height="0.711"/>
				</g>
			</g>
		</g>
	</g>
	<g>
		<g>
			<g>
				<rect x="76.603" y="103.738" fill="#597C8F" width="4.053" height="7.928"/>
				<rect x="76.948" y="104.12" fill="#C4DBE5" width="3.36" height="7.164"/>
				<g opacity="0.4">
					<polygon fill="#FFFFFF" points="80.309,106.14 76.948,110.394 76.948,109.492 80.309,105.237 					"/>
					<polygon fill="#FFFFFF" points="80.309,107.049 76.948,111.304 76.948,111.04 80.309,106.785 					"/>
					<polygon fill="#FFFFFF" points="80.309,104.79 76.948,109.046 76.948,108.37 80.309,104.115 					"/>
				</g>
			</g>
			<g>
				<rect x="84.015" y="103.738" fill="#597C8F" width="4.053" height="7.928"/>
				<rect x="84.36" y="104.12" fill="#C4DBE5" width="3.361" height="7.164"/>
				<g opacity="0.4">
					<polygon fill="#FFFFFF" points="87.722,106.14 84.36,110.394 84.36,109.492 87.722,105.237 					"/>
					<polygon fill="#FFFFFF" points="87.722,107.049 84.36,111.304 84.36,111.04 87.722,106.785 					"/>
					<polygon fill="#FFFFFF" points="87.722,104.79 84.36,109.046 84.36,108.37 87.722,104.115 					"/>
				</g>
			</g>
			<g>
				<rect x="80.309" y="103.738" fill="#597C8F" width="4.052" height="7.928"/>
				<rect x="80.655" y="104.12" fill="#C4DBE5" width="3.359" height="7.164"/>
				<g opacity="0.4">
					<polygon fill="#FFFFFF" points="84.015,106.14 80.655,110.394 80.655,109.492 84.015,105.237 					"/>
					<polygon fill="#FFFFFF" points="84.015,107.049 80.655,111.304 80.655,111.04 84.015,106.785 					"/>
					<polygon fill="#FFFFFF" points="84.015,104.79 80.655,109.046 80.655,108.37 84.015,104.115 					"/>
				</g>
			</g>
		</g>
		<g>
			<g>
				<rect x="111.387" y="103.738" fill="#597C8F" width="4.052" height="7.928"/>
				<rect x="111.733" y="104.12" fill="#C4DBE5" width="3.36" height="7.164"/>
				<g opacity="0.4">
					<polygon fill="#FFFFFF" points="115.094,106.14 111.733,110.394 111.733,109.492 115.094,105.237 					"/>
					<polygon fill="#FFFFFF" points="115.094,107.049 111.733,111.304 111.733,111.04 115.094,106.785 					"/>
					<polygon fill="#FFFFFF" points="115.094,104.79 111.733,109.046 111.733,108.37 115.094,104.115 					"/>
				</g>
			</g>
			<g>
				<rect x="118.8" y="103.738" fill="#597C8F" width="4.052" height="7.928"/>
				<rect x="119.146" y="104.12" fill="#C4DBE5" width="3.36" height="7.164"/>
				<g opacity="0.4">
					<polygon fill="#FFFFFF" points="122.506,106.14 119.146,110.394 119.146,109.492 122.506,105.237 					"/>
					<polygon fill="#FFFFFF" points="122.506,107.049 119.146,111.304 119.146,111.04 122.506,106.785 					"/>
					<polygon fill="#FFFFFF" points="122.506,104.79 119.146,109.046 119.146,108.37 122.506,104.115 					"/>
				</g>
			</g>
			<g>
				<rect x="115.094" y="103.738" fill="#597C8F" width="4.052" height="7.928"/>
				<rect x="115.438" y="104.12" fill="#C4DBE5" width="3.361" height="7.164"/>
				<g opacity="0.4">
					<polygon fill="#FFFFFF" points="118.8,106.14 115.438,110.394 115.438,109.492 118.8,105.237 					"/>
					<polygon fill="#FFFFFF" points="118.8,107.049 115.438,111.304 115.438,111.04 118.8,106.785 					"/>
					<polygon fill="#FFFFFF" points="118.8,104.79 115.438,109.046 115.438,108.37 118.8,104.115 					"/>
				</g>
			</g>
		</g>
	</g>
	<rect x="72.55" y="23.398" fill="#416A7E" width="54.354" height="3.872"/>
	<rect x="72.55" y="23.398" fill="#5E8599" width="54.354" height="1.937"/>
	<g>
		<rect x="73.924" y="23.839" fill="#F3F3E5" width="51.606" height="98.48"/>
		<rect x="99.728" y="23.839" fill="#E3E2D5" width="25.803" height="98.48"/>
	</g>
	<rect x="73.907" y="118.032" fill="#DDD6AD" width="51.607" height="4.287"/>
	<rect x="73.924" y="27.271" fill="#DDD6AD" width="51.606" height="1.506"/>
	<rect x="73.924" y="116.233" opacity="0.8" fill="#FFFFFF" width="51.606" height="1.799"/>
	<g>
		<rect x="92.996" y="110.206" fill="#597C8F" width="13.462" height="12.113"/>
		<rect x="94.108" y="111.36" fill="#C4DBE5" width="11.238" height="10.959"/>
		<rect x="99.274" y="110.618" fill="#597C8F" width="0.906" height="11.701"/>
	</g>
	<g opacity="0.4">
		<g>
			<polygon fill="#FFFFFF" points="99.274,111.774 94.108,118.481 94.108,118.042 99.274,111.336 			"/>
			<polygon fill="#FFFFFF" points="99.274,115.577 94.108,122.319 94.108,121.528 99.274,114.821 			"/>
			<polygon fill="#FFFFFF" points="99.274,114.226 94.108,120.931 94.108,119.444 99.274,112.738 			"/>
		</g>
		<g>
			<polygon fill="#FFFFFF" points="105.347,111.774 100.181,118.481 100.181,118.042 105.347,111.336 			"/>
			<polygon fill="#FFFFFF" points="105.347,115.577 100.181,122.319 100.181,121.528 105.347,114.821 			"/>
			<polygon fill="#FFFFFF" points="105.347,114.226 100.181,120.931 100.181,119.444 105.347,112.738 			"/>
		</g>
	</g>
	<g>
		<path fill="#597C8F" d="M98.522,119.518c0,0.123-0.1,0.223-0.223,0.223l0,0c-0.123,0-0.223-0.1-0.223-0.223v-1.956
			c0-0.123,0.1-0.223,0.223-0.223l0,0c0.123,0,0.223,0.1,0.223,0.223V119.518z"/>
		<path fill="#597C8F" d="M101.345,119.518c0,0.123-0.101,0.223-0.225,0.223l0,0c-0.123,0-0.223-0.1-0.223-0.223v-1.956
			c0-0.123,0.1-0.223,0.223-0.223l0,0c0.124,0,0.225,0.1,0.225,0.223V119.518z"/>
	</g>
	<g>
		<rect x="73.924" y="101.394" opacity="0.6" fill="#B6B08E" width="51.606" height="0.467"/>
		<rect x="73.924" y="101.86" opacity="0.8" fill="#FFFFFF" width="51.606" height="0.467"/>
	</g>
	<g>
		<rect x="73.924" y="86.89" opacity="0.6" fill="#B6B08E" width="51.606" height="0.466"/>
		<rect x="73.924" y="87.355" opacity="0.8" fill="#FFFFFF" width="51.606" height="0.466"/>
	</g>
	<g>
		<rect x="73.924" y="72.384" opacity="0.6" fill="#B6B08E" width="51.606" height="0.467"/>
		<rect x="73.924" y="72.851" opacity="0.8" fill="#FFFFFF" width="51.606" height="0.466"/>
	</g>
	<g>
		<rect x="73.924" y="57.879" opacity="0.6" fill="#B6B08E" width="51.606" height="0.466"/>
		<rect x="73.924" y="58.345" opacity="0.8" fill="#FFFFFF" width="51.606" height="0.467"/>
	</g>
	<g>
		<rect x="73.924" y="43.373" opacity="0.6" fill="#B6B08E" width="51.606" height="0.467"/>
		<rect x="73.924" y="43.84" opacity="0.8" fill="#FFFFFF" width="51.606" height="0.466"/>
	</g>
	<g>
		<g>
			<g>
				<rect x="77.116" y="89.974" fill="#597C8F" width="5.706" height="9.104"/>
				<rect x="77.604" y="90.411" fill="#C4DBE5" width="4.73" height="8.228"/>
				<g opacity="0.4">
					<polygon fill="#FFFFFF" points="82.335,92.729 77.604,97.616 77.604,96.581 82.335,91.694 					"/>
					<polygon fill="#FFFFFF" points="82.335,93.774 77.604,98.661 77.604,98.358 82.335,93.472 					"/>
					<polygon fill="#FFFFFF" points="82.335,91.181 77.604,96.067 77.604,95.291 82.335,90.405 					"/>
				</g>
				<rect x="76.479" y="98.639" fill="#416A7E" width="6.979" height="0.71"/>
			</g>
			<g>
				<rect x="86.995" y="89.974" fill="#597C8F" width="5.705" height="9.104"/>
				<rect x="87.483" y="90.411" fill="#C4DBE5" width="4.73" height="8.228"/>
				<g opacity="0.4">
					<polygon fill="#FFFFFF" points="92.214,92.729 87.483,97.616 87.483,96.581 92.214,91.694 					"/>
					<polygon fill="#FFFFFF" points="92.214,93.774 87.483,98.661 87.483,98.358 92.214,93.472 					"/>
					<polygon fill="#FFFFFF" points="92.214,91.181 87.483,96.067 87.483,95.291 92.214,90.405 					"/>
				</g>
				<rect x="86.358" y="98.639" fill="#416A7E" width="6.98" height="0.71"/>
			</g>
			<g>
				<rect x="96.874" y="89.974" fill="#597C8F" width="5.705" height="9.104"/>
				<rect x="97.362" y="90.411" fill="#C4DBE5" width="4.73" height="8.228"/>
				<g opacity="0.4">
					<polygon fill="#FFFFFF" points="102.093,92.729 97.362,97.616 97.362,96.581 102.093,91.694 					"/>
					<polygon fill="#FFFFFF" points="102.093,93.774 97.362,98.661 97.362,98.358 102.093,93.472 					"/>
					<polygon fill="#FFFFFF" points="102.093,91.181 97.362,96.067 97.362,95.291 102.093,90.405 					"/>
				</g>
				<rect x="96.237" y="98.639" fill="#416A7E" width="6.98" height="0.71"/>
			</g>
			<g>
				<rect x="106.753" y="89.974" fill="#597C8F" width="5.705" height="9.104"/>
				<rect x="107.241" y="90.411" fill="#C4DBE5" width="4.73" height="8.228"/>
				<g opacity="0.4">
					<polygon fill="#FFFFFF" points="111.972,92.729 107.241,97.616 107.241,96.581 111.972,91.694 					"/>
					<polygon fill="#FFFFFF" points="111.972,93.774 107.241,98.661 107.241,98.358 111.972,93.472 					"/>
					<polygon fill="#FFFFFF" points="111.972,91.181 107.241,96.067 107.241,95.291 111.972,90.405 					"/>
				</g>
				<rect x="106.116" y="98.639" fill="#416A7E" width="6.98" height="0.71"/>
			</g>
			<g>
				<rect x="116.632" y="89.974" fill="#597C8F" width="5.705" height="9.104"/>
				<rect x="117.119" y="90.411" fill="#C4DBE5" width="4.731" height="8.228"/>
				<g opacity="0.4">
					<polygon fill="#FFFFFF" points="121.851,92.729 117.119,97.616 117.119,96.581 121.851,91.694 					"/>
					<polygon fill="#FFFFFF" points="121.851,93.774 117.119,98.661 117.119,98.358 121.851,93.472 					"/>
					<polygon fill="#FFFFFF" points="121.851,91.181 117.119,96.067 117.119,95.291 121.851,90.405 					"/>
				</g>
				<rect x="115.995" y="98.639" fill="#416A7E" width="6.979" height="0.71"/>
			</g>
		</g>
		<g>
			<g>
				<rect x="77.116" y="75.468" fill="#597C8F" width="5.706" height="9.104"/>
				<rect x="77.604" y="75.905" fill="#C4DBE5" width="4.73" height="8.229"/>
				<g opacity="0.4">
					<polygon fill="#FFFFFF" points="82.335,78.224 77.604,83.11 77.604,82.076 82.335,77.189 					"/>
					<polygon fill="#FFFFFF" points="82.335,79.27 77.604,84.155 77.604,83.853 82.335,78.967 					"/>
					<polygon fill="#FFFFFF" points="82.335,76.675 77.604,81.562 77.604,80.786 82.335,75.9 					"/>
				</g>
				<rect x="76.479" y="84.134" fill="#416A7E" width="6.979" height="0.711"/>
			</g>
			<g>
				<rect x="86.995" y="75.468" fill="#597C8F" width="5.705" height="9.104"/>
				<rect x="87.483" y="75.905" fill="#C4DBE5" width="4.73" height="8.229"/>
				<g opacity="0.4">
					<polygon fill="#FFFFFF" points="92.214,78.224 87.483,83.11 87.483,82.076 92.214,77.189 					"/>
					<polygon fill="#FFFFFF" points="92.214,79.27 87.483,84.155 87.483,83.853 92.214,78.967 					"/>
					<polygon fill="#FFFFFF" points="92.214,76.675 87.483,81.562 87.483,80.786 92.214,75.9 					"/>
				</g>
				<rect x="86.358" y="84.134" fill="#416A7E" width="6.98" height="0.711"/>
			</g>
			<g>
				<rect x="96.874" y="75.468" fill="#597C8F" width="5.705" height="9.104"/>
				<rect x="97.362" y="75.905" fill="#C4DBE5" width="4.73" height="8.229"/>
				<g opacity="0.4">
					<polygon fill="#FFFFFF" points="102.093,78.224 97.362,83.11 97.362,82.076 102.093,77.189 					"/>
					<polygon fill="#FFFFFF" points="102.093,79.27 97.362,84.155 97.362,83.853 102.093,78.967 					"/>
					<polygon fill="#FFFFFF" points="102.093,76.675 97.362,81.562 97.362,80.786 102.093,75.9 					"/>
				</g>
				<rect x="96.237" y="84.134" fill="#416A7E" width="6.98" height="0.711"/>
			</g>
			<g>
				<rect x="106.753" y="75.468" fill="#597C8F" width="5.705" height="9.104"/>
				<rect x="107.241" y="75.905" fill="#C4DBE5" width="4.73" height="8.229"/>
				<g opacity="0.4">
					<polygon fill="#FFFFFF" points="111.972,78.224 107.241,83.11 107.241,82.076 111.972,77.189 					"/>
					<polygon fill="#FFFFFF" points="111.972,79.27 107.241,84.155 107.241,83.853 111.972,78.967 					"/>
					<polygon fill="#FFFFFF" points="111.972,76.675 107.241,81.562 107.241,80.786 111.972,75.9 					"/>
				</g>
				<rect x="106.116" y="84.134" fill="#416A7E" width="6.98" height="0.711"/>
			</g>
			<g>
				<rect x="116.632" y="75.468" fill="#597C8F" width="5.705" height="9.104"/>
				<rect x="117.119" y="75.905" fill="#C4DBE5" width="4.731" height="8.229"/>
				<g opacity="0.4">
					<polygon fill="#FFFFFF" points="121.851,78.224 117.119,83.11 117.119,82.076 121.851,77.189 					"/>
					<polygon fill="#FFFFFF" points="121.851,79.27 117.119,84.155 117.119,83.853 121.851,78.967 					"/>
					<polygon fill="#FFFFFF" points="121.851,76.675 117.119,81.562 117.119,80.786 121.851,75.9 					"/>
				</g>
				<rect x="115.995" y="84.134" fill="#416A7E" width="6.979" height="0.711"/>
			</g>
		</g>
		<g>
			<g>
				<rect x="77.116" y="60.962" fill="#597C8F" width="5.706" height="9.104"/>
				<rect x="77.604" y="61.399" fill="#C4DBE5" width="4.73" height="8.229"/>
				<g opacity="0.4">
					<polygon fill="#FFFFFF" points="82.335,63.719 77.604,68.604 77.604,67.57 82.335,62.685 					"/>
					<polygon fill="#FFFFFF" points="82.335,64.765 77.604,69.65 77.604,69.348 82.335,64.462 					"/>
					<polygon fill="#FFFFFF" points="82.335,62.171 77.604,67.056 77.604,66.28 82.335,61.395 					"/>
				</g>
				<rect x="76.479" y="69.628" fill="#416A7E" width="6.979" height="0.711"/>
			</g>
			<g>
				<rect x="86.995" y="60.962" fill="#597C8F" width="5.705" height="9.104"/>
				<rect x="87.483" y="61.399" fill="#C4DBE5" width="4.73" height="8.229"/>
				<g opacity="0.4">
					<polygon fill="#FFFFFF" points="92.214,63.719 87.483,68.604 87.483,67.57 92.214,62.685 					"/>
					<polygon fill="#FFFFFF" points="92.214,64.765 87.483,69.65 87.483,69.348 92.214,64.462 					"/>
					<polygon fill="#FFFFFF" points="92.214,62.171 87.483,67.056 87.483,66.28 92.214,61.395 					"/>
				</g>
				<rect x="86.358" y="69.628" fill="#416A7E" width="6.98" height="0.711"/>
			</g>
			<g>
				<rect x="96.874" y="60.962" fill="#597C8F" width="5.705" height="9.104"/>
				<rect x="97.362" y="61.399" fill="#C4DBE5" width="4.73" height="8.229"/>
				<g opacity="0.4">
					<polygon fill="#FFFFFF" points="102.093,63.719 97.362,68.604 97.362,67.57 102.093,62.685 					"/>
					<polygon fill="#FFFFFF" points="102.093,64.765 97.362,69.65 97.362,69.348 102.093,64.462 					"/>
					<polygon fill="#FFFFFF" points="102.093,62.171 97.362,67.056 97.362,66.28 102.093,61.395 					"/>
				</g>
				<rect x="96.237" y="69.628" fill="#416A7E" width="6.98" height="0.711"/>
			</g>
			<g>
				<rect x="106.753" y="60.962" fill="#597C8F" width="5.705" height="9.104"/>
				<rect x="107.241" y="61.399" fill="#C4DBE5" width="4.73" height="8.229"/>
				<g opacity="0.4">
					<polygon fill="#FFFFFF" points="111.972,63.719 107.241,68.604 107.241,67.57 111.972,62.685 					"/>
					<polygon fill="#FFFFFF" points="111.972,64.765 107.241,69.65 107.241,69.348 111.972,64.462 					"/>
					<polygon fill="#FFFFFF" points="111.972,62.171 107.241,67.056 107.241,66.28 111.972,61.395 					"/>
				</g>
				<rect x="106.116" y="69.628" fill="#416A7E" width="6.98" height="0.711"/>
			</g>
			<g>
				<rect x="116.632" y="60.962" fill="#597C8F" width="5.705" height="9.104"/>
				<rect x="117.119" y="61.399" fill="#C4DBE5" width="4.731" height="8.229"/>
				<g opacity="0.4">
					<polygon fill="#FFFFFF" points="121.851,63.719 117.119,68.604 117.119,67.57 121.851,62.685 					"/>
					<polygon fill="#FFFFFF" points="121.851,64.765 117.119,69.65 117.119,69.348 121.851,64.462 					"/>
					<polygon fill="#FFFFFF" points="121.851,62.171 117.119,67.056 117.119,66.28 121.851,61.395 					"/>
				</g>
				<rect x="115.995" y="69.628" fill="#416A7E" width="6.979" height="0.711"/>
			</g>
		</g>
		<g>
			<g>
				<rect x="77.116" y="46.457" fill="#597C8F" width="5.706" height="9.104"/>
				<rect x="77.604" y="46.896" fill="#C4DBE5" width="4.73" height="8.228"/>
				<g opacity="0.4">
					<polygon fill="#FFFFFF" points="82.335,49.214 77.604,54.1 77.604,53.065 82.335,48.179 					"/>
					<polygon fill="#FFFFFF" points="82.335,50.259 77.604,55.146 77.604,54.843 82.335,49.956 					"/>
					<polygon fill="#FFFFFF" points="82.335,47.665 77.604,52.552 77.604,51.776 82.335,46.89 					"/>
				</g>
				<rect x="76.479" y="55.123" fill="#416A7E" width="6.979" height="0.71"/>
			</g>
			<g>
				<rect x="86.995" y="46.457" fill="#597C8F" width="5.705" height="9.104"/>
				<rect x="87.483" y="46.896" fill="#C4DBE5" width="4.73" height="8.228"/>
				<g opacity="0.4">
					<polygon fill="#FFFFFF" points="92.214,49.214 87.483,54.1 87.483,53.065 92.214,48.179 					"/>
					<polygon fill="#FFFFFF" points="92.214,50.259 87.483,55.146 87.483,54.843 92.214,49.956 					"/>
					<polygon fill="#FFFFFF" points="92.214,47.665 87.483,52.552 87.483,51.776 92.214,46.89 					"/>
				</g>
				<rect x="86.358" y="55.123" fill="#416A7E" width="6.98" height="0.71"/>
			</g>
			<g>
				<rect x="96.874" y="46.457" fill="#597C8F" width="5.705" height="9.104"/>
				<rect x="97.362" y="46.896" fill="#C4DBE5" width="4.73" height="8.228"/>
				<g opacity="0.4">
					<polygon fill="#FFFFFF" points="102.093,49.214 97.362,54.1 97.362,53.065 102.093,48.179 					"/>
					<polygon fill="#FFFFFF" points="102.093,50.259 97.362,55.146 97.362,54.843 102.093,49.956 					"/>
					<polygon fill="#FFFFFF" points="102.093,47.665 97.362,52.552 97.362,51.776 102.093,46.89 					"/>
				</g>
				<rect x="96.237" y="55.123" fill="#416A7E" width="6.98" height="0.71"/>
			</g>
			<g>
				<rect x="106.753" y="46.457" fill="#597C8F" width="5.705" height="9.104"/>
				<rect x="107.241" y="46.896" fill="#C4DBE5" width="4.73" height="8.228"/>
				<g opacity="0.4">
					<polygon fill="#FFFFFF" points="111.972,49.214 107.241,54.1 107.241,53.065 111.972,48.179 					"/>
					<polygon fill="#FFFFFF" points="111.972,50.259 107.241,55.146 107.241,54.843 111.972,49.956 					"/>
					<polygon fill="#FFFFFF" points="111.972,47.665 107.241,52.552 107.241,51.776 111.972,46.89 					"/>
				</g>
				<rect x="106.116" y="55.123" fill="#416A7E" width="6.98" height="0.71"/>
			</g>
			<g>
				<rect x="116.632" y="46.457" fill="#597C8F" width="5.705" height="9.104"/>
				<rect x="117.119" y="46.896" fill="#C4DBE5" width="4.731" height="8.228"/>
				<g opacity="0.4">
					<polygon fill="#FFFFFF" points="121.851,49.214 117.119,54.1 117.119,53.065 121.851,48.179 					"/>
					<polygon fill="#FFFFFF" points="121.851,50.259 117.119,55.146 117.119,54.843 121.851,49.956 					"/>
					<polygon fill="#FFFFFF" points="121.851,47.665 117.119,52.552 117.119,51.776 121.851,46.89 					"/>
				</g>
				<rect x="115.995" y="55.123" fill="#416A7E" width="6.979" height="0.71"/>
			</g>
		</g>
		<g>
			<g>
				<rect x="77.116" y="31.952" fill="#597C8F" width="5.706" height="9.104"/>
				<rect x="77.604" y="32.39" fill="#C4DBE5" width="4.73" height="8.229"/>
				<g opacity="0.4">
					<polygon fill="#FFFFFF" points="82.335,34.708 77.604,39.595 77.604,38.56 82.335,33.673 					"/>
					<polygon fill="#FFFFFF" points="82.335,35.754 77.604,40.64 77.604,40.337 82.335,35.451 					"/>
					<polygon fill="#FFFFFF" points="82.335,33.159 77.604,38.046 77.604,37.271 82.335,32.384 					"/>
				</g>
				<rect x="76.479" y="40.618" fill="#416A7E" width="6.979" height="0.711"/>
			</g>
			<g>
				<rect x="86.995" y="31.952" fill="#597C8F" width="5.705" height="9.104"/>
				<rect x="87.483" y="32.39" fill="#C4DBE5" width="4.73" height="8.229"/>
				<g opacity="0.4">
					<polygon fill="#FFFFFF" points="92.214,34.708 87.483,39.595 87.483,38.56 92.214,33.673 					"/>
					<polygon fill="#FFFFFF" points="92.214,35.754 87.483,40.64 87.483,40.337 92.214,35.451 					"/>
					<polygon fill="#FFFFFF" points="92.214,33.159 87.483,38.046 87.483,37.271 92.214,32.384 					"/>
				</g>
				<rect x="86.358" y="40.618" fill="#416A7E" width="6.98" height="0.711"/>
			</g>
			<g>
				<rect x="96.874" y="31.952" fill="#597C8F" width="5.705" height="9.104"/>
				<rect x="97.362" y="32.39" fill="#C4DBE5" width="4.73" height="8.229"/>
				<g opacity="0.4">
					<polygon fill="#FFFFFF" points="102.093,34.708 97.362,39.595 97.362,38.56 102.093,33.673 					"/>
					<polygon fill="#FFFFFF" points="102.093,35.754 97.362,40.64 97.362,40.337 102.093,35.451 					"/>
					<polygon fill="#FFFFFF" points="102.093,33.159 97.362,38.046 97.362,37.271 102.093,32.384 					"/>
				</g>
				<rect x="96.237" y="40.618" fill="#416A7E" width="6.98" height="0.711"/>
			</g>
			<g>
				<rect x="106.753" y="31.952" fill="#597C8F" width="5.705" height="9.104"/>
				<rect x="107.241" y="32.39" fill="#C4DBE5" width="4.73" height="8.229"/>
				<g opacity="0.4">
					<polygon fill="#FFFFFF" points="111.972,34.708 107.241,39.595 107.241,38.56 111.972,33.673 					"/>
					<polygon fill="#FFFFFF" points="111.972,35.754 107.241,40.64 107.241,40.337 111.972,35.451 					"/>
					<polygon fill="#FFFFFF" points="111.972,33.159 107.241,38.046 107.241,37.271 111.972,32.384 					"/>
				</g>
				<rect x="106.116" y="40.618" fill="#416A7E" width="6.98" height="0.711"/>
			</g>
			<g>
				<rect x="116.632" y="31.952" fill="#597C8F" width="5.705" height="9.104"/>
				<rect x="117.119" y="32.39" fill="#C4DBE5" width="4.731" height="8.229"/>
				<g opacity="0.4">
					<polygon fill="#FFFFFF" points="121.851,34.708 117.119,39.595 117.119,38.56 121.851,33.673 					"/>
					<polygon fill="#FFFFFF" points="121.851,35.754 117.119,40.64 117.119,40.337 121.851,35.451 					"/>
					<polygon fill="#FFFFFF" points="121.851,33.159 117.119,38.046 117.119,37.271 121.851,32.384 					"/>
				</g>
				<rect x="115.995" y="40.618" fill="#416A7E" width="6.979" height="0.711"/>
			</g>
		</g>
	</g>
	<g>
		<g>
			<g>
				<rect x="76.603" y="103.738" fill="#597C8F" width="4.053" height="7.928"/>
				<rect x="76.948" y="104.12" fill="#C4DBE5" width="3.36" height="7.164"/>
				<g opacity="0.4">
					<polygon fill="#FFFFFF" points="80.309,106.14 76.948,110.394 76.948,109.492 80.309,105.237 					"/>
					<polygon fill="#FFFFFF" points="80.309,107.049 76.948,111.304 76.948,111.04 80.309,106.785 					"/>
					<polygon fill="#FFFFFF" points="80.309,104.79 76.948,109.046 76.948,108.37 80.309,104.115 					"/>
				</g>
			</g>
			<g>
				<rect x="84.015" y="103.738" fill="#597C8F" width="4.053" height="7.928"/>
				<rect x="84.36" y="104.12" fill="#C4DBE5" width="3.361" height="7.164"/>
				<g opacity="0.4">
					<polygon fill="#FFFFFF" points="87.722,106.14 84.36,110.394 84.36,109.492 87.722,105.237 					"/>
					<polygon fill="#FFFFFF" points="87.722,107.049 84.36,111.304 84.36,111.04 87.722,106.785 					"/>
					<polygon fill="#FFFFFF" points="87.722,104.79 84.36,109.046 84.36,108.37 87.722,104.115 					"/>
				</g>
			</g>
			<g>
				<rect x="80.309" y="103.738" fill="#597C8F" width="4.052" height="7.928"/>
				<rect x="80.655" y="104.12" fill="#C4DBE5" width="3.359" height="7.164"/>
				<g opacity="0.4">
					<polygon fill="#FFFFFF" points="84.015,106.14 80.655,110.394 80.655,109.492 84.015,105.237 					"/>
					<polygon fill="#FFFFFF" points="84.015,107.049 80.655,111.304 80.655,111.04 84.015,106.785 					"/>
					<polygon fill="#FFFFFF" points="84.015,104.79 80.655,109.046 80.655,108.37 84.015,104.115 					"/>
				</g>
			</g>
		</g>
		<g>
			<g>
				<rect x="111.387" y="103.738" fill="#597C8F" width="4.052" height="7.928"/>
				<rect x="111.733" y="104.12" fill="#C4DBE5" width="3.36" height="7.164"/>
				<g opacity="0.4">
					<polygon fill="#FFFFFF" points="115.094,106.14 111.733,110.394 111.733,109.492 115.094,105.237 					"/>
					<polygon fill="#FFFFFF" points="115.094,107.049 111.733,111.304 111.733,111.04 115.094,106.785 					"/>
					<polygon fill="#FFFFFF" points="115.094,104.79 111.733,109.046 111.733,108.37 115.094,104.115 					"/>
				</g>
			</g>
			<g>
				<rect x="118.8" y="103.738" fill="#597C8F" width="4.052" height="7.928"/>
				<rect x="119.146" y="104.12" fill="#C4DBE5" width="3.36" height="7.164"/>
				<g opacity="0.4">
					<polygon fill="#FFFFFF" points="122.506,106.14 119.146,110.394 119.146,109.492 122.506,105.237 					"/>
					<polygon fill="#FFFFFF" points="122.506,107.049 119.146,111.304 119.146,111.04 122.506,106.785 					"/>
					<polygon fill="#FFFFFF" points="122.506,104.79 119.146,109.046 119.146,108.37 122.506,104.115 					"/>
				</g>
			</g>
			<g>
				<rect x="115.094" y="103.738" fill="#597C8F" width="4.052" height="7.928"/>
				<rect x="115.438" y="104.12" fill="#C4DBE5" width="3.361" height="7.164"/>
				<g opacity="0.4">
					<polygon fill="#FFFFFF" points="118.8,106.14 115.438,110.394 115.438,109.492 118.8,105.237 					"/>
					<polygon fill="#FFFFFF" points="118.8,107.049 115.438,111.304 115.438,111.04 118.8,106.785 					"/>
					<polygon fill="#FFFFFF" points="118.8,104.79 115.438,109.046 115.438,108.37 118.8,104.115 					"/>
				</g>
			</g>
		</g>
	</g>
	<rect x="72.55" y="23.398" fill="#416A7E" width="54.354" height="3.872"/>
	<rect x="72.55" y="23.398" fill="#5E8599" width="54.354" height="1.937"/>
	<g>
		<g>
			<path fill="#B84C4B" d="M112.466,16.714c0.533,0,0.965,0.433,0.965,0.966v11.438c0,0.532-0.432,0.965-0.965,0.965H86.988
				c-0.533,0-0.965-0.433-0.965-0.965V17.68c0-0.533,0.432-0.966,0.965-0.966H112.466z"/>
		</g>
		<g>
			<path fill="none" stroke="#EFD86C" stroke-miterlimit="10" d="M111.281,17.634c0.483,0,0.874,0.392,0.874,0.875v9.779
				c0,0.482-0.391,0.875-0.874,0.875H88.173c-0.482,0-0.875-0.393-0.875-0.875v-9.779c0-0.483,0.393-0.875,0.875-0.875H111.281z"/>
		</g>
		<g>
			<path fill="#FFFFFF" d="M90.148,22.262v2.034h2.147v-2.034h0.926v5.077h-0.926v-2.237h-2.147v2.237h-0.927v-5.077H90.148z"/>
			<path fill="#FFFFFF" d="M98.788,24.747c0,1.703-1.031,2.674-2.432,2.674c-1.432,0-2.336-1.092-2.336-2.584
				c0-1.559,0.979-2.658,2.41-2.658C97.915,22.179,98.788,23.302,98.788,24.747z M94.999,24.823c0,1.031,0.521,1.853,1.41,1.853
				c0.896,0,1.4-0.829,1.4-1.892c0-0.956-0.475-1.859-1.4-1.859C95.489,22.925,94.999,23.776,94.999,24.823z"/>
			<path fill="#FFFFFF" d="M100.356,23.038h-1.447v-0.776h3.835v0.776h-1.462v4.301h-0.926V23.038z"/>
			<path fill="#FFFFFF" d="M106.18,25.086h-1.913v1.491h2.139v0.762h-3.065v-5.077h2.952v0.761h-2.025v1.311h1.913V25.086z"/>
			<path fill="#FFFFFF" d="M107.22,22.262h0.926v4.301h2.087v0.776h-3.013V22.262z"/>
		</g>
		<g>
			<polygon fill="#EFD86C" points="90.053,18.938 90.308,19.454 90.878,19.538 90.466,19.939 90.563,20.508 90.053,20.239 
				89.543,20.508 89.64,19.939 89.228,19.538 89.798,19.454 			"/>
			<polygon fill="#EFD86C" points="94.88,18.938 95.135,19.454 95.705,19.538 95.292,19.939 95.39,20.508 94.88,20.239 
				94.369,20.508 94.468,19.939 94.054,19.538 94.624,19.454 			"/>
			<polygon fill="#EFD86C" points="99.706,18.938 99.962,19.454 100.532,19.538 100.119,19.939 100.216,20.508 99.706,20.239 
				99.196,20.508 99.294,19.939 98.881,19.538 99.451,19.454 			"/>
			<polygon fill="#EFD86C" points="104.533,18.938 104.788,19.454 105.358,19.538 104.946,19.939 105.043,20.508 104.533,20.239 
				104.022,20.508 104.12,19.939 103.708,19.538 104.278,19.454 			"/>
			<polygon fill="#EFD86C" points="109.36,18.938 109.614,19.454 110.185,19.538 109.772,19.939 109.87,20.508 109.36,20.239 
				108.85,20.508 108.947,19.939 108.534,19.538 109.104,19.454 			"/>
		</g>
	</g>
	<g>
		<path fill="#FFFFFF" d="M60.191,48.224c0,2.197-1.781,3.979-3.979,3.979H39.117c-2.197,0-3.979-1.781-3.979-3.979l0,0
			c0-2.197,1.781-3.979,3.979-3.979h17.096C58.41,44.245,60.191,46.026,60.191,48.224L60.191,48.224z"/>
		<circle fill="#FFFFFF" cx="38.653" cy="46.379" r="5.823"/>
		<circle fill="#FFFFFF" cx="53.635" cy="42.81" r="3.758"/>
		<circle fill="#FFFFFF" cx="45.337" cy="42.028" r="7.483"/>
	</g>
	<g>
		<path fill="#FFFFFF" d="M48.829,30.554c0,1.486,1.205,2.691,2.692,2.691h11.57c1.486,0,2.692-1.205,2.692-2.691l0,0
			c0-1.488-1.206-2.693-2.692-2.693h-11.57C50.034,27.86,48.829,29.065,48.829,30.554L48.829,30.554z"/>
		<circle fill="#FFFFFF" cx="63.405" cy="29.304" r="3.941"/>
		<circle fill="#FFFFFF" cx="53.266" cy="26.889" r="2.543"/>
		<circle fill="#FFFFFF" cx="58.882" cy="26.359" r="5.064"/>
	</g>
	<g>
		<path fill="#FFFFFF" d="M136.835,50.144c0,2.379,1.93,4.307,4.309,4.307h18.51c2.379,0,4.307-1.928,4.307-4.307l0,0
			c0-2.38-1.928-4.308-4.307-4.308h-18.51C138.765,45.836,136.835,47.764,136.835,50.144L136.835,50.144z"/>
		<circle fill="#FFFFFF" cx="160.155" cy="48.146" r="6.305"/>
		<circle fill="#FFFFFF" cx="143.935" cy="44.28" r="4.068"/>
		<circle fill="#FFFFFF" cx="152.918" cy="43.435" r="8.103"/>
	</g>
	<g opacity="0.8">
		<path fill="#FFFFFF" d="M147.917,39.215c0,1.519-1.232,2.75-2.752,2.75h-11.816c-1.52,0-2.75-1.231-2.75-2.75l0,0
			c0-1.519,1.23-2.751,2.75-2.751h11.816C146.685,36.464,147.917,37.696,147.917,39.215L147.917,39.215z"/>
		<circle fill="#FFFFFF" cx="133.028" cy="37.939" r="4.025"/>
		<circle fill="#FFFFFF" cx="143.384" cy="35.472" r="2.598"/>
		<circle fill="#FFFFFF" cx="137.648" cy="34.931" r="5.173"/>
	</g>
	<g>
		<g>
			<g>
				<path fill="#343434" d="M47.608,152.49v-14.896c0-0.982-0.796-1.777-1.778-1.777H26.387c-0.982,0-1.778,0.795-1.778,1.777
					v14.896H47.608z"/>
				<path fill="#9EA7AC" d="M36.108,151.143H20.702c0,0,0.844,2.699,2.962,2.699c1.928,0,12.444,0,12.444,0s10.518,0,12.445,0
					c2.118,0,2.961-2.699,2.961-2.699H36.108z"/>
				<path fill="#BBC5CA" d="M36.108,151.143h-2.576c0,0,0.142,1.348,0.495,1.348c0.323,0,2.081,0,2.081,0s1.759,0,2.081,0
					c0.354,0,0.495-1.348,0.495-1.348H36.108z"/>
				<rect x="26.309" y="137.449" fill="#90A5D5" width="19.6" height="12.018"/>
				<circle fill="#5D5D5D" cx="36.109" cy="136.632" r="0.479"/>
			</g>
			<path opacity="0.2" fill="#FFFFFF" d="M36.108,135.817h-9.722c-0.982,0-1.778,0.795-1.778,1.777v13.548h-3.906
				c0,0,0.844,2.699,2.962,2.699c1.928,0,12.444,0,12.444,0l0,0V135.817z"/>
		</g>
		<g>
			<path fill="#FFFFFF" d="M31.143,143.018c2.738-2.737,7.193-2.737,9.932,0l1.154-1.152c-3.375-3.374-8.864-3.374-12.239,0
				L31.143,143.018L31.143,143.018z"/>
			<path fill="#FFFFFF" d="M33.408,145.27c0.719-0.719,1.675-1.115,2.691-1.115s1.974,0.396,2.692,1.115l1.152-1.154
				c-1.026-1.027-2.393-1.592-3.845-1.592s-2.817,0.564-3.845,1.592L33.408,145.27L33.408,145.27z"/>
			<path fill="#FFFFFF" d="M36.809,145.85c0.396,0.396,0.396,1.039,0,1.434c-0.396,0.396-1.037,0.396-1.434,0
				c-0.396-0.395-0.396-1.037,0.001-1.432C35.771,145.455,36.413,145.455,36.809,145.85L36.809,145.85z"/>
		</g>
	</g>
	<g>
		<g>
			<g>
				<path fill="#B87963" d="M167.921,136.158h-0.986v-1.169c0-1.064-0.865-1.93-1.93-1.93h-5.236c-1.064,0-1.932,0.865-1.932,1.93
					v1.169h-0.986v-1.169c0-1.609,1.309-2.917,2.918-2.917h5.236c1.609,0,2.916,1.308,2.916,2.917V136.158z"/>
			</g>
			<path fill="#80321F" d="M175.446,150.705c0,1.453-1.18,2.633-2.633,2.633H151.96c-1.455,0-2.635-1.18-2.635-2.633v-12.688
				c0-1.453,1.18-2.633,2.635-2.633h20.854c1.453,0,2.633,1.18,2.633,2.633V150.705z"/>
			<path fill="#532B24" d="M174.112,149.836c0,1.256-1.059,2.273-2.363,2.273h-18.727c-1.305,0-2.363-1.018-2.363-2.273v-10.951
				c0-1.255,1.059-2.272,2.363-2.272h18.727c1.305,0,2.363,1.018,2.363,2.272V149.836z"/>
			<path fill="#80321F" d="M165.714,133.131c0,0.183-0.148,0.329-0.33,0.329h-5.996c-0.182,0-0.33-0.146-0.33-0.329v-1.183
				c0-0.182,0.148-0.329,0.33-0.329h5.996c0.182,0,0.33,0.147,0.33,0.329V133.131z"/>
			<g>
				<g>
					<rect x="152.585" y="135.214" fill="#CF8F48" width="2.998" height="18.124"/>
					<path fill="#B27238" d="M154.925,148.535h-1.682c-0.363,0-0.658-0.295-0.658-0.658v0.438c0,0.365,0.295,0.658,0.658,0.658
						h1.682c0.363,0,0.658-0.293,0.658-0.658v-0.438C155.583,148.24,155.288,148.535,154.925,148.535z"/>
					<g>
						<path fill="#E9C14F" d="M154.964,144.256h-1.76c-0.432,0-0.785-0.354-0.785-0.785v-1.76c0-0.433,0.354-0.784,0.785-0.784h1.76
							c0.432,0,0.785,0.352,0.785,0.784v1.76C155.749,143.902,155.396,144.256,154.964,144.256z M153.204,141.256
							c-0.25,0-0.455,0.203-0.455,0.455v1.76c0,0.252,0.205,0.455,0.455,0.455h1.76c0.252,0,0.455-0.203,0.455-0.455v-1.76
							c0-0.252-0.203-0.455-0.455-0.455H153.204z"/>
					</g>
					<path fill="#F1DA93" d="M154.349,144.674c0,0.146-0.119,0.264-0.264,0.264l0,0c-0.146,0-0.266-0.117-0.266-0.264v-1.166
						c0-0.146,0.119-0.264,0.266-0.264l0,0c0.145,0,0.264,0.117,0.264,0.264V144.674z"/>
				</g>
				<g>
					<rect x="169.188" y="135.214" fill="#CF8F48" width="2.998" height="18.124"/>
					<path fill="#B27238" d="M171.528,148.535h-1.682c-0.363,0-0.658-0.295-0.658-0.658v0.438c0,0.365,0.295,0.658,0.658,0.658
						h1.682c0.363,0,0.658-0.293,0.658-0.658v-0.438C172.187,148.24,171.892,148.535,171.528,148.535z"/>
					<g>
						<path fill="#E9C14F" d="M171.567,144.256h-1.76c-0.432,0-0.783-0.354-0.783-0.785v-1.76c0-0.433,0.352-0.784,0.783-0.784h1.76
							c0.434,0,0.785,0.352,0.785,0.784v1.76C172.353,143.902,172.001,144.256,171.567,144.256z M169.808,141.256
							c-0.252,0-0.455,0.203-0.455,0.455v1.76c0,0.252,0.203,0.455,0.455,0.455h1.76c0.252,0,0.455-0.203,0.455-0.455v-1.76
							c0-0.252-0.203-0.455-0.455-0.455H169.808z"/>
					</g>
					<path fill="#F1DA93" d="M170.95,144.674c0,0.146-0.117,0.264-0.262,0.264l0,0c-0.145,0-0.264-0.117-0.264-0.264v-1.166
						c0-0.146,0.119-0.264,0.264-0.264l0,0c0.145,0,0.262,0.117,0.262,0.264V144.674z"/>
				</g>
			</g>
		</g>
		<path opacity="0.1" fill="#FFFFFF" d="M162.386,135.384h-4.549v-0.395c0-0.818,0.514-1.518,1.234-1.799
			c0.029,0.153,0.156,0.27,0.316,0.27h2.998v-1.841h-2.998c-0.182,0-0.33,0.147-0.33,0.329v0.215
			c-1.266,0.317-2.207,1.462-2.207,2.826v0.395h-1.268v-0.17h-2.998v0.17h-0.625c-1.455,0-2.635,1.18-2.635,2.633v12.688
			c0,1.453,1.18,2.633,2.635,2.633h0.625h2.998h6.803V135.384z"/>
	</g>
	<g>
		<g>
			<polygon fill="#E6C1A2" points="37.938,111.819 36.108,111.819 34.279,111.819 33.183,118.249 36.108,118.249 39.035,118.249 			
				"/>
			<path fill="#325B83" d="M44.9,118.091c-0.324-0.682-1.325-1.287-2.16-1.287l-6.632,0.693l0,0l-6.631-0.693
				c-0.835,0-1.837,0.605-2.16,1.287c-0.712,1.499-1.859,7.406-1.859,7.406h10.65l0,0l0,0h0.001h10.649
				C46.759,125.497,45.611,119.59,44.9,118.091z"/>
			<g>
				<rect x="29.418" y="116.804" fill="#F1F7FC" width="1.202" height="8.693"/>
				<rect x="41.598" y="116.804" fill="#F1F7FC" width="1.201" height="8.693"/>
			</g>
			<g>
				<path fill="#D7EAF9" d="M33.68,115.329c0,0,0.767,1.296,2.429,2.078c0,0,0.1,1.758-2.211,1.758
					c-3.064,0-5.476-2.813-5.476-2.813L33.68,115.329z"/>
				<path fill="#D7EAF9" d="M38.537,115.329c0,0-0.767,1.296-2.428,2.078c0,0-0.101,1.758,2.21,1.758
					c3.064,0,5.476-2.813,5.476-2.813L38.537,115.329z"/>
			</g>
			<polygon fill="#F1F7FC" points="36.108,123.044 30.366,120.954 30.366,125.497 36.108,125.497 41.851,125.497 41.851,120.954 			
				"/>
			<path fill="#94632C" d="M40.953,99.228c0.346-0.537,0.544-1.137,0.544-1.774c0-2.25-2.413-4.074-5.389-4.074
				s-5.389,1.824-5.389,4.074c0,0.638,0.199,1.237,0.544,1.774H40.953z"/>
			<path fill="#F0D3BB" d="M36.108,96.911c-5.68,0-6.994,4.092-6.994,7.198c0,6.267,5.627,9.581,6.994,9.581
				c1.368,0,6.994-3.314,6.994-9.581C43.103,101.003,41.788,96.911,36.108,96.911z"/>
			<g>
				<path fill="#94632C" d="M28.707,106.035c0,0,6.144-2.196,7.401-7.109c0,0-3.356-0.577-3.521-0.577
					C32.425,98.349,28.34,99.901,28.707,106.035z"/>
				<path fill="#94632C" d="M43.51,106.035c0,0-6.143-2.196-7.401-7.109c0,0,3.356-0.577,3.521-0.577
					C39.792,98.349,43.877,99.901,43.51,106.035z"/>
			</g>
			<path fill="#D7EAF9" d="M41.836,98.519c0,0-0.101-2.06-2.612-1.607c0,0-0.753-2.297-3.114-2.297h-0.001
				c-2.361,0-3.115,2.297-3.115,2.297c-2.512-0.452-2.612,1.607-2.612,1.607c-1.79,0.684-0.873,2.805-0.873,2.805
				c1.487-1.414,4.038-2.453,6.601-2.453l0,0c2.563,0,5.113,1.039,6.602,2.453C42.71,101.323,43.627,99.202,41.836,98.519z"/>
		</g>
		<path opacity="0.2" fill="#FFFFFF" d="M36.108,93.379c-2.976,0-5.389,1.824-5.389,4.074c0,0.042,0.004,0.083,0.005,0.124
			c-0.317,0.45-0.344,0.941-0.344,0.941c-1.79,0.684-0.873,2.805-0.873,2.805s0,0,0.001-0.001c-0.003,0.011-0.007,0.021-0.01,0.03
			c-0.548,1.135-0.913,2.658-0.792,4.683c0,0,0.208-0.073,0.551-0.224c0.604,3.519,2.99,5.898,4.843,7.059l-0.42,2.459H33.68
			l-5.258,1.023c0,0,0.19,0.219,0.522,0.531c-0.688,0.18-1.371,0.666-1.627,1.207c-0.712,1.499-1.859,7.406-1.859,7.406h3.96h0.801
			h0.401h5.488l0,0l0,0V93.379L36.108,93.379z"/>
	</g>
	<g>
		<g>
			<g>
				<path fill="#E8BD57" d="M159.245,115.743c-0.033-0.295-0.301-0.506-0.596-0.473l-3.129,0.363
					c-0.297,0.035-0.508,0.302-0.473,0.597l0.012,0.115c0.035,0.294,0.303,0.506,0.598,0.472l3.129-0.363
					c0.297-0.034,0.506-0.301,0.475-0.596L159.245,115.743z"/>
				<path fill="#E8BD57" d="M169.251,115.634l-3.129-0.363c-0.295-0.033-0.563,0.178-0.596,0.473l-0.014,0.115
					c-0.033,0.295,0.178,0.562,0.473,0.596l3.129,0.363c0.297,0.034,0.563-0.178,0.598-0.472l0.014-0.115
					C169.759,115.936,169.548,115.669,169.251,115.634z"/>
			</g>
			<polygon fill="#E1B38B" points="164.216,111.819 162.386,111.819 160.558,111.819 159.46,118.249 162.386,118.249 
				165.312,118.249 			"/>
			<path fill="#B8493B" d="M171.265,118.342c-0.389-1.077-1.15-1.808-2.291-2.001c-1.875-0.32-6.588-0.805-6.588-0.805l0,0
				c0,0-4.713,0.484-6.586,0.805c-1.143,0.193-1.904,0.924-2.293,2.001c-0.654,1.815-1.771,7.155-1.771,7.155h10.65l0,0l0,0l0,0
				h10.65C173.036,125.497,171.919,120.157,171.265,118.342z"/>
			<path fill="#D35849" d="M164.704,113.497c0,0-0.756,0.706-2.318,0.706c-1.561,0-2.316-0.706-2.316-0.706l-0.393,2.329
				c0,0,0.674,0.987,2.709,0.987s2.709-0.987,2.709-0.987L164.704,113.497z"/>
			<path fill="#F0D3BB" d="M162.386,96.911c-5.68,0-6.994,4.092-6.994,7.198c0,6.267,5.627,9.581,6.994,9.581
				s6.994-3.314,6.994-9.581C169.38,101.003,168.065,96.911,162.386,96.911z"/>
			<g>
				<path fill="#434644" d="M160.308,100.774c0,0,4.117,3.911,9.244,4.714c0,0,0.648-3.012-1.529-4.565
					C165.849,99.369,160.308,100.774,160.308,100.774z"/>
				<path fill="#434644" d="M155.251,105.206c0,0,3.533-1.142,5.057-4.432c0,0-3.398-0.391-4.803,1.402
					C155.144,102.638,155.011,104.22,155.251,105.206z"/>
			</g>
			<g>
				<circle fill="#E8BD57" cx="162.386" cy="118.884" r="0.65"/>
				<circle fill="#E8BD57" cx="162.386" cy="121.184" r="0.65"/>
				<circle fill="#E8BD57" cx="162.386" cy="123.483" r="0.65"/>
			</g>
			<path fill="#B8493B" d="M162.386,94.669c-3.729,0-6.994,1.738-6.994,3.41s0.182,4.098,0.182,4.098s1.141-1.34,6.813-1.34
				s6.813,1.34,6.813,1.34s0.182-2.426,0.182-4.098S166.114,94.669,162.386,94.669z"/>
			<path fill="#E8BD57" d="M155.47,100.513c0.863-0.619,2.861-1.594,6.916-1.6c4.055,0.006,6.055,0.98,6.918,1.6
				c0.018-0.357,0.035-0.743,0.049-1.133c-1.184-0.683-3.307-1.436-6.924-1.447h-0.084l0,0c-3.617,0.012-5.742,0.766-6.926,1.447
				C155.433,99.77,155.45,100.155,155.47,100.513z"/>
		</g>
		<path opacity="0.2" fill="#FFFFFF" d="M155.392,98.079c0,0.572,0.021,1.233,0.051,1.855c0,0.017,0,0.033,0,0.049
			c0.01,0.181,0.018,0.357,0.027,0.528v0.001c0.041,0.766,0.084,1.389,0.098,1.59c-0.021,0.025-0.043,0.049-0.063,0.074
			c-0.361,0.461-0.494,2.043-0.254,3.029c0,0,0.072-0.023,0.195-0.071c0.393,3.89,2.963,6.503,4.93,7.735l-0.129,0.762
			c-0.117-0.078-0.178-0.135-0.178-0.135l-0.393,2.329c0,0,0.002,0.003,0.004,0.005c-0.141,0.016-0.279,0.032-0.42,0.049
			c-0.002-0.007,0-0.014,0-0.021l-0.016-0.115c-0.033-0.295-0.301-0.506-0.596-0.473l-3.129,0.363
			c-0.297,0.035-0.508,0.302-0.473,0.597l0.012,0.115c0.01,0.07,0.031,0.137,0.064,0.194c-0.771,0.327-1.311,0.955-1.617,1.802
			c-0.654,1.815-1.771,7.155-1.771,7.155h10.65l0,0l0,0V94.669C158.657,94.669,155.392,96.407,155.392,98.079z"/>
	</g>
	<g>
		<g>
			<path fill="#FFFFFF" d="M27.149,172.5c0-4.936,4.016-8.949,8.951-8.949s8.951,4.014,8.951,8.949c0,1.041-0.843,1.883-1.882,1.883
				c-1.038,0-1.881-0.842-1.881-1.883c0-2.861-2.328-5.189-5.188-5.189c-2.861,0-5.188,2.328-5.188,5.189
				c0,2.834,2.283,5.141,5.106,5.186h6.031c1.67,0,3.022,1.352,3.022,3.018v4.613v5.016v0.705c0,3.646-2.957,6.604-6.604,6.604h-4.7
				c-3.646,0-6.619-2.957-6.619-6.604v-18.023C27.14,172.844,27.149,172.674,27.149,172.5z"/>
			<path fill="#5A81C2" d="M27.149,172.5c0-4.936,4.016-8.949,8.951-8.949s8.951,4.014,8.951,8.949c0,1.041-0.843,1.883-1.882,1.883
				c-1.038,0-1.881-0.842-1.881-1.883c0-2.861-2.328-5.189-5.188-5.189c-2.861,0-5.188,2.328-5.188,5.189
				c0,2.834,2.283,5.141,5.106,5.186h6.031c1.67,0,3.022,1.352,3.022,3.018v4.613v5.016v0.705c0,3.646-2.957,6.604-6.604,6.604h-4.7
				c-3.646,0-6.619-2.957-6.619-6.604v-18.023C27.14,172.844,27.149,172.674,27.149,172.5z"/>
			<g>
				<ellipse fill="#CA4948" cx="36.111" cy="188.211" rx="6.253" ry="6.195"/>
				<circle fill="#FFFFFF" cx="36.11" cy="188.211" r="5.024"/>
				<circle fill="#CA4948" cx="36.111" cy="188.211" r="3.783"/>
				
					<rect x="31.513" y="187.312" transform="matrix(0.8971 -0.4418 0.4418 0.8971 -79.4385 35.3193)" fill="#FFFFFF" width="9.195" height="1.801"/>
			</g>
		</g>
		<path opacity="0.2" fill="#FFFFFF" d="M36.111,177.686h-0.093c-2.823-0.045-5.106-2.352-5.106-5.186
			c0-2.861,2.327-5.189,5.188-5.189c0.004,0,0.007,0.002,0.011,0.002v-3.762c-0.004,0-0.007,0-0.011,0
			c-4.936,0-8.951,4.014-8.951,8.949c0,0.174-0.01,0.344,0,0.514v18.023c0,3.646,2.973,6.604,6.619,6.604h2.343V177.686z"/>
	</g>
	<g>
		
			<path fill="none" stroke="#A09F9F" stroke-width="2.5" stroke-linecap="round" stroke-linejoin="round" stroke-miterlimit="10" d="
			M108.197,164.016h-4.041c-1.474,0-2.669,1.195-2.669,2.67v20"/>
		<path fill="#858585" d="M133.528,180.215c0,0.379,0.307,0.688,0.686,0.688h1.697c0.38,0,0.688-0.309,0.688-0.688l0,0
			c0-0.379-0.308-0.686-0.688-0.686h-1.697C133.835,179.529,133.528,179.836,133.528,180.215L133.528,180.215z"/>
		<path fill="#858585" d="M138.21,184.336v-6.299c0-0.422,0.342-0.764,0.764-0.764s0.764,0.342,0.764,0.764v6.299H138.21z"/>
		<path fill="#AAA9A9" d="M140.417,185.293c0,0-2.694,1.482-3.705,4.514c-1.01,3.029-2.492,6.398-7.005,6.398s-23.911,0-26.134,0
			s-3.166-1.281-3.839-3.1c-0.673-1.816-1.077-5.254-1.077-7.813H140.417z"/>
		<path fill="#E9EAEA" d="M96.754,184.738c0,0.508,0.411,0.918,0.917,0.918h43.584c0.506,0,0.916-0.41,0.916-0.918l0,0
			c0-0.506-0.41-0.916-0.916-0.916H97.671C97.165,183.822,96.754,184.232,96.754,184.738L96.754,184.738z"/>
		<g>
			<path fill="#858585" d="M127.562,196.205h2.961c0.794,0,1.438,0.643,1.438,1.436h-5.836
				C126.124,196.848,126.769,196.205,127.562,196.205z"/>
			<path fill="#858585" d="M103.29,196.205h2.963c0.793,0,1.436,0.643,1.436,1.436h-5.835
				C101.854,196.848,102.497,196.205,103.29,196.205z"/>
		</g>
		<path fill="#AAA9A9" d="M134.438,178.902h1.938h3.727c0.348,0,0.627,0.279,0.627,0.627c0,0.346-0.279,0.627-0.627,0.627h-3.727
			h-1.938h-0.91v-1.254H134.438z"/>
		<g>
			<path fill="#858585" d="M106.526,164.467l2.537-1.697c0.68-0.453,1.598-0.271,2.053,0.408l-4.997,3.34
				C105.665,165.84,105.847,164.92,106.526,164.467z"/>
			<path fill="#AAA9A9" d="M105.972,167.154c0.145,0.217,0.438,0.277,0.655,0.131l5.003-3.344c0.217-0.145,0.275-0.439,0.131-0.656
				l0,0c-0.146-0.217-0.438-0.275-0.656-0.129l-5.002,3.344C105.886,166.645,105.827,166.938,105.972,167.154L105.972,167.154z"/>
		</g>
		<path fill="#A09F9F" d="M136.328,190.803c-1.019,2.746-2.626,5.455-6.675,5.455c-4.513,0-23.912,0-26.134,0
			c-2.223,0-3.166-1.279-3.839-3.098c-0.232-0.627-0.432-1.449-0.596-2.357H136.328z"/>
		<g>
			<g>
				<g>
					<path fill="#858585" d="M101.629,180.627c0.09,0.223,0.343,0.33,0.565,0.238l0,0c0.223-0.09,0.33-0.344,0.24-0.566l-1.09-2.678
						c-0.09-0.223-0.344-0.328-0.566-0.238l0,0c-0.223,0.09-0.33,0.344-0.238,0.566L101.629,180.627z"/>
					<path fill="#858585" d="M99.983,179.266c-0.223,0.09-0.329,0.344-0.238,0.566l0,0c0.09,0.223,0.344,0.33,0.566,0.24l2.678-1.09
						c0.223-0.09,0.33-0.344,0.239-0.566l0,0c-0.091-0.223-0.345-0.33-0.567-0.24L99.983,179.266z"/>
				</g>
				<g>
					<path fill="#858585" d="M100.524,180.287c-0.094,0.221,0.01,0.477,0.231,0.568l0,0c0.222,0.094,0.476-0.01,0.569-0.23
						l1.124-2.664c0.093-0.221-0.011-0.475-0.231-0.57l0,0c-0.221-0.092-0.477,0.012-0.57,0.232L100.524,180.287z"/>
					<path fill="#858585" d="M100.323,178.162c-0.221-0.094-0.476,0.01-0.568,0.23l0,0c-0.094,0.223,0.01,0.477,0.23,0.57
						l2.664,1.123c0.221,0.094,0.477-0.01,0.57-0.23l0,0c0.093-0.221-0.012-0.477-0.232-0.57L100.323,178.162z"/>
				</g>
			</g>
			<circle fill="#AAA9A9" cx="101.487" cy="179.124" r="0.739"/>
		</g>
		<g>
			<g>
				
					<line fill="none" stroke="#FFFFFF" stroke-width="1.6" stroke-linecap="round" stroke-miterlimit="10" x1="111.684" y1="165.221" x2="112.395" y2="165.924"/>
				
					<line fill="none" stroke="#FFFFFF" stroke-width="1.6" stroke-linecap="round" stroke-miterlimit="10" stroke-dasharray="1.6342,6.5366" x1="117.042" y1="170.521" x2="126.336" y2="179.715"/>
				
					<line fill="none" stroke="#FFFFFF" stroke-width="1.6" stroke-linecap="round" stroke-miterlimit="10" x1="128.659" y1="182.014" x2="129.37" y2="182.717"/>
			</g>
		</g>
		<g>
			<g>
				
					<line fill="none" stroke="#FFFFFF" stroke-width="1.6" stroke-linecap="round" stroke-miterlimit="10" x1="110.614" y1="165.904" x2="111.253" y2="166.674"/>
				
					<line fill="none" stroke="#FFFFFF" stroke-width="1.6" stroke-linecap="round" stroke-miterlimit="10" stroke-dasharray="2.205,8.8198" x1="116.884" y1="173.462" x2="121.107" y2="178.553"/>
				
					<line fill="none" stroke="#FFFFFF" stroke-width="1.6" stroke-linecap="round" stroke-miterlimit="10" x1="123.923" y1="181.947" x2="124.562" y2="182.717"/>
			</g>
		</g>
		<g>
			<g>
				
					<line fill="none" stroke="#FFFFFF" stroke-width="1.6" stroke-linecap="round" stroke-miterlimit="10" x1="109.51" y1="166.518" x2="110.039" y2="167.366"/>
				
					<line fill="none" stroke="#FFFFFF" stroke-width="1.6" stroke-linecap="round" stroke-miterlimit="10" stroke-dasharray="1.8999,7.5996" x1="114.065" y1="173.812" x2="117.084" y2="178.646"/>
				
					<line fill="none" stroke="#FFFFFF" stroke-width="1.6" stroke-linecap="round" stroke-miterlimit="10" x1="119.098" y1="181.868" x2="119.627" y2="182.717"/>
			</g>
		</g>
		
			<line fill="none" stroke="#FFFFFF" stroke-width="1.6" stroke-linecap="round" stroke-miterlimit="10" stroke-dasharray="2,8" x1="108.341" y1="167.365" x2="115.708" y2="182.717"/>
	</g>
	<g>
		<g>
			<g>
				<rect x="55.963" y="177.291" fill="#F2F1F0" width="0.992" height="10.029"/>
				<path fill="#F2F1F0" d="M58.341,169.137c-0.174,0-0.314,0.141-0.314,0.314v3.834v1.342c0,0.172-0.141,0.313-0.313,0.313
					s-0.313-0.141-0.313-0.313v-1.342v-3.834c0-0.174-0.141-0.314-0.313-0.314s-0.314,0.141-0.314,0.314v3.834v1.342
					c0,0.172-0.14,0.313-0.313,0.313c-0.172,0-0.313-0.141-0.313-0.313v-1.342v-3.834c0-0.174-0.14-0.314-0.313-0.314
					c-0.173,0-0.313,0.141-0.313,0.314v3.834v1.342c0,0.172-0.141,0.313-0.313,0.313s-0.313-0.141-0.313-0.313v-1.342v-3.834
					c0-0.174-0.141-0.314-0.314-0.314c-0.173,0-0.313,0.141-0.313,0.314v3.834v2.992v1.238c0,0.811,0.658,1.467,1.469,1.467h1.455
					c0.811,0,1.468-0.656,1.468-1.467v-1.238v-2.992v-3.834C58.654,169.277,58.514,169.137,58.341,169.137z"/>
				<path fill="#D8789A" d="M57.533,195.98c0,0.535-0.433,0.969-0.967,0.969h-0.216c-0.534,0-0.967-0.434-0.967-0.969v-10.426
					c0-0.533,0.433-0.967,0.967-0.967h0.216c0.534,0,0.967,0.434,0.967,0.967V195.98z"/>
				<path fill="#E2E2E2" d="M56.458,177.104c-0.798,0-1.546-0.227-2.195-0.623v1.035c0,0.811,0.658,1.467,1.469,1.467h1.455
					c0.811,0,1.468-0.656,1.468-1.467v-1.035C58.005,176.877,57.257,177.104,56.458,177.104z"/>
				<path opacity="0.1" fill="#FFFFFF" d="M56.458,184.588h-0.107c-0.534,0-0.967,0.434-0.967,0.967v10.426
					c0,0.535,0.433,0.969,0.967,0.969h0.107V184.588z"/>
			</g>
			<g>
				<rect x="88.646" y="177.291" fill="#F2F1F0" width="0.992" height="10.029"/>
				<path fill="#D8789A" d="M90.217,195.98c0,0.535-0.433,0.969-0.966,0.969h-0.217c-0.533,0-0.967-0.434-0.967-0.969v-10.426
					c0-0.533,0.434-0.967,0.967-0.967h0.217c0.533,0,0.966,0.434,0.966,0.967V195.98z"/>
				<path opacity="0.1" fill="#FFFFFF" d="M89.143,184.588h-0.108c-0.533,0-0.967,0.434-0.967,0.967v10.426
					c0,0.535,0.434,0.969,0.967,0.969h0.108V184.588z"/>
				<path fill="#E2E2E2" d="M89.639,168.424c0,0-1.342,0.098-1.546,1.707c-0.203,1.611-0.606,10.043-0.606,10.578
					c0,0.537,1.663,1.367,2.152,1.512V168.424z"/>
				<g>
					<path fill="#F2F1F0" d="M89.639,177.617v-0.582l-2.098,2.279c-0.011,0.225-0.02,0.432-0.026,0.611L89.639,177.617z"/>
					<path fill="#F2F1F0" d="M87.743,175.264c-0.055,1.008-0.105,2.016-0.148,2.889l2.044-2.219v-2.729L87.743,175.264z"/>
					<path fill="#F2F1F0" d="M87.886,172.805c-0.021,0.344-0.043,0.707-0.064,1.076l1.817-1.973v-1.006L87.886,172.805z"/>
				</g>
			</g>
		</g>
		<g>
			<g>
				<circle fill="#D8789A" cx="72.24" cy="184.92" r="13.018"/>
				<circle opacity="0.4" fill="#FFFFFF" cx="72.24" cy="184.92" r="10.854"/>
				<circle fill="#D8789A" cx="72.24" cy="184.92" r="10.236"/>
			</g>
			<path opacity="0.1" fill="#FFFFFF" d="M72.294,171.902L72.294,171.902c-7.19,0-13.019,5.828-13.019,13.018
				s5.828,13.018,13.019,13.018l0,0V171.902z"/>
			<g>
				<g>
					
						<ellipse transform="matrix(0.7894 -0.6139 0.6139 0.7894 -96.5603 81.2881)" fill="#FFFFFF" cx="70.18" cy="181.36" rx="4.707" ry="4.871"/>
					
						<ellipse transform="matrix(0.7895 -0.6138 0.6138 0.7895 -95.692 80.9265)" fill="#E6B548" cx="70.124" cy="179.957" rx="1.954" ry="2.103"/>
					
						<ellipse transform="matrix(0.7895 -0.6137 0.6137 0.7895 -95.7848 80.4651)" opacity="0.4" fill="#FFFFFF" cx="69.417" cy="179.877" rx="0.808" ry="0.869"/>
				</g>
				<path opacity="0.2" fill="#C0BFBF" d="M73.653,184.766c-1.841-1.77-4.689-2.014-6.698-0.451
					c-0.088,0.068-0.169,0.143-0.25,0.215c0.789,0.877,1.823,1.416,2.903,1.582c0.059,0.01,0.117,0.018,0.176,0.023
					c0.082,0.008,0.164,0.018,0.246,0.021c0.075,0.006,0.15,0.008,0.227,0.01c0.083,0.002,0.166,0.002,0.25-0.002
					c0.051,0,0.102-0.004,0.152-0.006c0.889-0.061,1.764-0.371,2.512-0.953C73.346,185.07,73.503,184.92,73.653,184.766z"/>
				<g>
					
						<ellipse transform="matrix(0.7894 -0.6139 0.6139 0.7894 -100.9301 82.7597)" fill="#FFFFFF" cx="70.152" cy="188.479" rx="4.707" ry="4.871"/>
					
						<ellipse transform="matrix(0.7891 -0.6142 0.6142 0.7891 -100.1242 82.5013)" fill="#E6B548" cx="70.096" cy="187.075" rx="1.954" ry="2.102"/>
					
						<ellipse transform="matrix(0.7897 -0.6134 0.6134 0.7897 -100.1198 81.8833)" opacity="0.4" fill="#FFFFFF" cx="69.39" cy="186.994" rx="0.809" ry="0.87"/>
				</g>
			</g>
			<g>
				<path fill="#773636" d="M77.384,186.916c-0.035,0.131-0.17,0.207-0.301,0.17l-2.154-0.592c-0.131-0.037-0.207-0.17-0.171-0.301
					l2.868-10.42c0.037-0.129,0.171-0.205,0.302-0.172l2.154,0.594c0.13,0.037,0.207,0.172,0.171,0.301L77.384,186.916z"/>
				
					<rect x="76.908" y="175.698" transform="matrix(0.9641 0.2656 -0.2656 0.9641 50.9535 -14.0719)" opacity="0.8" fill="#D49F71" width="1.191" height="11.308"/>
				
					<rect x="77.325" y="175.697" transform="matrix(0.9634 0.2682 -0.2682 0.9634 51.4794 -14.1427)" opacity="0.6" fill="#F1D4B9" width="0.357" height="11.308"/>
			</g>
			<g>
				<path fill="#773636" d="M79.458,191.742c-0.036,0.131-0.172,0.207-0.301,0.17l-2.154-0.592c-0.131-0.035-0.207-0.17-0.172-0.301
					L79.7,180.6c0.035-0.129,0.17-0.205,0.301-0.17l2.154,0.594c0.131,0.035,0.207,0.17,0.171,0.301L79.458,191.742z"/>
				
					<rect x="78.981" y="180.523" transform="matrix(0.9637 0.2671 -0.2671 0.9637 52.6266 -14.4921)" opacity="0.8" fill="#D49F71" width="1.192" height="11.308"/>
				
					<rect x="79.398" y="180.522" transform="matrix(0.965 0.2624 -0.2624 0.965 51.6461 -14.3578)" opacity="0.6" fill="#F1D4B9" width="0.357" height="11.31"/>
			</g>
		</g>
		<g>
			<path fill="#C16585" d="M71.908,169.346h-5.329c0,0,0.766,1.383,1.502,1.383c0.735,0,3.827,0,3.827,0s3.091,0,3.827,0
				s1.502-1.383,1.502-1.383H71.908z"/>
			<path fill="#D8789A" d="M72.821,163.604h-1.355h-5.211c0,3.74,2.414,5.742,3.121,5.742c0.369,0,1.293,0,2.09,0
				c0.73,0,1.355,0,1.355,0c0.797,0,1.721,0,2.09,0c0.707,0,3.121-2.002,3.121-5.742H72.821z"/>
			<g>
				<path fill="#D8789A" d="M75.577,168.332l-0.104-0.508c1.118-0.227,4.035-1.129,4.121-2.559c0.023-0.373-0.059-0.619-0.25-0.756
					c-0.455-0.324-1.482-0.01-1.805,0.127l-0.2-0.479c0.155-0.064,1.534-0.615,2.304-0.07c0.345,0.244,0.502,0.652,0.469,1.209
					C79.983,167.414,75.757,168.295,75.577,168.332z"/>
			</g>
			<g>
				<g>
					<path fill="#FFFFFF" d="M72.105,163.098c-0.071,0-0.143-0.029-0.194-0.088c-0.868-0.99-0.342-2.238,0.214-3.215
						c0.126-0.221,0.156-0.414,0.095-0.588c-0.128-0.359-0.605-0.549-0.61-0.549c-0.133-0.053-0.199-0.201-0.147-0.334
						c0.051-0.133,0.199-0.201,0.332-0.148c0.029,0.01,0.702,0.271,0.912,0.855c0.115,0.32,0.07,0.664-0.132,1.02
						c-0.699,1.229-0.784,2.037-0.274,2.617c0.094,0.107,0.084,0.27-0.024,0.365C72.228,163.076,72.167,163.098,72.105,163.098z"/>
				</g>
				<g>
					<path fill="#FFFFFF" d="M73.407,161.916c-0.072,0-0.144-0.029-0.194-0.09c-0.737-0.84-0.257-1.934,0.169-2.682
						c0.096-0.168,0.119-0.311,0.074-0.439c-0.08-0.227-0.367-0.381-0.472-0.422c-0.132-0.053-0.198-0.201-0.147-0.334
						s0.199-0.199,0.332-0.148c0.061,0.021,0.598,0.238,0.772,0.727c0.068,0.191,0.105,0.494-0.11,0.873
						c-0.568,0.998-0.637,1.623-0.229,2.086c0.095,0.107,0.083,0.271-0.024,0.365C73.528,161.895,73.468,161.916,73.407,161.916z"/>
				</g>
			</g>
			<path opacity="0.1" fill="#FFFFFF" d="M72.144,163.604h-0.678h-5.211c0,3.74,2.414,5.742,3.121,5.742h-2.797
				c0,0,0.766,1.383,1.502,1.383c0.735,0,3.827,0,3.827,0s0.088,0,0.235,0V163.604z"/>
		</g>
	</g>
	<g>
		<g>
			<g>
				<rect x="131.78" y="117.888" fill="#A07751" width="0.674" height="3.553"/>
				<path fill="#73B05A" d="M132.142,103.738c0,0-3.073,5.481-3.073,10.345c0,4.864,3.073,4.864,3.073,4.864s3.074,0,3.074-4.864
					C135.216,109.22,132.142,103.738,132.142,103.738z"/>
				<path opacity="0.2" fill="#FFFFFF" d="M132.117,103.782c-0.276,0.506-3.049,5.681-3.049,10.301c0,4.621,2.772,4.852,3.049,4.863
					V103.782z"/>
				<rect x="129.944" y="120.931" fill="#A0B1C4" width="4.395" height="1.389"/>
			</g>
			<circle opacity="0.2" fill="#FFFFFF" cx="133.548" cy="111.923" r="0.558"/>
			<circle opacity="0.2" fill="#FFFFFF" cx="130.593" cy="113.69" r="0.807"/>
			<circle opacity="0.2" fill="#FFFFFF" cx="133.336" cy="115.881" r="0.882"/>
			<circle opacity="0.2" fill="#FFFFFF" cx="131.812" cy="109.302" r="0.953"/>
		</g>
		<g>
			<g>
				<rect x="66.951" y="117.888" fill="#A07751" width="0.674" height="3.553"/>
				<path fill="#73B05A" d="M67.313,103.738c0,0-3.073,5.481-3.073,10.345c0,4.864,3.073,4.864,3.073,4.864s3.073,0,3.073-4.864
					C70.386,109.22,67.313,103.738,67.313,103.738z"/>
				<path opacity="0.2" fill="#FFFFFF" d="M67.288,103.782c-0.277,0.506-3.049,5.681-3.049,10.301c0,4.621,2.771,4.852,3.049,4.863
					V103.782z"/>
				<rect x="65.114" y="120.931" fill="#A0B1C4" width="4.396" height="1.389"/>
			</g>
			<circle opacity="0.2" fill="#FFFFFF" cx="68.72" cy="111.923" r="0.559"/>
			<circle opacity="0.2" fill="#FFFFFF" cx="65.763" cy="113.69" r="0.807"/>
			<circle opacity="0.2" fill="#FFFFFF" cx="68.507" cy="115.881" r="0.882"/>
			<circle opacity="0.2" fill="#FFFFFF" cx="66.982" cy="109.302" r="0.953"/>
		</g>
	</g>
	<circle opacity="0.2" fill="#FFFFFF" cx="72.24" cy="126.724" r="0.559"/>
	<g>
		<g>
			<g>
				<g>
					<rect x="71.47" y="136.334" fill="#B07F39" width="1.541" height="2.063"/>
					<path fill="#E19F40" d="M74.645,138.819c0,0.633-0.514,1.145-1.146,1.145h-2.518c-0.632,0-1.145-0.512-1.145-1.145l0,0
						c0-0.633,0.513-1.146,1.145-1.146h2.518C74.131,137.674,74.645,138.187,74.645,138.819L74.645,138.819z"/>
					<g>
						<path fill="#E19F40" d="M85.222,152.156v-0.281c0-1.039-0.842-1.881-1.881-1.881H61.139c-1.038,0-1.88,0.842-1.88,1.881v0.281
							H85.222z"/>
						<rect x="59.271" y="152.23" fill="#B07F39" width="25.95" height="1.611"/>
						<rect x="59.271" y="151.662" fill="#E3C584" width="25.95" height="0.568"/>
					</g>
					<path fill="#E6B34E" d="M72.239,138.819c-6.172,0-11.176,5.003-11.176,11.175h22.354
						C83.417,143.822,78.413,138.819,72.239,138.819z"/>
					<path fill="#E6B34E" d="M74.128,135.101h-3.775c-0.922,0-1.668,0.746-1.668,1.667h7.111
						C75.796,135.847,75.049,135.101,74.128,135.101z"/>
				</g>
				<path fill="#EFD396" d="M72.02,135.976c0,0.227-0.183,0.408-0.407,0.408h-1.719c-0.225,0-0.406-0.182-0.406-0.408l0,0
					c0-0.225,0.182-0.406,0.406-0.406h1.719C71.837,135.569,72.02,135.751,72.02,135.976L72.02,135.976z"/>
				<circle fill="#EFD396" cx="68.118" cy="142.5" r="1.725"/>
				<circle fill="#EFD396" cx="65.685" cy="144.633" r="0.764"/>
			</g>
			<path opacity="0.1" fill="#FFFFFF" d="M59.271,153.842h12.968v-18.741h-1.887c-0.922,0-1.668,0.746-1.668,1.667h2.785v0.906
				h-0.488c-0.632,0-1.145,0.513-1.145,1.146c0,0.088,0.012,0.172,0.03,0.254c-5.033,1.089-8.804,5.563-8.804,10.921h0.075
				c-0.967,0-1.762,0.73-1.867,1.668l0,0v0.002c-0.008,0.07-0.013,0.139-0.013,0.211v0.281h0.013v0.074V153.842z"/>
		</g>
		<path fill="#D2A247" d="M74.237,139.979c0,0,7.203,2.138,7.203,10.075h-2.658C78.782,150.055,79.882,143.17,74.237,139.979z"/>
	</g>
	<g>
		<path fill="#F0D1B8" d="M167.218,186.121c-0.863-0.502-1.816-0.58-3.281-0.58s-5.785,0-5.785,0c-0.557,0-1.008,0.449-1.008,1.008
			c0,0.555,0.451,1.006,1.008,1.006h3.518c1.66,0,1.064,0.861,0.635,1.143c-0.5,0.322-1.23,0.393-1.857,0.393
			c-0.625,0-2.537,0-3.15,0c-0.617,0-1.572-0.594-2.154-1.033l-3.428-2.598c-0.367-0.277-0.889-0.205-1.166,0.162
			c-0.277,0.365-0.205,0.889,0.16,1.166l4.67,3.539c0.006,0.002,0.01,0.004,0.016,0.006l1.035,0.779
			c0.131,0.104,0.629,0.545,1.293,0.545c0.666,0,4.631,0,5.582,0c0.949,0,1.604,0.047,2.27,0.703l4.441-4.441
			C170.015,187.918,168.067,186.619,167.218,186.121z"/>
		<polygon fill="#2F3030" points="165.237,192.643 170.573,187.305 174.394,190.598 167.458,196.598 		"/>
		<circle fill="#FFFFFF" cx="167.902" cy="193.096" r="0.667"/>
		<polygon opacity="0.1" fill="#FFFFFF" points="172.173,188.686 170.573,187.305 165.237,192.643 166.308,194.551 		"/>
	</g>
	<g>
		<g>
			<path fill="#E9EAEA" d="M145.472,184.027c0,0,1.736,1.521,3.107,1.521c1.014,0,26.6,0,27.613,0c1.371,0,3.105-1.521,3.105-1.521
				H145.472z"/>
			<g>
				<circle fill="#E9EAEA" cx="162.386" cy="169.164" r="1.371"/>
				<path fill="#AAA9A9" d="M177.331,184.027c-0.045-8.217-6.717-14.863-14.945-14.863s-14.9,6.646-14.945,14.863H177.331z"/>
				
					<ellipse transform="matrix(-0.6042 -0.7968 0.7968 -0.6042 113.5651 403.5203)" opacity="0.4" fill="#FFFFFF" cx="156.999" cy="173.556" rx="1.668" ry="1.853"/>
				
					<ellipse transform="matrix(-0.6039 -0.7971 0.7971 -0.6039 108.1763 406.9182)" opacity="0.4" fill="#FFFFFF" cx="155.204" cy="176.578" rx="0.889" ry="0.988"/>
				<path fill="#A09F9F" d="M164.688,170.732c0,0,9.207,2.822,9.207,13.295h-3.398C170.497,184.027,171.901,174.943,164.688,170.732
					z"/>
			</g>
			<path fill="#B8B8B8" d="M177.333,183.072h-29.895c-0.527,0-0.955,0.428-0.955,0.955h31.805
				C178.288,183.5,177.86,183.072,177.333,183.072z"/>
		</g>
		<path opacity="0.2" fill="#FFFFFF" d="M161.015,169.164c0,0.021,0.006,0.041,0.008,0.063c-7.275,0.66-13.041,6.529-13.543,13.846
			h-0.041c-0.527,0-0.955,0.428-0.955,0.955h-1.012c0,0,1.736,1.521,3.107,1.521c0.506,0,7.158,0,13.807,0v-17.756
			C161.628,167.793,161.015,168.406,161.015,169.164z"/>
	</g>
	<g>
		<g>
			<rect x="76.561" y="32.394" fill="#B84C4B" width="6.817" height="0.562"/>
			<polygon fill="#CA5B5B" points="82.724,31.542 79.97,31.542 77.215,31.542 76.561,32.394 79.97,32.394 83.378,32.394 			"/>
		</g>
		<g>
			<rect x="86.439" y="32.394" fill="#B84C4B" width="6.817" height="0.562"/>
			<polygon fill="#CA5B5B" points="92.603,31.542 89.849,31.542 87.094,31.542 86.439,32.394 89.849,32.394 93.257,32.394 			"/>
		</g>
		<g>
			<rect x="96.317" y="32.394" fill="#B84C4B" width="6.818" height="0.562"/>
			<polygon fill="#CA5B5B" points="102.481,31.542 99.728,31.542 96.974,31.542 96.317,32.394 99.728,32.394 103.136,32.394 			"/>
		</g>
		<g>
			<rect x="106.196" y="32.394" fill="#B84C4B" width="6.819" height="0.562"/>
			<polygon fill="#CA5B5B" points="112.36,31.542 109.606,31.542 106.853,31.542 106.196,32.394 109.606,32.394 113.016,32.394 			
				"/>
		</g>
		<g>
			<rect x="116.075" y="32.394" fill="#B84C4B" width="6.818" height="0.562"/>
			<polygon fill="#CA5B5B" points="122.239,31.542 119.485,31.542 116.729,31.542 116.075,32.394 119.485,32.394 122.894,32.394 			
				"/>
		</g>
	</g>
	<g>
		<g>
			<rect x="76.561" y="46.896" fill="#B84C4B" width="6.817" height="0.562"/>
			<polygon fill="#CA5B5B" points="82.724,46.044 79.97,46.044 77.215,46.044 76.561,46.896 79.97,46.896 83.378,46.896 			"/>
		</g>
		<g>
			<rect x="86.439" y="46.896" fill="#B84C4B" width="6.817" height="0.562"/>
			<polygon fill="#CA5B5B" points="92.603,46.044 89.849,46.044 87.094,46.044 86.439,46.896 89.849,46.896 93.257,46.896 			"/>
		</g>
		<g>
			<rect x="96.317" y="46.896" fill="#B84C4B" width="6.818" height="0.562"/>
			<polygon fill="#CA5B5B" points="102.481,46.044 99.728,46.044 96.974,46.044 96.317,46.896 99.728,46.896 103.136,46.896 			"/>
		</g>
		<g>
			<rect x="106.196" y="46.896" fill="#B84C4B" width="6.819" height="0.562"/>
			<polygon fill="#CA5B5B" points="112.36,46.044 109.606,46.044 106.853,46.044 106.196,46.896 109.606,46.896 113.016,46.896 			
				"/>
		</g>
		<g>
			<rect x="116.075" y="46.896" fill="#B84C4B" width="6.818" height="0.562"/>
			<polygon fill="#CA5B5B" points="122.239,46.044 119.485,46.044 116.729,46.044 116.075,46.896 119.485,46.896 122.894,46.896 			
				"/>
		</g>
	</g>
	<g>
		<g>
			<rect x="76.561" y="61.403" fill="#B84C4B" width="6.817" height="0.562"/>
			<polygon fill="#CA5B5B" points="82.724,60.552 79.97,60.552 77.215,60.552 76.561,61.403 79.97,61.403 83.378,61.403 			"/>
		</g>
		<g>
			<rect x="86.439" y="61.403" fill="#B84C4B" width="6.817" height="0.562"/>
			<polygon fill="#CA5B5B" points="92.603,60.552 89.849,60.552 87.094,60.552 86.439,61.403 89.849,61.403 93.257,61.403 			"/>
		</g>
		<g>
			<rect x="96.317" y="61.403" fill="#B84C4B" width="6.818" height="0.562"/>
			<polygon fill="#CA5B5B" points="102.481,60.552 99.728,60.552 96.974,60.552 96.317,61.403 99.728,61.403 103.136,61.403 			"/>
		</g>
		<g>
			<rect x="106.196" y="61.403" fill="#B84C4B" width="6.819" height="0.562"/>
			<polygon fill="#CA5B5B" points="112.36,60.552 109.606,60.552 106.853,60.552 106.196,61.403 109.606,61.403 113.016,61.403 			
				"/>
		</g>
		<g>
			<rect x="116.075" y="61.403" fill="#B84C4B" width="6.818" height="0.562"/>
			<polygon fill="#CA5B5B" points="122.239,60.552 119.485,60.552 116.729,60.552 116.075,61.403 119.485,61.403 122.894,61.403 			
				"/>
		</g>
	</g>
	<g>
		<g>
			<rect x="76.561" y="75.906" fill="#B84C4B" width="6.817" height="0.562"/>
			<polygon fill="#CA5B5B" points="82.724,75.055 79.97,75.055 77.215,75.055 76.561,75.906 79.97,75.906 83.378,75.906 			"/>
		</g>
		<g>
			<rect x="86.439" y="75.906" fill="#B84C4B" width="6.817" height="0.562"/>
			<polygon fill="#CA5B5B" points="92.603,75.055 89.849,75.055 87.094,75.055 86.439,75.906 89.849,75.906 93.257,75.906 			"/>
		</g>
		<g>
			<rect x="96.317" y="75.906" fill="#B84C4B" width="6.818" height="0.562"/>
			<polygon fill="#CA5B5B" points="102.481,75.055 99.728,75.055 96.974,75.055 96.317,75.906 99.728,75.906 103.136,75.906 			"/>
		</g>
		<g>
			<rect x="106.196" y="75.906" fill="#B84C4B" width="6.819" height="0.562"/>
			<polygon fill="#CA5B5B" points="112.36,75.055 109.606,75.055 106.853,75.055 106.196,75.906 109.606,75.906 113.016,75.906 			
				"/>
		</g>
		<g>
			<rect x="116.075" y="75.906" fill="#B84C4B" width="6.818" height="0.562"/>
			<polygon fill="#CA5B5B" points="122.239,75.055 119.485,75.055 116.729,75.055 116.075,75.906 119.485,75.906 122.894,75.906 			
				"/>
		</g>
	</g>
	<g>
		<g>
			<rect x="76.561" y="90.406" fill="#B84C4B" width="6.817" height="0.562"/>
			<polygon fill="#CA5B5B" points="82.724,89.555 79.97,89.555 77.215,89.555 76.561,90.406 79.97,90.406 83.378,90.406 			"/>
		</g>
		<g>
			<rect x="86.439" y="90.406" fill="#B84C4B" width="6.817" height="0.562"/>
			<polygon fill="#CA5B5B" points="92.603,89.555 89.849,89.555 87.094,89.555 86.439,90.406 89.849,90.406 93.257,90.406 			"/>
		</g>
		<g>
			<rect x="96.317" y="90.406" fill="#B84C4B" width="6.818" height="0.562"/>
			<polygon fill="#CA5B5B" points="102.481,89.555 99.728,89.555 96.974,89.555 96.317,90.406 99.728,90.406 103.136,90.406 			"/>
		</g>
		<g>
			<rect x="106.196" y="90.406" fill="#B84C4B" width="6.819" height="0.562"/>
			<polygon fill="#CA5B5B" points="112.36,89.555 109.606,89.555 106.853,89.555 106.196,90.406 109.606,90.406 113.016,90.406 			
				"/>
		</g>
		<g>
			<rect x="116.075" y="90.406" fill="#B84C4B" width="6.818" height="0.562"/>
			<polygon fill="#CA5B5B" points="122.239,89.555 119.485,89.555 116.729,89.555 116.075,90.406 119.485,90.406 122.894,90.406 			
				"/>
		</g>
	</g>
	<g>
		<g>
			<rect x="76.561" y="32.394" fill="#B84C4B" width="6.817" height="0.562"/>
			<polygon fill="#CA5B5B" points="82.724,31.542 79.97,31.542 77.215,31.542 76.561,32.394 79.97,32.394 83.378,32.394 			"/>
		</g>
		<g>
			<rect x="86.439" y="32.394" fill="#B84C4B" width="6.817" height="0.562"/>
			<polygon fill="#CA5B5B" points="92.603,31.542 89.849,31.542 87.094,31.542 86.439,32.394 89.849,32.394 93.257,32.394 			"/>
		</g>
		<g>
			<rect x="96.317" y="32.394" fill="#B84C4B" width="6.818" height="0.562"/>
			<polygon fill="#CA5B5B" points="102.481,31.542 99.728,31.542 96.974,31.542 96.317,32.394 99.728,32.394 103.136,32.394 			"/>
		</g>
		<g>
			<rect x="106.196" y="32.394" fill="#B84C4B" width="6.819" height="0.562"/>
			<polygon fill="#CA5B5B" points="112.36,31.542 109.606,31.542 106.853,31.542 106.196,32.394 109.606,32.394 113.016,32.394 			
				"/>
		</g>
		<g>
			<rect x="116.075" y="32.394" fill="#B84C4B" width="6.818" height="0.562"/>
			<polygon fill="#CA5B5B" points="122.239,31.542 119.485,31.542 116.729,31.542 116.075,32.394 119.485,32.394 122.894,32.394 			
				"/>
		</g>
	</g>
	<g>
		<g>
			<rect x="70.386" y="32.394" fill="#B84C4B" width="3.538" height="0.562"/>
			<polygon fill="#CA5B5B" points="73.924,31.542 70.386,32.394 73.042,32.394 73.924,32.394 			"/>
		</g>
		<g>
			<rect x="70.386" y="46.896" fill="#B84C4B" width="3.538" height="0.562"/>
			<polygon fill="#CA5B5B" points="73.924,46.044 70.386,46.896 73.042,46.896 73.924,46.896 			"/>
		</g>
		<g>
			<rect x="70.386" y="61.403" fill="#B84C4B" width="3.538" height="0.562"/>
			<polygon fill="#CA5B5B" points="73.924,60.552 70.386,61.403 73.042,61.403 73.924,61.403 			"/>
		</g>
		<g>
			<rect x="70.386" y="75.906" fill="#B84C4B" width="3.538" height="0.562"/>
			<polygon fill="#CA5B5B" points="73.924,75.055 70.386,75.906 73.042,75.906 73.924,75.906 			"/>
		</g>
		<g>
			<rect x="70.386" y="90.406" fill="#B84C4B" width="3.538" height="0.562"/>
			<polygon fill="#CA5B5B" points="73.924,89.555 70.386,90.406 73.042,90.406 73.924,90.406 			"/>
		</g>
	</g>
	<g>
		<g>
			<rect x="125.53" y="32.394" fill="#B84C4B" width="3.538" height="0.562"/>
			<polygon fill="#CA5B5B" points="125.53,31.542 129.068,32.394 126.412,32.394 125.53,32.394 			"/>
		</g>
		<g>
			<rect x="125.53" y="46.896" fill="#B84C4B" width="3.538" height="0.562"/>
			<polygon fill="#CA5B5B" points="125.53,46.044 129.068,46.896 126.412,46.896 125.53,46.896 			"/>
		</g>
		<g>
			<rect x="125.53" y="61.403" fill="#B84C4B" width="3.538" height="0.562"/>
			<polygon fill="#CA5B5B" points="125.53,60.552 129.068,61.403 126.412,61.403 125.53,61.403 			"/>
		</g>
		<g>
			<rect x="125.53" y="75.906" fill="#B84C4B" width="3.538" height="0.562"/>
			<polygon fill="#CA5B5B" points="125.53,75.055 129.068,75.906 126.412,75.906 125.53,75.906 			"/>
		</g>
		<g>
			<rect x="125.53" y="90.406" fill="#B84C4B" width="3.538" height="0.562"/>
			<polygon fill="#CA5B5B" points="125.53,89.555 129.068,90.406 126.412,90.406 125.53,90.406 			"/>
		</g>
	</g>
	<g>
		<g>
			<rect x="90.505" y="109.47" fill="#8C9BAC" width="0.611" height="10.699"/>
			<rect x="90.008" y="119.415" fill="#7F8C9C" width="1.605" height="2.904"/>
		</g>
		<g>
			<rect x="108.338" y="109.47" fill="#8C9BAC" width="0.61" height="10.699"/>
			<rect x="107.841" y="119.415" fill="#7F8C9C" width="1.605" height="2.904"/>
		</g>
	</g>
	<g>
		<g>
			<path fill="#B84C4B" d="M110.231,111.448c-0.988-4.607-5.314-8.076-10.504-8.076s-9.517,3.469-10.504,8.076H110.231z"/>
			<path fill="#CA5B5B" d="M108.364,111.448c-0.811-4.607-4.369-8.076-8.637-8.076s-7.826,3.469-8.639,8.076H108.364z"/>
			<path fill="#B84C4B" d="M105.728,111.448c-0.564-4.607-3.036-8.076-6-8.076c-2.965,0-5.437,3.469-6,8.076H105.728z"/>
			<path fill="#CA5B5B" d="M102.062,111.448c-0.219-4.607-1.182-8.076-2.334-8.076c-1.154,0-2.115,3.469-2.334,8.076H102.062z"/>
		</g>
		<g>
			<path fill="#953D3C" d="M90.536,112.745c0.725,0,1.313-0.58,1.313-1.297h-2.627C89.222,112.165,89.81,112.745,90.536,112.745z"/>
			<path fill="#953D3C" d="M93.161,112.745c0.726,0,1.313-0.58,1.313-1.297h-2.626C91.849,112.165,92.437,112.745,93.161,112.745z"
				/>
			<path fill="#953D3C" d="M95.788,112.745c0.725,0,1.313-0.58,1.313-1.297h-2.626C94.475,112.165,95.063,112.745,95.788,112.745z"
				/>
			<path fill="#953D3C" d="M98.414,112.745c0.726,0,1.313-0.58,1.313-1.297h-2.627C97.101,112.165,97.688,112.745,98.414,112.745z"
				/>
			<path fill="#953D3C" d="M101.04,112.745c0.726,0,1.313-0.58,1.313-1.297h-2.626C99.728,112.165,100.315,112.745,101.04,112.745z"
				/>
			<path fill="#953D3C" d="M103.667,112.745c0.725,0,1.313-0.58,1.313-1.297h-2.626C102.354,112.165,102.94,112.745,103.667,112.745
				z"/>
			<path fill="#953D3C" d="M106.293,112.745c0.726,0,1.313-0.58,1.313-1.297h-2.627
				C104.979,112.165,105.567,112.745,106.293,112.745z"/>
			<path fill="#953D3C" d="M108.919,112.745c0.725,0,1.313-0.58,1.313-1.297h-2.626
				C107.606,112.165,108.194,112.745,108.919,112.745z"/>
		</g>
	</g>
	<g>
		<g>
			<g>
				<g>
					<rect x="86.151" y="118.474" fill="#A07751" width="0.504" height="2.76"/>
					<g>
						<polygon fill="#974E3D" points="86.388,120.036 85.054,120.036 85.491,122.319 86.388,122.319 87.285,122.319 87.723,120.036 
													"/>
						<polygon fill="#AE5A45" points="85.218,120.892 87.559,120.892 87.625,120.544 85.151,120.544 						"/>
						<polygon opacity="0.1" fill="#FFFFFF" points="86.388,120.036 86.388,120.036 85.054,120.036 85.491,122.319 86.388,122.319 
							86.388,122.319 						"/>
					</g>
				</g>
				<g>
					<path fill="#73B05A" d="M88.575,116.509c0,1.697-0.98,2.32-2.188,2.32s-2.186-0.623-2.186-2.32
						c0-1.695,1.502-3.823,2.186-3.823S88.575,114.813,88.575,116.509z"/>
					<path opacity="0.2" fill="#FFFFFF" d="M84.202,116.509c0,1.697,0.979,2.32,2.186,2.32v-6.144
						C85.704,112.686,84.202,114.813,84.202,116.509z"/>
					<circle opacity="0.2" fill="#FFFFFF" cx="86.224" cy="114.559" r="0.658"/>
					<circle opacity="0.2" fill="#FFFFFF" cx="87.251" cy="117.37" r="0.714"/>
					<circle opacity="0.2" fill="#FFFFFF" cx="85.433" cy="116.664" r="0.47"/>
				</g>
			</g>
			<g>
				<g>
					<rect x="80.204" y="118.474" fill="#A07751" width="0.504" height="2.76"/>
					<g>
						<polygon fill="#974E3D" points="80.44,120.036 79.106,120.036 79.544,122.319 80.44,122.319 81.339,122.319 81.775,120.036 
													"/>
						<polygon fill="#AE5A45" points="79.271,120.892 81.612,120.892 81.679,120.544 79.204,120.544 						"/>
						<polygon opacity="0.1" fill="#FFFFFF" points="80.44,120.036 80.44,120.036 79.106,120.036 79.544,122.319 80.44,122.319 
							80.44,122.319 						"/>
					</g>
				</g>
				<g>
					<path fill="#73B05A" d="M82.628,116.509c0,1.697-0.979,2.32-2.188,2.32c-1.207,0-2.186-0.623-2.186-2.32
						c0-1.695,1.503-3.823,2.186-3.823C81.124,112.686,82.628,114.813,82.628,116.509z"/>
					<path opacity="0.2" fill="#FFFFFF" d="M78.255,116.509c0,1.697,0.979,2.32,2.186,2.32v-6.144
						C79.758,112.686,78.255,114.813,78.255,116.509z"/>
					<circle opacity="0.2" fill="#FFFFFF" cx="80.276" cy="114.559" r="0.658"/>
					<circle opacity="0.2" fill="#FFFFFF" cx="81.305" cy="117.37" r="0.714"/>
					<circle opacity="0.2" fill="#FFFFFF" cx="79.487" cy="116.664" r="0.47"/>
				</g>
			</g>
		</g>
		<g>
			<g>
				<g>
					<rect x="118.776" y="118.474" fill="#A07751" width="0.504" height="2.76"/>
					<g>
						<polygon fill="#974E3D" points="119.013,120.036 117.679,120.036 118.116,122.319 119.013,122.319 119.91,122.319 
							120.349,120.036 						"/>
						<polygon fill="#AE5A45" points="117.843,120.892 120.185,120.892 120.251,120.544 117.775,120.544 						"/>
						<polygon opacity="0.1" fill="#FFFFFF" points="119.013,120.036 119.013,120.036 117.679,120.036 118.116,122.319 
							119.013,122.319 119.013,122.319 						"/>
					</g>
				</g>
				<g>
					<path fill="#73B05A" d="M121.2,116.509c0,1.697-0.98,2.32-2.188,2.32s-2.186-0.623-2.186-2.32c0-1.695,1.502-3.823,2.186-3.823
						S121.2,114.813,121.2,116.509z"/>
					<path opacity="0.2" fill="#FFFFFF" d="M116.827,116.509c0,1.697,0.979,2.32,2.186,2.32v-6.144
						C118.329,112.686,116.827,114.813,116.827,116.509z"/>
					<circle opacity="0.2" fill="#FFFFFF" cx="118.849" cy="114.559" r="0.658"/>
					<circle opacity="0.2" fill="#FFFFFF" cx="119.876" cy="117.37" r="0.714"/>
					<circle opacity="0.2" fill="#FFFFFF" cx="118.058" cy="116.664" r="0.47"/>
				</g>
			</g>
			<g>
				<g>
					<rect x="112.829" y="118.474" fill="#A07751" width="0.504" height="2.76"/>
					<g>
						<polygon fill="#974E3D" points="113.065,120.036 111.731,120.036 112.169,122.319 113.065,122.319 113.964,122.319 
							114.401,120.036 						"/>
						<polygon fill="#AE5A45" points="111.896,120.892 114.237,120.892 114.304,120.544 111.829,120.544 						"/>
						<polygon opacity="0.1" fill="#FFFFFF" points="113.065,120.036 113.065,120.036 111.731,120.036 112.169,122.319 
							113.065,122.319 113.065,122.319 						"/>
					</g>
				</g>
				<g>
					<path fill="#73B05A" d="M115.253,116.509c0,1.697-0.979,2.32-2.188,2.32c-1.207,0-2.186-0.623-2.186-2.32
						c0-1.695,1.503-3.823,2.186-3.823C113.749,112.686,115.253,114.813,115.253,116.509z"/>
					<path opacity="0.2" fill="#FFFFFF" d="M110.88,116.509c0,1.697,0.979,2.32,2.186,2.32v-6.144
						C112.383,112.686,110.88,114.813,110.88,116.509z"/>
					<circle opacity="0.2" fill="#FFFFFF" cx="112.901" cy="114.559" r="0.658"/>
					<circle opacity="0.2" fill="#FFFFFF" cx="113.93" cy="117.37" r="0.715"/>
					<circle opacity="0.2" fill="#FFFFFF" cx="112.111" cy="116.664" r="0.47"/>
				</g>
			</g>
		</g>
	</g>
</g>
</svg>
