<?xml version="1.0" encoding="utf-8"?>
<!-- Generator: Adobe Illustrator 16.0.0, SVG Export Plug-In . SVG Version: 6.00 Build 0)  -->
<!DOCTYPE svg PUBLIC "-//W3C//DTD SVG 1.1//EN" "http://www.w3.org/Graphics/SVG/1.1/DTD/svg11.dtd">
<svg version="1.1" id="Layer_1" xmlns="http://www.w3.org/2000/svg" xmlns:xlink="http://www.w3.org/1999/xlink" x="0px" y="0px"
	 width="200px" height="200px" viewBox="0 0 200 200" enable-background="new 0 0 200 200" xml:space="preserve">
<g>
	<circle fill="#FFFFFF" cx="82.282" cy="81.057" r="61.537"/>
	<g>
		<g>
			<path fill="#FFFFFF" d="M2.493,82.016c-0.251-21.781,8.334-43.588,25.536-59.523c17.201-15.934,39.6-22.828,61.3-20.915
				l0.58-0.537c-1.51-0.143-3.03-0.248-4.558-0.306c-21.455-0.82-41.946,6.764-57.696,21.354
				C11.903,36.68,2.776,56.531,1.956,77.987c-0.059,1.527-0.069,3.051-0.043,4.568L2.493,82.016z"/>
			<path fill="#FFFFFF" d="M151.191,40.75l0.43-0.398c-2.915-4.943-6.379-9.609-10.371-13.92
				c-5.68-6.131-12.159-11.252-19.217-15.277l-0.448,0.416c6.999,3.953,13.511,9.032,19.261,15.236
				C144.871,31.154,148.314,35.834,151.191,40.75z"/>
			<path fill="#FFFFFF" d="M161.456,71.112c3.063,24.648-5.354,50.381-24.926,68.511c-32.293,29.913-82.901,27.978-112.815-4.315
				c-5.748-6.203-10.315-13.087-13.722-20.367l-0.449,0.416c3.475,7.345,8.086,14.196,13.765,20.326
				c14.592,15.754,34.443,24.879,55.898,25.697c21.455,0.822,41.947-6.762,57.698-21.353s24.877-34.442,25.699-55.898
				c0.175-4.562-0.035-9.079-0.607-13.518L161.456,71.112z"/>
		</g>
		<g>
			<path fill="#FFFFFF" d="M24.256,49.252c2.44-4.451,5.428-8.688,8.98-12.61c23.99-26.489,64.705-29.019,91.779-6.094l0.355-0.394
				c-12.958-10.984-29.34-16.555-46.39-15.71c-17.792,0.881-34.179,8.639-46.137,21.843c-3.619,3.996-6.697,8.348-9.212,12.965
				H24.256z"/>
			<path fill="#FFFFFF" d="M16.254,77.244H15.69c-0.13,2.353-0.142,4.726-0.023,7.112c0.845,17.049,8.004,32.801,20.217,44.61
				l0.355-0.393C21.948,114.739,15.199,95.844,16.254,77.244z"/>
			<path fill="#FFFFFF" d="M140.938,49.252c-0.671-1.234-1.383-2.449-2.132-3.643l-0.389,0.43c0.658,1.055,1.281,2.128,1.875,3.213
				H140.938z"/>
			<path fill="#FFFFFF" d="M148.865,77.244h-0.564c0.989,17.097-4.6,34.564-16.977,48.232
				c-20.279,22.391-52.508,27.656-78.347,14.904l-0.388,0.429c10.11,5.044,21.396,7.437,32.989,6.862
				c17.794-0.881,34.18-8.638,46.139-21.842c11.957-13.204,18.059-30.276,17.178-48.069
				C148.887,77.588,148.874,77.416,148.865,77.244z"/>
		</g>
		<g>
			<path fill="#FFFFFF" d="M109.281,147.343c0.973-0.406,1.948-0.84,2.902-1.289l-0.227-0.477c-0.945,0.445-1.915,0.875-2.879,1.279
				L109.281,147.343z"/>
			<path fill="#FFFFFF" d="M24.38,123.642l-0.423,0.314c0.629,0.846,1.286,1.688,1.951,2.5l0.408-0.334
				C25.658,125.315,25.006,124.479,24.38,123.642z"/>
			<path fill="#FFFFFF" d="M20.848,118.435l-0.45,0.277c0.551,0.895,1.129,1.791,1.721,2.66l0.437-0.296
				C21.969,120.212,21.395,119.323,20.848,118.435z"/>
			<path fill="#FFFFFF" d="M13.189,101.21l-0.507,0.148c0.296,1.013,0.62,2.031,0.96,3.027l0.499-0.171
				C13.804,103.227,13.484,102.214,13.189,101.21z"/>
			<path fill="#FFFFFF" d="M32.76,133.026l-0.361,0.385c0.767,0.72,1.561,1.434,2.361,2.121l0.344-0.4
				C34.311,134.449,33.522,133.741,32.76,133.026z"/>
			<path fill="#FFFFFF" d="M17.789,112.934l-0.473,0.235c0.471,0.943,0.97,1.889,1.482,2.809l0.461-0.256
				C18.75,114.808,18.256,113.868,17.789,112.934z"/>
			<path fill="#FFFFFF" d="M15.228,107.174l-0.492,0.194c0.385,0.981,0.797,1.967,1.225,2.928l0.482-0.213
				C16.02,109.127,15.61,108.149,15.228,107.174z"/>
			<path fill="#FFFFFF" d="M103.318,149.526c1.005-0.318,2.016-0.662,3.005-1.025l-0.183-0.494c-0.98,0.357-1.984,0.701-2.982,1.016
				L103.318,149.526z"/>
			<path fill="#FFFFFF" d="M90.863,151.751l0.069,0.523c1.045-0.137,2.102-0.299,3.139-0.482l-0.091-0.52
				C92.949,151.452,91.9,151.614,90.863,151.751z"/>
			<path fill="#FFFFFF" d="M97.072,150.657l0.113,0.516c1.029-0.229,2.068-0.482,3.084-0.756l-0.136-0.51
				C99.123,150.177,98.093,150.431,97.072,150.657z"/>
			<path fill="#FFFFFF" d="M37.54,137.133l-0.326,0.416c0.829,0.651,1.684,1.292,2.54,1.905l0.308-0.429
				C39.211,138.417,38.363,137.779,37.54,137.133z"/>
			<path fill="#FFFFFF" d="M42.664,140.806l-0.289,0.441c0.884,0.577,1.792,1.141,2.7,1.678l0.269-0.455
				C44.442,141.937,43.541,141.378,42.664,140.806z"/>
			<path fill="#FFFFFF" d="M55.762,147.532c-0.664-0.258-1.324-0.523-1.976-0.799l-0.206,0.486c0.744,0.316,1.501,0.617,2.259,0.91
				L55.762,147.532z"/>
			<path fill="#FFFFFF" d="M48.093,144.015l-0.249,0.467c0.932,0.496,1.886,0.979,2.837,1.432l0.228-0.477
				C49.965,144.985,49.017,144.507,48.093,144.015z"/>
			<path fill="#FFFFFF" d="M28.362,128.517l-0.394,0.352c0.702,0.785,1.43,1.566,2.165,2.32l0.378-0.369
				C29.781,130.071,29.058,129.296,28.362,128.517z"/>
			<path fill="#FFFFFF" d="M26.492,35.867l-0.408-0.335c-0.67,0.816-1.33,1.656-1.96,2.498l0.423,0.316
				C25.172,37.512,25.828,36.677,26.492,35.867z"/>
			<path fill="#FFFFFF" d="M34.96,26.475c-0.8,0.684-1.595,1.395-2.367,2.115l0.361,0.386c0.765-0.714,1.555-1.421,2.348-2.099
				L34.96,26.475z"/>
			<path fill="#FFFFFF" d="M30.324,30.807c-0.736,0.752-1.467,1.53-2.171,2.316l0.393,0.352c0.7-0.779,1.424-1.553,2.156-2.298
				L30.324,30.807z"/>
			<path fill="#FFFFFF" d="M39.505,22.901c-0.705,0.51-1.407,1.033-2.089,1.567l0.324,0.416c0.604-0.471,1.222-0.933,1.843-1.387
				L39.505,22.901z"/>
			<path fill="#FFFFFF" d="M69.08,10.93l-0.092-0.521c-0.935,0.165-1.878,0.354-2.811,0.559l0.069,0.525
				C67.185,11.288,68.136,11.096,69.08,10.93z"/>
			<path fill="#FFFFFF" d="M84.613,152.298l0.068,0.525c1.028-0.045,2.069-0.113,3.095-0.203l-0.046-0.525
				C86.697,152.185,85.647,152.253,84.613,152.298z"/>
			<path fill="#FFFFFF" d="M22.275,40.613c-0.595,0.87-1.179,1.766-1.735,2.661l0.449,0.279c0.552-0.89,1.131-1.779,1.721-2.643
				L22.275,40.613z"/>
			<path fill="#FFFFFF" d="M18.926,46.01c-0.515,0.918-1.018,1.862-1.494,2.806l0.471,0.237c0.473-0.936,0.971-1.872,1.482-2.783
				L18.926,46.01z"/>
			<path fill="#FFFFFF" d="M11.896,63.692c-0.256,1.023-0.493,2.068-0.703,3.104l0.518,0.105c0.209-1.027,0.443-2.064,0.698-3.081
				L11.896,63.692z"/>
			<path fill="#FFFFFF" d="M16.063,51.685c-0.433,0.962-0.851,1.948-1.24,2.928l0.49,0.195c0.388-0.973,0.802-1.95,1.232-2.906
				L16.063,51.685z"/>
			<path fill="#FFFFFF" d="M13.713,57.593c-0.346,0.998-0.676,2.017-0.976,3.028l0.506,0.15c0.3-1.004,0.625-2.016,0.97-3.006
				L13.713,57.593z"/>
			<path fill="#FFFFFF" d="M150.378,101.641c0.303-1.013,0.587-2.045,0.845-3.068l-0.513-0.129c-0.255,1.015-0.538,2.04-0.839,3.046
				L150.378,101.641z"/>
			<path fill="#FFFFFF" d="M146.723,52.176l0.483-0.213c-0.426-0.963-0.881-1.93-1.351-2.874l-0.474,0.235
				C145.849,50.262,146.3,51.222,146.723,52.176z"/>
			<path fill="#FFFFFF" d="M136.868,36.126l0.409-0.334c-0.665-0.816-1.357-1.629-2.057-2.415l-0.395,0.352
				C135.521,34.508,136.207,35.316,136.868,36.126z"/>
			<path fill="#FFFFFF" d="M115.025,144.638c0.929-0.49,1.861-1.008,2.769-1.538l-0.267-0.456c-0.9,0.527-1.826,1.041-2.748,1.527
				L115.025,144.638z"/>
			<path fill="#FFFFFF" d="M140.624,41.176l0.438-0.297c-0.591-0.871-1.208-1.74-1.835-2.585l-0.424,0.315
				C139.425,39.448,140.038,40.311,140.624,41.176z"/>
			<path fill="#FFFFFF" d="M81.781,9.821l0.001-0.527c-1.053-0.003-2.121,0.02-3.175,0.064l0.022,0.526
				C79.676,9.84,80.735,9.819,81.781,9.821z"/>
			<path fill="#FFFFFF" d="M72.196,10.448l0.153-0.021c1.041-0.135,2.096-0.249,3.135-0.339l-0.046-0.526
				c-1.046,0.091-2.108,0.206-3.158,0.343l-0.152,0.021L72.196,10.448z"/>
			<path fill="#FFFFFF" d="M88.077,10.111l0.048-0.526c-1.05-0.094-2.116-0.168-3.168-0.216l-0.024,0.527
				C85.977,9.944,87.035,10.016,88.077,10.111z"/>
			<path fill="#FFFFFF" d="M106.49,14.313l0.186-0.494c-0.992-0.371-2.003-0.725-3.004-1.049l-0.164,0.502
				C104.502,13.594,105.505,13.944,106.49,14.313z"/>
			<path fill="#FFFFFF" d="M100.482,12.366l0.14-0.51c-1.015-0.28-2.054-0.541-3.087-0.777l-0.117,0.516
				C98.442,11.827,99.474,12.087,100.482,12.366z"/>
			<path fill="#FFFFFF" d="M94.322,10.959l0.095-0.52c-1.039-0.188-2.095-0.355-3.137-0.498l-0.071,0.523
				C92.244,10.606,93.292,10.772,94.322,10.959z"/>
			<path fill="#FFFFFF" d="M143.916,46.535l0.46-0.257c-0.511-0.92-1.048-1.84-1.597-2.735l-0.45,0.276
				C142.873,44.707,143.408,45.621,143.916,46.535z"/>
			<path fill="#FFFFFF" d="M134.934,129.124c0.703-0.785,1.4-1.594,2.069-2.408l-0.408-0.335c-0.664,0.808-1.355,1.612-2.056,2.39
				L134.934,129.124z"/>
			<path fill="#FFFFFF" d="M138.966,124.221c0.632-0.842,1.256-1.71,1.852-2.581l-0.435-0.299c-0.593,0.865-1.211,1.727-1.839,2.563
				L138.966,124.221z"/>
			<path fill="#FFFFFF" d="M142.555,118.98c0.557-0.896,1.101-1.815,1.618-2.735l-0.46-0.259c-0.514,0.912-1.055,1.825-1.606,2.714
				L142.555,118.98z"/>
			<path fill="#FFFFFF" d="M120.494,141.44c0.882-0.571,1.765-1.169,2.622-1.779l-0.304-0.431c-0.854,0.606-1.73,1.2-2.606,1.767
				L120.494,141.44z"/>
			<path fill="#FFFFFF" d="M145.67,113.441c0.477-0.941,0.938-1.905,1.373-2.866l-0.482-0.218c-0.431,0.954-0.889,1.911-1.361,2.847
				L145.67,113.441z"/>
			<path fill="#FFFFFF" d="M125.66,137.768c0.829-0.646,1.655-1.32,2.459-2.005l-0.344-0.402c-0.797,0.68-1.617,1.35-2.439,1.991
				L125.66,137.768z"/>
			<path fill="#FFFFFF" d="M130.485,133.651c0.771-0.72,1.536-1.465,2.272-2.215l-0.377-0.37c-0.73,0.745-1.49,1.485-2.256,2.198
				L130.485,133.651z"/>
			<path fill="#FFFFFF" d="M152.008,70.28l0.523-0.08c-0.16-1.046-0.346-2.098-0.549-3.127l-0.519,0.103
				C151.666,68.196,151.85,69.241,152.008,70.28z"/>
			<path fill="#FFFFFF" d="M148.285,107.647c0.391-0.979,0.766-1.981,1.113-2.979l-0.5-0.173c-0.345,0.99-0.717,1.984-1.105,2.957
				L148.285,107.647z"/>
			<path fill="#FFFFFF" d="M149.019,58.047l0.5-0.17c-0.339-0.998-0.706-2.002-1.09-2.983l-0.492,0.192
				C148.317,56.06,148.682,57.056,149.019,58.047z"/>
			<path fill="#FFFFFF" d="M150.784,64.098l0.512-0.126c-0.249-1.022-0.524-2.054-0.819-3.067l-0.508,0.148
				C150.262,62.059,150.536,63.083,150.784,64.098z"/>
			<path fill="#FFFFFF" d="M153.218,76.513c-0.066-1.046-0.159-2.11-0.274-3.163l-0.525,0.057c0.114,1.045,0.205,2.102,0.273,3.141
				L153.218,76.513z"/>
			<path fill="#FFFFFF" d="M151.928,95.467c0.211-1.031,0.401-2.082,0.566-3.125l-0.521-0.082c-0.164,1.033-0.352,2.078-0.561,3.103
				L151.928,95.467z"/>
			<path fill="#FFFFFF" d="M152.92,89.196c0.119-1.047,0.215-2.111,0.286-3.163l-0.528-0.035c-0.07,1.044-0.164,2.1-0.283,3.14
				L152.92,89.196z"/>
			<path fill="#FFFFFF" d="M153.35,82.86c0.025-1.053,0.026-2.122,0.005-3.175l-0.527,0.012c0.021,1.044,0.02,2.104-0.005,3.151
				L153.35,82.86z"/>
		</g>
	</g>
	<path fill="#E7A579" d="M104.416,118.445c-2.627-4.485-9.99-5.457-6.101-8.298c-0.11,0.08,1.486-1.322,1.874-1.76
		c0.164-0.187,0.282-0.313,0.38-0.414c0.056-0.106,0.124-0.23,0.221-0.403c0.166-0.286,0.787-1.876,0.596-1.212
		c0.164-0.52,0.319-1.04,0.424-1.576c0.047-0.27,0.082-0.461,0.108-0.584c0.028-0.31,0.061-0.618,0.079-0.928
		c0.046-0.835,0.086-1.668,0.094-2.505c0.022-1.837,0.007-3.675,0.005-5.513c-0.006-2.426,0.797-4.332,2.053-5.729
		c-2.271-1.464-4.734-1.658-5.623-0.398l-0.315,0.446l-1.385,1.966l-0.081,0.114l-1.037-0.729l1.374-1.947l1.395-1.977l1.121-1.594
		c0.934-1.32-0.22-3.737-2.568-5.395c-2.352-1.658-5.014-1.932-5.946-0.611l-1.124,1.592l-1.395,1.978l-1.372,1.945l-1.036-0.731
		l6.267-8.885l-0.009-0.006c0.051-0.069,0.105-0.131,0.156-0.202l8.241-11.684c1.508-2.137,0.821-5.214-1.527-6.87
		c-2.353-1.658-5.481-1.272-6.988,0.865l-8.241,11.684c-0.05,0.072-0.089,0.143-0.134,0.217l-0.013-0.01L65.763,95.014l-4.789,9.384
		L59.63,78.43c0.727-3.061,1.179-6.027-1.352-7.813c-2.525-1.783-6.024-1.18-7.809,1.35l-1.482,21.75c0,0-2.507,5.939-0.766,15.227
		l4.083,8.213c-19.983,41.281-12.312,30.873-15.053,34.68l36.988,10.99c0.98-3.92,13.063-29.889,13.063-29.889
		c1.399-0.444,5.34-1.634,7.325-2.68c0.947-0.498,2.509-1.496,4.399-3.827C102.457,121.74,105.277,119.915,104.416,118.445z"/>
	<path fill="#E7A579" d="M116.27,49.024c-2.353-1.66-5.481-1.273-6.988,0.863l-8.24,11.684c-0.052,0.072-0.092,0.143-0.135,0.219
		l-0.013-0.011L82.748,87.502l-0.077-0.056c0.017,0.103,0.033,0.206,0.049,0.308c0.612,3.799,0.887,8.215,2.223,11.891
		c0.005,0.005,0.009,0.01,0.012,0.015c0.018,0.007,0.034,0.016,0.052,0.024c0.023-0.16,0.239,0.033,0.358,0.189
		c0.023,0.014,0.049,0.027,0.07,0.039c0.07,0.021,0.129,0.039,0.215,0.064c0.502,0.163,1.009,0.311,1.518,0.443
		c0.038,0.01,0.073,0.017,0.11,0.025c0.003-0.004,0.009-0.01,0.009-0.013c0.559-0.763,1.115-1.528,1.658-2.302
		c3.375-4.81,6.499-9.785,9.459-14.859c1.465-2.512,3.697-3.833,6.05-4.184c-0.079-0.678-0.083-1.369-0.015-2.059l-0.262,0.372
		l-1.037-0.731l2.57-3.643c0.266-0.459,0.564-0.887,0.897-1.273l2.8-3.969l-0.008-0.007c0.049-0.069,0.104-0.13,0.155-0.202
		l8.241-11.682C119.305,53.756,118.617,50.68,116.27,49.024z"/>
	<g>
		<polygon fill="#FFFFFF" points="67.043,190.243 86.731,145.806 42.196,124.108 12.487,190.243 		"/>
		<path fill="#0C171B" d="M74.738,148.505c1.09,0.594,2.457,0.197,3.05-0.895c0.595-1.09,0.192-2.455-0.897-3.047
			c-1.085-0.596-2.457-0.197-3.049,0.895C73.248,146.546,73.648,147.911,74.738,148.505z"/>
		<polygon fill="#0C171B" points="65.218,199.325 83.82,157.581 34.672,133.54 5.05,199.325 		"/>
	</g>
	<path fill="#F2CCA0" d="M76.44,123.153c0.172-0.695,0.321-1.392,0.441-2.086c-0.125-0.373,0.257-7.791-8.396-13.854
		c-4.007-2.807-8.73-2.18-10.894-1.98v17.92H76.44z"/>
	<path fill="#FFFFFF" d="M82.535,125.069c-1.212,0-2.194-0.984-2.194-2.199c0-1.207,0.982-2.193,2.194-2.193
		c1.213,0,2.198,0.986,2.198,2.193C84.733,124.085,83.749,125.069,82.535,125.069z"/>
	<path fill="#0C171B" d="M54.549,46.04c0-2.994,2.43-5.423,5.427-5.423H105.1c2.997,0,5.426,2.429,5.426,5.423v74.473
		c0,2.996-2.429,5.423-5.426,5.423H59.976c-2.997,0-5.427-2.427-5.427-5.423V46.04z"/>
	<rect x="59.831" y="46.901" fill="#FFFFFF" width="45.412" height="72.754"/>
	<g>
		<polygon fill="#E7E8E8" points="78.458,46.893 93.721,62.081 105.24,50.618 105.24,46.893 		"/>
		<polygon fill="#58AE5C" points="105.24,59.985 98.428,66.764 105.24,73.542 		"/>
		<polygon fill="#E7E8E8" points="59.835,46.893 59.835,74.529 70.523,85.165 89.687,66.094 70.39,46.893 		"/>
		<polygon fill="#E7E8E8" points="105.24,81.571 94.394,70.778 75.23,89.848 104.816,119.288 105.24,118.866 		"/>
		<polygon fill="#58AE5C" points="59.835,110.365 73.26,97.004 59.835,83.646 		"/>
		<polygon fill="#E7E8E8" points="96.035,119.669 78.123,101.845 60.209,119.669 		"/>
	</g>
	<g>
		<path fill="#D86545" d="M85.986,71.865c0-4.249-3.444-7.694-7.694-7.694c-4.249,0-7.694,3.445-7.694,7.694
			c0,5.857,7.676,13.497,7.676,13.497S85.986,77.66,85.986,71.865z"/>
		<circle fill="#FFFFFF" cx="78.292" cy="71.864" r="5.039"/>
	</g>
	<g>
		<path fill="#E7A579" d="M130.879,102.104c-2.449,1.506-3.748,3.839-2.902,5.213l0.428,0.701l-1.078,0.664l-0.076-0.121
			l-1.256-2.046l-0.287-0.466c-0.845-1.373-3.514-1.269-5.964,0.236c-2.452,1.507-3.75,3.842-2.907,5.216l0.287,0.466l1.258,2.046
			l0.074,0.12l-1.08,0.664l-1.245-2.028l-1.265-2.058l-1.021-1.66c-0.846-1.375-3.52-1.268-5.966,0.235
			c-2.448,1.505-3.75,3.842-2.903,5.217l1.019,1.659l1.266,2.061l1.246,2.025l-1.08,0.664l-5.688-9.256l-0.009,0.007
			c-0.046-0.074-0.079-0.149-0.124-0.224l-6.722-10.892c-1.369-2.227-4.465-2.809-6.911-1.305c-2.45,1.505-3.328,4.53-1.959,6.756
			l6.723,10.892c0.045,0.076,0.094,0.14,0.147,0.209l-0.014,0.009l16.467,26.792l-1.428,0.877l-4.33-7.045
			c-1.619-2.637-5.069-3.457-7.705-1.838c-2.631,1.616-3.457,5.066-1.837,7.701l10,14.113c0,0,2.879,2.883,4.924,2.945l15.403,4.328
			c1.749,2.895,4.013,6.656,6.429,10.674l30.922-16.988c-5.499-8.943-10.304-16.827-10.304-16.827
			c0.143-1.46,0.603-8.319,0.425-10.556c-0.221-2.77-4.871-12.467-9.971-20.95l-1.386-2.56l-1.427-2.322l-0.41-0.665l-0.99-1.614
			l-0.807-1.31C136.001,100.492,133.33,100.598,130.879,102.104z"/>
		<g>
			<polygon fill="#FFFFFF" points="189.134,190.243 163.861,149.122 122.999,174.235 132.836,190.243 			"/>
			<path fill="#0C171B" d="M160.165,160.64c1.061-0.574,1.464-1.9,0.889-2.963c-0.574-1.064-1.9-1.459-2.96-0.885
				c-1.063,0.57-1.467,1.898-0.892,2.961C157.775,160.815,159.103,161.212,160.165,160.64z"/>
			<polygon fill="#0C171B" points="198.101,199.325 171.286,157.331 126.192,185.046 135.732,199.325 			"/>
		</g>
	</g>
	<g>
		<path fill="#E7A579" d="M114.635,97.778c0.559,2.104-0.635,4.244-2.663,4.782l-9.325,2.473c-2.029,0.536-4.127-0.731-4.684-2.835
			l0,0c-0.556-2.102,0.636-4.244,2.665-4.781l9.325-2.473C111.98,94.408,114.078,95.676,114.635,97.778L114.635,97.778z"/>
		<path fill="#E7A579" d="M113.624,76.262c1.122,2.379,0.312,5.119-1.811,6.119l-9.748,4.596c-2.124,1-4.752-0.119-5.874-2.499l0,0
			C95.07,82.1,95.879,79.36,98,78.36l9.751-4.596C109.873,72.764,112.502,73.883,113.624,76.262L113.624,76.262z"/>
		<path fill="#E7A579" d="M114.432,88.557c0.541,2.188-0.674,4.367-2.712,4.871l-9.364,2.311c-2.04,0.502-4.129-0.861-4.669-3.049
			l0,0c-0.538-2.186,0.675-4.367,2.712-4.871l9.367-2.31C111.802,85.006,113.894,86.372,114.432,88.557L114.432,88.557z"/>
	</g>
</g>
</svg>
