<?xml version="1.0" encoding="utf-8"?>
<!-- Generator: Adobe Illustrator 16.0.0, SVG Export Plug-In . SVG Version: 6.00 Build 0)  -->
<!DOCTYPE svg PUBLIC "-//W3C//DTD SVG 1.1//EN" "http://www.w3.org/Graphics/SVG/1.1/DTD/svg11.dtd">
<svg version="1.1" id="Layer_1" xmlns="http://www.w3.org/2000/svg" xmlns:xlink="http://www.w3.org/1999/xlink" x="0px" y="0px"
	 width="188px" height="53px" viewBox="0 0 188 53" enable-background="new 0 0 188 53" xml:space="preserve">
<g>
	<path fill="#00B0F0" d="M21.193,28.57c0,0.112-0.036,0.212-0.109,0.302c-0.073,0.09-0.193,0.162-0.36,0.218
		c-0.167,0.056-0.392,0.101-0.67,0.134c-0.28,0.034-0.632,0.05-1.056,0.05c-0.436,0-0.796-0.017-1.081-0.05
		c-0.285-0.034-0.509-0.078-0.671-0.134c-0.162-0.056-0.279-0.128-0.352-0.218c-0.073-0.089-0.109-0.19-0.109-0.302v-8.767H8.671
		v8.767c0,0.112-0.033,0.212-0.101,0.302c-0.067,0.09-0.184,0.162-0.352,0.218c-0.167,0.056-0.391,0.101-0.67,0.134
		s-0.637,0.05-1.073,0.05c-0.425,0-0.779-0.017-1.064-0.05c-0.285-0.034-0.511-0.078-0.679-0.134
		c-0.167-0.056-0.288-0.128-0.36-0.218c-0.073-0.089-0.109-0.19-0.109-0.302V8.085c0-0.111,0.036-0.212,0.109-0.302
		c0.072-0.089,0.193-0.162,0.36-0.218C4.899,7.51,5.126,7.465,5.411,7.432c0.285-0.033,0.64-0.05,1.064-0.05
		c0.436,0,0.793,0.017,1.073,0.05c0.279,0.034,0.503,0.079,0.67,0.134C8.386,7.622,8.503,7.694,8.57,7.784
		c0.067,0.09,0.101,0.19,0.101,0.302v7.962h8.113V8.085c0-0.111,0.036-0.212,0.109-0.302c0.073-0.089,0.19-0.162,0.352-0.218
		c0.162-0.056,0.386-0.101,0.671-0.134c0.285-0.033,0.645-0.05,1.081-0.05c0.424,0,0.776,0.017,1.056,0.05
		c0.279,0.034,0.503,0.079,0.67,0.134c0.167,0.056,0.288,0.128,0.36,0.218c0.073,0.09,0.109,0.19,0.109,0.302V28.57z"/>
	<path fill="#00B0F0" d="M38.409,28.654c0,0.157-0.056,0.279-0.168,0.369s-0.288,0.153-0.528,0.193
		c-0.241,0.039-0.595,0.059-1.064,0.059c-0.503,0-0.869-0.02-1.098-0.059c-0.229-0.04-0.391-0.104-0.486-0.193
		c-0.095-0.089-0.143-0.212-0.143-0.369v-1.19c-0.615,0.66-1.316,1.173-2.104,1.542c-0.788,0.369-1.662,0.553-2.623,0.553
		c-0.794,0-1.523-0.104-2.188-0.311c-0.665-0.207-1.241-0.514-1.727-0.922c-0.486-0.408-0.863-0.914-1.132-1.517
		c-0.268-0.604-0.402-1.307-0.402-2.112c0-0.872,0.17-1.629,0.512-2.271c0.34-0.643,0.849-1.173,1.525-1.592
		c0.676-0.419,1.517-0.729,2.522-0.931s2.173-0.302,3.503-0.302h1.458v-0.905c0-0.469-0.048-0.88-0.143-1.232
		c-0.095-0.352-0.251-0.646-0.469-0.88c-0.218-0.235-0.509-0.408-0.872-0.52c-0.363-0.112-0.813-0.168-1.35-0.168
		c-0.704,0-1.333,0.079-1.886,0.235c-0.553,0.157-1.042,0.33-1.467,0.52c-0.425,0.19-0.779,0.363-1.064,0.52
		c-0.285,0.157-0.517,0.235-0.696,0.235c-0.123,0-0.232-0.039-0.327-0.117c-0.095-0.078-0.173-0.19-0.235-0.335
		c-0.062-0.145-0.109-0.324-0.142-0.537c-0.034-0.212-0.05-0.447-0.05-0.704c0-0.347,0.027-0.621,0.083-0.822
		s0.162-0.382,0.319-0.544c0.156-0.162,0.43-0.341,0.821-0.537c0.391-0.195,0.849-0.377,1.375-0.545
		c0.525-0.167,1.098-0.304,1.718-0.411c0.62-0.106,1.26-0.159,1.919-0.159c1.174,0,2.176,0.115,3.009,0.344
		c0.832,0.229,1.517,0.581,2.053,1.056c0.537,0.475,0.928,1.087,1.173,1.835s0.369,1.637,0.369,2.665V28.654z M34.268,22.25h-1.609
		c-0.682,0-1.263,0.05-1.743,0.151s-0.872,0.251-1.173,0.453s-0.522,0.444-0.662,0.729c-0.14,0.285-0.209,0.612-0.209,0.98
		c0,0.626,0.198,1.118,0.595,1.475c0.397,0.358,0.947,0.537,1.651,0.537c0.592,0,1.137-0.151,1.634-0.453
		c0.497-0.302,1.003-0.743,1.517-1.324V22.25z"/>
	<path fill="#00B0F0" d="M57.668,20.909c0,1.33-0.143,2.529-0.427,3.596c-0.285,1.067-0.702,1.976-1.249,2.724
		c-0.548,0.749-1.229,1.324-2.045,1.727c-0.816,0.402-1.749,0.604-2.799,0.604c-0.436,0-0.835-0.042-1.199-0.126
		s-0.715-0.212-1.056-0.385c-0.341-0.173-0.679-0.388-1.014-0.646c-0.335-0.257-0.682-0.559-1.039-0.905v7.041
		c0,0.111-0.034,0.212-0.101,0.302c-0.067,0.089-0.182,0.165-0.344,0.226s-0.377,0.109-0.646,0.143
		c-0.268,0.034-0.609,0.05-1.022,0.05s-0.754-0.017-1.022-0.05s-0.483-0.081-0.646-0.143s-0.276-0.137-0.343-0.226
		c-0.067-0.09-0.101-0.19-0.101-0.302V13.651c0-0.112,0.027-0.209,0.083-0.293s0.154-0.153,0.293-0.209
		c0.14-0.056,0.324-0.098,0.553-0.125s0.517-0.042,0.863-0.042c0.335,0,0.617,0.014,0.847,0.042c0.229,0.028,0.413,0.07,0.553,0.125
		c0.139,0.056,0.237,0.125,0.293,0.209s0.084,0.182,0.084,0.293v1.76c0.436-0.447,0.863-0.841,1.282-1.182
		c0.419-0.341,0.847-0.625,1.282-0.855c0.436-0.229,0.886-0.399,1.35-0.511c0.463-0.111,0.958-0.167,1.483-0.167
		c1.095,0,2.028,0.215,2.799,0.646c0.771,0.43,1.4,1.02,1.886,1.769c0.486,0.749,0.84,1.62,1.064,2.615
		C57.557,18.719,57.668,19.781,57.668,20.909z M53.277,21.211c0-0.637-0.048-1.249-0.143-1.835
		c-0.095-0.587-0.257-1.109-0.486-1.567c-0.229-0.458-0.531-0.824-0.905-1.098c-0.375-0.273-0.841-0.411-1.399-0.411
		c-0.28,0-0.556,0.042-0.83,0.126c-0.274,0.083-0.553,0.221-0.838,0.411s-0.578,0.436-0.88,0.737s-0.621,0.676-0.956,1.123v4.929
		c0.592,0.749,1.157,1.327,1.693,1.735c0.537,0.408,1.095,0.612,1.676,0.612c0.547,0,1.014-0.14,1.4-0.419
		c0.385-0.279,0.701-0.646,0.947-1.098c0.246-0.453,0.428-0.964,0.545-1.534C53.218,22.351,53.277,21.781,53.277,21.211z"/>
	<path fill="#00B0F0" d="M76.091,20.909c0,1.33-0.143,2.529-0.427,3.596c-0.285,1.067-0.702,1.976-1.249,2.724
		c-0.548,0.749-1.229,1.324-2.045,1.727c-0.816,0.402-1.749,0.604-2.799,0.604c-0.436,0-0.835-0.042-1.199-0.126
		s-0.715-0.212-1.056-0.385c-0.341-0.173-0.679-0.388-1.014-0.646c-0.335-0.257-0.682-0.559-1.039-0.905v7.041
		c0,0.111-0.034,0.212-0.101,0.302c-0.067,0.089-0.182,0.165-0.344,0.226s-0.377,0.109-0.646,0.143
		c-0.268,0.034-0.609,0.05-1.022,0.05s-0.754-0.017-1.022-0.05s-0.483-0.081-0.646-0.143s-0.276-0.137-0.343-0.226
		c-0.067-0.09-0.101-0.19-0.101-0.302V13.651c0-0.112,0.027-0.209,0.083-0.293s0.154-0.153,0.293-0.209
		c0.14-0.056,0.324-0.098,0.553-0.125s0.517-0.042,0.863-0.042c0.335,0,0.617,0.014,0.847,0.042c0.229,0.028,0.413,0.07,0.553,0.125
		c0.139,0.056,0.237,0.125,0.293,0.209s0.084,0.182,0.084,0.293v1.76c0.436-0.447,0.863-0.841,1.282-1.182
		c0.419-0.341,0.847-0.625,1.282-0.855c0.436-0.229,0.886-0.399,1.35-0.511c0.463-0.111,0.958-0.167,1.483-0.167
		c1.095,0,2.028,0.215,2.799,0.646c0.771,0.43,1.4,1.02,1.886,1.769c0.486,0.749,0.84,1.62,1.064,2.615
		C75.979,18.719,76.091,19.781,76.091,20.909z M71.699,21.211c0-0.637-0.048-1.249-0.143-1.835
		c-0.095-0.587-0.257-1.109-0.486-1.567c-0.229-0.458-0.531-0.824-0.905-1.098c-0.375-0.273-0.841-0.411-1.399-0.411
		c-0.28,0-0.556,0.042-0.83,0.126c-0.274,0.083-0.553,0.221-0.838,0.411s-0.578,0.436-0.88,0.737s-0.621,0.676-0.956,1.123v4.929
		c0.592,0.749,1.157,1.327,1.693,1.735c0.537,0.408,1.095,0.612,1.676,0.612c0.547,0,1.014-0.14,1.4-0.419
		c0.385-0.279,0.701-0.646,0.947-1.098c0.246-0.453,0.428-0.964,0.545-1.534C71.64,22.351,71.699,21.781,71.699,21.211z"/>
	<path fill="#00B0F0" d="M87.942,29.173l-1.81,5.297c-0.101,0.279-0.375,0.48-0.822,0.604c-0.447,0.123-1.101,0.185-1.961,0.185
		c-0.447,0-0.805-0.02-1.073-0.059c-0.269-0.04-0.47-0.104-0.604-0.193c-0.134-0.089-0.207-0.201-0.218-0.335
		c-0.012-0.134,0.022-0.296,0.101-0.486l1.995-5.012c-0.146-0.067-0.277-0.17-0.394-0.31s-0.204-0.288-0.26-0.444l-5.146-13.746
		c-0.146-0.391-0.218-0.69-0.218-0.897c0-0.207,0.067-0.369,0.201-0.486c0.134-0.118,0.36-0.198,0.679-0.243
		c0.318-0.044,0.74-0.067,1.266-0.067c0.48,0,0.86,0.008,1.14,0.025c0.279,0.017,0.497,0.059,0.654,0.126
		c0.156,0.067,0.273,0.17,0.352,0.31c0.078,0.14,0.156,0.338,0.234,0.595l3.521,10.007h0.05l3.218-10.208
		c0.067-0.291,0.153-0.483,0.26-0.579c0.106-0.095,0.282-0.165,0.528-0.209c0.246-0.044,0.676-0.067,1.291-0.067
		c0.48,0,0.88,0.022,1.199,0.067c0.318,0.045,0.553,0.128,0.704,0.251s0.226,0.288,0.226,0.495c0,0.207-0.045,0.45-0.134,0.729
		L87.942,29.173z"/>
	<path fill="#00B050" d="M107.706,27.33c0,0.335-0.014,0.618-0.042,0.846c-0.028,0.229-0.07,0.419-0.126,0.57
		c-0.056,0.151-0.125,0.26-0.209,0.327s-0.182,0.101-0.293,0.101h-9.94c-0.369,0-0.679-0.109-0.93-0.327
		c-0.251-0.218-0.377-0.573-0.377-1.064V8.085c0-0.111,0.036-0.212,0.109-0.302c0.072-0.089,0.193-0.162,0.36-0.218
		c0.167-0.056,0.394-0.101,0.679-0.134c0.285-0.033,0.64-0.05,1.064-0.05c0.436,0,0.793,0.017,1.073,0.05
		c0.279,0.034,0.503,0.079,0.67,0.134c0.168,0.056,0.288,0.128,0.361,0.218c0.072,0.09,0.109,0.19,0.109,0.302v17.45h6.822
		c0.112,0,0.209,0.031,0.293,0.092c0.084,0.062,0.153,0.162,0.209,0.302c0.056,0.14,0.098,0.324,0.126,0.553
		C107.691,26.712,107.706,26.994,107.706,27.33z"/>
	<path fill="#00B050" d="M125.172,20.976c0,1.274-0.167,2.437-0.502,3.487c-0.335,1.051-0.844,1.956-1.526,2.716
		s-1.537,1.347-2.564,1.76c-1.028,0.414-2.229,0.621-3.604,0.621c-1.33,0-2.487-0.185-3.47-0.553
		c-0.984-0.369-1.8-0.905-2.448-1.609s-1.129-1.57-1.441-2.598c-0.313-1.028-0.469-2.202-0.469-3.521
		c0-1.274,0.17-2.439,0.511-3.495c0.341-1.056,0.852-1.961,1.534-2.715s1.534-1.338,2.556-1.752c1.023-0.413,2.221-0.62,3.596-0.62
		c1.341,0,2.503,0.182,3.487,0.545s1.796,0.896,2.439,1.601s1.12,1.57,1.433,2.599S125.172,19.646,125.172,20.976z M120.831,21.144
		c0-0.738-0.059-1.417-0.176-2.037c-0.117-0.621-0.315-1.16-0.595-1.618c-0.28-0.458-0.651-0.816-1.115-1.073
		c-0.464-0.257-1.048-0.385-1.752-0.385c-0.626,0-1.173,0.115-1.643,0.344s-0.855,0.564-1.157,1.005
		c-0.302,0.442-0.528,0.973-0.679,1.593s-0.227,1.327-0.227,2.121c0,0.737,0.062,1.417,0.185,2.037s0.321,1.16,0.595,1.618
		c0.273,0.458,0.645,0.813,1.115,1.064c0.469,0.251,1.05,0.377,1.743,0.377c0.637,0,1.19-0.114,1.66-0.344
		c0.469-0.229,0.854-0.562,1.156-0.997c0.302-0.436,0.525-0.964,0.671-1.584C120.758,22.644,120.831,21.938,120.831,21.144z"/>
	<path fill="#00B050" d="M139.823,26.223c0,0.291-0.008,0.534-0.025,0.729c-0.017,0.196-0.039,0.36-0.067,0.495
		c-0.028,0.134-0.062,0.243-0.101,0.327c-0.04,0.084-0.126,0.19-0.26,0.319c-0.134,0.128-0.363,0.285-0.688,0.469
		s-0.693,0.35-1.106,0.495s-0.863,0.262-1.349,0.352c-0.486,0.089-0.986,0.134-1.5,0.134c-1.151,0-2.171-0.179-3.059-0.536
		c-0.889-0.358-1.634-0.886-2.238-1.584c-0.604-0.698-1.059-1.55-1.366-2.556c-0.308-1.006-0.461-2.157-0.461-3.453
		c0-1.498,0.187-2.791,0.562-3.881c0.374-1.089,0.897-1.992,1.567-2.707c0.67-0.715,1.464-1.246,2.38-1.592
		c0.916-0.346,1.922-0.52,3.017-0.52c0.447,0,0.886,0.04,1.316,0.118s0.833,0.184,1.207,0.318c0.374,0.134,0.709,0.285,1.006,0.453
		c0.296,0.167,0.505,0.313,0.628,0.436s0.209,0.226,0.26,0.31c0.05,0.083,0.089,0.192,0.117,0.327s0.05,0.299,0.067,0.495
		c0.017,0.196,0.025,0.433,0.025,0.712c0,0.648-0.056,1.104-0.167,1.366c-0.112,0.263-0.257,0.394-0.436,0.394
		c-0.19,0-0.391-0.078-0.604-0.235c-0.212-0.156-0.464-0.33-0.754-0.52c-0.291-0.19-0.637-0.363-1.04-0.52
		c-0.402-0.156-0.883-0.234-1.441-0.234c-1.096,0-1.934,0.422-2.515,1.266s-0.872,2.082-0.872,3.713
		c0,0.805,0.073,1.515,0.218,2.129c0.145,0.615,0.36,1.129,0.646,1.542c0.285,0.414,0.643,0.724,1.073,0.931
		c0.43,0.207,0.93,0.31,1.5,0.31c0.581,0,1.081-0.086,1.5-0.26s0.785-0.366,1.098-0.579c0.313-0.212,0.575-0.405,0.788-0.578
		s0.391-0.26,0.537-0.26c0.101,0,0.185,0.028,0.251,0.083c0.067,0.056,0.12,0.16,0.159,0.311s0.07,0.343,0.092,0.578
		C139.812,25.553,139.823,25.854,139.823,26.223z"/>
	<path fill="#00B050" d="M155.413,28.654c0,0.157-0.056,0.279-0.168,0.369s-0.288,0.153-0.528,0.193
		c-0.241,0.039-0.595,0.059-1.064,0.059c-0.503,0-0.869-0.02-1.098-0.059c-0.229-0.04-0.391-0.104-0.486-0.193
		c-0.095-0.089-0.143-0.212-0.143-0.369v-1.19c-0.615,0.66-1.316,1.173-2.104,1.542c-0.788,0.369-1.662,0.553-2.623,0.553
		c-0.794,0-1.523-0.104-2.188-0.311c-0.665-0.207-1.241-0.514-1.727-0.922c-0.486-0.408-0.863-0.914-1.132-1.517
		c-0.268-0.604-0.402-1.307-0.402-2.112c0-0.872,0.17-1.629,0.512-2.271c0.34-0.643,0.849-1.173,1.525-1.592
		c0.676-0.419,1.517-0.729,2.522-0.931s2.173-0.302,3.503-0.302h1.458v-0.905c0-0.469-0.048-0.88-0.143-1.232
		c-0.095-0.352-0.251-0.646-0.469-0.88c-0.218-0.235-0.509-0.408-0.872-0.52c-0.363-0.112-0.813-0.168-1.35-0.168
		c-0.704,0-1.333,0.079-1.886,0.235c-0.553,0.157-1.042,0.33-1.467,0.52c-0.425,0.19-0.779,0.363-1.064,0.52
		c-0.285,0.157-0.517,0.235-0.696,0.235c-0.123,0-0.232-0.039-0.327-0.117c-0.095-0.078-0.173-0.19-0.235-0.335
		c-0.062-0.145-0.109-0.324-0.142-0.537c-0.034-0.212-0.05-0.447-0.05-0.704c0-0.347,0.027-0.621,0.083-0.822
		s0.162-0.382,0.319-0.544c0.156-0.162,0.43-0.341,0.821-0.537c0.391-0.195,0.849-0.377,1.375-0.545
		c0.525-0.167,1.098-0.304,1.718-0.411c0.62-0.106,1.26-0.159,1.919-0.159c1.174,0,2.176,0.115,3.009,0.344
		c0.832,0.229,1.517,0.581,2.053,1.056c0.537,0.475,0.928,1.087,1.173,1.835s0.369,1.637,0.369,2.665V28.654z M151.272,22.25h-1.609
		c-0.682,0-1.263,0.05-1.743,0.151s-0.872,0.251-1.173,0.453s-0.522,0.444-0.662,0.729c-0.14,0.285-0.209,0.612-0.209,0.98
		c0,0.626,0.198,1.118,0.595,1.475c0.397,0.358,0.947,0.537,1.651,0.537c0.592,0,1.137-0.151,1.634-0.453
		c0.497-0.302,1.003-0.743,1.517-1.324V22.25z"/>
	<path fill="#00B050" d="M168.152,27.128c0,0.492-0.031,0.869-0.092,1.131s-0.143,0.447-0.243,0.553
		c-0.101,0.106-0.249,0.201-0.444,0.285c-0.196,0.083-0.425,0.156-0.688,0.218c-0.263,0.061-0.548,0.109-0.855,0.143
		c-0.308,0.033-0.618,0.05-0.93,0.05c-0.838,0-1.565-0.106-2.179-0.319c-0.615-0.212-1.123-0.539-1.525-0.98
		s-0.699-0.998-0.889-1.668s-0.285-1.464-0.285-2.38V16.5h-1.794c-0.212,0-0.375-0.131-0.486-0.394
		c-0.112-0.262-0.167-0.701-0.167-1.316c0-0.324,0.014-0.598,0.042-0.821c0.028-0.223,0.07-0.399,0.126-0.528
		c0.056-0.128,0.125-0.221,0.209-0.277c0.084-0.056,0.182-0.083,0.293-0.083h1.777V9.745c0-0.112,0.031-0.212,0.092-0.302
		c0.061-0.089,0.173-0.165,0.335-0.227c0.162-0.061,0.38-0.106,0.654-0.134s0.612-0.042,1.014-0.042
		c0.414,0,0.757,0.014,1.031,0.042s0.489,0.073,0.646,0.134c0.156,0.062,0.268,0.137,0.335,0.227
		c0.067,0.089,0.101,0.19,0.101,0.302v3.336h3.252c0.111,0,0.209,0.028,0.293,0.083c0.083,0.056,0.153,0.148,0.209,0.277
		c0.056,0.128,0.098,0.305,0.125,0.528c0.028,0.224,0.042,0.498,0.042,0.821c0,0.615-0.056,1.054-0.167,1.316
		c-0.112,0.263-0.274,0.394-0.486,0.394h-3.269v7.024c0,0.816,0.128,1.428,0.385,1.835c0.257,0.408,0.715,0.612,1.375,0.612
		c0.224,0,0.425-0.02,0.604-0.059s0.338-0.084,0.478-0.134c0.14-0.05,0.257-0.095,0.352-0.134c0.095-0.039,0.181-0.059,0.26-0.059
		c0.067,0,0.131,0.02,0.193,0.059c0.061,0.04,0.109,0.118,0.142,0.235c0.034,0.117,0.064,0.277,0.092,0.478
		C168.138,26.558,168.152,26.815,168.152,27.128z"/>
	<path fill="#00B050" d="M184.597,20.691c0,0.514-0.115,0.894-0.344,1.14c-0.229,0.246-0.545,0.369-0.947,0.369h-9.102
		c0,0.637,0.075,1.215,0.226,1.735c0.151,0.52,0.391,0.961,0.721,1.324c0.329,0.363,0.754,0.64,1.274,0.83
		c0.52,0.19,1.143,0.285,1.869,0.285c0.737,0,1.385-0.053,1.944-0.159c0.559-0.106,1.042-0.224,1.45-0.352
		c0.408-0.128,0.746-0.246,1.014-0.352c0.269-0.106,0.486-0.159,0.654-0.159c0.101,0,0.185,0.02,0.251,0.059
		c0.067,0.039,0.123,0.109,0.168,0.209c0.044,0.101,0.075,0.243,0.092,0.427c0.017,0.185,0.025,0.417,0.025,0.696
		c0,0.246-0.006,0.456-0.017,0.628c-0.011,0.174-0.028,0.322-0.05,0.444c-0.023,0.123-0.056,0.227-0.101,0.31
		c-0.045,0.084-0.104,0.165-0.176,0.243c-0.073,0.079-0.271,0.185-0.595,0.318c-0.324,0.134-0.737,0.266-1.24,0.394
		s-1.079,0.24-1.727,0.335c-0.648,0.095-1.341,0.143-2.079,0.143c-1.33,0-2.495-0.168-3.495-0.503c-1-0.335-1.835-0.844-2.506-1.525
		s-1.171-1.542-1.5-2.582c-0.33-1.04-0.495-2.257-0.495-3.654c0-1.33,0.173-2.528,0.52-3.596c0.346-1.067,0.849-1.972,1.508-2.716
		c0.66-0.743,1.461-1.31,2.406-1.701c0.944-0.391,2.008-0.587,3.193-0.587c1.251,0,2.321,0.185,3.21,0.553
		c0.888,0.369,1.618,0.88,2.188,1.534s0.989,1.428,1.257,2.322c0.268,0.894,0.402,1.866,0.402,2.917V20.691z M180.506,19.484
		c0.034-1.185-0.204-2.115-0.712-2.791c-0.509-0.676-1.293-1.014-2.355-1.014c-0.537,0-1.003,0.101-1.4,0.302
		c-0.397,0.201-0.727,0.472-0.989,0.813c-0.263,0.341-0.464,0.743-0.604,1.207c-0.14,0.464-0.221,0.958-0.243,1.483H180.506z"/>
</g>
<g>
	<path fill="#333333" d="M13.601,43.128c0,0.864-0.102,1.643-0.306,2.336s-0.507,1.284-0.912,1.771
		c-0.405,0.487-0.912,0.861-1.523,1.123s-1.324,0.392-2.138,0.392c-0.803,0-1.498-0.12-2.084-0.359s-1.07-0.587-1.453-1.044
		c-0.383-0.457-0.667-1.023-0.854-1.7s-0.28-1.456-0.28-2.336c0-0.842,0.102-1.607,0.305-2.294c0.204-0.688,0.509-1.272,0.916-1.754
		c0.407-0.481,0.917-0.853,1.527-1.114c0.611-0.261,1.323-0.392,2.138-0.392c0.787,0,1.472,0.119,2.055,0.355
		c0.583,0.237,1.069,0.582,1.457,1.036c0.388,0.454,0.677,1.015,0.867,1.684C13.506,41.498,13.601,42.264,13.601,43.128z
		 M12.098,43.227c0-0.605-0.054-1.168-0.161-1.688c-0.107-0.52-0.286-0.971-0.536-1.354c-0.25-0.382-0.584-0.681-1.002-0.896
		c-0.417-0.215-0.934-0.322-1.55-0.322c-0.615,0-1.132,0.116-1.55,0.347c-0.417,0.231-0.757,0.54-1.018,0.925
		c-0.261,0.385-0.448,0.835-0.561,1.349c-0.113,0.515-0.169,1.056-0.169,1.622c0,0.627,0.052,1.205,0.157,1.733
		s0.28,0.984,0.527,1.366c0.248,0.382,0.579,0.68,0.994,0.892s0.936,0.317,1.562,0.317c0.621,0,1.143-0.115,1.566-0.347
		c0.423-0.231,0.764-0.543,1.022-0.937c0.258-0.394,0.442-0.849,0.552-1.366C12.043,44.353,12.098,43.805,12.098,43.227z"/>
	<path fill="#333333" d="M21.24,48.386c0,0.044-0.011,0.082-0.033,0.112s-0.058,0.056-0.107,0.078s-0.119,0.039-0.207,0.05
		c-0.088,0.011-0.198,0.016-0.33,0.016c-0.138,0-0.25-0.005-0.338-0.016c-0.088-0.011-0.157-0.028-0.207-0.05
		c-0.049-0.022-0.085-0.048-0.107-0.078s-0.033-0.067-0.033-0.112v-4.35c0-0.424-0.033-0.765-0.099-1.024
		c-0.066-0.258-0.162-0.481-0.289-0.668c-0.127-0.187-0.291-0.33-0.491-0.429c-0.201-0.099-0.434-0.148-0.698-0.148
		c-0.341,0-0.682,0.121-1.023,0.363s-0.699,0.597-1.073,1.064v5.192c0,0.044-0.011,0.082-0.033,0.112s-0.058,0.056-0.107,0.078
		c-0.049,0.022-0.118,0.039-0.206,0.05c-0.088,0.011-0.201,0.016-0.338,0.016c-0.132,0-0.243-0.005-0.331-0.016
		c-0.088-0.011-0.158-0.028-0.21-0.05s-0.088-0.048-0.107-0.078c-0.02-0.03-0.029-0.067-0.029-0.112v-7.429
		c0-0.044,0.008-0.081,0.025-0.111s0.05-0.058,0.099-0.083s0.113-0.042,0.19-0.049c0.077-0.008,0.179-0.013,0.305-0.013
		c0.121,0,0.222,0.004,0.301,0.013c0.08,0.008,0.142,0.024,0.186,0.049c0.044,0.025,0.075,0.052,0.095,0.083
		c0.019,0.03,0.029,0.067,0.029,0.111v0.982c0.418-0.468,0.835-0.81,1.25-1.028c0.416-0.217,0.835-0.326,1.259-0.326
		c0.495,0,0.912,0.083,1.25,0.251s0.612,0.392,0.821,0.673s0.359,0.609,0.45,0.986s0.136,0.83,0.136,1.358V48.386z"/>
	<path fill="#333333" d="M29.219,44.35c0,0.215-0.054,0.367-0.162,0.458s-0.231,0.136-0.369,0.136h-4.892
		c0,0.413,0.042,0.784,0.124,1.114c0.083,0.33,0.221,0.614,0.415,0.85c0.193,0.237,0.445,0.418,0.755,0.545
		c0.31,0.127,0.688,0.19,1.136,0.19c0.354,0,0.669-0.029,0.945-0.087c0.276-0.058,0.516-0.122,0.718-0.194
		c0.202-0.071,0.368-0.136,0.498-0.194s0.228-0.087,0.294-0.087c0.039,0,0.073,0.01,0.104,0.029
		c0.031,0.019,0.054,0.048,0.071,0.086c0.016,0.039,0.029,0.092,0.037,0.161s0.013,0.152,0.013,0.251
		c0,0.072-0.003,0.134-0.008,0.186c-0.006,0.052-0.013,0.099-0.021,0.14c-0.008,0.042-0.022,0.079-0.041,0.111
		c-0.02,0.033-0.044,0.065-0.074,0.095s-0.12,0.08-0.269,0.148c-0.148,0.069-0.341,0.136-0.578,0.202
		c-0.237,0.066-0.51,0.125-0.821,0.178c-0.311,0.052-0.643,0.078-0.995,0.078c-0.611,0-1.146-0.085-1.605-0.256
		s-0.846-0.424-1.16-0.759s-0.55-0.756-0.71-1.263s-0.239-1.095-0.239-1.767c0-0.638,0.083-1.212,0.248-1.721
		c0.165-0.509,0.403-0.941,0.714-1.296c0.311-0.355,0.687-0.627,1.127-0.817c0.44-0.19,0.933-0.285,1.478-0.285
		c0.583,0,1.08,0.093,1.49,0.28c0.41,0.188,0.747,0.439,1.011,0.755s0.458,0.688,0.582,1.114c0.124,0.427,0.186,0.882,0.186,1.366
		V44.35z M27.849,43.945c0.017-0.715-0.143-1.277-0.478-1.684c-0.335-0.407-0.832-0.611-1.491-0.611
		c-0.338,0-0.634,0.063-0.889,0.19c-0.255,0.126-0.468,0.294-0.64,0.503c-0.171,0.209-0.304,0.453-0.398,0.73
		s-0.147,0.568-0.158,0.871H27.849z"/>
	<path fill="#333333" d="M39.315,45.596c0,0.5-0.092,0.946-0.276,1.337c-0.185,0.391-0.44,0.722-0.768,0.995
		c-0.328,0.272-0.713,0.478-1.156,0.615c-0.443,0.137-0.92,0.206-1.432,0.206c-0.358,0-0.689-0.03-0.995-0.091
		c-0.305-0.061-0.578-0.135-0.817-0.223c-0.24-0.088-0.44-0.179-0.603-0.272c-0.163-0.094-0.275-0.173-0.338-0.239
		c-0.063-0.066-0.11-0.15-0.141-0.252c-0.03-0.102-0.045-0.238-0.045-0.409c0-0.121,0.005-0.221,0.017-0.301
		c0.011-0.08,0.027-0.144,0.049-0.194c0.022-0.049,0.05-0.084,0.083-0.103c0.033-0.02,0.072-0.029,0.116-0.029
		c0.077,0,0.186,0.046,0.326,0.14s0.32,0.195,0.541,0.305c0.22,0.11,0.486,0.213,0.796,0.31c0.311,0.097,0.67,0.145,1.077,0.145
		c0.308,0,0.59-0.041,0.846-0.124s0.476-0.2,0.66-0.351c0.185-0.151,0.326-0.337,0.425-0.557c0.099-0.22,0.148-0.47,0.148-0.751
		c0-0.303-0.069-0.562-0.206-0.776c-0.138-0.215-0.319-0.403-0.545-0.565s-0.483-0.311-0.772-0.446
		c-0.289-0.135-0.584-0.272-0.887-0.413c-0.303-0.141-0.597-0.296-0.883-0.466c-0.286-0.171-0.542-0.372-0.768-0.603
		c-0.226-0.231-0.408-0.502-0.549-0.813c-0.14-0.311-0.21-0.684-0.21-1.119c0-0.446,0.081-0.843,0.244-1.193
		c0.162-0.349,0.388-0.642,0.677-0.879s0.633-0.417,1.032-0.541c0.399-0.124,0.83-0.186,1.292-0.186
		c0.236,0,0.475,0.021,0.714,0.062c0.239,0.042,0.465,0.096,0.677,0.165s0.4,0.146,0.565,0.231c0.165,0.085,0.273,0.154,0.326,0.207
		c0.052,0.052,0.086,0.094,0.103,0.124s0.03,0.069,0.041,0.115c0.011,0.047,0.02,0.104,0.025,0.169s0.008,0.151,0.008,0.256
		c0,0.099-0.004,0.187-0.012,0.264s-0.021,0.142-0.037,0.194c-0.017,0.052-0.04,0.091-0.07,0.116
		c-0.03,0.024-0.065,0.037-0.103,0.037c-0.061,0-0.156-0.039-0.285-0.116c-0.129-0.077-0.288-0.164-0.475-0.26
		s-0.408-0.185-0.664-0.264s-0.543-0.12-0.863-0.12c-0.297,0-0.556,0.04-0.776,0.12s-0.402,0.186-0.545,0.318
		c-0.143,0.132-0.25,0.289-0.322,0.47c-0.071,0.182-0.107,0.375-0.107,0.578c0,0.297,0.069,0.553,0.207,0.768
		c0.138,0.214,0.32,0.404,0.549,0.569s0.488,0.316,0.78,0.454c0.292,0.138,0.588,0.276,0.891,0.417
		c0.303,0.141,0.6,0.294,0.892,0.462s0.552,0.366,0.78,0.594c0.229,0.229,0.413,0.498,0.553,0.809S39.315,45.172,39.315,45.596z"/>
	<path fill="#333333" d="M44.207,47.841c0,0.16-0.011,0.286-0.033,0.379c-0.022,0.094-0.055,0.163-0.099,0.207
		s-0.11,0.085-0.198,0.124c-0.088,0.039-0.188,0.07-0.301,0.095s-0.232,0.045-0.359,0.062c-0.126,0.016-0.253,0.024-0.379,0.024
		c-0.385,0-0.716-0.051-0.991-0.152c-0.275-0.102-0.501-0.256-0.677-0.462c-0.176-0.207-0.304-0.468-0.384-0.784
		c-0.08-0.316-0.12-0.689-0.12-1.119v-4.341h-1.04c-0.083,0-0.149-0.044-0.198-0.132c-0.049-0.088-0.074-0.231-0.074-0.429
		c0-0.104,0.007-0.192,0.021-0.264c0.014-0.071,0.032-0.13,0.054-0.177s0.051-0.08,0.086-0.099c0.036-0.019,0.076-0.029,0.12-0.029
		h1.032v-1.767c0-0.039,0.009-0.074,0.029-0.107c0.019-0.033,0.055-0.062,0.107-0.086c0.052-0.025,0.122-0.042,0.21-0.054
		c0.088-0.011,0.198-0.017,0.33-0.017c0.137,0,0.25,0.006,0.338,0.017c0.088,0.011,0.157,0.029,0.207,0.054
		c0.049,0.025,0.085,0.054,0.107,0.086c0.022,0.033,0.033,0.069,0.033,0.107v1.767h1.907c0.044,0,0.083,0.01,0.115,0.029
		c0.033,0.02,0.062,0.052,0.087,0.099s0.042,0.106,0.054,0.177c0.011,0.072,0.017,0.16,0.017,0.264c0,0.198-0.025,0.341-0.074,0.429
		c-0.05,0.088-0.116,0.132-0.198,0.132h-1.907v4.144c0,0.512,0.076,0.898,0.227,1.16s0.422,0.392,0.813,0.392
		c0.126,0,0.239-0.013,0.338-0.037c0.099-0.025,0.187-0.051,0.264-0.079c0.077-0.027,0.143-0.054,0.198-0.078
		c0.055-0.025,0.104-0.037,0.148-0.037c0.027,0,0.054,0.007,0.078,0.021c0.025,0.014,0.044,0.04,0.058,0.078
		c0.014,0.039,0.026,0.091,0.037,0.157C44.201,47.66,44.207,47.742,44.207,47.841z"/>
	<path fill="#333333" d="M52.069,44.589c0,0.605-0.08,1.163-0.239,1.671c-0.16,0.509-0.397,0.948-0.714,1.317
		s-0.713,0.656-1.188,0.862c-0.476,0.207-1.028,0.31-1.655,0.31c-0.611,0-1.143-0.091-1.597-0.272
		c-0.454-0.182-0.832-0.446-1.135-0.792c-0.303-0.346-0.528-0.768-0.677-1.263s-0.223-1.057-0.223-1.684
		c0-0.605,0.079-1.163,0.235-1.672c0.157-0.509,0.394-0.948,0.71-1.316s0.711-0.655,1.185-0.858
		c0.473-0.204,1.026-0.305,1.659-0.305c0.61,0,1.143,0.09,1.597,0.272c0.454,0.182,0.832,0.446,1.135,0.792s0.529,0.768,0.681,1.263
		C51.994,43.409,52.069,43.967,52.069,44.589z M50.658,44.68c0-0.401-0.038-0.781-0.113-1.139c-0.075-0.357-0.198-0.671-0.371-0.941
		c-0.172-0.27-0.405-0.483-0.7-0.64c-0.294-0.157-0.661-0.235-1.099-0.235c-0.405,0-0.754,0.072-1.045,0.215
		s-0.532,0.345-0.72,0.606c-0.189,0.262-0.329,0.571-0.421,0.929c-0.091,0.358-0.137,0.749-0.137,1.172
		c0,0.407,0.038,0.79,0.112,1.147c0.075,0.358,0.2,0.67,0.375,0.937c0.175,0.267,0.409,0.479,0.704,0.636
		c0.294,0.157,0.661,0.235,1.1,0.235c0.4,0,0.747-0.071,1.041-0.214s0.536-0.344,0.725-0.603c0.188-0.259,0.328-0.567,0.417-0.924
		C50.614,45.502,50.658,45.109,50.658,44.68z"/>
	<path fill="#333333" d="M60.064,44.556c0,0.649-0.07,1.232-0.21,1.75c-0.14,0.518-0.347,0.957-0.619,1.317
		s-0.609,0.638-1.011,0.833c-0.402,0.195-0.861,0.293-1.378,0.293c-0.22,0-0.424-0.022-0.611-0.066
		c-0.188-0.044-0.37-0.113-0.549-0.207c-0.179-0.093-0.356-0.211-0.532-0.355c-0.176-0.143-0.363-0.311-0.561-0.503v3.714
		c0,0.044-0.011,0.083-0.033,0.116s-0.058,0.061-0.107,0.083c-0.049,0.022-0.118,0.039-0.206,0.049
		c-0.088,0.011-0.201,0.017-0.338,0.017c-0.132,0-0.243-0.005-0.331-0.017c-0.088-0.011-0.158-0.027-0.21-0.049
		s-0.088-0.049-0.107-0.083c-0.02-0.033-0.029-0.072-0.029-0.116V40.957c0-0.049,0.008-0.089,0.025-0.12s0.05-0.056,0.099-0.078
		s0.113-0.038,0.19-0.045c0.077-0.008,0.17-0.013,0.28-0.013c0.116,0,0.211,0.004,0.285,0.013c0.074,0.008,0.136,0.023,0.186,0.045
		s0.084,0.048,0.103,0.078c0.02,0.03,0.029,0.07,0.029,0.12v0.999c0.225-0.231,0.443-0.432,0.652-0.603
		c0.209-0.171,0.419-0.313,0.631-0.425s0.429-0.198,0.652-0.256c0.223-0.058,0.458-0.086,0.706-0.086
		c0.539,0,0.999,0.104,1.378,0.313s0.689,0.495,0.929,0.858c0.239,0.363,0.414,0.786,0.524,1.267S60.064,44.017,60.064,44.556z
		 M58.653,44.713c0-0.38-0.029-0.747-0.087-1.102s-0.158-0.67-0.299-0.945c-0.141-0.275-0.331-0.496-0.569-0.661
		c-0.238-0.165-0.535-0.248-0.889-0.248c-0.177,0-0.352,0.026-0.523,0.079c-0.171,0.052-0.346,0.135-0.523,0.248
		s-0.363,0.261-0.557,0.446c-0.194,0.184-0.398,0.411-0.614,0.681v2.955c0.376,0.457,0.733,0.806,1.071,1.048
		c0.337,0.242,0.692,0.363,1.063,0.363c0.343,0,0.638-0.083,0.884-0.248c0.246-0.165,0.446-0.385,0.598-0.661
		c0.152-0.275,0.264-0.583,0.336-0.924C58.617,45.403,58.653,45.06,58.653,44.713z"/>
	<path fill="#333333" d="M71.523,48.377c0,0.044-0.008,0.083-0.025,0.116c-0.016,0.033-0.052,0.061-0.107,0.083
		c-0.055,0.022-0.132,0.039-0.231,0.05c-0.099,0.011-0.231,0.016-0.396,0.016c-0.143,0-0.26-0.005-0.351-0.016
		c-0.091-0.011-0.164-0.029-0.219-0.054c-0.055-0.025-0.098-0.059-0.128-0.104c-0.03-0.044-0.056-0.099-0.078-0.165l-0.982-2.518
		c-0.115-0.286-0.235-0.549-0.359-0.788c-0.124-0.239-0.271-0.446-0.442-0.619c-0.17-0.173-0.371-0.308-0.603-0.404
		c-0.231-0.096-0.509-0.145-0.833-0.145h-0.949v4.548c0,0.044-0.012,0.083-0.037,0.116c-0.025,0.033-0.063,0.059-0.116,0.079
		c-0.052,0.019-0.124,0.036-0.214,0.049s-0.205,0.021-0.343,0.021c-0.137,0-0.251-0.007-0.342-0.021s-0.164-0.03-0.219-0.049
		c-0.055-0.02-0.094-0.045-0.116-0.079c-0.022-0.033-0.033-0.071-0.033-0.116v-9.888c0-0.215,0.056-0.365,0.169-0.45
		c0.113-0.085,0.232-0.128,0.359-0.128h2.27c0.27,0,0.494,0.007,0.673,0.021s0.34,0.029,0.483,0.045
		c0.413,0.071,0.777,0.184,1.094,0.338c0.316,0.154,0.582,0.35,0.796,0.586c0.214,0.237,0.375,0.508,0.483,0.813
		c0.107,0.306,0.161,0.643,0.161,1.011c0,0.358-0.048,0.678-0.144,0.961c-0.097,0.284-0.235,0.534-0.417,0.751
		s-0.399,0.406-0.652,0.565c-0.253,0.16-0.536,0.294-0.85,0.404c0.176,0.077,0.336,0.175,0.479,0.293
		c0.143,0.119,0.276,0.26,0.4,0.425c0.124,0.165,0.241,0.355,0.351,0.569c0.11,0.215,0.22,0.457,0.33,0.727l0.958,2.352
		c0.077,0.198,0.126,0.337,0.148,0.417C71.512,48.272,71.523,48.333,71.523,48.377z M69.385,40.875c0-0.418-0.094-0.771-0.281-1.061
		s-0.501-0.497-0.941-0.623c-0.138-0.039-0.293-0.066-0.466-0.083c-0.173-0.017-0.4-0.025-0.681-0.025h-1.197v3.599h1.387
		c0.374,0,0.697-0.045,0.97-0.136s0.5-0.217,0.681-0.379c0.182-0.163,0.315-0.354,0.4-0.574
		C69.342,41.373,69.385,41.133,69.385,40.875z"/>
	<path fill="#333333" d="M78.916,44.35c0,0.215-0.054,0.367-0.162,0.458s-0.231,0.136-0.369,0.136h-4.892
		c0,0.413,0.042,0.784,0.124,1.114c0.083,0.33,0.221,0.614,0.415,0.85c0.193,0.237,0.445,0.418,0.755,0.545
		c0.31,0.127,0.688,0.19,1.136,0.19c0.354,0,0.669-0.029,0.945-0.087c0.276-0.058,0.516-0.122,0.718-0.194
		c0.202-0.071,0.368-0.136,0.498-0.194s0.228-0.087,0.294-0.087c0.039,0,0.073,0.01,0.104,0.029
		c0.031,0.019,0.054,0.048,0.071,0.086c0.016,0.039,0.029,0.092,0.037,0.161s0.013,0.152,0.013,0.251
		c0,0.072-0.003,0.134-0.008,0.186c-0.006,0.052-0.013,0.099-0.021,0.14c-0.008,0.042-0.022,0.079-0.041,0.111
		c-0.02,0.033-0.044,0.065-0.074,0.095s-0.12,0.08-0.269,0.148c-0.148,0.069-0.341,0.136-0.578,0.202
		c-0.237,0.066-0.51,0.125-0.821,0.178c-0.311,0.052-0.643,0.078-0.995,0.078c-0.611,0-1.146-0.085-1.605-0.256
		s-0.846-0.424-1.16-0.759s-0.55-0.756-0.71-1.263s-0.239-1.095-0.239-1.767c0-0.638,0.083-1.212,0.248-1.721
		c0.165-0.509,0.403-0.941,0.714-1.296c0.311-0.355,0.687-0.627,1.127-0.817c0.44-0.19,0.933-0.285,1.478-0.285
		c0.583,0,1.08,0.093,1.49,0.28c0.41,0.188,0.747,0.439,1.011,0.755s0.458,0.688,0.582,1.114c0.124,0.427,0.186,0.882,0.186,1.366
		V44.35z M77.545,43.945c0.017-0.715-0.143-1.277-0.478-1.684c-0.335-0.407-0.832-0.611-1.491-0.611
		c-0.338,0-0.634,0.063-0.889,0.19c-0.255,0.126-0.468,0.294-0.64,0.503c-0.171,0.209-0.304,0.453-0.398,0.73
		s-0.147,0.568-0.158,0.871H77.545z"/>
	<path fill="#333333" d="M81.504,48.386c0,0.044-0.011,0.082-0.033,0.112s-0.058,0.056-0.107,0.078
		c-0.049,0.022-0.118,0.039-0.206,0.05c-0.088,0.011-0.201,0.016-0.338,0.016c-0.132,0-0.243-0.005-0.331-0.016
		c-0.088-0.011-0.158-0.028-0.21-0.05s-0.088-0.048-0.107-0.078c-0.02-0.03-0.029-0.067-0.029-0.112V37.358
		c0-0.044,0.01-0.083,0.029-0.116c0.019-0.033,0.055-0.061,0.107-0.083s0.123-0.039,0.21-0.049c0.088-0.011,0.198-0.017,0.331-0.017
		c0.137,0,0.25,0.005,0.338,0.017c0.088,0.011,0.157,0.027,0.206,0.049c0.05,0.022,0.085,0.05,0.107,0.083
		c0.022,0.033,0.033,0.072,0.033,0.116V48.386z"/>
	<path fill="#333333" d="M90.085,44.589c0,0.605-0.08,1.163-0.239,1.671c-0.16,0.509-0.397,0.948-0.714,1.317
		s-0.713,0.656-1.188,0.862c-0.476,0.207-1.028,0.31-1.655,0.31c-0.611,0-1.143-0.091-1.597-0.272
		c-0.454-0.182-0.832-0.446-1.135-0.792c-0.303-0.346-0.528-0.768-0.677-1.263s-0.223-1.057-0.223-1.684
		c0-0.605,0.079-1.163,0.235-1.672c0.157-0.509,0.394-0.948,0.71-1.316s0.711-0.655,1.185-0.858
		c0.473-0.204,1.026-0.305,1.659-0.305c0.61,0,1.143,0.09,1.597,0.272c0.454,0.182,0.832,0.446,1.135,0.792s0.529,0.768,0.681,1.263
		C90.009,43.409,90.085,43.967,90.085,44.589z M88.674,44.68c0-0.401-0.038-0.781-0.113-1.139c-0.075-0.357-0.198-0.671-0.371-0.941
		c-0.172-0.27-0.405-0.483-0.7-0.64c-0.294-0.157-0.661-0.235-1.099-0.235c-0.405,0-0.754,0.072-1.045,0.215
		s-0.532,0.345-0.72,0.606c-0.189,0.262-0.329,0.571-0.421,0.929c-0.091,0.358-0.137,0.749-0.137,1.172
		c0,0.407,0.038,0.79,0.112,1.147c0.075,0.358,0.2,0.67,0.375,0.937c0.175,0.267,0.409,0.479,0.704,0.636
		c0.294,0.157,0.661,0.235,1.1,0.235c0.4,0,0.747-0.071,1.041-0.214s0.536-0.344,0.725-0.603c0.188-0.259,0.328-0.567,0.417-0.924
		C88.629,45.502,88.674,45.109,88.674,44.68z"/>
	<path fill="#333333" d="M96.586,47.255c0,0.094-0.003,0.175-0.008,0.244c-0.006,0.069-0.016,0.127-0.029,0.173
		c-0.014,0.047-0.03,0.088-0.049,0.124c-0.02,0.036-0.063,0.088-0.132,0.157c-0.069,0.069-0.186,0.154-0.351,0.256
		c-0.165,0.102-0.351,0.193-0.557,0.272s-0.431,0.145-0.673,0.194s-0.492,0.074-0.751,0.074c-0.534,0-1.007-0.088-1.419-0.264
		c-0.413-0.176-0.758-0.433-1.036-0.771s-0.49-0.754-0.636-1.247c-0.146-0.492-0.219-1.061-0.219-1.705
		c0-0.731,0.089-1.36,0.269-1.886c0.179-0.526,0.423-0.956,0.734-1.292c0.311-0.335,0.677-0.584,1.098-0.747
		c0.421-0.162,0.876-0.244,1.366-0.244c0.237,0,0.466,0.022,0.689,0.066c0.223,0.044,0.428,0.102,0.615,0.173
		c0.187,0.071,0.354,0.154,0.5,0.248c0.146,0.094,0.251,0.173,0.318,0.239c0.066,0.066,0.111,0.119,0.136,0.157
		c0.024,0.039,0.045,0.084,0.062,0.136c0.017,0.052,0.028,0.111,0.033,0.178c0.005,0.066,0.008,0.148,0.008,0.248
		c0,0.214-0.025,0.364-0.074,0.45c-0.05,0.085-0.11,0.128-0.182,0.128c-0.083,0-0.178-0.045-0.285-0.136
		c-0.107-0.091-0.244-0.191-0.409-0.301c-0.165-0.11-0.365-0.21-0.599-0.301s-0.51-0.136-0.83-0.136
		c-0.655,0-1.157,0.252-1.506,0.755C92.32,43,92.146,43.73,92.146,44.688c0,0.479,0.045,0.898,0.136,1.259s0.224,0.662,0.4,0.904
		c0.176,0.242,0.392,0.422,0.648,0.541c0.256,0.119,0.549,0.178,0.879,0.178c0.313,0,0.589-0.05,0.826-0.148
		c0.236-0.099,0.441-0.208,0.615-0.326s0.319-0.226,0.438-0.322c0.118-0.097,0.21-0.145,0.276-0.145
		c0.039,0,0.071,0.011,0.099,0.033c0.027,0.022,0.051,0.06,0.07,0.112c0.019,0.052,0.033,0.118,0.041,0.198
		C96.582,47.05,96.586,47.145,96.586,47.255z"/>
	<path fill="#333333" d="M103.145,48.394c0,0.066-0.022,0.116-0.066,0.149c-0.044,0.033-0.104,0.058-0.182,0.074
		s-0.189,0.024-0.338,0.024c-0.143,0-0.257-0.008-0.342-0.024c-0.085-0.017-0.147-0.042-0.186-0.074
		c-0.038-0.033-0.058-0.083-0.058-0.149v-0.743c-0.325,0.347-0.687,0.616-1.085,0.809c-0.399,0.192-0.821,0.289-1.267,0.289
		c-0.391,0-0.744-0.051-1.061-0.153c-0.316-0.102-0.586-0.249-0.809-0.441c-0.223-0.192-0.396-0.429-0.52-0.71
		c-0.124-0.28-0.186-0.6-0.186-0.958c0-0.418,0.085-0.781,0.256-1.089s0.416-0.564,0.735-0.768c0.319-0.204,0.71-0.356,1.172-0.458
		c0.462-0.102,0.982-0.153,1.56-0.153h1.023v-0.578c0-0.286-0.03-0.54-0.091-0.76c-0.061-0.22-0.158-0.403-0.293-0.549
		c-0.135-0.146-0.31-0.256-0.524-0.33c-0.215-0.074-0.479-0.111-0.792-0.111c-0.336,0-0.637,0.04-0.904,0.12
		c-0.267,0.08-0.501,0.168-0.702,0.264s-0.369,0.185-0.503,0.264s-0.235,0.12-0.301,0.12c-0.044,0-0.083-0.011-0.116-0.033
		c-0.033-0.022-0.062-0.055-0.086-0.099c-0.025-0.044-0.043-0.1-0.054-0.169c-0.011-0.069-0.017-0.145-0.017-0.227
		c0-0.138,0.01-0.246,0.029-0.326c0.02-0.08,0.066-0.155,0.141-0.227c0.074-0.071,0.202-0.155,0.384-0.251
		c0.181-0.096,0.391-0.185,0.627-0.264c0.237-0.08,0.496-0.146,0.776-0.198c0.281-0.052,0.564-0.078,0.851-0.078
		c0.533,0,0.987,0.061,1.362,0.181c0.374,0.121,0.677,0.299,0.908,0.533c0.231,0.234,0.399,0.524,0.503,0.871
		s0.157,0.751,0.157,1.213V48.394z M101.791,45.002h-1.164c-0.375,0-0.699,0.031-0.974,0.095c-0.275,0.063-0.503,0.157-0.685,0.281
		c-0.182,0.124-0.315,0.272-0.4,0.446s-0.128,0.373-0.128,0.598c0,0.385,0.123,0.692,0.367,0.92
		c0.245,0.229,0.587,0.342,1.028,0.342c0.357,0,0.689-0.09,0.995-0.272c0.305-0.182,0.626-0.459,0.961-0.834V45.002z"/>
	<path fill="#333333" d="M111.264,40.743c0.165,0,0.277,0.037,0.338,0.111c0.06,0.074,0.091,0.183,0.091,0.326v7.206
		c0,0.044-0.011,0.082-0.033,0.112s-0.059,0.056-0.111,0.078s-0.123,0.039-0.21,0.05c-0.088,0.011-0.195,0.016-0.322,0.016
		c-0.137,0-0.25-0.005-0.338-0.016c-0.088-0.011-0.158-0.028-0.21-0.05s-0.089-0.048-0.111-0.078s-0.033-0.067-0.033-0.112v-6.512
		h-3.838v4.144c0,0.512,0.076,0.898,0.227,1.16s0.422,0.392,0.813,0.392c0.126,0,0.239-0.013,0.338-0.037
		c0.099-0.025,0.187-0.051,0.264-0.079c0.077-0.027,0.143-0.054,0.198-0.078c0.055-0.025,0.104-0.037,0.148-0.037
		c0.027,0,0.054,0.007,0.078,0.021c0.025,0.014,0.044,0.04,0.058,0.078c0.014,0.039,0.026,0.091,0.037,0.157
		c0.011,0.066,0.017,0.148,0.017,0.248c0,0.16-0.011,0.285-0.033,0.375s-0.055,0.16-0.099,0.206c-0.044,0.047-0.11,0.09-0.198,0.128
		c-0.088,0.039-0.188,0.07-0.301,0.095s-0.232,0.045-0.359,0.062c-0.126,0.016-0.253,0.024-0.379,0.024
		c-0.385,0-0.716-0.051-0.991-0.152c-0.275-0.102-0.501-0.256-0.677-0.462c-0.176-0.207-0.304-0.468-0.384-0.784
		c-0.08-0.316-0.12-0.689-0.12-1.119v-4.341h-1.04c-0.083,0-0.149-0.044-0.198-0.132c-0.049-0.088-0.074-0.231-0.074-0.429
		c0-0.104,0.007-0.192,0.021-0.264c0.014-0.071,0.032-0.13,0.054-0.177s0.051-0.08,0.086-0.099c0.036-0.019,0.076-0.029,0.12-0.029
		h1.032v-1.767c0-0.039,0.009-0.074,0.029-0.107c0.019-0.033,0.055-0.062,0.107-0.086c0.052-0.025,0.122-0.042,0.21-0.054
		c0.088-0.011,0.198-0.017,0.33-0.017c0.137,0,0.25,0.006,0.338,0.017c0.088,0.011,0.157,0.029,0.207,0.054
		c0.049,0.025,0.085,0.054,0.107,0.086c0.022,0.033,0.033,0.069,0.033,0.107v1.767H111.264z M111.85,38.448
		c0,0.319-0.061,0.537-0.182,0.652c-0.121,0.115-0.344,0.173-0.668,0.173c-0.319,0-0.538-0.057-0.656-0.169
		c-0.119-0.113-0.178-0.326-0.178-0.64c0-0.319,0.061-0.537,0.182-0.652c0.121-0.116,0.344-0.173,0.668-0.173
		c0.319,0,0.538,0.056,0.656,0.169C111.791,37.921,111.85,38.134,111.85,38.448z"/>
	<path fill="#333333" d="M120.282,44.589c0,0.605-0.08,1.163-0.239,1.671c-0.16,0.509-0.397,0.948-0.714,1.317
		s-0.713,0.656-1.188,0.862c-0.476,0.207-1.028,0.31-1.655,0.31c-0.611,0-1.143-0.091-1.597-0.272
		c-0.454-0.182-0.832-0.446-1.135-0.792c-0.303-0.346-0.528-0.768-0.677-1.263s-0.223-1.057-0.223-1.684
		c0-0.605,0.079-1.163,0.235-1.672c0.157-0.509,0.394-0.948,0.71-1.316s0.711-0.655,1.185-0.858
		c0.473-0.204,1.026-0.305,1.659-0.305c0.61,0,1.143,0.09,1.597,0.272c0.454,0.182,0.832,0.446,1.135,0.792s0.529,0.768,0.681,1.263
		C120.206,43.409,120.282,43.967,120.282,44.589z M118.871,44.68c0-0.401-0.038-0.781-0.113-1.139
		c-0.075-0.357-0.198-0.671-0.371-0.941c-0.172-0.27-0.405-0.483-0.7-0.64c-0.294-0.157-0.661-0.235-1.099-0.235
		c-0.405,0-0.754,0.072-1.045,0.215s-0.532,0.345-0.72,0.606c-0.189,0.262-0.329,0.571-0.421,0.929
		c-0.091,0.358-0.137,0.749-0.137,1.172c0,0.407,0.038,0.79,0.112,1.147c0.075,0.358,0.2,0.67,0.375,0.937
		c0.175,0.267,0.409,0.479,0.704,0.636c0.294,0.157,0.661,0.235,1.1,0.235c0.4,0,0.747-0.071,1.041-0.214s0.536-0.344,0.725-0.603
		c0.188-0.259,0.328-0.567,0.417-0.924C118.826,45.502,118.871,45.109,118.871,44.68z"/>
	<path fill="#333333" d="M127.839,48.386c0,0.044-0.011,0.082-0.033,0.112s-0.058,0.056-0.107,0.078s-0.119,0.039-0.207,0.05
		c-0.088,0.011-0.198,0.016-0.33,0.016c-0.138,0-0.25-0.005-0.338-0.016c-0.088-0.011-0.157-0.028-0.207-0.05
		c-0.049-0.022-0.085-0.048-0.107-0.078s-0.033-0.067-0.033-0.112v-4.35c0-0.424-0.033-0.765-0.099-1.024
		c-0.066-0.258-0.162-0.481-0.289-0.668c-0.127-0.187-0.291-0.33-0.491-0.429c-0.201-0.099-0.434-0.148-0.698-0.148
		c-0.341,0-0.682,0.121-1.023,0.363s-0.699,0.597-1.073,1.064v5.192c0,0.044-0.011,0.082-0.033,0.112s-0.058,0.056-0.107,0.078
		c-0.049,0.022-0.118,0.039-0.206,0.05c-0.088,0.011-0.201,0.016-0.338,0.016c-0.132,0-0.243-0.005-0.331-0.016
		c-0.088-0.011-0.158-0.028-0.21-0.05s-0.088-0.048-0.107-0.078c-0.02-0.03-0.029-0.067-0.029-0.112v-7.429
		c0-0.044,0.008-0.081,0.025-0.111s0.05-0.058,0.099-0.083s0.113-0.042,0.19-0.049c0.077-0.008,0.179-0.013,0.305-0.013
		c0.121,0,0.222,0.004,0.301,0.013c0.08,0.008,0.142,0.024,0.186,0.049c0.044,0.025,0.075,0.052,0.095,0.083
		c0.019,0.03,0.029,0.067,0.029,0.111v0.982c0.418-0.468,0.835-0.81,1.25-1.028c0.416-0.217,0.835-0.326,1.259-0.326
		c0.495,0,0.912,0.083,1.25,0.251s0.612,0.392,0.821,0.673s0.359,0.609,0.45,0.986s0.136,0.83,0.136,1.358V48.386z"/>
	<path fill="#333333" d="M139.174,41.04c0,0.534-0.088,1.016-0.264,1.445c-0.176,0.429-0.428,0.795-0.755,1.098
		c-0.328,0.303-0.729,0.537-1.205,0.702c-0.476,0.165-1.044,0.248-1.705,0.248h-1.213v3.846c0,0.044-0.012,0.083-0.037,0.116
		c-0.025,0.033-0.063,0.059-0.116,0.079c-0.052,0.019-0.124,0.036-0.214,0.049s-0.205,0.021-0.343,0.021
		c-0.137,0-0.251-0.007-0.342-0.021s-0.164-0.03-0.219-0.049c-0.055-0.02-0.094-0.045-0.116-0.079
		c-0.022-0.033-0.033-0.071-0.033-0.116v-9.855c0-0.22,0.058-0.376,0.173-0.47c0.115-0.094,0.245-0.141,0.388-0.141h2.287
		c0.231,0,0.452,0.01,0.664,0.029c0.212,0.019,0.462,0.061,0.751,0.124c0.289,0.063,0.583,0.182,0.883,0.355
		c0.3,0.173,0.555,0.387,0.764,0.64c0.209,0.253,0.37,0.546,0.483,0.879S139.174,40.638,139.174,41.04z M137.68,41.155
		c0-0.435-0.082-0.798-0.244-1.089c-0.162-0.292-0.363-0.509-0.603-0.652s-0.487-0.234-0.743-0.272
		c-0.256-0.038-0.505-0.058-0.747-0.058h-1.313v4.284h1.279c0.429,0,0.786-0.055,1.069-0.165c0.284-0.11,0.521-0.263,0.714-0.458
		c0.192-0.195,0.338-0.429,0.438-0.702C137.63,41.77,137.68,41.475,137.68,41.155z"/>
	<path fill="#333333" d="M141.705,48.386c0,0.044-0.011,0.082-0.033,0.112s-0.058,0.056-0.107,0.078
		c-0.049,0.022-0.118,0.039-0.206,0.05c-0.088,0.011-0.201,0.016-0.338,0.016c-0.132,0-0.243-0.005-0.331-0.016
		c-0.088-0.011-0.158-0.028-0.21-0.05s-0.088-0.048-0.107-0.078c-0.02-0.03-0.029-0.067-0.029-0.112V37.358
		c0-0.044,0.01-0.083,0.029-0.116c0.019-0.033,0.055-0.061,0.107-0.083s0.123-0.039,0.21-0.049c0.088-0.011,0.198-0.017,0.331-0.017
		c0.137,0,0.25,0.005,0.338,0.017c0.088,0.011,0.157,0.027,0.206,0.049c0.05,0.022,0.085,0.05,0.107,0.083
		c0.022,0.033,0.033,0.072,0.033,0.116V48.386z"/>
	<path fill="#333333" d="M148.974,48.394c0,0.066-0.022,0.116-0.066,0.149c-0.044,0.033-0.104,0.058-0.182,0.074
		s-0.189,0.024-0.338,0.024c-0.143,0-0.257-0.008-0.342-0.024c-0.085-0.017-0.147-0.042-0.186-0.074
		c-0.038-0.033-0.058-0.083-0.058-0.149v-0.743c-0.325,0.347-0.687,0.616-1.085,0.809c-0.399,0.192-0.821,0.289-1.267,0.289
		c-0.391,0-0.744-0.051-1.061-0.153c-0.316-0.102-0.586-0.249-0.809-0.441c-0.223-0.192-0.396-0.429-0.52-0.71
		c-0.124-0.28-0.186-0.6-0.186-0.958c0-0.418,0.085-0.781,0.256-1.089s0.416-0.564,0.735-0.768c0.319-0.204,0.71-0.356,1.172-0.458
		c0.462-0.102,0.982-0.153,1.56-0.153h1.023v-0.578c0-0.286-0.03-0.54-0.091-0.76c-0.061-0.22-0.158-0.403-0.293-0.549
		c-0.135-0.146-0.31-0.256-0.524-0.33c-0.215-0.074-0.479-0.111-0.792-0.111c-0.336,0-0.637,0.04-0.904,0.12
		c-0.267,0.08-0.501,0.168-0.702,0.264s-0.369,0.185-0.503,0.264s-0.235,0.12-0.301,0.12c-0.044,0-0.083-0.011-0.116-0.033
		c-0.033-0.022-0.062-0.055-0.086-0.099c-0.025-0.044-0.043-0.1-0.054-0.169c-0.011-0.069-0.017-0.145-0.017-0.227
		c0-0.138,0.01-0.246,0.029-0.326c0.02-0.08,0.066-0.155,0.141-0.227c0.074-0.071,0.202-0.155,0.384-0.251
		c0.181-0.096,0.391-0.185,0.627-0.264c0.237-0.08,0.496-0.146,0.776-0.198c0.281-0.052,0.564-0.078,0.851-0.078
		c0.533,0,0.987,0.061,1.362,0.181c0.374,0.121,0.677,0.299,0.908,0.533c0.231,0.234,0.399,0.524,0.503,0.871
		s0.157,0.751,0.157,1.213V48.394z M147.62,45.002h-1.164c-0.375,0-0.699,0.031-0.974,0.095c-0.275,0.063-0.503,0.157-0.685,0.281
		c-0.182,0.124-0.315,0.272-0.4,0.446s-0.128,0.373-0.128,0.598c0,0.385,0.123,0.692,0.367,0.92
		c0.245,0.229,0.587,0.342,1.028,0.342c0.357,0,0.689-0.09,0.995-0.272c0.305-0.182,0.626-0.459,0.961-0.834V45.002z"/>
	<path fill="#333333" d="M156.184,40.743v-0.768c0-0.518,0.048-0.962,0.145-1.333c0.096-0.372,0.244-0.676,0.441-0.912
		c0.198-0.237,0.447-0.412,0.747-0.524s0.651-0.169,1.052-0.169c0.187,0,0.373,0.018,0.557,0.053
		c0.185,0.036,0.326,0.075,0.425,0.116c0.099,0.042,0.165,0.079,0.198,0.111c0.033,0.033,0.061,0.076,0.083,0.128
		c0.022,0.053,0.037,0.116,0.045,0.19s0.012,0.164,0.012,0.269s-0.004,0.188-0.012,0.251c-0.008,0.063-0.021,0.114-0.037,0.153
		s-0.036,0.064-0.058,0.078c-0.022,0.014-0.046,0.021-0.074,0.021c-0.044,0-0.125-0.025-0.243-0.074
		c-0.119-0.05-0.244-0.089-0.376-0.12c-0.132-0.03-0.272-0.045-0.421-0.045c-0.204,0-0.377,0.033-0.52,0.099
		c-0.143,0.066-0.259,0.169-0.347,0.31c-0.088,0.141-0.152,0.322-0.194,0.545c-0.041,0.223-0.062,0.494-0.062,0.813v0.809h1.659
		c0.044,0,0.084,0.01,0.12,0.029c0.036,0.02,0.065,0.052,0.087,0.099s0.04,0.106,0.054,0.177c0.014,0.072,0.021,0.16,0.021,0.264
		c0,0.198-0.025,0.341-0.074,0.429c-0.05,0.088-0.116,0.132-0.198,0.132h-1.667v6.512c0,0.044-0.011,0.082-0.033,0.112
		c-0.022,0.03-0.058,0.056-0.107,0.078c-0.05,0.022-0.119,0.039-0.207,0.05c-0.088,0.011-0.201,0.016-0.338,0.016
		c-0.132,0-0.242-0.005-0.33-0.016c-0.088-0.011-0.158-0.028-0.21-0.05s-0.088-0.048-0.107-0.078
		c-0.019-0.03-0.029-0.067-0.029-0.112v-6.512h-3.871v4.144c0,0.512,0.076,0.898,0.227,1.16s0.422,0.392,0.813,0.392
		c0.126,0,0.239-0.013,0.338-0.037c0.099-0.025,0.187-0.051,0.264-0.079c0.077-0.027,0.143-0.054,0.198-0.078
		c0.055-0.025,0.104-0.037,0.148-0.037c0.027,0,0.054,0.007,0.078,0.021c0.025,0.014,0.044,0.04,0.058,0.078
		c0.014,0.039,0.026,0.091,0.037,0.157c0.011,0.066,0.017,0.148,0.017,0.248c0,0.16-0.011,0.285-0.033,0.375
		s-0.055,0.16-0.099,0.206c-0.044,0.047-0.11,0.09-0.198,0.128c-0.088,0.039-0.188,0.07-0.301,0.095s-0.232,0.045-0.359,0.062
		c-0.126,0.016-0.253,0.024-0.379,0.024c-0.385,0-0.716-0.051-0.991-0.152c-0.275-0.102-0.501-0.256-0.677-0.462
		c-0.176-0.207-0.304-0.468-0.384-0.784c-0.08-0.316-0.12-0.689-0.12-1.119v-4.341h-1.04c-0.083,0-0.149-0.044-0.198-0.132
		c-0.049-0.088-0.074-0.231-0.074-0.429c0-0.104,0.007-0.192,0.021-0.264c0.014-0.071,0.032-0.13,0.054-0.177
		s0.051-0.08,0.086-0.099c0.036-0.019,0.076-0.029,0.12-0.029h1.032v-1.767c0-0.039,0.009-0.074,0.029-0.107
		c0.019-0.033,0.055-0.062,0.107-0.086c0.052-0.025,0.122-0.042,0.21-0.054c0.088-0.011,0.198-0.017,0.33-0.017
		c0.137,0,0.25,0.006,0.338,0.017c0.088,0.011,0.157,0.029,0.207,0.054c0.049,0.025,0.085,0.054,0.107,0.086
		c0.022,0.033,0.033,0.069,0.033,0.107v1.767H156.184z"/>
	<path fill="#333333" d="M167.043,44.589c0,0.605-0.08,1.163-0.239,1.671c-0.16,0.509-0.397,0.948-0.714,1.317
		s-0.713,0.656-1.188,0.862c-0.476,0.207-1.028,0.31-1.655,0.31c-0.611,0-1.143-0.091-1.597-0.272
		c-0.454-0.182-0.832-0.446-1.135-0.792c-0.303-0.346-0.528-0.768-0.677-1.263s-0.223-1.057-0.223-1.684
		c0-0.605,0.079-1.163,0.235-1.672c0.157-0.509,0.394-0.948,0.71-1.316s0.711-0.655,1.185-0.858
		c0.473-0.204,1.026-0.305,1.659-0.305c0.61,0,1.143,0.09,1.597,0.272c0.454,0.182,0.832,0.446,1.135,0.792s0.529,0.768,0.681,1.263
		C166.967,43.409,167.043,43.967,167.043,44.589z M165.632,44.68c0-0.401-0.038-0.781-0.113-1.139
		c-0.075-0.357-0.198-0.671-0.371-0.941c-0.172-0.27-0.405-0.483-0.7-0.64c-0.294-0.157-0.661-0.235-1.099-0.235
		c-0.405,0-0.754,0.072-1.045,0.215s-0.532,0.345-0.72,0.606c-0.189,0.262-0.329,0.571-0.421,0.929
		c-0.091,0.358-0.137,0.749-0.137,1.172c0,0.407,0.038,0.79,0.112,1.147c0.075,0.358,0.2,0.67,0.375,0.937
		c0.175,0.267,0.409,0.479,0.704,0.636c0.294,0.157,0.661,0.235,1.1,0.235c0.4,0,0.747-0.071,1.041-0.214s0.536-0.344,0.725-0.603
		c0.188-0.259,0.328-0.567,0.417-0.924C165.587,45.502,165.632,45.109,165.632,44.68z"/>
	<path fill="#333333" d="M172.545,41.444c0,0.121-0.003,0.223-0.008,0.305s-0.017,0.147-0.033,0.194
		c-0.017,0.047-0.037,0.083-0.062,0.107s-0.059,0.037-0.104,0.037c-0.044,0-0.098-0.012-0.161-0.037
		c-0.063-0.025-0.135-0.049-0.215-0.074c-0.08-0.025-0.169-0.048-0.268-0.07s-0.207-0.033-0.322-0.033
		c-0.138,0-0.272,0.027-0.405,0.083c-0.132,0.055-0.271,0.146-0.417,0.272c-0.146,0.126-0.299,0.294-0.458,0.503
		s-0.335,0.465-0.528,0.768v4.886c0,0.044-0.011,0.082-0.033,0.112s-0.058,0.056-0.107,0.078c-0.049,0.022-0.118,0.039-0.206,0.05
		c-0.088,0.011-0.201,0.016-0.338,0.016c-0.132,0-0.243-0.005-0.331-0.016c-0.088-0.011-0.158-0.028-0.21-0.05
		s-0.088-0.048-0.107-0.078c-0.02-0.03-0.029-0.067-0.029-0.112v-7.429c0-0.044,0.008-0.081,0.025-0.111s0.05-0.058,0.099-0.083
		s0.113-0.042,0.19-0.049c0.077-0.008,0.179-0.013,0.305-0.013c0.121,0,0.222,0.004,0.301,0.013c0.08,0.008,0.142,0.024,0.186,0.049
		c0.044,0.025,0.075,0.052,0.095,0.083c0.019,0.03,0.029,0.067,0.029,0.111v1.082c0.204-0.297,0.395-0.54,0.574-0.727
		s0.348-0.334,0.508-0.441c0.159-0.107,0.317-0.182,0.475-0.223c0.157-0.041,0.315-0.062,0.475-0.062
		c0.071,0,0.152,0.004,0.243,0.012s0.186,0.023,0.285,0.045c0.099,0.022,0.188,0.047,0.268,0.074
		c0.08,0.028,0.136,0.055,0.169,0.083c0.033,0.028,0.055,0.054,0.066,0.079c0.011,0.024,0.021,0.056,0.029,0.095
		s0.014,0.095,0.017,0.169C172.544,41.217,172.545,41.318,172.545,41.444z"/>
	<path fill="#333333" d="M184.271,48.386c0,0.044-0.011,0.082-0.033,0.112s-0.058,0.056-0.107,0.078
		c-0.049,0.022-0.118,0.039-0.206,0.05c-0.088,0.011-0.198,0.016-0.33,0.016c-0.138,0-0.25-0.005-0.338-0.016
		c-0.088-0.011-0.159-0.028-0.211-0.05s-0.089-0.048-0.111-0.078s-0.033-0.067-0.033-0.112v-4.515c0-0.314-0.028-0.6-0.083-0.859
		c-0.055-0.258-0.144-0.481-0.264-0.668c-0.121-0.187-0.275-0.33-0.462-0.429s-0.407-0.148-0.66-0.148
		c-0.314,0-0.629,0.121-0.945,0.363s-0.665,0.597-1.044,1.064v5.192c0,0.044-0.011,0.082-0.033,0.112s-0.059,0.056-0.111,0.078
		s-0.123,0.039-0.21,0.05c-0.088,0.011-0.198,0.016-0.33,0.016c-0.127,0-0.235-0.005-0.326-0.016
		c-0.091-0.011-0.163-0.028-0.215-0.05s-0.088-0.048-0.107-0.078c-0.02-0.03-0.029-0.067-0.029-0.112v-4.515
		c0-0.314-0.03-0.6-0.09-0.859c-0.061-0.258-0.152-0.481-0.272-0.668c-0.121-0.187-0.274-0.33-0.458-0.429
		c-0.184-0.099-0.403-0.148-0.656-0.148c-0.314,0-0.63,0.121-0.949,0.363c-0.319,0.242-0.666,0.597-1.04,1.064v5.192
		c0,0.044-0.011,0.082-0.033,0.112s-0.058,0.056-0.107,0.078c-0.049,0.022-0.118,0.039-0.206,0.05
		c-0.088,0.011-0.201,0.016-0.338,0.016c-0.132,0-0.243-0.005-0.331-0.016c-0.088-0.011-0.158-0.028-0.21-0.05
		s-0.088-0.048-0.107-0.078c-0.02-0.03-0.029-0.067-0.029-0.112v-7.429c0-0.044,0.008-0.081,0.025-0.111s0.05-0.058,0.099-0.083
		s0.113-0.042,0.19-0.049c0.077-0.008,0.179-0.013,0.305-0.013c0.121,0,0.222,0.004,0.301,0.013c0.08,0.008,0.142,0.024,0.186,0.049
		c0.044,0.025,0.075,0.052,0.095,0.083c0.019,0.03,0.029,0.067,0.029,0.111v0.982c0.418-0.468,0.824-0.81,1.218-1.028
		c0.393-0.217,0.791-0.326,1.192-0.326c0.308,0,0.585,0.036,0.83,0.107c0.245,0.072,0.461,0.172,0.648,0.301
		c0.187,0.129,0.347,0.284,0.479,0.462c0.132,0.179,0.242,0.378,0.33,0.599c0.248-0.27,0.483-0.498,0.706-0.686
		c0.223-0.187,0.438-0.338,0.644-0.454c0.206-0.116,0.407-0.2,0.603-0.252c0.195-0.052,0.392-0.078,0.59-0.078
		c0.479,0,0.88,0.083,1.205,0.251s0.587,0.392,0.789,0.673c0.201,0.281,0.344,0.609,0.429,0.986
		c0.085,0.377,0.128,0.774,0.128,1.193V48.386z"/>
</g>
</svg>
