<?xml version="1.0" encoding="iso-8859-1"?>
<!-- Generator: Adobe Illustrator 18.1.1, SVG Export Plug-In . SVG Version: 6.00 Build 0)  -->
<svg xmlns="http://www.w3.org/2000/svg" xmlns:xlink="http://www.w3.org/1999/xlink" version="1.1" id="Capa_1" x="0px" y="0px" viewBox="0 0 52.75 52.75" style="enable-background:new 0 0 52.75 52.75;" xml:space="preserve" width="512px" height="512px">
<g>
	<path d="M5.045,19.838c0-0.872,0.706-1.578,1.578-1.578h7.664c0.872,0,1.578,0.706,1.578,1.578c0,0.871-0.706,1.576-1.578,1.576   H6.626C5.752,21.417,5.045,20.71,5.045,19.838z M51.174,24.632c-0.871,0-1.578,0.705-1.578,1.575v7.664   c0,0.873,0.705,1.578,1.578,1.578c0.871,0,1.576-0.707,1.576-1.578v-7.664C52.75,25.338,52.045,24.632,51.174,24.632z    M29.168,12.835h19.977l-0.102,10.608H28.941v1.149h20.092L48.92,35.906l-3.723-0.047c0.07-0.387,0.113-0.785,0.113-1.191   c0-3.455-2.803-6.258-6.258-6.258s-6.254,2.803-6.254,6.258c0,0.395,0.039,0.783,0.111,1.162H18.372   c0.071-0.379,0.114-0.77,0.114-1.162c0-3.455-2.808-6.258-6.261-6.258c-3.454,0-6.258,2.803-6.258,6.258   c0,0.395,0.042,0.783,0.113,1.162H0v-5.334h2.107c0-0.023-0.008-0.053-0.008-0.074v-6.351c0,0-0.051-1.428,2.477-1.428   c2.521,0,13.118-0.038,13.118-0.038l2.892-8.417L29.168,12.835z M27.365,24.194v-0.749H24.96v0.749   C24.96,24.194,27.365,24.194,27.365,24.194z M27.842,15.92h-4.959l-1.805,6.762h6.764V15.92L27.842,15.92z M17.307,34.976   c0,2.729-2.209,4.938-4.938,4.938s-4.938-2.209-4.938-4.938c0-2.727,2.21-4.938,4.938-4.938   C15.096,30.041,17.307,32.251,17.307,34.976z M14.603,34.976c0-1.23-1.002-2.23-2.229-2.23c-1.231,0-2.231,1.002-2.231,2.23   c0,1.232,1.002,2.23,2.231,2.23C13.6,37.208,14.601,36.208,14.603,34.976z M43.91,34.976c0,2.729-2.211,4.938-4.939,4.938   c-2.727,0-4.936-2.209-4.936-4.938c0-2.727,2.209-4.938,4.936-4.938C41.699,30.042,43.91,32.251,43.91,34.976z M41.205,34.976   c0-1.23-1.002-2.23-2.232-2.23c-1.229,0-2.23,1.002-2.23,2.23c0,1.232,1.004,2.23,2.23,2.23   C40.205,37.208,41.205,36.208,41.205,34.976z" fill="#1d606b"/>
</g>
<g>
</g>
<g>
</g>
<g>
</g>
<g>
</g>
<g>
</g>
<g>
</g>
<g>
</g>
<g>
</g>
<g>
</g>
<g>
</g>
<g>
</g>
<g>
</g>
<g>
</g>
<g>
</g>
<g>
</g>
</svg>
