<?xml version="1.0" encoding="iso-8859-1"?>
<!-- Generator: Adobe Illustrator 19.0.0, SVG Export Plug-In . SVG Version: 6.00 Build 0)  -->
<svg xmlns="http://www.w3.org/2000/svg" xmlns:xlink="http://www.w3.org/1999/xlink" version="1.1" id="Layer_1" x="0px" y="0px" viewBox="0 0 512 512" style="enable-background:new 0 0 512 512;" xml:space="preserve" width="512px" height="512px">
<g>
	<g>
		<path d="M482.815,93.937H29.185C13.093,93.937,0,107.029,0,123.123v265.755c0,16.093,13.093,29.186,29.185,29.186h453.63    c16.092,0,29.185-13.093,29.185-29.186V123.123C512,107.029,498.907,93.937,482.815,93.937z M482.815,397.665H29.185    c-4.845,0-8.787-3.942-8.787-8.788V123.123c0-4.845,3.942-8.788,8.787-8.788h453.63c4.845,0,8.787,3.942,8.787,8.788v265.755h0    C491.602,393.722,487.66,397.665,482.815,397.665z" fill="#1d606b"/>
	</g>
</g>
<g>
	<g>
		<path d="M165.227,138.709c-64.674,0-117.291,52.617-117.291,117.291s52.617,117.291,117.291,117.291S282.518,320.674,282.518,256    S229.901,138.709,165.227,138.709z M165.227,352.892c-53.427,0-96.892-43.466-96.892-96.892c0-53.426,43.466-96.892,96.892-96.892    c53.426,0,96.892,43.466,96.892,96.892C262.12,309.427,218.654,352.892,165.227,352.892z" fill="#1d606b"/>
	</g>
</g>
<g>
	<g>
		<path d="M252.137,262.786c-4.959-7.802-13.735-11.878-22.893-10.65c-11.264,1.517-22.867,0.816-33.891-2.002    c-1.243-5.677-4.005-10.79-7.84-14.892c1.022-2.523,2.468-4.881,4.257-6.924c7.147-8.16,11.081-18.629,11.081-29.475    c0-16.945-13.258-30.862-30.184-31.684l-24.291-1.179c-9.244-0.453-17.627,4.364-21.904,12.56    c-4.276,8.196-3.424,17.833,2.224,25.151c6.784,8.789,11.772,18.574,14.875,29.144c-4.704,4.049-8.212,9.444-9.922,15.585    c-2.285,0.198-4.6,0.078-6.844-0.367c-10.64-2.107-21.672-0.283-31.066,5.141c-14.675,8.472-20.099,26.913-12.347,41.981    l11.124,21.627c4.07,7.911,11.968,12.71,20.788,12.71c0.346,0,0.694-0.007,1.041-0.021c9.236-0.395,17.155-5.951,20.67-14.502    c4.25-10.345,10.288-19.619,17.974-27.634c2.942,0.902,6.063,1.389,9.298,1.389c2.924,0,5.754-0.405,8.446-1.147    c1.567,2.072,2.812,4.394,3.646,6.848c3.495,10.269,10.593,18.911,19.985,24.333c4.998,2.885,10.461,4.264,15.855,4.264    c10.443,0,20.627-5.167,26.675-14.561l13.167-20.447C257.068,280.262,257.096,270.587,252.137,262.786z M118.148,307.238    c-0.608,1.481-1.788,1.836-2.67,1.874c-0.882,0.035-2.089-0.215-2.821-1.639l-11.124-21.626    c-2.767-5.379-0.83-11.962,4.407-14.986c5.111-2.951,11.115-3.943,16.901-2.798c3.914,0.775,7.946,1.007,11.937,0.719    c0.934,2.318,2.133,4.501,3.56,6.513C129.792,284.674,123.018,295.385,118.148,307.238z M164.289,268.347    c-6.29,0-11.408-5.118-11.408-11.408s5.118-11.407,11.408-11.407s11.407,5.117,11.407,11.407S170.579,268.347,164.289,268.347z     M176.422,214.879c-2.8,3.198-5.136,6.819-6.93,10.688c-1.694-0.28-3.431-0.432-5.204-0.432c-0.578,0-1.151,0.017-1.723,0.048    c-3.845-12.279-9.783-23.67-17.721-33.954c-0.978-1.267-0.697-2.466-0.288-3.25c0.409-0.784,1.206-1.696,2.829-1.623l24.291,1.179    c6.042,0.294,10.774,5.261,10.774,11.309C182.452,204.744,180.31,210.439,176.422,214.879z M234.912,276.991l-13.168,20.448    c-3.273,5.085-9.942,6.699-15.181,3.676c-5.111-2.951-8.972-7.652-10.873-13.239c-1.421-4.174-3.49-8.141-6.072-11.73    c1.318-1.734,2.462-3.605,3.407-5.59c12.734,2.905,26.019,3.537,38.94,1.798c1.581-0.216,2.482,0.627,2.957,1.374    C235.396,274.474,235.779,275.645,234.912,276.991z" fill="#1d606b"/>
	</g>
</g>
<g>
	<g>
		<path d="M456.924,141.769H321.275c-5.632,0-10.199,4.566-10.199,10.199s4.567,10.199,10.199,10.199h135.649    c5.632,0,10.199-4.566,10.199-10.199S462.556,141.769,456.924,141.769z" fill="#1d606b"/>
	</g>
</g>
<g>
	<g>
		<path d="M456.924,193.785H321.275c-5.632,0-10.199,4.566-10.199,10.199s4.567,10.199,10.199,10.199h135.649    c5.632,0,10.199-4.566,10.199-10.199S462.556,193.785,456.924,193.785z" fill="#1d606b"/>
	</g>
</g>
<g>
	<g>
		<path d="M456.924,245.801H321.275c-5.632,0-10.199,4.566-10.199,10.199c0,5.633,4.567,10.199,10.199,10.199h135.649    c5.632,0,10.199-4.566,10.199-10.199C467.124,250.367,462.556,245.801,456.924,245.801z" fill="#1d606b"/>
	</g>
</g>
<g>
	<g>
		<path d="M456.924,297.817H321.275c-5.632,0-10.199,4.566-10.199,10.199c0,5.633,4.567,10.199,10.199,10.199h135.649    c5.632,0,10.199-4.566,10.199-10.199C467.124,302.383,462.556,297.817,456.924,297.817z" fill="#1d606b"/>
	</g>
</g>
<g>
	<g>
		<path d="M416.128,349.833h-94.853c-5.632,0-10.199,4.566-10.199,10.199c0,5.633,4.567,10.199,10.199,10.199h94.853    c5.632,0,10.199-4.566,10.199-10.199C426.327,354.399,421.76,349.833,416.128,349.833z" fill="#1d606b"/>
	</g>
</g>
<g>
	<g>
		<path d="M456.924,349.833h-5.1c-5.632,0-10.199,4.566-10.199,10.199c0,5.633,4.567,10.199,10.199,10.199h5.1    c5.632,0,10.199-4.566,10.199-10.199C467.124,354.399,462.556,349.833,456.924,349.833z" fill="#1d606b"/>
	</g>
</g>
<g>
</g>
<g>
</g>
<g>
</g>
<g>
</g>
<g>
</g>
<g>
</g>
<g>
</g>
<g>
</g>
<g>
</g>
<g>
</g>
<g>
</g>
<g>
</g>
<g>
</g>
<g>
</g>
<g>
</g>
</svg>
