<?xml version="1.0" encoding="iso-8859-1"?>
<!-- Generator: Adobe Illustrator 17.1.0, SVG Export Plug-In . SVG Version: 6.00 Build 0)  -->
<!DOCTYPE svg PUBLIC "-//W3C//DTD SVG 1.1//EN" "http://www.w3.org/Graphics/SVG/1.1/DTD/svg11.dtd">
<svg xmlns="http://www.w3.org/2000/svg" xmlns:xlink="http://www.w3.org/1999/xlink" version="1.1" id="Capa_1" x="0px" y="0px" viewBox="0 0 214.927 214.927" style="enable-background:new 0 0 214.927 214.927;" xml:space="preserve" width="512px" height="512px">
<path d="M214.927,119.443c0-7.438-6.051-13.488-13.488-13.488c-7.437,0-13.487,6.051-13.487,13.488c0,0.896,0.092,1.771,0.26,2.619  l-11.435-21.891V52.778c0.866-1.614,1.36-3.456,1.36-5.413c0-6.335-5.153-11.488-11.487-11.488s-11.487,5.153-11.487,11.488  c0,0.118,0.014,0.233,0.018,0.35l-47.529-23.719l-47.53,23.719c0.004-0.117,0.018-0.232,0.018-0.35  c0-6.335-5.153-11.488-11.487-11.488c-6.334,0-11.488,5.153-11.488,11.488c0,1.957,0.494,3.799,1.361,5.414v47.38l-11.939,22.444  c0.245-1.016,0.389-2.07,0.389-3.16c0-7.438-6.05-13.488-13.487-13.488S0,112.005,0,119.443c0,2.088,0.491,4.059,1.342,5.825v65.662  h16.292h8h163.66h8h16.292v-65.662C214.436,123.502,214.927,121.531,214.927,119.443z M77.271,94.205v-7.536  c0-4.397,3.577-7.975,7.975-7.975h44.811c4.397,0,7.975,3.577,7.975,7.975v7.536c0,4.397-3.577,7.975-7.975,7.975H85.246  C80.849,102.18,77.271,98.603,77.271,94.205z M201.439,113.954c3.026,0,5.488,2.462,5.488,5.488c0,3.025-2.462,5.487-5.488,5.487  c-3.025,0-5.487-2.462-5.487-5.487C195.952,116.416,198.414,113.954,201.439,113.954z M166.65,43.877  c1.923,0,3.487,1.564,3.487,3.488c0,1.923-1.564,3.487-3.487,3.487s-3.487-1.564-3.487-3.487  C163.163,45.442,164.727,43.877,166.65,43.877z M156.523,105.156h8h5.832l14.676,28.095l-64.976-23.072h10.003  c4.569,0,8.685-1.938,11.599-5.023H156.523z M48.652,43.877c1.923,0,3.487,1.564,3.487,3.488c0,1.923-1.564,3.487-3.487,3.487  c-1.923,0-3.488-1.564-3.488-3.487C45.164,45.442,46.729,43.877,48.652,43.877z M44.928,105.156h5.851h8h14.869  c2.914,3.085,7.03,5.023,11.599,5.023h9.626l-64.87,23.034L44.928,105.156z M13.488,113.954c3.026,0,5.487,2.462,5.487,5.488  c0,3.025-2.461,5.487-5.487,5.487S8,122.468,8,119.443C8,116.416,10.462,113.954,13.488,113.954z" fill="#1d606b"/>
<g>
</g>
<g>
</g>
<g>
</g>
<g>
</g>
<g>
</g>
<g>
</g>
<g>
</g>
<g>
</g>
<g>
</g>
<g>
</g>
<g>
</g>
<g>
</g>
<g>
</g>
<g>
</g>
<g>
</g>
</svg>
