<?xml version="1.0" encoding="iso-8859-1"?>
<!-- Generator: Adobe Illustrator 19.0.0, SVG Export Plug-In . SVG Version: 6.00 Build 0)  -->
<svg xmlns="http://www.w3.org/2000/svg" xmlns:xlink="http://www.w3.org/1999/xlink" version="1.1" id="Layer_1" x="0px" y="0px" viewBox="0 0 512 512" style="enable-background:new 0 0 512 512;" xml:space="preserve" width="512px" height="512px">
<g>
	<g>
		<path d="M376,0c-15.745,0-29.964,6.649-40,17.288C325.964,6.649,311.745,0,296,0h-80c-15.745,0-29.964,6.649-40,17.288    C165.964,6.649,151.745,0,136,0c-30.327,0-55,24.673-55,55v402c0,30.327,24.673,55,55,55c15.745,0,29.964-6.649,40-17.288    C186.036,505.351,200.255,512,216,512s29.964-6.649,40-17.288C266.036,505.351,280.255,512,296,512s29.964-6.649,40-17.288    C346.036,505.351,360.255,512,376,512c30.327,0,55-24.673,55-55V55C431,24.673,406.327,0,376,0z M351,457h-30V174.214    c-13.551,12.734-30.828,21.544-50,24.598V457h-30V198.812c-19.172-3.054-36.449-11.864-50-24.598V457h-30V55h30v50    c0,35.841,29.159,65,65,65s65-29.159,65-65V55h30V457z" fill="#1d606b"/>
	</g>
</g>
<g>
</g>
<g>
</g>
<g>
</g>
<g>
</g>
<g>
</g>
<g>
</g>
<g>
</g>
<g>
</g>
<g>
</g>
<g>
</g>
<g>
</g>
<g>
</g>
<g>
</g>
<g>
</g>
<g>
</g>
</svg>
