<?xml version="1.0" encoding="iso-8859-1"?>
<!-- Generator: Adobe Illustrator 17.1.0, SVG Export Plug-In . SVG Version: 6.00 Build 0)  -->
<!DOCTYPE svg PUBLIC "-//W3C//DTD SVG 1.1//EN" "http://www.w3.org/Graphics/SVG/1.1/DTD/svg11.dtd">
<svg xmlns="http://www.w3.org/2000/svg" xmlns:xlink="http://www.w3.org/1999/xlink" version="1.1" id="Capa_1" x="0px" y="0px" viewBox="0 0 192.835 192.835" style="enable-background:new 0 0 192.835 192.835;" xml:space="preserve" width="512px" height="512px">
<path d="M192.291,122.902l-10.282-17.566V44.585c0-7.829-6.37-14.199-14.199-14.199c-3.998,0-7.616,1.661-10.199,4.33  c-2.583-2.668-6.201-4.33-10.199-4.33c-3.999,0-7.616,1.661-10.199,4.33c-2.583-2.668-6.201-4.33-10.199-4.33  c-3.998,0-7.616,1.661-10.199,4.33c-2.583-2.668-6.201-4.33-10.199-4.33c-3.998,0-7.616,1.661-10.199,4.33  c-2.583-2.668-6.201-4.33-10.199-4.33c-3.999,0-7.616,1.661-10.199,4.33c-2.583-2.668-6.201-4.33-10.199-4.33  s-7.616,1.661-10.199,4.33c-2.583-2.668-6.201-4.33-10.199-4.33c-3.998,0-7.616,1.661-10.199,4.33  c-2.583-2.668-6.201-4.33-10.199-4.33c-7.83,0-14.199,6.37-14.199,14.199v60.751L0.544,122.902  c-0.561,0.959-0.686,2.092-0.384,3.133l2.33,24.256c0.666,6.93,6.418,12.157,13.38,12.157h7.545c2.209,0,4-1.791,4-4v-5.483H165.42  v5.483c0,2.209,1.791,4,4,4h7.545c6.962,0,12.715-5.227,13.38-12.157l2.33-24.256C192.977,124.995,192.852,123.861,192.291,122.902z   M34.372,77.48c0-5.104,4.152-9.256,9.256-9.256h34.741c5.884,0,10.67,4.787,10.67,10.67v2.159c0,5.883-4.787,10.67-10.67,10.67  H45.042c-5.884,0-10.67-4.787-10.67-10.67V77.48z M103.796,77.48c0-5.104,4.152-9.256,9.256-9.256h34.741  c5.884,0,10.67,4.787,10.67,10.67v2.159c0,5.883-4.787,10.67-10.67,10.67h-33.327c-5.884,0-10.67-4.787-10.67-10.67V77.48z   M10.972,120.923l17.764-30.348h0.276c3.26,5.466,9.216,9.147,16.03,9.147h33.327c6.814,0,12.77-3.681,16.03-9.147h4.037  c3.26,5.466,9.216,9.147,16.03,9.147h33.327c6.814,0,12.77-3.681,16.03-9.147h0.276l17.764,30.348H10.972z" fill="#1d606b"/>
<g>
</g>
<g>
</g>
<g>
</g>
<g>
</g>
<g>
</g>
<g>
</g>
<g>
</g>
<g>
</g>
<g>
</g>
<g>
</g>
<g>
</g>
<g>
</g>
<g>
</g>
<g>
</g>
<g>
</g>
</svg>
