<?xml version="1.0" encoding="iso-8859-1"?>
<!-- Generator: Adobe Illustrator 16.0.0, SVG Export Plug-In . SVG Version: 6.00 Build 0)  -->
<!DOCTYPE svg PUBLIC "-//W3C//DTD SVG 1.1//EN" "http://www.w3.org/Graphics/SVG/1.1/DTD/svg11.dtd">
<svg xmlns="http://www.w3.org/2000/svg" xmlns:xlink="http://www.w3.org/1999/xlink" version="1.1" id="Capa_1" x="0px" y="0px" width="512px" height="512px" viewBox="0 0 44.062 44.062" style="enable-background:new 0 0 44.062 44.062;" xml:space="preserve">
<g>
	<g>
		<g>
			<path d="M25.821,28.582c0-2.254-1.827-4.082-4.081-4.082H4.081C1.827,24.5,0,26.328,0,28.582v4.685     c0,2.254,1.827,4.081,4.081,4.081H21.74c2.254,0,4.081-1.827,4.081-4.081V28.582z" fill="#1d606b"/>
		</g>
		<g>
			<path d="M23.262,18.29h7.734c0.964,0,1.797-0.705,2.001-1.646l0.51-2.346c0.134-0.606-0.017-1.265-0.405-1.745     c-0.389-0.483-0.975-0.757-1.594-0.757h-7.736c-0.962,0-1.795,0.671-2,1.612l-0.511,2.334c-0.131,0.606,0.018,1.261,0.406,1.744     C22.056,17.97,22.643,18.29,23.262,18.29z" fill="#1d606b"/>
		</g>
		<g>
			<path d="M40.746,6.715h-22.49c-1.831,0-3.273,1.427-3.273,3.257v5.6c0.423-0.117,1.083-0.179,1.653-0.179l2.582,0.016     c0.006-0.032,0.011-0.052,0.018-0.083l0.513-2.314c0.411-1.891,2.066-3.191,4.022-3.191h7.736c1.27,0,2.438,0.525,3.209,1.48     c0.786,0.976,1.084,2.226,0.815,3.451l-0.166,0.759l4.272,0.025c1.724,0.012,3.295,0.715,4.424,1.845V9.972     C44.062,8.142,42.578,6.715,40.746,6.715z" fill="#1d606b"/>
		</g>
		<g>
			<path d="M39.652,17.607l-4.758-0.005c-0.576,1.638-2.149,2.805-3.898,2.805h-7.734c-1.219,0-2.417-0.609-3.208-1.591     c-0.314-0.391-0.55-0.849-0.703-1.322l-2.709-0.023c-1.112-0.006-2.205,0.306-3.157,0.881l-6.883,4.172H21.33     c3.516,0,6.359,2.79,6.359,6.29v5.182c0,0.782-0.164,1.526-0.469,2.197l15.082-9.029c0.977-0.586,1.621-1.645,1.621-2.785v-2.502     C43.922,19.531,42.001,17.622,39.652,17.607z" fill="#1d606b"/>
		</g>
	</g>
</g>
<g>
</g>
<g>
</g>
<g>
</g>
<g>
</g>
<g>
</g>
<g>
</g>
<g>
</g>
<g>
</g>
<g>
</g>
<g>
</g>
<g>
</g>
<g>
</g>
<g>
</g>
<g>
</g>
<g>
</g>
</svg>
