<?xml version="1.0" encoding="iso-8859-1"?>
<!-- Generator: Adobe Illustrator 18.0.0, SVG Export Plug-In . SVG Version: 6.00 Build 0)  -->
<!DOCTYPE svg PUBLIC "-//W3C//DTD SVG 1.1//EN" "http://www.w3.org/Graphics/SVG/1.1/DTD/svg11.dtd">
<svg xmlns="http://www.w3.org/2000/svg" xmlns:xlink="http://www.w3.org/1999/xlink" version="1.1" id="Capa_1" x="0px" y="0px" viewBox="0 0 60 60" style="enable-background:new 0 0 60 60;" xml:space="preserve" width="512px" height="512px">
<g>
	<path d="M52,14V7.291C52,3.271,48.729,0,44.709,0H15.291C11.271,0,8,3.271,8,7.291V14H52z M44,5c2.206,0,4,1.794,4,4s-1.794,4-4,4   s-4-1.794-4-4S41.794,5,44,5z M22,4h16v8H22V4z M16,5c2.206,0,4,1.794,4,4s-1.794,4-4,4s-4-1.794-4-4S13.794,5,16,5z" fill="#1d606b"/>
	<path d="M18,45c0.552,0,1,0.448,1,1h4c0-0.552,0.448-1,1-1s1,0.448,1,1h4c0-0.552,0.448-1,1-1s1,0.448,1,1h4c0-0.552,0.448-1,1-1   s1,0.448,1,1h4c0-0.552,0.448-1,1-1s1,0.448,1,1h3v-3c0,0.552-0.448,1-1,1s-1-0.448-1-1s0.448-1,1-1s1,0.448,1,1v-6   c0,0.552-0.448,1-1,1s-1-0.448-1-1s0.448-1,1-1s1,0.448,1,1v-6c0,0.552-0.448,1-1,1s-1-0.448-1-1h-4c0,0.552-0.448,1-1,1   s-1-0.448-1-1h-4c0,0.552-0.448,1-1,1s-1-0.448-1-1h-4c0,0.552-0.448,1-1,1s-1-0.448-1-1h-4c0,0.552-0.448,1-1,1s-1-0.448-1-1h-4   c0,0.552-0.448,1-1,1s-1-0.448-1-1v6c0-0.552,0.448-1,1-1s1,0.448,1,1s-0.448,1-1,1s-1-0.448-1-1v6c0-0.552,0.448-1,1-1   s1,0.448,1,1s-0.448,1-1,1s-1-0.448-1-1v3h3C17,45.448,17.448,45,18,45z M42,33c0.552,0,1,0.448,1,1s-0.448,1-1,1s-1-0.448-1-1   S41.448,33,42,33z M42,39c0.552,0,1,0.448,1,1s-0.448,1-1,1s-1-0.448-1-1S41.448,39,42,39z M39,36c0.552,0,1,0.448,1,1   s-0.448,1-1,1s-1-0.448-1-1S38.448,36,39,36z M39,42c0.552,0,1,0.448,1,1s-0.448,1-1,1s-1-0.448-1-1S38.448,42,39,42z M36,33   c0.552,0,1,0.448,1,1s-0.448,1-1,1s-1-0.448-1-1S35.448,33,36,33z M36,39c0.552,0,1,0.448,1,1s-0.448,1-1,1s-1-0.448-1-1   S35.448,39,36,39z M33,36c0.552,0,1,0.448,1,1s-0.448,1-1,1s-1-0.448-1-1S32.448,36,33,36z M33,42c0.552,0,1,0.448,1,1   s-0.448,1-1,1s-1-0.448-1-1S32.448,42,33,42z M30,33c0.552,0,1,0.448,1,1s-0.448,1-1,1s-1-0.448-1-1S29.448,33,30,33z M30,39   c0.552,0,1,0.448,1,1s-0.448,1-1,1s-1-0.448-1-1S29.448,39,30,39z M27,36c0.552,0,1,0.448,1,1s-0.448,1-1,1s-1-0.448-1-1   S26.448,36,27,36z M27,42c0.552,0,1,0.448,1,1s-0.448,1-1,1s-1-0.448-1-1S26.448,42,27,42z M24,33c0.552,0,1,0.448,1,1   s-0.448,1-1,1s-1-0.448-1-1S23.448,33,24,33z M24,39c0.552,0,1,0.448,1,1s-0.448,1-1,1s-1-0.448-1-1S23.448,39,24,39z M21,36   c0.552,0,1,0.448,1,1s-0.448,1-1,1s-1-0.448-1-1S20.448,36,21,36z M21,42c0.552,0,1,0.448,1,1s-0.448,1-1,1s-1-0.448-1-1   S20.448,42,21,42z M18,33c0.552,0,1,0.448,1,1s-0.448,1-1,1s-1-0.448-1-1S17.448,33,18,33z M18,39c0.552,0,1,0.448,1,1   s-0.448,1-1,1s-1-0.448-1-1S17.448,39,18,39z" fill="#1d606b"/>
	<rect x="8" y="52" width="44" height="8" fill="#1d606b"/>
	<path d="M52,50V16H8v34H52z M18,21h24c1.654,0,3,1.346,3,3s-1.346,3-3,3H18c-1.654,0-3-1.346-3-3S16.346,21,18,21z M48,29v19H12V29   H48z" fill="#1d606b"/>
</g>
<g>
</g>
<g>
</g>
<g>
</g>
<g>
</g>
<g>
</g>
<g>
</g>
<g>
</g>
<g>
</g>
<g>
</g>
<g>
</g>
<g>
</g>
<g>
</g>
<g>
</g>
<g>
</g>
<g>
</g>
</svg>
