<?xml version="1.0" encoding="iso-8859-1"?>
<!-- Generator: Adobe Illustrator 19.0.0, SVG Export Plug-In . SVG Version: 6.00 Build 0)  -->
<svg xmlns="http://www.w3.org/2000/svg" xmlns:xlink="http://www.w3.org/1999/xlink" version="1.1" id="Layer_1" x="0px" y="0px" viewBox="0 0 512 512" style="enable-background:new 0 0 512 512;" xml:space="preserve" width="512px" height="512px">
<g>
	<g>
		<g>
			<polygon points="272.696,220.884 397.909,220.884 397.909,165.232 114.091,165.232 114.091,220.884 239.304,220.884      239.304,377.99 195.969,377.99 195.969,411.381 316.03,411.381 316.03,377.99 272.696,377.99    " fill="#1D606B"/>
			<polygon points="33.391,100.619 0,100.619 0,407.932 33.391,407.932 33.391,343.319 125.026,343.319 125.026,407.932      158.417,407.932 158.417,276.42 176.557,276.42 176.557,243.029 33.391,243.029    " fill="#1D606B"/>
			<polygon points="478.609,100.619 478.609,243.028 335.443,243.028 335.443,276.419 353.583,276.419 353.583,407.931      386.974,407.931 386.974,343.319 478.609,343.319 478.609,407.932 512,407.932 512,100.619    " fill="#1D606B"/>
		</g>
	</g>
</g>
<g>
</g>
<g>
</g>
<g>
</g>
<g>
</g>
<g>
</g>
<g>
</g>
<g>
</g>
<g>
</g>
<g>
</g>
<g>
</g>
<g>
</g>
<g>
</g>
<g>
</g>
<g>
</g>
<g>
</g>
</svg>
