<?xml version="1.0" encoding="iso-8859-1"?>
<!-- Generator: Adobe Illustrator 19.0.0, SVG Export Plug-In . SVG Version: 6.00 Build 0)  -->
<svg xmlns="http://www.w3.org/2000/svg" xmlns:xlink="http://www.w3.org/1999/xlink" version="1.1" id="Capa_1" x="0px" y="0px" viewBox="0 0 512 512" style="enable-background:new 0 0 512 512;" xml:space="preserve" width="512px" height="512px">
<g>
	<g>
		<path d="M364.75,242.676H353.5V36.621C353.5,16.428,337.519,0,317.875,0h-123.75C174.481,0,158.5,16.428,158.5,36.621v206.055    h-11.25c-14.474,0-26.25,12.074-26.25,26.914c0,12.169,7.92,22.471,18.75,25.789v18.216v9.384v177.47    c0,6.369,5.467,11.551,12.188,11.551h28.125c6.72,0,12.188-5.182,12.188-11.551V335.332h127.5v99.277c0,4.142,3.357,7.5,7.5,7.5    s7.5-3.358,7.5-7.5v-99.277h22.5V497h-22.5v-33.27c0-4.142-3.357-7.5-7.5-7.5s-7.5,3.358-7.5,7.5v36.718    c0,6.369,5.468,11.551,12.188,11.551h28.125c6.72,0,12.188-5.182,12.188-11.551v-177.47v-9.06v-18.54    C383.081,292.061,391,281.758,391,269.59C391,254.75,379.225,242.676,364.75,242.676z M177.25,497h-22.5V335.332h22.5V497z     M357.25,313.919v6.414h-202.5v-0.001v-6.737v-17.091h202.5V313.919z M364.75,281.504h-217.5c-6.203,0-11.25-5.345-11.25-11.914    c0-6.569,5.047-11.914,11.25-11.914h46.875c4.142,0,7.5-3.358,7.5-7.5c0-4.142-3.358-7.5-7.5-7.5H173.5V36.621    C173.5,24.699,182.752,15,194.125,15h123.75c11.373,0,20.625,9.699,20.625,21.621v206.055H222.25c-4.142,0-7.5,3.358-7.5,7.5    c0,4.142,3.358,7.5,7.5,7.5h142.5c6.203,0,11.25,5.345,11.25,11.914C376,276.159,370.953,281.504,364.75,281.504z" fill="#1D606B"/>
	</g>
</g>
<g>
</g>
<g>
</g>
<g>
</g>
<g>
</g>
<g>
</g>
<g>
</g>
<g>
</g>
<g>
</g>
<g>
</g>
<g>
</g>
<g>
</g>
<g>
</g>
<g>
</g>
<g>
</g>
<g>
</g>
</svg>
