<?xml version="1.0" encoding="iso-8859-1"?>
<!-- Generator: Adobe Illustrator 19.0.0, SVG Export Plug-In . SVG Version: 6.00 Build 0)  -->
<svg xmlns="http://www.w3.org/2000/svg" xmlns:xlink="http://www.w3.org/1999/xlink" version="1.1" id="Capa_1" x="0px" y="0px" viewBox="0 0 511.999 511.999" style="enable-background:new 0 0 511.999 511.999;" xml:space="preserve" width="512px" height="512px">
<g>
	<g>
		<path d="M379.562,0H127.939c-4.15,0-7.515,3.364-7.515,7.515v188.988c0,4.151,3.365,7.515,7.515,7.515    c4.15,0,7.515-3.364,7.515-7.515V15.029h236.593v386.755c0,4.151,3.364,7.515,7.515,7.515s7.515-3.364,7.515-7.515V7.515    C387.076,3.364,383.713,0,379.562,0z" fill="#1D606B"/>
	</g>
</g>
<g>
	<g>
		<path d="M184.101,143.602h-23.963c-4.15,0-7.515,3.364-7.515,7.515v170.921c0,4.151,3.365,7.515,7.515,7.515h23.963    c4.15,0,7.515-3.364,7.515-7.515V151.117C191.616,146.966,188.251,143.602,184.101,143.602z M176.586,314.523h-8.933V158.632    h8.933V314.523z" fill="#1D606B"/>
	</g>
</g>
<g>
	<g>
		<path d="M344.853,37.915h-25.132c-4.151,0-7.515,3.364-7.515,7.515c0,4.151,3.364,7.515,7.515,7.515h25.132    c4.151,0,7.515-3.364,7.515-7.515C352.368,41.279,349.003,37.915,344.853,37.915z" fill="#1D606B"/>
	</g>
</g>
<g>
	<g>
		<path d="M344.853,59.105h-25.132c-4.151,0-7.515,3.364-7.515,7.515s3.364,7.515,7.515,7.515h25.132    c4.151,0,7.515-3.364,7.515-7.515S349.003,59.105,344.853,59.105z" fill="#1D606B"/>
	</g>
</g>
<g>
	<g>
		<path d="M396.325,451.527h-9.247v-18.08c0-4.151-3.364-7.515-7.515-7.515c-4.151,0-7.515,3.364-7.515,7.515v18.08H135.454v-221.43    c0-4.151-3.365-7.515-7.515-7.515c-4.15,0-7.515,3.364-7.515,7.515v221.428h-4.75c-4.15,0-7.515,3.364-7.515,7.515v20.505    c0,4.151,3.365,7.515,7.515,7.515h21.802v8.246c0,9.205,7.489,16.693,16.693,16.693h1.814c9.204,0,16.693-7.489,16.693-16.693    v-8.246h171.376v8.246c0,9.205,7.489,16.693,16.693,16.693h1.804c9.209,0,16.703-7.489,16.703-16.693v-8.246h17.075    c4.151,0,7.515-3.364,7.515-7.515v-20.505C403.839,454.89,400.475,451.527,396.325,451.527z M157.645,495.307    c0,0.917-0.746,1.663-1.663,1.663h-1.814c-0.918,0-1.663-0.746-1.663-1.663v-8.246h5.14V495.307z M364.22,495.307    c0,0.917-0.75,1.663-1.673,1.663h-1.803c-0.917,0-1.663-0.746-1.663-1.663v-8.246h5.14V495.307z M123.189,472.031v-5.476h4.75    h251.622h9.247v5.476H123.189z" fill="#1D606B"/>
	</g>
</g>
<g>
</g>
<g>
</g>
<g>
</g>
<g>
</g>
<g>
</g>
<g>
</g>
<g>
</g>
<g>
</g>
<g>
</g>
<g>
</g>
<g>
</g>
<g>
</g>
<g>
</g>
<g>
</g>
<g>
</g>
</svg>
