<?xml version="1.0" encoding="iso-8859-1"?>
<!-- Generator: Adobe Illustrator 18.1.1, SVG Export Plug-In . SVG Version: 6.00 Build 0)  -->
<svg xmlns="http://www.w3.org/2000/svg" xmlns:xlink="http://www.w3.org/1999/xlink" version="1.1" id="Capa_1" x="0px" y="0px" viewBox="0 0 54.25 54.25" style="enable-background:new 0 0 54.25 54.25;" xml:space="preserve" width="512px" height="512px">
<g>
	<g>
		<circle cx="29.283" cy="5.708" r="5.708" fill="#1d606b"/>
		<path d="M45.605,50.463c-2.371,0.189-4.359,1.309-4.359,1.309L26.531,31.937    c0.752-0.715,1.176-1.775,0.867-3.074c-0.93-3.931-1.402-7.914-1.754-11.92c1.031-1.733,0.4-4.083-0.943-5.532    c-0.494-0.667-1.217-1.095-1.991-1.28c-2.207-0.738-4.357,0.349-5.761,2.22C13.026,17.582,9.103,22.812,5.18,28.043    c-1.102,1.469-0.839,3.5,0.114,5.023c-0.002,0.052-0.008,0.101-0.008,0.15c0,5.958,0,11.914,0,17.871c0,4.217,6.538,4.217,6.538,0    c0-5.479,0-10.956,0-16.436c0.696-0.426,1.326-1.012,1.85-1.709c2.096-2.795,4.19-5.588,6.287-8.381    c0.298,2.025,0.661,4.042,1.135,6.04c0.559,2.358,2.882,2.781,4.57,1.938l14.709,21.189h5.23    C45.605,53.729,47.974,50.271,45.605,50.463z" fill="#1d606b"/>
		<circle cx="47.48" cy="46.73" r="2.31" fill="#1d606b"/>
	</g>
</g>
<g>
</g>
<g>
</g>
<g>
</g>
<g>
</g>
<g>
</g>
<g>
</g>
<g>
</g>
<g>
</g>
<g>
</g>
<g>
</g>
<g>
</g>
<g>
</g>
<g>
</g>
<g>
</g>
<g>
</g>
</svg>
