<?xml version="1.0" encoding="iso-8859-1"?>
<!-- Generator: Adobe Illustrator 17.1.0, SVG Export Plug-In . SVG Version: 6.00 Build 0)  -->
<!DOCTYPE svg PUBLIC "-//W3C//DTD SVG 1.1//EN" "http://www.w3.org/Graphics/SVG/1.1/DTD/svg11.dtd">
<svg xmlns="http://www.w3.org/2000/svg" xmlns:xlink="http://www.w3.org/1999/xlink" version="1.1" id="Capa_1" x="0px" y="0px" viewBox="0 0 421.47 421.47" style="enable-background:new 0 0 421.47 421.47;" xml:space="preserve" width="512px" height="512px">
<g>
	<path d="M415.276,61.627L359.829,6.18C355.841,2.195,350.532,0,344.881,0s-10.96,2.194-14.949,6.181L86.029,250.083   c-8.234,8.243-8.233,21.655,0.003,29.899l10.887,10.882l-93.08,93.08c-0.93,0.84-3.664,3.645-3.831,7.678   c-0.076,1.867,0.385,4.646,3.021,7.281l19.448,19.443c2.581,2.582,5.261,3.124,7.055,3.123c4.228,0,7.114-2.85,8.02-3.881   l93.044-93.048l10.886,10.885c3.986,3.99,9.294,6.188,14.947,6.188c5.651,0,10.961-2.197,14.948-6.186l243.9-243.9   c3.994-3.994,6.194-9.302,6.194-14.948C421.47,70.94,419.272,65.631,415.276,61.627z" fill="#1d606b"/>
	<path d="M344.752,247.03c-24.937,0-45.224,20.287-45.224,45.224c0,24.936,20.287,45.223,45.224,45.223s45.224-20.287,45.224-45.223   C389.975,267.317,369.688,247.03,344.752,247.03z" fill="#1d606b"/>
</g>
<g>
</g>
<g>
</g>
<g>
</g>
<g>
</g>
<g>
</g>
<g>
</g>
<g>
</g>
<g>
</g>
<g>
</g>
<g>
</g>
<g>
</g>
<g>
</g>
<g>
</g>
<g>
</g>
<g>
</g>
</svg>
