<?xml version="1.0" encoding="iso-8859-1"?>
<!-- Generator: Adobe Illustrator 17.1.0, SVG Export Plug-In . SVG Version: 6.00 Build 0)  -->
<!DOCTYPE svg PUBLIC "-//W3C//DTD SVG 1.1//EN" "http://www.w3.org/Graphics/SVG/1.1/DTD/svg11.dtd">
<svg xmlns="http://www.w3.org/2000/svg" xmlns:xlink="http://www.w3.org/1999/xlink" version="1.1" id="Capa_1" x="0px" y="0px" viewBox="0 0 212.308 212.308" style="enable-background:new 0 0 212.308 212.308;" xml:space="preserve" width="512px" height="512px">
<path d="M108.217,165.363c0,0.917-0.094,1.813-0.272,2.679l-11.061-6.172c-1.93-1.074-4.365-0.384-5.442,1.544  c-1.076,1.93-0.385,4.366,1.544,5.442l11.043,6.162c-2.379,2.242-5.574,3.627-9.094,3.627c-7.324,0-13.282-5.958-13.282-13.282  c0-7.323,5.958-13.281,13.282-13.281S108.217,158.04,108.217,165.363z M140.742,126.948c-0.638,1.59-1.221,3.04-1.764,4.385  c8.461,4.011,14.327,12.633,14.327,22.602v41.828h39.972c2.209,0,4,1.791,4,4v8.544c0,2.209-1.791,4-4,4H12.903  c-2.209,0-4-1.791-4-4v-8.544c0-2.209,1.791-4,4-4h39.972v-41.828c0-9.544,5.378-17.853,13.26-22.064L41.415,54.54  c-0.04-0.124-0.046-0.253-0.073-0.379l-8.158-1.259c-2.184-0.337-3.68-2.38-3.343-4.563c0.336-2.183,2.378-3.688,4.563-3.343  l41.675,6.431c2.184,0.337,3.68,2.38,3.343,4.563c-0.305,1.977-2.008,3.391-3.948,3.391c-0.203,0-0.408-0.016-0.615-0.048  l-10.435-1.61l22.765,71.213h41.117c0.998,0,1.98,0.065,2.947,0.18c7.577-18.665,21.557-54.864,33.336-85.727  c0.001-0.003,0.001-0.006,0.002-0.01c0.003-0.008,0.007-0.014,0.01-0.022c1.219-3.194,2.414-6.33,3.576-9.384l-6.298,1.83  c-0.373,0.108-0.749,0.16-1.118,0.16c-1.734,0-3.331-1.136-3.839-2.885c-0.616-2.122,0.604-4.341,2.725-4.957l28.738-8.35  c0.166-0.048,0.332-0.066,0.499-0.092l6.803-17.154c0.814-2.053,3.139-3.056,5.193-2.244c2.054,0.814,3.058,3.14,2.244,5.193  l-17.865,45.05c-0.62,1.563-2.121,2.526-3.718,2.526c-0.421,0-0.849-0.067-1.269-0.208l-9.519-3.185  c-4.034,10.553-9.236,24.12-14.463,37.632C149.828,103.991,144.597,117.334,140.742,126.948z M173.607,42.178l5.609,1.876  l5.956-15.02l-7.375,2.143C177.079,33.069,175.603,36.948,173.607,42.178z M132.987,169.584c-1.798-1.284-4.296-0.865-5.58,0.933  l-4.279,5.997l-8.003-4.466c0.699-2.105,1.092-4.348,1.092-6.685c0-11.734-9.547-21.281-21.282-21.281s-21.282,9.547-21.282,21.281  c0,11.735,9.547,21.282,21.282,21.282c6.533,0,12.382-2.964,16.289-7.613l7.229,4.034l-3.861,5.412  c-1.283,1.798-0.865,4.296,0.933,5.579c0.704,0.503,1.516,0.744,2.32,0.744c1.249,0,2.479-0.583,3.26-1.677l12.816-17.962  C135.203,173.365,134.785,170.867,132.987,169.584z" fill="#1d606b"/>
<g>
</g>
<g>
</g>
<g>
</g>
<g>
</g>
<g>
</g>
<g>
</g>
<g>
</g>
<g>
</g>
<g>
</g>
<g>
</g>
<g>
</g>
<g>
</g>
<g>
</g>
<g>
</g>
<g>
</g>
</svg>
