<?xml version="1.0" encoding="iso-8859-1"?>
<!-- Generator: Adobe Illustrator 19.0.0, SVG Export Plug-In . SVG Version: 6.00 Build 0)  -->
<svg xmlns="http://www.w3.org/2000/svg" xmlns:xlink="http://www.w3.org/1999/xlink" version="1.1" id="Layer_1" x="0px" y="0px" viewBox="0 0 512 512" style="enable-background:new 0 0 512 512;" xml:space="preserve" width="512px" height="512px">
<g>
	<g>
		<path d="M417.227,274.933c-9.758,0-19.287,1.471-28.457,4.371c-4.084-3.893-8.41-7.887-12.989-11.962    c12.328-20.346,24.543-42.901,34.645-66.244c14.494-0.661,28.373-2.154,40.797-4.703l-6.711-32.711    c-49.298,10.116-129.333,1.361-165.014-9.367l-9.616,31.977c5.173,1.556,11.244,3.086,17.995,4.545    c-0.742,3.567-1.564,7.213-2.459,10.916c-28.53-16.913-59.057-32.012-91.162-45.067l10.09-26.338    c22.063-0.895,39.738-19.115,39.738-41.393c0-22.849-18.588-41.438-41.438-41.438c-22.847,0-41.436,18.588-41.436,41.438    c0,11.373,4.608,21.689,12.053,29.184l-60.712,158.488c-5.762-1.099-11.699-1.696-17.776-1.696    C42.515,274.935,0,317.449,0,369.708s42.515,94.773,94.773,94.773s94.773-42.515,94.773-94.773c0-34.357-18.379-64.5-45.82-81.121    l11.884-31.024c27.612,8.964,60.232,23.955,97.263,44.669c-3.556,16.382,2.873,33.589,16.875,43.547    c7.491,5.327,16.089,7.9,24.606,7.9c9.71,0,19.308-3.358,27.032-9.786c1.322,0.864,2.635,1.723,3.937,2.579    c-1.909,7.553-2.873,15.327-2.873,23.236c0,52.258,42.515,94.773,94.773,94.773S512,421.966,512,369.708    C512,317.449,469.485,274.933,417.227,274.933z M202.645,80.912c4.435,0,8.046,3.61,8.046,8.046s-3.61,8.045-8.046,8.045    s-8.045-3.609-8.045-8.045S198.21,80.912,202.645,80.912z M156.157,369.708c0,33.846-27.536,61.382-61.382,61.382    c-33.846,0-61.383-27.536-61.383-61.382c0-33.847,27.536-61.382,61.382-61.382c1.867,0,3.71,0.098,5.534,0.262l-21.126,55.148    l31.183,11.945l21.121-55.137C146.453,331.749,156.157,349.616,156.157,369.708z M264.268,270.36    c-36.205-19.968-68.598-34.7-96.703-43.996l14.746-38.49c33.255,13.559,64.687,29.404,93.783,47.251    C272.268,247.429,268.161,259.479,264.268,270.36z M301.51,316.697c-2.981,3.877-8.432,4.699-12.409,1.869    c-3.368-2.394-4.68-6.762-3.19-10.623c10.151-26.293,26.93-72.74,34.875-111.418c16.542,2.256,34.695,3.93,52.956,4.627    C350.831,249.48,319.586,293.186,301.51,316.697z M342.364,317.717c4.773-6.621,9.898-13.951,15.199-21.851    c26.792,24.36,43.577,45.115,51.747,56.186c1.173,1.588,1.299,3.73,0.322,5.456c-0.967,1.711-2.492,2.266-3.316,2.444    c-0.82,0.178-2.436,0.305-4.023-0.847C388.174,348.841,367.174,333.99,342.364,317.717z M417.227,431.091    c-33.847,0-61.382-27.536-61.382-61.382c0-0.864,0.028-1.723,0.062-2.581c10.47,7.26,19.531,13.737,26.754,18.987    c6.617,4.811,14.552,7.342,22.604,7.342c2.714,0,5.442-0.287,8.135-0.872c10.69-2.321,19.911-9.114,25.297-18.637    c7.452-13.174,6.465-29.552-2.519-41.722c-4.277-5.796-10.704-14.013-19.411-23.888c0.154-0.001,0.306-0.012,0.461-0.012    c33.846,0,61.382,27.537,61.382,61.383C478.61,403.556,451.073,431.091,417.227,431.091z" fill="#1d606b"/>
	</g>
</g>
<g>
</g>
<g>
</g>
<g>
</g>
<g>
</g>
<g>
</g>
<g>
</g>
<g>
</g>
<g>
</g>
<g>
</g>
<g>
</g>
<g>
</g>
<g>
</g>
<g>
</g>
<g>
</g>
<g>
</g>
</svg>
