<?xml version="1.0" encoding="iso-8859-1"?>
<!-- Generator: Adobe Illustrator 19.0.0, SVG Export Plug-In . SVG Version: 6.00 Build 0)  -->
<svg xmlns="http://www.w3.org/2000/svg" xmlns:xlink="http://www.w3.org/1999/xlink" version="1.1" id="Layer_1" x="0px" y="0px" viewBox="0 0 511.957 511.957" style="enable-background:new 0 0 511.957 511.957;" xml:space="preserve" width="512px" height="512px">
<g>
	<g>
		<path d="M445.114,216.999c-16.386-8.041-34.398-12.219-52.651-12.214c-18.258,0.022-36.269,4.225-52.651,12.288l-58.965-68.779    c-3.315-3.874-7.714-6.667-12.629-8.021c0.749-2.376,1.151-4.848,1.195-7.339c0.028-6.777-2.643-13.287-7.424-18.091    c-8.216-8.076-20.796-9.714-30.805-4.011l-35.925-19.968c-3.987-15.991-20.182-25.722-36.173-21.735s-25.722,20.182-21.735,36.173    c2.737,10.979,11.448,19.465,22.495,21.914l19.627,35.413c-7.036,12.194-2.854,27.782,9.339,34.818    c3.88,2.239,8.282,3.416,12.762,3.412c2.346-0.021,4.677-0.395,6.912-1.109c1.315,5.005,4.111,9.496,8.021,12.885l12.203,10.496    l-47.189,129.536c-1.196,3.41-4.408,5.7-8.021,5.717h-49.323c-4.656-13.136-13.463-24.399-25.088-32.085l-27.221-70.912    c-3.783-9.91-13.286-16.46-23.893-16.469h-5.376c-14.121,0.041-25.559,11.479-25.6,25.6v71.851    c-23.975,25.926-22.394,66.378,3.532,90.354c25.926,23.975,66.378,22.394,90.354-3.532c3.788-4.096,7.023-8.67,9.624-13.606    h84.224c14.121-0.041,25.559-11.479,25.6-25.6v-3.499c-0.013-7.973,1.373-15.887,4.096-23.381l35.84-98.389l15.019,12.885    c-29.058,59.214-4.611,130.772,54.602,159.83c59.214,29.058,130.772,4.611,159.829-54.602S504.327,246.057,445.114,216.999z     M179.13,98.119c0.009,7.06-5.706,12.791-12.766,12.8c-0.011,0-0.023,0-0.034,0h-0.683c-6.768-0.434-12.054-6.018-12.117-12.8    c-0.009-7.06,5.706-12.791,12.766-12.8c0.011,0,0.023,0,0.034,0c6.814,0.064,12.411,5.4,12.8,12.203V98.119z M34.063,264.519    c0.014-4.707,3.826-8.519,8.533-8.533h5.376c3.523-0.003,6.681,2.17,7.936,5.461l21.419,55.723    c-4.401-0.96-8.893-1.446-13.397-1.451c-10.41,0.018-20.66,2.566-29.867,7.424V264.519z M63.929,409.586    c-16.495,0-29.867-13.372-29.867-29.867c0-16.495,13.372-29.867,29.867-29.867c16.495,0,29.867,13.372,29.867,29.867    C93.778,396.206,80.417,409.568,63.929,409.586z M249.871,138.994l-42.24,42.24c-3.355,3.243-8.677,3.243-12.032,0    c-1.617-1.562-2.513-3.725-2.475-5.973c-0.04-2.273,0.854-4.464,2.475-6.059l42.24-42.24c3.196-3.323,8.48-3.425,11.803-0.229    c0.078,0.075,0.154,0.151,0.229,0.229c1.617,1.562,2.513,3.725,2.475,5.973C252.386,135.208,251.491,137.399,249.871,138.994z     M409.849,390.275c-5.675,1.492-11.518,2.246-17.386,2.244c-37.573,0.13-68.137-30.224-68.267-67.798    c-0.021-6.006,0.754-11.989,2.304-17.792l32.939,28.245c4.603,4.023,10.527,6.21,16.64,6.144    c5.749-0.033,11.315-2.019,15.787-5.632l18.432,18.432l-6.827,6.741c-3.328,3.354-3.328,8.764,0,12.117    c3.365,3.3,8.752,3.3,12.117,0l25.6-25.6c3.361-3.331,3.385-8.757,0.053-12.117c-3.331-3.361-8.757-3.385-12.117-0.053    c-0.018,0.018-0.035,0.035-0.053,0.053l-6.741,6.827l-18.347-18.432c7.633-9.543,7.382-23.171-0.597-32.427L375.14,258.29    c36.447-9.585,73.763,12.192,83.347,48.638C468.072,343.375,446.296,380.691,409.849,390.275z" fill="#1d606b"/>
	</g>
</g>
<g>
	<g>
		<circle cx="63.929" cy="379.719" r="12.8" fill="#1d606b"/>
	</g>
</g>
<g>
</g>
<g>
</g>
<g>
</g>
<g>
</g>
<g>
</g>
<g>
</g>
<g>
</g>
<g>
</g>
<g>
</g>
<g>
</g>
<g>
</g>
<g>
</g>
<g>
</g>
<g>
</g>
<g>
</g>
</svg>
