<?xml version="1.0" encoding="iso-8859-1"?>
<!-- Generator: Adobe Illustrator 17.1.0, SVG Export Plug-In . SVG Version: 6.00 Build 0)  -->
<!DOCTYPE svg PUBLIC "-//W3C//DTD SVG 1.1//EN" "http://www.w3.org/Graphics/SVG/1.1/DTD/svg11.dtd">
<svg xmlns="http://www.w3.org/2000/svg" xmlns:xlink="http://www.w3.org/1999/xlink" version="1.1" id="Capa_1" x="0px" y="0px" viewBox="0 0 403 403" style="enable-background:new 0 0 403 403;" xml:space="preserve" width="512px" height="512px">
<path d="M403,272.5c0-17.92-14.579-32.5-32.5-32.5S338,254.58,338,272.5c0,12.691,7.316,23.7,17.949,29.048  c-1.79,1.371-2.949,3.523-2.949,5.952c0,4.142,3.357,7.5,7.5,7.5h3.099c-3.225,26.996-26.247,48-54.099,48  c-9.764,0-18.531-1.121-26.392-3.354c7.664-11.253,12.706-26.886,13.702-44.646h3.69c4.143,0,7.5-3.358,7.5-7.5  c0-2.612-1.337-4.91-3.362-6.253C314.952,295.793,322,284.957,322,272.5c0-17.92-14.579-32.5-32.5-32.5S257,254.58,257,272.5  c0,12.691,7.316,23.7,17.949,29.048c-1.79,1.371-2.949,3.523-2.949,5.952c0,4.142,3.357,7.5,7.5,7.5h2.291  c-1.066,16.941-6.242,30.472-12.957,38.794c-6.078-3.387-11.445-7.702-16.117-13.003c-15.278-17.336-23.244-45.526-23.695-83.817  c3.898-0.269,6.979-3.508,6.979-7.474c0-3.974-3.092-7.216-7-7.475V145.5c0-22.47,8.756-25.5,17.32-25.5  c5.507,0,9.987,4.48,9.987,9.987c0,4.142,3.357,7.5,7.5,7.5c4.143,0,7.5-3.358,7.5-7.5c0-13.778-11.209-24.987-24.987-24.987  c-9.846,0-17.661,3.204-23.229,9.522c-5.913,6.709-8.88,16.411-9.072,29.608c-0.006,0.124-0.019,0.245-0.019,0.37V242h-5V140.5  v-17.929c7.629-2.997,13.053-10.418,13.053-19.097c0-8.67-5.411-16.084-13.026-19.088V32.5c0-4.142-3.357-7.5-7.5-7.5  c-4.142,0-7.5,3.358-7.5,7.5v51.886C186.411,87.39,181,94.804,181,103.474c0,8.66,5.398,16.068,13,19.078V140.5V242h-5v-97.5  c0-0.125-0.013-0.246-0.019-0.37c-0.192-13.197-3.159-22.899-9.073-29.608C174.34,108.204,166.525,105,156.68,105  c-13.778,0-24.987,11.21-24.987,24.987c0,4.142,3.358,7.5,7.5,7.5s7.5-3.358,7.5-7.5c0-5.507,4.48-9.987,9.987-9.987  c8.565,0,17.32,3.03,17.32,25.5v96.525c-3.908,0.258-7,3.501-7,7.475c0,3.966,3.081,7.205,6.979,7.474  c-0.452,38.291-8.417,66.481-23.696,83.817c-4.664,5.292-10.02,9.601-16.085,12.985c-1.465-1.844-2.669-3.687-3.575-5.23  c-5.313-9.057-8.575-20.789-9.405-33.546h2.282c4.142,0,7.5-3.358,7.5-7.5c0-2.429-1.16-4.582-2.95-5.952  C138.683,296.2,146,285.191,146,272.5c0-17.92-14.58-32.5-32.5-32.5S81,254.58,81,272.5c0,12.457,7.048,23.293,17.363,28.747  C96.337,302.59,95,304.888,95,307.5c0,4.142,3.358,7.5,7.5,7.5h3.689c0.996,17.76,6.038,33.393,13.702,44.646  C112.031,361.879,103.264,363,93.5,363c-27.851,0-50.874-21.004-54.099-48H42.5c4.142,0,7.5-3.358,7.5-7.5  c0-2.429-1.16-4.582-2.95-5.952C57.683,296.2,65,285.191,65,272.5c0-17.92-14.58-32.5-32.5-32.5S0,254.58,0,272.5  c0,12.457,7.048,23.293,17.363,28.747C15.337,302.59,14,304.888,14,307.5c0,4.142,3.358,7.5,7.5,7.5h2.814  c3.29,35.285,33.056,63,69.186,63c14.061,0,26.644-2.153,37.71-6.386c5.637,4.098,11.949,6.386,18.663,6.386  c18.833,0,33.394-9.691,43.276-28.806c3.309-6.398,6.088-13.826,8.351-22.332c2.263,8.506,5.043,15.934,8.351,22.332  C219.733,368.309,234.294,378,253.127,378c6.714,0,13.025-2.288,18.662-6.386C282.856,375.847,295.44,378,309.5,378  c36.13,0,65.897-27.715,69.185-63h2.815c4.143,0,7.5-3.358,7.5-7.5c0-2.612-1.337-4.91-3.362-6.253  C395.952,295.793,403,284.957,403,272.5z M289.5,255c9.649,0,17.5,7.851,17.5,17.5s-7.851,17.5-17.5,17.5s-17.5-7.851-17.5-17.5  S279.851,255,289.5,255z M201.526,97.947c3.047,0,5.526,2.479,5.526,5.526c0,3.048-2.48,5.526-5.526,5.526  c-3.047,0-5.526-2.479-5.526-5.526C196,100.426,198.479,97.947,201.526,97.947z M113.5,255c9.649,0,17.5,7.851,17.5,17.5  s-7.851,17.5-17.5,17.5S96,282.149,96,272.5S103.851,255,113.5,255z M32.5,255c9.649,0,17.5,7.851,17.5,17.5S42.149,290,32.5,290  S15,282.149,15,272.5S22.851,255,32.5,255z M179.825,342.306c-7.2,13.925-16.997,20.694-29.952,20.694  c-0.669,0-1.321-0.058-1.963-0.146c4.987-3.463,9.538-7.507,13.626-12.145c8.933-10.136,15.77-23.212,20.319-38.866  c4.492-15.453,6.882-33.892,7.121-54.843h5.011C193.72,295.949,188.959,324.639,179.825,342.306z M253.127,363  c-12.954,0-22.752-6.769-29.951-20.695c-9.135-17.667-13.895-46.357-14.163-85.305h5.011c0.239,20.951,2.629,39.39,7.121,54.843  c4.55,15.653,11.387,28.73,20.319,38.866c4.084,4.634,8.628,8.674,13.609,12.135C254.424,362.937,253.773,363,253.127,363z   M370.5,290c-9.649,0-17.5-7.851-17.5-17.5s7.851-17.5,17.5-17.5s17.5,7.851,17.5,17.5S380.149,290,370.5,290z" fill="#1d606b"/>
<g>
</g>
<g>
</g>
<g>
</g>
<g>
</g>
<g>
</g>
<g>
</g>
<g>
</g>
<g>
</g>
<g>
</g>
<g>
</g>
<g>
</g>
<g>
</g>
<g>
</g>
<g>
</g>
<g>
</g>
</svg>
