<?xml version="1.0" encoding="iso-8859-1"?>
<!-- Generator: Adobe Illustrator 16.0.0, SVG Export Plug-In . SVG Version: 6.00 Build 0)  -->
<!DOCTYPE svg PUBLIC "-//W3C//DTD SVG 1.1//EN" "http://www.w3.org/Graphics/SVG/1.1/DTD/svg11.dtd">
<svg xmlns="http://www.w3.org/2000/svg" xmlns:xlink="http://www.w3.org/1999/xlink" version="1.1" id="Capa_1" x="0px" y="0px" width="512px" height="512px" viewBox="0 0 443.981 443.981" style="enable-background:new 0 0 443.981 443.981;" xml:space="preserve">
<g>
	<g>
		<path d="M443.981,134.98c0,0,0,0-25.167-14.274c-25.163-14.256-18.17-17.184-29.362-39.555    c-11.177-22.374-46.138-22.374-46.138-22.374L45.522,122.615l315.28,53.775L443.981,134.98z" fill="#1d606b"/>
		<path d="M357.998,183.47L45.522,128.414v58.292L0,204.879v39.14l76.761,11.217l17.873,95.922c1.062,5.703,2.779,5.703,3.849,0    l16.823-90.295l46.961,6.869v70.482l-20.45-1.503v19.552l85.464,6.284v-19.532l-19.404-1.443v-67.196l68.693,10.039l17.986,96.519    c1.058,5.694,2.785,5.694,3.851,0l16.928-90.856l18.129,2.646l0.773-37.518l23.761-13.971V183.47z M195.3,340.655l-20.442-1.503    v-69.581l20.442,2.989V340.655z M313.263,265.523L24.9,224.632l44.564-18.358l6.508,0.958l-19.274,13.026l10.489,2.787    l13.259-15.154l19.556,2.875l-18.149,12.271l10.487,2.789l12.553-14.347l19.162,2.83l-17.049,11.517l10.487,2.797l11.846-13.549    l42.801,6.314l-14.839,10.02l10.487,2.798l10.436-11.924l17.953,2.639l-13.721,9.285l10.487,2.797l9.72-11.129l41.603,6.132    l-11.511,7.79l10.481,2.789l8.327-9.505l40.783,6.019l-9.289,6.292l10.487,2.785l6.901-7.891l32.22,4.753L313.263,265.523z" fill="#1d606b"/>
		<polygon points="364.642,246.48 340.173,260.446 340.173,293.66 443.981,223.045 443.981,143.521 364.642,184.257   " fill="#1d606b"/>
	</g>
</g>
<g>
</g>
<g>
</g>
<g>
</g>
<g>
</g>
<g>
</g>
<g>
</g>
<g>
</g>
<g>
</g>
<g>
</g>
<g>
</g>
<g>
</g>
<g>
</g>
<g>
</g>
<g>
</g>
<g>
</g>
</svg>
