<?xml version="1.0" encoding="iso-8859-1"?>
<!-- Generator: Adobe Illustrator 19.0.0, SVG Export Plug-In . SVG Version: 6.00 Build 0)  -->
<svg xmlns="http://www.w3.org/2000/svg" xmlns:xlink="http://www.w3.org/1999/xlink" version="1.1" id="Layer_1" x="0px" y="0px" viewBox="0 0 512 512" style="enable-background:new 0 0 512 512;" xml:space="preserve" width="512px" height="512px">
<g>
	<g>
		<path d="M0,153.6v204.8h512V153.6H0z M68.267,324.267H34.133v-22.756h34.133V324.267z M136.533,324.267H102.4v-22.756h34.133    V324.267z M204.8,324.267h-34.133v-22.756H204.8V324.267z M273.067,324.267h-34.133v-22.756h34.133V324.267z M341.333,324.267    H307.2v-22.756h34.133V324.267z M409.6,324.267h-34.133v-22.756H409.6V324.267z M477.867,324.267h-34.133v-22.756h34.133V324.267z     M477.867,267.378H34.133v-79.644h443.733V267.378z" fill="#1d606b"/>
	</g>
</g>
<g>
	<g>
		<circle cx="68.267" cy="227.556" r="17.067" fill="#1d606b"/>
	</g>
</g>
<g>
	<g>
		<circle cx="443.733" cy="227.556" r="17.067" fill="#1d606b"/>
	</g>
</g>
<g>
	<g>
		<rect x="119.467" y="211.627" width="204.8" height="34.133" fill="#1d606b"/>
	</g>
</g>
<g>
	<g>
		<rect x="358.4" y="211.627" width="34.133" height="34.133" fill="#1d606b"/>
	</g>
</g>
<g>
</g>
<g>
</g>
<g>
</g>
<g>
</g>
<g>
</g>
<g>
</g>
<g>
</g>
<g>
</g>
<g>
</g>
<g>
</g>
<g>
</g>
<g>
</g>
<g>
</g>
<g>
</g>
<g>
</g>
</svg>
