<?xml version="1.0" encoding="iso-8859-1"?>
<!-- Generator: Adobe Illustrator 18.0.0, SVG Export Plug-In . SVG Version: 6.00 Build 0)  -->
<!DOCTYPE svg PUBLIC "-//W3C//DTD SVG 1.1//EN" "http://www.w3.org/Graphics/SVG/1.1/DTD/svg11.dtd">
<svg xmlns="http://www.w3.org/2000/svg" xmlns:xlink="http://www.w3.org/1999/xlink" version="1.1" id="Capa_1" x="0px" y="0px" viewBox="0 0 60 60" style="enable-background:new 0 0 60 60;" xml:space="preserve" width="512px" height="512px">
<g>
	<path d="M16.575,21.059V25c0,0.553,0.447,1,1,1h24.893c0.553,0,1-0.447,1-1v-3.758c3.809-2.266,5.658-6.697,4.847-11.724   c-0.802-4.972-4.873-8.854-9.898-9.439c-1.351-0.159-2.71-0.078-4.011,0.233c-2.868,0.689-5.891,0.689-8.761,0   c-1.54-0.368-3.163-0.409-4.76-0.122c-4.688,0.849-8.362,4.576-9.141,9.276C10.961,14.194,12.85,18.69,16.575,21.059z    M41.707,15.207l-7.5,7.5C34.012,22.903,33.756,23,33.5,23s-0.512-0.098-0.707-0.293c-0.391-0.391-0.391-1.023,0-1.414l7.5-7.5   c0.391-0.391,1.023-0.391,1.414,0S42.098,14.817,41.707,15.207z M39.793,6.293c0.391-0.391,1.023-0.391,1.414,0   s0.391,1.023,0,1.414l-15,15C26.012,22.903,25.756,23,25.5,23s-0.512-0.098-0.707-0.293c-0.391-0.391-0.391-1.023,0-1.414   L39.793,6.293z M33.793,4.293c0.391-0.391,1.023-0.391,1.414,0s0.391,1.023,0,1.414l-14,14C21.012,19.903,20.756,20,20.5,20   s-0.512-0.098-0.707-0.293c-0.391-0.391-0.391-1.023,0-1.414L33.793,4.293z M17.793,12.293l6.5-6.5   c0.391-0.391,1.023-0.391,1.414,0s0.391,1.023,0,1.414l-6.5,6.5C19.012,13.903,18.756,14,18.5,14s-0.512-0.098-0.707-0.293   C17.402,13.317,17.402,12.684,17.793,12.293z" fill="#1d606b"/>
	<path d="M42.487,27H17.513C11.44,27,6.5,31.94,6.5,38.013V49h47V38.013C53.5,31.94,48.56,27,42.487,27z M19.5,41h-1v4   c0,0.553-0.447,1-1,1s-1-0.447-1-1v-4h-1c-1.654,0-3-1.346-3-3s1.346-3,3-3h1v-2c0-0.553,0.447-1,1-1s1,0.447,1,1v2h1   c1.654,0,3,1.346,3,3S21.154,41,19.5,41z" fill="#1d606b"/>
	<path d="M6.5,56h2c0,2.206,1.794,4,4,4s4-1.794,4-4h27c0,2.206,1.794,4,4,4s4-1.794,4-4h2v-5h-47V56z" fill="#1d606b"/>
</g>
<g>
</g>
<g>
</g>
<g>
</g>
<g>
</g>
<g>
</g>
<g>
</g>
<g>
</g>
<g>
</g>
<g>
</g>
<g>
</g>
<g>
</g>
<g>
</g>
<g>
</g>
<g>
</g>
<g>
</g>
</svg>
