<?xml version="1.0" encoding="iso-8859-1"?>
<!-- Generator: Adobe Illustrator 18.0.0, SVG Export Plug-In . SVG Version: 6.00 Build 0)  -->
<!DOCTYPE svg PUBLIC "-//W3C//DTD SVG 1.1//EN" "http://www.w3.org/Graphics/SVG/1.1/DTD/svg11.dtd">
<svg xmlns="http://www.w3.org/2000/svg" xmlns:xlink="http://www.w3.org/1999/xlink" version="1.1" id="Capa_1" x="0px" y="0px" viewBox="0 0 265.363 265.363" style="enable-background:new 0 0 265.363 265.363;" xml:space="preserve" width="512px" height="512px">
<path d="M195.599,162.561h22.4l7.074-11.416h40.29V87.682c0-1.381-1.119-2.5-2.5-2.5H2.5c-1.381,0-2.5,1.119-2.5,2.5v63.463h188.522  L195.599,162.561z M215.52,157.283h-17.34v-4.525h17.34V157.283z M25.618,129.847v-21.564c0-2.77,2.245-5.014,5.017-5.014h204.094  c2.771,0,5.017,2.244,5.017,5.014v21.564c0,2.769-2.245,5.014-5.017,5.014H30.635C27.863,134.86,25.618,132.615,25.618,129.847z   M226.87,154.371h38.493v23.311c0,1.381-1.119,2.5-2.5,2.5H2.5c-1.381,0-2.5-1.119-2.5-2.5v-23.311h186.725l7.076,11.416h25.994  L226.87,154.371z M125.312,116.01c0.157,0.978,0.136,2.027-0.063,3.119c-0.217,1.207-0.604,2.319-1.151,3.306  c-0.539,0.981-1.231,1.837-2.057,2.539c-0.831,0.71-1.778,1.261-2.814,1.637c-1.027,0.385-2.163,0.58-3.371,0.58h-6.143l1.805-9.969  h3.98l-1.149,6.366h1.979c0.664,0,1.276-0.115,1.82-0.342c0.549-0.235,1.039-0.561,1.454-0.965c0.417-0.404,0.774-0.897,1.063-1.466  c0.294-0.585,0.494-1.195,0.611-1.862c0.124-0.678,0.146-1.302,0.066-1.86c-0.078-0.537-0.249-1-0.509-1.376  c-0.253-0.369-0.602-0.657-1.04-0.86c-0.462-0.214-1.017-0.322-1.648-0.322l-6.142,0.016l0.647-3.611h5.967  c1.315,0,2.45,0.217,3.374,0.645c0.934,0.434,1.69,1.036,2.249,1.792C124.794,114.129,125.153,115.015,125.312,116.01z   M155.452,116.009c0.151,0.99,0.128,2.039-0.07,3.12c-0.22,1.219-0.605,2.331-1.146,3.306c-0.547,0.987-1.241,1.842-2.063,2.539  c-0.82,0.705-1.766,1.257-2.807,1.637c-1.035,0.385-2.17,0.58-3.372,0.58h-6.142l1.798-9.969h3.986l-1.155,6.366h1.98  c0.661,0,1.275-0.115,1.827-0.343c0.548-0.235,1.039-0.56,1.453-0.964c0.42-0.409,0.775-0.901,1.055-1.462  c0.294-0.585,0.496-1.196,0.618-1.869c0.122-0.665,0.143-1.289,0.061-1.858c-0.077-0.535-0.248-1-0.506-1.379  c-0.258-0.37-0.6-0.652-1.043-0.857c-0.462-0.214-1.017-0.322-1.649-0.322l-8.65,0.013l-7.222,12.644h-3.184l-3.444-16.252h4.149  l1.86,10.521l5.627-10.521h11.339c1.32,0,2.457,0.217,3.381,0.645c0.936,0.437,1.692,1.039,2.247,1.792  C154.931,114.126,155.292,115.012,155.452,116.009z" fill="#1d606b"/>
<g>
</g>
<g>
</g>
<g>
</g>
<g>
</g>
<g>
</g>
<g>
</g>
<g>
</g>
<g>
</g>
<g>
</g>
<g>
</g>
<g>
</g>
<g>
</g>
<g>
</g>
<g>
</g>
<g>
</g>
</svg>
