<?xml version="1.0" encoding="iso-8859-1"?>
<!-- Generator: Adobe Illustrator 19.0.0, SVG Export Plug-In . SVG Version: 6.00 Build 0)  -->
<svg xmlns="http://www.w3.org/2000/svg" xmlns:xlink="http://www.w3.org/1999/xlink" version="1.1" id="Capa_1" x="0px" y="0px" viewBox="0 0 512 512" style="enable-background:new 0 0 512 512;" xml:space="preserve" width="512px" height="512px">
<g>
	<g>
		<g>
			<path d="M443.733,384.003V309.2c-45.952,37.513-102.69,47.812-171.836,49.058c7.185,7.919,14.558,16.538,22.212,25.745H443.733z" fill="#1d606b"/>
			<path d="M443.733,128H68.267v137.173c33.707,2.492,61.466,6.775,85.333,13.688v-15.01c-28.902-4.156-51.2-29.013-51.2-59.051     c0-32.939,26.795-59.733,59.733-59.733s59.733,26.795,59.733,59.733c0,30.037-22.298,54.895-51.2,59.051v20.591     c10.547,3.917,20.352,8.533,29.739,13.79c19.763-32.239,55.1-50.765,98.261-50.765c62.251,0,86.059,36.335,105.199,65.536     l0.998,1.51c13.935-7.322,26.88-16.555,38.869-28.083V128z M384,204.8c-4.71,0-8.533-3.823-8.533-8.533     c0-12.919-12.681-25.6-25.6-25.6c-12.919,0-25.6,12.681-25.6,25.6c0,4.71-3.823,8.533-8.533,8.533h-17.067     c-4.07,0-8.533,4.463-8.533,8.533c0,4.71-3.823,8.533-8.533,8.533s-8.533-3.823-8.533-8.533c0-13.397,12.203-25.6,25.6-25.6     h9.515c4.318-18.722,22.246-34.133,41.685-34.133c22.332,0,42.667,20.335,42.667,42.667C392.533,200.977,388.71,204.8,384,204.8z     " fill="#1d606b"/>
			<polygon points="51.2,123 0,71.8 0,440.201 51.2,389.001    " fill="#1d606b"/>
			<path d="M298.667,264.533c-37.035,0-67.166,15.565-83.763,42.65c14.046,9.438,27.375,20.745,40.858,34.202     c0.085-0.009,0.154-0.051,0.239-0.051c51.268,0,95.514-4.079,133.222-19.533C370.705,293.547,351.352,264.533,298.667,264.533z" fill="#1d606b"/>
			<polygon points="63.265,401.067 12.065,452.267 499.933,452.267 448.733,401.067    " fill="#1d606b"/>
			<path d="M170.667,225.399v21.205c19.447-3.968,34.133-21.197,34.133-41.805c0-23.526-19.14-42.667-42.667-42.667     c-23.526,0-42.667,19.14-42.667,42.667c0,20.608,14.686,37.837,34.133,41.805v-21.205l-14.566-14.566     c-3.337-3.337-3.337-8.73,0-12.066c3.336-3.337,8.73-3.337,12.066,0l11.034,11.034l11.034-11.034     c3.337-3.337,8.73-3.337,12.066,0c3.336,3.336,3.336,8.73,0,12.066L170.667,225.399z" fill="#1d606b"/>
			<polygon points="460.8,123 460.8,389.001 512,440.201 512,71.8    " fill="#1d606b"/>
			<polygon points="448.735,110.933 499.935,59.733 12.067,59.733 63.267,110.933    " fill="#1d606b"/>
			<path d="M68.267,282.285v101.717h203.554c-34.569-40.405-63.061-65.587-101.154-81.152v47.019c0,4.71-3.823,8.533-8.533,8.533     c-4.71,0-8.533-3.823-8.533-8.533v-53.171C130.082,289.342,102.554,284.862,68.267,282.285z" fill="#1d606b"/>
		</g>
	</g>
</g>
<g>
</g>
<g>
</g>
<g>
</g>
<g>
</g>
<g>
</g>
<g>
</g>
<g>
</g>
<g>
</g>
<g>
</g>
<g>
</g>
<g>
</g>
<g>
</g>
<g>
</g>
<g>
</g>
<g>
</g>
</svg>
