<?xml version="1.0" encoding="iso-8859-1"?>
<!-- Generator: Adobe Illustrator 19.0.0, SVG Export Plug-In . SVG Version: 6.00 Build 0)  -->
<svg xmlns="http://www.w3.org/2000/svg" xmlns:xlink="http://www.w3.org/1999/xlink" version="1.1" id="Layer_1" x="0px" y="0px" viewBox="0 0 512.001 512.001" style="enable-background:new 0 0 512.001 512.001;" xml:space="preserve" width="512px" height="512px">
<g>
	<g>
		<path d="M387.19,0H124.81c-22.277,0-40.4,18.124-40.4,40.401v375.675c0,22.277,18.124,40.401,40.4,40.401h96.264v46.568    c0,4.946,4.01,8.956,8.956,8.956s8.956-4.01,8.956-8.956v-46.568h34.03v46.568c0,4.946,4.01,8.956,8.956,8.956    c4.946,0,8.956-4.01,8.956-8.956v-46.568h96.264c22.277,0,40.401-18.124,40.401-40.401V40.401C427.591,18.124,409.467,0,387.19,0z     M387.19,438.566H124.81c-12.401,0-22.489-10.089-22.489-22.49V40.401c0-12.401,10.088-22.49,22.489-22.49h262.379    c12.401,0,22.49,10.089,22.49,22.49v375.675h0.001C409.68,428.477,399.591,438.566,387.19,438.566z" fill="#1d606b"/>
	</g>
</g>
<g>
	<g>
		<path d="M256,299.351c-32.591,0-59.106,26.515-59.106,59.106s26.515,59.106,59.106,59.106s59.106-26.515,59.106-59.106    S288.591,299.351,256,299.351z M256,399.651c-22.714,0-41.194-18.48-41.194-41.194s18.48-41.194,41.194-41.194    s41.194,18.48,41.194,41.194S278.714,399.651,256,399.651z" fill="#1d606b"/>
	</g>
</g>
<g>
	<g>
		<path d="M256,332.893c-4.946,0-8.956,4.01-8.956,8.956v16.608c0,4.946,4.01,8.956,8.956,8.956c4.946,0,8.956-4.01,8.956-8.956    v-16.608C264.956,336.903,260.946,332.893,256,332.893z" fill="#1d606b"/>
	</g>
</g>
<g>
	<g>
		<path d="M307.836,158.469c-8.023-16.587-20.318-25.378-20.837-25.745c-3.064-2.16-7.149-2.182-10.237-0.057    c-3.088,2.125-4.526,5.949-3.603,9.583c0.11,0.432,0.208,0.863,0.294,1.293c-11.245-30.536-33.311-44.041-34.543-44.775    c-3.082-1.835-6.962-1.655-9.861,0.459c-2.898,2.115-4.256,5.753-3.45,9.25l2.958,12.818c3.06,13.263-1.534,26.916-11.99,35.63    c-17.66,14.716-24.016,39.033-15.816,60.509l4.604,12.052c1.764,4.621,6.943,6.939,11.561,5.172    c4.621-1.765,6.937-6.94,5.172-11.561l-4.601-12.051c-5.469-14.324-1.23-30.544,10.549-40.359    c11.818-9.849,18.641-23.906,19.319-38.747c7.375,10.623,14.335,26.32,14.653,47.928c0.054,3.701,2.38,6.987,5.851,8.269    c3.47,1.282,7.375,0.299,9.822-2.479c0.511-0.579,8.392-9.678,12.193-22.908c7.203,12.591,12.008,32.77-2.412,60.13    c-2.306,4.375-0.628,9.792,3.747,12.097c1.331,0.702,2.76,1.035,4.167,1.035c3.217,0,6.326-1.739,7.93-4.782    C320.427,198.744,315.219,173.732,307.836,158.469z" fill="#1d606b"/>
	</g>
</g>
<g>
	<g>
		<path d="M353.319,66.442H158.681c-4.946,0-8.956,4.01-8.956,8.956v194.639c0,4.946,4.01,8.956,8.956,8.956h194.639    c4.946,0,8.956-4.01,8.956-8.956V75.398C362.275,70.452,358.265,66.442,353.319,66.442z M344.364,261.081H167.636V84.354h176.727    V261.081z" fill="#1d606b"/>
	</g>
</g>
<g>
</g>
<g>
</g>
<g>
</g>
<g>
</g>
<g>
</g>
<g>
</g>
<g>
</g>
<g>
</g>
<g>
</g>
<g>
</g>
<g>
</g>
<g>
</g>
<g>
</g>
<g>
</g>
<g>
</g>
</svg>
