<?xml version="1.0" encoding="iso-8859-1"?>
<!-- Generator: Adobe Illustrator 19.0.0, SVG Export Plug-In . SVG Version: 6.00 Build 0)  -->
<svg xmlns="http://www.w3.org/2000/svg" xmlns:xlink="http://www.w3.org/1999/xlink" version="1.1" id="Capa_1" x="0px" y="0px" viewBox="0 0 60 60" style="enable-background:new 0 0 60 60;" xml:space="preserve" width="512px" height="512px">
<g>
	<path d="M17,16h18c0.552,0,1-0.447,1-1s-0.448-1-1-1H17c-0.552,0-1,0.447-1,1S16.448,16,17,16z" fill="#1d606b"/>
	<path d="M17,20h6c0.552,0,1-0.447,1-1s-0.448-1-1-1h-6c-0.552,0-1,0.447-1,1S16.448,20,17,20z" fill="#1d606b"/>
	<path d="M39,18h-6c-0.552,0-1,0.447-1,1s0.448,1,1,1h6c0.552,0,1-0.447,1-1S39.552,18,39,18z" fill="#1d606b"/>
	<path d="M27.29,18.29C27.11,18.479,27,18.74,27,19s0.11,0.52,0.29,0.71C27.48,19.89,27.74,20,28,20c0.26,0,0.52-0.11,0.71-0.29   C28.89,19.52,29,19.26,29,19s-0.11-0.521-0.29-0.71C28.33,17.92,27.67,17.92,27.29,18.29z" fill="#1d606b"/>
	<path d="M33,22H22c-0.552,0-1,0.447-1,1s0.448,1,1,1h11c0.552,0,1-0.447,1-1S33.552,22,33,22z" fill="#1d606b"/>
	<path d="M16.29,22.29C16.11,22.479,16,22.74,16,23s0.11,0.52,0.29,0.71C16.48,23.899,16.74,24,17,24c0.26,0,0.52-0.11,0.71-0.29   C17.89,23.52,18,23.26,18,23s-0.11-0.521-0.29-0.7C17.35,21.92,16.67,21.92,16.29,22.29z" fill="#1d606b"/>
	<path d="M57.678,22h-4.355C52.042,22,51,23.042,51,24.322V26h-3V0H11v26H4v4H2v-7h3c0.552,0,1-0.447,1-1s-0.448-1-1-1H0v11h4v4h3v7   c0,3.017-0.603,5.892-1.653,8H5v0.74V53v4h2v3h8v-3h30v3h8v-3h2v-4.074v-1.26V51h-0.346C53.603,48.893,53,46.018,53,43v-7h4.678   C58.958,36,60,34.958,60,33.678v-9.355C60,23.042,58.958,22,57.678,22z M13,2h33v24H13V2z M39,30v4c0,0.553-0.448,1-1,1   s-1-0.447-1-1v-4c0-0.553,0.448-1,1-1S39,29.447,39,30z M35,30v4c0,0.553-0.448,1-1,1s-1-0.447-1-1v-4c0-0.553,0.448-1,1-1   S35,29.447,35,30z M31,30v4c0,0.553-0.448,1-1,1s-1-0.447-1-1v-4c0-0.553,0.448-1,1-1S31,29.447,31,30z M27,30v4   c0,0.553-0.448,1-1,1s-1-0.447-1-1v-4c0-0.553,0.448-1,1-1S27,29.447,27,30z M23,30v4c0,0.553-0.448,1-1,1s-1-0.447-1-1v-4   c0-0.553,0.448-1,1-1S23,29.447,23,30z M16,46h-1v2c0,0.553-0.448,1-1,1s-1-0.447-1-1v-2h-1c-0.552,0-1-0.447-1-1s0.448-1,1-1h4   c0.552,0,1,0.447,1,1S16.552,46,16,46z M18,42c-0.552,0-1-0.447-1-1v-2h-1c-0.552,0-1-0.447-1-1s0.448-1,1-1h4c0.552,0,1,0.447,1,1   s-0.448,1-1,1h-1v2C19,41.553,18.552,42,18,42z M24,46h-1v2c0,0.553-0.448,1-1,1s-1-0.447-1-1v-2h-1c-0.552,0-1-0.447-1-1   s0.448-1,1-1h4c0.552,0,1,0.447,1,1S24.552,46,24,46z M26,42c-0.552,0-1-0.447-1-1v-2h-1c-0.552,0-1-0.447-1-1s0.448-1,1-1h4   c0.552,0,1,0.447,1,1s-0.448,1-1,1h-1v2C27,41.553,26.552,42,26,42z M32,46h-1v2c0,0.553-0.448,1-1,1s-1-0.447-1-1v-2h-1   c-0.552,0-1-0.447-1-1s0.448-1,1-1h4c0.552,0,1,0.447,1,1S32.552,46,32,46z M34,42c-0.552,0-1-0.447-1-1v-2h-1   c-0.552,0-1-0.447-1-1s0.448-1,1-1h4c0.552,0,1,0.447,1,1s-0.448,1-1,1h-1v2C35,41.553,34.552,42,34,42z M40,46h-1v2   c0,0.553-0.448,1-1,1s-1-0.447-1-1v-2h-1c-0.552,0-1-0.447-1-1s0.448-1,1-1h4c0.552,0,1,0.447,1,1S40.552,46,40,46z M42,42   c-0.552,0-1-0.447-1-1v-2h-1c-0.552,0-1-0.447-1-1s0.448-1,1-1h4c0.552,0,1,0.447,1,1s-0.448,1-1,1h-1v2C43,41.553,42.552,42,42,42   z M48,46h-1v2c0,0.553-0.448,1-1,1s-1-0.447-1-1v-2h-1c-0.552,0-1-0.447-1-1s0.448-1,1-1h4c0.552,0,1,0.447,1,1S48.552,46,48,46z    M58,33.678C58,33.855,57.855,34,57.678,34H53v-2h5V33.678z M58,30h-5v-2h5V30z M58,26h-5v-1.678C53,24.145,53.145,24,53.322,24   h4.355C57.855,24,58,24.145,58,24.322V26z" fill="#1d606b"/>
</g>
<g>
</g>
<g>
</g>
<g>
</g>
<g>
</g>
<g>
</g>
<g>
</g>
<g>
</g>
<g>
</g>
<g>
</g>
<g>
</g>
<g>
</g>
<g>
</g>
<g>
</g>
<g>
</g>
<g>
</g>
</svg>
