<?xml version="1.0" encoding="iso-8859-1"?>
<!-- Generator: Adobe Illustrator 18.1.1, SVG Export Plug-In . SVG Version: 6.00 Build 0)  -->
<svg xmlns="http://www.w3.org/2000/svg" xmlns:xlink="http://www.w3.org/1999/xlink" version="1.1" id="Capa_1" x="0px" y="0px" viewBox="0 0 31.73 31.73" style="enable-background:new 0 0 31.73 31.73;" xml:space="preserve" width="512px" height="512px">
<g>
	<path d="M0,29.66h2.537V9.571H0V29.66z M28.549,9.571V0.917H15.871v8.654H10.91v20.09h20.82V9.571H28.549z M19.623,25.479h-2.447   v-2.446h2.447V25.479z M19.623,21.434h-2.447V18.99h2.447V21.434z M19.623,17.579h-2.447v-2.446h2.447V17.579z M24.139,25.479   h-2.447v-2.446h2.447V25.479z M24.139,21.434h-2.447V18.99h2.447V21.434z M24.139,17.579h-2.447v-2.446h2.447V17.579z    M28.652,25.479h-2.445v-2.446h2.445V25.479z M28.652,21.434h-2.445V18.99h2.445V21.434z M28.652,17.579h-2.445v-2.446h2.445   V17.579z M30.158,13.005H14.26V10.84h1.611v1.082h12.678V10.84h1.609C30.158,10.84,30.158,13.005,30.158,13.005z M3.535,30.813   h6.398V7.332H3.535V30.813z M26.865,3.327h-9.029V2.48h9.029C26.865,2.48,26.865,3.327,26.865,3.327z M26.865,5.583h-9.029V4.739   h9.029C26.865,4.739,26.865,5.583,26.865,5.583z" fill="#1d606b"/>
	<g>
	</g>
	<g>
	</g>
	<g>
	</g>
	<g>
	</g>
	<g>
	</g>
	<g>
	</g>
	<g>
	</g>
	<g>
	</g>
	<g>
	</g>
	<g>
	</g>
	<g>
	</g>
	<g>
	</g>
	<g>
	</g>
	<g>
	</g>
	<g>
	</g>
</g>
<g>
</g>
<g>
</g>
<g>
</g>
<g>
</g>
<g>
</g>
<g>
</g>
<g>
</g>
<g>
</g>
<g>
</g>
<g>
</g>
<g>
</g>
<g>
</g>
<g>
</g>
<g>
</g>
<g>
</g>
</svg>
