<?xml version="1.0" encoding="iso-8859-1"?>
<!-- Generator: Adobe Illustrator 19.0.0, SVG Export Plug-In . SVG Version: 6.00 Build 0)  -->
<svg xmlns="http://www.w3.org/2000/svg" xmlns:xlink="http://www.w3.org/1999/xlink" version="1.1" id="Capa_1" x="0px" y="0px" viewBox="0 0 463 463" style="enable-background:new 0 0 463 463;" xml:space="preserve" width="512px" height="512px">
<path d="M460.314,141.75c-1.702-1.425-3.946-2.021-6.133-1.633c-29.165,5.208-154.98,7.133-201.256,7.671  c-2.68-4.646-7.688-7.788-13.426-7.788h-16c-5.738,0-10.746,3.142-13.426,7.788c-46.276-0.538-172.091-2.463-201.256-7.671  c-2.186-0.39-4.431,0.208-6.133,1.633S0,145.28,0,147.5v80c0,2.22,0.983,4.326,2.686,5.75C4.046,234.39,5.753,235,7.5,235  c0.166,0,0.333-0.011,0.5-0.022V259.5c0,2.228,0.991,4.341,2.704,5.766C12.062,266.396,13.762,267,15.5,267  c0.455,0,0.912-0.042,1.366-0.125c25.929-4.802,131.513-6.811,182.336-7.512c-0.455,1.046-0.916,2.098-1.385,3.167  C191.34,277.295,184,294.03,184,315.5c0,4.142,3.358,7.5,7.5,7.5s7.5-3.358,7.5-7.5c0-18.325,6.382-32.874,12.554-46.944  c0.739-1.685,1.473-3.358,2.191-5.026c2.666,2.166,6.06,3.47,9.755,3.47h16c3.695,0,7.089-1.304,9.755-3.47  c0.718,1.667,1.452,3.341,2.191,5.026C257.618,282.626,264,297.175,264,315.5c0,4.142,3.358,7.5,7.5,7.5s7.5-3.358,7.5-7.5  c0-21.47-7.34-38.205-13.817-52.97c-0.469-1.069-0.929-2.122-1.385-3.167c50.823,0.701,156.407,2.71,182.336,7.512  c0.454,0.084,0.911,0.125,1.366,0.125c1.738,0,3.438-0.604,4.796-1.734c1.713-1.425,2.704-3.538,2.704-5.766v-24.522  c0.167,0.011,0.334,0.022,0.5,0.022c1.747,0,3.454-0.61,4.814-1.75c1.702-1.425,2.686-3.531,2.686-5.75v-80  C463,145.28,462.017,143.174,460.314,141.75z M448,218.903c-37.72-4.176-134.691-5.929-186.265-6.585  c0.818-2.8,1.265-5.757,1.265-8.818c0-8.036-3.029-15.375-8-20.946v-19.789c51.655-0.608,153.949-2.329,193-6.665V218.903z   M215,203.5c0-9.098,7.402-16.5,16.5-16.5s16.5,7.402,16.5,16.5s-7.402,16.5-16.5,16.5S215,212.598,215,203.5z M223.5,155h16  c0.276,0,0.5,0.224,0.5,0.5v17.675c-2.706-0.76-5.555-1.175-8.5-1.175s-5.794,0.415-8.5,1.175V155.5  C223,155.224,223.224,155,223.5,155z M15,156.1c39.051,4.336,141.345,6.057,193,6.665v19.789c-4.971,5.571-8,12.91-8,20.946  c0,3.061,0.447,6.018,1.265,8.818c-51.58,0.656-148.549,2.409-186.265,6.585V156.1z M23,250.868V233.17  c43.657-3.907,146.076-5.469,185-5.933v0.263c0,5.738-1.119,11.227-2.889,16.782C154.698,244.924,60.075,246.658,23,250.868z   M239.5,252h-16c-0.276,0-0.5-0.224-0.5-0.5v-17.675c2.706,0.76,5.555,1.175,8.5,1.175s5.794-0.415,8.5-1.175V251.5  C240,251.776,239.776,252,239.5,252z M257.889,244.282C256.119,238.727,255,233.238,255,227.5v-0.264  c38.915,0.464,141.339,2.025,185,5.933v17.698C402.925,246.658,308.302,244.924,257.889,244.282z" fill="#1d606b"/>
<g>
</g>
<g>
</g>
<g>
</g>
<g>
</g>
<g>
</g>
<g>
</g>
<g>
</g>
<g>
</g>
<g>
</g>
<g>
</g>
<g>
</g>
<g>
</g>
<g>
</g>
<g>
</g>
<g>
</g>
</svg>
