<?xml version="1.0" encoding="iso-8859-1"?>
<!-- Generator: Adobe Illustrator 19.0.0, SVG Export Plug-In . SVG Version: 6.00 Build 0)  -->
<svg xmlns="http://www.w3.org/2000/svg" xmlns:xlink="http://www.w3.org/1999/xlink" version="1.1" id="Capa_1" x="0px" y="0px" viewBox="0 0 512 512" style="enable-background:new 0 0 512 512;" xml:space="preserve" width="512px" height="512px">
<g>
	<g>
		<path d="M418.353,69.085V45c0-24.813-20.187-45-45-45H138.648c-24.813,0-45,20.187-45,45v24.085    c0,22.211,16.179,40.703,37.369,44.34l-37.139,352.97c-1.281,12.17,2.861,24.198,11.363,33.001    c7.824,8.1,18.503,12.604,29.67,12.604c0.969,0,1.943-0.034,2.918-0.103c20.014-1.405,36.064-16.908,38.164-36.861v-0.001    l12.184-115.801h135.646l12.184,115.801v0.001c2.1,19.953,18.15,35.456,38.164,36.861c0.976,0.068,1.948,0.103,2.918,0.103    c11.166,0,21.847-4.505,29.67-12.604c8.502-8.803,12.644-20.831,11.363-33.001l-37.139-352.97    C402.173,109.788,418.353,91.296,418.353,69.085z M146.158,471.896L146.158,471.896c-0.574,5.453-4.96,9.69-10.431,10.075    c-4.565,0.329-7.542-2.004-8.908-3.417c-1.366-1.414-3.585-4.466-3.106-9.021l37.399-355.448h22.694L146.158,471.896z     M191.334,329.233l10.619-100.916h108.096l10.618,100.916H191.334z M205.109,198.317l8.863-84.232h84.058l8.863,84.232H205.109z     M388.287,469.533c0.48,4.555-1.74,7.607-3.105,9.021c-1.366,1.413-4.341,3.73-8.908,3.417    c-5.471-0.385-9.857-4.622-10.432-10.076v0.001l-37.648-357.811h22.694L388.287,469.533z M373.353,84.085H138.648    c-8.271,0-15-6.729-15-15V45c0-8.271,6.729-15,15-15h234.704c8.271,0,15,6.729,15,15v24.085h0.001    C388.353,77.356,381.624,84.085,373.353,84.085z" fill="#1D606B"/>
	</g>
</g>
<g>
</g>
<g>
</g>
<g>
</g>
<g>
</g>
<g>
</g>
<g>
</g>
<g>
</g>
<g>
</g>
<g>
</g>
<g>
</g>
<g>
</g>
<g>
</g>
<g>
</g>
<g>
</g>
<g>
</g>
</svg>
