<?xml version="1.0" encoding="iso-8859-1"?>
<!-- Generator: Adobe Illustrator 17.1.0, SVG Export Plug-In . SVG Version: 6.00 Build 0)  -->
<!DOCTYPE svg PUBLIC "-//W3C//DTD SVG 1.1//EN" "http://www.w3.org/Graphics/SVG/1.1/DTD/svg11.dtd">
<svg xmlns="http://www.w3.org/2000/svg" xmlns:xlink="http://www.w3.org/1999/xlink" version="1.1" id="Capa_1" x="0px" y="0px" viewBox="0 0 219.969 219.969" style="enable-background:new 0 0 219.969 219.969;" xml:space="preserve" width="512px" height="512px">
<path d="M219.969,107.294c0,2.761-2.238,5-5,5H198.49v86.676c0,2.761-2.238,5-5,5h-58.134c-2.762,0-5-2.239-5-5v-86.676H94.262  c-2.762,0-5-2.239-5-5c0-1.164,0.414-2.221,1.081-3.07L74.815,91.246c-0.147-0.124-0.288-0.256-0.421-0.396  c-0.265-0.279-0.571-0.414-0.937-0.414c-0.16,0-0.973,0.042-1.266,0.889c-0.016,0.045-0.032,0.09-0.049,0.134l-12.452,32.85  c-0.438,1.321-0.229,2.726,0.581,3.863c0.82,1.153,2.103,1.814,3.518,1.814h22.642c7.36,0,13.719,5.491,14.79,12.772l8.211,49.445  c0.485,3.292-0.458,6.531-2.572,8.98c-2.114,2.448-5.183,3.853-8.417,3.853c-5.438,0-10.049-3.891-10.964-9.251l-7.062-37.306  c-0.423-2.475-2.474-4.206-4.894-4.206H60.705v44.698c0,2.761-2.238,5-5,5H12.863c-2.762,0-5-2.239-5-5v-45.91l-7.82-59.774  c-0.358-2.738,1.571-5.248,4.31-5.606c2.741-0.359,5.248,1.572,5.606,4.309l6.979,53.346h8.621  c-0.736-1.742-1.144-3.656-1.144-5.663c0-1.587,0.257-3.154,0.762-4.656l21.126-59.742c1.976-5.964,6.579-10.537,12.292-12.636  c-5.945-4.952-9.736-12.406-9.736-20.73c0-14.874,12.101-26.975,26.975-26.975s26.976,12.101,26.976,26.975  c0,11.556-7.307,21.435-17.541,25.269l19.049,16.678l26.505,1.998c0.484,0.037,0.961,0.144,1.414,0.317  c4.095,1.57,6.847,5.572,6.847,9.958c0,2.298-0.736,4.423-1.975,6.166h22.326c-1.696-0.808-2.877-2.523-2.877-4.527v-0.102  c0-2.776,2.251-5.027,5.027-5.027h42.053c2.776,0,5.027,2.251,5.027,5.027v0.102c0,2.004-1.181,3.72-2.877,4.527h9.183  C217.73,102.294,219.969,104.533,219.969,107.294z M170.003,79.132c-2.64,0-4.78,2.14-4.78,4.78v0.097c0,2.64,2.14,4.78,4.78,4.78  h42.548c2.64,0,4.78-2.14,4.78-4.78v-0.097c0-2.64-2.14-4.78-4.78-4.78H170.003z M164.684,62.187h22.499  c2.344,0,4.243-1.9,4.243-4.243v-0.086c0-2.344-1.9-4.243-4.243-4.243h-22.499c-2.344,0-4.243,1.9-4.243,4.243v0.086  C160.441,60.287,162.341,62.187,164.684,62.187z M164.231,74.507h46.919c2.093,0,3.79-1.697,3.79-3.79v-0.077  c0-2.093-1.697-3.79-3.79-3.79h-46.919c-2.093,0-3.79,1.697-3.79,3.79v0.077C160.441,72.811,162.138,74.507,164.231,74.507z" fill="#1d606b"/>
<g>
</g>
<g>
</g>
<g>
</g>
<g>
</g>
<g>
</g>
<g>
</g>
<g>
</g>
<g>
</g>
<g>
</g>
<g>
</g>
<g>
</g>
<g>
</g>
<g>
</g>
<g>
</g>
<g>
</g>
</svg>
