<?xml version="1.0" encoding="iso-8859-1"?>
<!-- Generator: Adobe Illustrator 18.0.0, SVG Export Plug-In . SVG Version: 6.00 Build 0)  -->
<!DOCTYPE svg PUBLIC "-//W3C//DTD SVG 1.1//EN" "http://www.w3.org/Graphics/SVG/1.1/DTD/svg11.dtd">
<svg xmlns="http://www.w3.org/2000/svg" xmlns:xlink="http://www.w3.org/1999/xlink" version="1.1" id="Capa_1" x="0px" y="0px" viewBox="0 0 60 60" style="enable-background:new 0 0 60 60;" xml:space="preserve" width="512px" height="512px">
<path d="M57,27h-3v-5H41v-2h13v-5c0-0.553-0.447-1-1-1H42v-2c0-6.617-5.383-12-12-12S18,5.383,18,12v2H7c-0.553,0-1,0.447-1,1v5h13  v2H6v5H3c-1.654,0-3,1.346-3,3s1.346,3,3,3h1v6h3.582c-1.184,2.219-2.133,5.298-1.571,9.145c0.631,4.318-0.58,5.877-0.829,6.146  c-0.036,0.039-0.069,0.081-0.099,0.126L5.08,54.414l-2.891,4c-0.22,0.305-0.251,0.707-0.08,1.041S2.624,60,3,60h1  c1.639,0,3.117-0.671,4.395-1.992c2.634-2.729,3.693-7.515,3.604-10.043c-0.218-6.206,2.564-8.489,2.883-8.729  c0.035-0.026,0.081-0.064,0.112-0.096L15.136,39H18v4h24v-4h2.864l0.137,0.135c0.032,0.033,0.08,0.073,0.117,0.101  c0.318,0.24,3.101,2.523,2.883,8.729c-0.089,2.528,0.971,7.314,3.604,10.043C52.883,59.329,54.361,60,56,60h1  c0.376,0,0.72-0.211,0.891-0.545s0.14-0.736-0.08-1.041l-2.891-4l-0.002,0.002c-0.03-0.045-0.063-0.087-0.101-0.126  c-0.249-0.268-1.46-1.824-0.828-6.146c0.562-3.846-0.387-6.926-1.571-9.145H56v-6h1c1.654,0,3-1.346,3-3S58.654,27,57,27z M46,17h2  c0.553,0,1,0.447,1,1s-0.447,1-1,1h-2c-0.553,0-1-0.447-1-1S45.447,17,46,17z M14,19h-2c-0.553,0-1-0.447-1-1s0.447-1,1-1h2  c0.553,0,1,0.447,1,1S14.553,19,14,19z M46,23h2c0.553,0,1,0.447,1,1s-0.447,1-1,1h-2c-0.553,0-1-0.447-1-1S45.447,23,46,23z   M23.793,11.293l4.5-4.5c0.391-0.391,1.023-0.391,1.414,0s0.391,1.023,0,1.414l-4.5,4.5C25.012,12.902,24.756,13,24.5,13  s-0.512-0.098-0.707-0.293C23.402,12.316,23.402,11.684,23.793,11.293z M23.293,16.293l10-10c0.391-0.391,1.023-0.391,1.414,0  s0.391,1.023,0,1.414l-10,10C24.512,17.902,24.256,18,24,18s-0.512-0.098-0.707-0.293C22.902,17.316,22.902,16.684,23.293,16.293z   M33.707,13.707l-3,3C30.512,16.902,30.256,17,30,17s-0.512-0.098-0.707-0.293c-0.391-0.391-0.391-1.023,0-1.414l3-3  c0.391-0.391,1.023-0.391,1.414,0S34.098,13.316,33.707,13.707z M29,18c0,0.26-0.11,0.52-0.29,0.71C28.52,18.89,28.26,19,28,19  c-0.271,0-0.521-0.11-0.71-0.3C27.109,18.52,27,18.27,27,18c0-0.26,0.109-0.521,0.29-0.71c0.37-0.37,1.04-0.37,1.42,0  C28.899,17.479,29,17.74,29,18z M12,23h2c0.553,0,1,0.447,1,1s-0.447,1-1,1h-2c-0.553,0-1-0.447-1-1S11.447,23,12,23z M33,40h-6  c-0.553,0-1-0.447-1-1s0.447-1,1-1h6c0.553,0,1,0.447,1,1S33.553,40,33,40z M54,37h-3.352h-5.374H42v-2H18v2h-3.274H9.352H6v-4h48  V37z M57,31h-1H4H3c-0.552,0-1-0.448-1-1s0.448-1,1-1h16h22h16c0.552,0,1,0.448,1,1S57.552,31,57,31z" fill="#1d606b"/>
<g>
</g>
<g>
</g>
<g>
</g>
<g>
</g>
<g>
</g>
<g>
</g>
<g>
</g>
<g>
</g>
<g>
</g>
<g>
</g>
<g>
</g>
<g>
</g>
<g>
</g>
<g>
</g>
<g>
</g>
</svg>
