<?xml version="1.0" encoding="iso-8859-1"?>
<!-- Generator: Adobe Illustrator 19.0.0, SVG Export Plug-In . SVG Version: 6.00 Build 0)  -->
<svg xmlns="http://www.w3.org/2000/svg" xmlns:xlink="http://www.w3.org/1999/xlink" version="1.1" id="Layer_1" x="0px" y="0px" viewBox="0 0 512 512" style="enable-background:new 0 0 512 512;" xml:space="preserve" width="512px" height="512px">
<g>
	<g>
		<path d="M0,28.391v75.002h20.279v340.673h20.279v39.542h77.057v-39.542h276.769v39.542h77.057v-39.542h20.279V103.393H512V28.391    H0z M87.198,453.191H70.976v-9.125h16.223V453.191z M441.024,453.191h-16.223v-9.125h16.223V453.191z M461.304,413.649h-66.919    H117.615H50.696V103.393h410.607V413.649z M481.583,72.976H30.417V58.809h451.166V72.976z" fill="#1d606b"/>
	</g>
</g>
<g>
	<g>
		<path d="M70.975,123.671v128.077h370.051V123.671H70.975z M410.608,221.331H101.392v-67.242h309.216V221.331z" fill="#1d606b"/>
	</g>
</g>
<g>
	<g>
		<path d="M70.975,265.293V393.37h370.051V265.293H70.975z M410.608,362.954H101.392v-67.242h309.216V362.954z" fill="#1d606b"/>
	</g>
</g>
<g>
	<g>
		<rect x="215.78" y="172.496" width="80.433" height="30.417" fill="#1d606b"/>
	</g>
</g>
<g>
	<g>
		<rect x="215.78" y="314.119" width="80.433" height="30.417" fill="#1d606b"/>
	</g>
</g>
<g>
</g>
<g>
</g>
<g>
</g>
<g>
</g>
<g>
</g>
<g>
</g>
<g>
</g>
<g>
</g>
<g>
</g>
<g>
</g>
<g>
</g>
<g>
</g>
<g>
</g>
<g>
</g>
<g>
</g>
</svg>
