<?xml version="1.0" encoding="iso-8859-1"?>
<!-- Generator: Adobe Illustrator 19.0.0, SVG Export Plug-In . SVG Version: 6.00 Build 0)  -->
<svg xmlns="http://www.w3.org/2000/svg" xmlns:xlink="http://www.w3.org/1999/xlink" version="1.1" id="Layer_1" x="0px" y="0px" viewBox="0 0 512 512" style="enable-background:new 0 0 512 512;" xml:space="preserve" width="512px" height="512px">
<g>
	<g>
		<path d="M451.025,0H60.975C41.157,0,25.033,16.124,25.033,35.943v77.618h461.934V35.943C486.967,16.124,470.843,0,451.025,0z     M166.591,77.735H97.803c-5.217,0-9.446-4.23-9.446-9.446s4.23-9.446,9.446-9.446h68.789c5.217,0,9.447,4.23,9.447,9.446    S171.808,77.735,166.591,77.735z M302.813,77.782c0,5.217-4.23,9.446-9.447,9.446s-9.447-4.23-9.447-9.446V58.794    c0-5.217,4.23-9.446,9.447-9.446s9.447,4.23,9.447,9.446V77.782z M436.737,86.172c0,5.217-4.23,9.446-9.447,9.446h-91.53    c-5.217,0-9.447-4.23-9.447-9.446V50.405c0-5.217,4.23-9.446,9.447-9.446h91.53c5.217,0,9.447,4.23,9.447,9.446V86.172z" fill="#1d606b"/>
	</g>
</g>
<g>
	<g>
		<path d="M25.033,132.454v343.603c0,19.819,16.124,35.943,35.942,35.943h390.05c19.818,0,35.942-16.124,35.942-35.943V132.454    H25.033z M447.094,315.672c0,21.13-17.19,38.321-38.32,38.321h-19.586c-19.159,55.494-71.915,95.467-133.837,95.467    c-78.048,0-141.544-63.496-141.544-141.543c-0.001-78.049,63.496-141.545,141.544-141.545c61.944,0,114.716,40.001,133.858,95.527    h19.565c21.13,0,38.32,17.19,38.32,38.32V315.672z" fill="#1d606b"/>
	</g>
</g>
<g>
	<g>
		<path d="M281.393,330.377v-44.862c0-13.022,10.594-23.616,23.616-23.616h43.189c-16.98-34.123-52.218-57.627-92.847-57.627    c-57.149,0-103.644,46.494-103.644,103.644c0,57.149,46.494,103.643,103.644,103.643c40.606,0,75.827-23.477,92.818-57.566h-43.16    C291.987,353.993,281.393,343.399,281.393,330.377z" fill="#1d606b"/>
	</g>
</g>
<g>
</g>
<g>
</g>
<g>
</g>
<g>
</g>
<g>
</g>
<g>
</g>
<g>
</g>
<g>
</g>
<g>
</g>
<g>
</g>
<g>
</g>
<g>
</g>
<g>
</g>
<g>
</g>
<g>
</g>
</svg>
