<?xml version="1.0" encoding="iso-8859-1"?>
<!-- Generator: Adobe Illustrator 16.0.0, SVG Export Plug-In . SVG Version: 6.00 Build 0)  -->
<!DOCTYPE svg PUBLIC "-//W3C//DTD SVG 1.1//EN" "http://www.w3.org/Graphics/SVG/1.1/DTD/svg11.dtd">
<svg xmlns="http://www.w3.org/2000/svg" xmlns:xlink="http://www.w3.org/1999/xlink" version="1.1" id="Capa_1" x="0px" y="0px" width="512px" height="512px" viewBox="0 0 491.062 491.062" style="enable-background:new 0 0 491.062 491.062;" xml:space="preserve">
<g>
	<g>
		<path d="M359.759,136.283c-0.017-0.2,0.009-0.399-0.023-0.598L347.53,57.268V8.654c0-4.779-3.871-8.654-8.654-8.654H152.144    c-4.775,0-8.655,3.875-8.655,8.654v48.857l-12.16,78.174c-0.034,0.199-0.018,0.397-0.034,0.598    c-0.019,0.248-0.067,0.482-0.067,0.733v345.391c0,4.779,3.869,8.654,8.654,8.654H351.18c4.784,0,8.653-3.875,8.653-8.654v-345.39    C359.833,136.766,359.784,136.531,359.759,136.283z M159.554,66.846h171.952l9.574,61.517H149.979L159.554,66.846z     M160.798,17.308h169.424v32.229H160.798V17.308z M342.526,473.754h-193.99V145.671h193.99V473.754z" fill="#1d606b"/>
		<path d="M245.506,71.828c-14.215,0-25.776,11.563-25.776,25.776c0,14.214,11.562,25.776,25.776,25.776    c14.214,0,25.784-11.562,25.784-25.776C271.29,83.391,259.72,71.828,245.506,71.828z M245.506,106.073    c-4.665,0-8.468-3.799-8.468-8.469c0-4.669,3.803-8.468,8.468-8.468c4.673,0,8.476,3.799,8.476,8.468    C253.981,102.274,250.178,106.073,245.506,106.073z" fill="#1d606b"/>
	</g>
</g>
<g>
</g>
<g>
</g>
<g>
</g>
<g>
</g>
<g>
</g>
<g>
</g>
<g>
</g>
<g>
</g>
<g>
</g>
<g>
</g>
<g>
</g>
<g>
</g>
<g>
</g>
<g>
</g>
<g>
</g>
</svg>
