<?xml version="1.0" encoding="iso-8859-1"?>
<!-- Generator: Adobe Illustrator 19.0.0, SVG Export Plug-In . SVG Version: 6.00 Build 0)  -->
<svg xmlns="http://www.w3.org/2000/svg" xmlns:xlink="http://www.w3.org/1999/xlink" version="1.1" id="Layer_1" x="0px" y="0px" viewBox="0 0 512 512" style="enable-background:new 0 0 512 512;" xml:space="preserve" width="512px" height="512px">
<g>
	<g>
		<path d="M499.2,192c-7.074,0-12.8,5.726-12.8,12.8v38.4H160.486c-6.929-11.145-27.588-40.567-61.867-56.55    c-22.221-10.377-45.329-12.552-60.774-12.552c-4.574,0-8.602,0.205-12.245,0.469V128c0-7.074-5.726-12.8-12.8-12.8    S0,120.926,0,128v256c0,7.074,5.726,12.8,12.8,12.8c7.074,0,12.8-5.726,12.8-12.8v-64h460.8v64c0,7.074,5.726,12.8,12.8,12.8    c7.074,0,12.8-5.726,12.8-12.8V204.8C512,197.726,506.274,192,499.2,192z M87.817,209.852    c18.304,8.55,32.196,22.349,41.148,33.323c-0.649,0.026-1.323,0.026-2.022,0.026c-12.851,0-31.974-1.775-49.971-10.146    c-18.304-8.55-32.196-22.349-41.148-33.323C48.623,199.322,68.847,201.003,87.817,209.852z M25.6,226.628    c5.436,5.623,11.87,11.23,19.123,16.572H25.6V226.628z M486.4,294.4H25.6v-25.6h460.8V294.4z" fill="#1d606b"/>
	</g>
</g>
<g>
</g>
<g>
</g>
<g>
</g>
<g>
</g>
<g>
</g>
<g>
</g>
<g>
</g>
<g>
</g>
<g>
</g>
<g>
</g>
<g>
</g>
<g>
</g>
<g>
</g>
<g>
</g>
<g>
</g>
</svg>
