<?xml version="1.0" encoding="iso-8859-1"?>
<!-- Generator: Adobe Illustrator 17.1.0, SVG Export Plug-In . SVG Version: 6.00 Build 0)  -->
<!DOCTYPE svg PUBLIC "-//W3C//DTD SVG 1.1//EN" "http://www.w3.org/Graphics/SVG/1.1/DTD/svg11.dtd">
<svg xmlns="http://www.w3.org/2000/svg" xmlns:xlink="http://www.w3.org/1999/xlink" version="1.1" id="Capa_1" x="0px" y="0px" viewBox="0 0 382.996 382.996" style="enable-background:new 0 0 382.996 382.996;" xml:space="preserve" width="512px" height="512px">
<path d="M382.996,66.663c0-20.125-16.373-36.499-36.498-36.499S310,46.538,310,66.663c0,12.745,6.571,23.978,16.498,30.508v13.66  h-270v-13.66c9.927-6.53,16.498-17.763,16.498-30.508c0-20.125-16.373-36.499-36.498-36.499S0,46.538,0,66.663  c0,12.745,6.571,23.978,16.498,30.508v235.66c0,11.046,8.954,20,20,20s20-8.954,20-20v-25h270v25c0,11.046,8.954,20,20,20  s20-8.954,20-20V97.172C376.425,90.642,382.996,79.408,382.996,66.663z M206.498,246.831v-106h50v106H206.498z M176.498,246.831h-49  v-106h49V246.831z M326.498,246.831h-40v-106h40V246.831z M97.498,140.831v106h-41v-106H97.498z" fill="#1d606b"/>
<g>
</g>
<g>
</g>
<g>
</g>
<g>
</g>
<g>
</g>
<g>
</g>
<g>
</g>
<g>
</g>
<g>
</g>
<g>
</g>
<g>
</g>
<g>
</g>
<g>
</g>
<g>
</g>
<g>
</g>
</svg>
