<?xml version="1.0" encoding="iso-8859-1"?>
<!-- Generator: Adobe Illustrator 18.0.0, SVG Export Plug-In . SVG Version: 6.00 Build 0)  -->
<!DOCTYPE svg PUBLIC "-//W3C//DTD SVG 1.1//EN" "http://www.w3.org/Graphics/SVG/1.1/DTD/svg11.dtd">
<svg xmlns="http://www.w3.org/2000/svg" xmlns:xlink="http://www.w3.org/1999/xlink" version="1.1" id="Capa_1" x="0px" y="0px" viewBox="0 0 476.514 476.514" style="enable-background:new 0 0 476.514 476.514;" xml:space="preserve" width="512px" height="512px">
<g>
	<path d="M429.757,5.168c-5.522,0-10,4.478-10,10v42.173h-363V15.168c0-5.522-4.478-10-10-10s-10,4.478-10,10v451.346   c0,5.522,4.477,10,10,10s10-4.478,10-10v-24.173h363v24.173c0,5.522,4.478,10,10,10c5.523,0,10-4.478,10-10V15.168   C439.757,9.646,435.279,5.168,429.757,5.168z M102.757,256.341h78v39h-78V256.341z M180.757,236.341h-78v-39h78V236.341z    M102.757,315.341h78v40h-78V315.341z M180.757,177.341h-78v-33h78V177.341z M56.757,144.341h26v211h-26V144.341z M200.757,355.341   v-211h219v211H200.757z" fill="#1d606b"/>
	<path d="M378.257,298.739h-78c-15.464,0-28,12.536-28,28v15h134v-15C406.257,311.275,393.721,298.739,378.257,298.739z" fill="#1d606b"/>
	<path d="M406.257,28c0-15.464-12.536-28-28-28h-78c-15.464,0-28,12.536-28,28v15h134V28z" fill="#1d606b"/>
</g>
<g>
</g>
<g>
</g>
<g>
</g>
<g>
</g>
<g>
</g>
<g>
</g>
<g>
</g>
<g>
</g>
<g>
</g>
<g>
</g>
<g>
</g>
<g>
</g>
<g>
</g>
<g>
</g>
<g>
</g>
</svg>
