<?xml version="1.0" encoding="iso-8859-1"?>
<!-- Generator: Adobe Illustrator 18.1.1, SVG Export Plug-In . SVG Version: 6.00 Build 0)  -->
<svg xmlns="http://www.w3.org/2000/svg" xmlns:xlink="http://www.w3.org/1999/xlink" version="1.1" id="Capa_1" x="0px" y="0px" viewBox="0 0 271.418 271.418" style="enable-background:new 0 0 271.418 271.418;" xml:space="preserve" width="512px" height="512px">
<g>
	<path d="M234.938,124.571c-19.805,0-35.912,15.783-36.457,35.457l-0.012,28.432H72.949l-0.012-28.432   c-0.545-19.674-16.652-35.457-36.457-35.457C16.333,124.571,0,140.905,0,161.054c0,20.148,16.333,36.48,36.48,36.48   c0.645,0,1.234-0.018,1.871-0.051c0,0,0.021,20.27,0.021,20.639c0,16.383,13.28,29.662,29.662,29.662h6.533v8.561   c0,1.82,1.477,3.297,3.297,3.297h21.941c1.82,0,3.296-1.477,3.296-3.297v-8.561h65.213v8.561c0,1.82,1.476,3.297,3.296,3.297   h21.941c1.82,0,3.297-1.477,3.297-3.297v-8.561h6.517c16.382,0,29.661-13.279,29.661-29.662c0-0.148-0.008-0.295-0.01-0.443   v-20.195c0.635,0.033,1.275,0.051,1.92,0.051c20.148,0,36.48-16.332,36.48-36.48C271.418,140.905,255.086,124.571,234.938,124.571z   " fill="#1D606B"/>
	<path d="M83.933,159.724l0.005,0.299l0.008,17.438h103.528l0.012-17.736c0.717-25.881,21.561-46.152,47.452-46.152   c0.747,0,1.488,0.021,2.228,0.057v-2.865c0-54.67-44.318-98.986-98.986-98.986h-4.939c-54.668,0-98.986,44.316-98.986,98.986v2.865   c0.739-0.035,1.482-0.057,2.229-0.057C62.373,113.571,83.216,133.843,83.933,159.724z" fill="#1D606B"/>
</g>
<g>
</g>
<g>
</g>
<g>
</g>
<g>
</g>
<g>
</g>
<g>
</g>
<g>
</g>
<g>
</g>
<g>
</g>
<g>
</g>
<g>
</g>
<g>
</g>
<g>
</g>
<g>
</g>
<g>
</g>
</svg>
