<?xml version="1.0" encoding="iso-8859-1"?>
<!-- Generator: Adobe Illustrator 16.0.0, SVG Export Plug-In . SVG Version: 6.00 Build 0)  -->
<!DOCTYPE svg PUBLIC "-//W3C//DTD SVG 1.1//EN" "http://www.w3.org/Graphics/SVG/1.1/DTD/svg11.dtd">
<svg xmlns="http://www.w3.org/2000/svg" xmlns:xlink="http://www.w3.org/1999/xlink" version="1.1" id="Capa_1" x="0px" y="0px" width="512px" height="512px" viewBox="0 0 450.829 450.83" style="enable-background:new 0 0 450.829 450.83;" xml:space="preserve">
<g>
	<path d="M186.984,323.396l-75.443,115.383c0,0-57.62-12.844-91.065-70.775C-12.974,310.077,4.629,253.606,4.629,253.606   l137.649-7.649c0.48,15.102,4.552,30.319,12.645,44.33C163.004,304.29,174.14,315.429,186.984,323.396z M446.159,251.846   l-137.646-7.64c-0.477,15.101-4.566,30.313-12.648,44.321c-8.093,13.997-19.223,25.144-32.071,33.111l75.453,115.377   c0,0,57.705-12.99,91.149-70.926C463.841,308.162,446.159,251.846,446.159,251.846z M223.864,167.354   c16.176,0,31.393,4.068,44.714,11.201l62.197-123.032c0,0-40.104-43.472-106.993-43.472c-66.895,0-106.825,43.472-106.825,43.472   l62.206,123.032C192.482,171.422,207.694,167.354,223.864,167.354z M223.864,197.162c-26.949,0-48.799,21.848-48.799,48.795   c0,26.956,21.851,48.799,48.799,48.799c26.961,0,48.799-21.843,48.799-48.799C272.663,219.003,250.819,197.162,223.864,197.162z" fill="#1d606b"/>
</g>
<g>
</g>
<g>
</g>
<g>
</g>
<g>
</g>
<g>
</g>
<g>
</g>
<g>
</g>
<g>
</g>
<g>
</g>
<g>
</g>
<g>
</g>
<g>
</g>
<g>
</g>
<g>
</g>
<g>
</g>
</svg>
