<?xml version="1.0" encoding="iso-8859-1"?>
<!-- Generator: Adobe Illustrator 19.0.0, SVG Export Plug-In . SVG Version: 6.00 Build 0)  -->
<svg xmlns="http://www.w3.org/2000/svg" xmlns:xlink="http://www.w3.org/1999/xlink" version="1.1" id="Layer_1" x="0px" y="0px" viewBox="0 0 511.999 511.999" style="enable-background:new 0 0 511.999 511.999;" xml:space="preserve" width="512px" height="512px">
<g>
	<path d="M0,228v72h32.001V332h16V300h415.998V332h16V300h32.001v-72L0,228L0,228z M495.999,284H16v-40   h479.999V284z" fill="#1d606b"/>
	<path d="M46,203.66h330v-15.319H46c-16.354,0-29.659,14.202-29.659,31.66h15.318   C31.66,210.99,38.094,203.66,46,203.66z" fill="#1d606b"/>
	<path d="M400,213.302c0-9.541,7.762-17.303,17.303-17.303h45.394c9.541,0,17.302,7.762,17.302,17.303v6.697   h16v-6.697c0-18.363-14.94-33.303-33.303-33.303h-45.394c-18.364,0-33.304,14.94-33.304,33.303v6.697h16v-6.697H400z" fill="#1d606b"/>
</g>
<g>
</g>
<g>
</g>
<g>
</g>
<g>
</g>
<g>
</g>
<g>
</g>
<g>
</g>
<g>
</g>
<g>
</g>
<g>
</g>
<g>
</g>
<g>
</g>
<g>
</g>
<g>
</g>
<g>
</g>
</svg>
