<?xml version="1.0" encoding="iso-8859-1"?>
<!-- Generator: Adobe Illustrator 19.0.0, SVG Export Plug-In . SVG Version: 6.00 Build 0)  -->
<svg xmlns="http://www.w3.org/2000/svg" xmlns:xlink="http://www.w3.org/1999/xlink" version="1.1" id="Layer_1" x="0px" y="0px" viewBox="0 0 512 512" style="enable-background:new 0 0 512 512;" xml:space="preserve" width="512px" height="512px">
<g>
	<g>
		<path d="M436.736,396.749c-5.632,0-10.199,4.567-10.199,10.199v6.117c0,5.632,4.567,10.199,10.199,10.199    c5.632,0,10.199-4.566,10.199-10.199v-6.117C446.935,401.316,442.368,396.749,436.736,396.749z" fill="#1d606b"/>
	</g>
</g>
<g>
	<g>
		<path d="M455.714,436.025h-37.954c-5.632,0-10.199,4.567-10.199,10.199c0,5.632,4.567,10.199,10.199,10.199h37.954    c5.632,0,10.199-4.567,10.199-10.199C465.913,440.592,461.346,436.025,455.714,436.025z" fill="#1d606b"/>
	</g>
</g>
<g>
	<g>
		<path d="M436.736,55.576c-41.501,0-75.264,33.763-75.264,75.264c0,38.04,28.373,69.559,65.065,74.554v73.39h-1.555    c-4.644-20.16-22.724-35.243-44.274-35.243H66.227c-21.55,0-39.63,15.083-44.274,35.243H10.199C4.566,278.785,0,283.352,0,288.984    c0,5.632,4.566,10.199,10.199,10.199h10.586v136.842h-8.778c-5.633,0-10.199,4.567-10.199,10.199    c0,5.632,4.566,10.199,10.199,10.199h37.954c5.633,0,10.199-4.567,10.199-10.199c0-5.632-4.566-10.199-10.199-10.199h-8.777    V299.183h385.353v75.123c0,5.632,4.567,10.199,10.199,10.199c5.632,0,10.199-4.567,10.199-10.199V205.395    C483.627,200.399,512,168.881,512,130.84C512,89.34,478.237,55.576,436.736,55.576z M43.355,278.785    c3.912-8.74,12.693-14.845,22.872-14.845h314.481c10.179,0,18.959,6.104,22.873,14.845H43.355z M436.736,185.706    c-30.253,0-54.866-24.613-54.866-54.866c0-30.253,24.613-54.866,54.866-54.866c30.253,0,54.866,24.613,54.866,54.866    C491.602,161.093,466.989,185.706,436.736,185.706z" fill="#1d606b"/>
	</g>
</g>
<g>
	<g>
		<path d="M436.736,103.471c-15.092,0-27.37,12.278-27.37,27.37c0,15.091,12.278,27.369,27.37,27.369    c15.091,0,27.369-12.278,27.369-27.369C464.105,115.749,451.827,103.471,436.736,103.471z M436.736,137.811    c-3.844,0-6.971-3.126-6.971-6.97c0-3.844,3.127-6.971,6.971-6.971s6.97,3.127,6.97,6.971    C443.706,134.685,440.58,137.811,436.736,137.811z" fill="#1d606b"/>
	</g>
</g>
<g>
</g>
<g>
</g>
<g>
</g>
<g>
</g>
<g>
</g>
<g>
</g>
<g>
</g>
<g>
</g>
<g>
</g>
<g>
</g>
<g>
</g>
<g>
</g>
<g>
</g>
<g>
</g>
<g>
</g>
</svg>
