<?xml version="1.0" encoding="iso-8859-1"?>
<!-- Generator: Adobe Illustrator 18.0.0, SVG Export Plug-In . SVG Version: 6.00 Build 0)  -->
<!DOCTYPE svg PUBLIC "-//W3C//DTD SVG 1.1//EN" "http://www.w3.org/Graphics/SVG/1.1/DTD/svg11.dtd">
<svg xmlns="http://www.w3.org/2000/svg" xmlns:xlink="http://www.w3.org/1999/xlink" version="1.1" id="Capa_1" x="0px" y="0px" viewBox="0 0 471.478 471.478" style="enable-background:new 0 0 471.478 471.478;" xml:space="preserve" width="512px" height="512px">
<g>
	<path d="M71.874,52.873c-5.522,0-10,4.477-10,10v109.495c0,5.523,4.478,10,10,10s10-4.477,10-10V62.873   C81.874,57.35,77.396,52.873,71.874,52.873z" fill="#1d606b"/>
	<path d="M46.717,70.096c-5.522,0-10,4.477-10,10v27.523H10c-5.522,0-10,4.477-10,10s4.478,10,10,10h26.717v27.523   c0,5.523,4.478,10,10,10s10-4.477,10-10V80.096C56.717,74.573,52.239,70.096,46.717,70.096z" fill="#1d606b"/>
	<path d="M399.604,52.873c-5.522,0-10,4.477-10,10v109.495c0,5.523,4.478,10,10,10s10-4.477,10-10V62.873   C409.604,57.35,405.126,52.873,399.604,52.873z" fill="#1d606b"/>
	<path d="M374.446,52.873c-5.522,0-10,4.477-10,10v44.747h-12.213V90.621c0-5.523-4.478-10-10-10s-10,4.477-10,10v16.999H139.244   V90.621c0-5.523-4.478-10-10-10s-10,4.477-10,10v16.999h-12.212V62.873c0-5.523-4.478-10-10-10s-10,4.477-10,10v109.495   c0,5.523,4.478,10,10,10s10-4.477,10-10V127.62h12.212v270.985h-11.749c-5.522,0-10,4.477-10,10s4.478,10,10,10h43.498   c5.522,0,10-4.477,10-10s-4.478-10-10-10h-11.749V127.62h192.989v270.985h-11.749c-5.522,0-10,4.477-10,10s4.478,10,10,10h43.498   c5.522,0,10-4.477,10-10s-4.478-10-10-10h-11.749V127.62h12.213v44.748c0,5.523,4.478,10,10,10s10-4.477,10-10V62.873   C384.446,57.35,379.969,52.873,374.446,52.873z" fill="#1d606b"/>
	<path d="M461.478,107.62h-26.717V80.096c0-5.523-4.478-10-10-10s-10,4.477-10,10v75.047c0,5.523,4.478,10,10,10s10-4.477,10-10   V127.62h26.717c5.522,0,10-4.477,10-10S467,107.62,461.478,107.62z" fill="#1d606b"/>
</g>
<g>
</g>
<g>
</g>
<g>
</g>
<g>
</g>
<g>
</g>
<g>
</g>
<g>
</g>
<g>
</g>
<g>
</g>
<g>
</g>
<g>
</g>
<g>
</g>
<g>
</g>
<g>
</g>
<g>
</g>
</svg>
