<?xml version="1.0" encoding="iso-8859-1"?>
<!-- Generator: Adobe Illustrator 19.0.0, SVG Export Plug-In . SVG Version: 6.00 Build 0)  -->
<svg xmlns="http://www.w3.org/2000/svg" xmlns:xlink="http://www.w3.org/1999/xlink" version="1.1" id="Capa_1" x="0px" y="0px" viewBox="0 0 512 512" style="enable-background:new 0 0 512 512;" xml:space="preserve" width="512px" height="512px">
<g>
	<g>
		<path d="M506.104,193.12l-15.646-7.813c-19.146-9.583-40.583-14.646-62-14.646H416H309.333H127.75    c-2.552-79.677-32.888-102.48-36.5-104.875c-3.583-2.375-8.25-2.375-11.833,0c-3.612,2.395-33.948,25.198-36.5,104.875H32    c-17.646,0-32,14.354-32,32c0,17.646,14.354,32,32,32h166.25l42.667,42.667L91.583,426.661H74.667    c-5.896,0-10.667,4.771-10.667,10.667c0,5.896,4.771,10.667,10.667,10.667H96c2.833,0,5.542-1.125,7.542-3.125L256,292.411    L408.458,444.87c2,2,4.708,3.125,7.542,3.125h21.333c5.896,0,10.667-4.771,10.667-10.667c0-5.896-4.771-10.667-10.667-10.667    h-16.917L271.083,277.328l27.583-27.583v38.25c0,5.896,4.771,10.667,10.667,10.667H416c5.896,0,10.667-4.771,10.667-10.667    v-53.333h1.792c21.417,0,42.854-5.063,62-14.646l15.646-7.813c3.604-1.813,5.896-5.5,5.896-9.542    C512,198.62,509.708,194.932,506.104,193.12z M85.313,90.141c7.514,10.263,19.371,34.029,21.023,80.521H64.331    C65.986,124.115,77.857,100.346,85.313,90.141z M256,262.245l-27.583-27.583h55.167L256,262.245z M298.667,213.328H32    c-5.875,0-10.667-4.792-10.667-10.667S26.125,191.995,32,191.995h266.667V213.328z M405.333,277.328H320v-85.333h85.333V277.328z     M428.458,213.328h-1.792v-21.333h1.792c16.792,0,33.583,3.667,48.854,10.667C462.042,209.641,445.25,213.328,428.458,213.328z" fill="#1D606B"/>
	</g>
</g>
<g>
</g>
<g>
</g>
<g>
</g>
<g>
</g>
<g>
</g>
<g>
</g>
<g>
</g>
<g>
</g>
<g>
</g>
<g>
</g>
<g>
</g>
<g>
</g>
<g>
</g>
<g>
</g>
<g>
</g>
</svg>
