<?xml version="1.0" encoding="iso-8859-1"?>
<!-- Generator: Adobe Illustrator 19.0.0, SVG Export Plug-In . SVG Version: 6.00 Build 0)  -->
<svg xmlns="http://www.w3.org/2000/svg" xmlns:xlink="http://www.w3.org/1999/xlink" version="1.1" id="Layer_1" x="0px" y="0px" viewBox="0 0 512 512" style="enable-background:new 0 0 512 512;" xml:space="preserve" width="512px" height="512px">
<g>
	<g>
		<g>
			<path d="M105.84,314.873c-29.18,0-52.92,23.74-52.92,52.92c0,29.18,23.74,52.92,52.92,52.92c29.18,0,52.92-23.74,52.92-52.92     C158.76,338.613,135.02,314.873,105.84,314.873z M105.84,394.253c-14.59,0-26.46-11.87-26.46-26.46s11.87-26.46,26.46-26.46     s26.46,11.87,26.46,26.46S120.43,394.253,105.84,394.253z" fill="#1d606b"/>
			<path d="M389.623,228.879c-2.291,0-4.567,0.069-6.828,0.193l-15.22-58.405h24.204c5.707,19.104,23.433,33.075,44.369,33.075     h19.845c7.306,0,13.23-5.924,13.23-13.23v-66.15c0-7.306-5.924-13.23-13.23-13.23h-19.845c-20.935,0-38.662,13.971-44.369,33.075     h-31.1l-18.452-70.808c-1.518-5.828-6.779-9.895-12.801-9.895h-23.814V51.597c0-7.306-5.924-13.23-13.23-13.23h-79.38     c-7.306,0-13.23,5.924-13.23,13.23v52.92c0,7.306,5.924,13.23,13.23,13.23h79.38c7.306,0,13.23-5.924,13.23-13.23V89.964h13.589     l21.968,84.305l-203.298,91.947c-0.291,0.131-0.565,0.283-0.841,0.433c-4.541-1.402-9.215-2.493-13.991-3.276v-30.526h25.137     c15.319,0,27.783-12.464,27.783-27.783v-30.429c0-15.319-12.464-27.783-27.783-27.783H71.442     c-15.319,0-27.783,12.464-27.783,27.783v30.429c0,15.319,12.464,27.783,27.783,27.783h25.137v29.536     C42.542,267.093,0,312.555,0,367.793c0,58.36,47.48,105.84,105.84,105.84s105.84-47.48,105.84-105.84     c0-35.364-17.45-66.709-44.175-85.939l180.436-81.606l8.643,33.166c-51.48,14.452-89.338,61.808-89.338,117.842     c0,67.479,54.898,122.377,122.377,122.377S512,418.735,512,351.256S457.102,228.879,389.623,228.879z M436.149,137.592h6.615     v39.69h-6.615c-10.943,0-19.845-8.902-19.845-19.845S425.206,137.592,436.149,137.592z M279.152,91.287h-52.92v-26.46h52.92     V91.287z M71.442,206.388c-0.73,0-1.323-0.593-1.323-1.323v-30.429c0-0.73,0.593-1.323,1.323-1.323h76.734     c0.73,0,1.323,0.593,1.323,1.323v30.429c0,0.73-0.593,1.323-1.323,1.323H71.442z M185.22,367.793     c0,43.77-35.61,79.38-79.38,79.38c-43.77,0-79.38-35.61-79.38-79.38s35.61-79.38,79.38-79.38     C149.61,288.413,185.22,324.023,185.22,367.793z M389.623,447.173c-52.889,0-95.917-43.028-95.917-95.917     c0-47.685,34.983-87.34,80.63-94.684c0.304-0.034,0.607-0.097,0.912-0.152c4.691-0.708,9.491-1.08,14.376-1.08     c52.889,0,95.917,43.028,95.917,95.917C485.54,404.147,442.512,447.173,389.623,447.173z" fill="#1d606b"/>
			<path d="M389.623,281.798c-38.298,0-69.457,31.159-69.457,69.457c0,38.298,31.159,69.457,69.457,69.457     c38.298,0,69.457-31.159,69.457-69.457C459.08,312.958,427.921,281.798,389.623,281.798z M389.623,394.253     c-23.709,0-42.997-19.288-42.997-42.997c0-23.709,19.288-42.997,42.997-42.997s42.997,19.288,42.997,42.997     C432.62,374.965,413.332,394.253,389.623,394.253z" fill="#1d606b"/>
		</g>
	</g>
</g>
<g>
</g>
<g>
</g>
<g>
</g>
<g>
</g>
<g>
</g>
<g>
</g>
<g>
</g>
<g>
</g>
<g>
</g>
<g>
</g>
<g>
</g>
<g>
</g>
<g>
</g>
<g>
</g>
<g>
</g>
</svg>
