<?xml version="1.0" encoding="iso-8859-1"?>
<!-- Generator: Adobe Illustrator 19.0.0, SVG Export Plug-In . SVG Version: 6.00 Build 0)  -->
<svg xmlns="http://www.w3.org/2000/svg" xmlns:xlink="http://www.w3.org/1999/xlink" version="1.1" id="Capa_1" x="0px" y="0px" viewBox="0 0 512 512" style="enable-background:new 0 0 512 512;" xml:space="preserve" width="512px" height="512px">
<g>
	<g>
		<g>
			<path d="M95.384,370.669c1.465,1.464,3.385,2.197,5.304,2.197s3.839-0.732,5.304-2.197l5.05-5.05l5.05,5.05     c1.465,1.464,3.385,2.197,5.304,2.197s3.839-0.732,5.304-2.197c2.929-2.929,2.929-7.678,0-10.606l-5.051-5.051l5.051-5.051     c2.929-2.929,2.929-7.678,0-10.606c-2.93-2.929-7.678-2.929-10.607,0l-5.05,5.05l-5.05-5.05c-2.93-2.929-7.678-2.929-10.607,0     c-2.929,2.929-2.929,7.678,0,10.606l5.051,5.051l-5.051,5.051C92.455,362.991,92.455,367.74,95.384,370.669z" fill="#1D606B"/>
			<path d="M240.342,246.247c1.465,1.465,3.384,2.197,5.304,2.197c1.919,0,3.839-0.732,5.304-2.197l5.051-5.051l5.051,5.051     c1.465,1.464,3.385,2.197,5.304,2.197c1.919,0,3.839-0.732,5.304-2.197c2.929-2.929,2.929-7.678,0-10.606l-5.051-5.051     l5.051-5.051c2.929-2.929,2.929-7.677,0-10.606c-2.929-2.929-7.677-2.93-10.607,0L256,219.982l-5.051-5.051     c-2.93-2.929-7.678-2.929-10.607,0c-2.929,2.929-2.929,7.678,0,10.606l5.051,5.051l-5.051,5.051     C237.413,238.569,237.413,243.318,240.342,246.247z" fill="#1D606B"/>
			<path d="M485.086,0H356.953c-6.2,0-12.253,2.163-17.041,6.09c-0.851,0.697-1.95,0.699-2.803,0C332.32,2.163,326.267,0,320.067,0     H191.934c-6.201,0-12.253,2.163-17.042,6.09c-0.851,0.697-1.95,0.699-2.803,0C167.3,2.163,161.247,0,155.047,0H26.914     C12.073,0,0,12.074,0,26.914v59.213c0,4.142,3.357,7.5,7.5,7.5s7.5-3.358,7.5-7.5V26.914C15,20.345,20.345,15,26.914,15h128.134     c2.781,0,5.385,0.929,7.53,2.688c6.425,5.27,15.399,5.27,21.826,0c2.144-1.758,4.749-2.688,7.53-2.688h128.133     c2.781,0,5.385,0.929,7.53,2.688c6.426,5.27,15.4,5.27,21.826,0c2.144-1.758,4.749-2.688,7.53-2.688h128.133     c6.569,0,11.914,5.345,11.913,11.914v414.957c-3.594-1.782-7.638-2.789-11.914-2.789H415.68c-4.143,0-7.5,3.358-7.5,7.5     c0,4.142,3.357,7.5,7.5,7.5h69.405c6.569,0,11.914,5.345,11.914,11.914v9.378v9.712c0,6.569-5.345,11.914-11.914,11.914H356.952     c-2.781,0-5.385-0.929-7.53-2.688c-6.426-5.27-15.4-5.27-21.826,0c-2.144,1.758-4.749,2.688-7.53,2.688H191.933     c-2.781,0-5.385-0.929-7.53-2.688c-6.425-5.27-15.399-5.27-21.826,0c-2.144,1.758-4.749,2.688-7.53,2.688H26.914     C20.345,497,15,491.655,15,485.086v-9.712v-9.378c0-6.569,5.345-11.914,11.914-11.914h128.134c2.781,0,5.385,0.929,7.53,2.688     c6.425,5.27,15.399,5.27,21.826,0c2.144-1.758,4.749-2.688,7.53-2.688h128.134c2.781,0,5.385,0.929,7.53,2.688     c6.426,5.27,15.4,5.27,21.826,0c2.144-1.758,4.749-2.688,7.53-2.688h29.121c4.143,0,7.5-3.358,7.5-7.5c0-4.142-3.357-7.5-7.5-7.5     h-29.121c-6.2,0-12.253,2.163-17.042,6.09c-0.851,0.697-1.95,0.699-2.803,0c-4.789-3.927-10.842-6.09-17.042-6.09H191.934     c-6.2,0-12.253,2.163-17.042,6.09c-0.851,0.697-1.95,0.699-2.803,0c-4.789-3.927-10.842-6.09-17.042-6.09H26.914     c-4.276,0-8.32,1.007-11.914,2.789V114.763c0-4.142-3.357-7.5-7.5-7.5s-7.5,3.358-7.5,7.5v351.233v9.378v9.712     C0,499.926,12.073,512,26.914,512h128.133c6.2,0,12.253-2.163,17.042-6.09c0.851-0.697,1.95-0.699,2.803,0     c4.789,3.927,10.842,6.09,17.042,6.09h128.132c6.2,0,12.253-2.163,17.042-6.09c0.852-0.697,1.95-0.699,2.803,0     c4.789,3.927,10.842,6.09,17.042,6.09h128.133C499.927,512,512,499.926,512,485.086v-9.712v-9.378V26.914     C512,12.074,499.927,0,485.086,0z" fill="#1D606B"/>
			<path d="M95.384,122.169c1.465,1.464,3.385,2.197,5.304,2.197s3.839-0.732,5.304-2.197l5.05-5.05l5.05,5.05     c1.465,1.464,3.385,2.197,5.304,2.197s3.839-0.732,5.304-2.197c2.929-2.929,2.929-7.678,0-10.606l-5.051-5.051l5.051-5.051     c2.929-2.929,2.929-7.678,0-10.606c-2.93-2.929-7.678-2.929-10.607,0l-5.05,5.05l-5.05-5.05c-2.93-2.929-7.678-2.929-10.607,0     c-2.929,2.929-2.929,7.678,0,10.606l5.051,5.051l-5.051,5.051C92.455,114.491,92.455,119.24,95.384,122.169z" fill="#1D606B"/>
			<path d="M95.384,246.247c1.465,1.464,3.385,2.197,5.304,2.197s3.839-0.732,5.304-2.197l5.05-5.05l5.05,5.05     c1.465,1.465,3.384,2.197,5.304,2.197c1.919,0,3.839-0.732,5.304-2.197c2.929-2.929,2.929-7.677,0-10.606l-5.051-5.051     l5.051-5.051c2.929-2.929,2.929-7.678,0-10.606c-2.93-2.929-7.678-2.929-10.607,0l-5.05,5.05l-5.05-5.05     c-2.929-2.929-7.677-2.93-10.607,0c-2.929,2.929-2.929,7.678,0,10.606l5.051,5.051l-5.051,5.051     C92.455,238.569,92.455,243.318,95.384,246.247z" fill="#1D606B"/>
			<path d="M240.342,122.169c1.465,1.465,3.384,2.197,5.304,2.197c1.919,0,3.839-0.732,5.303-2.197l5.052-5.052l5.052,5.052     c1.464,1.465,3.384,2.197,5.303,2.197s3.839-0.732,5.304-2.197c2.929-2.929,2.929-7.678-0.001-10.606l-5.051-5.051l5.051-5.051     c2.93-2.929,2.93-7.677,0.001-10.606c-2.929-2.929-7.678-2.929-10.606,0L256,95.906l-5.052-5.052     c-2.928-2.93-7.677-2.929-10.606,0c-2.929,2.929-2.929,7.678,0.001,10.606l5.051,5.051l-5.051,5.051     C237.413,114.491,237.413,119.24,240.342,122.169z" fill="#1D606B"/>
			<path d="M385.301,246.247c1.465,1.464,3.385,2.197,5.304,2.197c1.919,0,3.839-0.732,5.304-2.197l5.05-5.05l5.05,5.05     c1.465,1.465,3.384,2.197,5.304,2.197c1.919,0,3.839-0.732,5.304-2.197c2.929-2.929,2.929-7.677,0-10.606l-5.051-5.051     l5.051-5.051c2.929-2.929,2.929-7.678,0-10.606c-2.93-2.929-7.678-2.929-10.607,0l-5.05,5.05l-5.05-5.05     c-2.93-2.929-7.678-2.93-10.607,0c-2.929,2.929-2.929,7.678,0,10.606l5.051,5.051l-5.051,5.051     C382.372,238.569,382.372,243.318,385.301,246.247z" fill="#1D606B"/>
			<path d="M385.301,370.669c1.465,1.464,3.385,2.197,5.304,2.197c1.919,0,3.839-0.732,5.304-2.197l5.05-5.05l5.05,5.05     c1.465,1.464,3.385,2.197,5.304,2.197c1.919,0,3.839-0.732,5.304-2.197c2.929-2.929,2.929-7.678,0-10.606l-5.051-5.051     l5.051-5.051c2.929-2.929,2.929-7.678,0-10.606c-2.93-2.929-7.678-2.929-10.607,0l-5.05,5.05l-5.05-5.05     c-2.93-2.929-7.678-2.929-10.607,0c-2.929,2.929-2.929,7.678,0,10.606l5.051,5.051l-5.051,5.051     C382.372,362.991,382.372,367.74,385.301,370.669z" fill="#1D606B"/>
			<path d="M240.342,370.668c1.465,1.465,3.384,2.197,5.304,2.197c1.919,0,3.839-0.732,5.303-2.197l5.052-5.052l5.052,5.052     c1.464,1.465,3.384,2.197,5.303,2.197s3.839-0.732,5.304-2.197c2.929-2.929,2.929-7.678-0.001-10.606l-5.051-5.051l5.051-5.051     c2.928-2.928,2.928-7.676-0.001-10.606c-2.929-2.929-7.678-2.93-10.606,0L256,344.406l-5.052-5.052     c-2.928-2.93-7.677-2.929-10.606,0c-2.929,2.929-2.929,7.678,0.001,10.606l5.051,5.051l-5.051,5.051     C237.413,362.991,237.413,367.739,240.342,370.668z" fill="#1D606B"/>
			<path d="M385.301,122.169c1.465,1.464,3.385,2.197,5.304,2.197c1.919,0,3.839-0.732,5.304-2.197l5.05-5.05l5.05,5.05     c1.465,1.464,3.385,2.197,5.304,2.197c1.919,0,3.839-0.732,5.304-2.197c2.929-2.929,2.929-7.678,0-10.606l-5.051-5.051     l5.051-5.051c2.929-2.929,2.929-7.678,0-10.606c-2.93-2.929-7.678-2.929-10.607,0l-5.05,5.05l-5.05-5.05     c-2.93-2.929-7.678-2.929-10.607,0c-2.929,2.929-2.929,7.678,0,10.606l5.051,5.051l-5.051,5.051     C382.372,114.491,382.372,119.24,385.301,122.169z" fill="#1D606B"/>
		</g>
	</g>
</g>
<g>
</g>
<g>
</g>
<g>
</g>
<g>
</g>
<g>
</g>
<g>
</g>
<g>
</g>
<g>
</g>
<g>
</g>
<g>
</g>
<g>
</g>
<g>
</g>
<g>
</g>
<g>
</g>
<g>
</g>
</svg>
