<?xml version="1.0" encoding="iso-8859-1"?>
<!-- Generator: Adobe Illustrator 19.0.0, SVG Export Plug-In . SVG Version: 6.00 Build 0)  -->
<svg xmlns="http://www.w3.org/2000/svg" xmlns:xlink="http://www.w3.org/1999/xlink" version="1.1" id="Capa_1" x="0px" y="0px" viewBox="0 0 60 60" style="enable-background:new 0 0 60 60;" xml:space="preserve" width="512px" height="512px">
<g>
	<path d="M25.383,5.076c-0.375-0.155-0.804-0.07-1.09,0.217l-6,6C18.105,11.48,18,11.735,18,12v11c0,0.388,0.225,0.741,0.576,0.906   C18.711,23.969,18.856,24,19,24c0.229,0,0.457-0.079,0.64-0.232l6-5C25.868,18.578,26,18.297,26,18V6   C26,5.596,25.756,5.231,25.383,5.076z" fill="#1d606b"/>
	<path d="M19.64,37.232c-0.298-0.249-0.714-0.302-1.064-0.138C18.225,37.259,18,37.612,18,38v10c0,0.265,0.105,0.52,0.293,0.707l6,6   C24.484,54.898,24.74,55,25,55c0.129,0,0.259-0.025,0.383-0.076C25.756,54.769,26,54.404,26,54V43c0-0.297-0.132-0.578-0.36-0.768   L19.64,37.232z" fill="#1d606b"/>
	<path d="M25.383,23.076c-0.375-0.156-0.804-0.07-1.09,0.217l-6,6c-0.37,0.37-0.392,0.961-0.052,1.358l6,7   C24.435,37.877,24.714,38,25,38c0.116,0,0.234-0.02,0.347-0.062C25.739,37.792,26,37.418,26,37V24   C26,23.596,25.756,23.231,25.383,23.076z" fill="#1d606b"/>
	<polygon points="49.586,41 50,40.586 50,39.414 49.586,39 48.414,39 48,39.414 48,40.586 48.414,41  " fill="#1d606b"/>
	<polygon points="48.414,49 48,49.414 48,50.586 48.414,51 49.586,51 50,50.586 50,49.414 49.586,49  " fill="#1d606b"/>
	<polygon points="49.586,31 50,30.586 50,29.414 49.586,29 48.414,29 48,29.414 48,30.586 48.414,31  " fill="#1d606b"/>
	<polygon points="49.586,11 50,10.586 50,9.414 49.586,9 48.414,9 48,9.414 48,10.586 48.414,11  " fill="#1d606b"/>
	<polygon points="53.414,44 53,44.414 53,45.586 53.414,46 54.586,46 55,45.586 55,44.414 54.586,44  " fill="#1d606b"/>
	<polygon points="49.586,21 50,20.586 50,19.414 49.586,19 48.414,19 48,19.414 48,20.586 48.414,21  " fill="#1d606b"/>
	<path d="M56.051,2H44.414l-1.707-1.707c-0.391-0.391-1.023-0.391-1.414,0L40,1.586l-1.293-1.293c-0.391-0.391-1.023-0.391-1.414,0   L36,1.586l-1.293-1.293c-0.391-0.391-1.023-0.391-1.414,0L32,1.586l-1.293-1.293c-0.391-0.391-1.023-0.391-1.414,0L27.586,2H17h-2   H3.949C1.771,2,0,3.771,0,5.949V9v2v6v2v6v2v6v2v6v2v6v2v3.051C0,56.229,1.771,58,3.949,58H15h2h10.586l1.707,1.707   C29.488,59.902,29.744,60,30,60s0.512-0.098,0.707-0.293L32,58.414l1.293,1.293C33.488,59.902,33.744,60,34,60   s0.512-0.098,0.707-0.293L36,58.414l1.293,1.293C37.488,59.902,37.744,60,38,60s0.512-0.098,0.707-0.293L40,58.414l1.293,1.293   C41.488,59.902,41.744,60,42,60s0.512-0.098,0.707-0.293L44.414,58h11.637C58.229,58,60,56.229,60,54.051V5.949   C60,3.771,58.229,2,56.051,2z M46,9c0-0.265,0.105-0.52,0.293-0.707l1-1C47.48,7.105,47.734,7,48,7h2   c0.266,0,0.52,0.105,0.707,0.293l1,1C51.895,8.48,52,8.735,52,9v2c0,0.265-0.105,0.52-0.293,0.707l-1,1   C50.52,12.895,50.266,13,50,13h-2c-0.266,0-0.52-0.105-0.707-0.293l-1-1C46.105,11.52,46,11.265,46,11V9z M46,19   c0-0.265,0.105-0.52,0.293-0.707l1-1C47.48,17.105,47.734,17,48,17h2c0.266,0,0.52,0.105,0.707,0.293l1,1   C51.895,18.48,52,18.735,52,19v2c0,0.265-0.105,0.52-0.293,0.707l-1,1C50.52,22.895,50.266,23,50,23h-2   c-0.266,0-0.52-0.105-0.707-0.293l-1-1C46.105,21.52,46,21.265,46,21V19z M46,29c0-0.265,0.105-0.52,0.293-0.707l1-1   C47.48,27.105,47.734,27,48,27h2c0.266,0,0.52,0.105,0.707,0.293l1,1C51.895,28.48,52,28.735,52,29v2   c0,0.265-0.105,0.52-0.293,0.707l-1,1C50.52,32.895,50.266,33,50,33h-2c-0.266,0-0.52-0.105-0.707-0.293l-1-1   C46.105,31.52,46,31.265,46,31V29z M46,39c0-0.265,0.105-0.52,0.293-0.707l1-1C47.48,37.105,47.734,37,48,37h2   c0.266,0,0.52,0.105,0.707,0.293l1,1C51.895,38.48,52,38.735,52,39v2c0,0.265-0.105,0.52-0.293,0.707l-1,1   C50.52,42.895,50.266,43,50,43h-2c-0.266,0-0.52-0.105-0.707-0.293l-1-1C46.105,41.52,46,41.265,46,41V39z M2,5.949   C2,4.874,2.874,4,3.949,4H15v3H7v2H2V5.949z M2,11h5v2h8v2H7v2H2V11z M2,19h5v2h8v2H7v2H2V19z M2,27h5v2h8v2H7v2H2V27z M2,35h5v2h8   v2H7v2H2V35z M2,43h5v2h8v2H7v2H2V43z M15,56H3.949C2.874,56,2,55.126,2,54.051V51h5v2h8V56z M17,53v-2v-2v-2v-2v-2v-2v-2v-2v-2v-2   v-2v-2v-2v-2v-2v-2v-2v-2v-2v-2v-2V9V7V4h10v52H17V53z M30,57.586l-1-1V3.414l1-1l1,1v53.172L30,57.586z M34,57.586l-1-1V3.414l1-1   l1,1v53.172L34,57.586z M38,57.586l-1-1V3.414l1-1l1,1v53.172L38,57.586z M42,57.586l-1-1V3.414l1-1l1,1v53.172L42,57.586z M52,51   c0,0.265-0.105,0.52-0.293,0.707l-1,1C50.52,52.895,50.266,53,50,53h-2c-0.266,0-0.52-0.105-0.707-0.293l-1-1   C46.105,51.52,46,51.265,46,51v-2c0-0.265,0.105-0.52,0.293-0.707l1-1C47.48,47.105,47.734,47,48,47h2   c0.266,0,0.52,0.105,0.707,0.293l1,1C51.895,48.48,52,48.735,52,49V51z M57,46c0,0.265-0.105,0.52-0.293,0.707l-1,1   C55.52,47.895,55.266,48,55,48h-2c-0.266,0-0.52-0.105-0.707-0.293l-1-1C51.105,46.52,51,46.265,51,46v-2   c0-0.265,0.105-0.52,0.293-0.707l1-1C52.48,42.105,52.734,42,53,42h2c0.266,0,0.52,0.105,0.707,0.293l1,1   C56.895,43.48,57,43.735,57,44V46z M57,36c0,0.265-0.105,0.52-0.293,0.707l-1,1C55.52,37.895,55.266,38,55,38h-2   c-0.266,0-0.52-0.105-0.707-0.293l-1-1C51.105,36.52,51,36.265,51,36v-2c0-0.265,0.105-0.52,0.293-0.707l1-1   C52.48,32.105,52.734,32,53,32h2c0.266,0,0.52,0.105,0.707,0.293l1,1C56.895,33.48,57,33.735,57,34V36z M57,26   c0,0.265-0.105,0.52-0.293,0.707l-1,1C55.52,27.895,55.266,28,55,28h-2c-0.266,0-0.52-0.105-0.707-0.293l-1-1   C51.105,26.52,51,26.265,51,26v-2c0-0.265,0.105-0.52,0.293-0.707l1-1C52.48,22.105,52.734,22,53,22h2   c0.266,0,0.52,0.105,0.707,0.293l1,1C56.895,23.48,57,23.735,57,24V26z M57,16c0,0.265-0.105,0.52-0.293,0.707l-1,1   C55.52,17.895,55.266,18,55,18h-2c-0.266,0-0.52-0.105-0.707-0.293l-1-1C51.105,16.52,51,16.265,51,16v-2   c0-0.265,0.105-0.52,0.293-0.707l1-1C52.48,12.105,52.734,12,53,12h2c0.266,0,0.52,0.105,0.707,0.293l1,1   C56.895,13.48,57,13.735,57,14V16z" fill="#1d606b"/>
	<polygon points="53.414,24 53,24.414 53,25.586 53.414,26 54.586,26 55,25.586 55,24.414 54.586,24  " fill="#1d606b"/>
	<polygon points="53.414,14 53,14.414 53,15.586 53.414,16 54.586,16 55,15.586 55,14.414 54.586,14  " fill="#1d606b"/>
	<polygon points="53.414,34 53,34.414 53,35.586 53.414,36 54.586,36 55,35.586 55,34.414 54.586,34  " fill="#1d606b"/>
</g>
<g>
</g>
<g>
</g>
<g>
</g>
<g>
</g>
<g>
</g>
<g>
</g>
<g>
</g>
<g>
</g>
<g>
</g>
<g>
</g>
<g>
</g>
<g>
</g>
<g>
</g>
<g>
</g>
<g>
</g>
</svg>
