<?xml version="1.0" encoding="iso-8859-1"?>
<!-- Generator: Adobe Illustrator 16.0.0, SVG Export Plug-In . SVG Version: 6.00 Build 0)  -->
<!DOCTYPE svg PUBLIC "-//W3C//DTD SVG 1.1//EN" "http://www.w3.org/Graphics/SVG/1.1/DTD/svg11.dtd">
<svg xmlns="http://www.w3.org/2000/svg" xmlns:xlink="http://www.w3.org/1999/xlink" version="1.1" id="Capa_1" x="0px" y="0px" width="512px" height="512px" viewBox="0 0 192.41 192.409" style="enable-background:new 0 0 192.41 192.409;" xml:space="preserve">
<g>
	<g>
		<path d="M117.785,40.593c8.491,0,15.378-6.796,15.378-15.18c0-8.381-6.887-15.178-15.378-15.178    c-8.497,0-15.383,6.797-15.383,15.178C102.403,33.797,109.288,40.593,117.785,40.593z" fill="#1d606b"/>
		<path d="M187.187,134.299c-1.674-3.115-5.55-4.28-8.664-2.61l-21.689,11.651v-2.295l22.507-12.375    c0.95-0.524,1.298-1.723,0.773-2.675c-0.523-0.954-1.717-1.306-2.674-0.778l-20.606,11.328v-2.396l22.507-12.375    c0.95-0.523,1.298-1.722,0.773-2.677c-0.523-0.952-1.717-1.302-2.674-0.778l-20.606,11.33v-2.397l22.507-12.374    c0.95-0.523,1.298-1.722,0.773-2.678c-0.523-0.952-1.717-1.303-2.674-0.776l-20.606,11.328v-13.017H35.199v33.41l-21.314-11.456    c-3.116-1.674-6.985-0.505-8.66,2.61c-1.673,3.115-0.518,6.997,2.596,8.67l27.378,14.71v30.454c0,2.381,1.968,4.276,4.348,4.276    h112.964c2.382,0,4.322-1.896,4.322-4.276v-30.26l27.748-14.904C187.696,141.296,188.859,137.415,187.187,134.299z" fill="#1d606b"/>
		<path d="M22.4,90.683l7.36,2.696c1.074,0.393,2.261,0.342,3.299-0.139c1.036-0.481,1.84-1.356,2.233-2.429l18.021-49.24    l46.069,12.146v41.82H39.546c-2.38,0-4.348,1.932-4.348,4.312v5.923h121.634V99.85c0-2.381-1.939-4.333-4.321-4.333    c2.096-14.536,3.079-41.418-15.439-51.978c-0.728-0.416-1.511-0.665-2.291-0.727l0.007-0.036h-33.687L57.116,31.208l8.318-22.723    c0.819-2.235-0.329-4.709-2.565-5.528l-7.36-2.695C54.433-0.13,53.247-0.081,52.21,0.4c-1.037,0.482-1.843,1.355-2.233,2.431    L19.833,85.152C19.014,87.387,20.163,89.864,22.4,90.683z M136.164,56.91c7.792,9.314,7.122,27.072,5.29,38.628h-5.29V56.91z     M114.241,50.159c0-1.347,1.063-2.43,2.408-2.43h2.429c1.346,0,2.429,1.083,2.429,2.43v2.43c0,1.347-1.083,2.404-2.429,2.404    h-2.429c-1.346,0-2.408-1.058-2.408-2.404V50.159z M112.779,74.881l3.038-16.707c0.137-0.742,0.782-1.266,1.538-1.266h1.051    c0.754,0,1.4,0.523,1.536,1.266l3.04,16.714c0.237,1.31-0.232,2.646-1.236,3.522l-2.838,2.475c-0.587,0.514-1.466,0.514-2.055,0    l-2.837-2.475C113.011,77.534,112.54,76.192,112.779,74.881z" fill="#1d606b"/>
	</g>
</g>
<g>
</g>
<g>
</g>
<g>
</g>
<g>
</g>
<g>
</g>
<g>
</g>
<g>
</g>
<g>
</g>
<g>
</g>
<g>
</g>
<g>
</g>
<g>
</g>
<g>
</g>
<g>
</g>
<g>
</g>
</svg>
