<?xml version="1.0" encoding="iso-8859-1"?>
<!-- Generator: Adobe Illustrator 19.0.0, SVG Export Plug-In . SVG Version: 6.00 Build 0)  -->
<svg xmlns="http://www.w3.org/2000/svg" xmlns:xlink="http://www.w3.org/1999/xlink" version="1.1" id="Capa_1" x="0px" y="0px" viewBox="0 0 512 512" style="enable-background:new 0 0 512 512;" xml:space="preserve" width="512px" height="512px">
<g>
	<g>
		<path d="M467,150h-15v-45c0-24.814-20.186-45-45-45h-15V15c0-8.291-6.709-15-15-15c-8.291,0-15,6.709-15,15v45    c-121.159,0-87.69,0-212,0V15c0-8.291-6.709-15-15-15s-15,6.709-15,15v45c-33.373,0-41.64,0-75,0C20.186,60,0,80.186,0,105v47.578    c0,12.012,4.688,23.32,13.184,31.816l42.422,42.422C64.102,235.313,75.41,240,87.422,240H90v15c0,19.53,12.578,36.024,30,42.237    V315c0,8.291,6.709,15,15,15s15-6.709,15-15v-17.763c17.422-6.213,30-22.707,30-42.237v-15h77c8.276,0,15,6.724,15,15v90    c0,8.276-6.724,15-15,15c-132.524,0-95.953,0-227,0c-16.569,0-30,13.431-30,30c0,16.567,13.431,30,30,30    c155.859,0,267.767,0,422,0V300h15c24.814,0,45-19.186,45-44v-60C512,171.186,491.814,150,467,150z M150,135    c0,8.276-6.724,15-15,15s-15-6.724-15-15V90h30V135z M377,390h-30c-8.291,0-15-6.709-15-15c0-8.291,6.709-15,15-15h30    c8.291,0,15,6.709,15,15C392,383.291,385.291,390,377,390z M377,330h-30c-8.291,0-15-6.709-15-15c0-8.291,6.709-15,15-15h30    c8.291,0,15,6.709,15,15C392,323.291,385.291,330,377,330z M347,210c-24.814,0-45-20.186-45-45c0-24.814,20.186-45,45-45    c24.814,0,45,20.186,45,45C392,189.814,371.814,210,347,210z M482,255c0,8.276-6.724,15-15,15h-15v-90h15c8.276,0,15,6.724,15,15    V255z" fill="#1d606b"/>
	</g>
</g>
<g>
	<g>
		<path d="M347,150c-8.276,0-15,6.724-15,15s6.724,15,15,15s15-6.724,15-15S355.276,150,347,150z" fill="#1d606b"/>
	</g>
</g>
<g>
	<g>
		<path d="M30,450v47c0,8.291,6.709,15,15,15h392c8.291,0,15-6.709,15-15v-47H30z" fill="#1d606b"/>
	</g>
</g>
<g>
</g>
<g>
</g>
<g>
</g>
<g>
</g>
<g>
</g>
<g>
</g>
<g>
</g>
<g>
</g>
<g>
</g>
<g>
</g>
<g>
</g>
<g>
</g>
<g>
</g>
<g>
</g>
<g>
</g>
</svg>
