<?xml version="1.0" encoding="iso-8859-1"?>
<!-- Generator: Adobe Illustrator 18.1.1, SVG Export Plug-In . SVG Version: 6.00 Build 0)  -->
<svg xmlns="http://www.w3.org/2000/svg" xmlns:xlink="http://www.w3.org/1999/xlink" version="1.1" id="Capa_1" x="0px" y="0px" viewBox="0 0 467.296 467.296" style="enable-background:new 0 0 467.296 467.296;" xml:space="preserve" width="512px" height="512px">
<g>
	<g>
		<path d="M408.201,93.292l0.171-0.154h-0.301l-0.26-0.35l-0.455,0.35h-82.115l11.006-30.645L235.891,40.74    L224.267,5.072L85.513,44.154l19.354,73.271l-82.05,65.207v3.52L0,255.757l22.817-16.639v223.105h279.599v-0.675l105.745-94.048    V231.347l59.135-59.639L408.201,93.292z M98.34,51.478L217.391,17.94l6.592,20.208l-36.335-7.885l-54.722,152.134L98.34,51.478z     M108.256,130.22l13.843,52.413H42.943L108.256,130.22z M211.449,240.541h-93.877v-10.518h93.877V240.541z M144.038,182.633    l50.405-140.112l127.854,27.735l-40.432,112.378H144.038z M295.108,182.633h-2.057l28.401-78.969h59.851L295.108,182.633z     M397.642,362.778l-95.226,84.692V204.645l56.12,76.734l39.107-39.415V362.778z" fill="#1D606B"/>
	</g>
</g>
<g>
</g>
<g>
</g>
<g>
</g>
<g>
</g>
<g>
</g>
<g>
</g>
<g>
</g>
<g>
</g>
<g>
</g>
<g>
</g>
<g>
</g>
<g>
</g>
<g>
</g>
<g>
</g>
<g>
</g>
</svg>
