<?xml version="1.0" encoding="iso-8859-1"?>
<!-- Generator: Adobe Illustrator 19.0.0, SVG Export Plug-In . SVG Version: 6.00 Build 0)  -->
<svg xmlns="http://www.w3.org/2000/svg" xmlns:xlink="http://www.w3.org/1999/xlink" version="1.1" id="Capa_1" x="0px" y="0px" viewBox="0 0 512 512" style="enable-background:new 0 0 512 512;" xml:space="preserve" width="512px" height="512px">
<g>
	<g>
		<path d="M255.212,272c-41.353,0-75,33.647-75,75c0,41.353,33.647,75,75,75c41.353,0,75-33.647,75-75    C330.212,305.647,296.564,272,255.212,272z M255.212,392c-24.814,0-45-20.186-45-45c0-24.814,20.186-45,45-45    c24.814,0,45,20.186,45,45C300.212,371.814,280.026,392,255.212,392z" fill="#1d606b"/>
	</g>
</g>
<g>
	<g>
		<path d="M255.212,332c-8.276,0-15,6.724-15,15s6.724,15,15,15s15-6.724,15-15S263.488,332,255.212,332z" fill="#1d606b"/>
	</g>
</g>
<g>
	<g>
		<path d="M255.212,92c-24.814,0-45,20.186-45,45c0,24.814,20.185,45,45,45c24.814,0,45-20.186,45-45    C300.212,112.186,280.026,92,255.212,92z M255.212,152c-8.284,0-15-6.716-15-15c0-8.286,6.716-15,15-15c8.284,0,15,6.714,15,15    C270.212,145.284,263.496,152,255.212,152z" fill="#1d606b"/>
	</g>
</g>
<g>
	<g>
		<path d="M375.212,0h-240c-24.814,0-45,20.186-45,45v422c0,24.814,20.186,45,45,45h240c24.814,0,45-20.186,45-45V45    C420.212,20.186,400.026,0,375.212,0z M255.212,62c41.353,0,75,33.647,75,75c0,41.353-33.647,75-75,75c-41.353,0-75-33.647-75-75    C180.212,95.647,213.859,62,255.212,62z M255.212,452c-57.891,0-105-47.109-105-105s47.109-105,105-105s105,47.109,105,105    S313.102,452,255.212,452z" fill="#1d606b"/>
	</g>
</g>
<g>
	<g>
		<path d="M496.804,242h-30c-19.773,0-19.854,30,0,30h30C516.578,272,516.659,242,496.804,242z" fill="#1d606b"/>
	</g>
</g>
<g>
	<g>
		<path d="M486.199,156.394l-30,30c-14.003,14.004,7.208,35.215,21.211,21.211l30-30    C521.355,163.66,500.259,142.334,486.199,156.394z" fill="#1d606b"/>
	</g>
</g>
<g>
	<g>
		<path d="M507.41,336.395l-30-30c-13.945-13.945-35.271,7.151-21.211,21.211l30,30C500.202,371.609,521.413,350.398,507.41,336.395    z" fill="#1d606b"/>
	</g>
</g>
<g>
	<g>
		<path d="M45.212,242h-30c-19.773,0-19.854,30,0,30h30C64.985,272,65.066,242,45.212,242z" fill="#1d606b"/>
	</g>
</g>
<g>
	<g>
		<path d="M55.817,186.395l-30-30c-13.945-13.945-35.271,7.151-21.211,21.211l30,30C48.552,221.552,69.877,200.455,55.817,186.395z" fill="#1d606b"/>
	</g>
</g>
<g>
	<g>
		<path d="M34.606,306.395l-30,30c-14.003,14.003,7.208,35.214,21.211,21.211l30-30C69.762,313.66,48.666,292.335,34.606,306.395z" fill="#1d606b"/>
	</g>
</g>
<g>
</g>
<g>
</g>
<g>
</g>
<g>
</g>
<g>
</g>
<g>
</g>
<g>
</g>
<g>
</g>
<g>
</g>
<g>
</g>
<g>
</g>
<g>
</g>
<g>
</g>
<g>
</g>
<g>
</g>
</svg>
