<?xml version="1.0" encoding="iso-8859-1"?>
<!-- Generator: Adobe Illustrator 17.1.0, SVG Export Plug-In . SVG Version: 6.00 Build 0)  -->
<!DOCTYPE svg PUBLIC "-//W3C//DTD SVG 1.1//EN" "http://www.w3.org/Graphics/SVG/1.1/DTD/svg11.dtd">
<svg xmlns="http://www.w3.org/2000/svg" xmlns:xlink="http://www.w3.org/1999/xlink" version="1.1" id="Capa_1" x="0px" y="0px" viewBox="0 0 203.344 203.344" style="enable-background:new 0 0 203.344 203.344;" xml:space="preserve" width="512px" height="512px">
<path d="M199.78,142.966H68.17c-1.965,0-3.563-1.599-3.563-3.564v-82.5c0-1.965,1.599-3.563,3.563-3.563h131.61  c1.965,0,3.563,1.599,3.563,3.563v82.5C203.344,141.368,201.745,142.966,199.78,142.966z M163.309,169.005h-13.333v-16.039h-32  v16.039h-13.334c-2.762,0-5,2.238-5,5s2.238,5,5,5h18.334h22h18.333c2.762,0,5-2.238,5-5S166.07,169.005,163.309,169.005z   M79.844,43.338H68.17c-0.73,0-1.441,0.074-2.141,0.186c-0.411-0.109-0.834-0.186-1.279-0.186H15.094c-2.762,0-5,2.238-5,5  s2.238,5,5,5h40.004c-0.311,1.138-0.491,2.329-0.491,3.563v9.309H15.094c-2.762,0-5,2.238-5,5s2.238,5,5,5h39.513v12.873H15.094  c-2.762,0-5,2.238-5,5s2.238,5,5,5h39.513v40.318c0,7.479,6.085,13.564,13.563,13.564h11.674v21.039c0,2.762-2.238,5-5,5H5  c-2.762,0-5-2.238-5-5V29.338c0-2.762,2.238-5,5-5h69.844c2.762,0,5,2.238,5,5V43.338z M32.214,142.064  c0,4.257,3.451,7.708,7.708,7.708c4.257,0,7.708-3.451,7.708-7.708c0-4.257-3.451-7.708-7.708-7.708  C35.665,134.356,32.214,137.807,32.214,142.064z" fill="#1d606b"/>
<g>
</g>
<g>
</g>
<g>
</g>
<g>
</g>
<g>
</g>
<g>
</g>
<g>
</g>
<g>
</g>
<g>
</g>
<g>
</g>
<g>
</g>
<g>
</g>
<g>
</g>
<g>
</g>
<g>
</g>
</svg>
