<?xml version="1.0" encoding="iso-8859-1"?>
<!-- Generator: Adobe Illustrator 18.1.1, SVG Export Plug-In . SVG Version: 6.00 Build 0)  -->
<svg xmlns="http://www.w3.org/2000/svg" xmlns:xlink="http://www.w3.org/1999/xlink" version="1.1" id="Capa_1" x="0px" y="0px" viewBox="0 0 403.48 403.48" style="enable-background:new 0 0 403.48 403.48;" xml:space="preserve" width="512px" height="512px">
<g>
	<path d="M388.48,84.381H15c-8.283,0-15,6.717-15,15V304.1c0,8.285,6.717,15,15,15h373.48c8.283,0,15-6.715,15-15V99.381   C403.48,91.098,396.764,84.381,388.48,84.381z M258.74,284.1H35V119.381h223.74V284.1z M295.475,187.408   c0-4.502,3.65-8.153,8.153-8.153c4.501,0,8.154,3.651,8.154,8.153c0,4.504-3.653,8.154-8.154,8.154   C299.125,195.562,295.475,191.912,295.475,187.408z M331.74,268.334c-13.807,0-25.001-11.192-25.001-25   c0-4.07,0.979-7.909,2.704-11.305v-10.99h10.99c3.397-1.727,7.236-2.705,11.307-2.705c13.807,0,25.002,11.193,25.002,25   C356.742,257.142,345.547,268.334,331.74,268.334z M322.654,187.408c0-4.502,3.65-8.153,8.152-8.153   c4.504,0,8.154,3.651,8.154,8.153c0,4.504-3.65,8.154-8.154,8.154C326.305,195.562,322.654,191.912,322.654,187.408z    M357.986,195.562c-4.503,0-8.154-3.65-8.154-8.154c0-4.502,3.651-8.153,8.154-8.153c4.504,0,8.154,3.651,8.154,8.153   C366.141,191.912,362.49,195.562,357.986,195.562z M368.074,165.407h-72.668V124.74h72.668V165.407z" fill="#1d606b"/>
	<path d="M122.132,240.631c0.586,0.586,1.354,0.879,2.121,0.879s1.535-0.293,2.12-0.879l73.54-73.539   c1.172-1.171,1.172-3.071,0-4.242c-1.172-1.172-3.071-1.172-4.242,0l-73.539,73.539C120.96,237.56,120.96,239.459,122.132,240.631z   " fill="#1d606b"/>
	<path d="M87.483,241.51c0.768,0,1.535-0.293,2.121-0.879l73.539-73.539c1.172-1.171,1.172-3.071,0-4.242   c-1.173-1.172-3.07-1.172-4.242,0l-73.539,73.539c-1.172,1.171-1.172,3.071,0,4.242C85.948,241.217,86.716,241.51,87.483,241.51z" fill="#1d606b"/>
</g>
<g>
</g>
<g>
</g>
<g>
</g>
<g>
</g>
<g>
</g>
<g>
</g>
<g>
</g>
<g>
</g>
<g>
</g>
<g>
</g>
<g>
</g>
<g>
</g>
<g>
</g>
<g>
</g>
<g>
</g>
</svg>
