<?xml version="1.0" encoding="iso-8859-1"?>
<!-- Generator: Adobe Illustrator 18.0.0, SVG Export Plug-In . SVG Version: 6.00 Build 0)  -->
<!DOCTYPE svg PUBLIC "-//W3C//DTD SVG 1.1//EN" "http://www.w3.org/Graphics/SVG/1.1/DTD/svg11.dtd">
<svg xmlns="http://www.w3.org/2000/svg" xmlns:xlink="http://www.w3.org/1999/xlink" version="1.1" id="Capa_1" x="0px" y="0px" viewBox="0 0 489.938 489.938" style="enable-background:new 0 0 489.938 489.938;" xml:space="preserve" width="512px" height="512px">
<path id="microwave" d="M459.316,94.416H30.621C13.708,94.416,0,108.134,0,125.037v213.662  c0,16.908,13.708,30.621,30.621,30.621h23.827v14.802c0,6.301,5.104,11.4,11.405,11.4h54.767c6.301,0,11.405-5.1,11.405-11.4V369.32  h225.91v14.802c0,6.301,5.104,11.4,11.401,11.4h54.767c6.301,0,11.405-5.1,11.405-11.4V369.32h23.809  c16.917,0,30.622-13.713,30.622-30.621V125.037C489.938,108.134,476.234,94.416,459.316,94.416z M323.917,304.171  c0,6.301-5.104,11.404-11.405,11.404H68.564c-6.292,0-11.396-5.104-11.396-11.404V159.583c0-6.301,5.104-11.404,11.396-11.404  h243.947c6.301,0,11.405,5.104,11.405,11.404V304.171z M411.698,315.575c-10.146,0-18.374-8.215-18.374-18.373  c0-10.16,8.228-18.374,18.374-18.374c10.141,0,18.369,8.214,18.369,18.374C430.067,307.36,421.839,315.575,411.698,315.575z   M411.698,263.52c-12.028,0-21.789-9.748-21.789-21.772c0-12.041,9.761-21.783,21.789-21.783c12.023,0,21.766,9.742,21.766,21.783  C433.464,253.772,423.722,263.52,411.698,263.52z M453.195,192.561c0,6.301-5.105,11.406-11.405,11.406h-60.22  c-6.292,0-11.396-5.105-11.396-11.406v-32.979c0-6.301,5.104-11.404,11.396-11.404h60.22c6.301,0,11.405,5.104,11.405,11.404  V192.561z" fill="#1d606b"/>
<g>
</g>
<g>
</g>
<g>
</g>
<g>
</g>
<g>
</g>
<g>
</g>
<g>
</g>
<g>
</g>
<g>
</g>
<g>
</g>
<g>
</g>
<g>
</g>
<g>
</g>
<g>
</g>
<g>
</g>
</svg>
