<?xml version="1.0" encoding="iso-8859-1"?>
<!-- Generator: Adobe Illustrator 18.0.0, SVG Export Plug-In . SVG Version: 6.00 Build 0)  -->
<!DOCTYPE svg PUBLIC "-//W3C//DTD SVG 1.1//EN" "http://www.w3.org/Graphics/SVG/1.1/DTD/svg11.dtd">
<svg xmlns="http://www.w3.org/2000/svg" xmlns:xlink="http://www.w3.org/1999/xlink" version="1.1" id="Capa_1" x="0px" y="0px" viewBox="0 0 297 297" style="enable-background:new 0 0 297 297;" xml:space="preserve" width="512px" height="512px">
<path d="M229.272,13.044C229.272,5.84,223.432,0,216.228,0H80.772c-7.204,0-13.044,5.84-13.044,13.044v270.912  c0,7.204,5.84,13.044,13.044,13.044h135.456c7.204,0,13.044-5.84,13.044-13.044V13.044z M165.056,119.038  c-7.204,0-13.044,5.84-13.044,13.044v46.52h-7.024v-46.52c0-7.204-6.228-12.679-13.432-12.679h-16.419  c-7.204,0-13.295,5.475-13.295,12.679v46.52h-8.027v-63.213h109.368v63.213H178.1v-46.52  C178.1,124.877,172.26,119.038,165.056,119.038z M203.184,26.088v63.213h-7.024V46.908c0-7.204-5.84-13.044-13.044-13.044  c-7.204,0-13.044,5.84-13.044,13.044v42.393h-20.931l12.748-38.256c2.278-6.835-1.416-14.227-8.249-16.506  c-6.836-2.277-14.223,1.422-16.5,8.258l-15.498,46.504H93.816V26.088H203.184z M169.862,270.912l-16.182-48.547  c-2.278-6.834-9.661-10.527-16.5-8.249c-6.834,2.278-10.528,9.665-8.249,16.5l13.432,40.297h-6.364l-16.182-48.547  c-2.278-6.834-9.661-10.527-16.5-8.249c-6.834,2.278-10.528,9.665-8.249,16.5l13.432,40.297H93.816v-66.223h109.368v66.223H169.862z  " fill="#1d606b"/>
<g>
</g>
<g>
</g>
<g>
</g>
<g>
</g>
<g>
</g>
<g>
</g>
<g>
</g>
<g>
</g>
<g>
</g>
<g>
</g>
<g>
</g>
<g>
</g>
<g>
</g>
<g>
</g>
<g>
</g>
</svg>
