<?xml version="1.0" encoding="iso-8859-1"?>
<!-- Generator: Adobe Illustrator 19.0.0, SVG Export Plug-In . SVG Version: 6.00 Build 0)  -->
<svg xmlns="http://www.w3.org/2000/svg" xmlns:xlink="http://www.w3.org/1999/xlink" version="1.1" id="Layer_1" x="0px" y="0px" viewBox="0 0 512 512" style="enable-background:new 0 0 512 512;" xml:space="preserve" width="512px" height="512px">
<g>
	<g>
		<path d="M495.564,272H292v-20h135.564c6.616,0,8.436-9.384,8.436-16V76c0-6.616-1.82-8-8.436-8h-336C84.944,68,76,69.384,76,76    v160c0,6.616,2.328,16,8.944,16H220v20H23.564C12.536,272,0,276.972,0,288v150.212C0.208,444,0.208,444,2.416,444h19.168    c2.208,0,2.208,0,2.416-8v-20h464v20c-0.124,8,0.416,8,2.624,8H509.5c2.208,0,2.208,0,2.5-8V288    C512,276.972,506.592,272,495.564,272z M100,228V92h312v136H100z M163.564,388h-44c-4.416,0-8-3.584-8-8c0-4.416,3.584-8,8-8h44    c4.416,0,8,3.584,8,8C171.564,384.416,167.98,388,163.564,388z M248,340H24v-44h224V340z M399.564,388h-44c-4.416,0-8-3.584-8-8    c0-4.416,3.584-8,8-8h44c4.416,0,8,3.584,8,8C407.564,384.416,403.98,388,399.564,388z M488,340H264v-44h224V340z" fill="#1d606b"/>
	</g>
</g>
<g>
</g>
<g>
</g>
<g>
</g>
<g>
</g>
<g>
</g>
<g>
</g>
<g>
</g>
<g>
</g>
<g>
</g>
<g>
</g>
<g>
</g>
<g>
</g>
<g>
</g>
<g>
</g>
<g>
</g>
</svg>
