<?xml version="1.0" encoding="iso-8859-1"?>
<!-- Generator: Adobe Illustrator 18.0.0, SVG Export Plug-In . SVG Version: 6.00 Build 0)  -->
<!DOCTYPE svg PUBLIC "-//W3C//DTD SVG 1.1//EN" "http://www.w3.org/Graphics/SVG/1.1/DTD/svg11.dtd">
<svg xmlns="http://www.w3.org/2000/svg" xmlns:xlink="http://www.w3.org/1999/xlink" version="1.1" id="Capa_1" x="0px" y="0px" viewBox="0 0 60 60" style="enable-background:new 0 0 60 60;" xml:space="preserve" width="512px" height="512px">
<path d="M58,22.556v-3.06C58,14.812,54.188,11,49.503,11h-5.675c-1.773,0-3.456,0.585-4.828,1.665  C37.628,11.585,35.945,11,34.172,11h-8.344c-1.773,0-3.456,0.585-4.828,1.665C19.628,11.585,17.945,11,16.172,11h-5.675  C5.812,11,2,14.812,2,19.497v3.06C0.81,23.25,0,24.526,0,26v20h1v3h6v-3h1h44h1v3h6v-3h1V26C60,24.526,59.19,23.25,58,22.556z M6,30  v5v2v7H2V26c0-0.809,0.485-1.503,1.177-1.818l0.158-0.056c0.122-0.044,0.237-0.073,0.35-0.094c0.058-0.009,0.117-0.014,0.176-0.018  c0.056-0.005,0.114-0.012,0.169-0.011c0.057,0.001,0.111,0.011,0.166,0.017c0.191,0.024,0.379,0.075,0.574,0.171  C5.518,24.557,6,25.385,6,26.3V30z M38,18c0-0.552,0.447-1,1-1s1,0.448,1,1v1c0,0.552-0.447,1-1,1s-1-0.448-1-1V18z M38,22  c0-0.552,0.447-1,1-1s1,0.448,1,1v1c0,0.552-0.447,1-1,1s-1-0.448-1-1V22z M38,26c0-0.552,0.447-1,1-1s1,0.448,1,1v1  c0,0.552-0.447,1-1,1s-1-0.448-1-1V26z M20,18c0-0.552,0.447-1,1-1s1,0.448,1,1v1c0,0.552-0.447,1-1,1s-1-0.448-1-1V18z M20,22  c0-0.552,0.447-1,1-1s1,0.448,1,1v1c0,0.552-0.447,1-1,1s-1-0.448-1-1V22z M20,26c0-0.552,0.447-1,1-1s1,0.448,1,1v1  c0,0.552-0.447,1-1,1s-1-0.448-1-1V26z M9,45c-0.552,0-1-0.448-1-1c0-0.552,0.448-1,1-1s1,0.448,1,1C10,44.552,9.552,45,9,45z M9,39  c-0.552,0-1-0.448-1-1c0-0.552,0.448-1,1-1s1,0.448,1,1C10,38.552,9.552,39,9,39z M12,42c-0.552,0-1-0.448-1-1c0-0.552,0.448-1,1-1  s1,0.448,1,1C13,41.552,12.552,42,12,42z M15,45c-0.552,0-1-0.448-1-1c0-0.552,0.448-1,1-1s1,0.448,1,1C16,44.552,15.552,45,15,45z   M15,39c-0.552,0-1-0.448-1-1c0-0.552,0.448-1,1-1s1,0.448,1,1C16,38.552,15.552,39,15,39z M18,42c-0.552,0-1-0.448-1-1  c0-0.552,0.448-1,1-1s1,0.448,1,1C19,41.552,18.552,42,18,42z M21,45c-0.552,0-1-0.448-1-1c0-0.552,0.448-1,1-1s1,0.448,1,1  C22,44.552,21.552,45,21,45z M21,39c-0.552,0-1-0.448-1-1c0-0.552,0.448-1,1-1s1,0.448,1,1C22,38.552,21.552,39,21,39z M24,42  c-0.552,0-1-0.448-1-1c0-0.552,0.448-1,1-1s1,0.448,1,1C25,41.552,24.552,42,24,42z M27,45c-0.552,0-1-0.448-1-1  c0-0.552,0.448-1,1-1s1,0.448,1,1C28,44.552,27.552,45,27,45z M27,39c-0.552,0-1-0.448-1-1c0-0.552,0.448-1,1-1s1,0.448,1,1  C28,38.552,27.552,39,27,39z M30,42c-0.552,0-1-0.448-1-1c0-0.552,0.448-1,1-1s1,0.448,1,1C31,41.552,30.552,42,30,42z M33,45  c-0.552,0-1-0.448-1-1c0-0.552,0.448-1,1-1s1,0.448,1,1C34,44.552,33.552,45,33,45z M33,39c-0.552,0-1-0.448-1-1  c0-0.552,0.448-1,1-1s1,0.448,1,1C34,38.552,33.552,39,33,39z M36,42c-0.552,0-1-0.448-1-1c0-0.552,0.448-1,1-1s1,0.448,1,1  C37,41.552,36.552,42,36,42z M39,45c-0.552,0-1-0.448-1-1c0-0.552,0.448-1,1-1s1,0.448,1,1C40,44.552,39.552,45,39,45z M39,39  c-0.552,0-1-0.448-1-1c0-0.552,0.448-1,1-1s1,0.448,1,1C40,38.552,39.552,39,39,39z M42,42c-0.552,0-1-0.448-1-1  c0-0.552,0.448-1,1-1s1,0.448,1,1C43,41.552,42.552,42,42,42z M45,45c-0.552,0-1-0.448-1-1c0-0.552,0.448-1,1-1s1,0.448,1,1  C46,44.552,45.552,45,45,45z M45,39c-0.552,0-1-0.448-1-1c0-0.552,0.448-1,1-1s1,0.448,1,1C46,38.552,45.552,39,45,39z M48,42  c-0.552,0-1-0.448-1-1c0-0.552,0.448-1,1-1s1,0.448,1,1C49,41.552,48.552,42,48,42z M51,45c-0.552,0-1-0.448-1-1  c0-0.552,0.448-1,1-1s1,0.448,1,1C52,44.552,51.552,45,51,45z M51,39c-0.552,0-1-0.448-1-1c0-0.552,0.448-1,1-1s1,0.448,1,1  C52,38.552,51.552,39,51,39z M52,35H8v-3h10.172c0.263,0,0.521,0.107,0.707,0.293c1.133,1.132,3.109,1.132,4.242,0  C23.308,32.107,23.565,32,23.828,32h12.344c0.263,0,0.521,0.107,0.707,0.293c1.133,1.132,3.109,1.132,4.242,0  C41.308,32.107,41.565,32,41.828,32H52V35z M58,44h-4v-7v-2v-5v-3.7c0-0.915,0.482-1.743,1.229-2.109  c0.195-0.095,0.382-0.146,0.571-0.171c0.057-0.006,0.113-0.017,0.172-0.017c0.053-0.001,0.107,0.006,0.161,0.011  c0.062,0.004,0.123,0.009,0.183,0.018c0.113,0.021,0.228,0.051,0.349,0.094l0.158,0.056C57.515,24.497,58,25.191,58,26V44z" fill="#1d606b"/>
<g>
</g>
<g>
</g>
<g>
</g>
<g>
</g>
<g>
</g>
<g>
</g>
<g>
</g>
<g>
</g>
<g>
</g>
<g>
</g>
<g>
</g>
<g>
</g>
<g>
</g>
<g>
</g>
<g>
</g>
</svg>
