<?xml version="1.0" encoding="iso-8859-1"?>
<!-- Generator: Adobe Illustrator 19.0.0, SVG Export Plug-In . SVG Version: 6.00 Build 0)  -->
<svg xmlns="http://www.w3.org/2000/svg" xmlns:xlink="http://www.w3.org/1999/xlink" version="1.1" id="Capa_1" x="0px" y="0px" viewBox="0 0 512.001 512.001" style="enable-background:new 0 0 512.001 512.001;" xml:space="preserve" width="512px" height="512px">
<g>
	<g>
		<path d="M351.342,139.922c-3.91,0-7.811,0.239-11.682,0.714c-7.02-12.859-16.916-23.931-29.086-32.447    C294.523,96.958,275.651,91.021,256,91.021c-19.651,0-38.523,5.937-54.575,17.169c-12.171,8.516-22.066,19.588-29.086,32.447    c-3.87-0.475-7.771-0.714-11.682-0.714c-43.854,0-80.882,29.767-91.952,70.157c10.17,1.909,19.693,5.669,28.206,10.922    c17.659,10.895,30.975,28.18,36.668,48.619h244.841c5.691-20.439,19.008-37.726,36.668-48.619    c8.513-5.252,18.036-9.012,28.206-10.922C432.223,169.691,395.197,139.922,351.342,139.922z" fill="#1d606b"/>
	</g>
</g>
<g>
	<g>
		<path d="M501.396,260.071c-1.536-2.053-3.217-3.992-5.027-5.802c-2.413-2.413-5.056-4.596-7.892-6.514    c-2.127-1.438-4.363-2.727-6.693-3.852c-6.99-3.373-14.824-5.265-23.09-5.265c-29.394,0-53.307,23.914-53.307,53.307v7.677    h-298.77v-7.677c0-29.394-23.914-53.307-53.307-53.307c-8.266,0-16.101,1.892-23.09,5.265c-0.777,0.375-1.543,0.768-2.298,1.179    c-3.021,1.643-5.866,3.57-8.5,5.744c-3.292,2.718-6.253,5.823-8.814,9.245C3.947,268.968,0,280.004,0,291.946    c0,21.696,13.371,40.954,32.663,49.131v49.555h20.017v30.001v0.346h30.001v-0.346v-30.001H429.32v30.001v0.346h30.001v-0.346    v-30.001h20.017v-49.555c19.292-8.177,32.663-27.435,32.663-49.131C512,280.004,508.053,268.968,501.396,260.071z" fill="#1d606b"/>
	</g>
</g>
<g>
</g>
<g>
</g>
<g>
</g>
<g>
</g>
<g>
</g>
<g>
</g>
<g>
</g>
<g>
</g>
<g>
</g>
<g>
</g>
<g>
</g>
<g>
</g>
<g>
</g>
<g>
</g>
<g>
</g>
</svg>
