<?xml version="1.0" encoding="iso-8859-1"?>
<!-- Generator: Adobe Illustrator 19.0.0, SVG Export Plug-In . SVG Version: 6.00 Build 0)  -->
<svg xmlns="http://www.w3.org/2000/svg" xmlns:xlink="http://www.w3.org/1999/xlink" version="1.1" id="Capa_1" x="0px" y="0px" viewBox="0 0 512 512" style="enable-background:new 0 0 512 512;" xml:space="preserve" width="512px" height="512px">
<g>
	<g>
		<path d="M488.675,334.16h-59.577l-33.842-58.018c-2.088-3.578-6.68-4.786-10.258-2.699c-3.577,2.087-4.786,6.68-2.699,10.258    c46.258,79.302,45.584,76.605,45.347,82.149c-0.549,14.219-19.416,19.142-26.67,6.703l-61.57-105.547    c-1.345-2.304-3.811-3.721-6.479-3.721c-7.841,0-195.258,0-203.726,0c-5.259,0-10.083-2.871-12.589-7.493L16.727,71.536    c-3.764-6.941-1.178-15.651,5.763-19.414c6.578-3.568,15.319-1.581,19.348,5.799c18.566,34.035,0.927,1.557,93.762,172.8    c1.312,2.419,3.842,3.926,6.594,3.926c6.152,0,193.197,0,203.266,0c5.073,0,9.812,2.722,12.367,7.105l11.107,19.037    c2.089,3.578,6.679,4.786,10.258,2.699c3.578-2.088,4.786-6.681,2.699-10.258l-11.106-19.035    c-5.232-8.975-14.936-14.549-25.324-14.549h-19.652v-32.664c0-14.34-11.667-26.006-26.006-26.006h-184.95l-11.145-20.558    l8.058-4.397c12.107-6.602,16.564-21.746,9.957-33.855L93.163,49.806C86.561,37.711,71.403,33.25,59.304,39.85l-8.674,4.731    c-8.902-9.422-23.367-12.11-35.29-5.646C1.128,46.642-4.165,64.473,3.539,78.685l99.886,184.258    c5.132,9.464,15.009,15.344,25.774,15.344h59.359c3.259,20.357,19.556,36.473,40.131,39.667v33.003    c-12.66,3.328-22.024,14.868-22.024,28.556v38.453h-20.288c-16.167,0-29.319,13.153-29.319,29.319    c0,16.167,13.153,29.32,29.319,29.32h15.558c4.143,0,7.5-3.357,7.5-7.5s-3.357-7.5-7.5-7.5h-15.558    c-7.896,0-14.32-6.425-14.32-14.321c0-7.896,6.424-14.32,14.32-14.32c66.321,0,33.923,0,99.626,0    c7.897,0,14.322,6.424,14.322,14.32c0,7.897-6.425,14.321-14.322,14.321h-56.678c-4.143,0-7.5,3.357-7.5,7.5s3.357,7.5,7.5,7.5    h56.678c16.168,0,29.321-13.153,29.321-29.32c0-16.167-13.154-29.319-29.321-29.319h-20.285v-38.453    c0-13.69-9.367-25.229-22.027-28.556v-33.002c20.574-3.194,36.873-19.309,40.131-39.667h44.799l59.399,101.825    c5.234,8.977,14.942,14.553,25.336,14.552h0.008c10.054,0,19.559-5.228,24.898-13.85h50.414c12.862,0,23.325-10.465,23.325-23.326    C512,344.624,501.537,334.16,488.675,334.16z M299.8,175.976c6.069,0,11.007,4.938,11.007,11.007v32.664h-164.15l-23.674-43.671    H299.8z M66.487,53.017c4.898-2.672,10.912-0.786,13.508,3.973l28.56,52.357c2.635,4.829,0.86,10.871-3.972,13.506l-7.89,4.305    C63.778,66.821,71.441,80.9,58.645,57.294L66.487,53.017z M250.717,379.511v38.453h-29.053v-38.453    c0-8.01,6.516-14.525,14.525-14.525C244.199,364.985,250.717,371.501,250.717,379.511z M236.189,303.532    c-15.706,0-28.901-10.794-32.352-25.247h64.704C265.09,292.738,251.895,303.532,236.189,303.532z M488.675,365.812h-46.009    c0.119-6.593-1.709-11.323-4.819-16.653h50.828c4.591,0,8.326,3.735,8.326,8.326C497.001,362.077,493.266,365.812,488.675,365.812    z" fill="#1d606b"/>
	</g>
</g>
<g>
</g>
<g>
</g>
<g>
</g>
<g>
</g>
<g>
</g>
<g>
</g>
<g>
</g>
<g>
</g>
<g>
</g>
<g>
</g>
<g>
</g>
<g>
</g>
<g>
</g>
<g>
</g>
<g>
</g>
</svg>
