<?xml version="1.0" encoding="iso-8859-1"?>
<!-- Generator: Adobe Illustrator 19.0.0, SVG Export Plug-In . SVG Version: 6.00 Build 0)  -->
<svg xmlns="http://www.w3.org/2000/svg" xmlns:xlink="http://www.w3.org/1999/xlink" version="1.1" id="Layer_1" x="0px" y="0px" viewBox="0 0 512 512" style="enable-background:new 0 0 512 512;" xml:space="preserve" width="512px" height="512px">
<g>
	<g>
		<g>
			<path d="M93.867,179.2c4.713,0,8.533-3.82,8.533-8.533c-0.014-4.707-3.826-8.519-8.533-8.533c-4.713,0-8.533,3.82-8.533,8.533     S89.154,179.2,93.867,179.2z" fill="#1d606b"/>
			<path d="M486.4,213.333h-98.816l-20.651-20.565V179.2h76.8c14.121-0.041,25.559-11.479,25.6-25.6v-128     c-0.041-14.121-11.479-25.559-25.6-25.6H221.867c-14.121,0.041-25.559,11.479-25.6,25.6v128     c0.041,14.121,11.479,25.559,25.6,25.6h76.8v13.568l-20.651,20.565H153.6V51.2c-0.014-4.707-3.826-8.519-8.533-8.533h-102.4     c-4.707,0.014-8.519,3.826-8.533,8.533v162.133H25.6c-14.121,0.041-25.559,11.479-25.6,25.6v264.533C0,508.18,3.82,512,8.533,512     s8.533-3.82,8.533-8.533V486.4h153.6v17.067c0,4.713,3.82,8.533,8.533,8.533s8.533-3.82,8.533-8.533v-85.333h307.2v85.333     c0,4.713,3.82,8.533,8.533,8.533s8.533-3.82,8.533-8.533V238.933C511.959,224.812,500.521,213.375,486.4,213.333z M76.8,76.8     h34.133c4.713,0,8.533,3.82,8.533,8.533s-3.82,8.533-8.533,8.533H76.8c-4.713,0-8.533-3.821-8.533-8.533S72.087,76.8,76.8,76.8z      M76.8,110.933h34.133c4.713,0,8.533,3.82,8.533,8.533s-3.82,8.533-8.533,8.533H76.8c-4.713,0-8.533-3.82-8.533-8.533     S72.087,110.933,76.8,110.933z M93.867,145.067c14.138,0,25.6,11.462,25.6,25.6c-0.041,14.121-11.479,25.559-25.6,25.6     c-14.139,0-25.6-11.461-25.6-25.6S79.728,145.067,93.867,145.067z M110.933,307.19c0,0.003,0,0.007,0,0.01     c0.003,4.71-3.813,8.531-8.523,8.533c-0.003,0-0.007,0-0.01,0H85.333c-4.713,0-8.533-3.82-8.533-8.533s3.82-8.533,8.533-8.533     H102.4C107.11,298.664,110.931,302.48,110.933,307.19z M102.4,452.267H85.333c-4.713,0-8.533-3.82-8.533-8.533     s3.82-8.533,8.533-8.533H102.4c4.713,0,8.533,3.82,8.533,8.533S107.113,452.267,102.4,452.267z M170.667,418.133h-153.6v-17.067     h153.6V418.133z M76.8,375.477c0-0.003,0-0.007,0-0.01c-0.003-4.71,3.813-8.531,8.523-8.533c0.003,0,0.007,0,0.01,0H102.4     c4.713,0,8.533,3.82,8.533,8.533S107.113,384,102.4,384H85.333C80.623,384.003,76.803,380.187,76.8,375.477z M170.667,349.867     h-153.6V332.8h153.6V349.867z M352.341,202.325l11.008,11.008h-61.099l11.008-11.008c1.572-1.627,2.458-3.796,2.475-6.059V179.2     h34.133v17.067C349.883,198.529,350.769,200.698,352.341,202.325z M238.933,68.267c-2.264-0.009-4.436-0.896-6.059-2.475     c-3.328-3.354-3.328-8.764,0-12.117l17.067-17.067c3.36-3.333,8.785-3.31,12.117,0.049c3.313,3.34,3.313,8.728,0,12.068     l-17.067,17.067C243.369,67.37,241.197,68.257,238.933,68.267z M262.059,99.925c-3.365,3.3-8.752,3.3-12.117,0     c-3.328-3.354-3.328-8.764,0-12.117l51.2-51.2c3.36-3.332,8.785-3.309,12.117,0.051c3.312,3.34,3.312,8.726,0,12.066     L262.059,99.925z M494.933,401.067h-307.2V281.6h307.2V401.067z" fill="#1d606b"/>
		</g>
	</g>
</g>
<g>
</g>
<g>
</g>
<g>
</g>
<g>
</g>
<g>
</g>
<g>
</g>
<g>
</g>
<g>
</g>
<g>
</g>
<g>
</g>
<g>
</g>
<g>
</g>
<g>
</g>
<g>
</g>
<g>
</g>
</svg>
