<?xml version="1.0" encoding="iso-8859-1"?>
<!-- Generator: Adobe Illustrator 18.1.1, SVG Export Plug-In . SVG Version: 6.00 Build 0)  -->
<svg xmlns="http://www.w3.org/2000/svg" xmlns:xlink="http://www.w3.org/1999/xlink" version="1.1" id="Capa_1" x="0px" y="0px" viewBox="0 0 89.471 89.471" style="enable-background:new 0 0 89.471 89.471;" xml:space="preserve" width="512px" height="512px">
<g>
	<g>
		<g>
			<ellipse cx="57.151" cy="19.097" rx="1.492" ry="0.744" fill="#1d606b"/>
		</g>
		<g>
			<path d="M51.156,61.531c-2.022,1.167-3.504,2.376-4.606,3.597c-0.508-0.265-1.074-0.429-1.686-0.447     c0.193-1.6,0.82-3.471,2.316-5.909c-1.636,0-3.275,0-4.907,0c-0.344,2.902-0.122,4.924,0.369,6.503     c-0.505,0.319-0.931,0.748-1.245,1.256c-1.285-0.934-2.584-2.251-3.93-4.101c-0.673,1.507-1.346,2.516-2.473,3.382     c2.326,1.739,4.198,2.573,5.819,2.942c0.025,0.612,0.186,1.177,0.462,1.693c-1.485,0.63-3.432,1.016-6.281,0.938     c1.36,1.732,2.58,3.003,3.314,4.27c2.018-1.16,3.504-2.369,4.602-3.593c0.508,0.268,1.074,0.433,1.686,0.451     c-0.193,1.596-0.82,3.464-2.319,5.909c1.636,0,3.275,0,4.91,0c0.344-2.902,0.118-4.921-0.372-6.503     c0.505-0.322,0.931-0.748,1.245-1.256c1.285,0.934,2.588,2.251,3.93,4.101c0.676-1.507,1.349-2.516,2.473-3.382     c-2.326-1.739-4.198-2.573-5.819-2.942c-0.025-0.612-0.186-1.181-0.462-1.693c1.485-0.63,3.432-1.016,6.281-0.938     C53.107,64.076,51.89,62.809,51.156,61.531z M44.736,69.823c-0.673,0-1.228-0.544-1.228-1.228c0-0.673,0.551-1.228,1.228-1.228     c0.676,0,1.231,0.551,1.231,1.228C45.963,69.269,45.412,69.823,44.736,69.823z" fill="#1d606b"/>
		</g>
		<g>
			<path d="M67.361,41.765l2.466-28.355c0.14-1.636-1.084-2.97-2.727-2.97h-0.691l0.301-4.488     C66.925,2.677,64.419,0,61.138,0H28.334c-3.282,0-5.787,2.677-5.572,5.952l0.301,4.488h-0.694c-1.643,0-2.867,1.335-2.727,2.97     l2.469,28.355c0.14,1.632,0.14,4.309,0,5.941l-2.469,28.355c-0.14,1.636,1.084,2.97,2.727,2.97h0.694l-0.301,4.488     c-0.215,3.275,2.29,5.952,5.572,5.952h32.804c3.282,0,5.787-2.677,5.576-5.952l-0.301-4.488h0.691     c1.643,0,2.867-1.335,2.727-2.97l-2.466-28.355C67.222,46.074,67.222,43.397,67.361,41.765z M58.643,3.343     c1.235,0,2.237,1.002,2.237,2.237s-1.002,2.237-2.237,2.237c-1.235,0-2.237-1.002-2.237-2.237S57.412,3.343,58.643,3.343z      M52.77,3.879c0.941,0,1.704,0.755,1.704,1.696s-0.762,1.696-1.704,1.696c-0.941,0-1.696-0.755-1.696-1.696     S51.829,3.879,52.77,3.879z M44.736,80.524c-6.589,0-11.928-5.343-11.928-11.928s5.34-11.928,11.928-11.928     s11.928,5.343,11.928,11.928S51.324,80.524,44.736,80.524z M39.518,53.218v-23.86c0-0.412,0.329-0.744,0.744-0.744     c0.412,0,0.744,0.333,0.744,0.744v23.86c0,0.408-0.333,0.744-0.744,0.744C39.851,53.962,39.518,53.625,39.518,53.218z      M48.465,53.218v-23.86c0-0.412,0.333-0.744,0.744-0.744c0.415,0,0.744,0.333,0.744,0.744v23.86c0,0.408-0.329,0.744-0.744,0.744     C48.798,53.962,48.465,53.625,48.465,53.218z M61.138,21.903H28.334v-8.947h32.804V21.903z" fill="#1d606b"/>
		</g>
	</g>
</g>
<g>
</g>
<g>
</g>
<g>
</g>
<g>
</g>
<g>
</g>
<g>
</g>
<g>
</g>
<g>
</g>
<g>
</g>
<g>
</g>
<g>
</g>
<g>
</g>
<g>
</g>
<g>
</g>
<g>
</g>
</svg>
