<?xml version="1.0" encoding="iso-8859-1"?>
<!-- Generator: Adobe Illustrator 16.0.0, SVG Export Plug-In . SVG Version: 6.00 Build 0)  -->
<!DOCTYPE svg PUBLIC "-//W3C//DTD SVG 1.1//EN" "http://www.w3.org/Graphics/SVG/1.1/DTD/svg11.dtd">
<svg xmlns="http://www.w3.org/2000/svg" xmlns:xlink="http://www.w3.org/1999/xlink" version="1.1" id="Capa_1" x="0px" y="0px" width="512px" height="512px" viewBox="0 0 45.891 45.891" style="enable-background:new 0 0 45.891 45.891;" xml:space="preserve">
<g>
	<path d="M32.987,11.471h-4.073V2.25c0-1.239-0.991-2.25-2.229-2.25h-7.48c-1.24,0-2.23,1.011-2.23,2.25v9.221h-4.073   c-1.613,0-2.92,1.307-2.92,2.92v27.08c0,1.613,1.308,2.92,2.92,2.92h2.126c0.221,0.861,1.002,1.5,1.933,1.5   c0.931,0,1.712-0.639,1.933-1.5h8.104c0.221,0.861,1.004,1.5,1.934,1.5c0.931,0,1.713-0.639,1.934-1.5h2.125   c1.613,0,2.92-1.307,2.92-2.92v-27.08C35.907,12.777,34.601,11.471,32.987,11.471z M19.958,5.388c0-0.493,0.394-0.909,0.887-0.909   h4.198c0.493,0,0.887,0.416,0.887,0.909v6.083h-5.973V5.388H19.958z M31.921,20.428H13.966c-0.826,0-1.496-0.666-1.496-1.494   c0-0.826,0.67-1.492,1.496-1.492h17.955c0.827,0,1.496,0.666,1.496,1.492C33.417,19.762,32.747,20.428,31.921,20.428z" fill="#1d606b"/>
</g>
<g>
</g>
<g>
</g>
<g>
</g>
<g>
</g>
<g>
</g>
<g>
</g>
<g>
</g>
<g>
</g>
<g>
</g>
<g>
</g>
<g>
</g>
<g>
</g>
<g>
</g>
<g>
</g>
<g>
</g>
</svg>
