<?xml version="1.0" encoding="iso-8859-1"?>
<!-- Generator: Adobe Illustrator 19.0.0, SVG Export Plug-In . SVG Version: 6.00 Build 0)  -->
<svg xmlns="http://www.w3.org/2000/svg" xmlns:xlink="http://www.w3.org/1999/xlink" version="1.1" id="Capa_1" x="0px" y="0px" viewBox="0 0 512 512" style="enable-background:new 0 0 512 512;" xml:space="preserve" width="512px" height="512px">
<g>
	<g>
		<path d="M464,0h-64c-8.832,0-16,7.168-16,16v51.136L254.208,96H192c-8.832,0-16,7.168-16,16v48H48c-8.832,0-16,7.168-16,16    c0,55.936,24.544,108.192,65.248,144H48c-8.832,0-16,7.168-16,16v160c0,8.832,7.168,16,16,16h352c8.832,0,16-7.168,16-16V336    c0-8.832-7.168-16-16-16h-49.248C391.456,284.192,416,231.936,416,176c0-8.832-7.168-16-16-16H272v-35.136L401.792,96H464    c8.832,0,16-7.168,16-16V16C480,7.168,472.832,0,464,0z M208,128h32v32h-32V128z M384,352v128H64V352H384z M382.848,192    c-5.568,55.168-39.392,104-89.856,128H155.04c-50.496-24-84.288-72.832-89.888-128H192h64H382.848z M448,64h-32V32h32V64z" fill="#1D606B"/>
	</g>
</g>
<g>
	<g>
		<path d="M256,416h-64c-8.832,0-16,7.168-16,16c0,8.832,7.168,16,16,16h64c8.832,0,16-7.168,16-16C272,423.168,264.832,416,256,416    z" fill="#1D606B"/>
	</g>
</g>
<g>
</g>
<g>
</g>
<g>
</g>
<g>
</g>
<g>
</g>
<g>
</g>
<g>
</g>
<g>
</g>
<g>
</g>
<g>
</g>
<g>
</g>
<g>
</g>
<g>
</g>
<g>
</g>
<g>
</g>
</svg>
