<?xml version="1.0" encoding="utf-8"?>
<!-- Generator: Adobe Illustrator 16.0.0, SVG Export Plug-In . SVG Version: 6.00 Build 0)  -->
<!DOCTYPE svg PUBLIC "-//W3C//DTD SVG 1.1//EN" "http://www.w3.org/Graphics/SVG/1.1/DTD/svg11.dtd">
<svg version="1.1" id="Layer_1" xmlns="http://www.w3.org/2000/svg" xmlns:xlink="http://www.w3.org/1999/xlink" x="0px" y="0px"
	 width="1920px" height="250px" viewBox="0 0 1920 250" enable-background="new 0 0 1920 250" xml:space="preserve">
<g opacity="0.15">
	<path fill="#4A4A4A" d="M1864.015,43.956c0-0.711-0.557-1.268-1.123-1.268c-1.391,0-1.112,2.514-1.112,3.492h-5.584
		c0-0.979,0.278-3.492-1.111-3.492c-0.701,0-1.258,0.557-1.258,1.268v2.492c0,0.712,0.557,1.268,1.258,1.268h7.674
		c0.701,0,1.258-0.556,1.258-1.268L1864.015,43.956L1864.015,43.956z M1850.612,18.708h16.616c0.556,0,1.111,0.422,1.111,1.112l0,0
		c0,0.556-0.557,0.979-1.111,0.979h-16.616c-0.558,0-0.98-0.423-0.98-0.979l0,0C1849.632,19.13,1850.056,18.708,1850.612,18.708
		L1850.612,18.708z M1850.612,22.067h16.616c0.277,0,0.556,0.133,0.834,0.267c0.146,0.134,0.277,0.423,0.277,0.689
		c0,0.289-0.133,0.579-0.277,0.845c-0.278,0.135-0.557,0.268-0.834,0.268h-16.616c-0.279,0-0.558-0.133-0.701-0.268
		c-0.279-0.266-0.412-0.556-0.412-0.845c0-0.267,0.133-0.556,0.412-0.689C1850.056,22.2,1850.333,22.067,1850.612,22.067
		L1850.612,22.067z M1850.612,25.403h16.616c0.277,0,0.556,0.134,0.834,0.268c0.146,0.156,0.277,0.422,0.277,0.712
		c0,0.289-0.133,0.556-0.277,0.823c-0.278,0.155-0.557,0.289-0.834,0.289h-16.616c-0.279,0-0.558-0.134-0.701-0.289
		c-0.279-0.268-0.412-0.534-0.412-0.823c0-0.29,0.133-0.556,0.412-0.712C1850.056,25.537,1850.333,25.403,1850.612,25.403
		L1850.612,25.403z M1850.612,28.741h16.616c0.277,0,0.556,0,0.834,0.289c0.146,0.133,0.277,0.422,0.277,0.688
		c0,0.289-0.133,0.556-0.277,0.846c-0.278,0.133-0.557,0.266-0.834,0.266h-16.616c-0.279,0-0.558-0.133-0.701-0.266
		c-0.279-0.29-0.412-0.557-0.412-0.846c0-0.268,0.133-0.557,0.412-0.688C1850.056,28.741,1850.333,28.741,1850.612,28.741
		L1850.612,28.741z M1869.454,38.218h-20.935c-0.145,0-0.276,0-0.276,0.155c-0.146,0-0.146,0.134-0.146,0.267v13.125
		c0,0.134,0,0.268,0.146,0.268c0,0.133,0.133,0.133,0.276,0.133h20.935c0,0,0.145,0,0.289-0.133c0,0,0-0.134,0-0.268V38.64
		c0-0.133,0-0.267,0-0.267C1869.599,38.218,1869.454,38.218,1869.454,38.218L1869.454,38.218z M1848.521,36.282h20.934
		c0.555,0,1.256,0.267,1.68,0.689c0.41,0.422,0.699,0.979,0.699,1.668v13.125c0,0.689-0.289,1.246-0.699,1.668
		c-0.424,0.424-1.125,0.69-1.68,0.69h-20.934c-0.701,0-1.259-0.267-1.681-0.69c-0.422-0.422-0.701-0.979-0.701-1.668V38.64
		c0-0.689,0.279-1.246,0.701-1.668C1847.263,36.549,1847.819,36.282,1848.521,36.282L1848.521,36.282z M1850.612,31.966h16.616
		c0.277,0,0.556,0.134,0.834,0.4c0.146,0.134,0.277,0.424,0.277,0.713c0,0.266-0.133,0.556-0.277,0.689
		c-0.278,0.289-0.557,0.422-0.834,0.422h-16.616c-0.279,0-0.558-0.133-0.701-0.422c-0.279-0.134-0.412-0.424-0.412-0.689
		c0-0.289,0.133-0.579,0.412-0.713C1850.056,32.1,1850.333,31.966,1850.612,31.966L1850.612,31.966z"/>
</g>
<g opacity="0.15">
	<path fill="#4A4A4A" d="M1776.52,72.595h-5.017V71.35h5.017V72.595z M1776.386,60.472h-4.75v-0.979h4.75V60.472z M1776.52,48.482
		h-5.017v-1.113h5.017V48.482z M1789.222,66.323h-30.432v11.301h30.432V66.323z M1776.808,72.751h-5.448v-1.535h5.448V72.751z
		 M1789.222,65.632h-30.432v-11.3h30.432V65.632z M1776.808,60.761h-5.448v-1.535h5.448V60.761z M1789.222,53.509h-30.432V42.208
		h30.432V53.509z M1776.808,48.637h-5.448v-1.534h5.448V48.637z"/>
</g>
<g opacity="0.15">
	<path fill="#4A4A4A" d="M1663.131,66.633h-3.492v-0.822h3.492V66.633z M1662.998,58.135h-3.359v-0.689h3.359V58.135z
		 M1663.131,49.772h-3.492v-0.824h3.492V49.772z M1671.918,62.318h-21.223v7.809h21.223V62.318z M1663.264,66.79h-3.758v-1.135
		h3.758V66.79z M1671.918,61.762h-21.223v-7.941h21.223V61.762z M1663.264,58.27h-3.758v-0.957h3.758V58.27z M1671.918,53.264
		h-21.223v-7.809h21.223V53.264z M1663.264,49.905h-3.758v-1.111h3.758V49.905z M1671.918,34.711v9.633
		c0,0.266-0.133,0.556-0.557,0.556h-20.088c-0.289,0-0.578-0.29-0.578-0.556v-9.633H1671.918z M1669.271,36.668h1.11
		c0,1.246,0,1.113,0,2.358c0.424,0.155,0.568,0.423,0.568,0.845v4.473h-2.236c0-1.958,0-3.627,0-4.604
		c0-0.289,0.269-0.557,0.558-0.712V36.668z M1665.912,36.668h1.123c0,1.246,0,1.113,0,2.358c0.412,0.155,0.566,0.423,0.566,0.845
		v4.473h-2.246c0-1.958,0-3.627,0-4.604c0-0.289,0.289-0.557,0.557-0.712V36.668L1665.912,36.668z M1662.574,36.668h1.113
		c0,1.246,0,1.113,0,2.358c0.422,0.155,0.557,0.423,0.557,0.845v4.473h-2.225c0-1.958,0-3.627,0-4.604
		c0-0.289,0.266-0.557,0.555-0.712V36.668L1662.574,36.668z M1659.215,36.668h1.113c0,1.246,0,1.113,0,2.358
		c0.289,0.155,0.566,0.423,0.566,0.845v4.473h-2.234c0-1.958,0-3.627,0-4.604c0-0.289,0.289-0.557,0.555-0.712V36.668
		L1659.215,36.668z M1655.879,36.668h1.111c0,1.246,0,1.113,0,2.358c0.268,0.155,0.557,0.423,0.557,0.845v4.473h-2.234
		c0-1.958,0-3.627,0-4.604c0-0.289,0.277-0.557,0.566-0.712V36.668z M1652.52,36.668h1.113c0,1.246,0,1.113,0,2.358
		c0.289,0.155,0.556,0.423,0.556,0.845v4.473h-2.226c0-1.958,0-3.627,0-4.604c0-0.289,0.135-0.557,0.558-0.712L1652.52,36.668
		L1652.52,36.668z"/>
</g>
<g opacity="0.15">
	<path fill="#4A4A4A" d="M489.713,109.705h3.069c-0.968-0.424-1.669-1.246-1.669-2.358V94.933c0-1.401,1.112-2.514,2.503-2.514
		h12.435c1.392,0,2.515,1.112,2.515,2.514v12.413c0,1.112-0.699,2.091-1.681,2.358h3.07c0.701,0,1.268,0.556,1.268,1.268l0,0
		c0,0.689-0.565,1.246-1.268,1.246h-20.242c-0.701,0-1.258-0.557-1.258-1.246l0,0C488.456,110.26,489.012,109.705,489.713,109.705
		L489.713,109.705z M494.885,94.087h10.056c1.11,0,2.092,0.846,2.092,2.092v10.032c0,1.135-0.98,2.113-2.092,2.113l-10.056-0.134
		c-1.269,0-2.103-0.845-2.103-1.979V96.179C492.783,94.933,493.617,94.087,494.885,94.087L494.885,94.087z M502.002,124.63h-3.914
		v-0.556h3.914V124.63z M502.137,117.089h-4.183V116.4h4.183V117.089z M512.614,127.834h-25.271v-6.962h25.271V127.834z
		 M502.282,124.764h-4.461v-0.823h4.461V124.764z M512.614,120.316h-25.271v-7.119h25.271V120.316z M502.282,117.246h-4.461v-0.979
		h4.461V117.246z"/>
</g>
<g opacity="0.15">
	<path fill="#4A4A4A" d="M347.513,146.255h-2.646v-0.712h2.646V146.255z M347.513,139.691h-2.646v-0.556h2.646V139.691z
		 M347.513,133.13h-2.646v-0.534h2.646V133.13z M354.354,142.896h-16.327v6.006h16.327V142.896z M347.658,146.389h-2.938v-0.846
		h2.938V146.389z M354.354,142.473h-16.327v-6.139h16.327V142.473z M347.658,139.826h-2.938v-0.823h2.938V139.826z M323.778,123.787
		c0.145,0,0.422,0.289,0.422,0.557c0,0.289-0.277,0.578-0.422,0.578c-0.279,0-0.425-0.289-0.425-0.578
		C323.354,124.076,323.499,123.787,323.778,123.787L323.778,123.787z M349.604,123.787c0.146,0,0.424,0.289,0.424,0.557
		c0,0.289-0.278,0.578-0.424,0.578c-0.276,0-0.41-0.289-0.41-0.578C349.193,124.076,349.327,123.787,349.604,123.787
		L349.604,123.787z M348.625,120.184h5.729v8.498h-5.729V120.184z M349.604,123.653c0.289,0,0.424,0.29,0.424,0.69
		c0,0.444-0.135,0.711-0.424,0.711c-0.276,0-0.556-0.267-0.556-0.711C349.048,123.943,349.327,123.653,349.604,123.653
		L349.604,123.653z M318.895,120.184h5.718v8.498h-5.718V120.184z M323.778,123.653c0.276,0,0.422,0.29,0.422,0.69
		c0,0.444-0.146,0.711-0.422,0.711c-0.279,0-0.558-0.267-0.558-0.711C323.221,123.943,323.499,123.653,323.778,123.653
		L323.778,123.653z M318.895,148.902h17.862v-8.787h-17.862V148.902z M321.264,141.783h-1.258l1.402,5.984h1.256L321.264,141.783z
		 M329.083,141.783h-1.401l1.535,5.984h1.27L329.083,141.783z M327.136,141.783h-1.4l1.534,5.984h1.258L327.136,141.783z
		 M325.178,141.783h-1.399l1.534,5.984h1.257L325.178,141.783z M323.221,141.783h-1.4l1.533,5.984h1.259L323.221,141.783z
		 M354.354,135.934h-16.327v-6.141h16.327V135.934z M347.658,133.285h-2.938v-0.846h2.938V133.285z M318.895,129.793h17.862v8.921
		h-17.862V129.793z M334.388,131.328h1.257l-1.534,6.006h-1.257L334.388,131.328z M326.569,131.328h1.268l-1.399,6.006h-1.402
		L326.569,131.328z M328.527,131.328h1.257l-1.402,6.006h-1.39L328.527,131.328z M330.485,131.328h1.256l-1.4,6.006h-1.401
		L330.485,131.328z M332.442,131.328h1.245l-1.534,6.006h-1.246L332.442,131.328z M325.178,120.184h23.035v8.498h-23.035V120.184z
		 M346.124,121.429h1.245l-1.391,5.984h-1.401L346.124,121.429z M334.11,121.429h-1.392l1.535,5.984h1.258L334.11,121.429z
		 M332.153,121.429h-1.402l1.547,5.984h1.257L332.153,121.429z M330.206,121.429h-1.4l1.535,5.984h1.256L330.206,121.429z
		 M328.249,121.429h-1.401l1.534,5.984h1.258L328.249,121.429z M338.303,121.429h1.392l-1.535,5.984h-1.256L338.303,121.429z
		 M340.25,121.429h1.4l-1.534,5.984h-1.257L340.25,121.429z M342.208,121.429h1.402l-1.535,5.984h-1.402L342.208,121.429z
		 M344.166,121.429h1.257l-1.402,5.984h-1.39L344.166,121.429z"/>
</g>
<g opacity="0.15">
	<path fill="#4A4A4A" d="M232.907,136.979h2.514v3.625h-2.514V136.979L232.907,136.979z M208.749,136.979h2.658v3.625h-2.658
		V136.979z M222.574,105.188c6.151,0,11.445,5.027,12.569,11.723h-3.627v11.7h-17.874v-11.7h-3.626
		C211.129,110.216,216.29,105.188,222.574,105.188L222.574,105.188z M232.63,117.891h7.396v11.701v5.719v0.979h-34.904v-0.979
		v-5.719v-11.701h7.397v11.701h20.11L232.63,117.891L232.63,117.891z"/>
</g>
<g opacity="0.15">
	<path fill="#4A4A4A" d="M95.62,125.311v-13.947c0-0.268-0.278-0.557-0.556-0.557h-0.278c-0.278,0-0.567,0.289-0.567,0.557v0.979
		H83.896v-0.979c0-0.268-0.277-0.557-0.556-0.557h-0.278c-0.422,0-0.701,0.289-0.701,0.557v13.947h1.535v-9.766h10.322v9.766H95.62z
		 M83.896,113.453h10.322v0.979H83.896V113.453z M81.238,131.852v13.814c0,0.289-0.277,0.557-0.557,0.557h-0.277
		c-0.278,0-0.423-0.268-0.423-0.557v-13.814H81.238z M92.828,131.852v8.098c0,0.289-0.277,0.556-0.556,0.556h-0.278
		c-0.277,0-0.422-0.267-0.422-0.556v-8.098H92.828z M85.988,131.852v8.098c0,0.289-0.278,0.556-0.557,0.556h-0.277
		c-0.279,0-0.424-0.267-0.424-0.556v-8.098H85.988z M98.279,131.852v13.814c0,0.289-0.146,0.557-0.424,0.557h-0.277
		c-0.278,0-0.557-0.268-0.557-0.557v-13.814H98.279z M82.216,126.156h13.826c0.277,0,0.557,0,0.557,0.133l2.925,4.738
		c0,0.134-0.278,0.134-0.556,0.134H79.425c-0.412,0-0.689,0-0.689-0.134l2.925-4.738C81.661,126.156,81.939,126.156,82.216,126.156
		L82.216,126.156z"/>
</g>
<g opacity="0.15">
	<path fill="#4A4A4A" d="M1290.051,156.874h23.447v-5.294c-0.689-0.289-1.113-0.846-1.113-1.402v-0.133
		c0-0.846,0.689-1.535,1.535-1.535h2.381c0.822,0,1.392,0.689,1.392,1.535v0.133c0,0.557-0.279,1.113-0.834,1.27v15.326
		c0.133,0,0.266,0.134,0.409,0.134l0,0c0.425,0.288,0.568,0.557,0.568,0.846l0,0c0,0.269-0.145,0.688-0.568,0.823
		c-0.145,0.154-0.276,0.154-0.409,0.289v2.091c0.555,0.134,0.834,0.688,0.834,1.246v0.133c0,0.847-0.568,1.535-1.392,1.535h-2.381
		c-0.846,0-1.535-0.688-1.535-1.535v-0.133c0-0.558,0.424-1.112,1.113-1.379v-1.824h-3.07v0.558c0,0.422-0.276,0.711-0.557,0.979
		l0,0c-0.133,0.289-0.555,0.422-0.979,0.422H1294.1c-0.422,0-0.688-0.133-0.979-0.422l0,0c-0.289-0.268-0.424-0.557-0.424-0.979
		v-0.558h-2.646v1.957c0.558,0.134,0.979,0.688,0.979,1.246v0.133c0,0.847-0.701,1.535-1.535,1.535h-2.379
		c-0.691,0-1.392-0.688-1.392-1.535v-0.133c0-0.558,0.41-1.112,0.968-1.379v-1.958c-0.134-0.135-0.269-0.135-0.4-0.289l0,0
		c-0.434-0.135-0.566-0.557-0.566-0.823l0,0c0-0.289,0.134-0.558,0.566-0.846l0,0c0.133,0,0.268-0.134,0.4-0.134V151.58
		c-0.558-0.289-0.968-0.846-0.968-1.402v-0.133c0-0.846,0.699-1.535,1.392-1.535h2.379c0.834,0,1.535,0.689,1.535,1.535v0.133
		c0,0.557-0.422,1.113-0.979,1.27V156.874z M1294.367,159.1v7.519h2.522V159.1H1294.367z M1292.832,166.617v-7.52h-2.781v7.52
		H1292.832z M1298.281,159.1v7.519h2.514V159.1H1298.281z M1302.33,159.1v7.519h2.381V159.1H1302.33z M1306.246,159.1v7.519h2.514
		V159.1H1306.246z M1310.295,159.1v7.519h3.203V159.1H1310.295z"/>
</g>
<g opacity="0.15">
	<path fill="#4A4A4A" d="M1217.449,114.291h19.678c0.277,0,0.566,0.289,0.566,0.579v0.956c0,0.289-0.289,0.423-0.566,0.423h-0.412
		v18.397v0.289h-0.289h-18.287h-0.276v-0.289v-18.397h-0.412c-0.289,0-0.556-0.134-0.556-0.423v-0.956
		C1216.895,114.58,1217.16,114.291,1217.449,114.291L1217.449,114.291z M1219.809,131.732h1.123v2.514h0.277v-3.07h1.113v3.07h0.154
		v-2.514h0.557v2.514h0.133v-3.359h0.846v3.359h0.269v-2.938h1.11v0.689h0.98v2.247l0,0v-2.67h0.711v2.67l0,0v-3.359h1.246v3.359
		h0.289v-1.824h0.688v1.824h0.277v-2.804h0.701v2.804h0.289v-2.247h0.823v2.247l0,0v-2.381h0.979v-0.979h1.399v3.359h0.136v-2.67
		h0.701v2.67h0.145v-3.07h1.111v3.07h0.289v-5.316h-17.73v5.316h0.135v-1.268h1.246v1.268l0,0L1219.809,131.732L1219.809,131.732z
		 M1234.758,125.036h0.979v2.914h0.422v-5.272h-17.73v5.272h0.97v-1.802h1.256v1.802h0.135v-2.914h1.268v2.914h0.269v-2.358h0.711
		v2.358h0.133v-3.337h0.846v0.423h0.689v2.914h0.424v-2.069h1.246v2.069l0,0v-2.491h0.555v2.491h0.156v-3.203h1.246v3.203h4.049
		v-3.203h1.4v3.203h0.135v-2.491h0.565v2.491h0.279v-2.914H1234.758z M1233.645,118.207h1.392v3.471h1.123v-5.429h-17.73v5.429
		h0.824v-3.049h1.269v3.049h0.133v-2.647h1.113v2.647h0.422v-2.915h0.688v2.915l0,0v-2.647h0.98v2.647h0.153v-2.915h1.113v2.915
		h0.266v-2.069h1.125v2.069h0.277v-2.647h0.566v2.647h0.412v-3.471h1.268v3.471h0.268v-2.515h0.701v-0.267h0.701v2.781h0.133v-1.38
		h1.269v1.38h0.268v-2.515h1.123v2.515h0.146v-3.47H1233.645z"/>
</g>
<g opacity="0.15">
	<path fill="#4A4A4A" d="M1035.377,130.977h31.412c0.566,0,1.111,0.133,1.535,0.556l0,0c0.41,0.423,0.699,0.823,0.699,1.401l0,0
		c0,0.557-0.289,1.111-0.699,1.535c-0.279,0.266-0.834,0.555-1.258,0.555v18.531v0.713h-0.701h-13.259h-0.7v-0.713v-18.531h-13.959
		v18.664h-2.791v-18.664h-0.279c-0.566,0-1.123-0.289-1.533-0.555l0,0c-0.412-0.424-0.701-0.979-0.701-1.535l0,0
		c0-0.578,0.289-0.979,0.701-1.401l0,0C1034.254,131.109,1034.811,130.977,1035.377,130.977L1035.377,130.977z M1039.281,136.003
		h12.291v2.78h-12.291V136.003z M1059.67,148.549c0.557,0,0.979,0.268,0.979,0.824s-0.423,0.979-0.979,0.979
		c-0.422,0-0.834-0.422-0.834-0.979S1059.248,148.549,1059.67,148.549L1059.67,148.549z M1059.67,142.41
		c0.557,0,0.979,0.422,0.979,0.822c0,0.578-0.423,0.979-0.979,0.979c-0.422,0-0.834-0.4-0.834-0.979
		C1058.836,142.832,1059.248,142.41,1059.67,142.41L1059.67,142.41z M1059.67,136.003c0.557,0,0.979,0.399,0.979,0.956
		c0,0.579-0.423,0.846-0.979,0.846c-0.422,0-0.834-0.267-0.834-0.846C1058.836,136.402,1059.248,136.003,1059.67,136.003
		L1059.67,136.003z M1053.809,146.436h11.857v-4.449h-11.857V146.436z M1065.666,147.838h-11.857v5.027h11.857V147.838z
		 M1053.809,140.607h11.857v-5.316h-11.857V140.607z"/>
</g>
<g opacity="0.15">
	<path fill="#4A4A4A" d="M932.104,130.42h16.884h0.713v0.846v21.467v0.689h-0.713h-16.884h-0.7v-0.689v-21.467v-0.846H932.104z
		 M939.076,140.741L939.076,140.741c0.135,0,0.279,0.134,0.279,0.267v1.958c0,0.134-0.146,0.267-0.279,0.267l0,0
		c-0.146,0-0.277-0.133-0.277-0.267v-1.958C938.799,140.875,938.932,140.741,939.076,140.741L939.076,140.741z M942.002,140.741
		L942.002,140.741c0.146,0,0.289,0.134,0.289,0.267v1.958c0,0.134-0.145,0.267-0.289,0.267l0,0c-0.133,0-0.277-0.133-0.277-0.267
		v-1.958C941.725,140.875,941.869,140.741,942.002,140.741L942.002,140.741z M946.051,153.688h1.813v1.002h-1.813V153.688z
		 M933.349,153.688h1.824v1.002h-1.824V153.688z M941.313,131.954v19.933h6.841v-19.933H941.313z M939.777,151.887v-19.933h-6.984
		v19.933H939.777z"/>
</g>
<g opacity="0.15">
	<path fill="#4A4A4A" d="M843.477,132.354v21.758v0.711h-0.688H817.65h-0.69v-0.711v-21.758h-0.289
		c-0.411,0-0.834-0.399-0.834-0.822v-0.422c0-0.424,0.423-0.846,0.834-0.846h26.673c0.557,0,0.835,0.422,0.835,0.846v0.422
		C844.178,131.954,843.898,132.354,843.477,132.354L843.477,132.354z M829.239,147.838h1.958c0.276,0,0.411,0.289,0.411,0.557v0.422
		c0,0.289-0.135,0.558-0.411,0.558h-1.958c-0.278,0-0.557-0.269-0.557-0.558v-0.422
		C828.684,148.127,828.961,147.838,829.239,147.838L829.239,147.838z M818.205,145.88h23.881v-5.694h-23.881V145.88z
		 M842.086,147.281h-23.881v6.273h23.881V147.281z M829.239,140.607h1.958c0.276,0,0.411,0.268,0.411,0.533v0.557
		c0,0.289-0.135,0.424-0.411,0.424h-1.958c-0.278,0-0.557-0.135-0.557-0.424v-0.557
		C828.684,140.875,828.961,140.607,829.239,140.607L829.239,140.607z M829.239,133.334h1.958c0.276,0,0.411,0.289,0.411,0.557v0.578
		c0,0.266-0.135,0.4-0.411,0.4h-1.958c-0.278,0-0.557-0.135-0.557-0.4v-0.578C828.684,133.623,828.961,133.334,829.239,133.334
		L829.239,133.334z M818.205,138.783h23.881V132.8h-23.881V138.783z"/>
</g>
<g opacity="0.15">
	<path fill="#4A4A4A" d="M730.857,134.18v18.264v0.845h-0.7h-21.211H708.1v-0.845v-18.265h-1.123c-0.546,0-0.968-0.423-0.968-0.979
		v-0.4c0-0.579,0.422-1.001,0.968-1.001h24.993c0.422,0,0.845,0.422,0.845,1.001v0.4c0,0.556-0.423,0.979-0.845,0.979
		L730.857,134.18L730.857,134.18z M718.434,143.945h2.236c0.277,0,0.557,0.266,0.557,0.556v0.688c0,0.289-0.278,0.557-0.557,0.557
		h-2.236c-0.276,0-0.556-0.268-0.556-0.557v-0.688C717.878,144.211,718.156,143.945,718.434,143.945L718.434,143.945z
		 M718.434,135.425h2.236c0.277,0,0.557,0.155,0.557,0.578v0.556c0,0.269-0.278,0.534-0.557,0.534h-2.236
		c-0.276,0-0.556-0.267-0.556-0.534v-0.556C717.878,135.58,718.156,135.425,718.434,135.425L718.434,135.425z M709.636,141.432
		h19.821v-6.83h-19.821V141.432z M729.457,142.966h-19.821v8.787h19.821V142.966z"/>
</g>
<g opacity="0.15">
	<path fill="#4A4A4A" d="M204.355,197.516v18.265v0.845h-0.7h-21.211h-0.846v-0.845v-18.265h-1.123
		c-0.546,0-0.968-0.423-0.968-0.979v-0.4c0-0.578,0.422-1.001,0.968-1.001h24.993c0.422,0,0.845,0.423,0.845,1.001v0.4
		c0,0.556-0.423,0.979-0.845,0.979H204.355z M191.931,207.282h2.236c0.277,0,0.556,0.266,0.556,0.556v0.689
		c0,0.289-0.278,0.556-0.556,0.556h-2.236c-0.277,0-0.556-0.267-0.556-0.556v-0.689
		C191.375,207.548,191.654,207.282,191.931,207.282L191.931,207.282z M191.931,198.762h2.236c0.277,0,0.556,0.155,0.556,0.578v0.557
		c0,0.268-0.278,0.533-0.556,0.533h-2.236c-0.277,0-0.556-0.267-0.556-0.533v-0.557
		C191.375,198.917,191.654,198.762,191.931,198.762L191.931,198.762z M183.133,204.768h19.821v-6.828h-19.821V204.768z
		 M202.955,206.303h-19.821v8.787h19.821V206.303z"/>
</g>
<g opacity="0.15">
	<polygon fill="#4A4A4A" points="594.626,132.354 622.266,132.51 625.48,141.986 622.689,141.986 622.689,152.73 619.896,152.73 
		619.896,141.986 618.918,141.986 618.918,151.041 616.127,151.041 616.127,141.986 601.744,141.986 601.744,151.197 
		598.953,151.197 598.953,141.986 597.975,141.986 597.975,152.73 595.182,152.73 595.182,141.986 592.112,141.986 	"/>
</g>
<g opacity="0.15">
	<path fill="#4A4A4A" d="M1857.982,123.108h9.344h3.068h0.557c0.434,0,0.713,0.423,0.713,0.823v1.535
		c0,0.423-0.279,0.845-0.713,0.845h-0.557v11.301h-3.068v-4.049h-9.344v4.049h-3.215v-23.156c0-0.823,0.7-1.401,1.534-1.401h0.277
		c0.701,0,1.402,0.578,1.402,1.401L1857.982,123.108L1857.982,123.108z M1867.326,132.027v-5.717h-9.344v5.717H1867.326z"/>
</g>
<g opacity="0.15">
	<path fill="#4A4A4A" d="M1735.267,120.356h26.104v7.119h-26.104V120.356z M1749.358,130.68h7.817v2.668h-7.817V130.68z
		 M1739.313,130.68h7.677v2.668h-7.677V130.68z M1732.751,145.738l30.988,0.289v4.183l-30.988-0.289V145.738z M1734.987,129.299
		h26.526l2.359,15.194c-9.211,0-21.768-0.29-30.988-0.29C1733.587,139.332,1734.286,134.305,1734.987,129.299L1734.987,129.299z"/>
</g>
<g opacity="0.15">
	<path fill="#4A4A4A" d="M1622.546,123.589v4.873h17.996v-4.873h2.246v20.354h-2.246v-2.937h-17.996v2.937h-2.092v-20.354H1622.546z
		 M1626.595,133.489c0.689,0,1.246,0.556,1.246,1.245c0,0.845-0.557,1.4-1.246,1.4c-0.688,0-1.401-0.557-1.401-1.4
		C1625.192,134.045,1625.905,133.489,1626.595,133.489L1626.595,133.489z M1629.665,133.622h8.785v4.049h-8.652h-0.133h-5.162
		v-1.246h5.162V133.622z M1626.595,123.3c0.689,0,1.246,0.578,1.246,1.402c0,0.689-0.557,1.245-1.246,1.245
		c-0.688,0-1.401-0.556-1.401-1.245C1625.192,123.878,1625.905,123.3,1626.595,123.3L1626.595,123.3z M1629.665,123.434h8.785v4.205
		h-8.652h-0.133h-5.162v-1.269h5.162V123.434z M1622.546,130.552v8.231h17.996v-8.231H1622.546z"/>
</g>
<g opacity="0.15">
	<path fill="#4A4A4A" d="M1549.839,116.123h2.938v11.855h18.151v-11.855h2.926c1.681,0,3.068,1.134,3.068,2.38v15.192h-5.994l0,0
		c0,0-0.145,0-0.289,0h-17.862h-0.701h-5.306v-15.192C1546.77,117.257,1548.159,116.123,1549.839,116.123L1549.839,116.123z
		 M1570.504,134.253h2.092c0.558,0,0.847,0.423,0.847,0.712l0,0c0,0.424-0.289,0.69-0.847,0.69h-2.092
		c-0.422,0-0.834-0.269-0.834-0.69l0,0C1569.67,134.676,1570.082,134.253,1570.504,134.253L1570.504,134.253z M1550.395,134.409
		h2.236c0.422,0,0.834,0.267,0.834,0.688l0,0c0,0.289-0.412,0.558-0.834,0.558h-2.236c-0.41,0-0.688-0.269-0.688-0.558l0,0
		C1549.705,134.676,1549.983,134.409,1550.395,134.409L1550.395,134.409z M1554.032,126.579h15.771v1.134h-15.771V126.579z
		 M1557.791,113.898h8.242c2.092,0,3.771,1.401,3.771,3.069v6.141c0,1.802-1.68,3.203-3.771,3.203h-8.242
		c-2.09,0-3.759-1.4-3.759-3.203v-6.141C1554.032,115.3,1555.701,113.898,1557.791,113.898L1557.791,113.898z"/>
</g>
<g opacity="0.15">
	<path fill="#4A4A4A" d="M880.167,216.404c-0.412-0.422-0.412-0.979-0.412-0.979l-0.145-2.225h9.364
		c0.558,0,1.113-0.289,1.113-0.822v-15.217c0-0.556-0.557-0.956-1.113-0.956h-24.157c-0.558,0-1.113,0.4-1.113,0.956v15.217
		c0,0.533,0.557,0.822,1.113,0.822h9.354l-0.145,2.225c0,0-0.134,0.558-0.556,0.847v0.133h-1.813c-0.699,0-1.256,0.557-1.256,1.269
		v1.245h12.989v-1.245c0-0.712-0.565-1.269-1.268-1.269H880.167z M888.409,210.421L888.409,210.421h-23.035v-12.546h23.035V210.421z
		"/>
</g>
<g opacity="0.15">
	<path fill="#4A4A4A" d="M764.056,192.424h4.605c2.233,0,4.049,1.824,4.049,4.049v7.541c0,2.226-1.813,4.027-4.049,4.027h-1.113v1.4
		h4.605c0.145,0,0.422,0.135,0.557,0.557l0,0c0,0.134,0.146,0.289,0.146,0.557c3.069,0,2.368-3.07,2.368-5.717h-0.135
		c-0.276,0-0.41-0.29-0.41-0.424v-0.557c0-0.289,0.134-0.422,0.41-0.422h1.67c0.277,0,0.422,0.133,0.422,0.422v0.557
		c0,0.134-0.145,0.424-0.422,0.424h-0.135c0.135,3.625,0.969,7.385-3.771,7.252c-0.145,0.133-0.145,0.289-0.145,0.422
		c-0.135,0.4-0.412,0.557-0.557,0.557h-5.172v5.984l0,0c1.399,0.155,2.657,0.578,3.913,1.268c0,0.268,0,0.4-0.276,0.558
		c-1.392-0.846-2.646-1.112-3.904-1.246v1.668h-0.145l0,0l-0.134,0.134l0,0v0.135l0,0l-0.145-0.135l0,0l-0.146-0.134l0,0l0,0v-1.668
		c-1.391,0-2.368,0.267-3.771,1.091c-0.269,0-0.412-0.269-0.269-0.558c1.246-0.688,2.369-0.956,3.628-1.11l0,0v-5.984h-5.027
		c-0.277,0-0.557-0.156-0.701-0.557l0,0c0-0.134,0-0.289-0.145-0.423c-4.605,0-3.761-3.76-3.761-7.252h-0.145
		c-0.133,0-0.41-0.29-0.41-0.424v-0.556c0-0.289,0.277-0.424,0.41-0.424h1.813c0.146,0,0.425,0.135,0.425,0.424v0.556
		c0,0.134-0.277,0.424-0.425,0.424h-0.133c0,0.134,0,0.422,0,0.711c-0.145,2.625-0.557,4.449,1.813,5.007c0.145,0,0.278,0,0.412,0
		c0-0.269,0.145-0.424,0.145-0.558l0,0c0.146-0.133,0.146-0.133,0.146-0.133c0.135-0.289,0.278-0.425,0.557-0.425h4.604v-1.399
		h-1.258c-2.092,0-4.049-1.803-4.049-4.026v-7.541C760.007,194.248,761.964,192.424,764.056,192.424L764.056,192.424z
		 M770.063,220.877L770.063,220.877c0.278,0,0.557,0.133,0.557,0.133v0.846c0,0-0.277,0-0.557,0l0,0c-0.146,0-0.423,0-0.423,0
		v-0.846C769.64,221.01,769.917,220.877,770.063,220.877L770.063,220.877z M771.175,220.877L771.175,220.877
		c0.277,0,0.422,0.133,0.422,0.133v0.846c0,0-0.145,0-0.422,0l0,0c-0.278,0-0.412,0-0.412,0v-0.846
		C770.763,221.01,770.896,220.877,771.175,220.877L771.175,220.877z M761.542,220.877L761.542,220.877c0.277,0,0.422,0,0.422,0.133
		v0.689c0,0.156-0.145,0.156-0.422,0.156l0,0c-0.277,0-0.412,0-0.412-0.156v-0.689C761.13,220.877,761.265,220.877,761.542,220.877
		L761.542,220.877z M762.665,220.877L762.665,220.877c0.279,0,0.412,0,0.412,0.133v0.689c0,0.156-0.133,0.156-0.412,0.156l0,0
		c-0.289,0-0.422,0-0.422-0.156v-0.689C762.243,220.877,762.376,220.877,762.665,220.877L762.665,220.877z M765.868,221.566
		L765.868,221.566c0.145,0,0.424,0.133,0.424,0.133v0.712c0,0.134-0.279,0.134-0.424,0.134l0,0c-0.277,0-0.556,0-0.556-0.134v-0.712
		C765.313,221.699,765.591,221.566,765.868,221.566L765.868,221.566z M766.849,221.566L766.849,221.566
		c0.277,0,0.556,0.133,0.556,0.133v0.712c0,0.134-0.277,0.134-0.556,0.134l0,0c-0.135,0-0.411,0-0.411-0.134v-0.712
		C766.438,221.699,766.714,221.566,766.849,221.566L766.849,221.566z"/>
</g>
<g opacity="0.15">
	<path fill="#4A4A4A" d="M1140.459,187.451h9.633c1.681,0,3.213,1.535,3.213,3.204v10.877h-12.846V187.451L1140.459,187.451z
		 M1140.459,216.727h9.633c1.681,0,3.213-1.535,3.213-3.203v-10.744h-12.846V216.727L1140.459,216.727z M1141.994,211.009
		L1141.994,211.009c0.145,0,0.422-0.133,0.422-0.422v-1.803c0-0.289-0.277-0.423-0.422-0.423l0,0c-0.268,0-0.412,0.134-0.412,0.423
		v1.803C1141.582,210.876,1141.727,211.009,1141.994,211.009L1141.994,211.009z M1137.389,211.009L1137.389,211.009
		c0.277,0,0.422-0.133,0.422-0.422v-1.803c0-0.289-0.145-0.423-0.422-0.423l0,0c-0.133,0-0.422,0.134-0.422,0.423v1.803
		C1136.967,210.876,1137.256,211.009,1137.389,211.009L1137.389,211.009z M1139.068,216.727h-9.354c-1.67,0-3.069-1.4-3.069-3.068
		v-10.879h12.424V216.727z M1141.994,193.169L1141.994,193.169c0.145,0,0.422,0.133,0.422,0.422v1.804
		c0,0.289-0.277,0.422-0.422,0.422l0,0c-0.268,0-0.412-0.133-0.412-0.422v-1.804
		C1141.582,193.302,1141.727,193.169,1141.994,193.169L1141.994,193.169z M1137.389,193.169L1137.389,193.169
		c0.277,0,0.422,0.133,0.422,0.422v1.804c0,0.289-0.145,0.422-0.422,0.422l0,0c-0.133,0-0.422-0.133-0.422-0.422v-1.804
		C1136.967,193.302,1137.256,193.169,1137.389,193.169L1137.389,193.169z M1139.068,187.451h-9.354c-1.67,0-3.069,1.4-3.069,3.204
		v10.877h12.424V187.451z"/>
</g>
<g opacity="0.15">
	<path fill="#4A4A4A" d="M651.751,202.46v17.976v0.711h-0.701h-0.422v2.78c0,0.425-0.412,0.847-0.834,0.847h-0.568
		c-0.411,0-0.7-0.422-0.7-0.711v-2.916h-0.134h-0.276h-0.289h-0.279h-0.268h-0.146h-14.381v2.78c0,0.425-0.422,0.847-0.834,0.847
		h-0.557c-0.422,0-0.7-0.422-0.7-0.711v-2.916h-0.423h-0.701v-0.711V202.46h-1.245c-0.566,0-0.99-0.422-0.99-0.845v-0.4
		c0-0.579,0.424-1.001,0.99-1.001h24.425c0.568,0,0.979,0.422,0.979,1.001v0.4c0,0.423-0.41,0.845-0.979,0.845H651.751z
		 M639.449,204.129h2.656c0.279,0,0.701,0.289,0.701,0.689v0.712c0,0.268-0.422,0.557-0.701,0.557h-2.656
		c-0.278,0-0.557-0.289-0.557-0.557v-0.712C638.894,204.418,639.171,204.129,639.449,204.129L639.449,204.129z M639.315,212.916
		h2.657c0.269,0,0.545,0.268,0.545,0.557v0.822c0,0.29-0.276,0.579-0.545,0.579h-2.657c-0.277,0-0.701-0.289-0.701-0.579v-0.822
		C638.614,213.184,639.038,212.916,639.315,212.916L639.315,212.916z M647.546,203.573h-13.959v6.139h13.959V203.573z
		 M647.546,212.359h-13.959v6.14h13.959V212.359z"/>
</g>
<g opacity="0.15">
	<path fill="#4A4A4A" d="M477.146,171.044h6.43l0.133,17.841h-9.064v-15.326C474.644,172.156,475.755,171.044,477.146,171.044
		L477.146,171.044z M491.806,195.447v1.535c0,0.133-0.276,0.267-0.557,0.267l0,0c-0.277,0-0.556-0.134-0.556-0.267v-1.535h-5.862
		v-5.584h9.066v3.203C493.898,194.18,492.929,195.291,491.806,195.447L491.806,195.447z M478.826,195.447v1.535
		c0,0.133-0.146,0.267-0.558,0.267l0,0c-0.276,0-0.422-0.134-0.422-0.267v-1.535h-0.7c-1.392,0-2.503-1.112-2.503-2.381v-3.203
		h9.209v5.584H478.826z M488.458,191.109v-0.269c0,0,0-0.133,0.145-0.133h1.258c0.134,0,0.134,0.133,0.134,0.133v0.269
		c0,0.156,0,0.156-0.134,0.156h-1.258C488.458,191.266,488.458,191.266,488.458,191.109L488.458,191.109z M478.415,191.109v-0.269
		c0,0,0-0.133,0.134-0.133h1.4l0.135,0.133v0.269c0,0.156-0.135,0.156-0.135,0.156h-1.4
		C478.415,191.266,478.415,191.266,478.415,191.109L478.415,191.109z M481.618,179.965h0.7c0.135,0,0.412,0.133,0.412,0.268v3.068
		c0,0.156-0.277,0.289-0.412,0.289h-0.7c-0.134,0-0.423-0.133-0.423-0.289v-3.068C481.195,180.098,481.484,179.965,481.618,179.965
		L481.618,179.965z M486.089,179.831h0.689c0.289,0,0.422,0.134,0.422,0.399v3.069c0,0.156-0.133,0.289-0.422,0.289h-0.689
		c-0.145,0-0.289-0.133-0.289-0.289v-3.069C485.8,179.965,485.945,179.831,486.089,179.831L486.089,179.831z M484.688,171.044h6.706
		c1.392,0,2.505,1.112,2.505,2.515v15.326h-9.066L484.688,171.044z"/>
</g>
<g opacity="0.15">
	<path fill="#4A4A4A" d="M314.095,202.034h10.478v2.38h-10.478V202.034z M338.108,201.078L338.108,201.078
		c0.277,0,0.411-0.135,0.557-0.289c0.289-0.268,0.556-0.689,0.556-1.246l0,0c0-0.423-0.267-0.846-0.556-1.268l0,0
		c-0.412-0.269-0.834-0.4-1.391-0.4h-26.528c-0.423,0-0.979,0.133-1.257,0.4l0,0c-0.411,0.422-0.558,0.845-0.558,1.268l0,0
		c0,0.557,0.146,0.979,0.558,1.246l0,0c0.277,0.289,0.834,0.556,1.257,0.556h0.278v15.772h2.381v-15.772h11.723v5.45v0.557h0.558
		h9.909v9.767h2.515L338.108,201.078L338.108,201.078z M335.595,202.323v1.112h-9.21v-1.112H335.595z M335.595,204.703v1.113h-9.21
		v-1.113H335.595z"/>
</g>
<g opacity="0.15">
	<path fill="#4A4A4A" d="M67.064,196.057h5.438c1.401,0,2.524,1.11,2.524,2.646v5.026c0,1.379-1.123,2.625-2.524,2.625h-5.438
		c-1.535,0-2.648-1.246-2.648-2.625v-5.026C64.416,197.167,65.529,196.057,67.064,196.057L67.064,196.057z M95.404,216.966
		c0.145,0.134,0.145,0.269,0.145,0.423l0,0c0,0.557-0.434,0.956-0.989,0.956h-2.647c-0.557,0-0.968-0.399-0.968-0.956l0,0
		c0-0.154,0.134-0.289,0.134-0.423h-3.492l0,0c-0.145,0-0.145,0-0.279,0H63.292h-0.834h-2.646c0.133,0.134,0.133,0.269,0.133,0.423
		l0,0c0,0.557-0.423,0.956-0.979,0.956h-2.647c-0.567,0-0.979-0.399-0.979-0.956l0,0c0-0.154,0-0.289,0.135-0.423v-13.392
		c0-1.245,1.668-2.225,3.914-2.225h3.904v9.188h1.258c0.133,0.423,0.566,0.712,0.979,0.979c0.556,0.291,1.256,0.424,1.813,0.424
		h4.75c0.7,0,1.256-0.133,1.957-0.424c0.423-0.267,0.689-0.556,0.979-0.979h0.689c0.29,0.423,0.557,0.712,0.979,0.979
		c0.7,0.291,1.257,0.424,1.958,0.424h4.749c0.556,0,1.245-0.133,1.813-0.424c0.422-0.267,0.834-0.556,0.967-0.979h1.402v-9.188
		h4.049c2.09,0,3.914,0.979,3.914,2.225v13.392H95.404z M67.341,206.777h4.75c1.256,0,2.235,0.556,2.235,1.111v2.247
		c0,0.556-0.979,1.112-2.235,1.112h-4.75c-1.257,0-2.225-0.557-2.225-1.112v-2.247C65.117,207.333,66.084,206.777,67.341,206.777
		L67.341,206.777z M78.654,206.777h4.749c1.245,0,2.235,0.556,2.235,1.111v2.247c0,0.556-0.99,1.112-2.235,1.112h-4.749
		c-1.258,0-2.236-0.557-2.236-1.112v-2.247C76.417,207.333,77.396,206.777,78.654,206.777L78.654,206.777z M78.23,196.057h5.451
		c1.535,0,2.646,1.11,2.646,2.646v5.026c0,2.226-1.391,2.358-2.925,2.358h-4.749c-1.535,0-2.938-0.134-2.938-2.358v-5.026
		C75.716,197.167,76.83,196.057,78.23,196.057L78.23,196.057z"/>
</g>
<g opacity="0.15">
	<path fill="#4A4A4A" d="M1854.947,189.701l-8.088-5.584l0,0c0-1.535-1.123-2.647-2.515-2.647c-1.399,0-2.657,1.112-2.657,2.647
		c0,0,0,0,0,0.133l-7.951,5.451h-3.916c-0.847,0-1.668,0.822-1.668,1.668v17.707c0,0.979,0.821,1.669,1.668,1.669h29.03
		c0.845,0,1.679-0.69,1.679-1.669v-17.707c0-0.846-0.834-1.668-1.679-1.668H1854.947z M1837.629,189.701l5.184-3.493
		c0.41,0.289,0.968,0.423,1.533,0.423c0.558,0,1.113-0.134,1.535-0.423l5.162,3.493H1837.629z M1832.201,191.926h24.281
		c0.145,0,0.276,0,0.434,0.133c0.133,0,0.133,0,0.266,0c0.136,0.133,0.279,0.133,0.424,0.289c0.134,0,0.277,0.135,0.277,0.289
		c0.133,0,0.277,0.135,0.277,0.269c0.135,0.133,0.135,0.267,0.291,0.422c0,0,0,0.134,0,0.268c0.133,0.156,0.133,0.289,0.133,0.423
		v12.414c0,0.133,0,0.288-0.133,0.422c0,0.133,0,0.268,0,0.399c-0.156,0.156-0.156,0.289-0.291,0.289
		c0,0.135-0.146,0.289-0.277,0.424c0,0-0.145,0.134-0.277,0.289c-0.145,0-0.288,0.134-0.424,0.134c-0.133,0-0.133,0.133-0.266,0.133
		c-0.156,0-0.289,0-0.434,0h-24.281c-0.156,0-0.156,0-0.289,0c-0.135,0-0.268-0.133-0.424-0.133c-0.133,0-0.268-0.134-0.412-0.134
		c-0.145-0.155-0.145-0.289-0.277-0.289c-0.133-0.135-0.133-0.289-0.289-0.424c-0.133,0-0.133-0.133-0.133-0.289
		c-0.135-0.133-0.135-0.267-0.135-0.399c0-0.134-0.133-0.289-0.133-0.422v-12.414c0-0.134,0.133-0.267,0.133-0.423
		c0-0.134,0-0.268,0.135-0.268c0-0.155,0-0.289,0.133-0.422c0.156-0.134,0.156-0.269,0.289-0.269
		c0.134-0.154,0.134-0.289,0.277-0.289c0.145-0.156,0.279-0.156,0.412-0.289c0.156,0,0.289,0,0.424,0
		C1832.045,191.926,1832.045,191.926,1832.201,191.926L1832.201,191.926z M1856.482,192.771h-24.281l-0.156,0.134
		c-0.133,0-0.133,0-0.268,0l-0.133,0.133c-0.156,0-0.156,0.134-0.289,0.134c0,0.155-0.136,0.155-0.136,0.155
		c0,0.134,0,0.134-0.145,0.268c0,0,0,0.156,0,0.289v0.134v12.414c0,0.133,0,0.133,0,0.288v0.134
		c0.145,0.133,0.145,0.133,0.145,0.268l0.136,0.133c0.133,0.156,0.133,0.156,0.289,0.156c0,0.133,0.133,0.133,0.133,0.133
		c0.135,0,0.135,0.135,0.268,0.135h0.156h24.281h0.145c0.133,0,0.133-0.135,0.289-0.135c0.133,0,0.133,0,0.266-0.133
		c0,0,0,0,0.136-0.156l0.145-0.133c0-0.135,0.146-0.135,0.146-0.268v-0.134c0-0.155,0-0.155,0-0.288v-12.414v-0.134
		c0-0.133,0-0.289,0-0.289c0-0.134-0.146-0.134-0.146-0.268c0,0-0.145,0-0.145-0.155c-0.136,0-0.136-0.134-0.136-0.134
		c-0.133,0-0.133-0.133-0.266-0.133c-0.156,0-0.156,0-0.289,0L1856.482,192.771L1856.482,192.771z"/>
</g>
<g opacity="0.15">
	<path fill="#4A4A4A" d="M1714.556,206.891h-10.043v2.225h10.043V206.891z M1707.159,200.327c-0.277-0.269-0.277-0.558-0.277-0.558
		l-0.145-1.533h5.873c0.412,0,0.834-0.135,0.834-0.401v-9.767c0-0.289-0.422-0.555-0.834-0.555h-15.361
		c-0.276,0-0.701,0.266-0.701,0.555v9.767c0,0.269,0.424,0.401,0.701,0.401h6.006l-0.145,1.533c0,0,0,0.289-0.277,0.558l0,0h-1.256
		c-0.424,0-0.701,0.423-0.701,0.846v0.688h8.242v-0.688c0-0.423-0.279-0.846-0.846-0.846H1707.159z M1712.321,196.566
		L1712.321,196.566h-14.648v-8.073h14.648V196.566z M1691.388,205.911L1691.388,205.911c-0.133,0-0.289-0.134-0.422-0.269
		c-0.279-0.289-0.557-0.711-0.557-1.268l0,0c0-0.423,0.276-0.846,0.557-1.111l0,0c0.289-0.289,0.844-0.557,1.256-0.557h25.549
		c0.425,0,0.847,0.268,1.259,0.557l0,0c0.276,0.266,0.565,0.688,0.565,1.111l0,0c0,0.557-0.289,0.979-0.565,1.268l0,0
		c-0.279,0.269-0.834,0.4-1.259,0.4h-0.276v15.217h-2.236v-15.217h-11.301v5.295v0.578h-0.555h-9.5v9.477h-2.515V205.911
		L1691.388,205.911z M1693.901,207.021v1.113h8.932v-1.113H1693.901z M1693.901,209.271v1.11h8.932v-1.11H1693.901z"/>
</g>
<g opacity="0.15">
	<path fill="#4A4A4A" d="M1620.754,196.664c-0.145-0.133-0.277-0.557-0.277-0.557h-3.625c-0.146,0-0.146,0.289-0.424,0.557l0,0
		h-1.11c-0.424,0-0.847,0.289-0.847,0.846v0.689h8.375v-0.689c0-0.557-0.422-0.846-0.834-0.846H1620.754z M1620.477,195.552v-0.979
		h5.861c0.412,0,0.701-0.134,0.701-0.401v-9.766c0-0.422-0.289-0.711-0.701-0.711h-15.359c-0.411,0-0.834,0.289-0.834,0.711v9.766
		c0,0.268,0.423,0.401,0.834,0.401h5.873v0.979H1620.477z M1616.139,215.773v1.957h-2.502v-1.957h-6.151v1.957h-2.515v-15.482l0,0
		c-0.133,0-0.266-0.134-0.41-0.268c-0.278-0.289-0.567-0.711-0.567-1.269l0,0c0-0.423,0.289-0.846,0.567-1.112l0,0
		c0.277-0.289,0.834-0.556,1.257-0.556h25.549c0.557,0,0.969,0.267,1.391,0.556l0,0c0.279,0.268,0.424,0.689,0.424,1.112l0,0
		c0,0.558-0.145,0.979-0.424,1.269l0,0c-0.422,0.268-0.834,0.399-1.391,0.399h-0.146v15.351h-2.369v-9.898h-12.713v7.252V215.773
		L1616.139,215.773z M1616.428,204.205h12.424v2.092h-12.424V204.205z M1615.316,209.633h-9.5v3.76h9.5V209.633z M1615.316,203.916
		h-9.5v3.76h9.5V203.916z M1610.699,206.43c-0.41,0-0.701-0.289-0.701-0.822c0-0.424,0.291-0.713,0.701-0.713
		c0.567,0,0.834,0.289,0.834,0.713C1611.533,206.141,1611.268,206.43,1610.699,206.43L1610.699,206.43z M1610.699,212.281
		c-0.41,0-0.701-0.424-0.701-0.824c0-0.422,0.291-0.846,0.701-0.846c0.567,0,0.834,0.424,0.834,0.846
		C1611.533,211.857,1611.268,212.281,1610.699,212.281L1610.699,212.281z M1625.916,192.771L1625.916,192.771h-14.648v-7.941h14.648
		V192.771z"/>
</g>
<g opacity="0.15">
	<path fill="#4A4A4A" d="M1518.049,202.514h-2.514l1.678,7.119c0.135,0.133,0.279,0.289,0.557,0.289c0,0,0,0,0.136,0
		c0.145,0,0.422-0.156,0.422-0.423v-6.985C1518.182,202.514,1518.182,202.514,1518.049,202.514L1518.049,202.514z M1507.438,196.953
		h10.332c0.701,0,1.113,0.556,1.113,1.111v2.514c0,0.557-0.412,1.113-1.113,1.113h-10.332c-0.567,0-1.112-0.558-1.112-1.113v-2.514
		C1506.324,197.509,1506.869,196.953,1507.438,196.953L1507.438,196.953z M1510.641,182.314h3.914c2.092,0,3.627,1.514,3.627,3.604
		v6.718c0,1.937-1.535,3.472-3.627,3.472h-0.979h-1.945h-0.99c-1.946,0-3.614-1.535-3.614-3.472v-6.718
		C1507.025,183.828,1508.693,182.314,1510.641,182.314L1510.641,182.314z M1507.159,202.514h-0.134v6.985
		c0,0.267,0.134,0.423,0.412,0.423l0,0c0.276,0,0.422-0.156,0.556-0.289l1.813-7.119H1507.159z"/>
</g>
<g opacity="0.15">
	<path fill="#4A4A4A" d="M1423.364,193.432h2.926v5.873h-0.277l-0.411-2.803c0-0.268-0.278-0.422-0.558-0.422l0,0
		c-0.289,0-0.422,0.289-0.422,0.556l0.422,2.669h-0.422l-0.278-1.957c0-0.289-0.277-0.423-0.556-0.423l0,0
		c-0.279,0-0.424,0.267-0.424,0.556l0.289,1.824h-0.435l-0.41-2.514c0-0.422-0.424-0.711-0.7-0.557h-0.134
		c-0.291,0-0.557,0.4-0.557,0.824l0.266,2.246h-0.688v-3.492C1420.995,194.411,1422.108,193.432,1423.364,193.432L1423.364,193.432z
		 M1434.811,203.621c0.424,0,0.7,0.268,0.7,0.689s-0.276,0.688-0.7,0.688c-0.277,0-0.689-0.269-0.689-0.688
		C1434.12,203.889,1434.532,203.621,1434.811,203.621L1434.811,203.621z M1423.653,205.979c0.411,0,1.102-0.133,1.102-0.979
		c0-1.111-0.834-0.557-0.834-1.246c0-0.979,0.701-0.689,0.701-0.979c0-0.133-0.146-0.133-0.146-0.133h-1.534
		c-0.135,0-0.135,0-0.135,0.133c0,0.289,0.7,0,0.7,0.979c0,0.689-0.979,0.135-0.979,1.246
		C1422.53,205.846,1423.364,205.979,1423.653,205.979L1423.653,205.979z M1439.281,195.813c0-1.4-1.123-2.381-2.369-2.381h-3.214
		v5.295v1.402v0.133v0.979v14.082h3.214c1.246,0,2.369-1.112,2.369-2.358C1439.137,207.113,1439.281,201.529,1439.281,195.813
		L1439.281,195.813z M1426.29,200.262v5.717h-5.295v-5.717H1426.29z M1426.29,206.957v8.365h-2.926
		c-1.256,0-2.369-1.112-2.369-2.358v-6.007H1426.29z M1427.28,193.432h5.584v21.892h-5.584V193.432z M1431.605,203.621
		c0.412,0,0.689,0.268,0.689,0.689s-0.277,0.688-0.689,0.688c-0.276,0-0.7-0.269-0.7-0.688
		C1430.905,203.889,1431.329,203.621,1431.605,203.621L1431.605,203.621z"/>
</g>
<g opacity="0.15">
	<path fill="#4A4A4A" d="M1398.446,131.438h37.974v10.455h-1.402v1.824h-2.646v-1.824h-30.166v1.824h-2.646v-1.824h-1.112v-10.455
		H1398.446z M1399.848,134.508h16.328v4.338h-16.328V134.508z M1418.689,134.508h16.194v4.338h-16.194V134.508z"/>
</g>
<g opacity="0.15">
	<path fill="#4A4A4A" d="M1241.491,210.995h24.014c0.69,0,1.113,0.557,1.113,1.112l0,0c0,0.711-0.423,1.134-1.113,1.134h-1.11v3.894
		h-21.791v-3.894h-1.111c-0.566,0-1.123-0.423-1.123-1.134l0,0C1240.368,211.552,1240.925,210.995,1241.491,210.995
		L1241.491,210.995z M1244.839,226.745v1.69h-2.235v-1.69v-1.112v-2.779h21.791v2.936v0.957v1.824h-2.247v-1.824L1244.839,226.745
		L1244.839,226.745z M1252.381,215.177v-0.556c0-0.135,0.134-0.135,0.278-0.135h1.813c0.134,0,0.278,0,0.278,0.135v0.556
		c0,0-0.146,0.156-0.278,0.156h-1.813C1252.515,215.333,1252.381,215.177,1252.381,215.177L1252.381,215.177z M1252.515,224.943
		v-0.424c0-0.133,0.146-0.133,0.146-0.133h1.946c0.145,0,0.145,0,0.145,0.133v0.424c0,0.134,0,0.267-0.145,0.267h-1.946
		C1252.659,225.21,1252.515,225.077,1252.515,224.943L1252.515,224.943z M1252.381,220.204v-0.422c0-0.134,0.134-0.269,0.278-0.269
		h1.813c0.134,0,0.278,0.135,0.278,0.269v0.422c0,0.135-0.146,0.135-0.278,0.135h-1.813
		C1252.515,220.339,1252.381,220.339,1252.381,220.204L1252.381,220.204z M1264.395,218.114v3.759h-21.791v-3.759H1264.395z"/>
</g>
<g opacity="0.15">
	<path fill="#4A4A4A" d="M1516.676,41.379l5.584-5.161l18.574-0.133l5.584,5.294c0,0.846,0.133,1.69,0.133,2.38l-1.11,1.246h-0.558
		c0,0,0,0.289,0,0.423v12.836c0,0.423-0.156,0.956-0.578,1.245c-0.268,0.289-0.823,0.557-1.246,0.557l0,0
		c-0.557,0-0.979-0.268-1.399-0.557c-0.269-0.289-0.558-0.822-0.558-1.245V45.428c0-0.134,0.134-0.423,0.134-0.423h-19.398
		c0,0,0,0.289,0,0.423v12.836c0,0.423-0.289,0.956-0.555,1.245c-0.291,0.289-0.846,0.557-1.271,0.557l0,0
		c-0.555,0-0.955-0.268-1.379-0.557c-0.289-0.289-0.557-0.822-0.557-1.245V45.428c0-0.134,0.135-0.423,0.135-0.423h-0.557
		l-1.111-1.246L1516.676,41.379z M1522.393,45.983h2.226h0.155l0,0v5.162c0,0.266-0.155,0.556-0.424,0.822
		c-0.133,0.156-0.422,0.289-0.821,0.289l0,0c-0.289,0-0.578-0.133-0.847-0.289c-0.155-0.267-0.289-0.557-0.289-0.822V45.983
		L1522.393,45.983L1522.393,45.983z M1538.32,45.983h2.225l0,0l0,0v5.162c0,0.266-0.133,0.556-0.268,0.822
		c-0.289,0.156-0.578,0.289-0.845,0.289l0,0c-0.424,0-0.69-0.133-0.846-0.289c-0.268-0.267-0.424-0.557-0.424-0.822v-5.162l0,0
		H1538.32z"/>
</g>
<g opacity="0.15">
	<path fill="#4A4A4A" d="M1417.456,72.293h4.338h1.379h0.289c0.133,0,0.289,0.134,0.289,0.289v0.689
		c0,0.268-0.156,0.424-0.289,0.424h-0.289v5.16h-1.379v-1.824h-4.338v1.824h-1.379v-10.61c0-0.267,0.266-0.689,0.688-0.689l0,0
		c0.422,0,0.689,0.289,0.689,0.689L1417.456,72.293L1417.456,72.293z M1421.081,68.245h4.049v10.033h1.269l0.135-8.364h8.229
		l0.156,8.364h1.246V68.245h4.471c0.689,0.156,0.558-0.556,0.558-0.845v-0.134c0-0.267-0.269-0.4-0.558-0.4h-19.555
		c-0.267,0-0.4,0.134-0.4,0.4V67.4C1420.681,67.689,1420.526,68.401,1421.081,68.245L1421.081,68.245z M1434.63,67.844v0.957
		l-7.94,0.133v-1.09H1434.63z M1443.706,72.293h-4.316h-1.399h-0.291c-0.133,0-0.267,0.134-0.267,0.289v0.689
		c0,0.268,0.134,0.424,0.267,0.424h0.291v5.16h1.399v-1.824h4.316v1.824h1.4v-10.61c0-0.267-0.289-0.689-0.712-0.689l0,0
		c-0.399,0-0.688,0.289-0.688,0.689V72.293z M1439.39,76.342v-2.646h4.316v2.646H1439.39z M1421.794,76.342v-2.646h-4.338v2.646
		H1421.794z"/>
</g>
<g opacity="0.15">
	<path fill="#4A4A4A" d="M1318.068,35.378h16.905c1.535,0,3.07,0.689,4.05,1.668c0.979,0.979,1.668,2.381,1.668,4.049v19.799
		c0,1.535-0.689,2.936-1.668,4.049c-0.714,0.689-1.535,1.245-2.515,1.379v2.514h-3.781V66.61h-12.702v2.225h-3.625v-2.514
		c-0.98-0.268-1.671-0.689-2.382-1.379c-1.112-1.113-1.668-2.514-1.668-4.049V41.095c0-1.668,0.556-3.07,1.668-4.049
		C1314.998,36.067,1316.4,35.378,1318.068,35.378L1318.068,35.378z M1329.234,56.577v0.557c0,0.268-0.267,0.557-0.556,0.557h-4.315
		c-0.289,0-0.558-0.289-0.558-0.557v-0.557h-8.809v4.316c0,0.846,0.289,1.668,0.846,2.225c0.558,0.556,1.4,0.846,2.226,0.846h16.905
		c0.847,0,1.668-0.29,2.226-0.846c0.557-0.557,0.846-1.379,0.846-2.225v-4.316H1329.234z M1329.234,47.368v0.557
		c0,0.266-0.267,0.556-0.556,0.556h-4.315c-0.289,0-0.558-0.29-0.558-0.556v-0.557h-8.809v7.385h23.047v-7.385H1329.234z
		 M1329.234,38.024v0.689c0,0.424-0.267,0.579-0.556,0.579h-4.315c-0.289,0-0.558-0.155-0.558-0.579v-0.689h-5.737
		c-0.824,0-1.668,0.289-2.226,0.846c-0.557,0.557-0.846,1.379-0.846,2.225V45.7h23.047v-4.605c0-0.846-0.289-1.668-0.846-2.225
		c-0.558-0.557-1.379-0.846-2.226-0.846H1329.234z"/>
</g>
<g opacity="0.15">
	<path fill="#4A4A4A" d="M1194.961,41.65h14.805h0.556v0.557v25.359v0.557h-0.556h-14.805h-0.688v-0.557V42.207V41.65H1194.961z
		 M1206.84,45.677h-9.076v4.204h9.076V45.677z M1206.84,59.914h-9.076v4.182h9.076V59.914z M1202.368,60.604
		c0.278,0,0.556,0.289,0.556,0.557c0,0.422-0.276,0.689-0.556,0.689c-0.423,0-0.712-0.268-0.712-0.689
		C1201.656,60.893,1201.945,60.604,1202.368,60.604L1202.368,60.604z M1206.84,52.528h-9.076v4.16h9.076V52.528z M1202.368,53.084
		c0.278,0,0.556,0.268,0.556,0.69s-0.276,0.689-0.556,0.689c-0.423,0-0.712-0.267-0.712-0.689S1201.945,53.084,1202.368,53.084
		L1202.368,53.084z M1202.368,46.389c0.278,0,0.556,0.268,0.556,0.557c0,0.422-0.276,0.689-0.556,0.689
		c-0.423,0-0.712-0.268-0.712-0.689C1201.656,46.656,1201.945,46.389,1202.368,46.389L1202.368,46.389z M1209.064,42.896h-13.549
		v23.98h13.549V42.896z"/>
</g>
<g opacity="0.15">
	<path fill="#4A4A4A" d="M1099.262,23.919h17.596v22.579h-0.845v1.691h-1.669v-1.691h-12.424v1.691h-1.68v-1.691h-0.979
		L1099.262,23.919L1099.262,23.919z M1116.857,23.496l0.834-0.956h-19.265l0.834,0.956H1116.857z M1101.074,26.855h6.43v16.862
		h-6.43V26.855z M1108.615,26.855h6.43v16.862h-6.43V26.855z M1109.039,27.278h5.438v15.884h-5.438V27.278z M1109.739,34.375h0.411
		c0.145,0,0.145,0,0.145,0.133v1.402c0,0.133,0,0.289-0.145,0.289h-0.411c-0.146,0-0.289-0.156-0.289-0.289v-1.402
		C1109.45,34.375,1109.595,34.375,1109.739,34.375L1109.739,34.375z"/>
</g>
<g opacity="0.15">
	<path fill="#4A4A4A" d="M983.973,74.395c-2.381,0.423-5.026,1.824-5.026,3.627v0.689c0,0.578,0.557,0.979,1.111,0.979
		c0.424,0,0.979-0.4,0.979-0.979v-0.689c0-0.134,0.278-0.557,1.257-1.113c0.979-0.422,2.236-0.689,3.215-0.689
		c0.979,0,2.226,0.268,3.07,0.689c0.979,0.557,1.39,0.979,1.39,1.113v0.689c0,0.578,0.424,0.979,0.979,0.979
		c0.565,0,0.979-0.4,0.979-0.979v-0.689c0-1.803-2.514-3.204-4.883-3.627c0-0.133,0-0.267,0-0.267V61.293
		c1.392,0,2.226-0.268,2.791-0.979c0.558-0.423,0.834-1.112,1.113-1.958c-0.134-0.267-0.279-0.556-0.279-0.956
		c0-0.712,0.558-1.269,1.258-1.269c0.701,0,1.392,0.557,1.392,1.269c0,0.689-0.558,1.245-1.113,1.379
		c-0.277,0.979-0.834,1.824-1.39,2.515c-0.847,0.845-2.104,1.245-3.771,1.4v-1.4v-8.498c0-0.846-0.701-1.535-1.535-1.535l0,0
		c-0.846,0-1.534,0.689-1.534,1.535v3.625c-0.979-0.155-1.681-0.422-2.092-0.845c-0.566-0.556-0.846-1.245-1.124-2.091
		c0.135-0.134,0.278-0.557,0.278-0.823c0-0.846-0.556-1.401-1.257-1.401s-1.401,0.556-1.401,1.401c0,0.534,0.567,1.112,1.124,1.245
		c0.277,0.979,0.845,1.824,1.391,2.514c0.699,0.689,1.68,1.246,3.081,1.38v8.521c-0.979,0-1.681-0.424-2.092-0.846
		c-0.566-0.557-0.846-1.246-1.124-2.092c0.135-0.133,0.278-0.556,0.278-0.845c0-0.823-0.556-1.38-1.257-1.38
		s-1.401,0.557-1.401,1.38c0,0.578,0.567,1.134,1.124,1.269c0.277,1.111,0.845,1.957,1.391,2.514
		c0.699,0.822,1.68,1.245,3.081,1.379v6.429C983.973,74.128,983.973,74.262,983.973,74.395L983.973,74.395z"/>
</g>
<g opacity="0.15">
	<path fill="#4A4A4A" d="M853.917,31.282h29.031v2.514h-2.792v15.905h-2.369v-9.477h-18.708v9.477h-2.38V33.796h-2.781
		L853.917,31.282L853.917,31.282z M868.287,35.331c0.701,0,1.112,0.556,1.112,1.245c0,0.713-0.411,1.135-1.112,1.135
		c-0.689,0-1.246-0.422-1.246-1.135C867.042,35.887,867.598,35.331,868.287,35.331L868.287,35.331z M859.078,34.508v4.182h18.431
		v-4.182H859.078z"/>
</g>
<g opacity="0.15">
	<path fill="#4A4A4A" d="M760.13,57.326h4.472c1.111,0,2.092,0.979,2.092,2.091v4.049c0,1.802-1.112,1.958-2.358,1.958h-3.781
		c-1.246,0-2.381-0.156-2.381-1.958v-4.049C758.172,58.304,759.018,57.326,760.13,57.326L760.13,57.326z M751.209,57.326h4.316
		c1.11,0,2.112,0.845,2.112,2.091v4.049c0,1.112-1.002,2.091-2.112,2.091h-4.316c-1.111,0-2.091-0.979-2.091-2.091v-4.049
		C749.118,58.171,750.098,57.326,751.209,57.326L751.209,57.326z M773.944,70.005c0,0,0,0.156,0,0.29l0,0
		c0,0.422-0.268,0.823-0.689,0.823h-2.091c-0.423,0-0.823-0.4-0.823-0.823l0,0c0-0.134,0.134-0.29,0.134-0.29h-2.803l0,0
		c-0.135,0-0.135,0-0.268,0h-19.131h-0.689h-2.092c0,0,0,0.156,0,0.29l0,0c0,0.422-0.289,0.823-0.712,0.823h-2.091
		c-0.424,0-0.847-0.4-0.847-0.823l0,0c0-0.134,0-0.29,0.134-0.29V59.15c0-0.846,1.401-1.691,3.069-1.691h3.227v7.386h0.846
		c0.134,0.289,0.556,0.578,0.822,0.712c0.424,0.267,0.979,0.4,1.535,0.4h3.781c0.557,0,1.113-0.134,1.535-0.4
		c0.268-0.134,0.557-0.423,0.688-0.712h0.689c0.156,0.289,0.424,0.578,0.846,0.712c0.423,0.267,0.979,0.4,1.535,0.4h3.781
		c0.399,0,0.979-0.134,1.535-0.4c0.268-0.134,0.557-0.423,0.688-0.712h1.113v-7.386h3.203c1.689,0,3.068,0.845,3.068,1.691v10.855
		H773.944z"/>
</g>
<g opacity="0.15">
	<path fill="#4A4A4A" d="M637.609,60.986v-2.225v-2.225V29.753h-33.502v26.784v2.225v2.225h2.225v-2.225c9.788,0,19.266,0,29.053,0
		v2.225L637.609,60.986L637.609,60.986z M637.609,29.064l1.401-1.535h-36.438l1.535,1.535H637.609z M621.704,40.921h11.724h0.289
		v0.267v15.906v0.267h-0.289h-11.724h-0.423v-0.267V41.188v-0.267H621.704z M633.139,41.477h-11.168V56.67h11.168V41.477z
		 M608.156,40.921h11.724h0.423v0.267v15.906v0.267h-0.423h-11.724h-0.289v-0.267V41.188v-0.267H608.156z M619.591,41.477h-11.012
		V56.67h11.012V41.477z M608.846,33.379h23.869c0.424,0,0.713,0.289,1.002,0.423c0.268,0.267,0.4,0.712,0.4,1.112v2.936
		c0,0.267-0.134,0.69-0.4,0.957l0,0l0,0c-0.289,0.29-0.578,0.445-1.002,0.445h-23.869c-0.267,0-0.688-0.156-0.979-0.445
		c-0.269-0.267-0.423-0.689-0.423-0.957v-2.936c0-0.4,0.154-0.846,0.423-1.112l0,0C608.156,33.668,608.579,33.379,608.846,33.379
		L608.846,33.379z M632.715,34.069h-23.869c-0.133,0-0.422,0.156-0.556,0.29c-0.134,0.156-0.134,0.289-0.134,0.556v2.936
		c0,0.134,0,0.423,0.134,0.556c0.134,0.134,0.423,0.134,0.556,0.134h23.869c0.156,0,0.424,0,0.579-0.134l0,0
		c0.134-0.133,0.267-0.422,0.267-0.556v-2.936c0-0.267-0.133-0.4-0.267-0.556C633.139,34.225,632.871,34.069,632.715,34.069
		L632.715,34.069z M622.816,36.449c0,0.289,0,0.556-0.156,0.69c-0.133,0.155-0.4,0.289-0.533,0.289l0,0h-2.67l0,0
		c-0.133,0-0.422-0.134-0.557-0.289c0-0.134-0.134-0.401-0.134-0.69c0-0.133,0.134-0.422,0.134-0.556
		c0.135-0.133,0.424-0.289,0.557-0.289l0,0h2.67l0,0c0.133,0,0.4,0.156,0.533,0.289C622.816,36.027,622.816,36.316,622.816,36.449
		L622.816,36.449z M622.127,36.738c0,0,0.133-0.155,0.133-0.289l-0.133-0.133c0-0.133,0-0.133,0-0.133l0,0h-2.67l0,0
		c0,0,0,0,0,0.133v0.133c0,0.134,0,0.289,0,0.289l0,0l0,0H622.127L622.127,36.738L622.127,36.738L622.127,36.738z M618.345,46.638
		c0.29,0,0.423,0.134,0.557,0.267c0.29,0.156,0.424,0.289,0.424,0.556v2.514c0,0.289-0.134,0.423-0.424,0.556
		c-0.134,0.133-0.267,0.133-0.557,0.133c-0.289,0-0.423,0-0.556-0.133c-0.289-0.133-0.423-0.267-0.423-0.556v-2.514
		c0-0.267,0.134-0.4,0.423-0.556C617.922,46.771,618.056,46.638,618.345,46.638L618.345,46.638z M618.635,47.328
		c-0.156,0-0.156,0-0.29,0s-0.134,0-0.289,0c0,0,0,0,0,0.133v2.514l0,0c0.155,0.133,0.155,0.133,0.289,0.133s0.134,0,0.29-0.133l0,0
		v-2.514C618.635,47.328,618.635,47.328,618.635,47.328L618.635,47.328z M623.238,46.638c0.268,0,0.424,0.134,0.689,0.267
		c0.134,0.156,0.268,0.289,0.268,0.556v2.514c0,0.289-0.133,0.423-0.268,0.556c-0.267,0.133-0.423,0.133-0.689,0.133
		c-0.133,0-0.422,0-0.578-0.133c-0.268-0.133-0.268-0.267-0.268-0.556v-2.514c0-0.267,0-0.4,0.268-0.556
		C622.816,46.771,623.105,46.638,623.238,46.638L623.238,46.638z M623.506,47.328c-0.133,0-0.133,0-0.268,0
		c-0.133,0-0.133,0-0.289,0c0,0,0,0,0,0.133v2.514l0,0c0.156,0.133,0.156,0.133,0.289,0.133c0.135,0,0.135,0,0.268-0.133l0,0v-2.514
		C623.506,47.328,623.506,47.328,623.506,47.328L623.506,47.328z"/>
</g>
<g opacity="0.15">
	<path fill="#4A4A4A" d="M1024.496,227.797v-2.225v-2.225v-26.785h-33.502v26.785v2.225v2.225h2.225v-2.225
		c9.788,0,19.267,0,29.053,0v2.225H1024.496z M1024.496,195.874l1.402-1.535h-36.439l1.535,1.535H1024.496z M1008.591,207.73h11.725
		h0.288v0.268v15.904v0.268h-0.288h-11.725h-0.423v-0.268v-15.904v-0.268H1008.591z M1020.025,208.287h-11.168v15.193h11.168
		V208.287z M995.043,207.73h11.724h0.424v0.268v15.904v0.268h-0.424h-11.724h-0.289v-0.268v-15.904v-0.268H995.043z
		 M1006.479,208.287h-11.013v15.193h11.013V208.287z M995.732,200.189h23.868c0.425,0,0.714,0.289,1.003,0.422
		c0.267,0.268,0.399,0.713,0.399,1.113v2.936c0,0.268-0.134,0.689-0.399,0.957l0,0l0,0c-0.289,0.289-0.578,0.445-1.003,0.445
		h-23.868c-0.268,0-0.689-0.156-0.979-0.445c-0.268-0.268-0.423-0.689-0.423-0.957v-2.936c0-0.4,0.155-0.847,0.423-1.113l0,0
		C995.043,200.479,995.466,200.189,995.732,200.189L995.732,200.189z M1019.602,200.879h-23.868c-0.134,0-0.423,0.156-0.557,0.289
		c-0.134,0.156-0.134,0.289-0.134,0.557v2.937c0,0.135,0,0.424,0.134,0.557c0.134,0.134,0.423,0.134,0.557,0.134h23.868
		c0.156,0,0.425,0,0.579-0.134l0,0c0.134-0.133,0.268-0.422,0.268-0.557v-2.937c0-0.268-0.133-0.399-0.268-0.557
		C1020.025,201.035,1019.758,200.879,1019.602,200.879L1019.602,200.879z M1009.703,203.26c0,0.289,0,0.557-0.156,0.689
		c-0.133,0.154-0.4,0.289-0.533,0.289l0,0h-2.67l0,0c-0.133,0-0.422-0.135-0.557-0.289c0-0.135-0.133-0.4-0.133-0.689
		c0-0.134,0.133-0.423,0.133-0.557c0.135-0.133,0.424-0.289,0.557-0.289l0,0h2.67l0,0c0.133,0,0.4,0.156,0.533,0.289
		C1009.703,202.837,1009.703,203.126,1009.703,203.26L1009.703,203.26z M1009.014,203.549c0,0,0.133-0.156,0.133-0.289l-0.133-0.134
		c0-0.134,0-0.134,0-0.134l0,0h-2.67l0,0c0,0,0,0,0,0.134v0.134c0,0.133,0,0.289,0,0.289l0,0l0,0H1009.014L1009.014,203.549
		L1009.014,203.549L1009.014,203.549z M1005.231,213.447c0.29,0,0.423,0.135,0.556,0.268c0.29,0.156,0.424,0.289,0.424,0.557v2.515
		c0,0.289-0.134,0.422-0.424,0.556c-0.133,0.135-0.266,0.135-0.556,0.135c-0.289,0-0.424,0-0.557-0.135
		c-0.289-0.134-0.423-0.267-0.423-0.556v-2.515c0-0.268,0.134-0.399,0.423-0.557
		C1004.809,213.582,1004.942,213.447,1005.231,213.447L1005.231,213.447z M1005.521,214.139c-0.156,0-0.156,0-0.29,0
		c-0.135,0-0.135,0-0.289,0c0,0,0,0,0,0.133v2.515l0,0c0.154,0.133,0.154,0.133,0.289,0.133c0.134,0,0.134,0,0.29-0.133l0,0v-2.515
		C1005.521,214.139,1005.521,214.139,1005.521,214.139L1005.521,214.139z M1010.125,213.447c0.268,0,0.424,0.135,0.69,0.268
		c0.134,0.156,0.267,0.289,0.267,0.557v2.515c0,0.289-0.133,0.422-0.267,0.556c-0.268,0.135-0.424,0.135-0.69,0.135
		c-0.133,0-0.422,0-0.578-0.135c-0.267-0.134-0.267-0.267-0.267-0.556v-2.515c0-0.268,0-0.399,0.267-0.557
		C1009.703,213.582,1009.992,213.447,1010.125,213.447L1010.125,213.447z M1010.393,214.139c-0.133,0-0.133,0-0.268,0
		c-0.133,0-0.133,0-0.289,0c0,0,0,0,0,0.133v2.515l0,0c0.156,0.133,0.156,0.133,0.289,0.133c0.135,0,0.135,0,0.268-0.133l0,0v-2.515
		C1010.393,214.139,1010.393,214.139,1010.393,214.139L1010.393,214.139z"/>
</g>
<g opacity="0.15">
	<path fill="#4A4A4A" d="M523.178,43.568l1.113-0.979h-28.342l1.269,0.979H523.178z M512.145,40.209
		c-0.268-0.134-0.268-0.4-0.268-0.4h-3.358c0,0-0.154,0.267-0.29,0.4l0,0h-1.11c-0.423,0-0.689,0.422-0.689,0.845
		c0,1.268,7.541,1.268,7.541,0c0-0.423-0.289-0.845-0.712-0.845H512.145z M511.877,39.252v-0.846h5.295
		c0.423,0,0.689-0.133,0.689-0.422v-8.787c0-0.423-0.268-0.689-0.689-0.689h-13.971c-0.4,0-0.689,0.267-0.689,0.689v8.787
		c0,0.289,0.289,0.422,0.689,0.422h5.316v0.846H511.877z M516.883,36.738L516.883,36.738H503.49v-7.252h13.393V36.738z
		 M523.178,60.007v-1.112v-1.112V44.124h-25.96v13.659v1.112v1.112h1.669v-1.112c7.541,0,14.926,0,22.623,0v1.112H523.178z
		 M500.421,46.215h19.532c0.289,0,0.556,0.133,0.845,0.267c0.134,0.29,0.289,0.579,0.289,0.846v2.358
		c0,0.422-0.155,0.712-0.289,0.845l0,0l0,0c-0.289,0.289-0.556,0.423-0.845,0.423h-19.532c-0.289,0-0.556-0.134-0.845-0.423
		c-0.134-0.133-0.289-0.423-0.289-0.845v-2.358c0-0.267,0.155-0.556,0.289-0.846l0,0C499.865,46.349,500.132,46.215,500.421,46.215
		L500.421,46.215z M511.877,48.573c0,0.156-0.155,0.289-0.155,0.422c-0.134,0.156-0.267,0.29-0.423,0.29l0,0h-2.225l0,0
		c-0.133,0-0.268-0.134-0.422-0.29c-0.135-0.133-0.135-0.267-0.135-0.422c0-0.267,0-0.423,0.135-0.556
		c0.154-0.133,0.289-0.267,0.422-0.267l0,0h2.225l0,0c0.156,0,0.289,0.134,0.423,0.267C511.722,48.15,511.877,48.306,511.877,48.573
		L511.877,48.573z M509.208,53.467h-9.21v3.759h9.21V53.467z M505.159,55.402v0.156c-0.134,0-0.134,0.134-0.134,0.134l0,0h-0.822
		l0,0c0,0,0-0.134-0.156-0.134v-0.156c0-0.133,0-0.133,0-0.133c0.156-0.133,0.156-0.133,0.156-0.133l0,0h0.822l0,0
		c0,0,0,0,0.134,0.133C505.159,55.269,505.159,55.269,505.159,55.402L505.159,55.402z M520.664,53.467h-9.076v3.759h9.076V53.467z
		 M516.615,55.402v0.156l-0.133,0.134l0,0h-0.713l0,0c-0.134,0-0.134-0.134-0.267-0.134v-0.156c0-0.133,0-0.133,0-0.133
		c0.133-0.133,0.133-0.133,0.267-0.133l0,0h0.713l0,0c0,0,0.133,0,0.133,0.133C516.615,55.269,516.615,55.269,516.615,55.402
		L516.615,55.402z"/>
</g>
<g opacity="0.15">
	<path fill="#4A4A4A" d="M410.875,48.76L410.875,48.76c-0.556,0-0.979,0.4-0.979,0.979V60.75c-0.412,0.267-0.835,0.823-0.835,1.379
		v3.493c0,0.133,0,0.267,0,0.267c-3.214,0.846-5.595,3.626-5.729,7.119c0,0.156,0,0.156,0,0.156h14.805
		c0-3.493-2.369-6.429-5.584-7.274c0,0,0-0.133,0-0.267V62.13c0-0.556-0.277-1.112-0.846-1.379V49.738
		C411.709,49.16,411.298,48.76,410.875,48.76L410.875,48.76z M410.742,76.367c-1.824,0-3.493-0.979-4.473-2.514h8.943
		C414.367,75.388,412.688,76.367,410.742,76.367L410.742,76.367z"/>
</g>
<g opacity="0.15">
	<path fill="#4A4A4A" d="M329.347,21.296h-0.566c0.29-0.423,0.979-0.69,1.535-0.69c0.288,0,0.712,0.267,0.712,0.69v6.696h1.535
		v-6.696c0-1.246-0.99-2.38-2.247-2.38c-1.112,0-2.503,0.845-3.07,1.824l-0.423,0.712h-0.689c-0.277,0.4-0.277,1.935-0.277,2.491
		l3.637-0.133C329.491,23.254,329.625,21.719,329.347,21.296L329.347,21.296z M328.223,26.324c0.146,0,0.146,0,0.146,0.133v0.134
		c0,0.156,0,0.156,0,0.289c0,0,0,0-0.146,0c0,0,0,0-0.133,0c0-0.133,0-0.133,0-0.289v-0.134
		C328.223,26.324,328.223,26.324,328.223,26.324L328.223,26.324z M326.688,26.324c0,0,0,0,0,0.133c0.134,0,0.134,0.134,0.134,0.134
		c0,0.156,0,0.156-0.134,0.289l0,0c-0.134,0-0.134,0-0.134,0c0-0.133,0-0.133,0-0.289v-0.134
		C326.555,26.324,326.555,26.324,326.688,26.324L326.688,26.324z M327.389,26.324c0.134,0,0.134,0,0.134,0.133v0.134
		c0,0.156,0,0.156,0,0.289c0,0,0,0-0.134,0l0,0c-0.145-0.133-0.145-0.133-0.145-0.289c0,0,0-0.134,0.145-0.134
		C327.389,26.324,327.389,26.324,327.389,26.324L327.389,26.324z M328.223,25.345c0.146,0,0.146,0.134,0.146,0.134
		c0,0.133,0,0.133,0,0.267v0.156c0,0.134,0,0.134-0.146,0.134c0,0,0,0-0.133-0.134v-0.156c0-0.133,0-0.133,0-0.267
		C328.223,25.479,328.223,25.345,328.223,25.345L328.223,25.345z M326.688,25.345v0.134c0.134,0.133,0.134,0.133,0.134,0.267
		c0,0,0,0.156-0.134,0.156c0,0.134,0,0.134,0,0.134c-0.134,0-0.134,0-0.134-0.134v-0.156c0-0.133,0-0.133,0-0.267
		C326.555,25.479,326.555,25.345,326.688,25.345L326.688,25.345z M327.389,25.345c0.134,0,0.134,0.134,0.134,0.134
		c0,0.133,0,0.133,0,0.267v0.156c0,0.134,0,0.134-0.134,0.134c0,0,0,0,0-0.134c-0.145,0-0.145-0.156-0.145-0.156
		c0-0.133,0-0.133,0.145-0.267V25.345L327.389,25.345z M328.223,24.5c0.146,0,0.146,0,0.146,0.156v0.133c0,0.134,0,0.267,0,0.267
		s0,0.156-0.146,0.156c0,0,0-0.156-0.133-0.156c0,0,0-0.133,0-0.267v-0.133C328.223,24.5,328.223,24.5,328.223,24.5L328.223,24.5z
		 M326.688,24.5c0,0,0,0,0,0.156c0.134,0,0.134,0.133,0.134,0.133c0,0.134,0,0.267-0.134,0.267v0.156
		c-0.134,0-0.134-0.156-0.134-0.156s0-0.133,0-0.267v-0.133C326.555,24.5,326.555,24.5,326.688,24.5L326.688,24.5z M327.389,24.5
		c0.134,0,0.134,0,0.134,0.156v0.133c0,0.134,0,0.267,0,0.267s0,0.156-0.134,0.156v-0.156c-0.145,0-0.145-0.133-0.145-0.267
		c0,0,0-0.133,0.145-0.133C327.389,24.5,327.389,24.5,327.389,24.5L327.389,24.5z M314.542,40.828l-0.979,2.514
		c-0.133,0.133-0.556,0.267-1.111,0l0,0c-0.423-0.156-0.834-0.579-0.701-0.712l0.845-1.958c-1.546-0.267-2.657-1.246-3.358-3.76
		c-0.412-1.668-2.503-5.027-2.503-5.294v-0.979c0-0.422,0.411-0.845,0.968-0.845h0.701c8.23,0,16.884,0,25.126,0h0.7
		c0.424,0,0.834,0.423,0.834,0.845v0.979c0,0.689-2.091,4.315-2.368,5.583c-0.557,1.802-1.668,2.647-2.659,3.204l0.846,2.225
		c0.146,0.133-0.278,0.556-0.701,0.712l0,0c-0.556,0.267-0.979,0.133-1.111,0l-0.979-2.514c-0.145,0-0.278,0-0.423,0h-0.701l0,0l0,0
		h-11.301h-0.834C314.688,40.828,314.542,40.828,314.542,40.828L314.542,40.828z M326.688,39.426L326.688,39.426L326.688,39.426
		L326.688,39.426L326.688,39.426z"/>
</g>
<g opacity="0.15">
	<path fill="#4A4A4A" d="M179.983,38.321h12.558h0.556l0,0h0.834v0.712l0,0v0.69v27.184v0.712l0,0v0.823h-0.834l0,0h-0.556l0,0
		v0.979h-3.215v-0.979h-5.995v0.979h-3.07v-0.979h-0.278h-0.567l0,0h-0.834v-0.823l0,0v-0.712V39.723v-0.69l0,0v-0.712h0.834l0,0
		H179.983z M186.679,52.691L186.679,52.691c0.278-0.133,0.556,0,0.701,0.423l1.39,3.337c0.145,0.289,0,0.556-0.411,0.689l0,0
		c-0.29,0.156-0.567,0-0.701-0.267l-1.401-3.337C186.123,53.114,186.256,52.825,186.679,52.691L186.679,52.691z M185.277,52.558
		L185.277,52.558c0.422,0,0.701,0.267,0.701,0.556v3.626c0,0.4-0.278,0.69-0.556,0.69l0,0c-0.278,0-0.556-0.29-0.556-0.69
		l-0.145-3.626C184.721,52.825,184.999,52.558,185.277,52.558L185.277,52.558z M181.796,52.558L181.796,52.558
		c0.267,0,0.556,0.267,0.556,0.556v3.626c0,0.4-0.29,0.69-0.556,0.69l0,0c-0.423,0-0.567-0.29-0.567-0.69v-3.626
		C181.229,52.825,181.373,52.558,181.796,52.558L181.796,52.558z M186.679,43.059L186.679,43.059c0.278-0.133,0.556,0,0.701,0.29
		l1.39,3.337c0.145,0.422,0,0.711-0.411,0.845l0,0c-0.29,0.133-0.567,0-0.701-0.267l-1.401-3.493
		C186.123,43.482,186.256,43.215,186.679,43.059L186.679,43.059z M185.277,42.926L185.277,42.926c0.422,0,0.701,0.133,0.701,0.556
		v3.626c0,0.289-0.278,0.556-0.556,0.556l0,0c-0.278,0-0.556-0.267-0.556-0.556l-0.145-3.626
		C184.721,43.215,184.999,42.926,185.277,42.926L185.277,42.926z M183.464,42.926L183.464,42.926c0.278,0,0.567,0.133,0.567,0.556
		v3.626c0,0.289-0.289,0.556-0.567,0.556l0,0c-0.412,0-0.701-0.267-0.701-0.556v-3.626
		C182.763,43.059,183.053,42.926,183.464,42.926L183.464,42.926z M181.796,42.926L181.796,42.926c0.267,0,0.556,0.133,0.556,0.556
		v3.626c0,0.289-0.29,0.556-0.556,0.556l0,0c-0.423,0-0.567-0.267-0.567-0.556v-3.626C181.229,43.059,181.373,42.926,181.796,42.926
		L181.796,42.926z M180.261,57.563h12.001v-7.942h-12.001V57.563z M192.262,59.098h-12.001v7.675h12.001V59.098z M180.261,48.087
		h12.001v-8.231h-12.001V48.087z"/>
</g>
<g opacity="0.15">
	<path fill="#4A4A4A" d="M56.321,42.033h23.313v6.829v0.423V59.74h-1.958V49.285H58.268V59.74h-1.947V49.285v-0.556V42.033z
		 M61.482,39.386h12.98V32.69c-1.246-0.556-2.37-1.535-3.481-2.38c-0.701-0.556-2.103-1.802-3.07-1.802
		c-0.701,0-2.369,1.401-3.07,1.802c-0.979,0.845-2.102,1.824-3.359,2.247V39.386z M59.947,31.021c1.124,0,2.38-1.112,3.771-2.091
		c1.401-1.268,2.803-2.38,4.193-2.38c1.68,0,2.937,1.112,4.327,2.38c1.246,0.979,2.514,2.091,3.759,2.091h0.423v0.422v9.477v0.4
		h-0.423h-16.05h-0.412v-0.4v-9.477v-0.422H59.947z M64.14,29.486c-1.268,0.979-2.514,2.091-3.771,2.225v8.92h15.216v-8.92
		c-1.39-0.133-2.658-1.246-3.904-2.225c-1.268-1.112-2.525-2.091-3.771-2.091C66.788,27.396,65.542,28.374,64.14,29.486
		L64.14,29.486z M63.017,44.947c0.567,0,0.846,0.422,0.846,0.979c0,0.423-0.278,0.846-0.846,0.846c-0.411,0-0.834-0.423-0.834-0.846
		C62.183,45.37,62.605,44.947,63.017,44.947L63.017,44.947z M72.927,44.947c0.423,0,0.845,0.422,0.845,0.979
		c0,0.423-0.422,0.846-0.845,0.846c-0.545,0-0.979-0.423-0.979-0.846C71.948,45.37,72.382,44.947,72.927,44.947L72.927,44.947z
		 M62.872,53.044h10.344c0.556,0,0.979,0.556,0.979,1.112l0,0c0,0.556-0.423,1.112-0.979,1.112H62.872
		c-0.689,0-1.112-0.556-1.112-1.112l0,0C61.76,53.601,62.183,53.044,62.872,53.044L62.872,53.044z M62.872,55.692h10.2v2.937v0.133
		v3.203h-0.834v-3.203h-8.52v3.203h-0.846v-3.203v-0.133V55.692L62.872,55.692z M68.189,43.991h9.343v3.759h-9.343V43.991z
		 M58.412,43.991h9.365v3.759h-9.365V43.991z"/>
</g>
<g opacity="0.15">
	<path fill="#4A4A4A" d="M1140.796,186.3c-0.065,2.912-0.101,5.817-0.313,8.726c-0.089,1.221-0.886,5.018,1.331,5.125
		c0.628,0.031,0.891-0.467,1.002-1.014c0.25-1.224,0.211-2.568,0.306-3.813c0.228-2.97,0.457-5.939,0.664-8.911
		c0.015-0.221-0.326-0.219-0.343,0c-0.174,2.242-0.33,4.484-0.493,6.729c-0.08,1.092-0.157,2.184-0.236,3.273
		c-0.052,0.714,0.195,3.799-1.271,3.279c-0.638-0.226-0.822-1.291-0.84-1.817c-0.016-0.467,0.047-0.937,0.084-1.399
		c0.09-1.088,0.161-2.177,0.22-3.267c0.122-2.297,0.203-4.608,0.116-6.909C1141.018,186.154,1140.8,186.152,1140.796,186.3"/>
	<path fill="#4A4A4A" d="M1140.694,186.352c1.845,0.223,3.732,0.123,5.57-0.105c0.208-0.025,0.209-0.354,0-0.328
		c-1.861,0.239-3.697,0.241-5.57,0.206C1140.543,186.12,1140.552,186.335,1140.694,186.352"/>
	<path fill="#4A4A4A" d="M1140.88,186.177c0.471-6.55,0.288-13.202,0.101-19.761c-0.007-0.232-0.367-0.232-0.36,0
		c0.189,6.592-0.017,13.171,0.037,19.761C1140.657,186.322,1140.869,186.318,1140.88,186.177"/>
	<path fill="#4A4A4A" d="M1146.599,186.182c0.335-3.977,0.091-8.172-0.947-12.031c-0.466-1.729-1.113-3.416-1.972-4.99
		c-0.526-0.967-1.494-3.198-2.86-3.087c-0.235,0.02-0.242,0.37,0,0.37c1.011,0.005,1.7,1.488,2.146,2.229
		c0.377,0.626,0.717,1.273,1.022,1.936c0.716,1.554,1.239,3.192,1.609,4.86c0.79,3.554,0.745,7.101,0.743,10.714
		C1146.34,186.35,1146.585,186.344,1146.599,186.182"/>
	<path fill="#4A4A4A" d="M1141.385,193.243c-0.058,0.265,0.137,0.489,0.396,0.532c0.277,0.048,0.506-0.159,0.524-0.435
		c0.02-0.274-0.161-0.54-0.438-0.591c-0.154-0.027-0.318,0.023-0.412,0.152c-0.097,0.134-0.098,0.313,0.042,0.414
		c0.089,0.063,0.182-0.025,0.193-0.11c0.008-0.06-0.004-0.125,0.063-0.149c0.059-0.021,0.132,0.004,0.177,0.043
		c0.074,0.063,0.104,0.183,0.081,0.274c-0.062,0.235-0.408,0.108-0.393-0.101C1141.631,193.141,1141.413,193.111,1141.385,193.243"
		/>
	<path fill="#4A4A4A" d="M1141.376,195.566c-0.041,0.222,0.106,0.425,0.326,0.47c0.223,0.045,0.423-0.114,0.47-0.328
		c0.048-0.216-0.052-0.433-0.261-0.519c-0.187-0.074-0.563-0.041-0.574,0.221c-0.003,0.068,0.063,0.135,0.131,0.132
		c0.107-0.006,0.181-0.101,0.292-0.089c0.087,0.008,0.149,0.07,0.148,0.158c0,0.07-0.042,0.156-0.119,0.164
		c-0.098,0.013-0.188-0.086-0.184-0.178C1141.609,195.469,1141.4,195.436,1141.376,195.566"/>
	<path fill="#4A4A4A" d="M1141.201,197.799c0.107,0.205,0.382,0.326,0.604,0.229c0.237-0.104,0.267-0.492,0.141-0.688
		c-0.14-0.214-0.461-0.302-0.665-0.126c-0.087,0.075-0.146,0.19-0.149,0.308c-0.005,0.121,0.051,0.279,0.188,0.303
		c0.086,0.015,0.162-0.035,0.167-0.127c0.002-0.039-0.012-0.062-0.021-0.098c0.013,0.057,0.002,0,0-0.027
		c-0.003-0.034-0.003-0.067,0.02-0.098c0.053-0.067,0.154-0.035,0.205,0.021c0.056,0.063,0.067,0.235-0.014,0.288
		c-0.086,0.055-0.222-0.038-0.264-0.106C1141.328,197.542,1141.127,197.66,1141.201,197.799"/>
</g>
<g opacity="0.15">
	<path fill="#4A4A4A" d="M1131.734,163.672c-0.22,0.034-0.386,0.212-0.349,0.441c0.039,0.24,0.324,0.438,0.562,0.365
		c0.096-0.029,0.117-0.199,0-0.217c-0.119-0.017-0.279-0.055-0.316-0.189c-0.029-0.111,0.07-0.164,0.163-0.186
		C1131.938,163.857,1131.873,163.65,1131.734,163.672"/>
	<path fill="#4A4A4A" d="M1131.67,163.889c3.764,0.131,7.553-0.024,11.318-0.031c3.768-0.006,7.555,0.142,11.318,0.021
		c0.201-0.007,0.2-0.305,0-0.313c-3.761-0.159-7.556-0.025-11.318-0.012c-3.764,0.014-7.562-0.091-11.318,0.117
		C1131.531,163.68,1131.529,163.884,1131.67,163.889"/>
	<path fill="#4A4A4A" d="M1132.037,164.477c4.049,0.428,8.197,0.34,12.264,0.396c1.558,0.021,3.114,0.038,4.671,0.047
		c1.655,0.009,3.372,0.087,5.012-0.146c0.182-0.025,0.128-0.304-0.041-0.31c-1.65-0.054-3.316,0.111-4.971,0.104
		c-1.593-0.006-3.185-0.021-4.776-0.039c-4.056-0.045-8.104-0.204-12.157-0.287C1131.884,164.239,1131.891,164.461,1132.037,164.477
		"/>
	<path fill="#4A4A4A" d="M1154.402,163.854c0.188,0.019,0.168,0.244,0.089,0.349c-0.083,0.11-0.237,0.166-0.365,0.202
		c-0.222,0.063-0.458,0.072-0.678,0.139c-0.126,0.037-0.103,0.225,0.03,0.229c0.391,0.009,0.989-0.076,1.239-0.416
		c0.195-0.264,0.08-0.774-0.315-0.727C1154.259,163.646,1154.256,163.838,1154.402,163.854"/>
	<path fill="#4A4A4A" d="M1142.503,163.6c0.028-0.271,0.038-0.592-0.018-0.858c-0.022-0.107-0.196-0.107-0.22,0
		c-0.056,0.268-0.046,0.588-0.018,0.858C1142.266,163.764,1142.486,163.764,1142.503,163.6"/>
	<path fill="#4A4A4A" d="M1143.744,163.611c-0.021-0.146-0.053-0.291-0.069-0.438c-0.015-0.129-0.009-0.262-0.04-0.388
		c-0.026-0.109-0.194-0.11-0.223,0c-0.065,0.267,0.008,0.636,0.109,0.886C1143.578,163.813,1143.766,163.759,1143.744,163.611"/>
	<path fill="#4A4A4A" d="M1142.479,162.557c-0.508-0.394-1.047-0.82-0.594-1.512c0.367-0.559,1.111-0.836,1.746-0.553
		c0.582,0.26,0.871,1.259,0.389,1.734c-0.396,0.393-1.049,0.276-1.554,0.281c-0.161,0.002-0.2,0.245-0.038,0.285
		c0.722,0.178,1.708,0.073,2.072-0.663c0.309-0.622-0.061-1.714-0.734-1.956c-0.823-0.296-1.686-0.019-2.161,0.706
		c-0.527,0.798-0.007,1.47,0.729,1.863C1142.445,162.805,1142.59,162.645,1142.479,162.557"/>
	<path fill="#4A4A4A" d="M1132.936,164.602c-0.31,3.625-0.191,7.459,0.234,11.07c0.136,1.152,0.466,2.271,1.404,3.023
		c0.859,0.689,2.021,0.873,3.096,0.863c0.149-0.002,0.195-0.248,0.037-0.271c-1.175-0.174-2.355-0.244-3.229-1.157
		c-1.016-1.06-0.995-2.696-1.097-4.063c-0.23-3.161-0.181-6.301-0.198-9.467C1133.184,164.438,1132.948,164.441,1132.936,164.602"/>
	<path fill="#4A4A4A" d="M1152.523,164.602c-0.019,3.164,0.034,6.305-0.197,9.465c-0.103,1.377-0.086,2.994-1.096,4.064
		c-0.867,0.919-2.06,0.984-3.23,1.157c-0.156,0.022-0.113,0.271,0.037,0.271c1.074,0.01,2.236-0.173,3.098-0.863
		c0.938-0.752,1.269-1.87,1.403-3.022c0.427-3.612,0.544-7.446,0.235-11.071C1152.76,164.443,1152.524,164.438,1152.523,164.602"/>
	<path fill="#4A4A4A" d="M1137.654,179.618c3.502,0.059,7.002-0.103,10.508,0.01c0.211,0.007,0.211-0.321,0-0.328
		c-3.475-0.116-7.044-0.251-10.508,0.087C1137.508,179.4,1137.502,179.615,1137.654,179.618"/>
	<path fill="#4A4A4A" d="M1127.217,166.354c-0.716,0.752-0.455,1.631,0.496,2c1.643,0.636,3.723,0.5,5.41,0.164
		c0.198-0.039,0.113-0.338-0.083-0.302c-1.03,0.188-2.056,0.275-3.103,0.208c-0.566-0.035-1.144-0.1-1.696-0.232
		c-0.653-0.156-1.813-0.59-0.821-1.633C1127.549,166.424,1127.346,166.22,1127.217,166.354"/>
	<path fill="#4A4A4A" d="M1133.095,166.245c-1.657-0.735-4.284-1.026-5.849,0.087c-0.15,0.105-0.006,0.357,0.146,0.249
		c1.561-1.113,3.936-0.668,5.618-0.136C1133.127,166.482,1133.211,166.296,1133.095,166.245"/>
	<path fill="#4A4A4A" d="M1132.992,166.982c-1.008-0.362-2.17-0.422-3.226-0.271c-0.348,0.05-1.313,0.074-1.22,0.65
		c0.092,0.57,1.297,0.464,1.628,0.47c0.954,0.017,2.027,0.062,2.915-0.338c0.19-0.086,0.024-0.361-0.163-0.279
		c-0.348,0.151-4.014,0.644-3.95-0.014c0.021-0.22,1.703-0.257,1.972-0.255c0.675,0.006,1.323,0.13,1.983,0.255
		C1133.075,167.229,1133.13,167.031,1132.992,166.982"/>
	<path fill="#4A4A4A" d="M1158.336,166.559c0.992,1.045-0.168,1.478-0.821,1.635c-0.554,0.133-1.13,0.195-1.695,0.231
		c-1.046,0.067-2.072-0.021-3.103-0.209c-0.197-0.034-0.281,0.263-0.084,0.302c1.688,0.336,3.768,0.473,5.41-0.164
		c0.953-0.369,1.213-1.246,0.496-1.998C1158.411,166.22,1158.207,166.424,1158.336,166.559"/>
	<path fill="#4A4A4A" d="M1152.746,166.445c1.685-0.532,4.059-0.979,5.619,0.136c0.149,0.106,0.295-0.144,0.145-0.249
		c-1.563-1.113-4.19-0.822-5.848-0.087C1152.547,166.296,1152.629,166.484,1152.746,166.445"/>
	<path fill="#4A4A4A" d="M1152.824,167.2c0.659-0.125,1.309-0.249,1.982-0.255c0.329-0.004,1.876-0.038,1.973,0.255
		c0.115,0.353-1.765,0.309-1.949,0.304c-0.676-0.02-1.371-0.016-2.002-0.29c-0.188-0.081-0.354,0.193-0.162,0.279
		c0.848,0.381,1.853,0.347,2.766,0.34c0.36-0.003,1.681,0.131,1.777-0.472c0.092-0.567-0.871-0.601-1.199-0.647
		c-1.061-0.153-2.231-0.097-3.246,0.269C1152.627,167.031,1152.68,167.229,1152.824,167.2"/>
	<path fill="#4A4A4A" d="M1133.189,167.49c6.467,0.328,12.979,0.236,19.452,0.328c0.221,0.004,0.221-0.338,0-0.34
		c-6.475-0.092-12.979-0.367-19.452-0.221C1133.041,167.264,1133.042,167.482,1133.189,167.49"/>
	<path fill="#4A4A4A" d="M1133.215,173.036c3.139,0.512,6.438,0.517,9.611,0.51c3.193-0.008,6.452-0.09,9.621-0.524
		c0.182-0.023,0.141-0.334-0.044-0.321c-3.197,0.209-6.368,0.483-9.577,0.493c-3.206,0.013-6.381-0.305-9.58-0.396
		C1133.113,172.794,1133.077,173.014,1133.215,173.036"/>
	<path fill="#4A4A4A" d="M1148.127,172.38c-0.381,0.015-0.322-1.769-0.295-2.106c0.014-0.156,0.101-1.643,0.417-1.748
		c0.452-0.151,0.425,1.597,0.419,1.799c-0.021,0.787-0.223,1.449-0.66,2.104c-0.076,0.113,0.075,0.269,0.188,0.189
		c0.788-0.54,0.815-1.893,0.803-2.73c-0.008-0.438-0.021-1.717-0.681-1.765c-0.491-0.035-0.637,0.951-0.69,1.286
		c-0.154,0.951-0.293,2.301,0.223,3.176c0.031,0.053,0.09,0.072,0.148,0.061c0.053-0.011,0.105-0.021,0.16-0.033
		C1148.287,172.585,1148.259,172.375,1148.127,172.38"/>
	<path fill="#4A4A4A" d="M1150.809,172.258c-0.381,0.016-0.322-1.77-0.295-2.107c0.015-0.156,0.102-1.642,0.417-1.748
		c0.452-0.15,0.425,1.598,0.419,1.799c-0.021,0.787-0.223,1.451-0.661,2.105c-0.074,0.112,0.076,0.268,0.189,0.188
		c0.788-0.54,0.814-1.894,0.802-2.731c-0.008-0.438-0.021-1.716-0.68-1.764c-0.492-0.036-0.637,0.951-0.691,1.286
		c-0.154,0.95-0.293,2.301,0.223,3.176c0.03,0.054,0.091,0.072,0.148,0.062c0.053-0.013,0.105-0.022,0.16-0.033
		C1150.969,172.462,1150.939,172.253,1150.809,172.258"/>
	<path fill="#4A4A4A" d="M1145.615,172.505c-0.568-0.378-0.654-3.767,0.074-3.919c0.233-0.049,0.228,1.493,0.213,1.816
		c-0.009,0.203-0.06,1.938-0.381,2.067c-0.14,0.056-0.131,0.27,0.035,0.272c0.852,0.018,1.065-4.334,0.229-4.699
		c-0.073-0.031-0.14-0.025-0.2,0.025c-0.623,0.541-0.721,1.815-0.684,2.574c0.024,0.528,0.058,1.797,0.598,2.061
		C1145.633,172.77,1145.74,172.588,1145.615,172.505"/>
	<path fill="#4A4A4A" d="M1142.899,172.548c-0.51-0.496-0.393-1.679-0.355-2.348c0.013-0.241-0.015-1.32,0.149-1.491
		c0.399-0.417,0.488,1.063,0.508,1.335c0.025,0.347,0.076,2.396-0.38,2.433c-0.163,0.014-0.213,0.25-0.04,0.297
		c0.775,0.205,0.771-1.979,0.771-2.316c-0.001-0.468,0.035-2.311-0.711-2.366c-0.604-0.046-0.532,1.118-0.562,1.481
		c-0.065,0.826-0.366,2.611,0.484,3.15C1142.872,172.79,1142.99,172.636,1142.899,172.548"/>
	<path fill="#4A4A4A" d="M1140.336,172.586c-0.412,0.045-0.486-1.945-0.492-2.206c-0.007-0.262-0.073-1.842,0.259-1.937
		c0.563-0.158,0.528,3.722,0.114,4.141c-0.154,0.157,0.072,0.368,0.238,0.236c0.678-0.537,0.637-5.118-0.385-4.774
		c-1.035,0.349-0.643,4.957,0.297,4.771C1140.494,172.79,1140.468,172.57,1140.336,172.586"/>
	<path fill="#4A4A4A" d="M1137.712,172.28c-0.448-0.517-0.407-1.634-0.444-2.296c-0.021-0.379-0.043-0.771,0.039-1.145
		c0.144-0.636,0.189-0.211,0.272,0.053c0.084,0.268,0.412,3.353,0.047,3.34c-0.114-0.004-0.179,0.149-0.095,0.229
		c0.559,0.521,0.572-1.089,0.575-1.236c0.009-0.603-0.022-1.209-0.108-1.806c-0.046-0.317-0.076-0.826-0.313-1.079
		c-0.511-0.541-0.724,0.502-0.747,0.859c-0.044,0.639,0.052,1.289,0.138,1.92c0.061,0.447,0.068,1.068,0.488,1.354
		C1137.686,172.555,1137.799,172.38,1137.712,172.28"/>
	<path fill="#4A4A4A" d="M1135.03,172.036c-0.448-0.517-0.407-1.636-0.444-2.295c-0.021-0.38-0.043-0.771,0.039-1.146
		c0.143-0.635,0.189-0.211,0.271,0.054c0.084,0.267,0.412,3.352,0.048,3.34c-0.114-0.004-0.18,0.15-0.096,0.228
		c0.56,0.521,0.572-1.089,0.575-1.235c0.009-0.604-0.021-1.209-0.107-1.807c-0.047-0.316-0.076-0.826-0.313-1.078
		c-0.51-0.541-0.723,0.502-0.746,0.859c-0.045,0.638,0.051,1.288,0.137,1.919c0.062,0.448,0.068,1.069,0.488,1.354
		C1135.004,172.309,1135.117,172.135,1135.03,172.036"/>
</g>
<g opacity="0.15">
	<path fill="#4A4A4A" d="M995.454,219.922c0.586-2.402-0.953-4.582-1.734-6.738c-0.431-1.191-0.627-2.457-0.563-3.724
		c0.059-1.151,0.536-3.664,2.271-2.856c0.115,0.055,0.213-0.104,0.102-0.174c-0.836-0.515-1.788,0.116-2.164,0.896
		c-0.552,1.142-0.52,2.661-0.355,3.887c0.399,2.997,2.849,5.554,2.314,8.677C995.311,219.97,995.434,220.008,995.454,219.922"/>
	<path fill="#4A4A4A" d="M996.503,219.922c0.009-1.148,0.084-2.229,0.503-3.311c0.378-0.978,0.854-1.914,1.129-2.93
		c0.437-1.611,0.596-3.537,0.111-5.152c-0.256-0.856-1.64-3.269-2.747-1.973c-0.487,0.57-0.464,1.61-0.502,2.311
		c-0.06,1.104-0.002,2.208,0.068,3.31c0.166,2.617,0.306,5.24,0.521,7.854c0.011,0.131,0.216,0.135,0.209,0
		c-0.095-1.948-0.249-3.896-0.376-5.842c-0.125-1.91-0.33-3.847-0.169-5.762c0.04-0.469,0.059-0.986,0.253-1.423
		c0.354-0.791,1.132-0.526,1.621-0.032c0.573,0.58,0.889,1.405,1.037,2.194c0.314,1.663,0.098,3.549-0.453,5.138
		c-0.319,0.922-0.771,1.791-1.072,2.719c-0.305,0.94-0.313,1.918-0.293,2.898C996.346,220.023,996.502,220.023,996.503,219.922"/>
	<path fill="#4A4A4A" d="M995.514,206.527c0.753,0.88,0.788,2.188,0.896,3.287c0.105,1.096,0.151,2.195,0.144,3.297
		c-0.009,1.106-0.072,2.214-0.192,3.313c-0.13,1.188-0.389,2.347-0.569,3.524c-0.016,0.104,0.131,0.15,0.162,0.044
		c0.681-2.312,0.813-4.917,0.796-7.312c-0.01-1.238-0.091-2.476-0.249-3.703c-0.119-0.916-0.226-1.854-0.877-2.562
		C995.554,206.346,995.449,206.454,995.514,206.527"/>
	<path fill="#4A4A4A" d="M996.093,219.98c0.041-1.526,0.263-2.988,0.669-4.461c0.359-1.297,0.754-2.59,0.919-3.931
		c0.146-1.176-0.021-2.354-0.523-3.432c-0.195-0.417-1.063-2.198-1.734-1.554c-0.067,0.066,0.023,0.193,0.105,0.137
		c0.164-0.116,0.448,0.07,0.56,0.181c0.141,0.142,0.259,0.319,0.373,0.481c0.139,0.199,0.264,0.41,0.376,0.625
		c0.276,0.529,0.475,1.104,0.58,1.691c0.214,1.198,0,2.397-0.271,3.569c-0.516,2.235-1.272,4.362-1.206,6.69
		C995.943,220.079,996.091,220.079,996.093,219.98"/>
	<path fill="#4A4A4A" d="M995.678,206.727c-0.398,2.063-0.194,4.162,0.027,6.231c0.113,1.06,0.237,2.116,0.302,3.179
		c0.065,1.1-0.005,2.174-0.038,3.271c-0.003,0.083,0.128,0.103,0.146,0.02c0.425-1.979,0.052-4.166-0.178-6.15
		c-0.251-2.172-0.451-4.336-0.125-6.512C995.825,206.677,995.694,206.637,995.678,206.727"/>
	<path fill="#4A4A4A" d="M995.814,206.791c-0.696-0.534-1.533-0.023-1.854,0.682c-0.5,1.103-0.271,2.498-0.035,3.637
		c0.299,1.442,0.67,2.869,0.947,4.316c0.283,1.477,0.468,2.965,0.729,4.443c0.016,0.085,0.156,0.066,0.15-0.021
		c-0.158-2.264-0.639-4.531-1.144-6.74c-0.278-1.211-0.646-2.426-0.705-3.674c-0.028-0.572-0.016-1.186,0.181-1.729
		c0.242-0.675,0.955-1.248,1.659-0.795C995.822,206.959,995.883,206.843,995.814,206.791"/>
	<path fill="#4A4A4A" d="M995.418,219.348c-0.203,0.036-0.589,0.248-0.43,0.512c0.171,0.285,0.806,0.287,1.083,0.265
		c0.258-0.022,0.709-0.09,0.79-0.396c0.064-0.248-0.168-0.438-0.39-0.343c-0.073,0.032-0.048,0.149,0.022,0.167
		c0.083,0,0.095,0.041,0.036,0.127c0.003,0.123-0.065,0.182-0.206,0.174c-0.139,0.037-0.286,0.054-0.428,0.057
		c-0.133,0.004-0.312,0.007-0.431-0.041c-0.207-0.084-0.269-0.273-0.007-0.366C995.559,219.467,995.52,219.329,995.418,219.348"/>
	<path fill="#4A4A4A" d="M995.026,219.533c-0.197,0.223-0.286,0.548-0.101,0.81c0.23,0.324,0.758,0.319,1.107,0.282
		c0.32-0.033,0.851-0.083,1.044-0.391c0.173-0.271,0-0.599-0.244-0.754c-0.072-0.045-0.168,0.047-0.119,0.119
		c0.04,0.063,0.084,0.125,0.131,0.183c0.029,0.313-0.069,0.489-0.297,0.528c-0.117,0.058-0.289,0.071-0.415,0.092
		c-0.175,0.025-0.356,0.041-0.533,0.023c-0.467-0.043-0.7-0.396-0.453-0.8C995.192,219.555,995.085,219.467,995.026,219.533"/>
	<path fill="#4A4A4A" d="M995.208,220.451c0.12,1.18,0.195,2.348,0.119,3.533c-0.073,1.156-0.256,2.301-0.38,3.451
		c-0.131,1.222-0.545,3.909,1.322,4.099c1.842,0.187,1.491-3.077,1.378-4.093c-0.26-2.308-0.9-4.556-1.032-6.879
		c-0.009-0.151-0.243-0.153-0.236,0c0.075,1.828,0.503,3.606,0.816,5.403c0.162,0.933,1.02,6.091-1.173,5.263
		c-0.999-0.377-0.988-1.607-0.943-2.496c0.047-0.939,0.173-1.871,0.284-2.806c0.219-1.827,0.331-3.675,0.004-5.497
		C995.351,220.341,995.199,220.359,995.208,220.451"/>
	<path fill="#4A4A4A" d="M1003.363,210.736c1.042,0.037,1.857,0.422,2.3,1.408c0.407,0.91,0.458,1.957,0.351,2.937
		c-0.211,1.914-1.05,3.674-1.605,5.498c-0.544,1.78-0.542,3.539-0.521,5.385c0.021,1.652,0.104,3.302,0.231,4.949
		c0.073,0.937,0.158,1.872,0.247,2.807c0.1,1.035,0.23,2.104-0.006,3.13c-0.104,0.457-0.276,1.043-0.653,1.353
		c-0.384,0.313-0.757,0.137-0.946-0.29c-0.142-0.319-0.104-0.723-0.111-1.066c-0.022-1.017-0.038-2.033-0.047-3.052
		c-0.015-1.996-0.003-3.994,0.034-5.989c0.036-1.938,0.183-3.899-0.066-5.828c-0.274-2.125-1.322-4.027-1.682-6.127
		c-0.31-1.814,0.132-4.873,2.477-5.078c0.126-0.011,0.13-0.2,0-0.199c-1.547,0.008-2.468,1.578-2.739,2.938
		c-0.432,2.149,0.529,4.211,1.167,6.211c0.726,2.278,0.67,4.59,0.613,6.953c-0.057,2.373-0.074,4.746-0.055,7.12
		c0.012,1.192-0.009,2.397,0.063,3.589c0.032,0.545,0.25,1.284,0.928,1.275c0.667-0.01,0.981-0.842,1.155-1.374
		c0.34-1.041,0.248-2.153,0.146-3.226c-0.196-2.068-0.389-4.138-0.473-6.215c-0.086-2.132-0.273-4.423,0.252-6.505
		c0.58-2.298,1.771-4.464,1.832-6.877c0.026-1.032-0.146-2.208-0.814-3.037c-0.505-0.627-1.298-0.821-2.074-0.821
		C1003.276,210.604,1003.276,210.734,1003.363,210.736"/>
	<path fill="#4A4A4A" d="M1003.113,211.195c-1.642,0.734-1.938,2.654-1.776,4.258c0.123,1.22,0.435,3.938,2.328,3.378
		c0.745-0.22,1.169-0.907,1.411-1.603c0.342-0.979,0.474-2.058,0.445-3.092c-0.036-1.336-0.544-3.529-2.392-2.97
		c-0.116,0.035-0.064,0.194,0.05,0.178c1.947-0.288,2.163,1.919,2.119,3.337c-0.038,1.223-0.288,3.865-1.927,3.989
		c-1.704,0.129-1.841-2.692-1.885-3.853c-0.055-1.375,0.373-2.856,1.702-3.49C1003.281,211.286,1003.202,211.156,1003.113,211.195"
		/>
	<path fill="#4A4A4A" d="M1011.24,214.21c-0.714-0.248-1.952-0.385-2.348-1.092c-0.373-0.67-0.474-1.611-0.593-2.359
		c-0.255-1.604-0.386-3.299-0.354-4.925c0.018-0.917,1.18-1.273,1.937-1.428c0.72-0.146,1.461-0.152,2.192-0.141
		c1.525,0.022,3.4,0.053,4.271,1.541c0.066,0.114,0.243,0.012,0.178-0.103c-0.896-1.533-2.771-1.61-4.355-1.632
		c-0.869-0.012-1.756-0.01-2.603,0.208c-0.572,0.146-1.443,0.429-1.725,0.997c-0.155,0.315-0.088,0.722-0.077,1.058
		c0.017,0.497,0.032,0.993,0.059,1.489c0.05,0.999,0.132,1.998,0.291,2.984c0.127,0.785,0.223,1.93,0.725,2.58
		c0.494,0.642,1.639,0.768,2.363,0.963C1011.294,214.379,1011.33,214.241,1011.24,214.21"/>
	<path fill="#4A4A4A" d="M1011.158,214.335c0.007,4.519,0.128,9.037,0.14,13.556c0.001,0.131,0.204,0.131,0.204,0
		c-0.009-4.515,0.006-9.045-0.18-13.556C1011.317,214.23,1011.158,214.229,1011.158,214.335"/>
	<path fill="#4A4A4A" d="M1009.236,210.805c0.108-0.024,0.219-0.046,0.33-0.054c0.096-0.006,0.193,0.004,0.287-0.021
		c0.069-0.02,0.066-0.119,0-0.14c-0.194-0.059-0.472,0.001-0.656,0.07C1009.109,210.693,1009.143,210.825,1009.236,210.805"/>
	<path fill="#4A4A4A" d="M1008.97,205.75c-0.044,1.648,0.009,3.309,0.131,4.951c0.011,0.132,0.217,0.133,0.206,0
		c-0.119-1.65-0.139-3.299-0.189-4.951C1009.113,205.655,1008.972,205.655,1008.97,205.75"/>
	<path fill="#4A4A4A" d="M1009.412,205.686c0.041,1.644,0.198,3.297,0.321,4.937c0.01,0.131,0.215,0.132,0.206,0
		c-0.109-1.642-0.188-3.304-0.378-4.937C1009.552,205.592,1009.41,205.585,1009.412,205.686"/>
	<path fill="#4A4A4A" d="M1010.487,205.455c0.015,1.682,0.159,3.373,0.25,5.053c0.007,0.127,0.204,0.128,0.196,0
		c-0.093-1.681-0.132-3.378-0.299-5.053C1010.626,205.361,1010.485,205.355,1010.487,205.455"/>
	<path fill="#4A4A4A" d="M1010.856,210.629c0.168-0.072,0.343-0.014,0.513-0.049c0.078-0.018,0.063-0.119,0-0.143
		c-0.09-0.035-0.211-0.019-0.305-0.006c-0.097,0.012-0.188,0.041-0.271,0.088C1010.721,210.563,1010.785,210.66,1010.856,210.629"/>
	<path fill="#4A4A4A" d="M1011.014,205.456c0.014,0.899,0.117,1.805,0.163,2.703c0.039,0.76-0.053,1.627,0.095,2.371
		c0.017,0.081,0.138,0.073,0.157,0c0.079-0.282,0.021-0.632,0.009-0.921c-0.019-0.508-0.047-1.015-0.076-1.521
		c-0.054-0.877-0.059-1.785-0.2-2.652C1011.146,205.352,1011.013,205.373,1011.014,205.456"/>
	<path fill="#4A4A4A" d="M1012.223,205.436c-0.073,1.66,0.036,3.334,0.025,4.996c-0.001,0.129,0.2,0.129,0.2,0
		c-0.004-1.662-0.013-3.336-0.079-4.996C1012.365,205.342,1012.227,205.342,1012.223,205.436"/>
	<path fill="#4A4A4A" d="M1012.352,210.527c0.079-0.025,0.174-0.014,0.255-0.008c0.076,0.006,0.17,0.034,0.244,0.017
		c0.063-0.017,0.063-0.095,0.018-0.127c-0.068-0.048-0.194-0.04-0.274-0.043c-0.09-0.003-0.191-0.007-0.278,0.024
		C1012.23,210.423,1012.264,210.557,1012.352,210.527"/>
	<path fill="#4A4A4A" d="M1012.721,205.449c0.063,1.677,0.11,3.343,0.019,5.02c-0.007,0.12,0.181,0.12,0.187,0
		c0.088-1.669,0.086-3.354-0.062-5.02C1012.855,205.357,1012.717,205.355,1012.721,205.449"/>
	<path fill="#4A4A4A" d="M1013.771,205.593c-0.137,1.646-0.194,3.304-0.272,4.953c-0.005,0.121,0.182,0.119,0.188,0
		c0.092-1.647,0.188-3.303,0.222-4.953C1013.911,205.502,1013.778,205.505,1013.771,205.593"/>
	<path fill="#4A4A4A" d="M1013.582,210.672c0.064-0.006,0.13-0.007,0.195-0.004c0.063,0.004,0.128,0.021,0.191,0.021
		c0.071-0.002,0.094-0.096,0.036-0.133c-0.12-0.076-0.313-0.053-0.442-0.02C1013.491,210.557,1013.504,210.678,1013.582,210.672"/>
	<path fill="#4A4A4A" d="M1014.189,205.605c-0.124,1.653-0.178,3.313-0.267,4.97c-0.005,0.112,0.171,0.112,0.177,0
		c0.084-1.655,0.182-3.312,0.224-4.97C1014.325,205.521,1014.196,205.521,1014.189,205.605"/>
	<path fill="#4A4A4A" d="M1014.878,210.624c0.065-0.767,0.089-1.538,0.115-2.308c0.024-0.76,0.097-1.551,0.024-2.309
		c-0.009-0.095-0.136-0.094-0.146,0c-0.084,0.76-0.041,1.545-0.062,2.309c-0.021,0.77-0.061,1.537-0.066,2.308
		C1014.745,210.71,1014.871,210.707,1014.878,210.624"/>
	<path fill="#4A4A4A" d="M1015.347,206.143c-0.084,1.518-0.112,3.043-0.163,4.563c-0.004,0.118,0.182,0.118,0.185,0
		c0.05-1.518,0.175-3.046,0.133-4.563C1015.496,206.043,1015.354,206.044,1015.347,206.143"/>
	<path fill="#4A4A4A" d="M1012.86,214.434c0.759-0.106,1.533-0.375,2.134-0.865c0.707-0.576,0.921-1.373,1.104-2.231
		c0.381-1.769,0.625-3.69,0.486-5.499c-0.009-0.115-0.17-0.115-0.179,0c-0.136,1.668-0.1,3.303-0.413,4.959
		c-0.159,0.844-0.275,1.786-0.896,2.43c-0.604,0.627-1.451,0.892-2.276,1.068C1012.729,214.313,1012.771,214.445,1012.86,214.434"/>
	<path fill="#4A4A4A" d="M1012.681,214.373c-0.306,4.477-0.297,9.036-0.015,13.516c0.008,0.129,0.207,0.131,0.203,0
		c-0.176-4.517-0.172-9-0.028-13.516C1012.844,214.27,1012.688,214.271,1012.681,214.373"/>
	<path fill="#4A4A4A" d="M1011.15,228.3c0.643-0.024,1.341-0.174,1.975-0.038c0.115,0.024,0.163-0.144,0.049-0.177
		c-0.611-0.179-1.401-0.003-2.022,0.067C1011.06,228.164,1011.055,228.303,1011.15,228.3"/>
	<path fill="#4A4A4A" d="M1011.049,228.178c-0.104,0.465-0.137,0.958-0.141,1.436c0,0.128,0.195,0.127,0.198,0
		c0.013-0.475,0.061-0.941,0.101-1.414C1011.214,228.107,1011.068,228.089,1011.049,228.178"/>
	<path fill="#4A4A4A" d="M1013.112,228.139c-0.07,0.508-0.043,1.035,0.032,1.541c0.02,0.127,0.207,0.071,0.19-0.052
		c-0.065-0.494-0.072-0.974-0.072-1.47C1013.264,228.075,1013.125,228.05,1013.112,228.139"/>
	<path fill="#4A4A4A" d="M1011.036,229.736c0.738-0.006,1.48-0.014,2.22-0.033c0.119-0.003,0.119-0.18,0-0.184
		c-0.732-0.031-1.489-0.004-2.22,0.068C1010.943,229.598,1010.939,229.736,1011.036,229.736"/>
	<path fill="#4A4A4A" d="M1011.246,229.663c-0.337,1.542-0.393,3.151-0.232,4.721c0.095,0.937,0.325,2.464,1.583,2.433
		c1.144-0.028,1.095-1.517,1.077-2.311c-0.033-1.66-0.199-3.335-0.549-4.96c-0.03-0.142-0.24-0.081-0.215,0.06
		c0.222,1.224,0.405,2.446,0.483,3.688c0.051,0.766,0.444,3.167-0.741,3.282c-1.439,0.139-1.443-2.224-1.486-3.154
		c-0.059-1.25,0.049-2.481,0.228-3.718C1011.407,229.609,1011.268,229.564,1011.246,229.663"/>
	<path fill="#4A4A4A" d="M1012.27,234.589c-0.17,0.313-0.271,0.793-0.11,1.131c0.092,0.198,0.341,0.327,0.528,0.165
		c0.334-0.283,0.229-1.686-0.386-1.354c-0.071,0.039-0.033,0.139,0.038,0.145c0.238,0.018,0.299,0.231,0.313,0.434
		c0.006,0.093,0.005,0.188-0.004,0.281c-0.009,0.053-0.016,0.105-0.022,0.158c0,0.092-0.054,0.111-0.162,0.059
		c-0.187-0.01-0.168-0.029-0.183-0.217c-0.005-0.07-0.004-0.146,0.002-0.217c0.014-0.185,0.067-0.352,0.13-0.521
		C1012.446,234.564,1012.313,234.51,1012.27,234.589"/>
	<path fill="#4A4A4A" d="M1014.797,210.73c0.069,0.023,0.145,0.035,0.215,0.052c0.068,0.016,0.139,0.034,0.208,0.04
		c0.099,0.006,0.104-0.131,0.022-0.16c-0.068-0.025-0.146-0.034-0.217-0.048c-0.069-0.013-0.139-0.029-0.208-0.034
		C1014.727,210.573,1014.72,210.703,1014.797,210.73"/>
	<path fill="#4A4A4A" d="M990.118,213.864c-0.483,1.485-1.12,2.929-1.428,4.466c-0.284,1.423-0.196,2.919-0.177,4.361
		c0.021,1.428,0.092,2.853,0.195,4.275c0.114,1.553,0.334,3.106,0.393,4.661c0.032,0.858-0.039,1.749-0.433,2.529
		c-0.106,0.214-0.284,0.558-0.512,0.647c-0.435,0.172-0.659-0.134-0.799-0.453c-0.202-0.468-0.115-1.131-0.125-1.635
		c-0.032-1.656-0.047-3.314-0.041-4.973c0.005-1.73,0.031-3.461,0.074-5.19c0.037-1.528,0.078-3.069-0.17-4.583
		c-0.292-1.785-1.105-3.417-1.51-5.172c-0.348-1.516-0.198-2.889-0.082-4.406c-0.04,0.041-0.08,0.08-0.12,0.12
		c0.091-0.012,0.646-0.146,0.725-0.073c0.031,0.03,0.017,0.235,0.019,0.271c0.019,0.317,0.023,0.64,0.03,0.957
		c0.017,0.743-0.022,1.506,0.058,2.245c0.042,0.386,0.176,1.296,0.684,1.342c0.473,0.043,0.554-0.469,0.581-0.809
		c0.077-0.998,0.084-1.996,0.041-2.996c-0.011-0.237-0.053-0.497-0.036-0.735c0.029-0.428,0.136-0.313,0.5-0.3
		c0.174,0.005,0.142,0.09,0.104-0.035c0.026,0.092,0.005,0.221,0.007,0.316c0.016,0.74-0.064,1.477-0.048,2.215
		c0.013,0.458,0.061,0.916,0.146,1.365c0.044,0.229,0.089,0.594,0.299,0.74c0.556,0.391,0.887-0.761,0.958-1.095
		c0.241-1.146,0.217-2.362,0.083-3.519l-0.122,0.123c0.307-0.011,0.614-0.021,0.921-0.029l-0.123-0.123
		c0.087,0.904,0.158,1.773,0.109,2.686c-0.048,0.899,0.039,1.93-0.238,2.793c-0.041,0.129,0.155,0.18,0.201,0.055
		c0.311-0.823,0.225-1.769,0.271-2.637c0.055-0.983-0.004-1.916-0.099-2.896c-0.006-0.063-0.052-0.125-0.123-0.123
		c-0.307,0.011-0.614,0.021-0.921,0.03c-0.06,0.002-0.13,0.055-0.122,0.123c0.101,0.867,0.124,1.738,0.044,2.607
		c-0.038,0.424-0.081,0.875-0.233,1.277c-0.106,0.281-0.454,0.713-0.603,0.255c-0.075-0.233-0.104-0.487-0.137-0.729
		c-0.159-1.147-0.004-2.313-0.033-3.471c-0.001-0.054-0.037-0.101-0.088-0.115c-0.307-0.089-0.619-0.131-0.933-0.067
		c-0.049,0.01-0.092,0.067-0.089,0.116c0.069,1.188,0.125,2.377,0.063,3.565c-0.013,0.224-0.002,1.528-0.517,1.033
		c-0.403-0.39-0.336-1.291-0.344-1.813c-0.01-0.769-0.012-1.539-0.051-2.307c-0.006-0.113,0.021-0.369-0.057-0.475
		c-0.172-0.227-0.715-0.038-0.929-0.012c-0.067,0.008-0.114,0.049-0.119,0.119c-0.101,1.301-0.255,2.518-0.03,3.819
		c0.306,1.785,1.126,3.418,1.52,5.18c0.396,1.765,0.325,3.585,0.28,5.38c-0.048,1.883-0.072,3.768-0.072,5.65
		c-0.001,0.904,0.005,1.809,0.017,2.713c0.012,0.947-0.054,1.941,0.064,2.883c0.114,0.924,1.037,1.499,1.637,0.582
		c0.925-1.412,0.645-3.199,0.492-4.777c-0.149-1.569-0.288-3.142-0.371-4.715c-0.096-1.83-0.175-3.69-0.082-5.521
		c0.101-1.975,0.974-3.818,1.551-5.682C990.301,213.809,990.149,213.77,990.118,213.864"/>
</g>
</svg>
