<?xml version="1.0" encoding="utf-8"?>
<!-- Generator: Adobe Illustrator 16.0.0, SVG Export Plug-In . SVG Version: 6.00 Build 0)  -->
<!DOCTYPE svg PUBLIC "-//W3C//DTD SVG 1.1//EN" "http://www.w3.org/Graphics/SVG/1.1/DTD/svg11.dtd">
<svg version="1.1" id="Layer_1" xmlns="http://www.w3.org/2000/svg" xmlns:xlink="http://www.w3.org/1999/xlink" x="0px" y="0px"
	 width="800px" height="147.666px" viewBox="0 0 800 147.666" enable-background="new 0 0 800 147.666" xml:space="preserve">
<path opacity="0.56" fill="#E0E0E0" d="M175.184,51.842c0-8.686,7.042-15.728,15.729-15.728c1.045,0,2.066,0.104,3.055,0.299
	c1.615-4.366,5.816-7.479,10.745-7.479c4.8,0,8.909,2.956,10.612,7.146c0.922-0.441,1.955-0.689,3.045-0.689
	c3.902,0,7.066,3.164,7.066,7.066c0,0.172-0.009,0.343-0.02,0.513c5.213,0.444,9.308,4.814,9.308,10.144h-59.484
	C175.206,52.692,175.184,52.271,175.184,51.842z"/>
<path opacity="0.56" fill="#E0E0E0" d="M328.925,55.661c0-7.088,5.747-12.834,12.835-12.834c0.854,0,1.687,0.084,2.493,0.243
	c1.319-3.563,4.747-6.103,8.769-6.103c3.918,0,7.271,2.411,8.661,5.83c0.752-0.36,1.595-0.562,2.485-0.562
	c3.185,0,5.766,2.581,5.766,5.766c0,0.141-0.007,0.279-0.017,0.418c4.255,0.363,7.596,3.93,7.596,8.278H328.97
	C328.943,56.355,328.925,56.011,328.925,55.661z"/>
<path opacity="0.56" fill="#E0E0E0" d="M13.928,35.005c0-6.152,4.987-11.141,11.141-11.141c0.74,0,1.464,0.074,2.164,0.212
	c1.145-3.093,4.119-5.297,7.61-5.297c3.4,0,6.31,2.093,7.517,5.061c0.653-0.313,1.385-0.488,2.157-0.488
	c2.764,0,5.005,2.241,5.005,5.005c0,0.122-0.006,0.243-0.015,0.363c3.693,0.315,6.593,3.41,6.593,7.185H13.967
	C13.943,35.607,13.928,35.308,13.928,35.005z"/>
<path opacity="0.56" fill="#E0E0E0" d="M306.301,35.419c0-5.652-4.583-10.234-10.235-10.234c-0.681,0-1.346,0.067-1.989,0.194
	c-1.052-2.842-3.784-4.867-6.991-4.867c-3.125,0-5.798,1.923-6.906,4.649c-0.601-0.287-1.272-0.448-1.982-0.448
	c-2.54,0-4.599,2.059-4.599,4.599c0,0.112,0.006,0.223,0.014,0.333c-3.393,0.29-6.057,3.134-6.057,6.602h38.71
	C306.286,35.973,306.301,35.698,306.301,35.419z"/>
<path opacity="0.56" fill="#E0E0E0" d="M472.184,51.842c0-8.686,7.042-15.728,15.729-15.728c1.045,0,2.066,0.104,3.055,0.299
	c1.615-4.366,5.816-7.479,10.745-7.479c4.8,0,8.909,2.956,10.612,7.146c0.922-0.441,1.955-0.689,3.045-0.689
	c3.902,0,7.066,3.164,7.066,7.066c0,0.172-0.009,0.343-0.02,0.513c5.213,0.444,9.308,4.814,9.308,10.144h-59.484
	C472.206,52.692,472.184,52.271,472.184,51.842z"/>
<path opacity="0.56" fill="#E0E0E0" d="M625.925,55.661c0-7.088,5.747-12.834,12.835-12.834c0.854,0,1.687,0.084,2.493,0.243
	c1.319-3.563,4.747-6.103,8.769-6.103c3.918,0,7.271,2.411,8.661,5.83c0.752-0.36,1.595-0.562,2.485-0.562
	c3.185,0,5.766,2.581,5.766,5.766c0,0.141-0.007,0.279-0.017,0.418c4.255,0.363,7.596,3.93,7.596,8.278H625.97
	C625.943,56.355,625.925,56.011,625.925,55.661z"/>
<path opacity="0.56" fill="#E0E0E0" d="M394.928,35.005c0-6.152,4.987-11.141,11.141-11.141c0.74,0,1.464,0.074,2.164,0.212
	c1.145-3.093,4.119-5.297,7.61-5.297c3.4,0,6.31,2.093,7.517,5.061c0.653-0.313,1.385-0.488,2.157-0.488
	c2.764,0,5.005,2.241,5.005,5.005c0,0.122-0.006,0.243-0.015,0.363c3.693,0.315,6.593,3.41,6.593,7.185h-42.133
	C394.943,35.607,394.928,35.308,394.928,35.005z"/>
<path opacity="0.56" fill="#E0E0E0" d="M603.301,35.419c0-5.652-4.583-10.234-10.235-10.234c-0.681,0-1.346,0.067-1.989,0.194
	c-1.052-2.842-3.784-4.867-6.991-4.867c-3.125,0-5.798,1.923-6.906,4.649c-0.601-0.287-1.272-0.448-1.982-0.448
	c-2.54,0-4.599,2.059-4.599,4.599c0,0.112,0.006,0.223,0.014,0.333c-3.393,0.29-6.057,3.134-6.057,6.602h38.71
	C603.286,35.973,603.301,35.698,603.301,35.419z"/>
<g>
	<g>
		<rect x="168.555" y="107.019" fill="#846E63" width="3.272" height="26.132"/>
		<rect x="170.191" y="107.019" opacity="0.39" fill="#FFFFFF" width="1.636" height="26.132"/>
	</g>
	<path fill="#9BB339" d="M157.817,86.231c-0.114-0.673-0.177-1.364-0.177-2.069c0-6.798,5.51-12.309,12.308-12.309
		c6.797,0,12.308,5.511,12.308,12.309c0,0.709-0.063,1.403-0.178,2.079c5.635,0.826,9.963,5.679,9.963,11.544
		c0,6.444-5.225,11.669-11.669,11.669c-1.343,0-2.632-0.229-3.831-0.647c-1.246,2.369-3.729,3.985-6.593,3.985
		c-2.871,0-5.361-1.627-6.604-4.008c-1.219,0.432-2.53,0.67-3.896,0.67c-6.444,0-11.669-5.225-11.669-11.669
		C147.779,91.894,152.146,87.025,157.817,86.231z"/>
	<path opacity="0.19" fill="#FFFFFF" d="M169.909,71.854c0.014,0,0.026-0.001,0.039-0.001c6.797,0,12.308,5.511,12.308,12.309
		c0,0.709-0.063,1.403-0.178,2.079c5.635,0.826,9.963,5.679,9.963,11.544c0,6.444-5.225,11.669-11.669,11.669
		c-1.343,0-2.632-0.229-3.831-0.647c-1.246,2.369-3.729,3.985-6.593,3.985c-0.013,0-0.025-0.001-0.039-0.001V71.854z"/>
</g>
<g>
	<rect x="345.284" y="107.597" fill="#846E63" width="5.067" height="27.472"/>
	<rect x="347.817" y="107.597" opacity="0.39" fill="#FFFFFF" width="2.534" height="27.472"/>
	<path fill="#8DB14C" d="M336.151,85.868c-0.908-1.782-1.423-3.798-1.423-5.935c0-7.229,5.859-13.09,13.089-13.09
		s13.09,5.86,13.09,13.09c0,2.137-0.516,4.152-1.423,5.935c5.761,3.796,9.565,10.323,9.565,17.74
		c0,11.726-9.506,21.231-21.232,21.231c-11.726,0-21.231-9.506-21.231-21.231C326.586,96.191,330.39,89.664,336.151,85.868z"/>
	<path opacity="0.24" fill="#FFFFFF" d="M347.817,66.844c7.229,0,13.09,5.86,13.09,13.09c0,2.137-0.516,4.152-1.423,5.935
		c5.761,3.796,9.565,10.323,9.565,17.74c0,11.726-9.506,21.231-21.232,21.231V66.844z"/>
</g>
<line fill="none" stroke="#5D6E79" stroke-width="16" stroke-miterlimit="10" x1="801" y1="140.057" x2="0" y2="140.057"/>
<line fill="none" stroke="#FFFFFF" stroke-width="2" stroke-linecap="round" stroke-linejoin="round" stroke-miterlimit="10" stroke-dasharray="6,6" x1="801" y1="140.057" x2="0" y2="140.057"/>
<g>
	<path fill="#4D887B" d="M290.662,122.784c0,4.202,3.125,7.608,14.196,7.608c11.073,0,20.049-7.608,20.049-7.608
		s-8.976-7.609-20.049-7.609C293.787,115.175,290.662,118.581,290.662,122.784z"/>
	<path fill="#62A499" d="M287.82,132.411h46.943c1.502,0,2.731-1.229,2.731-2.731l0,0c0-3.818-3.124-6.943-6.943-6.943H287.82
		c-1.502,0-2.731,1.229-2.731,2.732v4.211C285.089,131.183,286.318,132.411,287.82,132.411z"/>
	<circle fill="#FFFFFF" cx="325.215" cy="131.573" r="5.485"/>
	<circle fill="#5D6E79" cx="325.215" cy="131.573" r="2.879"/>
	<circle fill="#FFFFFF" cx="293.525" cy="131.573" r="5.485"/>
	<circle fill="#5D6E79" cx="293.525" cy="131.573" r="2.879"/>
	<path fill="#FFFFFF" d="M318.476,122.306c0,1.904-5.475,1.293-12.229,1.293s-12.229,0.611-12.229-1.293
		c0-1.905,3.17-5.604,9.924-5.604C310.696,116.701,318.476,120.4,318.476,122.306z"/>
</g>
<g>
	<g>
		<g>
			<rect x="18.041" y="82.729" fill="#6B4D2B" width="4.55" height="8.002"/>
			<polygon fill="#D9BE93" points="56.69,100.865 34.461,79.119 12.23,100.865 12.23,130.446 56.69,130.446 			"/>
			<polygon fill="#B8996F" points="56.69,103.391 56.69,100.865 34.461,79.119 12.23,100.865 12.23,103.391 34.461,81.584 			"/>
			<g>
				<path fill="#84B242" d="M57.835,132.53v-1.122c0-0.531-0.473-0.962-1.057-0.962H12.143c-0.584,0-1.057,0.431-1.057,0.962v1.122
					H57.835z"/>
				<rect x="11.086" y="132.114" fill="#343131" width="46.749" height="0.416"/>
			</g>
			<g>
				<g>
					<rect x="17.696" y="107.544" fill="#AED4EB" width="7.966" height="10.923"/>
					<path fill="#80623E" d="M16.64,106.488v13.034h10.078v-13.034H16.64z M25.662,118.467h-7.966v-10.923h7.966V118.467z"/>
				</g>
				<polygon opacity="0.3" fill="#F0F0F0" points="25.662,107.819 17.696,113.943 17.696,115.71 25.662,109.586 				"/>
				<polygon opacity="0.3" fill="#F0F0F0" points="25.662,110.574 17.696,116.699 17.696,118.467 25.662,112.342 				"/>
			</g>
			<g>
				<g>
					<rect x="39.127" y="106.852" fill="#987B55" width="9.332" height="23.595"/>
					<polygon fill="#6B4D2B" points="38.599,106.323 38.599,130.976 39.655,130.976 39.655,129.918 39.654,129.918 39.654,107.38 
						47.931,107.38 47.931,129.918 47.925,129.918 47.925,130.976 48.987,130.976 48.987,106.323 					"/>
				</g>
				<rect x="37.851" y="130.446" fill="#6B4D2B" width="11.885" height="2.084"/>
				<g>
					<path fill="#B8996F" d="M46.918,116.632c-1.042,0.101-2.083,0.149-3.125,0.221c-1.042,0.066-2.083,0.089-3.125,0.136
						l-0.338,0.015l-0.018-0.371c-0.125-2.627-0.131-5.253-0.15-7.88l-0.003-0.508l0.51,0.001c2.083,0.007,4.167,0.027,6.251,0.085
						l0.438,0.012l-0.016,0.41l-0.156,3.94c-0.026,0.656-0.081,1.313-0.119,1.97C47.026,115.318,46.98,115.976,46.918,116.632z
						 M46.918,116.632c-0.062-0.656-0.108-1.313-0.147-1.97c-0.039-0.657-0.093-1.313-0.119-1.97l-0.156-3.94l0.422,0.422
						c-2.083,0.058-4.167,0.078-6.251,0.085l0.507-0.507c-0.019,2.627-0.025,5.253-0.15,7.88l-0.356-0.356
						c1.042,0.047,2.083,0.069,3.125,0.136C44.834,116.482,45.876,116.531,46.918,116.632z"/>
				</g>
				<g>
					<path fill="#B8996F" d="M46.918,128.487c-1.042,0.101-2.083,0.149-3.125,0.221c-1.042,0.066-2.083,0.089-3.125,0.136
						l-0.338,0.015l-0.018-0.371c-0.125-2.626-0.131-5.253-0.15-7.879l-0.003-0.508l0.51,0.001c2.083,0.007,4.167,0.027,6.251,0.085
						l0.438,0.012l-0.017,0.41l-0.155,3.939c-0.026,0.656-0.081,1.313-0.119,1.97C47.026,127.174,46.98,127.831,46.918,128.487z
						 M46.918,128.487c-0.062-0.656-0.108-1.313-0.147-1.97c-0.039-0.656-0.093-1.313-0.119-1.97l-0.155-3.939l0.422,0.422
						c-2.083,0.058-4.167,0.078-6.251,0.085l0.507-0.507c-0.019,2.626-0.025,5.253-0.15,7.879l-0.356-0.356
						c1.042,0.047,2.083,0.069,3.125,0.136C44.834,128.338,45.876,128.387,46.918,128.487z"/>
				</g>
				<circle fill="#202020" cx="46.698" cy="119.009" r="0.521"/>
			</g>
			<polygon fill="#80623E" points="34.461,73.925 7.08,101.306 12.159,101.306 34.461,79.647 56.762,101.306 61.841,101.306 			"/>
			<path fill="#80623E" d="M23.764,82.553c0,0.583-0.473,1.057-1.056,1.057h-4.784c-0.582,0-1.056-0.474-1.056-1.057v-1.761
				c0-0.584,0.474-1.057,1.056-1.057h4.784c0.583,0,1.056,0.473,1.056,1.057V82.553z"/>
		</g>
		<g>
			<polygon fill="#717389" points="59.105,100.865 81.336,79.119 103.566,100.865 103.566,130.446 59.105,130.446 			"/>
			<polygon fill="#5E547E" points="59.105,103.391 59.105,100.865 81.336,79.119 103.566,100.865 103.566,103.391 81.336,81.584 			
				"/>
			<g>
				<path fill="#84B242" d="M57.961,132.53v-1.122c0-0.531,0.474-0.962,1.057-0.962h44.637c0.583,0,1.056,0.431,1.056,0.962v1.122
					H57.961z"/>
				<rect x="57.961" y="132.114" fill="#343131" width="46.749" height="0.416"/>
			</g>
			<g>
				<g>
					<rect x="90.135" y="107.544" fill="#AED4EB" width="7.966" height="10.923"/>
					<path fill="#202020" d="M89.078,106.488v13.034h10.079v-13.034H89.078z M90.135,107.544h7.966v10.923h-7.966V107.544z"/>
				</g>
				<polygon opacity="0.3" fill="#F0F0F0" points="90.135,107.819 98.101,113.943 98.101,115.71 90.135,109.586 				"/>
				<polygon opacity="0.3" fill="#F0F0F0" points="90.135,110.574 98.101,116.699 98.101,118.467 90.135,112.342 				"/>
			</g>
			<g>
				<g>
					<rect x="67.338" y="106.852" fill="#776F88" width="9.332" height="23.595"/>
					<polygon fill="#202020" points="77.198,106.323 77.198,130.976 76.141,130.976 76.141,129.918 76.142,129.918 76.142,107.38 
						67.866,107.38 67.866,129.918 67.872,129.918 67.872,130.976 66.81,130.976 66.81,106.323 					"/>
				</g>
				<rect x="66.061" y="130.446" fill="#202020" width="11.886" height="2.084"/>
				<g>
					<path fill="#5B318B" d="M68.878,116.632c1.042-0.101,2.083-0.149,3.125-0.221c1.042-0.066,2.083-0.089,3.125-0.136
						l-0.356,0.356c-0.125-2.627-0.131-5.253-0.15-7.88l0.507,0.507c-2.083-0.007-4.167-0.027-6.251-0.085l0.422-0.422l-0.156,3.94
						c-0.026,0.656-0.081,1.313-0.119,1.97C68.986,115.318,68.94,115.976,68.878,116.632z M68.878,116.632
						c-0.062-0.656-0.108-1.313-0.147-1.97c-0.039-0.657-0.093-1.313-0.119-1.97l-0.156-3.94l-0.016-0.41l0.438-0.012
						c2.083-0.058,4.167-0.078,6.251-0.085l0.51-0.001l-0.003,0.508c-0.019,2.627-0.025,5.253-0.15,7.88l-0.018,0.371l-0.338-0.015
						c-1.042-0.047-2.083-0.069-3.125-0.136C70.961,116.781,69.92,116.732,68.878,116.632z"/>
				</g>
				<g>
					<path fill="#5B318B" d="M68.878,128.487c1.042-0.101,2.083-0.149,3.125-0.221c1.042-0.066,2.083-0.089,3.125-0.136
						l-0.356,0.356c-0.125-2.626-0.131-5.253-0.15-7.879l0.507,0.507c-2.083-0.007-4.167-0.027-6.251-0.085l0.422-0.422
						l-0.155,3.939c-0.026,0.656-0.081,1.313-0.119,1.97C68.986,127.174,68.94,127.831,68.878,128.487z M68.878,128.487
						c-0.062-0.656-0.108-1.313-0.147-1.97c-0.039-0.656-0.093-1.313-0.119-1.97l-0.155-3.939l-0.017-0.41l0.438-0.012
						c2.083-0.058,4.167-0.078,6.251-0.085l0.51-0.001l-0.003,0.508c-0.019,2.626-0.025,5.253-0.15,7.879l-0.018,0.371l-0.338-0.015
						c-1.042-0.047-2.083-0.069-3.125-0.136C70.961,128.637,69.92,128.588,68.878,128.487z"/>
				</g>
				<circle fill="#202020" cx="69.099" cy="119.009" r="0.521"/>
			</g>
			<polygon fill="#202020" points="81.336,73.925 108.717,101.306 103.637,101.306 81.336,79.647 59.035,101.306 53.956,101.306 			
				"/>
		</g>
	</g>
	<g>
		<rect x="71.802" y="74.197" fill="#A42B31" width="5.329" height="9.372"/>
		<polygon fill="#F0F0F0" points="31.859,95.44 57.898,69.97 83.937,95.44 83.937,130.089 31.859,130.089 		"/>
		<polygon fill="#C9C9C9" points="31.859,98.399 31.859,95.44 57.898,69.97 83.937,95.44 83.937,98.399 57.898,72.856 		"/>
		<g>
			<path fill="#84B242" d="M30.52,132.53v-1.314c0-0.622,0.554-1.127,1.237-1.127H84.04c0.684,0,1.237,0.505,1.237,1.127v1.314
				H30.52z"/>
			<rect x="30.52" y="132.043" fill="#343131" width="54.758" height="0.487"/>
		</g>
		<g>
			<g>
				<g>
					<rect x="68.204" y="103.264" fill="#AED4EB" width="9.33" height="12.794"/>
					<path fill="#202020" d="M66.967,102.025v15.27h11.806v-15.27H66.967z M68.204,103.264h9.33v12.794h-9.33V103.264z"/>
				</g>
				<polygon opacity="0.3" fill="#F0F0F0" points="68.204,103.585 77.534,110.759 77.534,112.829 68.204,105.655 				"/>
				<polygon opacity="0.3" fill="#F0F0F0" points="68.204,106.813 77.534,113.986 77.534,116.058 68.204,108.884 				"/>
			</g>
			<g>
				<g>
					<rect x="57.638" y="103.264" fill="#AED4EB" width="9.329" height="12.794"/>
					<path fill="#202020" d="M56.399,102.025v15.27h11.805v-15.27H56.399z M57.638,103.264h9.329v12.794h-9.329V103.264z"/>
				</g>
				<polygon opacity="0.3" fill="#F0F0F0" points="57.638,103.585 66.967,110.759 66.967,112.829 57.638,105.655 				"/>
				<polygon opacity="0.3" fill="#F0F0F0" points="57.638,106.813 66.967,113.986 66.967,116.058 57.638,108.884 				"/>
			</g>
		</g>
		<g>
			<g>
				<rect x="41.502" y="102.453" fill="#473F48" width="10.931" height="27.636"/>
				<polygon fill="#202020" points="53.052,101.834 53.052,130.708 51.813,130.708 51.813,129.471 51.814,129.471 51.814,103.071 
					42.12,103.071 42.12,129.471 42.127,129.471 42.127,130.708 40.883,130.708 40.883,101.834 				"/>
			</g>
			<rect x="40.007" y="130.089" fill="#202020" width="13.921" height="2.441"/>
			<g>
				<path fill="#776F87" d="M43.307,113.908c1.22-0.118,2.441-0.175,3.661-0.259c1.22-0.073,2.44-0.128,3.661-0.171l-0.43,0.43
					c-0.122-3.076-0.147-6.153-0.164-9.229l0.593,0.594c-2.441-0.008-4.881-0.033-7.322-0.099l0.496-0.495
					c-0.049,1.538-0.101,3.076-0.181,4.615c-0.036,0.769-0.096,1.538-0.142,2.307C43.434,112.37,43.379,113.139,43.307,113.908z
					 M43.307,113.908c-0.073-0.77-0.127-1.538-0.173-2.308c-0.046-0.769-0.106-1.538-0.142-2.307
					c-0.08-1.539-0.131-3.077-0.181-4.615l-0.015-0.481l0.511-0.014c2.441-0.065,4.881-0.091,7.322-0.099l0.597-0.001l-0.003,0.595
					c-0.017,3.076-0.042,6.153-0.164,9.229l-0.018,0.444l-0.412-0.015c-1.221-0.043-2.441-0.098-3.661-0.171
					C45.748,114.083,44.527,114.026,43.307,113.908z"/>
			</g>
			<g>
				<path fill="#776F87" d="M43.307,127.795c1.22-0.118,2.441-0.175,3.661-0.259c1.22-0.073,2.44-0.128,3.661-0.171l-0.43,0.43
					c-0.122-3.076-0.147-6.153-0.164-9.229l0.593,0.594c-2.441-0.008-4.881-0.033-7.322-0.099l0.496-0.495
					c-0.049,1.538-0.101,3.076-0.181,4.615c-0.036,0.769-0.096,1.538-0.142,2.307C43.434,126.257,43.379,127.025,43.307,127.795z
					 M43.307,127.795c-0.073-0.77-0.127-1.538-0.173-2.308c-0.046-0.769-0.106-1.538-0.142-2.307
					c-0.08-1.539-0.131-3.077-0.181-4.615l-0.015-0.481l0.511-0.014c2.441-0.065,4.881-0.091,7.322-0.099l0.597-0.001l-0.003,0.595
					c-0.017,3.076-0.042,6.153-0.164,9.229l-0.018,0.444l-0.412-0.015c-1.221-0.043-2.441-0.098-3.661-0.171
					C45.748,127.97,44.527,127.913,43.307,127.795z"/>
			</g>
			<circle fill="#202020" cx="43.564" cy="116.693" r="0.611"/>
		</g>
		<polygon fill="#CA2228" points="57.898,63.885 89.97,95.955 84.02,95.955 57.898,70.588 31.777,95.955 25.827,95.955 		"/>
		<path fill="#CA2228" d="M70.428,73.991c0,0.683,0.553,1.237,1.236,1.237h5.604c0.684,0,1.237-0.555,1.237-1.237v-2.063
			c0-0.684-0.554-1.237-1.237-1.237h-5.604c-0.684,0-1.236,0.554-1.236,1.237V73.991z"/>
	</g>
</g>
<g>
	<g>
		<path fill="#84B242" d="M792.338,132.531v-1.729c0-0.819-0.73-1.483-1.63-1.483h-84.939c-0.899,0-1.629,0.664-1.629,1.483v1.729
			H792.338z"/>
		<rect x="704.14" y="131.89" fill="#343131" width="88.198" height="0.642"/>
	</g>
	<g>
		<rect x="705.769" y="64.026" fill="#E3E3E3" width="84.987" height="65.292"/>
		<rect x="705.769" y="64.026" fill="#AFAFAF" width="84.987" height="2.037"/>
		<rect x="702.646" y="49.953" fill="#CA2228" width="91.232" height="14.073"/>
		<rect x="702.646" y="64.026" fill="#A42B31" width="91.232" height="0.446"/>
		<polygon fill="#F0F0F0" points="733.756,129.318 762.77,129.318 762.77,59.818 748.262,46.604 733.756,59.818 		"/>
		<polygon fill="#C9C9C9" points="733.756,60.903 733.756,59.818 748.262,46.604 762.77,59.818 762.77,60.903 748.262,48.198 		"/>
		<g>
			<g>
				<rect x="742.367" y="99.508" fill="#473F48" width="11.789" height="29.811"/>
				<polygon fill="#202020" points="741.699,98.841 741.699,129.985 743.035,129.985 743.035,128.65 743.033,128.65 
					743.033,100.176 753.489,100.176 753.489,128.65 753.482,128.65 753.482,129.985 754.824,129.985 754.824,98.841 				"/>
			</g>
			<rect x="740.754" y="129.318" fill="#202020" width="15.016" height="2.633"/>
			<g>
				<path fill="#776F87" d="M752.211,111.864c-1.316,0.097-2.633,0.144-3.949,0.212c-1.316,0.063-2.633,0.085-3.949,0.13
					l-0.329,0.012l-0.013-0.354c-0.125-3.318-0.091-6.636-0.145-9.954l-0.008-0.491l0.494,0.005l7.898,0.081l0.417,0.005l-0.012,0.4
					l-0.149,4.978c-0.025,0.829-0.077,1.658-0.114,2.488C752.315,110.205,752.271,111.035,752.211,111.864z M752.211,111.864
					c-0.06-0.829-0.104-1.659-0.142-2.488c-0.037-0.83-0.089-1.659-0.114-2.488l-0.149-4.978l0.405,0.405l-7.898,0.081l0.486-0.486
					c-0.054,3.318-0.02,6.636-0.145,9.954l-0.342-0.342c1.316,0.045,2.633,0.066,3.949,0.13
					C749.578,111.721,750.895,111.768,752.211,111.864z"/>
			</g>
			<g>
				<path fill="#776F87" d="M752.211,126.843c-1.316,0.097-2.633,0.144-3.949,0.212c-1.316,0.063-2.633,0.085-3.949,0.13
					l-0.329,0.012l-0.013-0.354c-0.125-3.318-0.091-6.636-0.145-9.954l-0.008-0.491l0.494,0.005l7.898,0.081l0.417,0.005l-0.012,0.4
					l-0.149,4.978c-0.025,0.829-0.077,1.658-0.114,2.488C752.315,125.184,752.271,126.014,752.211,126.843z M752.211,126.843
					c-0.06-0.829-0.104-1.659-0.142-2.488c-0.037-0.83-0.089-1.659-0.114-2.488l-0.149-4.978l0.405,0.405l-7.898,0.081l0.486-0.486
					c-0.054,3.318-0.02,6.636-0.145,9.954l-0.342-0.342c1.316,0.045,2.633,0.066,3.949,0.13
					C749.578,126.699,750.895,126.746,752.211,126.843z"/>
			</g>
			<circle fill="#202020" cx="751.933" cy="114.868" r="0.659"/>
		</g>
		<g>
			<g>
				<g>
					<rect x="743.02" y="66.325" fill="#AED4EB" width="10.486" height="14.38"/>
					<path fill="#202020" d="M741.627,64.934v17.162h13.27V64.934H741.627z M753.506,80.705H743.02v-14.38h10.486V80.705z"/>
				</g>
				<polygon opacity="0.3" fill="#F0F0F0" points="753.506,66.687 743.02,74.749 743.02,77.077 753.506,69.014 				"/>
				<polygon opacity="0.3" fill="#F0F0F0" points="753.506,70.315 743.02,78.378 743.02,80.705 753.506,72.643 				"/>
			</g>
			<rect x="740.068" y="77.861" fill="#A42B31" width="16.388" height="4.234"/>
		</g>
		<g>
			<g>
				<g>
					<rect x="771.529" y="71.118" fill="#AED4EB" width="10.486" height="14.379"/>
					<path fill="#202020" d="M770.137,69.728v17.161h13.27V69.728H770.137z M782.016,85.497h-10.486V71.118h10.486V85.497z"/>
				</g>
				<polygon opacity="0.3" fill="#F0F0F0" points="782.016,71.479 771.529,79.541 771.529,81.868 782.016,73.807 				"/>
				<polygon opacity="0.3" fill="#F0F0F0" points="782.016,75.106 771.529,83.17 771.529,85.497 782.016,77.436 				"/>
			</g>
			<rect x="768.578" y="82.654" fill="#A42B31" width="16.389" height="4.234"/>
		</g>
		<g>
			<g>
				<g>
					<rect x="771.529" y="98.643" fill="#AED4EB" width="10.486" height="14.38"/>
					<path fill="#202020" d="M770.137,97.252v17.161h13.27V97.252H770.137z M782.016,113.022h-10.486v-14.38h10.486V113.022z"/>
				</g>
				<polygon opacity="0.3" fill="#F0F0F0" points="782.016,99.005 771.529,107.066 771.529,109.394 782.016,101.331 				"/>
				<polygon opacity="0.3" fill="#F0F0F0" points="782.016,102.632 771.529,110.695 771.529,113.022 782.016,104.96 				"/>
			</g>
			<rect x="768.578" y="110.18" fill="#A42B31" width="16.389" height="4.233"/>
		</g>
		<g>
			<g>
				<g>
					<rect x="714.709" y="71.118" fill="#AED4EB" width="10.486" height="14.379"/>
					<path fill="#202020" d="M713.318,69.727v17.162h13.268V69.727H713.318z M725.195,85.497h-10.486V71.118h10.486V85.497z"/>
				</g>
				<polygon opacity="0.3" fill="#F0F0F0" points="725.195,71.479 714.709,79.541 714.709,81.868 725.195,73.807 				"/>
				<polygon opacity="0.3" fill="#F0F0F0" points="725.195,75.106 714.709,83.17 714.709,85.497 725.195,77.436 				"/>
			</g>
			<rect x="711.759" y="82.654" fill="#A42B31" width="16.388" height="4.234"/>
		</g>
		<g>
			<g>
				<g>
					<rect x="714.709" y="98.643" fill="#AED4EB" width="10.486" height="14.38"/>
					<path fill="#202020" d="M713.318,97.252v17.161h13.268V97.252H713.318z M725.195,113.022h-10.486v-14.38h10.486V113.022z"/>
				</g>
				<polygon opacity="0.3" fill="#F0F0F0" points="725.195,99.005 714.709,107.066 714.709,109.394 725.195,101.331 				"/>
				<polygon opacity="0.3" fill="#F0F0F0" points="725.195,102.632 714.709,110.695 714.709,113.022 725.195,104.96 				"/>
			</g>
			<rect x="711.759" y="110.18" fill="#A42B31" width="16.388" height="4.233"/>
		</g>
		<polygon fill="#A42B31" points="748.262,43.83 766.521,60.313 762.831,60.313 748.262,47.114 733.693,60.313 730.004,60.313 		"/>
		<rect x="768.578" y="86.889" fill="#AFAFAF" width="16.389" height="1.437"/>
		<rect x="768.578" y="114.149" fill="#AFAFAF" width="16.389" height="1.438"/>
		<rect x="711.758" y="86.889" fill="#AFAFAF" width="16.389" height="1.437"/>
		<rect x="740.068" y="82.109" fill="#AFAFAF" width="16.388" height="1.438"/>
		<rect x="711.758" y="114.149" fill="#AFAFAF" width="16.389" height="1.438"/>
	</g>
</g>
<g>
	<g>
		<rect x="459" y="126.666" fill="#4E4E4E" width="7" height="4"/>
		<rect x="465" y="126.666" fill="#E4E4E4" width="1" height="3"/>
		<rect x="459" y="126.666" fill="#E4E4E4" width="2" height="3"/>
		<path fill="#363636" d="M456.593,131.166c0,0.691,0.55,1.5,1.228,1.5h8.592c0.679,0,1.229-0.809,1.229-1.5l0,0
			c0-0.69-0.55-1.5-1.229-1.5h-8.592C457.143,129.666,456.593,130.476,456.593,131.166L456.593,131.166z"/>
	</g>
	<rect x="453" y="124.666" fill="#363636" width="48" height="2"/>
	<g>
		<polygon fill="#D7D7D7" points="449,128.666 453.251,128.666 455.43,122.666 449,122.666 		"/>
		<path fill="#A52B31" d="M449,127.293c0,0.305,0.47,0.373,0.769,0.373h2.6c0.3,0,0.632-0.068,0.632-0.373v-0.148
			c0-0.305-0.332-0.479-0.632-0.479h-2.6c-0.299,0-0.769,0.174-0.769,0.479V127.293z"/>
		<path fill="#363636" d="M448,131.779c0,0.245,0.195,0.887,0.436,0.887h4.652c0.24,0-0.088-0.642-0.088-0.887v-2.865
			c0-0.245,0.328-0.248,0.088-0.248h-4.652c-0.24,0-0.436,0.003-0.436,0.248V131.779z"/>
	</g>
	
		<polyline fill="none" stroke="#363636" stroke-width="3" stroke-linecap="round" stroke-linejoin="round" stroke-miterlimit="10" points="
		546.984,102.246 543.5,102.696 543.5,122.666 	"/>
	<path fill="#363636" d="M478,131.666h83.695c4.091,0,6.971-1.831,6.971-6l0,0c0-4.169-2.88-6-6.971-6h-18.08l-2.643,2.394
		c-1.188,0-62.973,0.151-62.973,0.151V131.666z"/>
	<path fill="#CACACA" d="M547.891,95.666h0.163c0.043,0,0.083,0.011,0.125,0.013l0.011-0.013h20.912l3.894,6.457l3.657,11.395
		l0.037,17.148h-13.397c0-7-6.389-8-6.389-8H546v-20.553V98.7v-0.75C546,96.647,546.612,95.666,547.891,95.666z"/>
	<path fill="#363636" d="M550,97.666v10.359c0,0,1.926,3.406,20.951,5.848c0,0-0.979-12.207-7.222-16.207H550z"/>
	<rect x="550" y="115.666" fill="#4E4E4E" width="4" height="5"/>
	<rect x="550" y="117.666" fill="#666666" width="4" height="3"/>
	<path fill="#FFFFFF" d="M567,128.683c0,0.573,1.141,0.983,1.704,0.983h4.097c0.564,0,1.199-0.41,1.199-0.983v-0.425
		c0-0.573-0.635-1.592-1.199-1.592h-4.097c-0.563,0-1.704,1.019-1.704,1.592V128.683z"/>
	<path fill="#DE912F" d="M567,128.691c0,0.604,0.838,0.975,1.431,0.975H571v-3h-2.569c-0.593,0-1.431,1.226-1.431,1.827V128.691z"/>
	<path fill="#363636" d="M569.102,95.592c0,0,7.588,6.031,7.551,18.798c0,0-1.201,0.083-1.27-0.519
		C574.221,103.751,570.027,98.7,569.102,95.592z"/>
	<path fill="#979797" d="M576,127.919c0,0.304-0.095,0.747,0.203,0.747h0.146c0.298,0,0.65-0.443,0.65-0.747v-8.906
		c0-0.304-0.353-1.347-0.65-1.347h-0.146c-0.298,0-0.203,1.043-0.203,1.347V127.919z"/>
	<path fill="#666666" d="M562,132.436c0,0.574,0.617,1.23,1.18,1.23h13.918c0.563,0,0.902-0.656,0.902-1.23v-0.424
		c0-0.574-0.339-1.346-0.902-1.346H563.18c-0.563,0-1.18,0.771-1.18,1.346V132.436z"/>
	<path fill="#E4E4E4" d="M569.156,95.666c0,0-2.342-11.943-23.581-11.887c0,0-0.599,8.663,0.327,10.273c0,0,0.708,1.613,1.58,1.613
		C548.354,95.666,569.156,95.666,569.156,95.666z"/>
	<g>
		<ellipse fill="#363636" cx="552.709" cy="132.17" rx="7.461" ry="7.604"/>
		<g>
			<ellipse fill="#CACACA" cx="552.709" cy="132.17" rx="4.847" ry="4.94"/>
			<ellipse fill="#E4E4E4" stroke="#363636" stroke-miterlimit="10" cx="552.71" cy="132.17" rx="1.416" ry="1.443"/>
			<rect x="552" y="127.666" fill="#363636" width="2" height="1"/>
			<rect x="552" y="135.666" fill="#363636" width="2" height="1"/>
			<rect x="549" y="131.666" fill="#363636" width="1" height="2"/>
			<rect x="557" y="131.666" fill="#363636" width="1" height="2"/>
		</g>
	</g>
	<rect x="482" y="128.666" fill="#7F7F7F" width="52" height="2"/>
	<g>
		<ellipse fill="#363636" cx="495.637" cy="132.17" rx="7.46" ry="7.604"/>
		<g>
			<ellipse fill="#CACACA" cx="495.638" cy="132.17" rx="4.847" ry="4.94"/>
			<ellipse fill="#E4E4E4" stroke="#363636" stroke-miterlimit="10" cx="495.638" cy="132.17" rx="1.416" ry="1.443"/>
			<rect x="495.136" y="127.581" fill="#363636" width="1.347" height="0.673"/>
			<rect x="495.136" y="135.661" fill="#363636" width="1.347" height="0.674"/>
			<rect x="492" y="131.666" fill="#363636" width="1" height="2"/>
			<rect x="499" y="131.666" fill="#363636" width="0" height="2"/>
		</g>
	</g>
	<g>
		<ellipse fill="#363636" cx="477.485" cy="132.17" rx="7.461" ry="7.604"/>
		<g>
			<ellipse fill="#CACACA" cx="477.484" cy="132.17" rx="4.847" ry="4.94"/>
			<ellipse fill="#E4E4E4" stroke="#363636" stroke-miterlimit="10" cx="477.484" cy="132.17" rx="1.416" ry="1.443"/>
			<rect x="477" y="127.666" fill="#363636" width="2" height="1"/>
			<rect x="477" y="135.666" fill="#363636" width="2" height="1"/>
			<rect x="474" y="131.666" fill="#363636" width="1" height="2"/>
			<rect x="480" y="131.666" fill="#363636" width="2" height="2"/>
		</g>
	</g>
	<path fill="none" stroke="#979797" stroke-linecap="round" stroke-linejoin="round" stroke-miterlimit="10" d="M567.097,97.757
		c0,0,5.403,8.566,5.403,17.081v9.617l-9.033-0.014c0,0-1.633-3.465-6.898-3.465"/>
	<path fill="#666666" d="M567,116.033c0,0.304,0.926,0.633,1.225,0.633h2.602c0.298,0,0.174-0.329,0.174-0.633v-0.148
		c0-0.305,0.124-0.219-0.174-0.219h-2.602c-0.299,0-1.225-0.086-1.225,0.219V116.033z"/>
	<rect x="530" y="126.666" fill="#666666" width="12" height="6"/>
	<g>
		<path fill="#4E4E4E" d="M559.672,97.666l2.271,14.807c-3.129-0.623-5.484-1.295-7.256-1.885l-1.985-12.922H559.672z"/>
	</g>
	<g>
		<rect x="449" y="78.666" fill="#D7D7D7" width="92" height="46"/>
		<g>
			<path fill="#E4E4E4" d="M519,118.118c0,1.226,1.172,2.548,2.375,2.548h14.056c1.204,0,2.569-1.322,2.569-2.548V83.146
				c0-1.226-1.365-2.48-2.569-2.48h-14.056c-1.203,0-2.375,1.255-2.375,2.48V118.118z"/>
			<path fill="#E4E4E4" d="M496,118.141c0,1.214,1.972,2.525,3.045,2.525h14.524c1.074,0,1.431-1.312,1.431-2.525V83.124
				c0-1.213-0.356-2.458-1.431-2.458h-14.524c-1.073,0-3.045,1.245-3.045,2.458V118.141z"/>
			<path fill="#E4E4E4" d="M474,118.118c0,1.226,1.367,2.548,2.569,2.548h14.058c1.202,0,2.373-1.322,2.373-2.548V83.147
				c0-1.227-1.171-2.481-2.373-2.481h-14.058c-1.202,0-2.569,1.255-2.569,2.481V118.118z"/>
		</g>
		<rect x="451" y="121.666" fill="#E4E4E4" width="88" height="1"/>
		<path fill="#DE912F" d="M537,80.376c0,0.305,0.238,0.29,0.536,0.29h1.987c0.299,0,0.477,0.015,0.477-0.29v-0.148
			c0-0.305-0.178-0.562-0.477-0.562h-1.987c-0.298,0-0.536,0.257-0.536,0.562V80.376z"/>
		<path fill="#DE912F" d="M450,80.376c0,0.305,0.083,0.29,0.383,0.29h1.985c0.3,0,0.632,0.015,0.632-0.29v-0.148
			c0-0.305-0.332-0.562-0.632-0.562h-1.985c-0.3,0-0.383,0.257-0.383,0.562V80.376z"/>
		<g>
			<path fill="#E4E4E4" d="M453,118.141c0,1.214,0.224,2.525,1.367,2.525h14.271c1.145,0,1.362-1.312,1.362-2.525V83.124
				c0-1.213-0.218-2.458-1.362-2.458h-14.271c-1.144,0-1.367,1.245-1.367,2.458V118.141z"/>
		</g>
	</g>
	<rect x="510" y="126.666" fill="#B0B0B0" width="9" height="3"/>
	<rect x="510" y="129.666" fill="#363636" width="9" height="3"/>
</g>
<g>
	<g>
		<path fill="#25A4DC" d="M468.532,101.267c0,0.044-0.015,0.084-0.043,0.119c-0.029,0.035-0.076,0.064-0.143,0.086
			c-0.066,0.022-0.154,0.04-0.265,0.053c-0.11,0.014-0.25,0.021-0.418,0.021c-0.172,0-0.314-0.007-0.427-0.021
			c-0.112-0.013-0.201-0.03-0.265-0.053c-0.064-0.021-0.11-0.051-0.14-0.086c-0.028-0.035-0.043-0.075-0.043-0.119v-3.465h-3.206
			v3.465c0,0.044-0.013,0.084-0.039,0.119c-0.027,0.035-0.073,0.064-0.14,0.086c-0.066,0.022-0.154,0.04-0.265,0.053
			c-0.11,0.014-0.252,0.021-0.424,0.021c-0.168,0-0.309-0.007-0.421-0.021c-0.112-0.013-0.202-0.03-0.269-0.053
			c-0.066-0.021-0.113-0.051-0.143-0.086c-0.028-0.035-0.043-0.075-0.043-0.119v-8.095c0-0.044,0.015-0.084,0.043-0.119
			c0.029-0.035,0.076-0.063,0.143-0.086s0.156-0.04,0.269-0.053c0.112-0.014,0.253-0.021,0.421-0.021
			c0.172,0,0.313,0.007,0.424,0.021c0.11,0.013,0.198,0.03,0.265,0.053s0.112,0.051,0.14,0.086c0.026,0.035,0.039,0.075,0.039,0.119
			v3.146h3.206v-3.146c0-0.044,0.015-0.084,0.043-0.119c0.029-0.035,0.075-0.063,0.14-0.086c0.063-0.022,0.152-0.04,0.265-0.053
			c0.112-0.014,0.255-0.021,0.427-0.021c0.168,0,0.308,0.007,0.418,0.021c0.11,0.013,0.198,0.03,0.265,0.053
			s0.113,0.051,0.143,0.086c0.028,0.035,0.043,0.075,0.043,0.119V101.267z"/>
		<path fill="#25A4DC" d="M475.335,101.3c0,0.062-0.022,0.11-0.066,0.146c-0.045,0.035-0.114,0.061-0.209,0.076
			s-0.235,0.023-0.421,0.023c-0.198,0-0.343-0.008-0.434-0.023s-0.154-0.041-0.192-0.076c-0.037-0.035-0.056-0.084-0.056-0.146
			v-0.471c-0.243,0.261-0.521,0.464-0.832,0.609c-0.311,0.146-0.656,0.219-1.036,0.219c-0.313,0-0.602-0.041-0.864-0.122
			c-0.263-0.082-0.49-0.203-0.683-0.365c-0.191-0.161-0.341-0.36-0.447-0.599c-0.105-0.239-0.158-0.517-0.158-0.835
			c0-0.345,0.066-0.644,0.201-0.897s0.336-0.464,0.604-0.629c0.267-0.166,0.6-0.289,0.996-0.368
			c0.397-0.079,0.859-0.119,1.385-0.119h0.576v-0.357c0-0.186-0.019-0.348-0.056-0.487c-0.038-0.139-0.1-0.255-0.186-0.348
			c-0.087-0.093-0.201-0.161-0.345-0.205s-0.321-0.066-0.533-0.066c-0.278,0-0.526,0.031-0.745,0.093s-0.412,0.13-0.58,0.205
			s-0.308,0.144-0.42,0.205c-0.113,0.063-0.205,0.093-0.275,0.093c-0.049,0-0.092-0.015-0.129-0.046
			c-0.038-0.031-0.068-0.075-0.093-0.133c-0.024-0.057-0.043-0.128-0.057-0.212c-0.013-0.084-0.02-0.177-0.02-0.278
			c0-0.137,0.011-0.245,0.033-0.324c0.021-0.079,0.063-0.151,0.126-0.215c0.062-0.064,0.17-0.135,0.324-0.212
			c0.154-0.078,0.336-0.149,0.543-0.216c0.208-0.066,0.435-0.12,0.679-0.162c0.245-0.042,0.498-0.063,0.759-0.063
			c0.464,0,0.86,0.046,1.189,0.137c0.328,0.09,0.599,0.229,0.812,0.417c0.212,0.188,0.366,0.43,0.463,0.726
			c0.098,0.296,0.146,0.646,0.146,1.053V101.3z M473.698,98.77h-0.636c-0.27,0-0.499,0.02-0.688,0.06
			c-0.19,0.039-0.345,0.099-0.464,0.179c-0.119,0.079-0.207,0.176-0.262,0.288c-0.056,0.112-0.083,0.241-0.083,0.388
			c0,0.247,0.078,0.441,0.235,0.583c0.156,0.141,0.374,0.212,0.652,0.212c0.234,0,0.449-0.06,0.646-0.179
			c0.197-0.12,0.396-0.294,0.6-0.523V98.77z"/>
		<path fill="#25A4DC" d="M482.946,98.239c0,0.525-0.057,0.999-0.169,1.421c-0.113,0.422-0.277,0.78-0.494,1.076
			c-0.216,0.296-0.485,0.523-0.808,0.683s-0.691,0.238-1.106,0.238c-0.172,0-0.33-0.017-0.474-0.05s-0.282-0.084-0.417-0.152
			s-0.269-0.153-0.401-0.255c-0.132-0.102-0.269-0.221-0.41-0.357v2.782c0,0.044-0.014,0.083-0.04,0.119
			c-0.026,0.035-0.071,0.064-0.136,0.089c-0.063,0.024-0.148,0.043-0.255,0.057c-0.106,0.013-0.241,0.02-0.404,0.02
			s-0.298-0.007-0.403-0.02c-0.106-0.014-0.191-0.032-0.256-0.057c-0.063-0.024-0.109-0.054-0.136-0.089
			c-0.026-0.036-0.039-0.075-0.039-0.119v-8.254c0-0.044,0.011-0.083,0.033-0.116c0.021-0.033,0.061-0.061,0.115-0.082
			c0.056-0.022,0.128-0.039,0.219-0.05c0.091-0.012,0.204-0.017,0.341-0.017c0.133,0,0.244,0.005,0.335,0.017
			c0.091,0.011,0.163,0.027,0.219,0.05c0.055,0.021,0.094,0.049,0.115,0.082c0.022,0.033,0.033,0.072,0.033,0.116v0.695
			c0.173-0.177,0.342-0.332,0.507-0.467c0.166-0.135,0.335-0.247,0.507-0.338c0.172-0.09,0.35-0.157,0.533-0.202
			c0.184-0.044,0.379-0.066,0.586-0.066c0.434,0,0.802,0.086,1.106,0.256s0.554,0.402,0.745,0.698
			c0.192,0.296,0.332,0.641,0.421,1.033C482.901,97.374,482.946,97.793,482.946,98.239z M481.21,98.358
			c0-0.252-0.019-0.493-0.056-0.726c-0.038-0.231-0.102-0.438-0.192-0.619c-0.091-0.181-0.21-0.325-0.357-0.434
			c-0.148-0.108-0.332-0.162-0.554-0.162c-0.11,0-0.22,0.017-0.327,0.05c-0.108,0.033-0.219,0.087-0.331,0.162
			c-0.113,0.075-0.229,0.172-0.348,0.291c-0.12,0.119-0.245,0.268-0.378,0.444v1.947c0.234,0.296,0.457,0.524,0.669,0.686
			s0.433,0.241,0.662,0.241c0.217,0,0.401-0.055,0.554-0.165s0.276-0.255,0.374-0.434c0.097-0.18,0.169-0.381,0.215-0.606
			C481.188,98.809,481.21,98.584,481.21,98.358z"/>
		<path fill="#25A4DC" d="M490.226,98.239c0,0.525-0.057,0.999-0.169,1.421c-0.113,0.422-0.277,0.78-0.494,1.076
			c-0.216,0.296-0.485,0.523-0.808,0.683s-0.691,0.238-1.106,0.238c-0.172,0-0.33-0.017-0.474-0.05s-0.282-0.084-0.417-0.152
			s-0.269-0.153-0.401-0.255c-0.132-0.102-0.269-0.221-0.41-0.357v2.782c0,0.044-0.014,0.083-0.04,0.119
			c-0.026,0.035-0.071,0.064-0.136,0.089c-0.063,0.024-0.148,0.043-0.255,0.057c-0.106,0.013-0.241,0.02-0.404,0.02
			s-0.298-0.007-0.403-0.02c-0.106-0.014-0.191-0.032-0.256-0.057c-0.063-0.024-0.109-0.054-0.136-0.089
			c-0.026-0.036-0.039-0.075-0.039-0.119v-8.254c0-0.044,0.011-0.083,0.033-0.116c0.021-0.033,0.061-0.061,0.115-0.082
			c0.056-0.022,0.128-0.039,0.219-0.05c0.091-0.012,0.204-0.017,0.341-0.017c0.133,0,0.244,0.005,0.335,0.017
			c0.091,0.011,0.163,0.027,0.219,0.05c0.055,0.021,0.094,0.049,0.115,0.082c0.022,0.033,0.033,0.072,0.033,0.116v0.695
			c0.173-0.177,0.342-0.332,0.507-0.467c0.166-0.135,0.335-0.247,0.507-0.338c0.172-0.09,0.35-0.157,0.533-0.202
			c0.184-0.044,0.379-0.066,0.586-0.066c0.434,0,0.802,0.086,1.106,0.256s0.554,0.402,0.745,0.698
			c0.192,0.296,0.332,0.641,0.421,1.033C490.181,97.374,490.226,97.793,490.226,98.239z M488.489,98.358
			c0-0.252-0.019-0.493-0.056-0.726c-0.038-0.231-0.102-0.438-0.192-0.619c-0.091-0.181-0.21-0.325-0.357-0.434
			c-0.148-0.108-0.332-0.162-0.554-0.162c-0.11,0-0.22,0.017-0.327,0.05c-0.108,0.033-0.219,0.087-0.331,0.162
			c-0.113,0.075-0.229,0.172-0.348,0.291c-0.12,0.119-0.245,0.268-0.378,0.444v1.947c0.234,0.296,0.457,0.524,0.669,0.686
			s0.433,0.241,0.662,0.241c0.217,0,0.401-0.055,0.554-0.165s0.276-0.255,0.374-0.434c0.097-0.18,0.169-0.381,0.215-0.606
			C488.467,98.809,488.489,98.584,488.489,98.358z"/>
		<path fill="#25A4DC" d="M494.908,101.505l-0.715,2.093c-0.04,0.11-0.148,0.19-0.325,0.239c-0.176,0.048-0.435,0.072-0.774,0.072
			c-0.177,0-0.318-0.008-0.424-0.023c-0.106-0.015-0.186-0.04-0.238-0.076c-0.054-0.035-0.082-0.079-0.087-0.132
			c-0.004-0.053,0.009-0.117,0.04-0.192l0.788-1.98c-0.058-0.026-0.109-0.067-0.155-0.122c-0.047-0.056-0.081-0.114-0.103-0.176
			l-2.034-5.432c-0.057-0.154-0.086-0.272-0.086-0.354s0.026-0.146,0.08-0.192c0.053-0.046,0.142-0.078,0.268-0.096
			s0.293-0.026,0.5-0.026c0.19,0,0.341,0.003,0.451,0.01s0.196,0.023,0.258,0.05s0.108,0.067,0.14,0.122
			c0.03,0.056,0.062,0.134,0.093,0.235l1.391,3.954h0.02l1.272-4.033c0.026-0.115,0.061-0.191,0.103-0.229
			c0.042-0.038,0.111-0.065,0.208-0.083c0.098-0.018,0.268-0.026,0.511-0.026c0.189,0,0.348,0.009,0.474,0.026
			s0.218,0.051,0.278,0.1c0.06,0.048,0.089,0.113,0.089,0.195c0,0.081-0.018,0.178-0.053,0.288L494.908,101.505z"/>
		<path fill="#35A35B" d="M502.718,100.776c0,0.133-0.006,0.244-0.017,0.334c-0.011,0.091-0.027,0.166-0.05,0.226
			s-0.05,0.103-0.083,0.129s-0.071,0.04-0.115,0.04h-3.929c-0.146,0-0.268-0.043-0.367-0.129s-0.149-0.227-0.149-0.421v-7.783
			c0-0.044,0.015-0.084,0.043-0.119c0.029-0.035,0.076-0.063,0.143-0.086s0.156-0.04,0.269-0.053
			c0.112-0.014,0.253-0.021,0.421-0.021c0.172,0,0.313,0.007,0.424,0.021c0.11,0.013,0.198,0.03,0.265,0.053
			s0.113,0.051,0.143,0.086c0.028,0.035,0.043,0.075,0.043,0.119v6.896h2.696c0.044,0,0.082,0.013,0.115,0.036
			c0.033,0.024,0.061,0.064,0.083,0.12c0.022,0.055,0.039,0.128,0.05,0.218C502.712,100.532,502.718,100.644,502.718,100.776z"/>
		<path fill="#35A35B" d="M509.62,98.266c0,0.504-0.066,0.963-0.199,1.378c-0.132,0.415-0.333,0.772-0.603,1.073
			c-0.27,0.3-0.607,0.532-1.014,0.695s-0.881,0.245-1.424,0.245c-0.525,0-0.982-0.073-1.371-0.219s-0.711-0.357-0.967-0.636
			c-0.257-0.278-0.446-0.62-0.57-1.026c-0.123-0.406-0.186-0.87-0.186-1.392c0-0.503,0.067-0.964,0.202-1.381
			s0.337-0.775,0.606-1.073s0.605-0.528,1.01-0.692c0.404-0.163,0.878-0.245,1.421-0.245c0.53,0,0.989,0.072,1.378,0.216
			s0.71,0.354,0.964,0.633s0.442,0.62,0.566,1.026C509.558,97.274,509.62,97.74,509.62,98.266z M507.904,98.332
			c0-0.291-0.023-0.56-0.069-0.805c-0.047-0.245-0.125-0.458-0.235-0.64c-0.11-0.181-0.258-0.322-0.44-0.424
			c-0.184-0.102-0.414-0.152-0.692-0.152c-0.247,0-0.464,0.046-0.649,0.136c-0.186,0.091-0.338,0.224-0.457,0.397
			c-0.119,0.175-0.208,0.385-0.268,0.63s-0.09,0.524-0.09,0.838c0,0.291,0.024,0.56,0.073,0.805
			c0.048,0.245,0.127,0.458,0.234,0.639c0.108,0.182,0.256,0.321,0.441,0.421c0.185,0.1,0.415,0.149,0.688,0.149
			c0.252,0,0.471-0.046,0.655-0.136c0.186-0.091,0.338-0.223,0.457-0.395c0.12-0.172,0.208-0.381,0.266-0.626
			C507.875,98.925,507.904,98.646,507.904,98.332z"/>
		<path fill="#35A35B" d="M515.409,100.339c0,0.115-0.003,0.211-0.01,0.288s-0.016,0.143-0.026,0.195
			c-0.012,0.054-0.024,0.097-0.04,0.13s-0.05,0.075-0.103,0.126s-0.144,0.112-0.271,0.185c-0.128,0.073-0.274,0.139-0.438,0.196
			c-0.163,0.057-0.341,0.104-0.533,0.139s-0.39,0.053-0.593,0.053c-0.455,0-0.857-0.07-1.209-0.212
			c-0.351-0.141-0.646-0.35-0.884-0.626c-0.238-0.275-0.419-0.612-0.54-1.01c-0.122-0.397-0.183-0.853-0.183-1.364
			c0-0.592,0.074-1.104,0.223-1.534c0.147-0.431,0.354-0.787,0.619-1.069c0.265-0.282,0.578-0.492,0.94-0.629
			c0.362-0.138,0.76-0.206,1.192-0.206c0.177,0,0.35,0.016,0.52,0.047c0.17,0.03,0.329,0.072,0.478,0.126
			c0.147,0.053,0.28,0.112,0.397,0.179c0.116,0.066,0.199,0.123,0.248,0.172s0.083,0.09,0.103,0.123
			c0.02,0.032,0.035,0.076,0.047,0.129c0.011,0.053,0.02,0.118,0.026,0.195c0.006,0.077,0.01,0.171,0.01,0.281
			c0,0.257-0.022,0.437-0.066,0.54s-0.102,0.155-0.172,0.155c-0.075,0-0.155-0.03-0.238-0.093c-0.084-0.062-0.184-0.13-0.299-0.205
			c-0.114-0.075-0.251-0.144-0.41-0.205s-0.35-0.093-0.57-0.093c-0.433,0-0.764,0.167-0.993,0.5
			c-0.229,0.334-0.345,0.822-0.345,1.467c0,0.318,0.029,0.599,0.086,0.842c0.058,0.243,0.143,0.446,0.256,0.609
			c0.112,0.163,0.254,0.286,0.424,0.367c0.17,0.082,0.367,0.123,0.593,0.123c0.229,0,0.427-0.034,0.593-0.103
			c0.165-0.068,0.31-0.145,0.434-0.229s0.228-0.16,0.312-0.229s0.154-0.103,0.212-0.103c0.04,0,0.073,0.011,0.1,0.032
			c0.026,0.022,0.047,0.063,0.063,0.123s0.027,0.136,0.036,0.229S515.409,100.193,515.409,100.339z"/>
		<path fill="#35A35B" d="M521.569,101.3c0,0.062-0.022,0.11-0.066,0.146c-0.045,0.035-0.114,0.061-0.209,0.076
			s-0.235,0.023-0.421,0.023c-0.198,0-0.343-0.008-0.434-0.023s-0.154-0.041-0.192-0.076c-0.037-0.035-0.056-0.084-0.056-0.146
			v-0.471c-0.243,0.261-0.521,0.464-0.832,0.609c-0.311,0.146-0.656,0.219-1.036,0.219c-0.313,0-0.602-0.041-0.864-0.122
			c-0.263-0.082-0.49-0.203-0.683-0.365c-0.191-0.161-0.341-0.36-0.447-0.599c-0.105-0.239-0.158-0.517-0.158-0.835
			c0-0.345,0.066-0.644,0.201-0.897s0.336-0.464,0.604-0.629c0.267-0.166,0.6-0.289,0.996-0.368
			c0.397-0.079,0.859-0.119,1.385-0.119h0.576v-0.357c0-0.186-0.019-0.348-0.056-0.487c-0.038-0.139-0.1-0.255-0.186-0.348
			c-0.087-0.093-0.201-0.161-0.345-0.205s-0.321-0.066-0.533-0.066c-0.278,0-0.526,0.031-0.745,0.093s-0.412,0.13-0.58,0.205
			s-0.308,0.144-0.42,0.205c-0.113,0.063-0.205,0.093-0.275,0.093c-0.049,0-0.092-0.015-0.129-0.046
			c-0.038-0.031-0.068-0.075-0.093-0.133c-0.024-0.057-0.043-0.128-0.057-0.212c-0.013-0.084-0.02-0.177-0.02-0.278
			c0-0.137,0.011-0.245,0.033-0.324c0.021-0.079,0.063-0.151,0.126-0.215c0.062-0.064,0.17-0.135,0.324-0.212
			c0.154-0.078,0.336-0.149,0.543-0.216c0.208-0.066,0.435-0.12,0.679-0.162c0.245-0.042,0.498-0.063,0.759-0.063
			c0.464,0,0.86,0.046,1.189,0.137c0.328,0.09,0.599,0.229,0.812,0.417c0.212,0.188,0.366,0.43,0.463,0.726
			c0.098,0.296,0.146,0.646,0.146,1.053V101.3z M519.933,98.77h-0.636c-0.27,0-0.499,0.02-0.688,0.06
			c-0.19,0.039-0.345,0.099-0.464,0.179c-0.119,0.079-0.207,0.176-0.262,0.288c-0.056,0.112-0.083,0.241-0.083,0.388
			c0,0.247,0.078,0.441,0.235,0.583c0.156,0.141,0.374,0.212,0.652,0.212c0.234,0,0.449-0.06,0.646-0.179
			c0.197-0.12,0.396-0.294,0.6-0.523V98.77z"/>
		<path fill="#35A35B" d="M526.604,100.696c0,0.195-0.013,0.344-0.036,0.447c-0.024,0.104-0.057,0.177-0.097,0.219
			c-0.039,0.042-0.098,0.08-0.175,0.112c-0.078,0.033-0.168,0.063-0.272,0.087c-0.104,0.023-0.216,0.043-0.337,0.056
			c-0.122,0.014-0.244,0.021-0.368,0.021c-0.331,0-0.618-0.042-0.861-0.126c-0.242-0.084-0.443-0.213-0.603-0.388
			s-0.276-0.395-0.351-0.659c-0.075-0.265-0.113-0.578-0.113-0.94v-3.027h-0.708c-0.084,0-0.148-0.052-0.192-0.155
			s-0.066-0.277-0.066-0.521c0-0.128,0.006-0.236,0.017-0.324s0.027-0.158,0.05-0.209c0.021-0.051,0.05-0.087,0.083-0.109
			c0.033-0.021,0.071-0.033,0.115-0.033h0.702v-1.317c0-0.044,0.013-0.084,0.037-0.119c0.023-0.036,0.068-0.065,0.132-0.09
			c0.064-0.024,0.15-0.042,0.259-0.053s0.241-0.017,0.4-0.017c0.163,0,0.299,0.006,0.407,0.017s0.193,0.028,0.255,0.053
			c0.063,0.024,0.106,0.054,0.133,0.09c0.026,0.035,0.04,0.075,0.04,0.119v1.317h1.285c0.044,0,0.082,0.012,0.115,0.033
			c0.033,0.022,0.061,0.059,0.083,0.109s0.039,0.121,0.05,0.209s0.017,0.196,0.017,0.324c0,0.243-0.022,0.417-0.066,0.521
			s-0.108,0.155-0.192,0.155h-1.291v2.775c0,0.322,0.051,0.564,0.152,0.726s0.282,0.241,0.543,0.241
			c0.088,0,0.168-0.007,0.238-0.022s0.134-0.033,0.188-0.054c0.056-0.02,0.102-0.037,0.14-0.053
			c0.037-0.016,0.071-0.023,0.103-0.023c0.026,0,0.052,0.008,0.076,0.023s0.043,0.047,0.057,0.093
			c0.013,0.047,0.025,0.109,0.036,0.188C526.598,100.472,526.604,100.573,526.604,100.696z"/>
		<path fill="#35A35B" d="M533.102,98.153c0,0.203-0.046,0.354-0.136,0.45c-0.091,0.098-0.216,0.146-0.375,0.146h-3.597
			c0,0.252,0.03,0.48,0.09,0.686c0.06,0.206,0.154,0.38,0.285,0.523c0.13,0.144,0.298,0.253,0.503,0.328s0.451,0.112,0.738,0.112
			c0.292,0,0.548-0.021,0.769-0.063s0.412-0.089,0.573-0.14s0.295-0.097,0.4-0.139c0.106-0.042,0.192-0.063,0.259-0.063
			c0.039,0,0.072,0.007,0.099,0.022c0.027,0.016,0.049,0.043,0.066,0.083s0.03,0.096,0.037,0.169c0.006,0.073,0.01,0.165,0.01,0.274
			c0,0.098-0.003,0.181-0.007,0.249c-0.005,0.068-0.011,0.127-0.02,0.176c-0.009,0.048-0.022,0.089-0.04,0.122
			s-0.041,0.065-0.069,0.096c-0.029,0.031-0.107,0.073-0.235,0.126c-0.128,0.054-0.292,0.105-0.49,0.156s-0.426,0.095-0.683,0.132
			c-0.256,0.038-0.529,0.057-0.821,0.057c-0.525,0-0.985-0.066-1.381-0.198c-0.396-0.133-0.726-0.334-0.99-0.604
			c-0.265-0.269-0.463-0.609-0.593-1.02c-0.13-0.411-0.195-0.893-0.195-1.444c0-0.525,0.068-0.999,0.205-1.421
			s0.336-0.779,0.597-1.073c0.26-0.293,0.577-0.518,0.95-0.672s0.794-0.232,1.262-0.232c0.494,0,0.918,0.073,1.269,0.219
			c0.351,0.146,0.64,0.348,0.864,0.606c0.226,0.258,0.391,0.564,0.497,0.917c0.105,0.354,0.159,0.738,0.159,1.153V98.153z
			 M531.485,97.677c0.013-0.469-0.081-0.836-0.282-1.104c-0.2-0.267-0.511-0.4-0.931-0.4c-0.212,0-0.396,0.04-0.553,0.119
			c-0.157,0.079-0.287,0.187-0.391,0.321s-0.184,0.294-0.238,0.477c-0.056,0.184-0.088,0.379-0.097,0.587H531.485z"/>
	</g>
	<g>
		<path fill="#313131" d="M465.532,107.251c0,0.342-0.04,0.649-0.121,0.923c-0.08,0.274-0.2,0.508-0.36,0.7
			c-0.159,0.192-0.36,0.34-0.602,0.443s-0.522,0.154-0.845,0.154c-0.317,0-0.592-0.047-0.823-0.142s-0.423-0.231-0.574-0.412
			s-0.264-0.404-0.338-0.672s-0.11-0.575-0.11-0.924c0-0.332,0.04-0.635,0.12-0.906c0.081-0.271,0.201-0.503,0.362-0.693
			s0.362-0.337,0.604-0.44c0.241-0.103,0.522-0.154,0.845-0.154c0.311,0,0.581,0.047,0.812,0.14c0.23,0.094,0.423,0.23,0.576,0.409
			c0.153,0.18,0.268,0.401,0.343,0.666C465.494,106.606,465.532,106.909,465.532,107.251z M464.938,107.29
			c0-0.239-0.021-0.462-0.063-0.667s-0.113-0.384-0.212-0.535c-0.099-0.15-0.23-0.269-0.396-0.354s-0.369-0.127-0.612-0.127
			s-0.447,0.045-0.612,0.137c-0.165,0.091-0.3,0.213-0.402,0.365c-0.104,0.152-0.178,0.33-0.222,0.533
			c-0.045,0.203-0.066,0.417-0.066,0.641c0,0.248,0.021,0.477,0.062,0.686s0.11,0.389,0.208,0.54
			c0.098,0.15,0.229,0.269,0.393,0.352c0.164,0.084,0.37,0.126,0.617,0.126c0.246,0,0.452-0.046,0.619-0.137
			c0.167-0.092,0.302-0.215,0.404-0.371c0.102-0.155,0.175-0.335,0.218-0.539C464.917,107.734,464.938,107.519,464.938,107.29z"/>
		<path fill="#313131" d="M468.551,109.329c0,0.017-0.004,0.031-0.013,0.044c-0.009,0.012-0.022,0.021-0.042,0.03
			s-0.047,0.016-0.082,0.02c-0.035,0.005-0.078,0.007-0.13,0.007c-0.055,0-0.1-0.002-0.134-0.007
			c-0.035-0.004-0.063-0.011-0.082-0.02s-0.033-0.019-0.042-0.03c-0.009-0.013-0.014-0.027-0.014-0.044v-1.72
			c0-0.167-0.013-0.302-0.039-0.404c-0.025-0.102-0.063-0.19-0.114-0.264c-0.05-0.074-0.114-0.131-0.193-0.17
			c-0.08-0.039-0.172-0.059-0.276-0.059c-0.135,0-0.27,0.048-0.404,0.144s-0.276,0.235-0.424,0.421v2.052
			c0,0.017-0.004,0.031-0.013,0.044c-0.009,0.012-0.023,0.021-0.043,0.03s-0.047,0.016-0.081,0.02
			c-0.035,0.005-0.079,0.007-0.134,0.007c-0.053,0-0.096-0.002-0.131-0.007c-0.034-0.004-0.063-0.011-0.083-0.02
			s-0.035-0.019-0.042-0.03c-0.008-0.013-0.012-0.027-0.012-0.044v-2.936c0-0.018,0.003-0.032,0.01-0.045
			c0.007-0.012,0.02-0.022,0.039-0.032s0.045-0.017,0.075-0.02s0.07-0.005,0.12-0.005c0.048,0,0.088,0.002,0.119,0.005
			c0.032,0.003,0.057,0.01,0.074,0.02c0.017,0.01,0.029,0.021,0.037,0.032c0.008,0.013,0.012,0.027,0.012,0.045v0.388
			c0.165-0.185,0.329-0.32,0.494-0.406c0.164-0.086,0.329-0.129,0.497-0.129c0.195,0,0.36,0.033,0.494,0.1s0.242,0.155,0.324,0.266
			c0.083,0.111,0.143,0.241,0.178,0.39c0.036,0.149,0.054,0.328,0.054,0.537V109.329z"/>
		<path fill="#313131" d="M471.704,107.733c0,0.085-0.021,0.146-0.063,0.182c-0.043,0.035-0.092,0.054-0.146,0.054h-1.933
			c0,0.163,0.016,0.31,0.049,0.44c0.033,0.13,0.088,0.242,0.164,0.336c0.076,0.093,0.176,0.165,0.298,0.215
			c0.123,0.05,0.272,0.075,0.449,0.075c0.14,0,0.265-0.012,0.374-0.034c0.109-0.023,0.203-0.049,0.283-0.077
			s0.146-0.054,0.196-0.076c0.052-0.023,0.091-0.034,0.117-0.034c0.015,0,0.028,0.004,0.04,0.011
			c0.013,0.008,0.021,0.02,0.028,0.035c0.007,0.015,0.012,0.036,0.015,0.063s0.005,0.06,0.005,0.1c0,0.028-0.001,0.053-0.003,0.073
			s-0.005,0.039-0.009,0.055c-0.003,0.017-0.008,0.031-0.016,0.045c-0.008,0.013-0.018,0.025-0.029,0.037
			c-0.013,0.012-0.048,0.031-0.106,0.059s-0.135,0.054-0.229,0.08c-0.093,0.026-0.201,0.05-0.324,0.07s-0.254,0.03-0.393,0.03
			c-0.242,0-0.453-0.033-0.635-0.101s-0.334-0.168-0.458-0.3c-0.124-0.133-0.218-0.299-0.281-0.499
			c-0.063-0.2-0.094-0.433-0.094-0.698c0-0.252,0.032-0.479,0.098-0.68s0.159-0.372,0.282-0.513c0.122-0.14,0.271-0.248,0.445-0.322
			c0.174-0.075,0.368-0.113,0.583-0.113c0.23,0,0.427,0.037,0.589,0.111s0.296,0.173,0.399,0.298c0.104,0.126,0.182,0.272,0.23,0.44
			c0.049,0.169,0.073,0.349,0.073,0.54V107.733z M471.163,107.574c0.006-0.283-0.057-0.505-0.189-0.666
			c-0.132-0.16-0.328-0.241-0.589-0.241c-0.133,0-0.25,0.025-0.351,0.075s-0.186,0.116-0.253,0.199
			c-0.068,0.082-0.12,0.179-0.157,0.288c-0.038,0.11-0.059,0.225-0.063,0.345H471.163z"/>
		<path fill="#313131" d="M475.693,108.227c0,0.197-0.037,0.374-0.109,0.528c-0.073,0.154-0.174,0.285-0.304,0.393
			c-0.129,0.107-0.281,0.188-0.456,0.243c-0.176,0.055-0.364,0.081-0.566,0.081c-0.142,0-0.272-0.012-0.393-0.035
			c-0.121-0.024-0.229-0.054-0.323-0.088c-0.095-0.035-0.174-0.071-0.238-0.108c-0.063-0.037-0.108-0.068-0.134-0.095
			c-0.024-0.025-0.043-0.059-0.055-0.099c-0.013-0.041-0.019-0.095-0.019-0.162c0-0.048,0.002-0.087,0.007-0.119
			c0.004-0.031,0.011-0.057,0.02-0.076s0.02-0.033,0.032-0.041c0.014-0.008,0.028-0.012,0.046-0.012c0.03,0,0.073,0.019,0.129,0.056
			s0.127,0.077,0.214,0.121c0.087,0.043,0.191,0.084,0.314,0.122s0.265,0.057,0.426,0.057c0.122,0,0.233-0.016,0.334-0.049
			c0.102-0.032,0.188-0.078,0.261-0.139c0.073-0.06,0.129-0.133,0.168-0.22s0.059-0.186,0.059-0.297
			c0-0.119-0.026-0.222-0.081-0.307s-0.126-0.159-0.215-0.224c-0.09-0.063-0.191-0.122-0.306-0.176s-0.23-0.107-0.351-0.163
			c-0.119-0.056-0.235-0.117-0.349-0.185s-0.214-0.146-0.304-0.238c-0.089-0.091-0.161-0.198-0.217-0.321
			c-0.056-0.122-0.083-0.27-0.083-0.441c0-0.176,0.032-0.333,0.097-0.472c0.063-0.138,0.153-0.254,0.267-0.347
			c0.114-0.094,0.25-0.165,0.408-0.214c0.157-0.049,0.328-0.073,0.511-0.073c0.093,0,0.188,0.008,0.281,0.024
			c0.095,0.016,0.185,0.038,0.268,0.065c0.084,0.026,0.158,0.058,0.224,0.091c0.065,0.034,0.108,0.061,0.129,0.082
			c0.021,0.021,0.034,0.036,0.041,0.049c0.006,0.012,0.012,0.027,0.017,0.045c0.004,0.019,0.007,0.041,0.01,0.067
			c0.002,0.026,0.003,0.06,0.003,0.101c0,0.039-0.002,0.074-0.005,0.104c-0.003,0.031-0.008,0.057-0.015,0.077
			s-0.016,0.036-0.028,0.046c-0.012,0.01-0.025,0.015-0.04,0.015c-0.024,0-0.062-0.016-0.113-0.046
			c-0.051-0.03-0.113-0.064-0.188-0.103c-0.073-0.038-0.161-0.073-0.262-0.104c-0.102-0.032-0.215-0.048-0.341-0.048
			c-0.118,0-0.22,0.016-0.307,0.048c-0.087,0.031-0.159,0.073-0.216,0.125c-0.057,0.053-0.099,0.114-0.127,0.187
			c-0.028,0.071-0.043,0.147-0.043,0.228c0,0.118,0.027,0.219,0.082,0.304s0.127,0.16,0.217,0.226
			c0.09,0.064,0.193,0.125,0.309,0.179c0.115,0.055,0.232,0.109,0.352,0.165c0.12,0.056,0.237,0.116,0.353,0.183
			s0.218,0.145,0.309,0.234c0.09,0.091,0.163,0.197,0.219,0.32C475.665,107.914,475.693,108.059,475.693,108.227z"/>
		<path fill="#313131" d="M477.626,109.113c0,0.063-0.004,0.113-0.013,0.15s-0.022,0.063-0.039,0.081
			c-0.018,0.018-0.044,0.034-0.079,0.049c-0.034,0.016-0.074,0.028-0.118,0.038c-0.045,0.01-0.093,0.018-0.143,0.024
			c-0.05,0.006-0.1,0.01-0.149,0.01c-0.152,0-0.283-0.021-0.392-0.061c-0.109-0.04-0.198-0.102-0.268-0.183
			c-0.069-0.082-0.12-0.185-0.151-0.31c-0.032-0.125-0.048-0.272-0.048-0.442v-1.716h-0.411c-0.032,0-0.059-0.017-0.078-0.052
			s-0.029-0.092-0.029-0.17c0-0.041,0.003-0.076,0.009-0.104c0.005-0.028,0.012-0.052,0.021-0.069
			c0.009-0.019,0.021-0.032,0.034-0.04c0.015-0.007,0.03-0.011,0.048-0.011h0.407v-0.698c0-0.016,0.004-0.029,0.012-0.042
			c0.008-0.014,0.021-0.024,0.042-0.034c0.021-0.011,0.049-0.018,0.084-0.021c0.034-0.005,0.078-0.007,0.13-0.007
			c0.055,0,0.099,0.002,0.134,0.007c0.035,0.004,0.063,0.011,0.082,0.021c0.02,0.01,0.033,0.021,0.042,0.034
			c0.009,0.013,0.013,0.026,0.013,0.042v0.698h0.754c0.018,0,0.032,0.004,0.046,0.011c0.013,0.008,0.024,0.021,0.034,0.04
			c0.01,0.018,0.017,0.041,0.021,0.069c0.005,0.028,0.007,0.063,0.007,0.104c0,0.078-0.01,0.135-0.029,0.17
			s-0.046,0.052-0.078,0.052h-0.754v1.638c0,0.202,0.03,0.354,0.09,0.458s0.167,0.155,0.321,0.155c0.05,0,0.095-0.005,0.134-0.015
			s0.074-0.021,0.104-0.031s0.057-0.021,0.078-0.031s0.041-0.015,0.059-0.015c0.011,0,0.021,0.003,0.031,0.009
			c0.01,0.005,0.018,0.016,0.022,0.03c0.006,0.016,0.011,0.036,0.015,0.063C477.624,109.042,477.626,109.074,477.626,109.113z"/>
		<path fill="#313131" d="M480.732,107.828c0,0.239-0.031,0.46-0.094,0.66c-0.063,0.201-0.157,0.375-0.282,0.521
			s-0.282,0.26-0.47,0.341c-0.188,0.082-0.406,0.122-0.654,0.122c-0.241,0-0.451-0.035-0.631-0.107
			c-0.18-0.071-0.329-0.176-0.448-0.313c-0.12-0.138-0.209-0.304-0.268-0.499c-0.059-0.196-0.088-0.418-0.088-0.666
			c0-0.239,0.03-0.459,0.093-0.66c0.062-0.201,0.155-0.375,0.28-0.521s0.281-0.259,0.468-0.339c0.188-0.08,0.406-0.121,0.656-0.121
			c0.241,0,0.451,0.036,0.631,0.107c0.18,0.072,0.329,0.177,0.448,0.313c0.12,0.137,0.209,0.304,0.27,0.499
			C480.703,107.362,480.732,107.583,480.732,107.828z M480.175,107.864c0-0.159-0.015-0.309-0.044-0.45
			c-0.03-0.142-0.079-0.266-0.146-0.372c-0.068-0.106-0.16-0.19-0.276-0.253c-0.116-0.062-0.262-0.093-0.435-0.093
			c-0.16,0-0.298,0.028-0.413,0.085s-0.21,0.137-0.285,0.24c-0.074,0.103-0.13,0.226-0.166,0.366
			c-0.036,0.142-0.054,0.296-0.054,0.464c0,0.16,0.015,0.312,0.044,0.453c0.03,0.142,0.079,0.265,0.148,0.37
			s0.162,0.189,0.278,0.251s0.261,0.093,0.434,0.093c0.158,0,0.296-0.028,0.412-0.085s0.211-0.136,0.286-0.237
			c0.074-0.103,0.129-0.225,0.164-0.366C480.157,108.189,480.175,108.034,480.175,107.864z"/>
		<path fill="#313131" d="M483.892,107.815c0,0.257-0.027,0.487-0.083,0.691s-0.137,0.378-0.244,0.521
			c-0.107,0.142-0.241,0.252-0.399,0.329c-0.159,0.077-0.341,0.115-0.545,0.115c-0.087,0-0.168-0.008-0.241-0.025
			c-0.074-0.018-0.146-0.045-0.217-0.082c-0.071-0.037-0.142-0.083-0.211-0.14s-0.144-0.123-0.222-0.199v1.468
			c0,0.018-0.004,0.032-0.013,0.046c-0.009,0.013-0.023,0.023-0.043,0.032s-0.047,0.016-0.081,0.02
			c-0.035,0.004-0.079,0.007-0.134,0.007c-0.053,0-0.096-0.003-0.131-0.007c-0.034-0.004-0.063-0.011-0.083-0.02
			s-0.035-0.02-0.042-0.032c-0.008-0.014-0.012-0.028-0.012-0.046v-4.1c0-0.02,0.003-0.036,0.01-0.048s0.02-0.022,0.039-0.031
			c0.02-0.008,0.045-0.015,0.075-0.018s0.067-0.005,0.11-0.005c0.046,0,0.084,0.002,0.113,0.005s0.054,0.01,0.073,0.018
			c0.02,0.009,0.033,0.02,0.041,0.031c0.007,0.012,0.011,0.028,0.011,0.048v0.395c0.09-0.092,0.175-0.171,0.258-0.238
			s0.166-0.123,0.25-0.168c0.083-0.045,0.169-0.078,0.257-0.102c0.089-0.022,0.182-0.034,0.279-0.034
			c0.213,0,0.395,0.042,0.545,0.124c0.149,0.083,0.272,0.196,0.367,0.34c0.094,0.144,0.163,0.31,0.207,0.5
			C483.87,107.4,483.892,107.603,483.892,107.815z M483.334,107.877c0-0.149-0.011-0.295-0.034-0.436
			c-0.023-0.14-0.063-0.265-0.118-0.373s-0.131-0.195-0.225-0.261s-0.211-0.098-0.352-0.098c-0.069,0-0.139,0.01-0.206,0.03
			c-0.068,0.021-0.137,0.054-0.207,0.098c-0.07,0.045-0.144,0.104-0.22,0.177c-0.077,0.072-0.158,0.162-0.243,0.269v1.168
			c0.148,0.181,0.29,0.318,0.424,0.414c0.133,0.096,0.273,0.144,0.42,0.144c0.136,0,0.252-0.032,0.35-0.098
			c0.097-0.065,0.176-0.152,0.236-0.261c0.06-0.109,0.104-0.23,0.133-0.365S483.334,108.015,483.334,107.877z"/>
		<path fill="#313131" d="M488.42,109.325c0,0.018-0.004,0.033-0.01,0.046c-0.007,0.013-0.021,0.023-0.043,0.032
			c-0.021,0.009-0.052,0.016-0.091,0.02c-0.039,0.005-0.092,0.007-0.156,0.007c-0.057,0-0.104-0.002-0.139-0.007
			c-0.036-0.004-0.065-0.011-0.087-0.021s-0.039-0.023-0.051-0.041s-0.022-0.039-0.03-0.065l-0.389-0.995
			c-0.046-0.112-0.093-0.217-0.142-0.312c-0.049-0.094-0.107-0.176-0.175-0.244s-0.146-0.122-0.238-0.16
			c-0.091-0.038-0.201-0.057-0.329-0.057h-0.375v1.797c0,0.018-0.005,0.033-0.015,0.046s-0.025,0.023-0.046,0.031
			c-0.021,0.007-0.049,0.014-0.085,0.02c-0.035,0.005-0.081,0.008-0.135,0.008c-0.055,0-0.1-0.003-0.136-0.008
			c-0.036-0.006-0.064-0.013-0.086-0.02c-0.022-0.008-0.037-0.019-0.046-0.031s-0.014-0.028-0.014-0.046v-3.907
			c0-0.085,0.022-0.145,0.067-0.178c0.045-0.034,0.092-0.051,0.142-0.051h0.897c0.106,0,0.194,0.003,0.266,0.008
			c0.07,0.006,0.134,0.012,0.19,0.019c0.163,0.028,0.308,0.072,0.433,0.134c0.125,0.061,0.229,0.138,0.314,0.231
			s0.148,0.2,0.19,0.321c0.043,0.12,0.064,0.254,0.064,0.399c0,0.142-0.02,0.269-0.058,0.38c-0.038,0.112-0.093,0.211-0.165,0.297
			c-0.071,0.086-0.157,0.16-0.257,0.224c-0.101,0.063-0.212,0.116-0.336,0.16c0.069,0.03,0.132,0.068,0.188,0.115
			s0.109,0.103,0.158,0.168s0.096,0.141,0.139,0.226c0.044,0.084,0.087,0.18,0.131,0.286l0.378,0.93
			c0.03,0.079,0.05,0.134,0.059,0.165S488.42,109.308,488.42,109.325z M487.575,106.36c0-0.165-0.037-0.305-0.111-0.419
			s-0.197-0.196-0.372-0.246c-0.054-0.016-0.115-0.026-0.184-0.033c-0.068-0.006-0.158-0.01-0.27-0.01h-0.473v1.423h0.548
			c0.147,0,0.275-0.019,0.383-0.054c0.108-0.036,0.198-0.086,0.27-0.15s0.124-0.14,0.158-0.227
			C487.558,106.558,487.575,106.463,487.575,106.36z"/>
		<path fill="#313131" d="M491.341,107.733c0,0.085-0.021,0.146-0.063,0.182c-0.043,0.035-0.092,0.054-0.146,0.054h-1.933
			c0,0.163,0.016,0.31,0.049,0.44c0.033,0.13,0.088,0.242,0.164,0.336c0.076,0.093,0.176,0.165,0.298,0.215
			c0.123,0.05,0.272,0.075,0.449,0.075c0.14,0,0.265-0.012,0.374-0.034c0.109-0.023,0.203-0.049,0.283-0.077
			s0.146-0.054,0.196-0.076c0.052-0.023,0.091-0.034,0.117-0.034c0.015,0,0.028,0.004,0.04,0.011
			c0.013,0.008,0.021,0.02,0.028,0.035c0.007,0.015,0.012,0.036,0.015,0.063s0.005,0.06,0.005,0.1c0,0.028-0.001,0.053-0.003,0.073
			s-0.005,0.039-0.009,0.055c-0.003,0.017-0.008,0.031-0.016,0.045c-0.008,0.013-0.018,0.025-0.029,0.037
			c-0.013,0.012-0.048,0.031-0.106,0.059s-0.135,0.054-0.229,0.08c-0.093,0.026-0.201,0.05-0.324,0.07s-0.254,0.03-0.393,0.03
			c-0.242,0-0.453-0.033-0.635-0.101s-0.334-0.168-0.458-0.3c-0.124-0.133-0.218-0.299-0.281-0.499
			c-0.063-0.2-0.094-0.433-0.094-0.698c0-0.252,0.032-0.479,0.098-0.68s0.159-0.372,0.282-0.513c0.122-0.14,0.271-0.248,0.445-0.322
			c0.174-0.075,0.368-0.113,0.583-0.113c0.23,0,0.427,0.037,0.589,0.111s0.296,0.173,0.399,0.298c0.104,0.126,0.182,0.272,0.23,0.44
			c0.049,0.169,0.073,0.349,0.073,0.54V107.733z M490.8,107.574c0.006-0.283-0.057-0.505-0.189-0.666
			c-0.132-0.16-0.328-0.241-0.589-0.241c-0.133,0-0.25,0.025-0.351,0.075s-0.186,0.116-0.253,0.199
			c-0.068,0.082-0.12,0.179-0.157,0.288c-0.038,0.11-0.059,0.225-0.063,0.345H490.8z"/>
		<path fill="#313131" d="M492.363,109.329c0,0.017-0.004,0.031-0.013,0.044c-0.009,0.012-0.023,0.021-0.043,0.03
			s-0.047,0.016-0.081,0.02c-0.035,0.005-0.079,0.007-0.134,0.007c-0.053,0-0.096-0.002-0.131-0.007
			c-0.034-0.004-0.063-0.011-0.083-0.02s-0.035-0.019-0.042-0.03c-0.008-0.013-0.012-0.027-0.012-0.044v-4.358
			c0-0.017,0.004-0.032,0.012-0.045c0.007-0.014,0.021-0.024,0.042-0.033s0.049-0.015,0.083-0.02
			c0.035-0.004,0.078-0.007,0.131-0.007c0.055,0,0.099,0.003,0.134,0.007c0.034,0.005,0.062,0.011,0.081,0.02
			s0.034,0.02,0.043,0.033c0.009,0.013,0.013,0.028,0.013,0.045V109.329z"/>
		<path fill="#313131" d="M495.754,107.828c0,0.239-0.031,0.46-0.094,0.66c-0.063,0.201-0.157,0.375-0.282,0.521
			s-0.282,0.26-0.47,0.341c-0.188,0.082-0.406,0.122-0.654,0.122c-0.241,0-0.451-0.035-0.631-0.107
			c-0.18-0.071-0.329-0.176-0.448-0.313c-0.12-0.138-0.209-0.304-0.268-0.499c-0.059-0.196-0.088-0.418-0.088-0.666
			c0-0.239,0.03-0.459,0.093-0.66c0.062-0.201,0.155-0.375,0.28-0.521s0.281-0.259,0.468-0.339c0.188-0.08,0.406-0.121,0.656-0.121
			c0.241,0,0.451,0.036,0.631,0.107c0.18,0.072,0.329,0.177,0.448,0.313c0.12,0.137,0.209,0.304,0.27,0.499
			C495.725,107.362,495.754,107.583,495.754,107.828z M495.196,107.864c0-0.159-0.015-0.309-0.044-0.45
			c-0.03-0.142-0.079-0.266-0.146-0.372c-0.068-0.106-0.16-0.19-0.276-0.253c-0.116-0.062-0.262-0.093-0.435-0.093
			c-0.16,0-0.298,0.028-0.413,0.085s-0.21,0.137-0.285,0.24c-0.074,0.103-0.13,0.226-0.166,0.366
			c-0.036,0.142-0.054,0.296-0.054,0.464c0,0.16,0.015,0.312,0.044,0.453c0.03,0.142,0.079,0.265,0.148,0.37
			s0.162,0.189,0.278,0.251s0.261,0.093,0.434,0.093c0.158,0,0.296-0.028,0.412-0.085s0.211-0.136,0.286-0.237
			c0.074-0.103,0.129-0.225,0.164-0.366C495.179,108.189,495.196,108.034,495.196,107.864z"/>
		<path fill="#313131" d="M498.323,108.882c0,0.037-0.001,0.069-0.003,0.096c-0.003,0.027-0.007,0.051-0.012,0.069
			c-0.006,0.019-0.012,0.034-0.02,0.049c-0.008,0.014-0.025,0.034-0.053,0.062c-0.026,0.027-0.073,0.062-0.139,0.102
			c-0.064,0.04-0.138,0.076-0.22,0.107c-0.081,0.031-0.17,0.057-0.266,0.076s-0.194,0.029-0.297,0.029
			c-0.211,0-0.398-0.034-0.562-0.104c-0.163-0.07-0.299-0.172-0.409-0.306c-0.109-0.134-0.193-0.298-0.251-0.492
			s-0.086-0.419-0.086-0.674c0-0.289,0.035-0.537,0.105-0.745c0.07-0.207,0.168-0.378,0.29-0.511
			c0.123-0.132,0.268-0.23,0.435-0.295c0.166-0.064,0.346-0.096,0.539-0.096c0.094,0,0.185,0.009,0.272,0.025
			c0.088,0.018,0.169,0.041,0.243,0.068c0.074,0.028,0.14,0.062,0.197,0.099s0.1,0.068,0.126,0.095
			c0.025,0.025,0.044,0.046,0.054,0.062s0.018,0.033,0.024,0.054s0.011,0.044,0.013,0.07s0.004,0.059,0.004,0.098
			c0,0.085-0.01,0.145-0.03,0.178c-0.02,0.034-0.043,0.051-0.071,0.051c-0.032,0-0.07-0.018-0.112-0.054
			c-0.043-0.036-0.097-0.076-0.162-0.119c-0.064-0.044-0.144-0.083-0.236-0.119c-0.092-0.036-0.201-0.054-0.327-0.054
			c-0.259,0-0.457,0.1-0.596,0.298c-0.138,0.199-0.207,0.488-0.207,0.866c0,0.189,0.018,0.355,0.054,0.498
			c0.036,0.142,0.089,0.261,0.158,0.356s0.155,0.167,0.256,0.214c0.102,0.047,0.217,0.07,0.348,0.07c0.124,0,0.232-0.02,0.326-0.059
			s0.175-0.082,0.243-0.129s0.126-0.089,0.173-0.127s0.083-0.058,0.109-0.058c0.015,0,0.028,0.005,0.039,0.013
			c0.011,0.009,0.02,0.023,0.027,0.045c0.008,0.021,0.014,0.046,0.017,0.078C498.321,108.801,498.323,108.838,498.323,108.882z"/>
		<path fill="#313131" d="M500.914,109.332c0,0.026-0.008,0.046-0.025,0.059s-0.042,0.022-0.072,0.029s-0.075,0.01-0.134,0.01
			c-0.057,0-0.102-0.003-0.135-0.01c-0.034-0.007-0.059-0.017-0.073-0.029c-0.016-0.013-0.023-0.032-0.023-0.059v-0.294
			c-0.128,0.138-0.271,0.244-0.429,0.32c-0.157,0.075-0.324,0.113-0.501,0.113c-0.154,0-0.294-0.02-0.419-0.06
			c-0.125-0.041-0.231-0.099-0.319-0.175s-0.156-0.17-0.206-0.28c-0.049-0.111-0.073-0.237-0.073-0.379
			c0-0.165,0.034-0.309,0.102-0.431c0.067-0.121,0.164-0.223,0.29-0.303c0.126-0.081,0.28-0.141,0.463-0.182
			c0.183-0.04,0.389-0.06,0.617-0.06h0.404v-0.229c0-0.113-0.013-0.213-0.036-0.3c-0.024-0.087-0.063-0.159-0.116-0.217
			c-0.053-0.058-0.122-0.102-0.207-0.131s-0.188-0.044-0.313-0.044c-0.133,0-0.252,0.016-0.357,0.047
			c-0.105,0.032-0.198,0.066-0.277,0.104s-0.146,0.073-0.199,0.104c-0.053,0.031-0.093,0.047-0.119,0.047
			c-0.017,0-0.032-0.004-0.045-0.013c-0.014-0.009-0.024-0.021-0.034-0.039s-0.018-0.04-0.021-0.066
			c-0.005-0.027-0.007-0.058-0.007-0.09c0-0.055,0.004-0.098,0.012-0.129s0.026-0.062,0.056-0.09s0.08-0.062,0.151-0.1
			s0.154-0.073,0.248-0.104s0.195-0.058,0.307-0.078c0.11-0.021,0.223-0.031,0.336-0.031c0.211,0,0.39,0.024,0.538,0.072
			c0.147,0.048,0.268,0.118,0.358,0.21c0.092,0.093,0.158,0.207,0.199,0.345c0.041,0.137,0.062,0.296,0.062,0.479V109.332z
			 M500.38,107.991h-0.46c-0.148,0-0.276,0.013-0.385,0.038c-0.109,0.024-0.199,0.062-0.271,0.11
			c-0.071,0.049-0.124,0.107-0.158,0.176c-0.033,0.069-0.05,0.147-0.05,0.237c0,0.151,0.048,0.273,0.145,0.363
			s0.232,0.136,0.406,0.136c0.142,0,0.272-0.036,0.394-0.108c0.12-0.071,0.247-0.181,0.38-0.329V107.991z"/>
		<path fill="#313131" d="M504.122,106.309c0.065,0,0.11,0.015,0.134,0.044c0.024,0.029,0.036,0.072,0.036,0.129v2.848
			c0,0.017-0.005,0.031-0.014,0.044c-0.008,0.012-0.023,0.021-0.044,0.03s-0.048,0.016-0.083,0.02
			c-0.034,0.005-0.077,0.007-0.127,0.007c-0.055,0-0.099-0.002-0.134-0.007c-0.035-0.004-0.063-0.011-0.083-0.02
			s-0.035-0.019-0.044-0.03c-0.009-0.013-0.014-0.027-0.014-0.044v-2.574h-1.517v1.638c0,0.202,0.03,0.354,0.09,0.458
			s0.167,0.155,0.321,0.155c0.05,0,0.095-0.005,0.134-0.015s0.074-0.021,0.104-0.031s0.057-0.021,0.078-0.031
			s0.041-0.015,0.059-0.015c0.011,0,0.021,0.003,0.031,0.009c0.01,0.005,0.018,0.016,0.022,0.03
			c0.006,0.016,0.011,0.036,0.015,0.063c0.005,0.026,0.007,0.059,0.007,0.098c0,0.063-0.004,0.112-0.013,0.148
			s-0.022,0.063-0.039,0.082c-0.018,0.018-0.044,0.035-0.079,0.05c-0.034,0.016-0.074,0.028-0.118,0.038
			c-0.045,0.01-0.093,0.018-0.143,0.024c-0.05,0.006-0.1,0.01-0.149,0.01c-0.152,0-0.283-0.021-0.392-0.061
			c-0.109-0.04-0.198-0.102-0.268-0.183c-0.069-0.082-0.12-0.185-0.151-0.31c-0.032-0.125-0.048-0.272-0.048-0.442v-1.716h-0.411
			c-0.032,0-0.059-0.017-0.078-0.052s-0.029-0.092-0.029-0.17c0-0.041,0.003-0.076,0.009-0.104c0.005-0.028,0.012-0.052,0.021-0.069
			c0.009-0.019,0.021-0.032,0.034-0.04c0.015-0.007,0.03-0.011,0.048-0.011h0.407v-0.698c0-0.016,0.004-0.029,0.012-0.042
			c0.008-0.014,0.021-0.024,0.042-0.034c0.021-0.011,0.049-0.018,0.084-0.021c0.034-0.005,0.078-0.007,0.13-0.007
			c0.055,0,0.099,0.002,0.134,0.007c0.035,0.004,0.063,0.011,0.082,0.021c0.02,0.01,0.033,0.021,0.042,0.034
			c0.009,0.013,0.013,0.026,0.013,0.042v0.698H504.122z M504.354,105.401c0,0.126-0.023,0.212-0.071,0.258s-0.136,0.068-0.265,0.068
			c-0.126,0-0.212-0.022-0.259-0.066c-0.047-0.045-0.07-0.129-0.07-0.253c0-0.126,0.023-0.212,0.071-0.258s0.137-0.068,0.265-0.068
			c0.126,0,0.213,0.022,0.259,0.066C504.33,105.193,504.354,105.277,504.354,105.401z"/>
		<path fill="#313131" d="M507.686,107.828c0,0.239-0.031,0.46-0.094,0.66c-0.063,0.201-0.157,0.375-0.282,0.521
			s-0.282,0.26-0.47,0.341c-0.188,0.082-0.406,0.122-0.654,0.122c-0.241,0-0.451-0.035-0.631-0.107
			c-0.18-0.071-0.329-0.176-0.448-0.313c-0.12-0.138-0.209-0.304-0.268-0.499c-0.059-0.196-0.088-0.418-0.088-0.666
			c0-0.239,0.03-0.459,0.093-0.66c0.062-0.201,0.155-0.375,0.28-0.521s0.281-0.259,0.468-0.339c0.188-0.08,0.406-0.121,0.656-0.121
			c0.241,0,0.451,0.036,0.631,0.107c0.18,0.072,0.329,0.177,0.448,0.313c0.12,0.137,0.209,0.304,0.27,0.499
			C507.656,107.362,507.686,107.583,507.686,107.828z M507.128,107.864c0-0.159-0.015-0.309-0.044-0.45
			c-0.03-0.142-0.079-0.266-0.146-0.372c-0.068-0.106-0.16-0.19-0.276-0.253c-0.116-0.062-0.262-0.093-0.435-0.093
			c-0.16,0-0.298,0.028-0.413,0.085s-0.21,0.137-0.285,0.24c-0.074,0.103-0.13,0.226-0.166,0.366
			c-0.036,0.142-0.054,0.296-0.054,0.464c0,0.16,0.015,0.312,0.044,0.453c0.03,0.142,0.079,0.265,0.148,0.37
			s0.162,0.189,0.278,0.251s0.261,0.093,0.434,0.093c0.158,0,0.296-0.028,0.412-0.085s0.211-0.136,0.286-0.237
			c0.074-0.103,0.129-0.225,0.164-0.366C507.11,108.189,507.128,108.034,507.128,107.864z"/>
		<path fill="#313131" d="M510.672,109.329c0,0.017-0.004,0.031-0.013,0.044c-0.009,0.012-0.022,0.021-0.042,0.03
			s-0.047,0.016-0.082,0.02c-0.035,0.005-0.078,0.007-0.13,0.007c-0.055,0-0.1-0.002-0.134-0.007
			c-0.035-0.004-0.063-0.011-0.082-0.02s-0.033-0.019-0.042-0.03c-0.009-0.013-0.014-0.027-0.014-0.044v-1.72
			c0-0.167-0.013-0.302-0.039-0.404c-0.025-0.102-0.063-0.19-0.114-0.264c-0.05-0.074-0.114-0.131-0.193-0.17
			c-0.08-0.039-0.172-0.059-0.276-0.059c-0.135,0-0.27,0.048-0.404,0.144s-0.276,0.235-0.424,0.421v2.052
			c0,0.017-0.004,0.031-0.013,0.044c-0.009,0.012-0.023,0.021-0.043,0.03s-0.047,0.016-0.081,0.02
			c-0.035,0.005-0.079,0.007-0.134,0.007c-0.053,0-0.096-0.002-0.131-0.007c-0.034-0.004-0.063-0.011-0.083-0.02
			s-0.035-0.019-0.042-0.03c-0.008-0.013-0.012-0.027-0.012-0.044v-2.936c0-0.018,0.003-0.032,0.01-0.045
			c0.007-0.012,0.02-0.022,0.039-0.032s0.045-0.017,0.075-0.02s0.07-0.005,0.12-0.005c0.048,0,0.088,0.002,0.119,0.005
			c0.032,0.003,0.057,0.01,0.074,0.02c0.017,0.01,0.029,0.021,0.037,0.032c0.008,0.013,0.012,0.027,0.012,0.045v0.388
			c0.165-0.185,0.329-0.32,0.494-0.406c0.164-0.086,0.329-0.129,0.497-0.129c0.195,0,0.36,0.033,0.494,0.1s0.242,0.155,0.324,0.266
			c0.083,0.111,0.143,0.241,0.178,0.39c0.036,0.149,0.054,0.328,0.054,0.537V109.329z"/>
		<path fill="#313131" d="M515.151,106.426c0,0.211-0.035,0.401-0.104,0.57c-0.069,0.17-0.169,0.314-0.299,0.435
			c-0.129,0.119-0.288,0.212-0.476,0.277c-0.188,0.064-0.413,0.098-0.674,0.098h-0.479v1.52c0,0.018-0.005,0.033-0.015,0.046
			s-0.025,0.023-0.046,0.031c-0.021,0.007-0.049,0.014-0.085,0.02c-0.035,0.005-0.081,0.008-0.135,0.008
			c-0.055,0-0.1-0.003-0.136-0.008c-0.036-0.006-0.064-0.013-0.086-0.02c-0.022-0.008-0.037-0.019-0.046-0.031
			s-0.014-0.028-0.014-0.046v-3.895c0-0.087,0.023-0.148,0.069-0.186c0.045-0.037,0.097-0.056,0.153-0.056h0.903
			c0.091,0,0.179,0.004,0.263,0.012c0.083,0.008,0.183,0.023,0.297,0.049c0.113,0.025,0.229,0.071,0.349,0.141
			c0.118,0.068,0.219,0.152,0.302,0.252c0.082,0.101,0.146,0.216,0.19,0.348C515.129,106.122,515.151,106.267,515.151,106.426z
			 M514.561,106.472c0-0.172-0.032-0.315-0.096-0.431c-0.064-0.115-0.144-0.201-0.238-0.258s-0.192-0.093-0.294-0.107
			c-0.101-0.016-0.199-0.023-0.295-0.023h-0.519v1.693h0.506c0.169,0,0.31-0.021,0.422-0.065c0.112-0.043,0.206-0.104,0.282-0.181
			s0.134-0.17,0.173-0.277S514.561,106.598,514.561,106.472z"/>
		<path fill="#313131" d="M516.151,109.329c0,0.017-0.004,0.031-0.013,0.044c-0.009,0.012-0.023,0.021-0.043,0.03
			s-0.047,0.016-0.081,0.02c-0.035,0.005-0.079,0.007-0.134,0.007c-0.053,0-0.096-0.002-0.131-0.007
			c-0.034-0.004-0.063-0.011-0.083-0.02s-0.035-0.019-0.042-0.03c-0.008-0.013-0.012-0.027-0.012-0.044v-4.358
			c0-0.017,0.004-0.032,0.012-0.045c0.007-0.014,0.021-0.024,0.042-0.033s0.049-0.015,0.083-0.02
			c0.035-0.004,0.078-0.007,0.131-0.007c0.055,0,0.099,0.003,0.134,0.007c0.034,0.005,0.062,0.011,0.081,0.02
			s0.034,0.02,0.043,0.033c0.009,0.013,0.013,0.028,0.013,0.045V109.329z"/>
		<path fill="#313131" d="M519.023,109.332c0,0.026-0.008,0.046-0.025,0.059s-0.042,0.022-0.072,0.029s-0.075,0.01-0.134,0.01
			c-0.057,0-0.102-0.003-0.135-0.01c-0.034-0.007-0.059-0.017-0.073-0.029c-0.016-0.013-0.023-0.032-0.023-0.059v-0.294
			c-0.128,0.138-0.271,0.244-0.429,0.32c-0.157,0.075-0.324,0.113-0.501,0.113c-0.154,0-0.294-0.02-0.419-0.06
			c-0.125-0.041-0.231-0.099-0.319-0.175s-0.156-0.17-0.206-0.28c-0.049-0.111-0.073-0.237-0.073-0.379
			c0-0.165,0.034-0.309,0.102-0.431c0.067-0.121,0.164-0.223,0.29-0.303c0.126-0.081,0.28-0.141,0.463-0.182
			c0.183-0.04,0.389-0.06,0.617-0.06h0.404v-0.229c0-0.113-0.013-0.213-0.036-0.3c-0.024-0.087-0.063-0.159-0.116-0.217
			c-0.053-0.058-0.122-0.102-0.207-0.131s-0.188-0.044-0.313-0.044c-0.133,0-0.252,0.016-0.357,0.047
			c-0.105,0.032-0.198,0.066-0.277,0.104s-0.146,0.073-0.199,0.104c-0.053,0.031-0.093,0.047-0.119,0.047
			c-0.017,0-0.032-0.004-0.045-0.013c-0.014-0.009-0.024-0.021-0.034-0.039s-0.018-0.04-0.021-0.066
			c-0.005-0.027-0.007-0.058-0.007-0.09c0-0.055,0.004-0.098,0.012-0.129s0.026-0.062,0.056-0.09s0.08-0.062,0.151-0.1
			s0.154-0.073,0.248-0.104s0.195-0.058,0.307-0.078c0.11-0.021,0.223-0.031,0.336-0.031c0.211,0,0.39,0.024,0.538,0.072
			c0.147,0.048,0.268,0.118,0.358,0.21c0.092,0.093,0.158,0.207,0.199,0.345c0.041,0.137,0.062,0.296,0.062,0.479V109.332z
			 M518.489,107.991h-0.46c-0.148,0-0.276,0.013-0.385,0.038c-0.109,0.024-0.199,0.062-0.271,0.11
			c-0.071,0.049-0.124,0.107-0.158,0.176c-0.033,0.069-0.05,0.147-0.05,0.237c0,0.151,0.048,0.273,0.145,0.363
			s0.232,0.136,0.406,0.136c0.142,0,0.272-0.036,0.394-0.108c0.12-0.071,0.247-0.181,0.38-0.329V107.991z"/>
		<path fill="#313131" d="M521.873,106.309v-0.304c0-0.204,0.019-0.38,0.057-0.526c0.038-0.147,0.097-0.268,0.175-0.36
			c0.078-0.094,0.177-0.163,0.295-0.207c0.118-0.045,0.257-0.067,0.416-0.067c0.074,0,0.147,0.007,0.22,0.021
			c0.073,0.014,0.129,0.029,0.168,0.046c0.039,0.016,0.065,0.03,0.079,0.044c0.013,0.013,0.023,0.029,0.032,0.05
			c0.009,0.021,0.015,0.046,0.018,0.075c0.004,0.029,0.005,0.065,0.005,0.106s-0.001,0.074-0.005,0.1
			c-0.003,0.024-0.008,0.045-0.015,0.06c-0.006,0.016-0.014,0.026-0.022,0.031c-0.009,0.006-0.019,0.009-0.029,0.009
			c-0.018,0-0.05-0.01-0.097-0.03c-0.047-0.02-0.096-0.035-0.148-0.047c-0.052-0.012-0.107-0.018-0.166-0.018
			c-0.08,0-0.148,0.013-0.205,0.039c-0.057,0.025-0.103,0.066-0.138,0.122c-0.034,0.056-0.06,0.127-0.076,0.215
			c-0.017,0.089-0.024,0.195-0.024,0.321v0.32h0.655c0.018,0,0.033,0.004,0.048,0.011c0.014,0.008,0.025,0.021,0.034,0.04
			c0.009,0.018,0.016,0.041,0.021,0.069c0.006,0.028,0.009,0.063,0.009,0.104c0,0.078-0.01,0.135-0.029,0.17
			s-0.046,0.052-0.079,0.052h-0.658v2.574c0,0.017-0.005,0.031-0.014,0.044c-0.008,0.012-0.022,0.021-0.042,0.03
			s-0.047,0.016-0.081,0.02c-0.035,0.005-0.08,0.007-0.134,0.007c-0.053,0-0.096-0.002-0.131-0.007
			c-0.035-0.004-0.063-0.011-0.083-0.02s-0.035-0.019-0.043-0.03c-0.007-0.013-0.011-0.027-0.011-0.044v-2.574h-1.53v1.638
			c0,0.202,0.03,0.354,0.09,0.458s0.167,0.155,0.321,0.155c0.05,0,0.095-0.005,0.134-0.015s0.074-0.021,0.104-0.031
			s0.057-0.021,0.078-0.031s0.041-0.015,0.059-0.015c0.011,0,0.021,0.003,0.031,0.009c0.01,0.005,0.018,0.016,0.022,0.03
			c0.006,0.016,0.011,0.036,0.015,0.063c0.005,0.026,0.007,0.059,0.007,0.098c0,0.063-0.004,0.112-0.013,0.148
			s-0.022,0.063-0.039,0.082c-0.018,0.018-0.044,0.035-0.079,0.05c-0.034,0.016-0.074,0.028-0.118,0.038
			c-0.045,0.01-0.093,0.018-0.143,0.024c-0.05,0.006-0.1,0.01-0.149,0.01c-0.152,0-0.283-0.021-0.392-0.061
			c-0.109-0.04-0.198-0.102-0.268-0.183c-0.069-0.082-0.12-0.185-0.151-0.31c-0.032-0.125-0.048-0.272-0.048-0.442v-1.716h-0.411
			c-0.032,0-0.059-0.017-0.078-0.052s-0.029-0.092-0.029-0.17c0-0.041,0.003-0.076,0.009-0.104c0.005-0.028,0.012-0.052,0.021-0.069
			c0.009-0.019,0.021-0.032,0.034-0.04c0.015-0.007,0.03-0.011,0.048-0.011h0.407v-0.698c0-0.016,0.004-0.029,0.012-0.042
			c0.008-0.014,0.021-0.024,0.042-0.034c0.021-0.011,0.049-0.018,0.084-0.021c0.034-0.005,0.078-0.007,0.13-0.007
			c0.055,0,0.099,0.002,0.134,0.007c0.035,0.004,0.063,0.011,0.082,0.021c0.02,0.01,0.033,0.021,0.042,0.034
			c0.009,0.013,0.013,0.026,0.013,0.042v0.698H521.873z"/>
		<path fill="#313131" d="M526.163,107.828c0,0.239-0.031,0.46-0.094,0.66c-0.063,0.201-0.157,0.375-0.282,0.521
			s-0.282,0.26-0.47,0.341c-0.188,0.082-0.406,0.122-0.654,0.122c-0.241,0-0.451-0.035-0.631-0.107
			c-0.18-0.071-0.329-0.176-0.448-0.313c-0.12-0.138-0.209-0.304-0.268-0.499c-0.059-0.196-0.088-0.418-0.088-0.666
			c0-0.239,0.03-0.459,0.093-0.66c0.062-0.201,0.155-0.375,0.28-0.521s0.281-0.259,0.468-0.339c0.188-0.08,0.406-0.121,0.656-0.121
			c0.241,0,0.451,0.036,0.631,0.107c0.18,0.072,0.329,0.177,0.448,0.313c0.12,0.137,0.209,0.304,0.27,0.499
			C526.134,107.362,526.163,107.583,526.163,107.828z M525.605,107.864c0-0.159-0.015-0.309-0.044-0.45
			c-0.03-0.142-0.079-0.266-0.146-0.372c-0.068-0.106-0.16-0.19-0.276-0.253c-0.116-0.062-0.262-0.093-0.435-0.093
			c-0.16,0-0.298,0.028-0.413,0.085s-0.21,0.137-0.285,0.24c-0.074,0.103-0.13,0.226-0.166,0.366
			c-0.036,0.142-0.054,0.296-0.054,0.464c0,0.16,0.015,0.312,0.044,0.453c0.03,0.142,0.079,0.265,0.148,0.37
			s0.162,0.189,0.278,0.251s0.261,0.093,0.434,0.093c0.158,0,0.296-0.028,0.412-0.085s0.211-0.136,0.286-0.237
			c0.074-0.103,0.129-0.225,0.164-0.366C525.588,108.189,525.605,108.034,525.605,107.864z"/>
		<path fill="#313131" d="M528.338,106.586c0,0.048-0.001,0.088-0.004,0.12c-0.002,0.033-0.006,0.059-0.013,0.077
			s-0.015,0.032-0.024,0.042s-0.023,0.015-0.041,0.015s-0.038-0.005-0.063-0.015c-0.024-0.01-0.053-0.02-0.085-0.029
			c-0.031-0.01-0.066-0.019-0.105-0.027s-0.082-0.014-0.127-0.014c-0.055,0-0.108,0.011-0.16,0.033
			c-0.053,0.021-0.107,0.058-0.165,0.107s-0.118,0.116-0.181,0.199c-0.063,0.082-0.133,0.184-0.209,0.303v1.932
			c0,0.017-0.004,0.031-0.013,0.044c-0.009,0.012-0.023,0.021-0.043,0.03s-0.047,0.016-0.081,0.02
			c-0.035,0.005-0.079,0.007-0.134,0.007c-0.053,0-0.096-0.002-0.131-0.007c-0.034-0.004-0.063-0.011-0.083-0.02
			s-0.035-0.019-0.042-0.03c-0.008-0.013-0.012-0.027-0.012-0.044v-2.936c0-0.018,0.003-0.032,0.01-0.045
			c0.007-0.012,0.02-0.022,0.039-0.032s0.045-0.017,0.075-0.02s0.07-0.005,0.12-0.005c0.048,0,0.088,0.002,0.119,0.005
			c0.032,0.003,0.057,0.01,0.074,0.02c0.017,0.01,0.029,0.021,0.037,0.032c0.008,0.013,0.012,0.027,0.012,0.045v0.427
			c0.08-0.117,0.155-0.213,0.227-0.287c0.07-0.073,0.138-0.132,0.2-0.174c0.063-0.043,0.126-0.072,0.188-0.089
			c0.063-0.016,0.125-0.024,0.188-0.024c0.028,0,0.061,0.002,0.097,0.005c0.036,0.004,0.073,0.01,0.112,0.019
			s0.074,0.019,0.106,0.029c0.031,0.011,0.054,0.021,0.066,0.032s0.021,0.021,0.026,0.031c0.004,0.01,0.008,0.022,0.011,0.037
			c0.004,0.016,0.006,0.038,0.007,0.067S528.338,106.535,528.338,106.586z"/>
		<path fill="#313131" d="M532.972,109.329c0,0.017-0.005,0.031-0.014,0.044c-0.009,0.012-0.022,0.021-0.042,0.03
			s-0.047,0.016-0.082,0.02c-0.034,0.005-0.078,0.007-0.13,0.007c-0.055,0-0.099-0.002-0.134-0.007
			c-0.035-0.004-0.063-0.011-0.083-0.02s-0.035-0.019-0.044-0.03c-0.009-0.013-0.014-0.027-0.014-0.044v-1.784
			c0-0.124-0.011-0.237-0.032-0.34c-0.021-0.102-0.057-0.19-0.104-0.264c-0.048-0.074-0.108-0.131-0.183-0.17
			s-0.161-0.059-0.261-0.059c-0.124,0-0.249,0.048-0.374,0.144s-0.262,0.235-0.412,0.421v2.052c0,0.017-0.005,0.031-0.013,0.044
			c-0.009,0.012-0.023,0.021-0.045,0.03c-0.021,0.009-0.048,0.016-0.083,0.02c-0.034,0.005-0.078,0.007-0.13,0.007
			c-0.051,0-0.093-0.002-0.129-0.007c-0.036-0.004-0.064-0.011-0.085-0.02s-0.035-0.019-0.042-0.03
			c-0.008-0.013-0.012-0.027-0.012-0.044v-1.784c0-0.124-0.012-0.237-0.036-0.34c-0.023-0.102-0.06-0.19-0.107-0.264
			c-0.048-0.074-0.108-0.131-0.181-0.17c-0.073-0.039-0.16-0.059-0.26-0.059c-0.124,0-0.249,0.048-0.375,0.144
			s-0.264,0.235-0.411,0.421v2.052c0,0.017-0.004,0.031-0.013,0.044c-0.009,0.012-0.023,0.021-0.043,0.03s-0.047,0.016-0.081,0.02
			c-0.035,0.005-0.079,0.007-0.134,0.007c-0.053,0-0.096-0.002-0.131-0.007c-0.034-0.004-0.063-0.011-0.083-0.02
			s-0.035-0.019-0.042-0.03c-0.008-0.013-0.012-0.027-0.012-0.044v-2.936c0-0.018,0.003-0.032,0.01-0.045
			c0.007-0.012,0.02-0.022,0.039-0.032s0.045-0.017,0.075-0.02s0.07-0.005,0.12-0.005c0.048,0,0.088,0.002,0.119,0.005
			c0.032,0.003,0.057,0.01,0.074,0.02c0.017,0.01,0.029,0.021,0.037,0.032c0.008,0.013,0.012,0.027,0.012,0.045v0.388
			c0.165-0.185,0.325-0.32,0.48-0.406s0.313-0.129,0.472-0.129c0.122,0,0.23,0.015,0.328,0.043c0.097,0.028,0.182,0.067,0.256,0.119
			c0.073,0.051,0.137,0.111,0.188,0.183c0.053,0.07,0.096,0.149,0.131,0.236c0.098-0.106,0.19-0.197,0.279-0.271
			c0.088-0.074,0.173-0.134,0.254-0.18c0.082-0.046,0.161-0.079,0.238-0.1s0.155-0.031,0.233-0.031c0.188,0,0.348,0.033,0.476,0.1
			c0.129,0.066,0.232,0.155,0.312,0.266c0.08,0.111,0.136,0.241,0.17,0.39c0.033,0.149,0.051,0.307,0.051,0.472V109.329z"/>
	</g>
</g>
</svg>
