<?xml version="1.0" encoding="utf-8"?>
<!-- Generator: Adobe Illustrator 16.0.0, SVG Export Plug-In . SVG Version: 6.00 Build 0)  -->
<!DOCTYPE svg PUBLIC "-//W3C//DTD SVG 1.1//EN" "http://www.w3.org/Graphics/SVG/1.1/DTD/svg11.dtd">
<svg version="1.1" id="Layer_1" xmlns="http://www.w3.org/2000/svg" xmlns:xlink="http://www.w3.org/1999/xlink" x="0px" y="0px"
	 width="200px" height="200px" viewBox="0 0 200 200" enable-background="new 0 0 200 200" xml:space="preserve">
<g>
	<g>
		<g>
			<path fill="#E7E8E8" d="M130.768,72.429H63.335c-1.302,0-2.425-0.917-2.684-2.193l-6.263-30.847
				c-0.344-1.697,0.953-3.283,2.684-3.283h79.958c1.731,0,3.029,1.586,2.684,3.283l-6.263,30.847
				C133.192,71.512,132.069,72.429,130.768,72.429z"/>
		</g>
		<g>
			<polygon fill="#6CBCA5" points="64.227,68.599 58.408,39.936 135.694,39.936 129.875,68.599 			"/>
		</g>
		<g>
			<path fill="#E7E8E8" d="M131.159,116.193H62.944c-1.099,0-1.99-0.891-1.99-1.99V74.418c0-1.098,0.891-1.989,1.99-1.989h68.215
				c1.099,0,1.989,0.892,1.989,1.989v39.785C133.148,115.303,132.258,116.193,131.159,116.193z"/>
		</g>
		<g>
			<g>
				<rect x="69.214" y="72.429" fill="#939597" width="55.674" height="2.027"/>
			</g>
			<g>
				<rect x="69.214" y="74.456" fill="#7F8184" width="55.674" height="1.063"/>
			</g>
		</g>
		<g>
			<path fill="#BBBDBF" d="M128.132,103.672H65.971c-0.722,0-1.307-0.586-1.307-1.307V83.177c0-0.722,0.585-1.307,1.307-1.307
				h62.161c0.721,0,1.307,0.585,1.307,1.307v19.188C129.438,103.086,128.853,103.672,128.132,103.672z"/>
		</g>
		<g>
			<path fill="#A7A8AB" d="M64.96,102.661V83.472c0-0.722,0.585-1.306,1.307-1.306h62.16c0.285,0,0.547,0.094,0.762,0.249
				c-0.236-0.329-0.621-0.545-1.057-0.545H65.971c-0.722,0-1.307,0.585-1.307,1.307v19.188c0,0.437,0.216,0.82,0.545,1.057
				C65.054,103.207,64.96,102.945,64.96,102.661z"/>
		</g>
		<g>
			<path fill="#D0D2D3" d="M137.521,34.525H56.55c-1.753,0-2.878,1.438-2.529,3.156l0.352,1.707
				c-0.344-1.697,0.953-3.283,2.684-3.283h79.959c1.73,0,3.027,1.586,2.684,3.283l0.385-1.871
				C140.433,35.8,139.273,34.525,137.521,34.525z"/>
		</g>
		<g>
			<g>
				<rect x="70.473" y="83.527" fill="#403F41" width="3.493" height="3.012"/>
			</g>
			<g>
				<rect x="66.016" y="83.527" fill="#403F41" width="3.494" height="3.012"/>
			</g>
			<g>
				<rect x="74.809" y="83.527" fill="#403F41" width="3.494" height="3.012"/>
			</g>
			<g>
				<rect x="79.145" y="83.527" fill="#403F41" width="3.494" height="3.012"/>
			</g>
			<g>
				<rect x="83.481" y="83.527" fill="#403F41" width="3.493" height="3.012"/>
			</g>
			<g>
				<rect x="87.817" y="83.527" fill="#403F41" width="3.494" height="3.012"/>
			</g>
			<g>
				<rect x="92.154" y="83.527" fill="#403F41" width="3.493" height="3.012"/>
			</g>
			<g>
				<rect x="96.49" y="83.527" fill="#403F41" width="3.493" height="3.012"/>
			</g>
			<g>
				<rect x="100.827" y="83.527" fill="#403F41" width="3.492" height="3.012"/>
			</g>
			<g>
				<rect x="105.163" y="83.527" fill="#403F41" width="3.493" height="3.012"/>
			</g>
			<g>
				<rect x="109.499" y="83.527" fill="#403F41" width="3.493" height="3.012"/>
			</g>
			<g>
				<rect x="113.835" y="83.527" fill="#403F41" width="3.494" height="3.012"/>
			</g>
			<g>
				<rect x="118.172" y="83.527" fill="#403F41" width="3.493" height="3.012"/>
			</g>
			<g>
				<rect x="122.372" y="83.527" fill="#403F41" width="5.715" height="3.012"/>
			</g>
			<g>
				<rect x="121.304" y="91.522" fill="#403F41" width="6.783" height="3.011"/>
			</g>
			<g>
				<rect x="119.226" y="95.609" fill="#403F41" width="8.861" height="3.012"/>
			</g>
			<g>
				<rect x="76.774" y="87.412" fill="#403F41" width="3.493" height="3.012"/>
			</g>
			<g>
				<rect x="81.118" y="87.412" fill="#403F41" width="3.492" height="3.012"/>
			</g>
			<g>
				<rect x="85.462" y="87.412" fill="#403F41" width="3.492" height="3.012"/>
			</g>
			<g>
				<rect x="89.806" y="87.412" fill="#403F41" width="3.492" height="3.012"/>
			</g>
			<g>
				<rect x="94.149" y="87.412" fill="#403F41" width="3.492" height="3.012"/>
			</g>
			<g>
				<rect x="98.493" y="87.412" fill="#403F41" width="3.492" height="3.012"/>
			</g>
			<g>
				<rect x="102.837" y="87.412" fill="#403F41" width="3.493" height="3.012"/>
			</g>
			<g>
				<rect x="107.181" y="87.412" fill="#403F41" width="3.492" height="3.012"/>
			</g>
			<g>
				<rect x="111.524" y="87.412" fill="#403F41" width="3.493" height="3.012"/>
			</g>
			<g>
				<rect x="115.868" y="87.412" fill="#403F41" width="3.493" height="3.012"/>
			</g>
			<g>
				<rect x="120.212" y="87.412" fill="#403F41" width="3.493" height="3.012"/>
			</g>
			<g>
				<rect x="124.593" y="87.412" fill="#403F41" width="3.494" height="3.012"/>
			</g>
			<g>
				<rect x="72.43" y="87.412" fill="#403F41" width="3.494" height="3.012"/>
			</g>
			<g>
				<rect x="66.016" y="87.412" fill="#403F41" width="5.503" height="3.012"/>
			</g>
			<g>
				<rect x="66.016" y="91.522" fill="#403F41" width="6.633" height="3.011"/>
			</g>
			<g>
				<rect x="66.016" y="95.497" fill="#403F41" width="8.869" height="3.011"/>
			</g>
			<g>
				<rect x="66.016" y="99.676" fill="#403F41" width="3.301" height="3.011"/>
			</g>
			<g>
				<rect x="70.45" y="99.676" fill="#403F41" width="3.301" height="3.011"/>
			</g>
			<g>
				<rect x="74.764" y="99.676" fill="#403F41" width="3.301" height="3.011"/>
			</g>
			<g>
				<rect x="78.939" y="99.676" fill="#403F41" width="4.61" height="3.011"/>
			</g>
			<g>
				<g>
					<rect x="73.559" y="91.522" fill="#403F41" width="3.493" height="3.011"/>
				</g>
				<g>
					<rect x="77.9" y="91.522" fill="#403F41" width="3.494" height="3.011"/>
				</g>
				<g>
					<rect x="82.241" y="91.522" fill="#403F41" width="3.492" height="3.011"/>
				</g>
				<g>
					<rect x="86.581" y="91.522" fill="#403F41" width="3.494" height="3.011"/>
				</g>
				<g>
					<rect x="90.923" y="91.522" fill="#403F41" width="3.492" height="3.011"/>
				</g>
				<g>
					<rect x="95.263" y="91.522" fill="#403F41" width="3.494" height="3.011"/>
				</g>
				<g>
					<rect x="99.604" y="91.522" fill="#403F41" width="3.492" height="3.011"/>
				</g>
				<g>
					<rect x="103.944" y="91.522" fill="#403F41" width="3.494" height="3.011"/>
				</g>
				<g>
					<rect x="108.286" y="91.522" fill="#403F41" width="3.492" height="3.011"/>
				</g>
				<g>
					<rect x="112.626" y="91.522" fill="#403F41" width="3.494" height="3.011"/>
				</g>
				<g>
					<rect x="116.968" y="91.522" fill="#403F41" width="3.492" height="3.011"/>
				</g>
			</g>
			<g>
				<g>
					<rect x="75.727" y="95.609" fill="#403F41" width="3.494" height="3.012"/>
				</g>
				<g>
					<rect x="80.056" y="95.609" fill="#403F41" width="3.492" height="3.012"/>
				</g>
				<g>
					<rect x="84.384" y="95.609" fill="#403F41" width="3.492" height="3.012"/>
				</g>
				<g>
					<rect x="84.384" y="99.676" fill="#403F41" width="20.805" height="3.011"/>
				</g>
				<g>
					<rect x="88.711" y="95.609" fill="#403F41" width="3.493" height="3.012"/>
				</g>
				<g>
					<rect x="93.039" y="95.609" fill="#403F41" width="3.493" height="3.012"/>
				</g>
				<g>
					<rect x="97.367" y="95.609" fill="#403F41" width="3.493" height="3.012"/>
				</g>
				<g>
					<rect x="101.694" y="95.609" fill="#403F41" width="3.494" height="3.012"/>
				</g>
				<g>
					<rect x="106.022" y="95.609" fill="#403F41" width="3.494" height="3.012"/>
				</g>
				<g>
					<rect x="106.022" y="99.676" fill="#403F41" width="4.65" height="3.011"/>
				</g>
				<g>
					<rect x="111.469" y="99.676" fill="#403F41" width="3.331" height="3.011"/>
				</g>
				<g>
					<rect x="110.351" y="95.609" fill="#403F41" width="3.493" height="3.012"/>
				</g>
				<g>
					<rect x="114.679" y="95.609" fill="#403F41" width="3.493" height="3.012"/>
				</g>
			</g>
			<g>
				<rect x="115.884" y="101.596" fill="#403F41" width="3.553" height="1.091"/>
			</g>
			<g>
				<rect x="120.103" y="101.596" fill="#403F41" width="3.554" height="1.091"/>
			</g>
			<g>
				<rect x="120.103" y="99.676" fill="#403F41" width="3.554" height="1.091"/>
			</g>
			<g>
				<rect x="124.533" y="101.596" fill="#403F41" width="3.554" height="1.091"/>
			</g>
		</g>
		<g>
			<path fill="#BBBDBF" d="M89.154,115.014c-1.056,0-1.915-0.859-1.915-1.915v-6.737c0-1.056,0.859-1.915,1.915-1.915h15.794
				c1.056,0,1.914,0.859,1.914,1.915v6.737c0,1.056-0.858,1.915-1.914,1.915H89.154z"/>
		</g>
		<g>
			<path fill="#F1F2F2" d="M104.948,114.707H89.154c-0.888,0-1.608-0.721-1.608-1.608v-6.737c0-0.889,0.721-1.609,1.608-1.609
				h15.794c0.888,0,1.608,0.721,1.608,1.609v6.737C106.557,113.986,105.836,114.707,104.948,114.707z"/>
		</g>
	</g>
	<g>
		<path fill="#4AA186" d="M109.562,42.443c-0.985,0-1.305,0.504-1.396,1.281c-0.094-0.777-0.412-1.281-1.396-1.281H85.606
			l3.623,24.438h18.927h0.017h18.926l3.623-24.438H109.562z"/>
	</g>
	<g>
		<path fill="#F1F2F2" d="M107.446,66.155l0.002-21.001c0-1.879,0.328-3.438-1.406-3.438H84.88l3.623,24.438H107.446z"/>
	</g>
	<g>
		<path fill="#E7E8E8" d="M106.042,41.717h-3.477c1.735,0,2.109,1.678,2.109,3.557l0.345,20.882h2.427l0.002-21.001
			C107.448,43.275,107.776,41.717,106.042,41.717z"/>
	</g>
	<g>
		<path fill="#F1F2F2" d="M126.373,66.155l3.622-24.438h-21.16c-1.735,0-1.406,1.559-1.406,3.438l0.002,21.001H126.373z"/>
	</g>
	<g>
		<path fill="#D0D2D3" d="M111.622,41.717h-2.787c-1.735,0-1.406,1.559-1.406,3.438l0.002,21.001h1.226l0.856-20.983
			C109.513,43.293,109.888,41.717,111.622,41.717z"/>
	</g>
	<g>
		<polygon fill="#4AA186" points="64.611,53.771 62.1,41.861 81.155,41.861 83.282,53.771 		"/>
	</g>
	<g>
		<polygon fill="#E7E8E8" points="82.733,53.313 64.984,53.313 62.666,42.322 80.771,42.322 		"/>
	</g>
	<g>
		<g>
			<rect x="65.355" y="55.263" fill="#D0D2D3" width="17.378" height="0.271"/>
		</g>
	</g>
	<g>
		<g>
			<rect x="66.149" y="58.707" fill="#D0D2D3" width="17.377" height="0.27"/>
		</g>
	</g>
	<g>
		<g>
			<rect x="66.887" y="62.209" fill="#D0D2D3" width="17.378" height="0.27"/>
		</g>
	</g>
	<g>
		<g>
			<rect x="67.502" y="65.732" fill="#D0D2D3" width="17.377" height="0.271"/>
		</g>
	</g>
	<g>
		<g>
			<path fill="#D34D45" d="M197.491,119.577l-31.664-0.054c-0.175-0.001-0.316,0.141-0.316,0.315l-0.034,19.86
				c0,0.25,0.273,0.402,0.483,0.27l31.698-19.807C197.928,119.994,197.809,119.578,197.491,119.577z M184.048,123.836l-14.094,8.973
				c-0.211,0.133-0.486-0.018-0.485-0.268l0.015-8.998c0.001-0.174,0.143-0.314,0.317-0.314l14.077,0.023
				C184.194,123.252,184.314,123.666,184.048,123.836z"/>
		</g>
		<g>
			<g>
				<rect x="196.416" y="119.706" fill="#BBBDBF" width="0.093" height="0.975"/>
			</g>
			<g>
				<rect x="195.006" y="119.703" fill="#BBBDBF" width="0.094" height="0.975"/>
			</g>
			<g>
				<rect x="193.597" y="119.701" fill="#BBBDBF" width="0.093" height="0.973"/>
			</g>
			<g>
				<rect x="192.187" y="119.699" fill="#BBBDBF" width="0.093" height="0.973"/>
			</g>
			<g>
				<rect x="190.776" y="119.696" fill="#BBBDBF" width="0.094" height="0.974"/>
			</g>
			<g>
				<rect x="189.366" y="119.693" fill="#BBBDBF" width="0.094" height="0.975"/>
			</g>
			<g>
				<rect x="187.956" y="119.691" fill="#BBBDBF" width="0.094" height="0.975"/>
			</g>
			<g>
				<rect x="186.547" y="119.689" fill="#BBBDBF" width="0.093" height="0.973"/>
			</g>
			<g>
				<rect x="185.137" y="119.687" fill="#BBBDBF" width="0.094" height="0.974"/>
			</g>
			<g>
				<rect x="183.727" y="119.685" fill="#BBBDBF" width="0.094" height="0.974"/>
			</g>
			<g>
				<rect x="182.317" y="119.682" fill="#BBBDBF" width="0.094" height="0.975"/>
			</g>
			<g>
				<rect x="180.907" y="119.68" fill="#BBBDBF" width="0.094" height="0.975"/>
			</g>
			<g>
				<rect x="179.497" y="119.677" fill="#BBBDBF" width="0.094" height="0.974"/>
			</g>
			<g>
				<rect x="178.087" y="119.674" fill="#BBBDBF" width="0.094" height="0.975"/>
			</g>
			<g>
				<rect x="176.677" y="119.672" fill="#BBBDBF" width="0.094" height="0.975"/>
			</g>
			<g>
				<rect x="175.267" y="119.67" fill="#BBBDBF" width="0.094" height="0.975"/>
			</g>
			<g>
				<rect x="173.857" y="119.667" fill="#BBBDBF" width="0.093" height="0.975"/>
			</g>
			<g>
				<rect x="172.447" y="119.664" fill="#BBBDBF" width="0.093" height="0.975"/>
			</g>
			<g>
				<rect x="171.037" y="119.662" fill="#BBBDBF" width="0.094" height="0.975"/>
			</g>
			<g>
				<rect x="169.627" y="119.66" fill="#BBBDBF" width="0.094" height="0.975"/>
			</g>
			<g>
				<rect x="168.218" y="119.658" fill="#BBBDBF" width="0.094" height="0.976"/>
			</g>
			<g>
				<rect x="166.808" y="119.655" fill="#BBBDBF" width="0.094" height="0.974"/>
			</g>
		</g>
		<g>
			<g>
				<rect x="195.732" y="119.705" fill="#BBBDBF" width="0.094" height="0.486"/>
			</g>
			<g>
				<rect x="194.322" y="119.702" fill="#BBBDBF" width="0.094" height="0.487"/>
			</g>
			<g>
				<rect x="192.912" y="119.7" fill="#BBBDBF" width="0.094" height="0.487"/>
			</g>
			<g>
				<rect x="191.502" y="119.697" fill="#BBBDBF" width="0.094" height="0.487"/>
			</g>
			<g>
				<rect x="190.093" y="119.695" fill="#BBBDBF" width="0.094" height="0.486"/>
			</g>
			<g>
				<rect x="188.683" y="119.692" fill="#BBBDBF" width="0.094" height="0.487"/>
			</g>
			<g>
				<rect x="187.273" y="119.689" fill="#BBBDBF" width="0.093" height="0.487"/>
			</g>
			<g>
				<rect x="185.863" y="119.688" fill="#BBBDBF" width="0.093" height="0.487"/>
			</g>
			<g>
				<rect x="184.453" y="119.686" fill="#BBBDBF" width="0.093" height="0.486"/>
			</g>
			<g>
				<rect x="183.043" y="119.684" fill="#BBBDBF" width="0.093" height="0.486"/>
			</g>
			<g>
				<rect x="181.633" y="119.68" fill="#BBBDBF" width="0.094" height="0.488"/>
			</g>
			<g>
				<rect x="180.223" y="119.678" fill="#BBBDBF" width="0.094" height="0.487"/>
			</g>
			<g>
				<rect x="178.813" y="119.676" fill="#BBBDBF" width="0.094" height="0.486"/>
			</g>
			<g>
				<rect x="177.403" y="119.673" fill="#BBBDBF" width="0.094" height="0.487"/>
			</g>
			<g>
				<rect x="175.993" y="119.671" fill="#BBBDBF" width="0.094" height="0.487"/>
			</g>
			<g>
				<rect x="174.583" y="119.668" fill="#BBBDBF" width="0.094" height="0.488"/>
			</g>
			<g>
				<rect x="173.173" y="119.666" fill="#BBBDBF" width="0.094" height="0.486"/>
			</g>
			<g>
				<rect x="171.764" y="119.664" fill="#BBBDBF" width="0.094" height="0.487"/>
			</g>
			<g>
				<rect x="170.354" y="119.662" fill="#BBBDBF" width="0.094" height="0.487"/>
			</g>
			<g>
				<rect x="168.943" y="119.658" fill="#BBBDBF" width="0.094" height="0.488"/>
			</g>
			<g>
				<rect x="167.534" y="119.656" fill="#BBBDBF" width="0.093" height="0.487"/>
			</g>
			<g>
				<rect x="166.124" y="119.654" fill="#BBBDBF" width="0.094" height="0.486"/>
			</g>
		</g>
		<g>
			<polygon fill="#CC332F" points="165.508,121.549 165.508,121.738 195.055,121.789 195.357,121.6 			"/>
		</g>
	</g>
	<g>
		<g>
			<g>
				<path fill="#D0D2D3" d="M35.186,76.16h-3.333c-0.781,0-1.414-0.633-1.414-1.414v-0.591c0-0.78,0.633-1.413,1.414-1.413h3.333
					c0.78,0,1.413,0.633,1.413,1.413v0.591C36.599,75.527,35.966,76.16,35.186,76.16z"/>
			</g>
			<g>
				<circle fill="#FFFFFF" cx="20.312" cy="74.81" r="11.519"/>
			</g>
			<g>
				<circle fill="#939597" cx="20.312" cy="74.81" r="9.937"/>
			</g>
			<g>
				<circle fill="#1E181A" cx="20.312" cy="74.81" r="9.937"/>
			</g>
			<g>
				<path fill="#57585A" d="M12.903,75.727c0-4.598,3.728-8.326,8.326-8.326c2.066,0,3.955,0.754,5.41,2
					c-1.527-1.785-3.794-2.918-6.327-2.918c-4.599,0-8.327,3.729-8.327,8.327c0,2.533,1.133,4.8,2.917,6.327
					C13.657,79.682,12.903,77.793,12.903,75.727z"/>
			</g>
			<g>
				<path fill="#BBBDBF" d="M20.312,64.641c-5.616,0-10.168,4.553-10.168,10.169s4.552,10.169,10.168,10.169
					S30.48,80.426,30.48,74.81S25.928,64.641,20.312,64.641z M20.534,84.335c-5.261,0-9.525-4.265-9.525-9.525
					s4.265-9.525,9.525-9.525s9.525,4.265,9.525,9.525S25.794,84.335,20.534,84.335z"/>
			</g>
		</g>
		<g>
			<path fill="#A7A8AB" d="M32.228,72.742h-0.375c-0.07,0-0.139,0.007-0.207,0.017c0.12,0.666,0.186,1.351,0.186,2.051
				c0,0.455-0.029,0.903-0.081,1.345c0.034,0.003,0.067,0.006,0.102,0.006h0.483c0.052-0.443,0.082-0.894,0.082-1.351
				C32.417,74.104,32.35,73.413,32.228,72.742z"/>
		</g>
	</g>
	<g>
		<g>
			<path fill="#30A3AB" d="M185.517,113.892h-24.365c-0.609,0-1.104-0.494-1.104-1.104V82.293c0-0.61,0.494-1.104,1.104-1.104
				h24.365c0.609,0,1.104,0.494,1.104,1.104v30.495C186.62,113.397,186.126,113.892,185.517,113.892z"/>
		</g>
		<g>
			<path fill="#D7CFAA" d="M184.932,80.451h-22.395c-0.669,0-1.212,0.543-1.212,1.213v30.359c0,0.669,0.543,1.212,1.212,1.212
				h22.395c0.67,0,1.213-0.543,1.213-1.212V81.664C186.145,80.994,185.602,80.451,184.932,80.451z M162.352,111.217
				c-0.387,0-0.699-0.313-0.699-0.698s0.313-0.698,0.699-0.698c0.385,0,0.698,0.313,0.698,0.698S162.736,111.217,162.352,111.217z
				 M162.352,107.234c-0.387,0-0.699-0.313-0.699-0.699s0.313-0.698,0.699-0.698c0.385,0,0.698,0.313,0.698,0.698
				S162.736,107.234,162.352,107.234z M162.352,103.25c-0.387,0-0.699-0.312-0.699-0.697s0.313-0.699,0.699-0.699
				c0.385,0,0.698,0.313,0.698,0.699S162.736,103.25,162.352,103.25z M162.352,99.268c-0.387,0-0.699-0.313-0.699-0.697
				c0-0.387,0.313-0.699,0.699-0.699c0.385,0,0.698,0.313,0.698,0.699C163.05,98.955,162.736,99.268,162.352,99.268z
				 M162.352,95.285c-0.387,0-0.699-0.313-0.699-0.699c0-0.385,0.313-0.697,0.699-0.697c0.385,0,0.698,0.313,0.698,0.697
				C163.05,94.973,162.736,95.285,162.352,95.285z M162.352,91.303c-0.387,0-0.699-0.313-0.699-0.699
				c0-0.385,0.313-0.698,0.699-0.698c0.385,0,0.698,0.313,0.698,0.698C163.05,90.99,162.736,91.303,162.352,91.303z M162.352,87.319
				c-0.387,0-0.699-0.313-0.699-0.698c0-0.386,0.313-0.699,0.699-0.699c0.385,0,0.698,0.313,0.698,0.699
				C163.05,87.006,162.736,87.319,162.352,87.319z M162.352,83.336c-0.387,0-0.699-0.313-0.699-0.698s0.313-0.698,0.699-0.698
				c0.385,0,0.698,0.313,0.698,0.698S162.736,83.336,162.352,83.336z"/>
		</g>
		<g>
			<g>
				<path fill="#F0EDD6" d="M184.605,80.131h-22.395c-0.669,0-1.212,0.543-1.212,1.213v30.359c0,0.67,0.543,1.213,1.212,1.213
					h22.395c0.67,0,1.213-0.543,1.213-1.213V81.344C185.818,80.674,185.275,80.131,184.605,80.131z M162.025,110.896
					c-0.387,0-0.699-0.313-0.699-0.698s0.313-0.698,0.699-0.698c0.385,0,0.698,0.313,0.698,0.698S162.41,110.896,162.025,110.896z
					 M162.025,106.914c-0.387,0-0.699-0.313-0.699-0.698s0.313-0.698,0.699-0.698c0.385,0,0.698,0.313,0.698,0.698
					S162.41,106.914,162.025,106.914z M162.025,102.932c-0.387,0-0.699-0.313-0.699-0.699c0-0.385,0.313-0.698,0.699-0.698
					c0.385,0,0.698,0.313,0.698,0.698C162.724,102.619,162.41,102.932,162.025,102.932z M162.025,98.948
					c-0.387,0-0.699-0.313-0.699-0.698c0-0.387,0.313-0.699,0.699-0.699c0.385,0,0.698,0.313,0.698,0.699
					C162.724,98.635,162.41,98.948,162.025,98.948z M162.025,94.965c-0.387,0-0.699-0.313-0.699-0.698s0.313-0.698,0.699-0.698
					c0.385,0,0.698,0.313,0.698,0.698S162.41,94.965,162.025,94.965z M162.025,90.982c-0.387,0-0.699-0.313-0.699-0.698
					s0.313-0.698,0.699-0.698c0.385,0,0.698,0.313,0.698,0.698S162.41,90.982,162.025,90.982z M162.025,87
					c-0.387,0-0.699-0.313-0.699-0.699c0-0.385,0.313-0.698,0.699-0.698c0.385,0,0.698,0.313,0.698,0.698
					C162.724,86.687,162.41,87,162.025,87z M162.025,83.017c-0.387,0-0.699-0.313-0.699-0.698s0.313-0.699,0.699-0.699
					c0.385,0,0.698,0.313,0.698,0.699S162.41,83.017,162.025,83.017z"/>
			</g>
			<g>
				<g>
					<path fill="#A7A8AB" d="M162.032,82.794h-1.323c-0.217,0-0.394-0.177-0.394-0.394v-0.164c0-0.217,0.177-0.394,0.394-0.394
						h1.323c0.218,0,0.394,0.177,0.394,0.394V82.4C162.426,82.617,162.25,82.794,162.032,82.794z"/>
				</g>
				<g>
					<path fill="#A7A8AB" d="M162.032,86.777h-1.323c-0.217,0-0.394-0.178-0.394-0.395v-0.164c0-0.217,0.177-0.393,0.394-0.393
						h1.323c0.218,0,0.394,0.176,0.394,0.393v0.164C162.426,86.6,162.25,86.777,162.032,86.777z"/>
				</g>
				<g>
					<path fill="#A7A8AB" d="M162.032,90.76h-1.323c-0.217,0-0.394-0.176-0.394-0.395v-0.163c0-0.218,0.177-0.394,0.394-0.394h1.323
						c0.218,0,0.394,0.176,0.394,0.394v0.163C162.426,90.584,162.25,90.76,162.032,90.76z"/>
				</g>
				<g>
					<path fill="#A7A8AB" d="M162.032,94.742h-1.323c-0.217,0-0.394-0.176-0.394-0.394v-0.163c0-0.218,0.177-0.395,0.394-0.395
						h1.323c0.218,0,0.394,0.177,0.394,0.395v0.163C162.426,94.566,162.25,94.742,162.032,94.742z"/>
				</g>
				<g>
					<path fill="#A7A8AB" d="M162.032,98.725h-1.323c-0.217,0-0.394-0.176-0.394-0.393v-0.164c0-0.217,0.177-0.394,0.394-0.394
						h1.323c0.218,0,0.394,0.177,0.394,0.394v0.164C162.426,98.549,162.25,98.725,162.032,98.725z"/>
				</g>
				<g>
					<path fill="#A7A8AB" d="M162.032,102.708h-1.323c-0.217,0-0.394-0.177-0.394-0.394v-0.164c0-0.217,0.177-0.394,0.394-0.394
						h1.323c0.218,0,0.394,0.177,0.394,0.394v0.164C162.426,102.531,162.25,102.708,162.032,102.708z"/>
				</g>
				<g>
					<path fill="#A7A8AB" d="M162.032,106.691h-1.323c-0.217,0-0.394-0.177-0.394-0.395v-0.163c0-0.218,0.177-0.394,0.394-0.394
						h1.323c0.218,0,0.394,0.176,0.394,0.394v0.163C162.426,106.515,162.25,106.691,162.032,106.691z"/>
				</g>
				<g>
					<g>
						<path fill="#A7A8AB" d="M162.032,110.674h-1.323c-0.217,0-0.394-0.176-0.394-0.394v-0.163c0-0.218,0.177-0.395,0.394-0.395
							h1.323c0.218,0,0.394,0.177,0.394,0.395v0.163C162.426,110.498,162.25,110.674,162.032,110.674z"/>
					</g>
				</g>
			</g>
			<g>
				<g>
					<path fill="#D0D2D3" d="M162.032,81.843h-1.323c-0.217,0-0.394,0.177-0.394,0.394V82.4c0,0.055,0.012,0.107,0.032,0.155
						c0.061-0.14,0.199-0.237,0.361-0.237h1.323c0.162,0,0.301,0.098,0.361,0.237c0.021-0.048,0.032-0.101,0.032-0.155v-0.164
						C162.426,82.02,162.25,81.843,162.032,81.843z"/>
				</g>
				<g>
					<path fill="#D0D2D3" d="M162.032,85.826h-1.323c-0.217,0-0.394,0.176-0.394,0.393v0.164c0,0.056,0.012,0.107,0.032,0.156
						c0.061-0.141,0.199-0.238,0.361-0.238h1.323c0.162,0,0.301,0.098,0.361,0.238c0.021-0.049,0.032-0.101,0.032-0.156v-0.164
						C162.426,86.002,162.25,85.826,162.032,85.826z"/>
				</g>
				<g>
					<path fill="#D0D2D3" d="M162.032,89.809h-1.323c-0.217,0-0.394,0.176-0.394,0.394v0.163c0,0.056,0.012,0.108,0.032,0.156
						c0.061-0.139,0.199-0.237,0.361-0.237h1.323c0.162,0,0.301,0.099,0.361,0.237c0.021-0.048,0.032-0.101,0.032-0.156v-0.163
						C162.426,89.984,162.25,89.809,162.032,89.809z"/>
				</g>
				<g>
					<path fill="#D0D2D3" d="M162.032,93.791h-1.323c-0.217,0-0.394,0.177-0.394,0.395v0.163c0,0.056,0.012,0.108,0.032,0.156
						c0.061-0.14,0.199-0.238,0.361-0.238h1.323c0.162,0,0.301,0.099,0.361,0.238c0.021-0.048,0.032-0.101,0.032-0.156v-0.163
						C162.426,93.968,162.25,93.791,162.032,93.791z"/>
				</g>
				<g>
					<path fill="#D0D2D3" d="M162.032,97.774h-1.323c-0.217,0-0.394,0.177-0.394,0.394v0.164c0,0.055,0.012,0.107,0.032,0.156
						c0.061-0.141,0.199-0.238,0.361-0.238h1.323c0.162,0,0.301,0.098,0.361,0.238c0.021-0.049,0.032-0.102,0.032-0.156v-0.164
						C162.426,97.951,162.25,97.774,162.032,97.774z"/>
				</g>
				<g>
					<path fill="#D0D2D3" d="M162.032,101.757h-1.323c-0.217,0-0.394,0.177-0.394,0.394v0.164c0,0.056,0.012,0.107,0.032,0.156
						c0.061-0.141,0.199-0.238,0.361-0.238h1.323c0.162,0,0.301,0.098,0.361,0.238c0.021-0.049,0.032-0.101,0.032-0.156v-0.164
						C162.426,101.934,162.25,101.757,162.032,101.757z"/>
				</g>
				<g>
					<path fill="#D0D2D3" d="M162.032,105.74h-1.323c-0.217,0-0.394,0.176-0.394,0.394v0.163c0,0.056,0.012,0.108,0.032,0.156
						c0.061-0.14,0.199-0.237,0.361-0.237h1.323c0.162,0,0.301,0.098,0.361,0.237c0.021-0.048,0.032-0.101,0.032-0.156v-0.163
						C162.426,105.916,162.25,105.74,162.032,105.74z"/>
				</g>
				<g>
					<path fill="#D0D2D3" d="M162.032,109.723h-1.323c-0.217,0-0.394,0.176-0.394,0.395v0.163c0,0.056,0.012,0.108,0.032,0.155
						c0.061-0.139,0.199-0.237,0.361-0.237h1.323c0.162,0,0.301,0.099,0.361,0.237c0.021-0.047,0.032-0.1,0.032-0.155v-0.163
						C162.426,109.898,162.25,109.723,162.032,109.723z"/>
				</g>
			</g>
		</g>
		<g>
			<g>
				<polygon fill="#E7E8E8" points="172.604,112.916 185.727,99.788 185.729,99.791 185.818,99.701 185.818,96.896 185.704,97.009 
					185.54,96.844 185.08,97.303 185.019,97.242 184.263,97.998 184.324,98.059 169.473,112.916 				"/>
			</g>
			<g>
				<path fill="#E7E8E8" d="M185.818,101.405v-1.197l-1.784,1.784c-0.165,0.165-0.165,0.434,0,0.598
					c0.082,0.083,0.191,0.125,0.3,0.125c0.107,0,0.216-0.042,0.299-0.125L185.818,101.405z"/>
			</g>
		</g>
		<g>
			<g>
				<g>
					<path fill="#D65F3D" d="M187.299,95.481l-0.387-0.387c-0.222-0.222-0.58-0.222-0.801,0l-0.733,0.733l1.188,1.188l0.733-0.733
						C187.521,96.061,187.521,95.703,187.299,95.481z"/>
				</g>
				<g>
					
						<rect x="176.723" y="93.014" transform="matrix(0.7069 0.7073 -0.7073 0.7069 126.1204 -95.1208)" fill="#E9AA3F" width="2.215" height="23.198"/>
				</g>
				<g>
					
						<rect x="176.723" y="93.014" transform="matrix(0.7069 0.7073 -0.7073 0.7069 126.1204 -95.1208)" fill="#E9AA3F" width="2.215" height="23.198"/>
				</g>
				<g>
					<polygon fill="#DD9A40" points="186.465,96.844 170.051,113.236 170.413,113.6 186.814,97.193 					"/>
				</g>
				<g>
					
						<rect x="176.952" y="92.463" transform="matrix(0.7071 0.7071 -0.7071 0.7071 125.507 -94.8767)" fill="#ECB357" width="0.656" height="23.198"/>
				</g>
				<g>
					<polygon fill="#D65F3D" points="167.615,114.832 170.413,113.6 168.848,112.033 					"/>
				</g>
			</g>
			<g>
				
					<rect x="183.999" y="96.716" transform="matrix(0.7071 0.7071 -0.7071 0.7071 123.0089 -102.4697)" fill="#D65F3D" width="2.395" height="1.069"/>
			</g>
			<g>
				
					<rect x="183.999" y="96.716" transform="matrix(0.7071 0.7071 -0.7071 0.7071 123.0089 -102.4697)" fill="#D65F3D" width="2.395" height="1.069"/>
			</g>
			<g>
				
					<rect x="183.999" y="96.716" transform="matrix(0.7071 0.7071 -0.7071 0.7071 123.0089 -102.4697)" fill="#D65F3D" width="2.395" height="1.069"/>
			</g>
			<g>
				<path fill="#D65F3D" d="M186.689,98.169l-0.358-0.358l-0.6,0.599l0.188,0.188l-2.177,2.178c-0.165,0.166-0.165,0.434,0,0.599
					c0.083,0.083,0.191,0.124,0.299,0.124c0.109,0,0.218-0.041,0.3-0.124l2.348-2.347c0.114-0.115,0.178-0.268,0.178-0.43
					S186.804,98.284,186.689,98.169z"/>
			</g>
			<g>
				
					<rect x="185.682" y="98.079" transform="matrix(0.7077 -0.7065 0.7065 0.7077 -14.9685 160.1902)" fill="#D04E33" width="0.847" height="0.211"/>
			</g>
			<g>
				
					<rect x="184.622" y="96.602" transform="matrix(0.7113 -0.7029 0.7029 0.7113 -15.348 158.0506)" fill="#D9973F" width="0.231" height="2.215"/>
			</g>
		</g>
	</g>
	<g>
		<g>
			<path fill="#256682" d="M22.341,132.295H4.542c-1.285,0-2.326-1.041-2.326-2.326v-27.551c0-1.285,1.042-2.326,2.326-2.326h17.799
				c1.285,0,2.326,1.041,2.326,2.326v27.551C24.667,131.254,23.626,132.295,22.341,132.295z"/>
		</g>
		<g>
			<path fill="#256682" d="M22.317,132.295H4.519c-1.285,0-2.326-1.041-2.326-2.326v-27.551c0-1.285,1.041-2.326,2.326-2.326h17.798
				c1.285,0,2.327,1.041,2.327,2.326v27.551C24.644,131.254,23.602,132.295,22.317,132.295z"/>
		</g>
		<g>
			<path fill="#1B5E73" d="M22.341,100.092h-1.303c1.285,0,2.326,1.041,2.326,2.326v27.551c0,1.285-1.042,2.326-2.326,2.326h1.303
				c1.285,0,2.326-1.041,2.326-2.326v-27.551C24.667,101.133,23.626,100.092,22.341,100.092z"/>
		</g>
		<g>
			<path fill="#3C8097" d="M3.375,129.969v-27.551c0-1.285,1.042-2.326,2.326-2.326H4.542c-1.285,0-2.326,1.041-2.326,2.326v27.551
				c0,1.285,1.042,2.326,2.326,2.326h1.158C4.416,132.295,3.375,131.254,3.375,129.969z"/>
		</g>
		<g>
			<path fill="#003552" d="M7.334,116.132H4.632c-0.35,0-0.634-0.284-0.634-0.634v-1.574c0-0.351,0.284-0.635,0.634-0.635h2.703
				c0.35,0,0.634,0.284,0.634,0.635v1.574C7.968,115.848,7.684,116.132,7.334,116.132z"/>
		</g>
		<g>
			<path fill="#003552" d="M12.307,116.132H9.604c-0.35,0-0.634-0.284-0.634-0.634v-1.574c0-0.351,0.284-0.635,0.634-0.635h2.703
				c0.35,0,0.633,0.284,0.633,0.635v1.574C12.94,115.848,12.657,116.132,12.307,116.132z"/>
		</g>
		<g>
			<path fill="#003552" d="M17.279,116.132h-2.703c-0.35,0-0.633-0.284-0.633-0.634v-1.574c0-0.351,0.283-0.635,0.633-0.635h2.703
				c0.35,0,0.634,0.284,0.634,0.635v1.574C17.914,115.848,17.629,116.132,17.279,116.132z"/>
		</g>
		<g>
			<path fill="#003552" d="M22.252,116.132h-2.703c-0.35,0-0.633-0.284-0.633-0.634v-1.574c0-0.351,0.283-0.635,0.633-0.635h2.703
				c0.35,0,0.634,0.284,0.634,0.635v1.574C22.886,115.848,22.602,116.132,22.252,116.132z"/>
		</g>
		<g>
			<path fill="#003552" d="M7.334,120.111H4.632c-0.35,0-0.634-0.283-0.634-0.633v-1.574c0-0.351,0.284-0.635,0.634-0.635h2.703
				c0.35,0,0.634,0.284,0.634,0.635v1.574C7.968,119.828,7.684,120.111,7.334,120.111z"/>
		</g>
		<g>
			<path fill="#003552" d="M12.307,120.111H9.604c-0.35,0-0.634-0.283-0.634-0.633v-1.574c0-0.351,0.284-0.635,0.634-0.635h2.703
				c0.35,0,0.633,0.284,0.633,0.635v1.574C12.94,119.828,12.657,120.111,12.307,120.111z"/>
		</g>
		<g>
			<path fill="#003552" d="M17.279,120.111h-2.703c-0.35,0-0.633-0.283-0.633-0.633v-1.574c0-0.351,0.283-0.635,0.633-0.635h2.703
				c0.35,0,0.634,0.284,0.634,0.635v1.574C17.914,119.828,17.629,120.111,17.279,120.111z"/>
		</g>
		<g>
			<path fill="#003552" d="M22.252,120.111h-2.703c-0.35,0-0.633-0.283-0.633-0.633v-1.574c0-0.351,0.283-0.635,0.633-0.635h2.703
				c0.35,0,0.634,0.284,0.634,0.635v1.574C22.886,119.828,22.602,120.111,22.252,120.111z"/>
		</g>
		<g>
			<path fill="#003552" d="M7.334,124.092H4.632c-0.35,0-0.634-0.283-0.634-0.635v-1.574c0-0.35,0.284-0.633,0.634-0.633h2.703
				c0.35,0,0.634,0.283,0.634,0.633v1.574C7.968,123.809,7.684,124.092,7.334,124.092z"/>
		</g>
		<g>
			<path fill="#003552" d="M12.307,124.092H9.604c-0.35,0-0.634-0.283-0.634-0.635v-1.574c0-0.35,0.284-0.633,0.634-0.633h2.703
				c0.35,0,0.633,0.283,0.633,0.633v1.574C12.94,123.809,12.657,124.092,12.307,124.092z"/>
		</g>
		<g>
			<path fill="#003552" d="M17.279,124.092h-2.703c-0.35,0-0.633-0.283-0.633-0.635v-1.574c0-0.35,0.283-0.633,0.633-0.633h2.703
				c0.35,0,0.634,0.283,0.634,0.633v1.574C17.914,123.809,17.629,124.092,17.279,124.092z"/>
		</g>
		<g>
			<path fill="#003552" d="M12.307,125.23H9.82H9.604h-2.27H7.118H4.632c-0.35,0-0.634,0.283-0.634,0.635v1.574
				c0,0.35,0.284,0.633,0.634,0.633h2.486h0.217h2.27H9.82h2.487c0.35,0,0.633-0.283,0.633-0.633v-1.574
				C12.94,125.514,12.657,125.23,12.307,125.23z"/>
		</g>
		<g>
			<path fill="#003552" d="M17.279,128.072h-2.703c-0.35,0-0.633-0.283-0.633-0.633v-1.574c0-0.352,0.283-0.635,0.633-0.635h2.703
				c0.35,0,0.634,0.283,0.634,0.635v1.574C17.914,127.789,17.629,128.072,17.279,128.072z"/>
		</g>
		<g>
			<path fill="#003552" d="M22.252,128.072h-2.703c-0.35,0-0.633-0.283-0.633-0.633v-1.574c0-0.352,0.283-0.635,0.633-0.635h2.703
				c0.35,0,0.634,0.283,0.634,0.635v1.574C22.886,127.789,22.602,128.072,22.252,128.072z"/>
		</g>
		<g>
			<path fill="#1E181A" d="M7.334,115.891H4.632c-0.35,0-0.634-0.284-0.634-0.635v-1.574c0-0.35,0.284-0.633,0.634-0.633h2.703
				c0.35,0,0.633,0.283,0.633,0.633v1.574C7.968,115.606,7.684,115.891,7.334,115.891z"/>
		</g>
		<g>
			<path fill="#1E181A" d="M12.307,115.891H9.604c-0.35,0-0.633-0.284-0.633-0.635v-1.574c0-0.35,0.283-0.633,0.633-0.633h2.703
				c0.35,0,0.634,0.283,0.634,0.633v1.574C12.94,115.606,12.657,115.891,12.307,115.891z"/>
		</g>
		<g>
			<path fill="#1E181A" d="M17.279,115.891h-2.703c-0.35,0-0.634-0.284-0.634-0.635v-1.574c0-0.35,0.284-0.633,0.634-0.633h2.703
				c0.35,0,0.634,0.283,0.634,0.633v1.574C17.913,115.606,17.629,115.891,17.279,115.891z"/>
		</g>
		<g>
			<path fill="#1E181A" d="M22.252,115.891h-2.703c-0.35,0-0.633-0.284-0.633-0.635v-1.574c0-0.35,0.284-0.633,0.633-0.633h2.703
				c0.35,0,0.633,0.283,0.633,0.633v1.574C22.885,115.606,22.602,115.891,22.252,115.891z"/>
		</g>
		<g>
			<path fill="#1E181A" d="M7.334,119.871H4.632c-0.35,0-0.634-0.284-0.634-0.635v-1.574c0-0.35,0.284-0.634,0.634-0.634h2.703
				c0.35,0,0.633,0.284,0.633,0.634v1.574C7.968,119.587,7.684,119.871,7.334,119.871z"/>
		</g>
		<g>
			<path fill="#1E181A" d="M12.307,119.871H9.604c-0.35,0-0.633-0.284-0.633-0.635v-1.574c0-0.35,0.283-0.634,0.633-0.634h2.703
				c0.35,0,0.634,0.284,0.634,0.634v1.574C12.94,119.587,12.657,119.871,12.307,119.871z"/>
		</g>
		<g>
			<path fill="#1E181A" d="M17.279,119.871h-2.703c-0.35,0-0.634-0.284-0.634-0.635v-1.574c0-0.35,0.284-0.634,0.634-0.634h2.703
				c0.35,0,0.634,0.284,0.634,0.634v1.574C17.913,119.587,17.629,119.871,17.279,119.871z"/>
		</g>
		<g>
			<path fill="#1E181A" d="M22.252,119.871h-2.703c-0.35,0-0.633-0.284-0.633-0.635v-1.574c0-0.35,0.284-0.634,0.633-0.634h2.703
				c0.35,0,0.633,0.284,0.633,0.634v1.574C22.885,119.587,22.602,119.871,22.252,119.871z"/>
		</g>
		<g>
			<path fill="#1E181A" d="M7.334,123.852H4.632c-0.35,0-0.634-0.285-0.634-0.635v-1.574c0-0.35,0.284-0.633,0.634-0.633h2.703
				c0.35,0,0.633,0.283,0.633,0.633v1.574C7.968,123.566,7.684,123.852,7.334,123.852z"/>
		</g>
		<g>
			<path fill="#1E181A" d="M12.307,123.852H9.604c-0.35,0-0.633-0.285-0.633-0.635v-1.574c0-0.35,0.283-0.633,0.633-0.633h2.703
				c0.35,0,0.634,0.283,0.634,0.633v1.574C12.94,123.566,12.657,123.852,12.307,123.852z"/>
		</g>
		<g>
			<path fill="#1E181A" d="M17.279,123.852h-2.703c-0.35,0-0.634-0.285-0.634-0.635v-1.574c0-0.35,0.284-0.633,0.634-0.633h2.703
				c0.35,0,0.634,0.283,0.634,0.633v1.574C17.913,123.566,17.629,123.852,17.279,123.852z"/>
		</g>
		<g>
			<path fill="#1E181A" d="M12.307,124.988H9.754h-0.15h-2.27H7.051H4.632c-0.35,0-0.634,0.285-0.634,0.635v1.574
				c0,0.35,0.284,0.635,0.634,0.635h2.419h0.283h2.27h0.15h2.553c0.35,0,0.634-0.285,0.634-0.635v-1.574
				C12.94,125.273,12.657,124.988,12.307,124.988z"/>
		</g>
		<g>
			<path fill="#1E181A" d="M17.279,127.832h-2.703c-0.35,0-0.634-0.285-0.634-0.635v-1.574c0-0.35,0.284-0.635,0.634-0.635h2.703
				c0.35,0,0.634,0.285,0.634,0.635v1.574C17.913,127.547,17.629,127.832,17.279,127.832z"/>
		</g>
		<g>
			<path fill="#1B5E73" d="M22.305,109.5H4.578c-0.32,0-0.58-0.26-0.58-0.58v-4.901c0-0.321,0.26-0.581,0.58-0.581h17.727
				c0.321,0,0.581,0.26,0.581,0.581v4.901C22.886,109.24,22.626,109.5,22.305,109.5z"/>
		</g>
		<g>
			<path fill="#D0D2D3" d="M4.579,109.336c-0.229,0-0.417-0.188-0.417-0.416v-4.901c0-0.229,0.187-0.416,0.417-0.416h17.727
				c0.229,0,0.416,0.187,0.416,0.416v4.901c0,0.229-0.187,0.416-0.416,0.416H4.579z"/>
		</g>
		<g>
			<path fill="#003552" d="M19.917,111.695h2.243c0.313,0,0.568-0.254,0.568-0.568v-0.166c0-0.314-0.254-0.568-0.568-0.568h-2.243
				c-0.313,0-0.567,0.254-0.567,0.568v0.166C19.35,111.441,19.604,111.695,19.917,111.695z"/>
		</g>
		<g>
			<path fill="#003552" d="M15.837,111.695h2.242c0.313,0,0.568-0.254,0.568-0.568v-0.166c0-0.314-0.254-0.568-0.568-0.568h-2.242
				c-0.314,0-0.568,0.254-0.568,0.568v0.166C15.269,111.441,15.523,111.695,15.837,111.695z"/>
		</g>
		<g>
			<path fill="#E2933D" d="M20.069,111.807h2.242c0.313,0,0.568-0.254,0.568-0.567v-0.167c0-0.313-0.254-0.567-0.568-0.567h-2.242
				c-0.314,0-0.568,0.255-0.568,0.567v0.167C19.501,111.553,19.755,111.807,20.069,111.807z"/>
		</g>
		<g>
			<path fill="#2EA0D1" d="M15.989,111.807h2.242c0.314,0,0.568-0.254,0.568-0.567v-0.167c0-0.313-0.254-0.567-0.568-0.567h-2.242
				c-0.313,0-0.568,0.255-0.568,0.567v0.167C15.421,111.553,15.675,111.807,15.989,111.807z"/>
		</g>
		<g>
			<path fill="#1B5E73" d="M7.938,105.661H6.996l-0.095,0.634c0.057-0.008,0.11-0.016,0.201-0.016c0.19,0,0.38,0.042,0.532,0.133
				c0.193,0.11,0.353,0.322,0.353,0.635c0,0.482-0.383,0.842-0.919,0.842c-0.27,0-0.497-0.075-0.615-0.151l0.083-0.255
				c0.103,0.062,0.304,0.138,0.528,0.138c0.314,0,0.584-0.206,0.584-0.536c-0.004-0.318-0.217-0.547-0.71-0.547
				c-0.141,0-0.25,0.016-0.342,0.027l0.159-1.185h1.181V105.661z"/>
			<path fill="#1B5E73" d="M9.445,107.848v-0.672H8.299v-0.221l1.101-1.575H9.76v1.534h0.346v0.262H9.76v0.672H9.445z
				 M9.445,106.914v-0.824c0-0.129,0.004-0.258,0.011-0.388H9.445c-0.076,0.146-0.137,0.251-0.205,0.364l-0.604,0.84v0.008H9.445z"
				/>
			<path fill="#1B5E73" d="M10.441,107.464c0.095,0.062,0.315,0.156,0.546,0.156c0.429,0,0.562-0.274,0.558-0.479
				c-0.003-0.345-0.315-0.492-0.638-0.492h-0.186v-0.251h0.186c0.243,0,0.55-0.126,0.55-0.418c0-0.197-0.125-0.372-0.433-0.372
				c-0.198,0-0.388,0.088-0.494,0.164l-0.087-0.243c0.129-0.095,0.38-0.19,0.646-0.19c0.486,0,0.706,0.289,0.706,0.589
				c0,0.255-0.152,0.471-0.456,0.581v0.007c0.304,0.062,0.551,0.289,0.551,0.634c0,0.396-0.308,0.74-0.9,0.74
				c-0.277,0-0.521-0.086-0.642-0.166L10.441,107.464z"/>
			<path fill="#1B5E73" d="M12.309,107.848v-0.205l0.262-0.254c0.63-0.601,0.915-0.919,0.918-1.291c0-0.25-0.121-0.482-0.49-0.482
				c-0.224,0-0.41,0.113-0.523,0.209l-0.106-0.236c0.171-0.143,0.414-0.25,0.698-0.25c0.532,0,0.755,0.364,0.755,0.718
				c0,0.456-0.33,0.823-0.85,1.325l-0.197,0.182v0.008h1.108v0.277H12.309z"/>
			<path fill="#1B5E73" d="M14.982,105.691h-0.007l-0.429,0.231l-0.064-0.255l0.54-0.288h0.284v2.468h-0.323V105.691z"/>
			<path fill="#1B5E73" d="M17.846,106.587c0,0.839-0.312,1.302-0.858,1.302c-0.482,0-0.809-0.451-0.816-1.268
				c0-0.827,0.357-1.283,0.858-1.283C17.55,105.338,17.846,105.801,17.846,106.587z M16.506,106.625
				c0,0.642,0.197,1.006,0.501,1.006c0.342,0,0.505-0.398,0.505-1.028c0-0.607-0.155-1.007-0.501-1.007
				C16.719,105.596,16.506,105.953,16.506,106.625z"/>
		</g>
		<g>
			<g>
				<path fill="#BBBDBF" d="M5.032,123.309h0.371v-1.105c0-0.043,0.001-0.088,0.004-0.135l-0.263,0.229
					c-0.011,0.01-0.022,0.016-0.033,0.02c-0.012,0.004-0.023,0.006-0.034,0.006c-0.017,0-0.032-0.004-0.046-0.012
					c-0.014-0.008-0.024-0.016-0.031-0.025L4.9,122.145l0.559-0.492h0.257v1.656h0.329v0.242H5.032V123.309z"/>
			</g>
			<g>
				<path fill="#BBBDBF" d="M10.764,121.645c0.084,0,0.162,0.012,0.231,0.037c0.07,0.027,0.13,0.063,0.18,0.111
					c0.049,0.047,0.088,0.104,0.116,0.17s0.042,0.141,0.042,0.221c0,0.07-0.01,0.135-0.03,0.193c-0.02,0.061-0.046,0.117-0.08,0.172
					c-0.033,0.053-0.072,0.105-0.117,0.156c-0.045,0.051-0.092,0.104-0.141,0.154l-0.412,0.438c0.04-0.012,0.08-0.021,0.119-0.027
					c0.039-0.008,0.076-0.01,0.111-0.01h0.47c0.033,0,0.061,0.01,0.08,0.029c0.02,0.02,0.03,0.045,0.03,0.078v0.193h-1.255v-0.107
					c0-0.021,0.004-0.045,0.013-0.068c0.009-0.023,0.023-0.045,0.042-0.066l0.556-0.576c0.046-0.049,0.088-0.096,0.125-0.141
					s0.067-0.088,0.092-0.133c0.025-0.043,0.044-0.088,0.057-0.133s0.02-0.092,0.02-0.143c0-0.045-0.006-0.084-0.019-0.119
					c-0.013-0.033-0.031-0.063-0.054-0.088c-0.023-0.023-0.052-0.041-0.084-0.053c-0.032-0.012-0.069-0.018-0.109-0.018
					c-0.075,0-0.137,0.021-0.185,0.059c-0.049,0.041-0.083,0.094-0.102,0.16c-0.009,0.033-0.023,0.057-0.042,0.07
					c-0.018,0.016-0.042,0.021-0.071,0.021c-0.013,0-0.026,0-0.042-0.004l-0.165-0.029c0.012-0.092,0.037-0.17,0.073-0.24
					c0.037-0.068,0.082-0.125,0.136-0.17c0.054-0.047,0.117-0.082,0.188-0.105C10.607,121.656,10.683,121.645,10.764,121.645z"/>
			</g>
			<g>
				<path fill="#BBBDBF" d="M15.633,121.633c0.084,0,0.161,0.014,0.229,0.037c0.068,0.025,0.126,0.061,0.174,0.105
					c0.048,0.043,0.085,0.096,0.111,0.154s0.039,0.123,0.039,0.193c0,0.059-0.007,0.113-0.02,0.158
					c-0.013,0.047-0.032,0.086-0.057,0.121c-0.025,0.033-0.056,0.063-0.092,0.086c-0.036,0.023-0.076,0.043-0.122,0.059
					c0.11,0.037,0.192,0.09,0.246,0.164c0.054,0.074,0.081,0.166,0.081,0.277c0,0.094-0.017,0.178-0.05,0.25
					c-0.034,0.072-0.08,0.133-0.137,0.182c-0.058,0.051-0.124,0.088-0.199,0.113c-0.076,0.025-0.156,0.037-0.24,0.037
					c-0.092,0-0.172-0.01-0.24-0.031c-0.068-0.023-0.128-0.055-0.179-0.098c-0.05-0.043-0.093-0.096-0.129-0.158
					c-0.035-0.061-0.065-0.133-0.091-0.215l0.138-0.059c0.023-0.01,0.048-0.016,0.072-0.016c0.022,0,0.042,0.004,0.059,0.016
					c0.018,0.008,0.031,0.023,0.04,0.041c0.015,0.029,0.032,0.061,0.05,0.09c0.019,0.029,0.04,0.057,0.065,0.08
					c0.025,0.023,0.055,0.041,0.089,0.057c0.034,0.014,0.075,0.021,0.122,0.021c0.054,0,0.1-0.01,0.14-0.027
					c0.04-0.018,0.073-0.041,0.099-0.07s0.046-0.061,0.06-0.096c0.013-0.037,0.02-0.072,0.02-0.107c0-0.045-0.005-0.088-0.014-0.125
					c-0.009-0.035-0.028-0.068-0.058-0.094c-0.029-0.025-0.072-0.047-0.127-0.063c-0.055-0.014-0.129-0.021-0.222-0.021v-0.232
					c0.077,0,0.141-0.006,0.191-0.02c0.051-0.016,0.091-0.035,0.121-0.059c0.03-0.025,0.051-0.057,0.063-0.09
					c0.012-0.035,0.018-0.074,0.018-0.117c0-0.09-0.024-0.156-0.071-0.203c-0.047-0.045-0.112-0.068-0.193-0.068
					c-0.074,0-0.136,0.02-0.185,0.061s-0.083,0.092-0.103,0.156c-0.01,0.033-0.024,0.057-0.042,0.072
					c-0.018,0.014-0.041,0.021-0.07,0.021c-0.013,0-0.028-0.002-0.043-0.004l-0.165-0.031c0.013-0.09,0.038-0.17,0.074-0.238
					s0.082-0.127,0.136-0.172c0.054-0.045,0.116-0.08,0.187-0.104C15.476,121.645,15.552,121.633,15.633,121.633z"/>
			</g>
			<g>
				<path fill="#BBBDBF" d="M5.939,118.909h0.23v0.188c0,0.017-0.005,0.032-0.017,0.045s-0.027,0.019-0.048,0.019H5.939v0.463H5.666
					v-0.463H4.894c-0.021,0-0.04-0.006-0.056-0.02c-0.016-0.014-0.026-0.03-0.031-0.051l-0.032-0.164l0.867-1.199h0.296V118.909z
					 M5.666,118.289c0-0.027,0.001-0.059,0.002-0.09c0.002-0.033,0.005-0.066,0.009-0.102l-0.568,0.812h0.557V118.289z"/>
			</g>
			<g>
				<path fill="#BBBDBF" d="M11.283,117.855c0,0.045-0.014,0.083-0.042,0.111c-0.029,0.029-0.076,0.044-0.142,0.044h-0.504
					l-0.065,0.396c0.083-0.018,0.159-0.025,0.227-0.025c0.096,0,0.181,0.015,0.254,0.044c0.073,0.03,0.134,0.071,0.184,0.123
					s0.087,0.114,0.113,0.185c0.025,0.07,0.038,0.146,0.038,0.227c0,0.102-0.017,0.193-0.051,0.275
					c-0.034,0.084-0.082,0.154-0.142,0.213c-0.061,0.06-0.133,0.105-0.216,0.138s-0.174,0.048-0.271,0.048
					c-0.058,0-0.112-0.006-0.164-0.018c-0.051-0.013-0.1-0.029-0.145-0.049c-0.045-0.021-0.087-0.045-0.125-0.07
					c-0.039-0.027-0.073-0.057-0.103-0.086l0.096-0.137c0.02-0.03,0.047-0.045,0.081-0.045c0.021,0,0.042,0.007,0.063,0.021
					c0.022,0.015,0.047,0.03,0.076,0.046c0.028,0.018,0.062,0.032,0.1,0.047c0.038,0.014,0.084,0.02,0.138,0.02
					c0.057,0,0.108-0.009,0.152-0.027c0.044-0.02,0.081-0.047,0.11-0.081c0.029-0.034,0.051-0.075,0.065-0.124
					c0.015-0.047,0.022-0.1,0.022-0.154c0-0.104-0.029-0.184-0.086-0.242s-0.143-0.088-0.255-0.088
					c-0.089,0-0.178,0.018-0.267,0.051l-0.195-0.059l0.151-0.92h0.904V117.855z"/>
			</g>
			<g>
				<path fill="#BBBDBF" d="M15.688,118.429c0.069,0,0.136,0.012,0.202,0.036c0.065,0.023,0.123,0.059,0.173,0.106
					c0.049,0.048,0.09,0.106,0.12,0.177c0.03,0.072,0.045,0.154,0.045,0.248c0,0.088-0.016,0.171-0.047,0.249
					c-0.031,0.077-0.075,0.145-0.131,0.202c-0.057,0.058-0.125,0.104-0.205,0.137c-0.08,0.033-0.167,0.049-0.264,0.049
					c-0.098,0-0.186-0.016-0.263-0.048s-0.144-0.077-0.199-0.136c-0.055-0.059-0.097-0.128-0.126-0.209
					c-0.029-0.082-0.043-0.174-0.043-0.272c0-0.089,0.017-0.181,0.052-0.274c0.035-0.095,0.089-0.191,0.163-0.293l0.437-0.607
					c0.016-0.021,0.037-0.039,0.066-0.055c0.029-0.014,0.063-0.021,0.101-0.021h0.278l-0.543,0.688
					c-0.012,0.016-0.023,0.029-0.034,0.043c-0.011,0.013-0.021,0.026-0.031,0.041c0.035-0.02,0.073-0.033,0.114-0.044
					S15.639,118.429,15.688,118.429z M15.25,119.018c0,0.053,0.007,0.1,0.021,0.143c0.014,0.044,0.035,0.081,0.062,0.111
					c0.027,0.031,0.061,0.055,0.102,0.072c0.041,0.017,0.087,0.024,0.141,0.024c0.05,0,0.096-0.009,0.137-0.026
					c0.042-0.017,0.078-0.041,0.107-0.072c0.03-0.032,0.054-0.068,0.07-0.111c0.017-0.042,0.025-0.088,0.025-0.139
					c0-0.054-0.008-0.103-0.024-0.146c-0.016-0.043-0.039-0.08-0.068-0.109c-0.03-0.029-0.065-0.053-0.106-0.068
					c-0.041-0.016-0.087-0.023-0.136-0.023c-0.05,0-0.096,0.008-0.136,0.025c-0.041,0.018-0.075,0.042-0.104,0.072
					c-0.029,0.031-0.051,0.068-0.067,0.111C15.257,118.923,15.25,118.969,15.25,119.018z"/>
			</g>
			<g>
				<path fill="#BBBDBF" d="M6.417,113.832v0.14c0,0.042-0.004,0.076-0.013,0.102c-0.009,0.026-0.018,0.048-0.026,0.065
					l-0.692,1.479c-0.014,0.03-0.034,0.057-0.061,0.078s-0.062,0.031-0.106,0.031H5.292l0.708-1.447
					c0.03-0.061,0.063-0.111,0.099-0.154H5.224c-0.02,0-0.036-0.008-0.051-0.021c-0.014-0.016-0.021-0.033-0.021-0.053v-0.219H6.417
					z"/>
			</g>
			<g>
				<path fill="#BBBDBF" d="M10.736,115.748c-0.094,0-0.181-0.013-0.259-0.039s-0.145-0.063-0.201-0.111
					c-0.056-0.049-0.099-0.106-0.129-0.174c-0.031-0.068-0.046-0.145-0.046-0.229c0-0.112,0.026-0.207,0.08-0.284
					s0.136-0.135,0.248-0.173c-0.089-0.038-0.156-0.093-0.201-0.163c-0.044-0.071-0.066-0.156-0.066-0.257
					c0-0.07,0.014-0.138,0.042-0.199c0.029-0.063,0.068-0.116,0.119-0.162s0.111-0.082,0.182-0.107s0.148-0.039,0.232-0.039
					c0.084,0,0.162,0.014,0.232,0.039s0.131,0.062,0.182,0.107s0.09,0.1,0.119,0.162c0.028,0.062,0.042,0.129,0.042,0.199
					c0,0.101-0.022,0.186-0.067,0.257c-0.044,0.07-0.111,0.125-0.2,0.163c0.112,0.038,0.195,0.096,0.248,0.173
					c0.053,0.077,0.08,0.172,0.08,0.284c0,0.084-0.016,0.16-0.046,0.229c-0.031,0.067-0.075,0.125-0.13,0.174
					c-0.056,0.048-0.122,0.085-0.2,0.111S10.831,115.748,10.736,115.748z M10.736,115.495c0.051,0,0.097-0.008,0.135-0.022
					c0.039-0.016,0.072-0.037,0.098-0.064c0.026-0.026,0.046-0.059,0.06-0.097s0.02-0.078,0.02-0.122
					c0-0.104-0.027-0.182-0.083-0.235c-0.056-0.054-0.132-0.081-0.23-0.081s-0.175,0.027-0.23,0.081s-0.083,0.132-0.083,0.235
					c0,0.044,0.007,0.084,0.021,0.122c0.013,0.038,0.033,0.07,0.06,0.097c0.027,0.027,0.06,0.049,0.098,0.064
					C10.639,115.487,10.685,115.495,10.736,115.495z M10.736,114.619c0.05,0,0.093-0.008,0.127-0.024
					c0.035-0.017,0.063-0.038,0.083-0.066s0.036-0.06,0.045-0.095c0.009-0.035,0.014-0.071,0.014-0.109
					c0-0.035-0.005-0.069-0.016-0.102c-0.012-0.033-0.028-0.062-0.05-0.086c-0.022-0.025-0.05-0.045-0.083-0.061
					c-0.034-0.014-0.074-0.021-0.12-0.021c-0.047,0-0.086,0.008-0.12,0.021c-0.034,0.016-0.062,0.035-0.084,0.061
					c-0.022,0.024-0.039,0.053-0.049,0.086c-0.01,0.032-0.016,0.066-0.016,0.102c0,0.038,0.004,0.074,0.013,0.109
					c0.009,0.035,0.024,0.066,0.045,0.095s0.049,0.05,0.084,0.066C10.643,114.611,10.686,114.619,10.736,114.619z"/>
			</g>
			<g>
				<path fill="#BBBDBF" d="M15.776,114.981c-0.063,0-0.125-0.012-0.186-0.034c-0.061-0.023-0.115-0.057-0.163-0.104
					c-0.047-0.045-0.085-0.102-0.114-0.17s-0.043-0.146-0.043-0.238c0-0.084,0.015-0.164,0.045-0.238s0.073-0.139,0.128-0.195
					c0.055-0.056,0.121-0.1,0.197-0.133c0.077-0.032,0.162-0.049,0.255-0.049s0.177,0.016,0.252,0.047
					c0.075,0.03,0.138,0.073,0.191,0.129c0.052,0.055,0.093,0.121,0.121,0.197c0.029,0.077,0.042,0.161,0.042,0.253
					c0,0.059-0.004,0.114-0.015,0.167c-0.01,0.052-0.023,0.103-0.042,0.15c-0.019,0.049-0.04,0.096-0.065,0.143
					c-0.025,0.046-0.054,0.092-0.085,0.138l-0.419,0.619c-0.015,0.021-0.036,0.038-0.064,0.053s-0.061,0.022-0.097,0.022H15.43
					l0.568-0.736c0.015-0.018,0.028-0.036,0.041-0.053c0.013-0.019,0.024-0.035,0.037-0.053c-0.042,0.027-0.088,0.049-0.139,0.063
					S15.832,114.981,15.776,114.981z M16.203,114.414c0-0.052-0.007-0.098-0.022-0.139c-0.015-0.041-0.037-0.074-0.064-0.103
					s-0.061-0.05-0.099-0.065c-0.039-0.014-0.081-0.021-0.126-0.021c-0.047,0-0.09,0.008-0.128,0.024s-0.07,0.038-0.097,0.067
					c-0.027,0.029-0.047,0.063-0.062,0.103s-0.021,0.083-0.021,0.131c0,0.105,0.026,0.187,0.079,0.241
					c0.053,0.057,0.127,0.084,0.225,0.084c0.05,0,0.096-0.009,0.135-0.025c0.039-0.016,0.072-0.039,0.099-0.068
					c0.027-0.028,0.047-0.063,0.062-0.102S16.203,114.459,16.203,114.414z"/>
			</g>
		</g>
		<g>
			<path fill="#1E181A" d="M22.885,121.643c0-0.35-0.283-0.633-0.633-0.633h-2.703c-0.35,0-0.634,0.283-0.634,0.633v5.555
				c0,0.35,0.284,0.635,0.634,0.635h2.703c0.35,0,0.633-0.285,0.633-0.635V121.643z"/>
		</g>
		<g>
			<rect x="7.342" y="126.193" fill="#BBBDBF" width="1.629" height="0.434"/>
		</g>
		<g>
			<g>
				<rect x="20.086" y="123.635" fill="#BBBDBF" width="1.628" height="0.432"/>
			</g>
			<g>
				<rect x="20.086" y="124.773" fill="#BBBDBF" width="1.628" height="0.432"/>
			</g>
		</g>
		<g>
			<polygon fill="#BBBDBF" points="16.742,126.193 16.144,126.193 16.144,125.596 15.712,125.596 15.712,126.193 15.114,126.193 
				15.114,126.627 15.712,126.627 15.712,127.225 16.144,127.225 16.144,126.627 16.742,126.627 			"/>
		</g>
		<g>
			<g>
				<path fill="#BBBDBF" d="M21.107,114.26c0,0.066-0.011,0.125-0.033,0.178c-0.021,0.054-0.051,0.099-0.088,0.137
					c-0.037,0.037-0.08,0.065-0.128,0.085c-0.049,0.021-0.1,0.03-0.153,0.03c-0.058,0-0.111-0.01-0.16-0.03
					c-0.049-0.02-0.091-0.048-0.126-0.085c-0.036-0.038-0.064-0.083-0.083-0.137c-0.021-0.053-0.031-0.111-0.031-0.178
					s0.01-0.128,0.031-0.183c0.02-0.054,0.048-0.101,0.083-0.138c0.036-0.038,0.078-0.066,0.126-0.088
					c0.049-0.02,0.102-0.03,0.16-0.03c0.057,0,0.111,0.011,0.16,0.03c0.05,0.021,0.092,0.05,0.128,0.088
					c0.036,0.037,0.064,0.084,0.084,0.138C21.098,114.132,21.107,114.193,21.107,114.26z M21.686,113.887
					c0.009-0.013,0.021-0.023,0.036-0.033s0.034-0.014,0.06-0.014h0.215l-1.291,1.693c-0.01,0.013-0.022,0.023-0.037,0.032
					s-0.033,0.013-0.054,0.013h-0.221L21.686,113.887z M20.878,114.26c0-0.046-0.004-0.085-0.013-0.116
					c-0.009-0.032-0.021-0.057-0.037-0.075c-0.016-0.02-0.034-0.033-0.055-0.042s-0.044-0.013-0.068-0.013
					c-0.024,0-0.046,0.004-0.067,0.013s-0.039,0.022-0.054,0.042c-0.015,0.019-0.027,0.043-0.036,0.075
					c-0.008,0.031-0.013,0.07-0.013,0.116c0,0.045,0.004,0.083,0.013,0.113c0.009,0.029,0.021,0.054,0.036,0.072
					s0.033,0.031,0.054,0.039s0.043,0.013,0.067,0.013c0.024,0,0.047-0.005,0.068-0.013s0.04-0.021,0.055-0.039
					s0.028-0.043,0.037-0.072C20.874,114.343,20.878,114.305,20.878,114.26z M22.088,115.169c0,0.065-0.011,0.126-0.033,0.178
					c-0.022,0.054-0.051,0.099-0.088,0.136c-0.037,0.037-0.08,0.065-0.128,0.086c-0.049,0.021-0.1,0.031-0.153,0.031
					c-0.058,0-0.111-0.01-0.16-0.031c-0.049-0.021-0.091-0.049-0.126-0.086c-0.036-0.037-0.063-0.082-0.083-0.136
					c-0.02-0.052-0.031-0.112-0.031-0.178c0-0.067,0.011-0.128,0.031-0.183s0.048-0.101,0.083-0.139
					c0.035-0.037,0.078-0.066,0.126-0.087s0.102-0.03,0.16-0.03c0.058,0,0.111,0.01,0.161,0.03s0.092,0.05,0.128,0.087
					c0.036,0.038,0.064,0.084,0.084,0.139S22.088,115.102,22.088,115.169z M21.86,115.169c0-0.046-0.004-0.085-0.014-0.116
					s-0.022-0.057-0.038-0.076s-0.034-0.033-0.055-0.041c-0.021-0.009-0.044-0.013-0.068-0.013s-0.047,0.004-0.067,0.013
					c-0.021,0.008-0.039,0.021-0.054,0.041c-0.015,0.02-0.026,0.045-0.035,0.076s-0.013,0.07-0.013,0.116
					c0,0.045,0.004,0.083,0.013,0.113s0.021,0.055,0.035,0.073c0.015,0.019,0.033,0.031,0.054,0.039
					c0.021,0.009,0.043,0.013,0.067,0.013s0.047-0.004,0.068-0.013c0.021-0.008,0.04-0.021,0.055-0.039s0.028-0.043,0.038-0.073
					S21.86,115.214,21.86,115.169z"/>
			</g>
		</g>
		<g>
			<g>
				<path fill="#BBBDBF" d="M20.798,119.039v-0.317c0-0.023,0.001-0.046,0.004-0.067c0.003-0.022,0.008-0.043,0.015-0.063
					c-0.012,0.017-0.027,0.031-0.044,0.044c-0.018,0.013-0.037,0.025-0.056,0.038l-0.274,0.159l-0.103-0.173l0.276-0.159
					c0.021-0.014,0.042-0.023,0.062-0.032c0.021-0.009,0.042-0.014,0.063-0.017c-0.022-0.003-0.043-0.009-0.063-0.018
					c-0.02-0.01-0.041-0.021-0.062-0.033l-0.276-0.162l0.101-0.174l0.276,0.164c0.02,0.012,0.039,0.025,0.057,0.039
					c0.018,0.013,0.033,0.027,0.046,0.044c-0.008-0.02-0.014-0.04-0.017-0.063s-0.004-0.044-0.004-0.067v-0.321h0.205v0.317
					c0,0.024-0.001,0.048-0.004,0.07c-0.002,0.022-0.008,0.044-0.017,0.063c0.013-0.017,0.028-0.031,0.046-0.044
					c0.017-0.014,0.036-0.027,0.057-0.039l0.274-0.16l0.103,0.174l-0.276,0.158c-0.021,0.012-0.042,0.023-0.062,0.032
					c-0.02,0.009-0.042,0.015-0.063,0.019c0.039,0.006,0.081,0.022,0.125,0.049l0.276,0.161l-0.101,0.173l-0.276-0.161
					c-0.021-0.013-0.04-0.025-0.057-0.038c-0.018-0.013-0.033-0.027-0.047-0.044c0.015,0.037,0.022,0.081,0.022,0.129v0.319H20.798z
					"/>
			</g>
		</g>
	</g>
	<g>
		<g>
			<g>
				<g>
					<g>
						<path fill="#EFC29C" d="M67.221,117.073l0.457-10.034l4.934-13.566c0.042-0.115,0.168-0.174,0.284-0.134l0,0
							c0.745,0.263,1.174,1.042,1,1.813l-2.31,10.208l2.833-7.105l4.665-6.636c0.34-0.483,1.034-0.543,1.45-0.124l0.017,0.016
							c0.315,0.316,0.378,0.797,0.158,1.178c-1.045,1.812-3.93,6.805-3.93,6.805l-1.492,6.838l3.173-7.055l4.988-8.524
							c0.266-0.452,0.87-0.565,1.281-0.239l0.016,0.013c0.324,0.257,0.429,0.694,0.256,1.065c-0.994,2.137-4.178,8.99-4.178,8.99
							l-2.118,7.883l4.715-9.193l4.738-6.291c0.07-0.11,0.22-0.138,0.324-0.06l0,0c0.583,0.435,0.783,1.216,0.479,1.876
							l-3.515,7.656l-1.262,5.885l3.081-4.621l1.094-1.236c0.489-0.553,1.402-0.184,1.368,0.555l-0.048,1.04
							c-0.073,1.603-0.528,3.164-1.325,4.556l-5.652,8.297l-6.644,6.615l-8.941,12.23l-9.348-5.791L67.221,117.073z"/>
					</g>
					<g>
						<g>
							<path fill="#DDA780" d="M84.308,90.491l0.017,0.013c0.323,0.258,0.429,0.695,0.256,1.065c-0.995,2.137-4.178,8.99-4.178,8.99
								l-2.118,7.883l0.896-1.747l1.643-6.115c0,0,3.184-6.854,4.178-8.99c0.173-0.371,0.068-0.809-0.256-1.065l-0.016-0.013
								c-0.211-0.167-0.471-0.217-0.711-0.168C84.12,90.375,84.219,90.421,84.308,90.491z"/>
						</g>
						<g>
							<path fill="#DDA780" d="M88.542,94.773l-3.516,7.657l-1.262,5.886l0.627-0.94l1.057-4.925l3.515-7.656
								c0.304-0.66,0.104-1.441-0.479-1.876c-0.105-0.078-0.255-0.051-0.325,0.06l-0.003,0.004
								C88.663,93.427,88.827,94.152,88.542,94.773z"/>
						</g>
						<g>
							<path fill="#DDA780" d="M80.114,91.473l0.016,0.018c0.314,0.315,0.379,0.795,0.158,1.178c-1.045,1.811-3.93,6.804-3.93,6.804
								l-1.493,6.837l0.827-1.838l1.087-4.979c0,0,2.885-4.993,3.93-6.805c0.22-0.381,0.157-0.861-0.158-1.178l-0.017-0.016
								c-0.23-0.232-0.545-0.312-0.838-0.26C79.849,91.276,79.993,91.353,80.114,91.473z"/>
						</g>
						<g>
							<path fill="#DDA780" d="M73.475,95.131l-2.309,10.209l0.984-2.469l1.747-7.72c0.174-0.771-0.256-1.55-1-1.813
								c-0.088-0.03-0.183-0.003-0.241,0.063C73.284,93.72,73.634,94.427,73.475,95.131z"/>
						</g>
					</g>
				</g>
				<g>
					<path fill="#F4D5BC" d="M69.047,115.237c0,0-1.207-5.712,0.345-7.22c1.551-1.509,2.457-1.658,1.745,0.084
						c-0.712,1.741-1.523,1.447-1.255,3.207C70.15,113.068,69.722,115.332,69.047,115.237z"/>
				</g>
			</g>
			<g>
				<path fill="#DDA780" d="M88.767,102.234c0.311,0.101,0.561,0.387,0.542,0.779l-0.048,1.04c-0.074,1.603-0.529,3.163-1.326,4.556
					l-5.651,8.297l-5.573,5.547c-0.205-0.189-0.419-0.379-0.653-0.561c-1.378-1.07-8.829-4.986-8.829-4.986
					c0.718,0.26,1.475,0.691,2.215,1.266c1.123,0.873,4.438,3.449,5.816,4.52c0.233,0.182,0.446,0.369,0.651,0.559l-0.271,0.271
					l-8.82,12.064l0.3,0.186l8.941-12.23l0.567-0.564l0.311-0.311l0,0l5.766-5.74l5.652-8.297c0.797-1.392,1.252-2.953,1.325-4.556
					l0.048-1.04C89.755,102.472,89.233,102.125,88.767,102.234z"/>
			</g>
		</g>
		<g>
			<g>
				<path fill="#F9E7DC" d="M72.668,93.734c-0.028,0-0.428,0.785-0.305,1.003c0.122,0.219,0.628,0.314,0.785,0.149
					c0.157-0.166,0.148-0.654,0.052-0.82C73.104,93.9,72.819,93.738,72.668,93.734z"/>
			</g>
			<g>
				<path fill="#F9E7DC" d="M79.476,91.378c-0.025-0.007-0.598,0.663-0.53,0.903c0.068,0.241,0.537,0.453,0.729,0.328
					c0.191-0.125,0.296-0.602,0.242-0.785C79.862,91.641,79.622,91.417,79.476,91.378z"/>
			</g>
			<g>
				<path fill="#F9E7DC" d="M83.929,90.584c-0.026-0.007-0.6,0.664-0.531,0.905c0.068,0.24,0.537,0.452,0.729,0.327
					s0.297-0.602,0.242-0.785S84.074,90.624,83.929,90.584z"/>
			</g>
			<g>
				<path fill="#F9E7DC" d="M88.085,93.326c-0.026-0.007-0.6,0.664-0.531,0.904s0.537,0.451,0.729,0.328
					c0.191-0.125,0.297-0.603,0.242-0.786C88.47,93.59,88.229,93.365,88.085,93.326z"/>
			</g>
			<g>
				<path fill="#F9E7DC" d="M88.396,102.93c-0.043-0.012-0.98,1.086-0.869,1.48c0.111,0.394,0.879,0.74,1.193,0.535
					c0.313-0.203,0.485-0.984,0.396-1.285C89.026,103.359,88.634,102.994,88.396,102.93z"/>
			</g>
		</g>
	</g>
	<g>
		<g>
			<g>
				<g>
					<g>
						<path fill="#EFC29C" d="M127.634,119.773l-0.456-10.034l-4.935-13.566c-0.041-0.114-0.168-0.175-0.283-0.134l0,0
							c-0.745,0.263-1.176,1.041-1.001,1.813l2.31,10.209l-2.833-7.106l-4.665-6.636c-0.34-0.483-1.033-0.543-1.451-0.125
							l-0.016,0.017c-0.314,0.315-0.379,0.796-0.158,1.179c1.045,1.811,3.93,6.803,3.93,6.803l1.492,6.838l-3.173-7.055
							l-4.988-8.523c-0.265-0.453-0.87-0.565-1.28-0.24l-0.017,0.014c-0.323,0.257-0.429,0.695-0.256,1.064
							c0.995,2.137,4.178,8.99,4.178,8.99l2.118,7.883l-4.715-9.192l-4.738-6.291c-0.07-0.11-0.221-0.138-0.326-0.06l0,0
							c-0.582,0.434-0.781,1.215-0.479,1.875l3.516,7.656l1.262,5.887l-3.082-4.622l-1.094-1.237
							c-0.489-0.553-1.402-0.182-1.368,0.556l0.048,1.04c0.074,1.603,0.528,3.164,1.326,4.556l5.651,8.297l6.645,6.616l8.94,12.229
							l9.348-5.789L127.634,119.773z"/>
					</g>
					<g>
						<g>
							<path fill="#DDA780" d="M110.548,93.191l-0.018,0.013c-0.323,0.257-0.428,0.694-0.256,1.065
								c0.995,2.137,4.178,8.99,4.178,8.99l2.118,7.883l-0.896-1.746l-1.644-6.117c0,0-3.183-6.854-4.178-8.99
								c-0.173-0.369-0.067-0.808,0.256-1.064l0.017-0.014c0.21-0.166,0.471-0.217,0.711-0.167
								C110.735,93.074,110.636,93.121,110.548,93.191z"/>
						</g>
						<g>
							<path fill="#DDA780" d="M106.313,97.475l3.517,7.656l1.262,5.885l-0.628-0.939l-1.056-4.926l-3.516-7.656
								c-0.303-0.66-0.104-1.441,0.479-1.875c0.105-0.078,0.256-0.051,0.326,0.06l0.002,0.003
								C106.192,96.127,106.027,96.853,106.313,97.475z"/>
						</g>
						<g>
							<path fill="#DDA780" d="M114.741,94.174l-0.016,0.016c-0.315,0.316-0.379,0.797-0.158,1.179
								c1.044,1.811,3.929,6.804,3.929,6.804l1.493,6.838l-0.827-1.839l-1.087-4.979c0,0-2.885-4.992-3.93-6.803
								c-0.221-0.383-0.156-0.863,0.158-1.179l0.016-0.017c0.231-0.23,0.546-0.311,0.838-0.26
								C115.007,93.977,114.862,94.053,114.741,94.174z"/>
						</g>
						<g>
							<path fill="#DDA780" d="M121.38,97.831l2.309,10.209l-0.983-2.47l-1.746-7.719c-0.175-0.771,0.256-1.55,1.001-1.813
								c0.088-0.031,0.182-0.003,0.24,0.063C121.57,96.42,121.221,97.127,121.38,97.831z"/>
						</g>
					</g>
				</g>
				<g>
					<path fill="#F4D5BC" d="M125.808,117.938c0,0,1.207-5.712-0.346-7.221c-1.551-1.508-2.456-1.658-1.744,0.084
						c0.713,1.742,1.523,1.447,1.255,3.207C124.704,115.769,125.132,118.031,125.808,117.938z"/>
				</g>
			</g>
			<g>
				<path fill="#DDA780" d="M106.089,104.934c-0.311,0.102-0.561,0.388-0.543,0.779l0.049,1.041
					c0.073,1.602,0.527,3.163,1.324,4.555l5.652,8.297l5.572,5.549c0.205-0.191,0.42-0.379,0.654-0.561
					c1.377-1.07,8.828-4.987,8.828-4.987c-0.718,0.26-1.475,0.69-2.215,1.267c-1.122,0.871-4.438,3.447-5.816,4.52
					c-0.232,0.18-0.445,0.367-0.65,0.559l0.271,0.27l8.82,12.064l-0.301,0.186l-8.94-12.229l-0.567-0.564l-0.311-0.311l0,0
					l-5.767-5.741l-5.651-8.297c-0.798-1.392-1.252-2.954-1.326-4.556l-0.048-1.041
					C105.099,105.172,105.622,104.824,106.089,104.934z"/>
			</g>
		</g>
		<g>
			<g>
				<path fill="#F9E7DC" d="M122.187,96.435c0.027-0.001,0.428,0.785,0.305,1.003c-0.121,0.219-0.627,0.314-0.784,0.148
					s-0.148-0.654-0.053-0.82S122.036,96.438,122.187,96.435z"/>
			</g>
			<g>
				<path fill="#F9E7DC" d="M115.378,94.078c0.027-0.008,0.6,0.664,0.531,0.904c-0.067,0.24-0.537,0.451-0.729,0.327
					s-0.297-0.602-0.242-0.785S115.233,94.117,115.378,94.078z"/>
			</g>
			<g>
				<path fill="#F9E7DC" d="M110.926,93.285c0.026-0.008,0.599,0.663,0.531,0.904c-0.068,0.24-0.538,0.451-0.729,0.327
					c-0.191-0.125-0.297-0.603-0.242-0.785C110.54,93.547,110.78,93.324,110.926,93.285z"/>
			</g>
			<g>
				<path fill="#F9E7DC" d="M106.77,96.026c0.027-0.007,0.599,0.664,0.531,0.904s-0.538,0.452-0.729,0.327
					c-0.191-0.124-0.297-0.602-0.241-0.785C106.384,96.289,106.624,96.064,106.77,96.026z"/>
			</g>
			<g>
				<path fill="#F9E7DC" d="M106.46,105.629c0.043-0.011,0.979,1.088,0.869,1.48c-0.111,0.395-0.881,0.74-1.193,0.537
					c-0.313-0.205-0.486-0.985-0.396-1.285C105.828,106.061,106.222,105.693,106.46,105.629z"/>
			</g>
		</g>
	</g>
	<g>
		<g>
			<path fill="#0C4E70" d="M75.26,122.691c-1.378-1.07-4.694-3.646-5.816-4.52c-2.097-1.629-4.325-2.126-5.446-0.752
				c-1.121,1.373-0.722,2.811-0.722,2.811l-26.62,34.168l11.601,9.016l26.533-34.236c0,0,1.49,0.031,2.545-1.395
				C78.389,126.357,77.356,124.32,75.26,122.691z"/>
		</g>
		<g>
			<path fill="#0C4E70" d="M75.26,122.691c-1.378-1.07-4.694-3.646-5.816-4.52c-2.097-1.629-4.325-2.126-5.446-0.752
				c-1.121,1.373-0.722,2.811-0.722,2.811l-26.62,34.168l11.601,9.016l26.533-34.236c0,0,1.49,0.031,2.545-1.395
				C78.389,126.357,77.356,124.32,75.26,122.691z"/>
		</g>
		<g>
			<path fill="#0C4E70" d="M75.26,122.691c-1.378-1.07-4.694-3.646-5.816-4.52c-2.097-1.629-4.325-2.126-5.446-0.752
				c-1.121,1.373-0.722,2.811-0.722,2.811l-26.62,34.168l11.601,9.016l26.533-34.236c0,0,1.49,0.031,2.545-1.395
				C78.389,126.357,77.356,124.32,75.26,122.691z"/>
		</g>
		<g>
			<path fill="#003552" d="M77.334,127.783c1.054-1.426,0.021-3.463-2.075-5.092c-0.45-0.35-1.109-0.861-1.829-1.42
				c1.685,1.529,2.429,3.305,1.48,4.588c-1.054,1.426-2.544,1.395-2.544,1.395L45.833,161.49l-9.159-7.115l-0.019,0.023
				l11.601,9.016l26.533-34.236C74.79,129.178,76.28,129.209,77.334,127.783z"/>
		</g>
	</g>
	<g>
		<g>
			<path fill="#0C4E70" d="M125.093,120.865c-1.347,1.111-4.586,3.781-5.683,4.686c-2.048,1.689-3.022,3.756-1.927,5.15
				s2.584,1.32,2.584,1.32l27.512,33.453l11.336-9.346l-27.598-33.385c0,0,0.357-1.447-0.803-2.787
				C129.354,118.615,127.142,119.178,125.093,120.865z"/>
		</g>
		<g>
			<path fill="#003552" d="M130.515,119.957c-1.16-1.342-3.373-0.779-5.422,0.908c-0.439,0.363-1.083,0.895-1.786,1.475
				c1.862-1.311,3.758-1.646,4.802-0.441c1.16,1.342,0.803,2.789,0.803,2.789l27.597,33.385l-8.948,7.379l0.02,0.023l11.336-9.346
				l-27.598-33.385C131.317,122.744,131.675,121.297,130.515,119.957z"/>
		</g>
	</g>
	<g>
		<path fill="#D34D45" d="M66.343,52.102l-0.052-0.238l0.238-0.295c0.577-0.695,0.827-1.064,0.736-1.496
			c-0.064-0.29-0.264-0.559-0.691-0.559c-0.259,0-0.446,0.132-0.554,0.242l-0.183-0.273c0.161-0.167,0.416-0.29,0.746-0.29
			c0.616,0,0.969,0.423,1.059,0.831c0.116,0.528-0.173,0.955-0.648,1.536l-0.182,0.211l0.002,0.009h1.285l0.071,0.322H66.343z"/>
		<path fill="#D34D45" d="M70.179,50.64c0.214,0.973-0.028,1.509-0.662,1.509c-0.559,0-1.052-0.523-1.27-1.469
			c-0.211-0.959,0.086-1.487,0.667-1.487C69.517,49.192,69.979,49.729,70.179,50.64z M68.635,50.684
			c0.164,0.744,0.485,1.166,0.837,1.166c0.396,0,0.484-0.462,0.323-1.192c-0.155-0.704-0.437-1.166-0.837-1.166
			C68.62,49.491,68.464,49.905,68.635,50.684z"/>
		<path fill="#D34D45" d="M70.847,52.643c0.04-0.26,0.055-0.731,0.033-1.053l0.421-0.043c-0.019,0.373-0.105,0.861-0.183,1.068
			L70.847,52.643z"/>
		<path fill="#D34D45" d="M73.346,50.64c0.214,0.973-0.028,1.509-0.662,1.509c-0.559,0-1.052-0.523-1.27-1.469
			c-0.211-0.959,0.086-1.487,0.667-1.487C72.684,49.192,73.146,49.729,73.346,50.64z M71.802,50.684
			c0.164,0.744,0.485,1.166,0.837,1.166c0.396,0,0.484-0.462,0.323-1.192c-0.155-0.704-0.437-1.166-0.837-1.166
			C71.787,49.491,71.631,49.905,71.802,50.684z"/>
		<path fill="#D34D45" d="M75.602,50.64c0.214,0.973-0.029,1.509-0.663,1.509c-0.559,0-1.052-0.523-1.269-1.469
			c-0.211-0.959,0.086-1.487,0.667-1.487C74.94,49.192,75.401,49.729,75.602,50.64z M74.059,50.684
			c0.164,0.744,0.485,1.166,0.837,1.166c0.396,0,0.484-0.462,0.323-1.192c-0.155-0.704-0.437-1.166-0.837-1.166
			C74.043,49.491,73.887,49.905,74.059,50.684z"/>
		<path fill="#D34D45" d="M77.859,50.64c0.213,0.973-0.029,1.509-0.663,1.509c-0.559,0-1.052-0.523-1.269-1.469
			c-0.211-0.959,0.086-1.487,0.667-1.487C77.197,49.192,77.658,49.729,77.859,50.64z M76.315,50.684
			c0.164,0.744,0.486,1.166,0.837,1.166c0.396,0,0.484-0.462,0.323-1.192c-0.155-0.704-0.437-1.166-0.837-1.166
			C76.299,49.491,76.144,49.905,76.315,50.684z"/>
		<path fill="#D34D45" d="M78.372,52.276l0.526-3.19h0.298l-0.529,3.19H78.372z"/>
		<path fill="#D34D45" d="M80.772,50.768l0.063,0.286h-1.088l-0.063-0.286H80.772z"/>
	</g>
</g>
</svg>
