<?xml version="1.0" encoding="utf-8"?>
<!-- Generator: Adobe Illustrator 16.0.0, SVG Export Plug-In . SVG Version: 6.00 Build 0)  -->
<!DOCTYPE svg PUBLIC "-//W3C//DTD SVG 1.1//EN" "http://www.w3.org/Graphics/SVG/1.1/DTD/svg11.dtd">
<svg version="1.1" id="Layer_1" xmlns="http://www.w3.org/2000/svg" xmlns:xlink="http://www.w3.org/1999/xlink" x="0px" y="0px"
	 width="200px" height="200px" viewBox="0 0 200 200" enable-background="new 0 0 200 200" xml:space="preserve">
<g>
	<path fill="#585452" d="M177.271,121.393c0,0-5.604-0.393-13.438-0.393H36.168C28.334,121,22,121.283,22,121.283V28.712
		C22,20.878,28.334,13,36.168,13h127.665c7.834,0,14.185,7.043,14.185,14.877L177.271,121.393z"/>
	<rect x="29" y="26" fill="#ABC9C6" width="142" height="98"/>
	<path fill="#E7EEEC" d="M195.395,166.439L177.889,121H22.113L4.607,166.439c0,0-5.466,8.38-0.049,15.099
		C9.801,188.038,11.84,186,30.62,186c18.78,0,69.38,0,69.38,0s50.601,0,69.381,0c18.779,0,20.819,2.038,26.06-4.462
		C200.859,174.819,195.395,166.439,195.395,166.439z"/>
	<path opacity="0.2" fill="#7E8690" d="M3.228,179.49c0.312,0.758,0.741,1.51,1.33,2.24c5.243,6.5,7.283,4.508,26.063,4.508
		c18.78,0,69.38,0,69.38,0s50.601,0,69.381,0c18.779,0,20.819,1.992,26.06-4.508c0.59-0.73,1.02-1.482,1.332-2.24H3.228z"/>
	<circle fill="#161415" cx="100.001" cy="20.5" r="2.24"/>
	<g>
		<rect x="29" y="26" fill="#AD4A4C" width="142" height="6"/>
		<rect x="29" y="107" fill="#E7EEEC" width="142" height="5"/>
		<rect x="29" y="38" fill="#E7EEEC" width="8" height="52"/>
	</g>
	<g>
		
			<image overflow="visible" opacity="0.25" width="647" height="211" xlink:href="A229279A.png"  transform="matrix(0.24 0 0 0.24 23.4951 124.0078)">
		</image>
		<g>
			<g>
				<g>
					<path fill-rule="evenodd" clip-rule="evenodd" fill="#FFFFFF" d="M164.928,127.352c1.984,0.004,2.977,0.006,4.962,0.01
						c0.56,0.002,1.059,0.213,1.105,0.468c0.114,0.671,0.173,1.013,0.286,1.702c0.043,0.263-0.386,0.48-0.961,0.479
						c-2.012-0.005-3.017-0.009-5.025-0.014c-0.572,0-1.067-0.218-1.101-0.479c-0.09-0.69-0.136-1.032-0.226-1.705
						C163.932,127.555,164.368,127.349,164.928,127.352z"/>
					<path fill-rule="evenodd" clip-rule="evenodd" fill="#FFFFFF" d="M165.605,130.613c1.831,0.004,2.748,0.004,4.582,0.008
						c0.7,0.003,1.319,0.271,1.369,0.602c0.154,0.956,0.231,1.441,0.387,2.425c0.055,0.338-0.483,0.616-1.194,0.614
						c-1.868-0.004-2.8-0.005-4.663-0.009c-0.707,0-1.322-0.284-1.369-0.622c-0.123-0.982-0.184-1.469-0.305-2.426
						C164.37,130.877,164.908,130.613,165.605,130.613z"/>
					<path fill-rule="evenodd" clip-rule="evenodd" fill="#FFFFFF" d="M166.173,134.896c1.863,0.004,2.798,0.006,4.668,0.009
						c0.719,0.003,1.347,0.282,1.401,0.63c0.155,0.999,0.231,1.506,0.387,2.525c0.052,0.354-0.501,0.641-1.225,0.637
						c-1.904-0.004-2.854-0.006-4.751-0.01c-0.723,0-1.349-0.293-1.388-0.645c-0.124-1.02-0.188-1.525-0.312-2.524
						C164.909,135.173,165.457,134.895,166.173,134.896z"/>
					<path fill-rule="evenodd" clip-rule="evenodd" fill="#FFFFFF" d="M166.737,139.352c1.9,0.006,2.854,0.008,4.764,0.014
						c0.729,0,1.367,0.291,1.425,0.648c0.156,1.033,0.234,1.555,0.392,2.598c0.052,0.361-0.516,0.654-1.257,0.652
						c-1.938-0.006-2.905-0.01-4.832-0.014c-0.737-0.004-1.379-0.301-1.422-0.662c-0.123-1.041-0.186-1.563-0.309-2.592
						C165.454,139.639,166.01,139.35,166.737,139.352z"/>
					<path fill-rule="evenodd" clip-rule="evenodd" fill="#FFFFFF" d="M167.313,143.928c1.934,0.006,2.903,0.008,4.849,0.014
						c0.743,0.004,1.396,0.301,1.446,0.664c0.156,1.051,0.234,1.578,0.392,2.635c0.057,0.365-0.52,0.66-1.271,0.658
						c-1.977-0.006-2.963-0.012-4.925-0.018c-0.754-0.004-1.401-0.303-1.443-0.668c-0.125-1.055-0.187-1.582-0.311-2.633
						C166.004,144.219,166.574,143.928,167.313,143.928z"/>
					<path fill-rule="evenodd" clip-rule="evenodd" fill="#FFFFFF" d="M167.885,148.564c1.968,0.008,2.953,0.012,4.936,0.02
						c0.756,0.002,1.426,0.303,1.484,0.67c0.155,1.057,0.232,1.584,0.389,2.639c0.049,0.363-0.531,0.66-1.303,0.658
						c-2.013-0.01-3.016-0.016-5.012-0.025c-0.764,0-1.423-0.303-1.465-0.664c-0.128-1.053-0.192-1.582-0.318-2.639
						C166.554,148.857,167.136,148.563,167.885,148.564z"/>
					<path fill-rule="evenodd" clip-rule="evenodd" fill="#FFFFFF" d="M156.17,127.327c1.984,0.005,2.977,0.009,4.961,0.014
						c0.559,0.001,1.049,0.211,1.076,0.467c0.086,0.673,0.129,1.013,0.215,1.702c0.031,0.264-0.407,0.483-0.976,0.48
						c-2.009-0.004-3.014-0.006-5.02-0.011c-0.567,0-1.058-0.22-1.078-0.482c-0.065-0.69-0.098-1.033-0.162-1.706
						C155.162,127.535,155.604,127.326,156.17,127.327z"/>
					<path fill-rule="evenodd" clip-rule="evenodd" fill="#FFFFFF" d="M148.617,130.576c5.024,0.012,7.541,0.017,12.582,0.027
						c0.75,0.002,1.392,0.288,1.435,0.642c0.11,0.923,0.165,1.392,0.276,2.339c0.044,0.362-0.541,0.662-1.298,0.66
						c-5.118-0.012-7.667-0.018-12.752-0.029c-0.751-0.001-1.389-0.303-1.407-0.664c-0.059-0.947-0.089-1.414-0.147-2.338
						C147.285,130.861,147.875,130.576,148.617,130.576z"/>
					<path fill-rule="evenodd" clip-rule="evenodd" fill="#FFFFFF" d="M154.763,134.873c2.762,0.006,4.143,0.008,6.915,0.014
						c0.764,0.001,1.42,0.303,1.466,0.671c0.112,0.966,0.169,1.452,0.281,2.437c0.041,0.373-0.554,0.684-1.326,0.68
						c-2.814-0.006-4.218-0.008-7.016-0.016c-0.767-0.004-1.421-0.311-1.448-0.688c-0.078-0.982-0.118-1.469-0.195-2.435
						C153.409,135.168,154.004,134.871,154.763,134.873z"/>
					<path fill-rule="evenodd" clip-rule="evenodd" fill="#FFFFFF" d="M148.176,139.305c5.568,0.016,8.362,0.023,13.993,0.039
						c0.772,0,1.442,0.313,1.486,0.691c0.112,0.996,0.168,1.496,0.28,2.502c0.046,0.385-0.563,0.699-1.347,0.697
						c-5.712-0.016-8.542-0.025-14.175-0.041c-0.771-0.004-1.418-0.322-1.441-0.707c-0.061-1.004-0.09-1.504-0.15-2.498
						C146.799,139.609,147.409,139.303,148.176,139.305z"/>
					<path fill-rule="evenodd" clip-rule="evenodd" fill="#FFFFFF" d="M157.96,143.896c1.914,0.006,2.876,0.01,4.8,0.018
						c0.728,0,1.367,0.301,1.408,0.662c0.116,1.049,0.175,1.576,0.292,2.631c0.04,0.363-0.535,0.658-1.281,0.656
						c-1.949-0.008-2.921-0.012-4.856-0.02c-0.744-0.002-1.372-0.303-1.403-0.666c-0.091-1.053-0.136-1.578-0.227-2.627
						C156.656,144.189,157.228,143.895,157.96,143.896z"/>
					<path fill-rule="evenodd" clip-rule="evenodd" fill="#FFFFFF" d="M158.384,148.529c1.939,0.008,2.912,0.012,4.864,0.018
						c0.753,0.004,1.396,0.305,1.438,0.668c0.12,1.055,0.181,1.586,0.302,2.639c0.04,0.365-0.548,0.656-1.308,0.654
						c-1.979-0.008-2.964-0.012-4.929-0.021c-0.75-0.002-1.392-0.303-1.425-0.666c-0.094-1.053-0.138-1.58-0.23-2.635
						C157.063,148.82,157.643,148.527,158.384,148.529z"/>
					<path fill-rule="evenodd" clip-rule="evenodd" fill="#FFFFFF" d="M148.078,127.307c1.717,0.004,2.574,0.008,4.291,0.012
						c0.562,0.001,1.043,0.211,1.066,0.468c0.061,0.674,0.089,1.017,0.148,1.706c0.019,0.266-0.423,0.479-0.994,0.479
						c-1.732-0.004-2.6-0.007-4.33-0.011c-0.566,0-1.05-0.221-1.061-0.484c-0.046-0.691-0.068-1.031-0.112-1.705
						C147.067,127.514,147.518,127.306,148.078,127.307z"/>
					<path fill-rule="evenodd" clip-rule="evenodd" fill="#FFFFFF" d="M139.861,127.288c1.713,0.003,2.572,0.005,4.285,0.009
						c0.568,0.002,1.042,0.213,1.055,0.472c0.037,0.673,0.055,1.013,0.094,1.704c0.016,0.265-0.436,0.482-1.004,0.48
						c-1.73-0.004-2.594-0.006-4.322-0.01c-0.566,0-1.037-0.221-1.047-0.484c-0.027-0.691-0.042-1.033-0.068-1.708
						C138.846,127.494,139.297,127.285,139.861,127.288z"/>
					<path fill-rule="evenodd" clip-rule="evenodd" fill="#FFFFFF" d="M131.65,127.266c1.713,0.004,2.567,0.008,4.28,0.012
						c0.563,0.002,1.029,0.211,1.041,0.469c0.021,0.675,0.031,1.016,0.053,1.707c0.008,0.264-0.447,0.482-1.017,0.482
						c-1.728-0.004-2.591-0.008-4.316-0.012c-0.57,0-1.033-0.219-1.037-0.483c-0.01-0.691-0.016-1.034-0.025-1.71
						C130.624,127.474,131.082,127.264,131.65,127.266z"/>
					<path fill-rule="evenodd" clip-rule="evenodd" fill="#FFFFFF" d="M123.432,127.244c1.714,0.005,2.569,0.006,4.283,0.011
						c0.563,0.001,1.026,0.212,1.032,0.471c0.004,0.677,0.007,1.019,0.012,1.711c0.006,0.265-0.458,0.482-1.024,0.479
						c-1.726-0.004-2.588-0.006-4.313-0.01c-0.567-0.002-1.026-0.221-1.026-0.484c0.003-0.693,0.005-1.035,0.01-1.711
						C122.405,127.451,122.869,127.244,123.432,127.244z"/>
					<path fill-rule="evenodd" clip-rule="evenodd" fill="#FFFFFF" d="M115.221,127.223c1.713,0.005,2.57,0.006,4.283,0.011
						c0.563,0,1.017,0.215,1.017,0.474c-0.007,0.676-0.01,1.018-0.017,1.709c-0.003,0.267-0.47,0.484-1.037,0.482
						c-1.725-0.004-2.585-0.004-4.309-0.008c-0.563-0.004-1.022-0.225-1.017-0.488c0.016-0.693,0.024-1.035,0.042-1.715
						C114.191,127.432,114.655,127.223,115.221,127.223z"/>
					<path fill-rule="evenodd" clip-rule="evenodd" fill="#FFFFFF" d="M107.008,127.202c1.713,0.005,2.568,0.007,4.281,0.011
						c0.563,0.002,1.016,0.214,1.011,0.471c-0.02,0.678-0.028,1.022-0.047,1.717c-0.009,0.265-0.479,0.479-1.044,0.479
						c-1.723-0.004-2.582-0.006-4.304-0.01c-0.565-0.001-1.024-0.219-1.013-0.485c0.026-0.692,0.041-1.036,0.069-1.714
						C105.972,127.41,106.444,127.201,107.008,127.202z"/>
					<path fill-rule="evenodd" clip-rule="evenodd" fill="#FFFFFF" d="M98.792,127.181c1.715,0.004,2.573,0.007,4.288,0.011
						c0.56,0.003,1.014,0.214,0.999,0.473c-0.031,0.679-0.047,1.021-0.076,1.716c-0.011,0.265-0.484,0.481-1.052,0.481
						c-1.722-0.003-2.582-0.004-4.304-0.008c-0.565-0.003-1.017-0.224-1.003-0.488c0.038-0.694,0.057-1.036,0.096-1.717
						C97.758,127.389,98.229,127.178,98.792,127.181z"/>
					<path fill-rule="evenodd" clip-rule="evenodd" fill="#FFFFFF" d="M90.584,127.162c1.712,0.004,2.568,0.005,4.281,0.008
						c0.565,0.004,1.014,0.214,0.995,0.474c-0.044,0.681-0.065,1.023-0.108,1.718c-0.013,0.265-0.491,0.482-1.054,0.479
						c-1.724-0.003-2.585-0.003-4.31-0.007c-0.567-0.001-1.011-0.221-0.991-0.487c0.05-0.693,0.078-1.038,0.131-1.719
						C89.545,127.367,90.018,127.158,90.584,127.162z"/>
					<path fill-rule="evenodd" clip-rule="evenodd" fill="#FFFFFF" d="M82.373,127.139c1.714,0.004,2.572,0.007,4.285,0.01
						c0.563,0.002,1,0.215,0.983,0.477c-0.055,0.679-0.081,1.021-0.135,1.715c-0.021,0.268-0.497,0.486-1.064,0.484
						c-1.723-0.004-2.583-0.006-4.307-0.01c-0.571-0.002-1.008-0.22-0.987-0.486c0.061-0.695,0.092-1.039,0.156-1.72
						C81.332,127.349,81.813,127.138,82.373,127.139z"/>
					<path fill-rule="evenodd" clip-rule="evenodd" fill="#FFFFFF" d="M74.165,127.117c1.712,0.004,2.567,0.007,4.279,0.01
						c0.567,0.004,1.004,0.215,0.975,0.474c-0.067,0.682-0.099,1.027-0.164,1.723c-0.026,0.265-0.509,0.483-1.073,0.483
						c-1.726-0.004-2.587-0.006-4.313-0.01c-0.565-0.003-0.999-0.223-0.975-0.488c0.076-0.695,0.114-1.04,0.192-1.722
						C73.117,127.327,73.601,127.116,74.165,127.117z"/>
					<path fill-rule="evenodd" clip-rule="evenodd" fill="#FFFFFF" d="M65.955,127.096c1.712,0.004,2.568,0.006,4.281,0.01
						c0.566,0.004,1,0.217,0.969,0.478c-0.082,0.682-0.122,1.027-0.201,1.723c-0.032,0.265-0.519,0.484-1.084,0.48
						c-1.727-0.004-2.591-0.005-4.318-0.009c-0.563-0.001-1-0.219-0.966-0.484c0.092-0.697,0.138-1.043,0.232-1.728
						C64.899,127.307,65.391,127.094,65.955,127.096z"/>
					<path fill-rule="evenodd" clip-rule="evenodd" fill="#FFFFFF" d="M57.745,127.072c1.713,0.005,2.57,0.009,4.283,0.013
						c0.563,0.003,0.996,0.214,0.955,0.476c-0.096,0.683-0.142,1.028-0.235,1.725c-0.039,0.267-0.532,0.483-1.096,0.482
						c-1.728-0.004-2.594-0.004-4.324-0.008c-0.566-0.002-0.996-0.223-0.953-0.49c0.108-0.695,0.162-1.041,0.272-1.726
						C56.687,127.283,57.185,127.07,57.745,127.072z"/>
					<path fill-rule="evenodd" clip-rule="evenodd" fill="#FFFFFF" d="M49.543,127.053c1.711,0.006,2.566,0.006,4.277,0.011
						c0.565,0.001,0.991,0.217,0.943,0.477c-0.114,0.686-0.172,1.03-0.283,1.728c-0.042,0.266-0.542,0.483-1.114,0.482
						c-1.729-0.004-2.593-0.007-4.323-0.01c-0.566-0.002-0.99-0.222-0.944-0.488c0.129-0.697,0.195-1.045,0.327-1.729
						C48.478,127.263,48.979,127.053,49.543,127.053z"/>
					<path fill-rule="evenodd" clip-rule="evenodd" fill="#FFFFFF" d="M41.336,127.029c1.712,0.005,2.569,0.008,4.281,0.012
						c0.563,0.002,0.975,0.217,0.923,0.479c-0.136,0.685-0.204,1.03-0.338,1.727c-0.051,0.27-0.555,0.486-1.125,0.484
						c-1.731-0.004-2.598-0.004-4.33-0.008c-0.566-0.004-0.985-0.225-0.926-0.49c0.152-0.697,0.228-1.043,0.383-1.729
						C40.262,127.238,40.771,127.029,41.336,127.029z"/>
					<path fill-rule="evenodd" clip-rule="evenodd" fill="#FFFFFF" d="M32.123,127.008c1.977,0.004,2.966,0.008,4.944,0.012
						c0.563,0.002,0.973,0.217,0.91,0.477c-0.162,0.687-0.243,1.033-0.402,1.732c-0.063,0.266-0.575,0.484-1.145,0.48
						c-2.003-0.004-3.007-0.006-5.014-0.01c-0.57,0-0.98-0.22-0.91-0.488c0.184-0.697,0.277-1.043,0.465-1.73
						C31.042,127.219,31.555,127.004,32.123,127.008z"/>
					<path fill-rule="evenodd" clip-rule="evenodd" fill="#FFFFFF" d="M139.657,130.555c1.784,0.005,2.677,0.008,4.462,0.012
						c0.682,0.001,1.255,0.266,1.273,0.59c0.055,0.966,0.084,1.457,0.139,2.447c0.02,0.33-0.529,0.604-1.223,0.602
						c-1.805-0.004-2.705-0.006-4.506-0.01c-0.689-0.002-1.264-0.275-1.277-0.605c-0.035-0.992-0.055-1.484-0.089-2.451
						C138.424,130.817,138.975,130.555,139.657,130.555z"/>
					<path fill-rule="evenodd" clip-rule="evenodd" fill="#FFFFFF" d="M130.663,130.535c1.782,0.004,2.673,0.008,4.456,0.012
						c0.68,0.002,1.246,0.267,1.256,0.592c0.027,0.965,0.042,1.453,0.071,2.443c0.013,0.333-0.54,0.606-1.228,0.604
						c-1.801-0.003-2.702-0.007-4.5-0.011c-0.685-0.001-1.25-0.276-1.254-0.608c-0.013-0.99-0.02-1.479-0.03-2.443
						C129.421,130.799,129.981,130.535,130.663,130.535z"/>
					<path fill-rule="evenodd" clip-rule="evenodd" fill="#FFFFFF" d="M121.677,130.517c1.78,0.004,2.671,0.007,4.451,0.009
						c0.679,0.004,1.242,0.267,1.244,0.591c0.008,0.966,0.012,1.456,0.021,2.446c0,0.334-0.559,0.602-1.242,0.605
						c-1.796-0.004-2.693-0.006-4.487-0.011c-0.688-0.003-1.243-0.278-1.242-0.608c0.006-0.99,0.01-1.481,0.018-2.446
						C120.442,130.777,120.996,130.516,121.677,130.517z"/>
					<path fill-rule="evenodd" clip-rule="evenodd" fill="#FFFFFF" d="M112.701,130.498c1.779,0.004,2.67,0.006,4.449,0.01
						c0.679,0.002,1.23,0.266,1.229,0.59c-0.014,0.967-0.019,1.457-0.03,2.447c-0.002,0.331-0.561,0.602-1.247,0.604
						c-1.794-0.006-2.689-0.008-4.481-0.012c-0.678-0.001-1.232-0.275-1.229-0.607c0.022-0.99,0.035-1.479,0.061-2.445
						C111.463,130.76,112.026,130.496,112.701,130.498z"/>
					<path fill-rule="evenodd" clip-rule="evenodd" fill="#FFFFFF" d="M103.733,130.481c1.777,0.004,2.667,0.005,4.444,0.009
						c0.683,0,1.229,0.266,1.22,0.587c-0.03,0.966-0.045,1.458-0.072,2.446c-0.009,0.334-0.577,0.604-1.26,0.604
						c-1.791-0.005-2.686-0.006-4.476-0.01c-0.682-0.001-1.229-0.276-1.216-0.606c0.038-0.991,0.057-1.48,0.098-2.447
						C102.488,130.74,103.057,130.477,103.733,130.481z"/>
					<path fill-rule="evenodd" clip-rule="evenodd" fill="#FFFFFF" d="M94.77,130.457c1.776,0.006,2.664,0.008,4.441,0.014
						c0.676,0.001,1.219,0.265,1.208,0.589c-0.047,0.966-0.07,1.456-0.114,2.445c-0.016,0.331-0.583,0.604-1.268,0.603
						c-1.791-0.004-2.685-0.006-4.476-0.01c-0.685-0.002-1.228-0.276-1.212-0.609c0.058-0.989,0.087-1.479,0.147-2.445
						C93.516,130.721,94.087,130.456,94.77,130.457z"/>
					<path fill-rule="evenodd" clip-rule="evenodd" fill="#FFFFFF" d="M85.799,130.439c1.777,0.004,2.666,0.006,4.442,0.008
						c0.681,0.003,1.219,0.27,1.196,0.594c-0.061,0.967-0.09,1.455-0.148,2.445c-0.023,0.33-0.598,0.6-1.285,0.6
						c-1.789-0.004-2.683-0.004-4.472-0.007c-0.685-0.001-1.225-0.276-1.2-0.608c0.071-0.989,0.108-1.479,0.183-2.447
						C84.539,130.699,85.118,130.438,85.799,130.439z"/>
					<path fill-rule="evenodd" clip-rule="evenodd" fill="#FFFFFF" d="M76.824,130.418c1.781,0.004,2.67,0.007,4.45,0.011
						c0.675,0.003,1.21,0.267,1.185,0.591c-0.081,0.967-0.12,1.457-0.197,2.446c-0.024,0.331-0.605,0.604-1.288,0.602
						c-1.794-0.003-2.691-0.003-4.487-0.007c-0.683-0.002-1.22-0.277-1.189-0.609c0.091-0.988,0.137-1.479,0.231-2.447
						C75.562,130.678,76.145,130.417,76.824,130.418z"/>
					<path fill-rule="evenodd" clip-rule="evenodd" fill="#FFFFFF" d="M67.845,130.398c1.78,0.005,2.671,0.008,4.45,0.012
						c0.681,0,1.208,0.266,1.175,0.589c-0.098,0.968-0.146,1.458-0.242,2.448c-0.035,0.332-0.621,0.603-1.306,0.602
						c-1.794-0.004-2.692-0.004-4.489-0.008c-0.686-0.004-1.22-0.277-1.182-0.609c0.111-0.988,0.169-1.479,0.285-2.447
						C66.574,130.662,67.162,130.396,67.845,130.398z"/>
					<path fill-rule="evenodd" clip-rule="evenodd" fill="#FFFFFF" d="M58.851,130.379c1.785,0.004,2.677,0.007,4.46,0.011
						c0.684,0.001,1.202,0.267,1.164,0.592c-0.121,0.969-0.179,1.457-0.296,2.446c-0.043,0.332-0.635,0.604-1.322,0.601
						c-1.802-0.004-2.702-0.007-4.507-0.009c-0.684-0.002-1.212-0.276-1.17-0.607c0.137-0.987,0.205-1.477,0.345-2.445
						C57.573,130.641,58.169,130.378,58.851,130.379z"/>
					<path fill-rule="evenodd" clip-rule="evenodd" fill="#FFFFFF" d="M49.847,130.36c1.786,0.004,2.679,0.007,4.463,0.011
						c0.683,0,1.197,0.264,1.147,0.59c-0.146,0.968-0.218,1.457-0.36,2.447c-0.046,0.33-0.647,0.602-1.337,0.602
						c-1.806-0.004-2.709-0.006-4.519-0.01c-0.695-0.003-1.214-0.275-1.156-0.606c0.166-0.987,0.25-1.479,0.42-2.448
						C48.559,130.62,49.163,130.356,49.847,130.36z"/>
					<path fill-rule="evenodd" clip-rule="evenodd" fill="#FFFFFF" d="M40.825,130.34c1.791,0.004,2.686,0.006,4.474,0.01
						c0.682,0.002,1.192,0.268,1.13,0.594c-0.177,0.968-0.262,1.457-0.435,2.444c-0.059,0.333-0.669,0.603-1.363,0.602
						c-1.814-0.004-2.721-0.005-4.539-0.009c-0.693-0.001-1.205-0.275-1.14-0.607c0.201-0.987,0.302-1.477,0.508-2.446
						C39.528,130.602,40.141,130.34,40.825,130.34z"/>
					<path fill-rule="evenodd" clip-rule="evenodd" fill="#FFFFFF" d="M31.488,130.32c1.829,0.004,2.743,0.006,4.568,0.01
						c0.695,0.002,1.209,0.271,1.133,0.601c-0.212,0.962-0.317,1.448-0.524,2.428c-0.069,0.337-0.709,0.612-1.417,0.609
						c-1.855-0.004-2.782-0.004-4.642-0.007c-0.712-0.002-1.225-0.281-1.145-0.617c0.24-0.979,0.361-1.465,0.607-2.424
						C30.148,130.588,30.792,130.32,31.488,130.32z"/>
					<path fill-rule="evenodd" clip-rule="evenodd" fill="#FFFFFF" d="M30.545,134.6c3.837,0.01,5.75,0.012,9.567,0.02
						c0.761,0.001,1.326,0.303,1.256,0.668c-0.177,0.957-0.266,1.439-0.438,2.408c-0.067,0.371-0.748,0.674-1.517,0.674
						c-3.873-0.01-5.815-0.014-9.719-0.023c-0.779-0.002-1.343-0.311-1.259-0.682c0.223-0.969,0.335-1.447,0.562-2.404
						C29.086,134.895,29.779,134.6,30.545,134.6z"/>
					<path fill-rule="evenodd" clip-rule="evenodd" fill="#FFFFFF" d="M29.544,139c4.657,0.012,6.972,0.016,11.581,0.025
						c0.77,0.004,1.349,0.311,1.283,0.686c-0.162,0.98-0.242,1.475-0.401,2.463c-0.063,0.377-0.752,0.684-1.534,0.682
						c-4.672-0.014-7.021-0.02-11.755-0.033c-0.789-0.004-1.365-0.314-1.287-0.691c0.216-0.986,0.324-1.479,0.544-2.457
						C28.06,139.301,28.769,138.998,29.544,139z"/>
					<path fill-rule="evenodd" clip-rule="evenodd" fill="#FFFFFF" d="M28.583,143.486c6.804,0.021,10.168,0.031,16.846,0.053
						c0.778,0,1.372,0.314,1.313,0.691c-0.142,0.996-0.21,1.496-0.351,2.496c-0.055,0.381-0.74,0.691-1.527,0.691
						c-6.761-0.025-10.174-0.037-17.09-0.061c-0.805-0.004-1.399-0.32-1.321-0.701c0.213-0.996,0.319-1.492,0.535-2.482
						C27.069,143.793,27.786,143.482,28.583,143.486z"/>
					<path fill-rule="evenodd" clip-rule="evenodd" fill="#FFFFFF" d="M27.637,148.027c2.881,0.01,4.313,0.016,7.165,0.025
						c0.796,0.004,1.399,0.316,1.335,0.699c-0.171,1-0.257,1.502-0.425,2.502c-0.063,0.383-0.781,0.693-1.59,0.689
						c-2.891-0.014-4.345-0.02-7.271-0.031c-0.819-0.002-1.428-0.316-1.348-0.699c0.206-1,0.309-1.5,0.517-2.498
						C26.101,148.334,26.829,148.023,27.637,148.027z"/>
					<path fill-rule="evenodd" clip-rule="evenodd" fill="#FFFFFF" d="M43.992,134.628c1.946,0.005,2.917,0.007,4.859,0.011
						c0.744,0,1.303,0.297,1.25,0.655c-0.15,0.968-0.223,1.455-0.37,2.435c-0.054,0.365-0.71,0.664-1.466,0.662
						c-1.963-0.006-2.947-0.008-4.918-0.014c-0.752-0.002-1.32-0.303-1.258-0.666c0.172-0.979,0.259-1.467,0.435-2.432
						C42.585,134.92,43.247,134.627,43.992,134.628z"/>
					<path fill-rule="evenodd" clip-rule="evenodd" fill="#FFFFFF" d="M53.314,134.649c1.938,0.003,2.905,0.007,4.839,0.01
						c0.739,0.003,1.304,0.296,1.259,0.655c-0.121,0.968-0.182,1.455-0.3,2.436c-0.044,0.367-0.694,0.664-1.439,0.664
						c-1.953-0.006-2.931-0.008-4.89-0.014c-0.752-0.002-1.322-0.303-1.27-0.668c0.14-0.98,0.211-1.469,0.354-2.436
						C51.923,134.939,52.576,134.646,53.314,134.649z"/>
					<path fill-rule="evenodd" clip-rule="evenodd" fill="#FFFFFF" d="M62.6,134.668c1.931,0.004,2.895,0.006,4.822,0.01
						c0.736,0,1.307,0.299,1.268,0.658c-0.1,0.968-0.149,1.455-0.245,2.436c-0.033,0.367-0.665,0.666-1.412,0.664
						c-1.944-0.006-2.918-0.008-4.867-0.012c-0.747-0.002-1.325-0.305-1.279-0.67c0.114-0.98,0.172-1.469,0.29-2.438
						C61.222,134.959,61.863,134.667,62.6,134.668z"/>
					<path fill-rule="evenodd" clip-rule="evenodd" fill="#FFFFFF" d="M71.851,134.688c1.925,0.005,2.888,0.008,4.811,0.012
						c0.735,0.002,1.313,0.297,1.283,0.656c-0.079,0.969-0.116,1.458-0.192,2.441c-0.033,0.365-0.661,0.664-1.404,0.662
						c-1.937-0.004-2.904-0.008-4.844-0.012c-0.742-0.002-1.322-0.305-1.292-0.67c0.092-0.982,0.139-1.471,0.235-2.438
						C70.483,134.98,71.115,134.688,71.851,134.688z"/>
					<path fill-rule="evenodd" clip-rule="evenodd" fill="#FFFFFF" d="M81.082,134.71c1.923,0.003,2.883,0.007,4.805,0.01
						c0.732,0.003,1.313,0.297,1.292,0.656c-0.063,0.97-0.094,1.458-0.153,2.442c-0.023,0.367-0.646,0.664-1.38,0.664
						c-1.936-0.006-2.904-0.008-4.842-0.012c-0.737-0.002-1.322-0.303-1.292-0.67c0.073-0.984,0.11-1.473,0.186-2.442
						C79.731,134.999,80.346,134.707,81.082,134.71z"/>
					<path fill-rule="evenodd" clip-rule="evenodd" fill="#FFFFFF" d="M90.298,134.729c1.919,0.004,2.879,0.008,4.797,0.012
						c0.733,0,1.32,0.295,1.301,0.657c-0.044,0.97-0.066,1.458-0.107,2.444c-0.019,0.365-0.639,0.666-1.376,0.664
						c-1.931-0.004-2.896-0.008-4.828-0.012c-0.738-0.002-1.326-0.305-1.306-0.672c0.058-0.984,0.087-1.473,0.148-2.441
						C88.947,135.021,89.566,134.728,90.298,134.729z"/>
					<path fill-rule="evenodd" clip-rule="evenodd" fill="#FFFFFF" d="M99.511,134.748c1.917,0.005,2.877,0.008,4.795,0.012
						c0.733,0,1.32,0.299,1.308,0.656c-0.03,0.973-0.044,1.463-0.071,2.449c-0.011,0.365-0.624,0.666-1.358,0.664
						c-1.932-0.006-2.897-0.006-4.83-0.012c-0.737-0.004-1.327-0.305-1.316-0.672c0.042-0.986,0.063-1.477,0.106-2.445
						C98.164,135.039,98.777,134.749,99.511,134.748z"/>
					<path fill-rule="evenodd" clip-rule="evenodd" fill="#FFFFFF" d="M108.714,134.771c1.921,0.005,2.882,0.007,4.804,0.011
						c0.734,0.002,1.328,0.297,1.324,0.656c-0.016,0.973-0.022,1.461-0.036,2.449c-0.003,0.367-0.61,0.666-1.347,0.666
						c-1.934-0.006-2.9-0.008-4.832-0.012c-0.743-0.002-1.335-0.307-1.33-0.674c0.027-0.986,0.041-1.477,0.071-2.447
						C107.375,135.061,107.984,134.77,108.714,134.771z"/>
					<path fill-rule="evenodd" clip-rule="evenodd" fill="#FFFFFF" d="M117.932,134.791c1.922,0.004,2.883,0.004,4.807,0.01
						c0.736,0.002,1.34,0.295,1.337,0.658c0.006,0.973,0.007,1.463,0.014,2.451c0.003,0.367-0.601,0.666-1.341,0.666
						c-1.938-0.006-2.906-0.006-4.842-0.01c-0.743-0.004-1.343-0.305-1.337-0.672c0.007-0.989,0.013-1.48,0.022-2.451
						C116.594,135.08,117.2,134.789,117.932,134.791z"/>
					<path fill-rule="evenodd" clip-rule="evenodd" fill="#FFFFFF" d="M127.166,134.811c1.924,0.004,2.888,0.006,4.815,0.01
						c0.739,0.002,1.35,0.299,1.358,0.662c0.022,0.971,0.034,1.461,0.059,2.449c0.009,0.367-0.59,0.67-1.337,0.666
						c-1.942-0.004-2.913-0.004-4.853-0.01c-0.744,0-1.355-0.305-1.357-0.674c-0.008-0.988-0.01-1.479-0.017-2.451
						C125.831,135.102,126.432,134.809,127.166,134.811z"/>
					<path fill-rule="evenodd" clip-rule="evenodd" fill="#FFFFFF" d="M136.424,134.831c1.93,0.005,2.895,0.007,4.828,0.013
						c0.738-0.002,1.357,0.294,1.377,0.657c0.046,0.972,0.07,1.465,0.117,2.454c0.017,0.369-0.582,0.668-1.328,0.668
						c-1.955-0.006-2.93-0.008-4.879-0.01c-0.744-0.004-1.357-0.307-1.372-0.676c-0.026-0.99-0.042-1.48-0.067-2.451
						C135.091,135.123,135.682,134.831,136.424,134.831z"/>
					<path fill-rule="evenodd" clip-rule="evenodd" fill="#FFFFFF" d="M145.707,134.853c1.938,0.004,2.909,0.005,4.852,0.009
						c0.744,0.001,1.372,0.298,1.401,0.658c0.074,0.975,0.112,1.467,0.188,2.459c0.023,0.369-0.569,0.67-1.322,0.668
						c-1.965-0.006-2.946-0.008-4.906-0.012c-0.745-0.002-1.377-0.307-1.393-0.674c-0.052-0.991-0.08-1.483-0.131-2.457
						C144.377,135.145,144.967,134.85,145.707,134.853z"/>
					<path fill-rule="evenodd" clip-rule="evenodd" fill="#FFFFFF" d="M45.869,139.041c1.976,0.006,2.961,0.006,4.93,0.012
						c0.751,0.002,1.323,0.305,1.272,0.672c-0.135,0.992-0.203,1.49-0.334,2.49c-0.05,0.371-0.708,0.676-1.469,0.672
						c-1.99-0.008-2.988-0.012-4.987-0.018c-0.763,0-1.34-0.307-1.282-0.678c0.155-0.998,0.234-1.498,0.394-2.488
						C44.451,139.336,45.118,139.039,45.869,139.041z"/>
					<path fill-rule="evenodd" clip-rule="evenodd" fill="#FFFFFF" d="M55.314,139.064c1.959,0.004,2.938,0.008,4.892,0.012
						c0.748,0.004,1.321,0.303,1.285,0.672c-0.11,0.992-0.163,1.492-0.27,2.494c-0.04,0.369-0.693,0.674-1.442,0.674
						c-1.975-0.008-2.964-0.01-4.945-0.018c-0.758-0.002-1.341-0.309-1.293-0.678c0.127-1.002,0.193-1.498,0.324-2.49
						C53.911,139.361,54.566,139.063,55.314,139.064z"/>
					<path fill-rule="evenodd" clip-rule="evenodd" fill="#FFFFFF" d="M64.695,139.086c1.952,0.008,2.927,0.01,4.875,0.016
						c0.741,0,1.32,0.305,1.288,0.674c-0.087,0.992-0.13,1.49-0.216,2.49c-0.035,0.375-0.669,0.68-1.419,0.678
						c-1.962-0.006-2.945-0.008-4.913-0.014c-0.752-0.004-1.335-0.311-1.298-0.684c0.102-1,0.153-1.498,0.257-2.49
						C63.307,139.387,63.951,139.086,64.695,139.086z"/>
					<path fill-rule="evenodd" clip-rule="evenodd" fill="#FFFFFF" d="M74.042,139.111c1.941,0.006,2.91,0.01,4.848,0.014
						c0.741,0.002,1.326,0.303,1.301,0.672c-0.071,0.994-0.104,1.496-0.172,2.502c-0.023,0.373-0.654,0.678-1.405,0.674
						c-1.951-0.006-2.926-0.01-4.88-0.016c-0.752-0.004-1.339-0.311-1.31-0.684c0.082-1.002,0.123-1.5,0.207-2.492
						C72.663,139.41,73.3,139.111,74.042,139.111z"/>
					<path fill-rule="evenodd" clip-rule="evenodd" fill="#FFFFFF" d="M83.348,139.137c1.936,0.006,2.902,0.006,4.835,0.01
						c0.74,0.004,1.33,0.307,1.312,0.678c-0.055,0.994-0.082,1.494-0.134,2.5c-0.015,0.373-0.642,0.68-1.385,0.676
						c-1.947-0.006-2.919-0.008-4.869-0.016c-0.745,0-1.336-0.311-1.314-0.682c0.064-1.006,0.096-1.506,0.163-2.5
						C81.982,139.436,82.607,139.135,83.348,139.137z"/>
					<path fill-rule="evenodd" clip-rule="evenodd" fill="#FFFFFF" d="M92.634,139.158c1.932,0.006,2.899,0.008,4.831,0.014
						c0.739,0.002,1.333,0.307,1.32,0.678c-0.038,0.996-0.057,1.496-0.092,2.502c-0.014,0.375-0.631,0.68-1.375,0.678
						c-1.945-0.006-2.917-0.008-4.863-0.014c-0.743,0-1.338-0.311-1.318-0.686c0.047-1.004,0.071-1.506,0.121-2.502
						C91.274,139.461,91.896,139.158,92.634,139.158z"/>
					<path fill-rule="evenodd" clip-rule="evenodd" fill="#FFFFFF" d="M101.914,139.186c1.934,0.004,2.9,0.004,4.834,0.01
						c0.736,0.002,1.335,0.309,1.329,0.678c-0.023,0.998-0.034,1.5-0.056,2.508c-0.014,0.375-0.626,0.68-1.37,0.68
						c-1.945-0.006-2.916-0.01-4.86-0.016c-0.743-0.004-1.342-0.311-1.329-0.688c0.031-1.006,0.048-1.508,0.082-2.504
						C100.56,139.482,101.173,139.186,101.914,139.186z"/>
					<path fill-rule="evenodd" clip-rule="evenodd" fill="#FFFFFF" d="M111.193,139.209c1.934,0.006,2.901,0.006,4.838,0.01
						c0.737,0.004,1.344,0.311,1.34,0.68c-0.005,0.998-0.005,1.502-0.009,2.514c-0.005,0.375-0.615,0.678-1.359,0.678
						c-1.949-0.008-2.924-0.01-4.871-0.018c-0.746,0-1.347-0.311-1.342-0.686c0.017-1.008,0.026-1.51,0.045-2.51
						C109.844,139.508,110.45,139.207,111.193,139.209z"/>
					<path fill-rule="evenodd" clip-rule="evenodd" fill="#FFFFFF" d="M120.49,139.232c1.938,0.006,2.909,0.008,4.851,0.012
						c0.743,0.002,1.354,0.307,1.357,0.68c0.011,1,0.016,1.504,0.027,2.514c0.009,0.377-0.603,0.684-1.347,0.68
						c-1.958-0.006-2.937-0.008-4.891-0.014c-0.743-0.004-1.353-0.313-1.354-0.688c0.002-1.01,0.003-1.512,0.006-2.512
						C119.143,139.533,119.746,139.232,120.49,139.232z"/>
					<path fill-rule="evenodd" clip-rule="evenodd" fill="#FFFFFF" d="M129.811,139.258c1.945,0.004,2.92,0.008,4.87,0.014
						c0.743,0.002,1.366,0.305,1.376,0.68c0.031,1,0.047,1.502,0.079,2.514c0.015,0.379-0.593,0.686-1.343,0.684
						c-1.968-0.008-2.95-0.01-4.911-0.016c-0.751-0.004-1.368-0.314-1.376-0.691c-0.017-1.01-0.023-1.512-0.038-2.514
						C128.464,139.557,129.069,139.254,129.811,139.258z"/>
					<path fill-rule="evenodd" clip-rule="evenodd" fill="#FFFFFF" d="M139.174,139.281c1.955,0.004,2.93,0.008,4.891,0.012
						c0.749,0.004,1.382,0.311,1.404,0.682c0.055,1.004,0.083,1.508,0.139,2.52c0.021,0.379-0.58,0.686-1.337,0.682
						c-1.981-0.006-2.972-0.008-4.946-0.014c-0.754-0.002-1.385-0.313-1.395-0.689c-0.037-1.012-0.057-1.518-0.092-2.518
						C137.824,139.582,138.427,139.279,139.174,139.281z"/>
					<path fill-rule="evenodd" clip-rule="evenodd" fill="#FFFFFF" d="M50.203,143.553c1.994,0.008,2.989,0.012,4.975,0.016
						c0.755,0.004,1.338,0.311,1.294,0.686c-0.114,1.006-0.169,1.51-0.28,2.52c-0.045,0.377-0.707,0.684-1.471,0.68
						c-2.006-0.008-3.012-0.01-5.028-0.018c-0.769-0.004-1.358-0.314-1.307-0.689c0.136-1.01,0.204-1.514,0.341-2.518
						C48.776,143.854,49.443,143.551,50.203,143.553z"/>
					<path fill-rule="evenodd" clip-rule="evenodd" fill="#FFFFFF" d="M59.732,143.582c1.976,0.008,2.961,0.008,4.931,0.016
						c0.752,0.002,1.34,0.313,1.303,0.686c-0.092,1.008-0.137,1.512-0.227,2.525c-0.032,0.375-0.683,0.682-1.443,0.68
						c-1.987-0.008-2.983-0.01-4.979-0.018c-0.758-0.004-1.356-0.314-1.31-0.691c0.108-1.01,0.162-1.516,0.272-2.52
						C58.319,143.885,58.978,143.58,59.732,143.582z"/>
					<path fill-rule="evenodd" clip-rule="evenodd" fill="#FFFFFF" d="M69.192,143.611c1.963,0.006,2.944,0.01,4.903,0.018
						c0.748,0.002,1.341,0.311,1.312,0.686c-0.074,1.008-0.111,1.514-0.183,2.527c-0.029,0.377-0.663,0.684-1.417,0.684
						c-1.974-0.008-2.963-0.012-4.944-0.02c-0.759-0.004-1.349-0.313-1.32-0.691c0.086-1.012,0.129-1.518,0.217-2.523
						C67.795,143.916,68.436,143.609,69.192,143.611z"/>
					<path fill-rule="evenodd" clip-rule="evenodd" fill="#FFFFFF" d="M78.596,143.643c1.954,0.008,2.931,0.01,4.882,0.018
						c0.748,0,1.339,0.311,1.322,0.684c-0.057,1.014-0.086,1.52-0.142,2.535c-0.017,0.379-0.649,0.684-1.404,0.682
						c-1.964-0.008-2.948-0.012-4.917-0.018c-0.75-0.004-1.348-0.314-1.322-0.693c0.068-1.014,0.103-1.52,0.172-2.529
						C77.214,143.945,77.848,143.643,78.596,143.643z"/>
					<path fill-rule="evenodd" clip-rule="evenodd" fill="#FFFFFF" d="M87.966,143.672c1.951,0.008,2.925,0.01,4.874,0.018
						c0.743,0.002,1.341,0.311,1.321,0.688c-0.042,1.012-0.062,1.518-0.101,2.535c-0.011,0.379-0.636,0.688-1.384,0.684
						c-1.959-0.008-2.938-0.012-4.899-0.02c-0.752,0-1.35-0.316-1.331-0.691c0.052-1.016,0.078-1.523,0.131-2.535
						C86.598,143.973,87.222,143.67,87.966,143.672z"/>
					<path fill-rule="evenodd" clip-rule="evenodd" fill="#FFFFFF" d="M97.319,143.703c1.946,0.006,2.92,0.008,4.867,0.014
						c0.743,0.004,1.345,0.314,1.335,0.689c-0.026,1.016-0.039,1.523-0.063,2.543c-0.006,0.379-0.627,0.686-1.376,0.684
						c-1.958-0.008-2.939-0.012-4.896-0.02c-0.749-0.004-1.354-0.313-1.336-0.691c0.034-1.018,0.051-1.525,0.086-2.537
						C95.951,144.006,96.573,143.703,97.319,143.703z"/>
					<path fill-rule="evenodd" clip-rule="evenodd" fill="#FFFFFF" d="M106.668,143.734c1.946,0.006,2.919,0.01,4.867,0.016
						c0.746,0.002,1.351,0.313,1.351,0.689c-0.012,1.014-0.018,1.523-0.027,2.543c-0.004,0.381-0.62,0.688-1.373,0.688
						c-1.96-0.01-2.939-0.014-4.897-0.021c-0.749-0.002-1.355-0.314-1.348-0.693c0.022-1.018,0.033-1.527,0.057-2.539
						C105.304,144.037,105.92,143.732,106.668,143.734z"/>
					<path fill-rule="evenodd" clip-rule="evenodd" fill="#FFFFFF" d="M116.021,143.764c1.953,0.006,2.931,0.008,4.888,0.014
						c0.745,0.004,1.361,0.314,1.359,0.691c0.007,1.018,0.011,1.529,0.019,2.549c0,0.381-0.614,0.689-1.366,0.688
						c-1.969-0.008-2.951-0.012-4.915-0.02c-0.752-0.004-1.366-0.314-1.358-0.695c0.007-1.02,0.01-1.529,0.018-2.545
						C114.663,144.066,115.275,143.76,116.021,143.764z"/>
					<path fill-rule="evenodd" clip-rule="evenodd" fill="#FFFFFF" d="M125.413,143.795c1.959,0.006,2.939,0.01,4.903,0.016
						c0.748,0.004,1.371,0.313,1.381,0.691c0.023,1.018,0.035,1.529,0.059,2.549c0.012,0.383-0.604,0.691-1.356,0.689
						c-1.981-0.008-2.969-0.012-4.944-0.02c-0.753-0.004-1.377-0.316-1.377-0.695c-0.011-1.021-0.015-1.533-0.023-2.549
						C124.049,144.1,124.659,143.793,125.413,143.795z"/>
					<path fill-rule="evenodd" clip-rule="evenodd" fill="#FFFFFF" d="M134.835,143.824c1.971,0.008,2.956,0.01,4.933,0.016
						c0.758,0.002,1.389,0.314,1.41,0.693c0.044,1.02,0.067,1.533,0.113,2.557c0.018,0.381-0.592,0.688-1.355,0.688
						c-1.993-0.01-2.987-0.012-4.973-0.021c-0.764,0-1.389-0.316-1.4-0.695c-0.031-1.023-0.047-1.533-0.076-2.553
						C133.477,144.129,134.083,143.822,134.835,143.824z"/>
					<path fill-rule="evenodd" clip-rule="evenodd" fill="#FFFFFF" d="M144.354,143.855c3.588,0.012,5.389,0.018,9.008,0.029
						c0.776,0,1.441,0.318,1.472,0.705c0.083,1.012,0.124,1.52,0.208,2.535c0.031,0.391-0.588,0.707-1.374,0.703
						c-3.661-0.016-5.48-0.021-9.104-0.037c-0.785,0-1.434-0.32-1.454-0.709c-0.05-1.014-0.074-1.521-0.122-2.531
						C142.965,144.164,143.58,143.852,144.354,143.855z"/>
					<path fill-rule="evenodd" clip-rule="evenodd" fill="#FFFFFF" d="M39.699,148.07c2.042,0.006,3.06,0.014,5.09,0.021
						c0.78,0,1.368,0.311,1.319,0.689c-0.139,1.01-0.208,1.516-0.345,2.525c-0.048,0.377-0.73,0.684-1.521,0.678
						c-2.053-0.008-3.084-0.012-5.153-0.021c-0.792-0.002-1.393-0.311-1.33-0.688c0.162-1.01,0.242-1.518,0.407-2.527
						C38.229,148.373,38.917,148.066,39.699,148.07z"/>
					<path fill-rule="evenodd" clip-rule="evenodd" fill="#FFFFFF" d="M49.45,148.105c2.02,0.008,3.027,0.014,5.037,0.021
						c0.767,0.004,1.361,0.313,1.315,0.689c-0.113,1.014-0.168,1.52-0.279,2.533c-0.036,0.375-0.705,0.682-1.48,0.68
						c-2.029-0.01-3.046-0.014-5.088-0.023c-0.779-0.002-1.379-0.314-1.332-0.691c0.132-1.01,0.199-1.518,0.333-2.529
						C48.003,148.41,48.679,148.105,49.45,148.105z"/>
					<path fill-rule="evenodd" clip-rule="evenodd" fill="#FFFFFF" d="M59.096,148.143c1.999,0.008,2.996,0.014,4.986,0.02
						c0.759,0.004,1.354,0.314,1.322,0.691c-0.09,1.016-0.134,1.523-0.222,2.537c-0.034,0.377-0.685,0.682-1.453,0.68
						c-2.008-0.008-3.014-0.012-5.032-0.021c-0.77-0.004-1.372-0.314-1.331-0.691c0.103-1.014,0.155-1.521,0.26-2.535
						C57.675,148.447,58.333,148.141,59.096,148.143z"/>
					<path fill-rule="evenodd" clip-rule="evenodd" fill="#FFFFFF" d="M68.652,148.182c1.985,0.008,2.975,0.01,4.953,0.02
						c0.752,0,1.354,0.313,1.323,0.689c-0.069,1.016-0.102,1.525-0.169,2.541c-0.027,0.377-0.675,0.682-1.432,0.678
						c-1.992-0.008-2.989-0.012-4.989-0.02c-0.765-0.002-1.367-0.313-1.334-0.689c0.084-1.016,0.126-1.523,0.212-2.539
						C67.247,148.484,67.892,148.18,68.652,148.182z"/>
					<path fill-rule="evenodd" clip-rule="evenodd" fill="#FFFFFF" d="M78.141,148.217c1.973,0.008,2.959,0.012,4.927,0.02
						c0.75,0.002,1.351,0.314,1.331,0.693c-0.054,1.018-0.08,1.525-0.132,2.541c-0.021,0.379-0.653,0.684-1.411,0.682
						c-1.98-0.008-2.972-0.012-4.958-0.021c-0.759-0.004-1.358-0.316-1.334-0.691c0.065-1.016,0.097-1.523,0.164-2.539
						C76.75,148.52,77.389,148.213,78.141,148.217z"/>
					<path fill-rule="evenodd" clip-rule="evenodd" fill="#FFFFFF" d="M87.589,148.252c1.965,0.008,2.945,0.014,4.908,0.021
						c0.747,0.004,1.352,0.314,1.339,0.691c-0.038,1.02-0.057,1.529-0.093,2.547c-0.014,0.379-0.645,0.686-1.399,0.684
						c-1.972-0.008-2.958-0.014-4.934-0.021c-0.758-0.004-1.363-0.316-1.344-0.695c0.048-1.016,0.073-1.525,0.123-2.543
						C86.209,148.559,86.839,148.252,87.589,148.252z"/>
					<path fill-rule="evenodd" clip-rule="evenodd" fill="#FFFFFF" d="M97.008,148.291c1.961,0.008,2.942,0.01,4.903,0.018
						c0.75,0.004,1.354,0.318,1.342,0.695c-0.022,1.02-0.032,1.529-0.053,2.549c-0.004,0.377-0.633,0.688-1.389,0.682
						c-1.971-0.008-2.956-0.012-4.926-0.02c-0.756-0.002-1.36-0.316-1.352-0.695c0.034-1.018,0.052-1.525,0.088-2.545
						C95.637,148.598,96.257,148.287,97.008,148.291z"/>
					<path fill-rule="evenodd" clip-rule="evenodd" fill="#FFFFFF" d="M106.42,148.326c1.962,0.008,2.944,0.014,4.909,0.021
						c0.752,0.004,1.359,0.314,1.357,0.695c-0.008,1.021-0.014,1.533-0.02,2.553c-0.003,0.379-0.618,0.688-1.375,0.684
						c-1.978-0.01-2.964-0.014-4.938-0.023c-0.752-0.004-1.366-0.314-1.36-0.693c0.021-1.02,0.03-1.529,0.052-2.549
						C105.053,148.633,105.672,148.324,106.42,148.326z"/>
					<path fill-rule="evenodd" clip-rule="evenodd" fill="#FFFFFF" d="M115.845,148.365c1.968,0.008,2.952,0.012,4.924,0.018
						c0.752,0.004,1.374,0.318,1.381,0.699c0.007,1.021,0.01,1.533,0.019,2.555c0.002,0.379-0.614,0.688-1.376,0.684
						c-1.986-0.008-2.976-0.012-4.955-0.021c-0.759-0.002-1.375-0.314-1.373-0.695c0.004-1.02,0.008-1.533,0.014-2.555
						C114.481,148.668,115.096,148.361,115.845,148.365z"/>
					<path fill-rule="evenodd" clip-rule="evenodd" fill="#FFFFFF" d="M125.31,148.402c1.977,0.006,2.967,0.01,4.95,0.018
						c0.757,0.004,1.385,0.318,1.393,0.697c0.025,1.023,0.037,1.537,0.064,2.559c0.013,0.383-0.606,0.689-1.365,0.688
						c-2-0.008-2.999-0.012-4.991-0.023c-0.762-0.002-1.38-0.314-1.387-0.695c-0.012-1.021-0.019-1.533-0.027-2.557
						C123.941,148.709,124.553,148.398,125.31,148.402z"/>
					<path fill-rule="evenodd" clip-rule="evenodd" fill="#FFFFFF" d="M134.848,148.439c3.6,0.014,5.406,0.02,9.036,0.033
						c0.778,0.004,1.436,0.324,1.456,0.713c0.057,1.016,0.084,1.525,0.142,2.539c0.021,0.389-0.604,0.703-1.397,0.697
						c-3.662-0.014-5.482-0.023-9.109-0.039c-0.779-0.004-1.426-0.324-1.436-0.711c-0.031-1.014-0.045-1.52-0.074-2.533
						C133.453,148.75,134.075,148.436,134.848,148.439z"/>
					<path fill-rule="evenodd" clip-rule="evenodd" fill="#FFFFFF" d="M149.002,148.49c1.918,0.01,2.881,0.014,4.811,0.021
						c0.735,0.002,1.369,0.303,1.399,0.666c0.086,1.055,0.13,1.584,0.217,2.635c0.032,0.367-0.558,0.656-1.304,0.652
						c-1.951-0.006-2.922-0.01-4.86-0.018c-0.747-0.008-1.373-0.303-1.393-0.666c-0.066-1.051-0.099-1.58-0.164-2.631
						C147.689,148.785,148.268,148.49,149.002,148.49z"/>
					<path fill-rule="evenodd" clip-rule="evenodd" fill="#FFFFFF" d="M74.43,155.396c16.532,0.08,33.065,0.156,49.598,0.236
						c0.762,0.004,1.388,0.313,1.393,0.686c0.077,4.721,0.124,7.063,0.22,11.416c0.006,0.348-0.626,0.623-1.405,0.621
						c-16.875-0.059-33.751-0.127-50.627-0.186c-0.782-0.004-1.404-0.291-1.381-0.643c0.304-4.416,0.455-6.754,0.775-11.457
						C73.022,155.697,73.67,155.393,74.43,155.396z"/>
					<path fill-rule="evenodd" clip-rule="evenodd" fill="#FFFFFF" d="M72.426,168.98c8.415,0.033,16.83,0.061,25.245,0.088
						c0.158,0,0.29,0.059,0.289,0.131c-0.021,0.896-0.033,1.338-0.053,2.211c-0.003,0.07-0.139,0.127-0.296,0.127
						c-8.452-0.025-16.904-0.043-25.356-0.064c-0.164-0.002-0.292-0.061-0.288-0.127c0.062-0.883,0.092-1.33,0.153-2.234
						C72.124,169.039,72.259,168.979,72.426,168.98z"/>
					<path fill-rule="evenodd" clip-rule="evenodd" fill="#FFFFFF" d="M100.159,169.076c8.405,0.029,16.811,0.059,25.216,0.088
						c0.165,0,0.296,0.059,0.299,0.129c0.02,0.889,0.029,1.324,0.05,2.186c0.004,0.068-0.13,0.123-0.29,0.125
						c-8.443-0.02-16.886-0.041-25.329-0.061c-0.159-0.002-0.294-0.061-0.288-0.131c0.019-0.871,0.028-1.313,0.047-2.209
						C99.864,169.135,99.999,169.076,100.159,169.076z"/>
				</g>
			</g>
		</g>
	</g>
	<rect x="45" y="39" fill="#819693" width="126" height="63"/>
	<rect x="50" y="46" fill="#FFFFFF" width="102" height="4"/>
	<rect x="50" y="53" fill="#FFFFFF" width="92" height="3"/>
	<rect x="50" y="59" fill="#FFFFFF" width="48" height="3"/>
	<rect x="50" y="66" fill="#FFFFFF" width="90" height="3"/>
	<rect x="50" y="72" fill="#FFFFFF" width="110" height="3"/>
	<rect x="50" y="79" fill="#FFFFFF" width="52" height="3"/>
	<rect x="50" y="85" fill="#FFFFFF" width="101" height="3"/>
	<rect x="50" y="92" fill="#FFFFFF" width="81" height="3"/>
	<g>
		
			<rect x="58.007" y="42.314" fill="#FFFFFF" fill-opacity="0.6" stroke="#FFFFFF" stroke-width="2" stroke-linecap="round" stroke-linejoin="round" stroke-miterlimit="10" width="83.985" height="67.834"/>
		<g>
			
				<image overflow="visible" opacity="0.25" width="375" height="293" xlink:href="A229279E.png"  transform="matrix(0.24 0 0 0.24 57.2466 37.7197)">
			</image>
			<g>
				<g>
					<defs>
						<path id="XMLID_13_" d="M132,90.849c0,4.502-3.649,8.151-8.151,8.151H77.151C72.649,99,69,95.351,69,90.849V59.151
							C69,54.649,72.649,51,77.151,51h46.697c4.502,0,8.151,3.649,8.151,8.151V90.849z"/>
					</defs>
					<clipPath id="XMLID_2_">
						<use xlink:href="#XMLID_13_"  overflow="visible"/>
					</clipPath>
				</g>
				<g>
					<defs>
						<path id="XMLID_12_" d="M132,90.849c0,4.502-3.649,8.151-8.151,8.151H77.151C72.649,99,69,95.351,69,90.849V59.151
							C69,54.649,72.649,51,77.151,51h46.697c4.502,0,8.151,3.649,8.151,8.151V90.849z"/>
					</defs>
					<use xlink:href="#XMLID_12_"  overflow="visible" fill="#FFFFFF"/>
					<clipPath id="XMLID_3_">
						<use xlink:href="#XMLID_12_"  overflow="visible"/>
					</clipPath>
					
						<polyline clip-path="url(#XMLID_3_)" fill="none" stroke="#AD4A4C" stroke-width="13" stroke-linejoin="round" stroke-miterlimit="10" points="
						69.223,51.926 100.646,76.231 133.163,51.926 					"/>
				</g>
				<g>
					<defs>
						<path id="XMLID_11_" d="M132,90.849c0,4.502-3.649,8.151-8.151,8.151H77.151C72.649,99,69,95.351,69,90.849V59.151
							C69,54.649,72.649,51,77.151,51h46.697c4.502,0,8.151,3.649,8.151,8.151V90.849z"/>
					</defs>
					<clipPath id="XMLID_4_">
						<use xlink:href="#XMLID_11_"  overflow="visible"/>
					</clipPath>
				</g>
			</g>
		</g>
	</g>
</g>
</svg>
