<?xml version="1.0" encoding="utf-8"?>
<!-- Generator: Adobe Illustrator 16.0.0, SVG Export Plug-In . SVG Version: 6.00 Build 0)  -->
<!DOCTYPE svg PUBLIC "-//W3C//DTD SVG 1.1//EN" "http://www.w3.org/Graphics/SVG/1.1/DTD/svg11.dtd">
<svg version="1.1" id="Layer_1" xmlns="http://www.w3.org/2000/svg" xmlns:xlink="http://www.w3.org/1999/xlink" x="0px" y="0px"
	 width="200px" height="200px" viewBox="0 0 200 200" enable-background="new 0 0 200 200" xml:space="preserve">
<g>
	<g id="XMLID_726_">
		<path id="XMLID_731_" fill="#393F48" d="M148.273,168.734H14.037c-6.044,0-10.943-4.9-10.943-10.943V83.508
			c0-6.043,4.899-10.943,10.943-10.943h134.236c6.044,0,10.943,4.9,10.943,10.943v74.283
			C159.217,163.834,154.317,168.734,148.273,168.734z"/>
		<rect id="XMLID_730_" x="56.105" y="155.48" fill="#C9C8C8" width="39.278" height="34.064"/>
		<path id="XMLID_729_" fill="#E3E0E2" d="M96.023,189.545H55.467c-1.631,0-2.953-1.32-2.953-2.951l0,0
			c0-1.631,1.322-2.953,2.953-2.953h40.557c1.631,0,2.952,1.322,2.952,2.953l0,0C98.976,188.225,97.654,189.545,96.023,189.545z"/>
		<path id="XMLID_728_" fill="#E3E0E2" d="M159.217,151.721H3.094v6.07c0,6.043,4.899,10.943,10.943,10.943h134.236
			c6.044,0,10.943-4.9,10.943-10.943V151.721z"/>
		<rect id="XMLID_727_" x="10.264" y="79.91" fill="#D47956" width="141.783" height="65.162"/>
	</g>
	<g id="XMLID_724_">
		<path id="XMLID_725_" fill="#E3E0E2" d="M149.531,72.564H69.299v62.127c2.734,4.305,6.224,7.793,10.527,7.793h79.391V82.25
			C159.217,76.9,154.881,72.564,149.531,72.564z"/>
	</g>
	<path id="XMLID_723_" fill="#FFFFFF" d="M188.102,138.773H84.551c-4.863,0-8.807-3.943-8.807-8.807V19.26h121.162v110.707
		C196.906,134.83,192.965,138.773,188.102,138.773z"/>
	<path id="XMLID_722_" fill="#E3E0E2" d="M191.781,138.773L191.781,138.773V19.26h5.125v114.389
		C196.906,136.479,194.611,138.773,191.781,138.773z"/>
	<rect id="XMLID_721_" x="191.781" y="63.957" fill="#CDCDCD" width="5.125" height="49.877"/>
	<path id="XMLID_720_" fill="#393F48" d="M188.621,10.455H84.031c-4.576,0-8.287,3.709-8.287,8.287v0.518h121.162v-0.518
		C196.906,14.164,193.197,10.455,188.621,10.455z"/>
	<path id="XMLID_719_" fill="#D47956" d="M185.447,35.342H86.525c-0.918,0-1.664-0.746-1.664-1.664v-5.273
		c0-0.92,0.746-1.666,1.664-1.666h98.922c0.92,0,1.664,0.746,1.664,1.666v5.273C187.111,34.596,186.367,35.342,185.447,35.342z"/>
	<path id="XMLID_718_" fill="#B95B3D" d="M102.261,35.342H86.525c-0.918,0-1.664-0.746-1.664-1.664v-5.273
		c0-0.92,0.746-1.666,1.664-1.666h15.735V35.342z"/>
	<g id="XMLID_714_">
		<circle id="XMLID_717_" fill="#BF4B3A" cx="81.951" cy="14.988" r="1.559"/>
		<circle id="XMLID_716_" fill="#EAD060" cx="86.353" cy="14.988" r="1.559"/>
		<circle id="XMLID_715_" fill="#96BE55" cx="91.16" cy="14.988" r="1.559"/>
	</g>
	<rect id="XMLID_713_" x="84.794" y="41.184" fill="#E3E0E2" width="57.661" height="37.834"/>
	<rect id="XMLID_712_" x="84.794" y="80.85" fill="#4F7AAC" width="102.007" height="37.209"/>
	<rect id="XMLID_711_" x="146.463" y="41.184" fill="#E3E0E2" width="40.531" height="37.834"/>
	<rect id="XMLID_707_" x="120.776" y="119.855" fill="#E3E0E2" width="24.307" height="13.967"/>
	<rect id="XMLID_706_" x="84.794" y="119.855" fill="#E3E0E2" width="32.202" height="13.967"/>
	<rect id="XMLID_705_" x="148.123" y="119.855" fill="#E3E0E2" width="38.871" height="13.967"/>
	<circle id="XMLID_681_" fill="#FFFFFF" cx="35.276" cy="103.303" r="13.429"/>
	<rect id="XMLID_680_" x="23.937" y="122.109" fill="#393F48" width="23.086" height="4.018"/>
	<rect id="XMLID_679_" x="23.937" y="127.553" fill="#E3E0E2" width="23.086" height="4.018"/>
	<g id="XMLID_670_">
		<circle id="XMLID_678_" fill="#E8C561" cx="35.276" cy="103.303" r="12.394"/>
		<path id="XMLID_671_" fill="#393F48" d="M39.207,106.385c1.93-1.18,3.223-3.301,3.223-5.73c0-3.713-3.01-6.721-6.723-6.721
			c-3.711,0-6.722,3.008-6.722,6.721c0,2.377,1.237,4.461,3.1,5.656c-2.97,0.092-5.529,1.813-6.817,4.295
			c2.254,3.084,5.896,5.09,10.01,5.09c4.061,0,7.666-1.955,9.926-4.973C44.061,108.426,41.843,106.76,39.207,106.385z"/>
	</g>
	
		<text id="XMLID_669_" transform="matrix(1 0 0 1 94.1582 104.2617)" fill="#FFFFFF" font-family="'OpenSans-Bold'" font-size="12.6462">PAY @ HOTEL</text>
</g>
</svg>
