<?xml version="1.0" encoding="utf-8"?>
<!-- Generator: Adobe Illustrator 16.0.0, SVG Export Plug-In . SVG Version: 6.00 Build 0)  -->
<!DOCTYPE svg PUBLIC "-//W3C//DTD SVG 1.1//EN" "http://www.w3.org/Graphics/SVG/1.1/DTD/svg11.dtd">
<svg version="1.1" id="Layer_1" xmlns="http://www.w3.org/2000/svg" xmlns:xlink="http://www.w3.org/1999/xlink" x="0px" y="0px"
	 width="200px" height="200px" viewBox="0 0 200 200" enable-background="new 0 0 200 200" xml:space="preserve">
<g>
	<g id="businessman_2_">
		<ellipse fill="#DADBDD" cx="84.567" cy="190.659" rx="30.62" ry="4.084"/>
		<g>
			<rect x="77.375" y="51.741" fill="#A7A8AB" width="14.383" height="5.481"/>
			<rect x="78.443" y="47.709" fill="#EFC7B4" width="12.248" height="23.104"/>
			<polygon fill="#EFC7B4" points="78.443,48.286 78.443,49.69 90.691,53.969 90.691,48.286 			"/>
		</g>
		<g>
			<g>
				<polyline fill="#363441" points="67.26,123.733 67.26,186.167 81.287,186.167 82.884,123.733 86.25,123.733 87.848,186.167 
					101.874,186.167 101.874,123.733 101.874,111.968 86.783,111.968 82.352,111.968 67.26,111.968 67.26,123.733 				"/>
				<polygon fill="#DADBDD" points="67.26,111.968 101.874,121.071 101.874,111.968 				"/>
				<path fill="#1E181A" d="M83.281,188.585c0,4.186-18.638,4.186-18.638,0s4.172-5.975,9.319-5.975
					C79.109,182.61,83.281,184.399,83.281,188.585z"/>
				<path fill="#1E181A" d="M104.491,188.585c0,4.186-18.638,4.186-18.638,0s4.172-5.975,9.319-5.975
					C100.319,182.61,104.491,184.399,104.491,188.585z"/>
			</g>
			<g>
				<polygon fill="#1E181A" points="101.854,111.968 67.26,111.968 67.26,108.124 101.874,108.124 				"/>
				<path fill="#363441" d="M86.151,112.983h-3.168c-1.193,0-2.164-0.971-2.164-2.164v-1.547c0-1.193,0.971-2.162,2.164-2.162h3.168
					c1.193,0,2.164,0.969,2.164,2.162v1.547C88.314,112.013,87.344,112.983,86.151,112.983z M82.983,108.175
					c-0.605,0-1.098,0.492-1.098,1.098v1.547c0,0.607,0.493,1.099,1.098,1.099h3.168c0.606,0,1.099-0.491,1.099-1.099v-1.547
					c0-0.605-0.493-1.098-1.099-1.098H82.983z"/>
			</g>
			<g>
				<path fill="#FFFFFF" d="M103.737,73.719V58.745c-2.956-2.861-6.763-4.921-10.91-5.459c-0.188-0.023-0.377-0.043-0.566-0.063
					l-7.695,10.49l-7.695-10.49c-0.189,0.02-0.377,0.039-0.565,0.063c-4.148,0.538-7.954,2.598-10.91,5.459v14.975
					c0,0.037-0.001,0.074-0.001,0.113v32.163c0,1.177,0.953,2.129,2.13,2.129h17.039c0.005,0,17.044,0,17.044,0
					c1.176,0,2.13-0.952,2.13-2.129V73.833C103.738,73.793,103.737,73.756,103.737,73.719z"/>
				<polygon fill="#D7624F" points="87.485,62.448 86.321,64.675 82.78,64.675 81.65,62.448 84.567,60.062 				"/>
				<polygon fill="#E7E8E8" points="77.375,51.741 84.567,60.061 80.307,63.989 74.328,53.381 				"/>
				<polygon fill="#E7E8E8" points="91.758,51.741 84.567,60.061 88.827,63.989 94.806,53.381 				"/>
				<polygon fill="#D7624F" points="86.321,65.208 88.294,102.577 84.567,106.108 80.839,102.577 82.78,65.208 				"/>
			</g>
		</g>
		<g>
			<g>
				<path fill="#EFC7B4" d="M79.878,80.17c0,0-2.126,0.369-4.244,0.645c-1.06,0.139-2.117,0.256-2.906,0.329
					c-0.79,0.071-1.314,0.109-1.314,0.109l0.58,7.967c0,0,0.595-0.042,1.476-0.124c0.882-0.08,2.046-0.21,3.198-0.36
					c2.303-0.3,4.556-0.692,4.556-0.692c1.794-0.301,2.877-2.347,2.454-4.504C83.25,81.368,81.549,79.889,79.878,80.17z"/>
				<path fill="#EFC7B4" d="M75.806,83.829c-0.341,0-0.685-0.108-0.976-0.334c-0.698-0.539-0.826-1.541-0.288-2.239
					c0.625-0.813,2.242-3.368,2.242-5.417c0-0.884,0.715-1.598,1.598-1.598s1.598,0.714,1.598,1.598
					c0,3.508-2.611,6.985-2.909,7.371C76.756,83.616,76.284,83.829,75.806,83.829z"/>
			</g>
			<path fill="#E7E8E8" d="M68.223,91.239c-0.98,0-1.922-0.034-2.824-0.1l-0.006-2.137c2.283,0.177,4.86,0.131,7.72-0.141
				l0.201,2.121C71.52,91.152,69.807,91.239,68.223,91.239z"/>
			<path fill="#E7E8E8" d="M68.248,81.649c-1.052,0-2.006-0.047-2.857-0.129v-2.149c1.613,0.176,3.851,0.229,6.815-0.052
				l0.202,2.121C70.885,81.584,69.496,81.649,68.248,81.649z"/>
			<path fill="#FFFFFF" d="M68.223,90.173c-6.787,0-11.574-1.589-14.266-4.741c-1.525-1.785-3.089-4.904-1.876-9.617
				c1.243-4.828,4.584-8.749,8.009-12.266c2.608-2.677,5.483-5.184,8.544-7.449l5.702,7.705c-2.648,1.96-5.131,4.125-7.379,6.433
				c-2.5,2.567-4.909,5.31-5.594,7.968c-0.19,0.736-0.11,1.021-0.109,1.025c0.449,0.622,3.879,1.828,11.053,1.147l0.905,9.543
				C71.445,90.088,69.781,90.173,68.223,90.173z"/>
		</g>
		<g>
			<g>
				<polygon fill="#EFC7B4" points="126.766,53.969 124.014,59.23 131.092,62.932 135.742,54.043 				"/>
				<path fill="#EFC7B4" d="M124.977,53.522c-1.621,3.102,0.323,6.885,0.406,7.045c0.329,0.627,1.114,0.929,1.756,0.673
					c0.639-0.255,0.893-0.968,0.565-1.595c-0.007-0.015-0.1-0.198-0.218-0.499c-0.12-0.302-0.266-0.72-0.377-1.2
					c-0.221-0.96-0.307-2.17,0.228-3.189c0.306-0.586,0.026-1.338-0.626-1.678C126.061,52.739,125.283,52.936,124.977,53.522z"/>
			</g>
			<path fill="#FFFFFF" d="M117.291,85.492c-1.364,0-2.676-0.582-3.592-1.62L95.688,63.483c0,0,5.455-6.752,7.292-5.436
				c1.838,1.318,13.294,14.259,13.294,14.259l7.582-14.497l8.494,4.443L121.539,82.92c-0.73,1.398-2.104,2.347-3.67,2.537
				C117.676,85.48,117.483,85.492,117.291,85.492z"/>
			<polyline fill="#E7E8E8" points="109.112,64.354 107.744,77.13 109.813,79.471 109.112,64.354 			"/>
		</g>
		<g>
			<rect x="109.112" y="55.665" fill="#FFFFFF" width="39.24" height="53.254"/>
			<path fill="#EFC7B4" d="M135.742,53.893c0.92,1.758,0.079,4.01-1.875,5.032c-1.955,1.022-4.284,0.428-5.203-1.331l-1.898-3.625
				C131.735,50.781,135.742,53.893,135.742,53.893z"/>
		</g>
		<g>
			<path fill="#EFC7B4" d="M87.112,10.386c-7.343-0.385-13.607,5.255-13.992,12.598l-0.724,13.827
				c-0.385,7.343,5.255,13.607,12.598,13.992c7.342,0.384,13.607-5.256,13.991-12.599l0.726-13.827
				C100.095,17.036,94.455,10.771,87.112,10.386z"/>
			<g>
				<path fill="#D7624F" d="M90.224,42.583c-0.124,2.35-2.366,4.142-5.009,4.003c-2.644-0.138-4.687-2.156-4.564-4.505
					L90.224,42.583z"/>
				<path fill="#FFFFFF" d="M88.759,44.106l-6.914-0.361c-0.294-0.016-0.52-0.267-0.504-0.561l0.056-1.063l7.977,0.419l-0.056,1.063
					C89.302,43.897,89.052,44.122,88.759,44.106z"/>
			</g>
			<path fill="#392214" d="M101.358,14.606c0.984-1.354,1.724-2.994,1.745-4.887c-0.961,0.156-1.787,0.17-2.514,0.098
				c0.58-0.682,0.78-1.43,0.846-1.799c0.018-0.102-0.085-0.177-0.181-0.137c-2.83,1.182-6.091-0.614-6.091-0.614
				c-2.138-1.2-4.397-1.895-7.783-1.98c-11.175-0.595-14.875,7.807-14.875,7.807c-2.813,5.769-2.539,13.911,0.017,21.612
				c0.049,0.133,0.099,0.262,0.15,0.391c-0.091-0.609-0.148-1.227-0.165-1.855c0.164-2.419,0.028-5.02,0.321-4.726
				c2.412-2.88,3.501-8.935,3.501-8.935s4.669,1.262,10.207,1.788c5.562,0.056,10.338-0.712,10.338-0.712s0.446,6.135,2.544,9.252
				c0.322-0.262-0.081,2.312-0.17,4.734c-0.082,0.623-0.204,1.231-0.357,1.827c0.064-0.123,0.128-0.245,0.19-0.372
				C102.43,28.705,103.554,20.636,101.358,14.606z"/>
			<g>
				<g>
					<circle fill="#EFC7B4" cx="79.923" cy="30.55" r="2.103"/>
					<circle fill="#392214" cx="79.951" cy="30.018" r="2.103"/>
					<circle fill="#FFFFFF" cx="80.698" cy="29.4" r="0.526"/>
				</g>
				<g>
					<circle fill="#EFC7B4" cx="92.154" cy="31.19" r="2.103"/>
					<circle fill="#392214" cx="92.182" cy="30.659" r="2.103"/>
					<circle fill="#FFFFFF" cx="92.929" cy="30.041" r="0.526"/>
				</g>
			</g>
			<g>
				<path fill="#EFC7B4" d="M72.83,28.515c-1.468-0.077-2.721,1.052-2.798,2.52l-0.145,2.765c-0.077,1.469,1.051,2.723,2.52,2.799
					c1.468,0.078,2.721-1.051,2.798-2.52l0.146-2.766C75.427,29.844,74.299,28.592,72.83,28.515z"/>
				<path fill="#EFC7B4" d="M99.421,29.909c-1.469-0.076-2.722,1.051-2.798,2.52l-0.146,2.766c-0.077,1.469,1.051,2.721,2.52,2.797
					c1.469,0.078,2.722-1.051,2.799-2.519l0.144-2.765C102.018,31.238,100.889,29.986,99.421,29.909z"/>
			</g>
			<path opacity="0.6" fill="#EFC7B4" d="M101.105,30.644c-0.429-0.405-0.983-0.673-1.611-0.724
				c-0.021-0.002-0.041-0.008-0.063-0.011c-2.109-3.118-2.555-9.253-2.555-9.253s-4.776,0.768-10.338,0.712
				c-0.002,0-0.416,7.896-0.416,7.896c-2.156,4.024-3.721,9.937-3.721,9.937l3.191,0.168l-0.599,11.434
				c7.342,0.384,13.607-5.256,13.991-12.599l0.012-0.214c1.469,0.078,2.722-1.051,2.799-2.519l0.144-2.765
				C101.982,31.897,101.65,31.163,101.105,30.644z"/>
		</g>
	</g>
	<g>
		<g>
			<path fill="#535353" d="M115.398,69.476c3.342-1.318,5.814,0.68,8.953,1.25c2.155,0.392,3.468-2.294,5.78-1.207
				c1.977,0.929,3.119,1.772,5.368,1.76c2.712-0.015,3.803-3.202,6.852-2.304c1.86,0.548,2.648-2.347,0.797-2.893
				c-1.937-0.571-3.302-0.474-5.062,0.526c-3.523,2.002-5.531,0.104-8.938-0.526c-2.328-0.43-3.585,1.961-6.129,1.12
				c-3.04-1.005-5.365-1.824-8.418-0.62C112.823,67.285,113.597,70.187,115.398,69.476L115.398,69.476z"/>
		</g>
	</g>
	<g>
		<g>
			<path fill="#535353" d="M115.398,77.476c3.342-1.318,5.814,0.68,8.953,1.25c2.155,0.392,3.468-2.294,5.78-1.207
				c1.977,0.929,3.119,1.772,5.368,1.76c2.712-0.015,3.803-3.202,6.852-2.304c1.86,0.548,2.648-2.347,0.797-2.893
				c-1.937-0.571-3.302-0.474-5.062,0.526c-3.523,2.002-5.531,0.104-8.938-0.526c-2.328-0.43-3.585,1.961-6.129,1.12
				c-3.04-1.005-5.365-1.824-8.418-0.62C112.823,75.285,113.597,78.187,115.398,77.476L115.398,77.476z"/>
		</g>
	</g>
	<g>
		<g>
			<path fill="#535353" d="M115.398,85.476c3.342-1.318,5.814,0.68,8.953,1.25c2.155,0.392,3.468-2.294,5.78-1.207
				c1.977,0.929,3.119,1.772,5.368,1.76c2.712-0.015,3.803-3.202,6.852-2.304c1.86,0.548,2.648-2.347,0.797-2.893
				c-1.937-0.571-3.302-0.474-5.062,0.526c-3.523,2.002-5.531,0.104-8.938-0.526c-2.328-0.43-3.585,1.961-6.129,1.12
				c-3.04-1.005-5.365-1.824-8.418-0.62C112.823,83.285,113.597,86.187,115.398,85.476L115.398,85.476z"/>
		</g>
	</g>
	<g>
		<g>
			<path fill="#535353" d="M117.304,99.429c1.025,4.516,3.622,6.46,8.152,5.063c6.877-2.122,12.975-6.876,19.301-10.166
				c1.717-0.893,0.2-3.482-1.514-2.591c-4.055,2.108-7.903,4.574-11.935,6.725c-3.183,1.698-9.747,6.185-11.112,0.172
				C119.769,96.745,116.876,97.545,117.304,99.429L117.304,99.429z"/>
		</g>
	</g>
</g>
</svg>
