<?xml version="1.0" encoding="iso-8859-1"?>
<!-- Generator: Adobe Illustrator 19.0.0, SVG Export Plug-In . SVG Version: 6.00 Build 0)  -->
<svg version="1.1" id="Layer_1" xmlns="http://www.w3.org/2000/svg" xmlns:xlink="http://www.w3.org/1999/xlink" x="0px" y="0px"
	 viewBox="0 0 354.807 354.807" style="enable-background:new 0 0 354.807 354.807;" xml:space="preserve">
<g>
	<path style="fill:#A4A9AD;" d="M16.322,264.454C7.345,264.454,0,257.109,0,248.133V41.389c0-8.977,7.345-20.674,16.322-20.674
		h309.027c8.977,0,16.322,7.345,16.322,16.322v211.096c0,8.977-7.345,16.322-16.322,16.322H16.322z"/>
	<path style="fill:#C3C6C8;" d="M29.458,264.454c-8.978,0-16.322-7.345-16.322-16.322V37.037c0-8.977,7.345-16.322,16.322-16.322
		h309.027c8.977,0,16.322,7.345,16.322,16.322v211.096c0,8.977-7.345,16.322-16.322,16.322H29.458z"/>
	<path style="fill:#1E252B;" d="M29.458,20.715h309.027c8.977,0,16.322,7.345,16.322,16.322v197.764H13.136V37.037
		C13.136,28.059,20.48,20.715,29.458,20.715z"/>
	<rect x="34.898" y="42.477" style="fill:#0071CE;" width="298.146" height="170.56"/>
	<rect x="61.844" y="82.965" style="fill:#FFFFFF;" width="244.255" height="89.586"/>
	<rect x="84.403" y="101.21" style="fill:#A4A9AD;" width="78" height="53.386"/>
	<rect x="192.132" y="103.903" style="fill:#C3C6C8;" width="97.271" height="23"/>
	<g>
		<polygon style="fill:#B3B8BA;" points="192.679,323.301 114.332,323.301 133.919,264.454 212.265,264.454 		"/>
		<path style="fill:#C3C6C8;" d="M219.335,323.301c2.979,0,5.395,2.415,5.395,5.395c0,2.98-2.416,5.396-5.395,5.396h-77.801V323.3
			L219.335,323.301L219.335,323.301z"/>
		<path style="fill:#A4A9AD;" d="M111.284,334.092c-4.838,0-8.761-3.923-8.761-8.761c0-1.018,0.173-1.995,0.492-2.903l0.002-0.002
			l19.294-57.97h11.607l-19.587,58.846h27.202c2.98,0,5.396,2.415,5.396,5.395c0,2.98-2.416,5.396-5.396,5.396H111.24
			L111.284,334.092L111.284,334.092z"/>
	</g>
	<circle style="fill:#1E252B;" cx="183.971" cy="249.943" r="8.161"/>
	<path style="fill:#1E252B;" d="M269.452,182.132l-18.805-18.805l10.109-3.695c2.499-0.914,4.098-3.363,3.928-6.019
		c-0.169-2.655-2.067-4.882-4.662-5.469l-33.439-7.572c-0.036-0.008-0.072-0.01-0.107-0.017c-0.074-0.015-0.148-0.023-0.221-0.036
		c-0.287-0.049-0.573-0.076-0.86-0.082c-0.068-0.002-0.136-0.008-0.205-0.007c-0.335,0.004-0.667,0.036-0.994,0.095
		c-0.076,0.014-0.15,0.034-0.227,0.051c-0.281,0.063-0.558,0.144-0.827,0.245c-0.064,0.024-0.13,0.043-0.193,0.069
		c-0.309,0.129-0.604,0.288-0.889,0.468c-0.072,0.046-0.142,0.095-0.214,0.145c-0.292,0.202-0.574,0.422-0.831,0.679
		c-0.257,0.257-0.477,0.539-0.68,0.832c-0.049,0.07-0.098,0.14-0.143,0.211c-0.181,0.285-0.34,0.581-0.469,0.89
		c-0.026,0.064-0.045,0.129-0.068,0.193c-0.102,0.27-0.183,0.545-0.245,0.826c-0.017,0.076-0.037,0.151-0.051,0.229
		c-0.059,0.326-0.091,0.656-0.095,0.99c-0.001,0.071,0.005,0.143,0.007,0.214c0.007,0.283,0.034,0.566,0.081,0.85
		c0.013,0.076,0.021,0.151,0.037,0.227c0.007,0.035,0.009,0.071,0.017,0.106l7.573,33.439c0.588,2.595,2.813,4.493,5.469,4.662
		c0.129,0.009,0.257,0.013,0.385,0.013c2.505,0,4.765-1.563,5.634-3.94l3.695-10.11l18.806,18.806
		c1.171,1.171,2.707,1.757,4.242,1.757s3.071-0.586,4.243-1.758C271.796,188.275,271.796,184.476,269.452,182.132z"/>
</g>
<g>
</g>
<g>
</g>
<g>
</g>
<g>
</g>
<g>
</g>
<g>
</g>
<g>
</g>
<g>
</g>
<g>
</g>
<g>
</g>
<g>
</g>
<g>
</g>
<g>
</g>
<g>
</g>
<g>
</g>
</svg>
