<?xml version="1.0" encoding="utf-8"?>
<!-- Generator: Adobe Illustrator 16.0.0, SVG Export Plug-In . SVG Version: 6.00 Build 0)  -->
<!DOCTYPE svg PUBLIC "-//W3C//DTD SVG 1.1//EN" "http://www.w3.org/Graphics/SVG/1.1/DTD/svg11.dtd">
<svg version="1.1" id="Layer_1" xmlns="http://www.w3.org/2000/svg" xmlns:xlink="http://www.w3.org/1999/xlink" x="0px" y="0px"
	 width="17px" height="13px" viewBox="0 0 17 13" enable-background="new 0 0 17 13" xml:space="preserve">
<path fill-rule="evenodd" clip-rule="evenodd" fill="#E3963E" d="M2.012,5.044c0.1-0.17,0.254-0.239,0.446-0.267
	c1.196-0.169,2.391-0.35,3.588-0.516c0.233-0.032,0.374-0.125,0.48-0.346c0.512-1.067,1.042-2.125,1.566-3.185
	c0.042-0.084,0.083-0.172,0.141-0.247c0.15-0.192,0.374-0.199,0.531-0.013c0.066,0.078,0.115,0.172,0.16,0.265
	c0.541,1.09,1.081,2.181,1.617,3.274c0.062,0.125,0.127,0.198,0.28,0.219c0.907,0.124,1.812,0.263,2.716,0.396
	c0.359,0.053,0.719,0.098,1.076,0.16c0.39,0.067,0.495,0.363,0.223,0.653c-0.283,0.304-0.591,0.585-0.889,0.876
	c-0.619,0.605-1.237,1.213-1.861,1.814c-0.097,0.094-0.123,0.175-0.099,0.314c0.213,1.188,0.413,2.38,0.616,3.57
	c0.005,0.025,0.014,0.051,0.014,0.076c-0.001,0.194,0.073,0.415-0.128,0.552c-0.195,0.133-0.381,0.018-0.557-0.074
	C10.877,12.015,9.82,11.464,8.77,10.9c-0.184-0.099-0.32-0.114-0.515-0.009c-1.042,0.563-2.093,1.105-3.141,1.654
	c-0.061,0.032-0.122,0.065-0.185,0.095c-0.139,0.063-0.289,0.098-0.418,0.001c-0.137-0.103-0.155-0.26-0.127-0.423
	c0.138-0.808,0.275-1.616,0.413-2.424c0.076-0.442,0.15-0.885,0.229-1.326c0.026-0.147-0.01-0.255-0.124-0.364
	c-0.849-0.817-1.69-1.643-2.536-2.463C2.229,5.508,2.105,5.367,2.012,5.2C2.012,5.148,2.012,5.096,2.012,5.044z"/>
</svg>
