<?xml version="1.0" encoding="utf-8"?>
<!-- Generator: Adobe Illustrator 16.0.0, SVG Export Plug-In . SVG Version: 6.00 Build 0)  -->
<!DOCTYPE svg PUBLIC "-//W3C//DTD SVG 1.1//EN" "http://www.w3.org/Graphics/SVG/1.1/DTD/svg11.dtd">
<svg version="1.1" id="Layer_1" xmlns="http://www.w3.org/2000/svg" xmlns:xlink="http://www.w3.org/1999/xlink" x="0px" y="0px"
	 width="17px" height="13px" viewBox="0 0 17 13" enable-background="new 0 0 17 13" xml:space="preserve">
<path fill-rule="evenodd" clip-rule="evenodd" fill="#E3963E" d="M2.114,5.058C2.275,4.773,2.57,4.789,2.833,4.75
	c1.116-0.165,2.232-0.325,3.35-0.481C6.37,4.243,6.473,4.163,6.557,3.986c0.504-1.048,1.025-2.087,1.541-3.129
	C8.139,0.772,8.181,0.687,8.23,0.608c0.179-0.283,0.448-0.283,0.632,0c0.042,0.064,0.073,0.135,0.107,0.205
	c0.523,1.057,1.052,2.111,1.565,3.173c0.085,0.176,0.188,0.257,0.375,0.283c0.99,0.138,1.979,0.284,2.969,0.427
	c0.229,0.033,0.457,0.065,0.685,0.103c0.162,0.027,0.327,0.063,0.384,0.25c0.055,0.181-0.04,0.317-0.158,0.434
	c-0.581,0.571-1.166,1.139-1.749,1.709c-0.313,0.306-0.623,0.614-0.939,0.916c-0.095,0.09-0.13,0.172-0.105,0.312
	c0.207,1.169,0.404,2.34,0.599,3.511c0.037,0.224,0.128,0.483-0.086,0.648c-0.209,0.16-0.422,0.007-0.618-0.097
	c-1.053-0.553-2.107-1.102-3.156-1.661c-0.136-0.072-0.233-0.074-0.372-0.001c-1.056,0.563-2.118,1.116-3.179,1.671
	c-0.068,0.036-0.136,0.073-0.208,0.101c-0.338,0.133-0.573-0.044-0.515-0.404c0.147-0.911,0.308-1.819,0.463-2.729
	c0.058-0.337,0.114-0.674,0.176-1.01c0.027-0.146-0.011-0.252-0.124-0.36C4.134,7.279,3.302,6.461,2.464,5.649
	c-0.135-0.131-0.26-0.27-0.35-0.437C2.114,5.161,2.114,5.109,2.114,5.058z M3.864,5.584C3.879,5.702,3.955,5.739,4.007,5.79
	C4.676,6.443,5.345,7.097,6.02,7.744c0.115,0.11,0.153,0.205,0.123,0.373c-0.174,0.94-0.32,1.886-0.498,2.825
	c-0.034,0.179,0.041,0.151,0.135,0.133c0.056-0.012,0.106-0.054,0.159-0.081c0.81-0.426,1.622-0.849,2.428-1.28
	C8.495,9.645,8.593,9.64,8.721,9.713c0.289,0.165,0.588,0.314,0.882,0.47c0.604,0.318,1.208,0.636,1.827,0.961
	c0-0.101,0.01-0.176-0.002-0.248c-0.156-0.927-0.308-1.854-0.481-2.777c-0.033-0.174,0.016-0.268,0.128-0.376
	c0.669-0.642,1.333-1.288,1.995-1.936c0.062-0.06,0.167-0.099,0.151-0.224c-0.992-0.142-1.981-0.285-2.971-0.425
	C10.088,5.135,9.982,5.07,9.905,4.91C9.506,4.079,9.093,3.253,8.681,2.428C8.643,2.352,8.637,2.243,8.516,2.211
	C8.071,3.11,7.622,4.004,7.188,4.905C7.11,5.065,7.007,5.134,6.845,5.157C5.856,5.297,4.867,5.44,3.864,5.584z"/>
</svg>
