<?xml version="1.0" encoding="utf-8"?>
<!-- Generator: Adobe Illustrator 16.0.0, SVG Export Plug-In . SVG Version: 6.00 Build 0)  -->
<!DOCTYPE svg PUBLIC "-//W3C//DTD SVG 1.1//EN" "http://www.w3.org/Graphics/SVG/1.1/DTD/svg11.dtd">
<svg version="1.1" id="Layer_1" xmlns="http://www.w3.org/2000/svg" xmlns:xlink="http://www.w3.org/1999/xlink" x="0px" y="0px"
	 width="200px" height="122px" viewBox="0 439 200 122" enable-background="new 0 439 200 122" xml:space="preserve">
<path fill="#2B3B4E" d="M132.126,524.252v10.709h-17.323v-3.622c0-1.26-0.944-2.205-2.204-2.205H85.197
	c-1.26,0-2.205,0.945-2.205,2.205v3.622H60.788c-1.417-5.197-6.142-8.977-11.811-8.977c-5.669,0-10.394,3.779-11.811,8.977H26.457
	v-10.709H132.126z"/>
<path fill="#324A5E" d="M132.126,524.252H26.457c-2.992,0-5.512-2.52-5.512-5.512v-54.173c0-2.992,2.52-5.513,5.512-5.513h100.158
	c2.992,0,5.512,2.521,5.512,5.513V524.252L132.126,524.252z"/>
<polygon fill="#84DBFF" points="132.126,480.787 132.126,537.638 179.055,537.638 179.055,511.339 162.362,480.787 "/>
<path fill="#F2F2F2" d="M179.055,511.339v22.047h-8.504v4.252h-8.661c-0.315-6.457-5.669-11.653-12.283-11.653
	c-6.457,0-11.812,5.196-12.284,11.653h-5.354v-56.692h30.236L179.055,511.339z"/>
<polygon fill="#84DBFF" points="173.386,508.504 160.314,484.409 135.748,484.409 135.748,508.504 "/>
<polygon fill="#54C0EB" points="151.811,508.504 173.386,508.504 160.314,484.409 158.582,484.409 "/>
<circle fill="#324A5E" cx="48.977" cy="538.268" r="12.283"/>
<g>
	<circle fill="#E6E9EE" cx="48.977" cy="538.268" r="7.874"/>
	<path fill="#E6E9EE" d="M112.599,540.314H85.354c-1.26,0-2.205-0.944-2.205-2.204v-6.93c0-1.26,0.945-2.204,2.205-2.204h27.244
		c1.26,0,2.204,0.944,2.204,2.204v6.93C114.803,539.37,113.858,540.314,112.599,540.314z"/>
</g>
<rect x="174.488" y="522.362" fill="#FF7058" width="4.566" height="9.134"/>
<path fill="#E6E9EE" d="M143.622,512.913h-5.984c-1.103,0-2.048-0.944-2.048-2.047v-0.63h10.08v0.787
	C145.67,512.126,144.725,512.913,143.622,512.913z"/>
<path fill="#324A5E" d="M179.213,533.386h-8.662v6.299h8.662c0.787,0,1.417-0.63,1.417-1.417v-3.307
	C180.63,534.016,180,533.386,179.213,533.386z"/>
<path fill="#2B3B4E" d="M163.622,537.638h-1.732c-0.315-6.457-5.669-11.653-12.283-11.653s-11.969,5.196-12.284,11.653h-1.732
	c0.315-7.401,6.457-13.386,14.017-13.386S163.307,530.079,163.622,537.638z"/>
<circle fill="#324A5E" cx="149.606" cy="538.268" r="12.283"/>
<circle fill="#E6E9EE" cx="149.606" cy="538.268" r="7.874"/>
<g>
	<path fill="#FFFFFF" d="M77.769,492.473v16.283l12.964-2.459v-7.935c0-0.332,0.29-0.59,0.619-0.553l1.595,0.247
		c0.28,0.032,0.493,0.27,0.493,0.553v9.217c0,0.262-0.183,0.488-0.439,0.543l-14.192,3.052c-0.686,0.147-1.395,0.149-2.082,0.005
		l-14.039-2.953c-0.252-0.053-0.435-0.272-0.441-0.529l-0.243-9.361c-0.007-0.293,0.214-0.542,0.507-0.568l11.925-1.047
		c0.207-0.019,0.386-0.15,0.465-0.342l1.796-4.363C76.931,491.698,77.769,491.864,77.769,492.473z M61.869,487.142l-3.742,7.999
		c-0.183,0.391,0.13,0.832,0.56,0.789l14.054-1.42c0.198-0.021,0.371-0.146,0.452-0.327l4.522-10.188l-15.443,2.836
		C62.096,486.863,61.945,486.979,61.869,487.142z M77.715,483.994L82.5,494.5c0.083,0.183,0.26,0.308,0.461,0.323l14.028,1.128
		c0.422,0.034,0.726-0.398,0.55-0.785l-3.659-8.02c-0.075-0.166-0.228-0.284-0.407-0.316L77.715,483.994z M73.783,475.698
		l3.473,6.014c0.268,0.463,0.936,0.463,1.204,0l3.472-6.014c0.268-0.463-0.067-1.042-0.602-1.042h-1.736v-3.688
		c0-0.384-0.311-0.695-0.695-0.695h-2.084c-0.384,0-0.695,0.312-0.695,0.695v3.688h-1.736
		C73.85,474.656,73.516,475.235,73.783,475.698z"/>
</g>
</svg>
